<?xml version="1.0" encoding="utf-8"?>
<!-- Generator: Adobe Illustrator 25.0.1, SVG Export Plug-In . SVG Version: 6.00 Build 0)  -->
<svg version="1.1" id="Слой_1" xmlns="http://www.w3.org/2000/svg" xmlns:xlink="http://www.w3.org/1999/xlink" x="0px" y="0px"
     viewBox="0 0 50 50" style="enable-background:new 0 0 50 50;" xml:space="preserve">
<style type="text/css">
	.st0{fill:#FFFFFF;}
</style>
    <g>
	<g>
		<path class="st0" d="M18.7,46.2c-2.8,0-5.2-2.2-5.2-4.7c0-2.7,2.3-4.7,5.2-4.7c2.8,0,5.2,2.2,5.2,4.7C23.8,44,21.5,46.2,18.7,46.2
			z M18.7,37.5c-2.3,0-4.2,1.7-4.2,3.8c0,2.2,1.8,3.8,4.2,3.8s4.2-1.7,4.2-3.8C22.8,39.2,21,37.5,18.7,37.5z"/>
	</g>
        <g>
		<path class="st0" d="M41.2,46.2c-2.8,0-5.2-2.2-5.2-4.7c0-2.7,2.3-4.7,5.2-4.7s5.2,2.2,5.2,4.7C46.2,44,44,46.2,41.2,46.2z
			 M41.2,37.5c-2.3,0-4.2,1.7-4.2,3.8c0,2.2,1.8,3.8,4.2,3.8s4.2-1.7,4.2-3.8C45.3,39.2,43.5,37.5,41.2,37.5z"/>
	</g>
        <g>
		<polygon class="st0" points="44.2,31.5 17.7,31.5 17.5,31.2 8.2,4.7 0,4.7 0,3.8 8.7,3.8 8.8,4.2 18.3,30.5 43.5,30.5 48.7,15
			21.8,15 21.8,14.2 50,14.2 		"/>
	</g>
</g>
</svg>
