<?xml version="1.0" encoding="utf-8"?>
<!-- Generator: Adobe Illustrator 25.0.1, SVG Export Plug-In . SVG Version: 6.00 Build 0)  -->
<svg version="1.1" id="Слой_1" xmlns="http://www.w3.org/2000/svg" xmlns:xlink="http://www.w3.org/1999/xlink" x="0px" y="0px"
     viewBox="0 0 50 50" style="enable-background:new 0 0 50 50;" xml:space="preserve">
<style type="text/css">
	.st0{fill:#FFFFFF;}
</style>
    <g>
	<g>
		<path class="st0" d="M19.9,42.3c-2.2,0-4.3-1.8-4.3-3.9c0-2.2,1.8-3.9,4.3-3.9c2.2,0,4.3,1.8,4.3,3.9C24,40.6,22.1,42.3,19.9,42.3
			z M19.9,35.2c-1.8,0-3.5,1.4-3.5,3.1c0,1.8,1.4,3.1,3.5,3.1s3.5-1.4,3.5-3.1C23.2,36.6,21.7,35.2,19.9,35.2z"/>
	</g>
        <g>
		<path class="st0" d="M38.3,42.3c-2.2,0-4.3-1.8-4.3-3.9c0-2.2,1.8-3.9,4.3-3.9c2.4,0,4.3,1.8,4.3,3.9
			C42.4,40.6,40.5,42.3,38.3,42.3z M38.3,35.2c-1.8,0-3.5,1.4-3.5,3.1c0,1.8,1.4,3.1,3.5,3.1c1.9,0,3.5-1.4,3.5-3.1
			C41.5,36.6,40.1,35.2,38.3,35.2z"/>
	</g>
        <g>
		<polygon class="st0" points="40.7,30.3 19,30.3 18.8,30.1 11.3,8.4 4.6,8.4 4.6,7.7 11.7,7.7 11.8,8 19.6,29.5 40.1,29.5
			44.4,16.9 22.4,16.9 22.4,16.1 45.4,16.1 		"/>
	</g>
</g>
</svg>
