<?xml version="1.0" encoding="utf-8"?>
<!-- Generator: Adobe Illustrator 25.0.1, SVG Export Plug-In . SVG Version: 6.00 Build 0)  -->
<svg version="1.1" id="Слой_1" xmlns="http://www.w3.org/2000/svg" xmlns:xlink="http://www.w3.org/1999/xlink" x="0px" y="0px"
	 viewBox="0 0 34.9 18.1" style="enable-background:new 0 0 34.9 18.1;" xml:space="preserve">
<style type="text/css">
	.st0{fill:#FFFFFF;}
	.st1{fill:#0097AE;}
</style>
<g>
	<g>
		<path d="M33.7,9.3l-2.5-0.4l-1.7-3.6C29.4,4.6,28.8,4,28,4h-6V1.4c0-0.7-0.6-1.3-1.4-1.3h-14c-0.8,0-1.4,0.6-1.4,1.3v7.5v2.2v3.5
			c0,0.7,0.6,1.3,1.4,1.3h1.9v-0.4c0.2,1.4,1.5,2.6,3,2.6c1.4,0,2.6-0.9,3-2.2h10.4c0.3,1.3,1.5,2.2,3,2.2c1.5,0,2.8-1.1,3-2.5v0.3
			h2.8c0.8,0,1.4-0.6,1.4-1.4v-3.5C35.1,10.4,34.5,9.3,33.7,9.3z M11.5,17.2c-1.1,0-2.1-0.9-2.1-1.9s0.9-1.9,2.1-1.9
			s2.1,0.9,2.1,1.9S12.6,17.2,11.5,17.2z M11.5,12.4c-1.6,0-2.9,1.2-3,2.6H6.6c-0.2,0-0.4-0.2-0.4-0.4v-3.5V8.9V1.4
			C6.2,1.2,6.4,1,6.6,1h14C20.8,1,21,1.2,21,1.4v3.1v6.6V15h-6.5C14.4,13.5,13.1,12.4,11.5,12.4z M27.8,17.2c-1.1,0-2.1-0.9-2.1-1.9
			s0.9-1.9,2.1-1.9c1.1,0,2.1,0.9,2.1,1.9S29,17.2,27.8,17.2z M33.6,15h-2.8c-0.1-1.5-1.4-2.6-3-2.6c-1.6,0-2.9,1.2-3,2.6H22v-3.9
			V4.9h6c0.2,0,0.4,0.2,0.4,0.4c0,0.1,0,0.1,0,0.2l1.9,4c0.1,0.1,0.2,0.2,0.4,0.3l2.8,0.4c0,0,0,0,0.1,0c0.1,0,0.4,0.5,0.4,0.8v2.2
			h-2.8v0.9h2.8v0.4C34.1,14.8,33.9,15,33.6,15z"/>
		<rect x="23.4" y="10.9" width="1.4" height="0.9"/>
		<rect x="6.6" y="2.7" width="13.5" height="0.9"/>
		<rect x="6.6" y="6.2" width="13.5" height="0.9"/>
		<rect x="6.6" y="9.7" width="13.5" height="0.9"/>
		<path d="M27.6,6.6C27.6,6.3,27.2,6,26.9,6h-3c-0.4,0-0.8,0.3-0.8,0.7v2.1c0,0.4,0.3,0.7,0.8,0.7H28c0.4,0,0.8-0.3,0.8-0.7
			c0-0.1,0-0.1,0-0.2L27.6,6.6z M23.9,8.8l0-2.1l2.9,0c0,0.1,0,0.1,0,0.2l1,1.9L23.9,8.8z"/>
	</g>
	<g>
		<circle class="st0" cx="13.1" cy="6.1" r="5"/>
		<g>
			<path class="st1" d="M9,1.8L3.1,2.2L9,2.6c0,0,0,0,0,0L9,1.8C9,1.8,9,1.8,9,1.8z"/>
			<path class="st1" d="M8.9,3.4L5,3.8l3.8,0.4c0,0,0,0,0,0L8.9,3.4C8.9,3.4,8.9,3.4,8.9,3.4z"/>
			<g>
				<path class="st1" d="M18.8,3.3c-0.4-0.8-1-1.5-1.7-2c-0.7-0.5-1.5-0.9-2.3-1.1c-0.2,0-0.4-0.1-0.6-0.1c-0.1,0-0.2,0-0.3,0
					l-0.2,0c-0.1,0-0.1,0-0.2,0l-1.2,0L9.8,0.1L0,0.3l9.8,0.2l2.5,0.1l1.2,0c0.1,0,0.1,0,0.2,0l0.1,0c0.1,0,0.2,0,0.3,0
					c0.2,0,0.4,0.1,0.6,0.1c0.7,0.2,1.4,0.6,2,1.1c0.6,0.5,1,1.1,1.4,1.8c0.3,0.7,0.5,1.4,0.4,2.2c0,0.7-0.2,1.5-0.6,2.1
					c-0.7,1.3-2,2.3-3.4,2.6c-0.7,0.1-1.4,0.1-2.1-0.1c-0.7-0.2-1.3-0.5-1.9-1c-0.5-0.5-1-1-1.3-1.7C9.1,7.5,9,7.2,8.9,6.8
					c0-0.1,0-0.2,0-0.3c0-0.1,0-0.2,0-0.3c0-0.1,0-0.2,0-0.3l0-0.1l0-0.1l0-0.1c0,0,0,0,0-0.1c0,0,0,0,0-0.1H7.1c0,0,0,0.1,0,0.1
					l0,0l0,0l0,0l0,0.1l0,0.2c0,0.1,0,0.2,0,0.4c0,0.1,0,0.2,0.1,0.3c0,0.1,0,0.2,0.1,0.3c0.1,0.5,0.3,0.9,0.5,1.3
					c0.4,0.8,1,1.6,1.8,2.1c0.7,0.6,1.6,1,2.5,1.2c0.9,0.2,1.8,0.2,2.7,0c1.8-0.4,3.3-1.7,4.1-3.3c0.4-0.8,0.6-1.7,0.6-2.6
					C19.4,4.9,19.2,4,18.8,3.3z"/>
			</g>
			<path d="M15.7,2.9c0.3,0.3,0.5,0.5,0.7,0.7c-1.1,1.2-2.3,2.3-3.4,3.4c-0.6-0.6-1.2-1.2-1.8-1.8C11.5,5,11.7,4.8,12,4.5
				c0.3,0.4,0.7,0.8,1,1.2C13.9,4.7,14.8,3.8,15.7,2.9z"/>
		</g>
	</g>
	<g>
		<g>
			<path d="M12.5,15.7c-0.1,0.1-0.2,0.1-0.2,0.2c-0.1,0-0.2,0.1-0.2,0.1c-0.1,0-0.2,0.1-0.2,0.1c-0.1,0-0.2,0.1-0.2,0.1l0,0
				C11.9,16.1,12.2,15.9,12.5,15.7L12.5,15.7z"/>
		</g>
		<g>
			<path d="M10.6,14.9c0.1,0,0.1-0.1,0.2-0.1c0.1,0,0.1-0.1,0.2-0.1c0.1,0,0.1-0.1,0.2-0.1c0.1,0,0.1-0.1,0.2-0.1l0,0
				C11.2,14.6,10.9,14.8,10.6,14.9L10.6,14.9z"/>
		</g>
		<g>
			<path d="M11.5,13.6c-0.9,0-1.7,0.8-1.7,1.7s0.8,1.7,1.7,1.7s1.7-0.8,1.7-1.7S12.5,13.6,11.5,13.6z M13,15.3
				c0,0.8-0.7,1.5-1.5,1.5c-0.8,0-1.5-0.7-1.5-1.5c0-0.8,0.7-1.5,1.5-1.5C12.4,13.8,13,14.4,13,15.3z"/>
		</g>
		<g>
			<g>
				<path d="M10.4,15.9c0.3-0.2,0.7-0.5,1.1-0.7c0.4-0.2,0.7-0.4,1.1-0.6c-0.3,0.2-0.7,0.5-1.1,0.7C11.2,15.5,10.8,15.7,10.4,15.9z"
					/>
			</g>
			<g>
				<path d="M12.4,15.2c-0.1,0.1-0.2,0.2-0.3,0.3c-0.1,0.1-0.2,0.2-0.4,0.2c-0.1,0.1-0.2,0.1-0.4,0.2C11.3,15.9,11.1,16,11,16l0,0
					C11.5,15.7,12,15.4,12.4,15.2L12.4,15.2z"/>
			</g>
			<g>
				<path d="M10.6,15.4c0.1-0.1,0.2-0.2,0.3-0.3c0.1-0.1,0.2-0.2,0.4-0.2c0.1-0.1,0.2-0.1,0.4-0.2c0.1-0.1,0.3-0.1,0.4-0.2l0,0
					C11.6,14.8,11.1,15.1,10.6,15.4L10.6,15.4z"/>
			</g>
		</g>
	</g>
	<g>
		<g>
			<path d="M28.8,15.7c-0.1,0.1-0.2,0.1-0.2,0.2c-0.1,0-0.2,0.1-0.2,0.1c-0.1,0-0.2,0.1-0.2,0.1c-0.1,0-0.2,0.1-0.2,0.1l0,0
				C28.1,16.1,28.4,15.9,28.8,15.7L28.8,15.7z"/>
		</g>
		<g>
			<path d="M26.9,14.9c0.1,0,0.1-0.1,0.2-0.1c0.1,0,0.1-0.1,0.2-0.1c0.1,0,0.1-0.1,0.2-0.1c0.1,0,0.1-0.1,0.2-0.1l0,0
				C27.5,14.6,27.2,14.8,26.9,14.9L26.9,14.9z"/>
		</g>
		<g>
			<path d="M27.8,13.6c-0.9,0-1.7,0.8-1.7,1.7s0.8,1.7,1.7,1.7s1.7-0.8,1.7-1.7S28.7,13.6,27.8,13.6z M29.3,15.3
				c0,0.8-0.7,1.5-1.5,1.5c-0.8,0-1.5-0.7-1.5-1.5c0-0.8,0.7-1.5,1.5-1.5C28.6,13.8,29.3,14.4,29.3,15.3z"/>
		</g>
		<g>
			<g>
				<path d="M26.7,15.9c0.3-0.2,0.7-0.5,1.1-0.7c0.4-0.2,0.7-0.4,1.1-0.6c-0.3,0.2-0.7,0.5-1.1,0.7C27.4,15.5,27.1,15.7,26.7,15.9z"
					/>
			</g>
			<g>
				<path d="M28.7,15.2c-0.1,0.1-0.2,0.2-0.3,0.3c-0.1,0.1-0.2,0.2-0.4,0.2c-0.1,0.1-0.2,0.1-0.4,0.2c-0.1,0.1-0.3,0.1-0.4,0.2l0,0
					C27.7,15.7,28.2,15.4,28.7,15.2L28.7,15.2z"/>
			</g>
			<g>
				<path d="M26.9,15.4c0.1-0.1,0.2-0.2,0.3-0.3c0.1-0.1,0.2-0.2,0.4-0.2c0.1-0.1,0.2-0.1,0.4-0.2c0.1-0.1,0.3-0.1,0.4-0.2l0,0
					C27.8,14.8,27.3,15.1,26.9,15.4L26.9,15.4z"/>
			</g>
		</g>
	</g>
</g>
</svg>
