<?xml version="1.0" encoding="utf-8"?>
<!-- Generator: Adobe Illustrator 25.0.1, SVG Export Plug-In . SVG Version: 6.00 Build 0)  -->
<svg version="1.1" id="Слой_1" xmlns="http://www.w3.org/2000/svg" xmlns:xlink="http://www.w3.org/1999/xlink" x="0px" y="0px"
     viewBox="0 0 151.5 80.8" style="enable-background:new 0 0 151.5 80.8;" xml:space="preserve">
<style type="text/css">
	.st0{fill:#FFB05F;}
	.st1{fill:#FFFFFF;}
	.st2{fill:none;stroke:#000000;stroke-miterlimit:10;}
	.st3{fill:#0097AE;}
	.st4{opacity:0.69;enable-background:new    ;}
	.st5{opacity:0.6;}
	.st6{fill:#1D1D1B;}
	.st7{fill:none;stroke:#000000;stroke-width:0.5;stroke-miterlimit:10;}
</style>
    <path class="st0" d="M562.1,41.1l-11-1.8l-7.5-15.8c-0.3-3-3-5.7-6.6-5.7h-26.3V6.5c0-3-2.7-5.7-6.3-5.7h-60.9
	c-3.6,0-6.3,2.7-6.3,5.7v32.8v9.6v15.2c0,3,2.7,5.7,6.3,5.7h8.4V68c0.9,6.3,6.6,11.3,13.1,11.3c6.3,0,11.3-3.9,13.1-9.6h45.7
	c1.2,5.7,6.6,9.6,13.1,9.6c6.6,0,12.2-4.8,13.1-11v1.2h12.2c3.6,0,6.3-2.7,6.3-6.3V48.6C568.4,45.9,565.7,41.1,562.1,41.1z
	 M465.1,75.8c-4.8,0-9.3-3.9-9.3-8.4s3.9-8.4,9.3-8.4s9.3,3.9,9.3,8.4S469.8,75.8,465.1,75.8z M465.1,54.6
	c-6.9,0-12.8,5.4-13.1,11.3h-8.4c-0.9,0-1.8-0.9-1.8-1.8V48.9v-9.6V6.5c0-0.9,0.9-1.8,1.8-1.8h61.2c0.9,0,1.8,0.9,1.8,1.8v13.4v29
	v17h-28.4C477.6,59.6,471.9,54.6,465.1,54.6z M536.4,75.8c-4.8,0-9.3-3.9-9.3-8.4s3.9-8.4,9.3-8.4c4.8,0,9.3,3.9,9.3,8.4
	S541.5,75.8,536.4,75.8z M561.8,66.2h-12.2c-0.6-6.6-6.3-11.6-13.1-11.6c-6.8,0-12.8,5.4-13.1,11.3h-12.2v-17V21.7h26.3
	c0.9,0,1.8,0.9,1.8,1.8c0,0.3,0,0.3,0,0.9l8.4,17.6c0.3,0.3,0.9,0.9,1.8,1.2l12.2,1.8c0,0,0,0,0.3,0s1.8,2.1,1.8,3.6v9.6h-12.2v3.9
	h12.2v1.8C563.9,65.3,563,66.2,561.8,66.2z"/>
    <rect x="506.5" y="-98.6" width="6.3" height="3.9"/>
    <rect x="433" y="-134.4" width="59.1" height="3.9"/>
    <rect x="433" y="-119.2" width="59.1" height="3.9"/>
    <rect x="433" y="-103.7" width="59.1" height="3.9"/>
    <path d="M525-117.4c0-1.2-1.8-2.7-3-2.7h-13.1c-1.8,0-3.6,1.2-3.6,3v9.3c0,1.8,1.2,3,3.6,3h17.9c1.8,0,3.6-1.2,3.6-3
	c0-0.3,0-0.3,0-0.9L525-117.4z M508.9-107.6v-9.2h12.8c0,0.3,0,0.3,0,0.9l4.5,8.4h-17.3V-107.6z"/>
    <circle class="st1" cx="-346.7" cy="-98.3" r="21.8"/>
    <path d="M376.2-108.8c1.2,1.2,2.1,2.1,3,3c-4.8,5.4-10.2,10.2-14.9,14.9c-2.7-2.7-5.4-5.4-7.8-7.8c1.2-0.9,2.1-1.8,3.6-3
	c1.2,1.8,3,3.6,4.5,5.4C368.4-101,372.3-104.9,376.2-108.8z"/>
    <g>
	<g>
		<path d="M433.5,94.5c-0.3,0.3-0.9,0.3-0.9,0.9c-0.3,0-0.9,0.3-0.9,0.3c-0.3,0-0.9,0.3-0.9,0.3c-0.3,0-0.9,0.3-0.9,0.3l0,0
			C430.5,96.3,432,95.4,433.5,94.5L433.5,94.5z"/>
	</g>
        <g>
		<path d="M425.5,90.9c0.3,0,0.3-0.3,0.9-0.3c0.6,0,0.3-0.3,0.9-0.3c0.3,0,0.3-0.3,0.9-0.3c0.6,0,0.3-0.3,0.9-0.3l0,0
			C427.9,89.7,426.7,90.6,425.5,90.9L425.5,90.9z"/>
	</g>
        <g>
		<path d="M429.4,85.2c-3.9,0-7.5,3.6-7.5,7.5s3.6,7.5,7.5,7.5s7.5-3.6,7.5-7.5C436.8,88.8,433.2,85.2,429.4,85.2z M435.9,92.7
			c0,3.6-3,6.6-6.6,6.6s-6.6-3-6.6-6.6s3-6.6,6.6-6.6C432.6,86.1,435.9,88.8,435.9,92.7z"/>
	</g>
        <g>
		<g>
			<path d="M424.6,95.4c1.2-0.9,3-2.1,4.8-3s3-1.8,4.8-2.7c-1.2,0.9-3,2.1-4.8,3S426.1,94.5,424.6,95.4z"/>
		</g>
            <g>
			<path d="M433.2,92.1c-0.3,0.3-0.9,0.9-1.2,1.2c-0.3,0.3-0.9,0.9-1.8,0.9c-0.3,0.3-0.9,0.3-1.8,0.9c-0.3,0.3-1.2,0.3-1.8,0.9l0,0
				C428.8,94.5,431.1,93,433.2,92.1L433.2,92.1z"/>
		</g>
            <g>
			<path d="M425.5,93c0.3-0.3,0.9-0.9,1.2-1.2c0.3-0.3,0.9-0.9,1.8-0.9c0.3-0.3,0.9-0.3,1.8-0.9c0.3-0.3,1.2-0.3,1.8-0.9l0,0
				C429.4,90.6,427,91.8,425.5,93L425.5,93z"/>
		</g>
	</g>
</g>
    <line class="st2" x1="596.6" y1="-82.1" x2="649.4" y2="-82.1"/>
    <line class="st2" x1="596.6" y1="-71.9" x2="649.4" y2="-71.9"/>
    <line class="st2" x1="596.6" y1="-61.7" x2="649.4" y2="-61.7"/>
    <g>
	<g>
		<path class="st3" d="M40.2,20.4l-17.8,1.9l17.2,1.9l0,0L40.2,20.4L40.2,20.4z"/>
	</g>
        <g>
		<g>
			<path class="st1" d="M43.8,59.6c-5.3,0-10.3,5.1-10.3,10.6s4.9,10.6,10.3,10.6s10.3-5.1,10.3-10.6S49.6,59.6,43.8,59.6z
				 M43.8,79.5c-4.9,0-9.1-4.2-9.1-9.4c0-0.1,0-0.2,0-0.3c0-0.1,0-0.1,0-0.2c0-0.1,0-0.2,0.1-0.3c0.4-4.7,4.3-8.5,9.1-8.5
				c5.3,0,9.1,3.8,9.1,9.4C52.9,75.3,48.8,79.5,43.8,79.5z"/>
		</g>
	</g>
        <g>
		<g>
			<path class="st1" d="M123.3,59.4c-5.3,0-10.3,5.1-10.3,10.6c0,5.6,4.9,10.6,10.3,10.6c5.3,0,10.3-5.1,10.3-10.6
				S129.1,59.4,123.3,59.4z M132.4,70c0,5.1-4.1,9.4-9.1,9.4s-9.1-4.2-9.1-9.4s4.1-9.4,9.1-9.4C128.7,60.6,132.4,64.5,132.4,70z"/>
		</g>
	</g>
        <g>
		<g>
			<g>
				<g>
					<path class="st1" d="M33.9,70.5H18.5c-1.4,0-2.7-1.2-2.7-2.7c-0.1-10-0.2-59.4-0.2-60.7c0-3.6,3-6.6,6.7-6.6l64-0.5
						c0,0,0,0,0.1,0c1.6,0,3.2,0.6,4.4,1.9C92,3,92.6,4.5,92.7,6.2C92.9,36,93,57.9,93,69.5v0.5l-40,0.3v-1L92,69
						c0-11.7-0.1-33.4-0.3-62.9c0-1.4-0.5-2.7-1.5-3.7c-1-1-2.3-1.5-3.7-1.5L22.2,1.5c-3.1,0-5.6,2.6-5.7,5.6
						c0,1.2,0.1,50.6,0.2,60.6c0,0.9,0.7,1.6,1.6,1.6h15.4L33.9,70.5L33.9,70.5z"/>
				</g>
			</g>
            <g>
				<path class="st1" d="M133.6,41.2l-8.7-18.5c-0.8-1.7-2.7-3-4.6-3H92v-1h28.3c2.4,0,4.5,1.3,5.6,3.5l8.7,18.4L133.6,41.2z"/>
			</g>
		</g>
            <g>
			<path class="st1" d="M149.5,70.4h-0.1c-4.6-0.2-9.8-0.4-16-0.4v-1c6.3,0,11.4,0.1,16,0.4c0.3,0,0.6-0.1,0.8-0.3
				c0.2-0.2,0.3-0.5,0.3-0.8L150,50.3c0-0.4-0.2-0.7-0.6-0.9l-15.6-8l0.5-0.9l15.6,8c0.7,0.3,1.1,1,1.1,1.9l0.5,17.9
				c0,0.6-0.2,1.1-0.6,1.5C150.5,70.2,150,70.4,149.5,70.4z"/>
		</g>
            <g>
			<rect x="92" y="69" class="st1" width="22.3" height="1"/>
		</g>
	</g>
        <g>
		<path class="st1" d="M120.6,40.7h-20.2c-1,0-1.9-0.8-1.9-2V28.4c0-1,0.8-2,1.9-2h15.8c0.7,0,1.4,0.4,1.7,1.1l4.3,10.5
			c0.2,0.6,0.2,1.3-0.2,1.9C121.7,40.4,121.2,40.7,120.6,40.7z M100.4,27c-0.7,0-1.3,0.6-1.3,1.4v10.4c0,0.8,0.6,1.4,1.3,1.4h20.2
			c0.4,0,0.8-0.2,1.1-0.6c0.3-0.4,0.3-0.9,0.1-1.3l-4.3-10.5c-0.2-0.5-0.7-0.8-1.2-0.8H100.4z"/>
	</g>
        <g>
		<rect x="139.2" y="60.9" class="st1" width="11.6" height="1"/>
	</g>
        <g>
		<rect x="98.9" y="49.5" class="st1" width="4.3" height="1"/>
	</g>
        <g>
		<g>
			<path class="st3" d="M58.2,40.6L58.2,40.6L58.2,40.6L54.3,37l0,0L47.6,31l4.1-4.5l6,6.6l13.4-15.6l4.5,4.1L58.2,40.6z M55.2,36.9
				l2.9,2.7l16.5-18l-3.4-3.1L57.8,34.2l-6-6.6L48.8,31L55.2,36.9L55.2,36.9z"/>
		</g>
	</g>
        <g>
		<g>
			<g>
				<g>
					<g>
						<path class="st3" d="M49.9,72.4c-0.4,0.3-1,0.6-1.4,1c-0.4,0.3-1,0.6-1.5,0.9c-0.5,0.3-1,0.6-1.5,0.8c-0.5,0.3-1,0.6-1.5,0.8
							l0,0C46,74.7,47.9,73.6,49.9,72.4L49.9,72.4z"/>
					</g>
				</g>
			</g>
		</g>
            <g>
			<g>
				<g>
					<g>
						<path class="st3" d="M38.2,67.7c0.4-0.3,0.9-0.6,1.3-0.9s0.9-0.6,1.3-0.8c0.4-0.3,0.9-0.5,1.3-0.8c0.4-0.3,0.9-0.5,1.4-0.8
							l0,0C41.9,65.4,40,66.6,38.2,67.7L38.2,67.7z"/>
					</g>
				</g>
			</g>
		</g>
            <g>
			<g>
				<g>
					<g>
						<g>
							<path class="st3" d="M36.9,73.9c2.2-1.5,4.4-2.9,6.7-4.2c2.3-1.3,4.6-2.7,6.9-3.9c-2.2,1.5-4.4,2.9-6.7,4.2
								C41.7,71.3,39.3,72.6,36.9,73.9z"/>
						</g>
					</g>
				</g>
			</g>
                <g>
				<g>
					<g>
						<g>
							<path class="st3" d="M49.6,69c-0.7,0.6-1.3,1.1-2.2,1.5c-0.7,0.5-1.5,1-2.3,1.4c-0.8,0.4-1.5,0.9-2.3,1.3
								c-0.8,0.4-1.5,0.8-2.5,1.1v-0.1C43.4,72.5,46.5,70.8,49.6,69L49.6,69z"/>
						</g>
					</g>
				</g>
			</g>
                <g>
				<g>
					<g>
						<g>
							<path class="st3" d="M38.1,70.5c0.7-0.6,1.3-1.1,2.2-1.5c0.7-0.5,1.5-1,2.3-1.4c0.8-0.4,1.5-0.9,2.3-1.3
								c0.8-0.4,1.5-0.8,2.5-1.1v0.1C44.1,66.9,41,68.7,38.1,70.5L38.1,70.5z"/>
						</g>
					</g>
				</g>
			</g>
		</g>
	</g>
        <g>
		<g>
			<g>
				<g>
					<g>
						<path class="st3" d="M129.4,72.7c-0.4,0.3-1,0.6-1.4,1c-0.4,0.3-1,0.6-1.5,0.9s-1,0.6-1.5,0.8c-0.5,0.3-1,0.6-1.5,0.8l0,0
							C125.5,75.1,127.5,73.9,129.4,72.7L129.4,72.7z"/>
					</g>
				</g>
			</g>
		</g>
            <g>
			<g>
				<g>
					<g>
						<path class="st3" d="M117.7,68c0.4-0.3,0.9-0.6,1.3-0.9s0.9-0.6,1.3-0.8c0.4-0.3,0.9-0.5,1.3-0.8c0.4-0.3,0.9-0.5,1.4-0.8l0,0
							C121.4,65.7,119.5,66.9,117.7,68L117.7,68z"/>
					</g>
				</g>
			</g>
		</g>
            <g>
			<g>
				<g>
					<g>
						<g>
							<path class="st3" d="M116.5,74.2c2.2-1.5,4.4-2.9,6.7-4.2c2.3-1.3,4.6-2.7,6.9-3.9c-2.2,1.5-4.4,2.9-6.7,4.2
								C121.2,71.6,118.8,72.9,116.5,74.2z"/>
						</g>
					</g>
				</g>
			</g>
                <g>
				<g>
					<g>
						<g>
							<path class="st3" d="M129.1,69.3c-0.7,0.6-1.3,1.1-2.2,1.5c-0.7,0.5-1.5,1-2.3,1.4c-0.8,0.4-1.5,0.9-2.3,1.3
								c-0.8,0.4-1.5,0.8-2.5,1.1v-0.1C122.9,72.9,126,71.1,129.1,69.3L129.1,69.3z"/>
						</g>
					</g>
				</g>
			</g>
                <g>
				<g>
					<g>
						<g>
							<path class="st3" d="M117.6,70.8c0.7-0.6,1.3-1.1,2.2-1.5c0.7-0.5,1.5-1,2.3-1.4c0.8-0.4,1.5-0.9,2.3-1.3
								c0.8-0.4,1.5-0.8,2.5-1.1v0.1C123.7,67.2,120.6,69,117.6,70.8L117.6,70.8z"/>
						</g>
					</g>
				</g>
			</g>
		</g>
	</g>
        <g>
		<g>
			<path class="st3" d="M84.8,20.1c-1.9-3.7-4.6-6.8-7.7-9c-3-2.1-6.7-3.9-10.4-4.8c-0.9,0-1.9-0.3-2.8-0.3c-0.3,0-0.9,0-1.2,0h-0.9
				c-0.3,0-0.3,0-0.9,0h-5.6H43.9L0,6.6l44.2,0.9l11,0.3h5.6c0.3,0,0.3,0,0.9,0H62c0.3,0,0.9,0,1.2,0c0.9,0,1.9,0.3,2.8,0.3
				c3.1,0.9,6.5,2.8,9,4.9c2.5,2.2,4.6,4.9,6.5,8c1.2,3.1,2.2,6.5,1.9,9.9c0,3.1-0.9,6.8-2.8,9.6c-3.1,5.9-9,10.5-15.3,11.6
				c-3.1,0.3-6.5,0.3-9.6-0.3c-3.1-0.9-5.9-2.2-8.6-4.6c-2.2-2.2-4.6-4.6-5.9-7.7c-0.3-0.9-0.9-2.2-1.2-4c0-0.3,0-0.9,0-1.2
				s0-0.9,0-1.2c0-0.3,0-0.9,0-1.2v-0.3v-0.6v-0.3c0,0,0,0,0-0.3c0,0,0,0,0-0.3h-8v0.3l0,0l0,0l0,0v0.3v0.9c0,0.3,0,0.9,0,1.9
				c0,0.3,0,0.9,0.3,1.2c0,0.3,0,0.9,0.3,1.2c0.3,2.2,1.2,4,2.2,5.9c1.9,3.7,4.6,7.1,8,9.6c3.1,2.8,7.1,4.6,11.3,5.6
				c4,0.9,8,0.9,12.2,0c8-1.9,14.7-7.7,18.4-14.7c1.9-3.7,2.8-7.7,2.8-11.6C87.5,27.2,86.6,23.1,84.8,20.1z"/>
		</g>
	</g>
        <g>
		<path class="st3" d="M40.5,13.4l-26.7,1.9l26.7,1.9l0,0V13.4L40.5,13.4z"/>
	</g>
</g>
    <g>
	<path class="st3" d="M194.2,518.6c0,32.2-26.8,59.1-59.8,59.1c-32.2,0-59.8-27.6-59.1-59.8c0.8-33,26.8-59.8,59.8-59.8
		C167.3,458.8,194.2,486.4,194.2,518.6z M164.2,487.9c-13.8,14.6-27.6,28.4-43,43.7c-5.4-6.9-10.7-13-16.1-19.2
		c-4.6,4.6-7.7,8.4-11.5,12.3c10,9.2,19.9,19.2,29.1,28.4c17.6-17.6,35.3-35.3,52.9-53.7C172.7,496.3,168.8,492.5,164.2,487.9z"/>
        <path class="st1" d="M164.2,487.9c4.6,4.6,8.4,8.4,11.5,11.5c-18.4,18.4-36.1,36.1-52.9,53.7c-9.2-9.2-19.2-19.2-28.4-28.4
		c3.1-3.8,6.9-6.9,11.5-12.3c5.4,6.1,10.7,12.3,16.1,19.2C136.6,516.3,150.4,502.5,164.2,487.9z"/>
</g>
    <path d="M326.8,364.2H169.9c-14.3,0-26,11.7-26,26v5.9V430h9.8h78.8h111.3v61.9c0,9.1-7.2,16.3-16.3,16.3h-95.1v9.8h94.4
	c14.3,0,26-11.7,26-26v-61.9v-33.9v-5.9C352.9,375.9,341.1,364.2,326.8,364.2z M343.1,420.2H153v-14.3h190.1L343.1,420.2
	L343.1,420.2z M343.1,396.1H153v-5.9c0-9.1,7.2-16.3,16.3-16.3h157.5c9.1,0,16.3,7.2,16.3,16.3V396.1z"/>
    <g>
	<path d="M307.9,500.9c-4.6,0-8.5-1.3-11.7-3.9c-3.3,2.6-7.8,3.9-11.7,3.9c-11.1,0-20.2-9.1-20.2-20.2s9.1-20.2,20.2-20.2
		c4.6,0,8.5,1.3,11.7,3.9c3.3-2.6,7.8-3.9,11.7-3.9c11.1,0,20.2,9.1,20.2,20.2C328.8,491.8,319.6,500.9,307.9,500.9z M296.2,484
		l3.3,3.9c2,2.6,5.2,3.9,8.5,3.9c6.5,0,11.7-5.2,11.7-11.7s-5.2-11.7-11.7-11.7c-3.3,0-6.5,1.3-8.5,3.9l-3.3,3.9l-3.3-3.9
		c-2-2.6-5.2-3.9-8.5-3.9c-6.5,0-11.7,5.2-11.7,11.7s5.2,11.7,11.7,11.7c3.3,0,6.5-1.3,8.5-3.9L296.2,484z"/>
</g>
    <g>
	<path d="M291.6,484c-0.7,0.7-1.3,0.7-2,1.3s-1.3,0.7-2,1.3c-0.7,0.7-1.3,0.7-2,1.3s-1.3,0.7-2,1.3l0,0
		C286.4,486.6,289,485.3,291.6,484L291.6,484z"/>
</g>
    <g>
	<path d="M276.7,477.5c0.7-0.7,1.3-0.7,2-1.3c0.7-0.7,1.3-0.7,2-1.3s1.3-0.7,2-1.3c0.7-0.7,1.3-0.7,2-1.3l0,0
		C281.2,474.9,279.3,476.2,276.7,477.5L276.7,477.5z"/>
</g>
    <g>
	<g>
		<path d="M275.4,485.9c2.6-2,5.9-3.9,8.5-5.2c2.6-2,5.9-3.3,9.1-5.2c-2.6,2-5.9,3.9-8.5,5.2C281.2,482.7,278,484,275.4,485.9z"/>
	</g>
        <g>
		<path d="M291,479.4c-0.7,0.7-2,1.3-2.6,2c-0.7,0.7-2,1.3-2.6,2c-1.3,0.7-2,1.3-3.3,2s-2,1.3-3.3,1.3l0,0
			C283.2,484,287.1,482,291,479.4L291,479.4z"/>
	</g>
        <g>
		<path d="M276.7,481.4c0.7-0.7,2-1.3,2.6-2c0.7-0.7,2-1.3,2.6-2c1.3-0.7,2-1.3,3.3-2s2-1.3,3.3-1.3l0,0
			C284.5,476.8,280.6,479.4,276.7,481.4L276.7,481.4z"/>
	</g>
</g>
    <g>
	<path d="M315.7,484c-0.7,0.7-1.3,0.7-2,1.3c-0.7,0.7-1.3,0.7-2,1.3c-0.7,0.7-1.3,0.7-2,1.3s-1.3,0.7-2,1.3l0,0
		C310.5,486.6,313.1,485.3,315.7,484L315.7,484z"/>
</g>
    <g>
	<path d="M300.8,477.5c0.7-0.7,1.3-0.7,2-1.3c0.7-0.7,1.3-0.7,2-1.3s1.3-0.7,2-1.3c0.7-0.7,1.3-0.7,2-1.3l0,0
		C305.3,474.9,302.7,476.2,300.8,477.5L300.8,477.5z"/>
</g>
    <g>
	<g>
		<path d="M298.8,485.9c2.6-2,5.9-3.9,8.5-5.2c2.6-2,5.9-3.3,9.1-5.2c-2.6,2-5.9,3.9-8.5,5.2C305.3,482.7,302.1,484,298.8,485.9z"/>
	</g>
        <g>
		<path d="M315.1,479.4c-0.7,0.7-2,1.3-2.6,2c-0.7,0.7-2,1.3-2.6,2c-1.3,0.7-2,1.3-3.3,2s-2,1.3-3.3,1.3l0,0
			C307.3,484,311.2,482,315.1,479.4L315.1,479.4z"/>
	</g>
        <g>
		<path d="M300.1,481.4c0.7-0.7,2-1.3,2.6-2c0.7-0.7,2-1.3,2.6-2c1.3-0.7,2-1.3,3.3-2s2-1.3,3.3-1.3l0,0
			C307.9,476.8,304.7,479.4,300.1,481.4L300.1,481.4z"/>
	</g>
</g>
    <g>
	<g>
		<path class="st3" d="M-12,508.5c-9.5,0-17.3,7.7-17.3,17.3s7.7,17.3,17.3,17.3s17.3-7.7,17.3-17.3S-2.5,508.5-12,508.5z
			 M3.1,525.8c0,8.3-6.8,15.1-15.1,15.1s-15.1-6.8-15.1-15.1c0-8.3,6.8-15.2,15.1-15.2S3.1,517.5,3.1,525.8z"/>
	</g>
</g>
    <g>
	<g>
		<g>
			<path class="st3" d="M74.7,593.4c-0.7,0.5-1.6,1.1-2.3,1.6s-1.6,1-2.4,1.5c-0.8,0.4-1.6,1-2.4,1.4c-0.8,0.4-1.7,1-2.4,1.4l0,0
				C68.3,597.2,71.6,595.3,74.7,593.4L74.7,593.4z"/>
		</g>
	</g>
        <g>
		<g>
			<path class="st3" d="M55.7,585.8c0.7-0.5,1.5-1,2.2-1.5c0.7-0.4,1.5-1,2.2-1.4c0.7-0.4,1.5-0.8,2.2-1.3c0.7-0.4,1.5-0.8,2.3-1.3
				l0,0C61.8,582.2,58.8,584,55.7,585.8L55.7,585.8z"/>
		</g>
	</g>
        <g>
		<g>
			<path class="st3" d="M64.8,571.9c-9.5,0-17.3,7.7-17.3,17.3s7.7,17.3,17.3,17.3s17.3-7.7,17.3-17.3S74.3,571.9,64.8,571.9z
				 M79.9,589.2c0,8.3-6.8,15.1-15.1,15.1c-8.3,0-15.1-6.8-15.1-15.1c0-8.3,6.8-15.2,15.1-15.2C73.2,574,79.9,580.9,79.9,589.2z"/>
		</g>
	</g>
        <g>
		<g>
			<g>
				<path class="st3" d="M53.8,595.8c3.5-2.4,7.2-4.6,10.8-6.9c3.7-2.1,7.4-4.3,11.2-6.3c-3.5,2.4-7.2,4.6-10.8,6.9
					C61.3,591.6,57.6,593.9,53.8,595.8z"/>
			</g>
		</g>
            <g>
			<g>
				<path class="st3" d="M74.1,588c-1.2,1-2.2,1.8-3.5,2.5c-1.2,0.8-2.4,1.6-3.6,2.3c-1.3,0.7-2.4,1.5-3.7,2.1
					c-1.3,0.6-2.5,1.3-3.9,1.8l0,0C64.3,593.7,69.2,590.9,74.1,588L74.1,588z"/>
			</g>
		</g>
            <g>
			<g>
				<path class="st3" d="M55.5,590.4c1.2-1,2.2-1.8,3.5-2.5c1.2-0.8,2.4-1.6,3.6-2.3c1.3-0.7,2.4-1.5,3.7-2.1
					c1.3-0.6,2.5-1.3,3.9-1.8v0.1C65.4,584.6,60.5,587.5,55.5,590.4L55.5,590.4z"/>
			</g>
		</g>
	</g>
</g>
    <polygon class="st2" points="-131.9,535.5 -142.5,525.8 -179,568.1 -195.2,550.4 -205,561 -187,577.5 -187,577.5 -177.8,585.8
	-177.8,585.8 -177.8,585.8 -170.3,577.6 -170.3,577.6 "/>
    <g>
	<g>
		<path class="st1" d="M-284.4,52.3h-38.7V52h38.7c6.3,0,11.4-5.1,11.4-11.4V-6.2c0-6.3-5.1-11.4-11.4-11.4h-72
			c-6.2,0-11.3,5.1-11.3,11.4V6.6h-0.4V-6.2c0-6.5,5.3-11.7,11.7-11.7h72c6.5,0,11.7,5.3,11.7,11.7v46.8
			C-272.7,47-278,52.3-284.4,52.3z"/>
        <path class="st1" d="M-284.4,52.5h-39v-0.8h39c6.1,0,11.1-5,11.1-11.1V-6.2c0-6.1-5-11.1-11.1-11.1h-72c-6.1,0-11.1,5-11.1,11.1
			V6.9h-0.8V-6.2c0-6.6,5.4-12,12-12h71.9c6.6,0,12,5.4,12,12v46.8C-272.5,47.1-277.8,52.5-284.4,52.5z"/>
	</g>
</g>
    <g>
	<rect x="-367.9" y="-7.6" class="st1" width="95" height="0.3"/>
</g>
    <g>
	<rect x="-367.9" y="-3" class="st1" width="95" height="0.3"/>
</g>
    <g>
	<path class="st1" d="M-287.8,47.5c-2.9,0-5.7-1.4-7.5-3.7c-1.8,2.3-4.5,3.7-7.5,3.7c-5.2,0-9.3-4.2-9.3-9.3c0-5.2,4.2-9.3,9.3-9.3
		c2.9,0,5.7,1.4,7.5,3.7c1.8-2.3,4.5-3.7,7.5-3.7c5.2,0,9.3,4.2,9.3,9.3S-282.6,47.5-287.8,47.5z M-295.3,43.2l0.1,0.2
		c1.7,2.4,4.4,3.8,7.3,3.8c5,0,9-4,9-9s-4-9-9-9c-2.9,0-5.6,1.4-7.3,3.8l-0.1,0.2l-0.1-0.3c-1.7-2.4-4.4-3.8-7.3-3.8c-5,0-9,4-9,9
		s4,9,9,9c2.9,0,5.6-1.4,7.3-3.8L-295.3,43.2z"/>
</g>
    <g>
	<g>
		<g>
			<g>
				<path class="st3" d="M-282,40.4c-0.4,0.3-1,0.6-1.4,1c-0.4,0.3-1,0.6-1.5,0.9c-0.5,0.3-1,0.6-1.5,0.8c-0.5,0.3-1,0.6-1.5,0.8
					l0,0C-285.9,42.7-283.9,41.5-282,40.4L-282,40.4z"/>
			</g>
		</g>
	</g>
        <g>
		<g>
			<g>
				<path class="st3" d="M-293.5,35.8c0.4-0.3,0.9-0.6,1.3-0.9c0.4-0.3,0.9-0.6,1.3-0.8c0.4-0.3,0.9-0.5,1.3-0.8s0.9-0.5,1.4-0.8
					l0,0C-289.8,33.7-291.6,34.7-293.5,35.8L-293.5,35.8z"/>
			</g>
		</g>
	</g>
        <g>
		<g>
			<g>
				<g>
					<path class="st3" d="M-294.6,41.8c2.1-1.5,4.3-2.8,6.5-4.1c2.2-1.3,4.5-2.6,6.7-3.8c-2.1,1.5-4.3,2.8-6.5,4.1
						C-290.1,39.3-292.3,40.7-294.6,41.8z"/>
				</g>
			</g>
		</g>
            <g>
			<g>
				<g>
					<path class="st3" d="M-282.4,37.2c-0.7,0.6-1.3,1.1-2.1,1.5c-0.7,0.5-1.5,1-2.2,1.4c-0.8,0.4-1.5,0.9-2.2,1.3
						c-0.8,0.4-1.5,0.8-2.4,1.1v-0.1C-288.3,40.6-285.4,38.9-282.4,37.2L-282.4,37.2z"/>
				</g>
			</g>
		</g>
            <g>
			<g>
				<g>
					<path class="st3" d="M-293.6,38.6c0.7-0.6,1.3-1.1,2.1-1.5c0.7-0.5,1.5-1,2.2-1.4c0.8-0.4,1.5-0.9,2.2-1.3
						c0.7-0.4,1.5-0.8,2.4-1.1v0.1C-287.7,35.1-290.6,36.8-293.6,38.6L-293.6,38.6z"/>
				</g>
			</g>
		</g>
	</g>
</g>
    <g>
	<path class="st1" d="M-350.9,60.5c-14.6,0-26.5-11.9-26.5-26.5s11.9-26.5,26.5-26.5s26.5,11.9,26.5,26.5S-336.3,60.5-350.9,60.5z
		 M-350.9,7.9c-14.4,0-26,11.7-26,26s11.7,26,26,26c14.4,0,26-11.7,26-26S-336.5,7.9-350.9,7.9z"/>
</g>
    <g>
	<path class="st3" d="M-355.7,48.3L-355.7,48.3L-355.7,48.3l-4.8-4.4l0,0l-8.2-7.5l5.1-5.5l7.4,8.1l16.5-19.2l5.5,5L-355.7,48.3z
		 M-359.3,43.8l3.5,3.2l20.3-22.2l-4.2-3.8l-16.5,19.3l-7.4-8.1l-3.8,4.1L-359.3,43.8L-359.3,43.8z"/>
</g>
    <rect x="-625.6" y="-511.7" class="st4" width="661.3" height="249.3"/>
    <g>
	<g>
		<g>
			<path class="st1" d="M-13.3-197.2H-52v-0.3h38.7c6.3,0,11.4-5.1,11.4-11.4v-46.8c0-6.3-5.1-11.4-11.4-11.4h-71.9
				c-6.3,0-11.4,5.1-11.4,11.4v12.8h-0.3v-12.8c0-6.5,5.3-11.7,11.7-11.7h71.9c6.5,0,11.7,5.3,11.7,11.7v46.8
				C-1.6-202.4-6.8-197.2-13.3-197.2z"/>
            <path class="st1" d="M-13.3-196.9h-38.9v-0.8h38.9c6.1,0,11.1-5,11.1-11.1v-46.8c0-6.1-5-11.1-11.1-11.1h-71.9
				c-6.1,0-11.1,5-11.1,11.1v13.1h-0.9v-13.1c0-6.6,5.4-12,12-12h71.9c6.6,0,12,5.4,12,12v46.8C-1.3-202.3-6.7-196.9-13.3-196.9z"/>
		</g>
	</g>
        <g>
		<rect x="-96.8" y="-257" class="st1" width="95" height="0.3"/>
	</g>
        <g>
		<rect x="-96.8" y="-252.5" class="st1" width="95" height="0.3"/>
	</g>
        <g>
		<path class="st1" d="M-16.7-201.9c-2.9,0-5.7-1.4-7.5-3.7c-1.8,2.3-4.5,3.7-7.5,3.7c-5.2,0-9.3-4.2-9.3-9.3c0-5.2,4.2-9.3,9.3-9.3
			c2.9,0,5.7,1.4,7.5,3.7c1.8-2.3,4.5-3.7,7.5-3.7c5.2,0,9.3,4.2,9.3,9.3C-7.3-206.1-11.5-201.9-16.7-201.9z M-24.1-206.2l0.1,0.2
			c1.7,2.4,4.4,3.8,7.3,3.8c5,0,9-4,9-9s-4-9-9-9c-2.9,0-5.6,1.4-7.3,3.8l-0.1,0.2l-0.1-0.2c-1.7-2.4-4.4-3.8-7.3-3.8c-5,0-9,4-9,9
			s4,9,9,9c2.9,0,5.6-1.4,7.3-3.8L-24.1-206.2z"/>
	</g>
        <g>
		<g>
			<g>
				<g>
					<path class="st3" d="M-10.9-209c-0.4,0.3-1,0.6-1.4,1c-0.4,0.3-1,0.6-1.5,0.9s-1,0.6-1.5,0.8c-0.5,0.3-1,0.6-1.5,0.8l0,0
						C-14.7-206.7-12.8-207.9-10.9-209L-10.9-209z"/>
				</g>
			</g>
		</g>
            <g>
			<g>
				<g>
					<path class="st3" d="M-22.3-213.6c0.4-0.3,0.9-0.6,1.3-0.9c0.4-0.3,0.9-0.6,1.3-0.8c0.4-0.3,0.9-0.5,1.3-0.8
						c0.4-0.3,0.9-0.5,1.4-0.8l0,0C-18.7-215.8-20.5-214.7-22.3-213.6L-22.3-213.6z"/>
				</g>
			</g>
		</g>
            <g>
			<g>
				<g>
					<g>
						<path class="st3" d="M-23.5-207.6c2.1-1.5,4.3-2.8,6.5-4.1c2.2-1.3,4.5-2.6,6.7-3.8c-2.1,1.5-4.3,2.8-6.5,4.1
							C-18.9-210.1-21.2-208.8-23.5-207.6z"/>
					</g>
				</g>
			</g>
                <g>
				<g>
					<g>
						<path class="st3" d="M-11.2-212.3c-0.7,0.6-1.3,1.1-2.1,1.5c-0.7,0.5-1.5,1-2.2,1.4c-0.8,0.4-1.5,0.9-2.2,1.3
							c-0.8,0.4-1.5,0.8-2.4,1.1v-0.1C-17.2-208.8-14.2-210.6-11.2-212.3L-11.2-212.3z"/>
					</g>
				</g>
			</g>
                <g>
				<g>
					<g>
						<path class="st3" d="M-22.4-210.9c0.7-0.6,1.3-1.1,2.1-1.5c0.7-0.5,1.5-1,2.2-1.4c0.8-0.4,1.5-0.9,2.2-1.3
							c0.8-0.4,1.5-0.8,2.4-1.1v0.1C-16.5-214.4-19.5-212.6-22.4-210.9L-22.4-210.9z"/>
					</g>
				</g>
			</g>
		</g>
	</g>
        <g>
		<path class="st1" d="M-79.8-188.9c-14.6,0-26.5-11.9-26.5-26.5s11.9-26.5,26.5-26.5s26.5,11.9,26.5,26.5S-65.1-188.9-79.8-188.9z
			 M-79.8-241.5c-14.4,0-26,11.7-26,26s11.7,26,26,26c14.4,0,26-11.7,26-26S-65.4-241.5-79.8-241.5z"/>
	</g>
        <g>
		<path class="st3" d="M-84.5-201.2L-84.5-201.2L-84.5-201.2l-4.8-4.4l0,0l-8.2-7.5l5.1-5.5l7.4,8.1l16.5-19.2l5.5,5L-84.5-201.2z
			 M-88.2-205.7l3.5,3.2l20.3-22.2l-4.2-3.8l-16.6,19.3l-7.4-8.1l-3.8,4.1L-88.2-205.7L-88.2-205.7z"/>
	</g>
</g>
    <g>
	<g>
		<g>
			<path d="M630.9-109.6c-21.9,0-39.6-17.8-39.6-39.6c0-21.9,17.8-39.6,39.6-39.6s39.6,17.8,39.6,39.6
				C670.6-127.4,652.8-109.6,630.9-109.6z M630.9-188.2c-21.4,0-38.9,17.5-38.9,38.9s17.5,38.9,38.9,38.9s38.9-17.4,38.9-38.9
				C669.8-170.7,652.4-188.2,630.9-188.2z"/>
		</g>
	</g>
        <g>
		<g>
			<g>
				<path class="st3" d="M630.9-129.6c-2.2,0-4-1.8-4-4v-21.5c0-2.2,1.8-4,4-4s4,1.8,4,4v21.5C634.9-131.3,633.1-129.6,630.9-129.6z
					 M630.9-157c-1.1,0-2,0.9-2,2v21.5c0,1.1,0.9,2,2,2s2-0.9,2-2V-155C632.9-156.1,632-157,630.9-157z"/>
			</g>
		</g>
            <g>
			<g>
				<path class="st3" d="M630.9-161.1c-2.2,0-4-1.8-4-4s1.8-4,4-4s4,1.8,4,4C634.9-162.8,633.1-161.1,630.9-161.1z M630.9-167
					c-1.1,0-2,0.9-2,2s0.9,2,2,2s2-0.9,2-2S632-167,630.9-167z"/>
			</g>
		</g>
	</g>
        <g>
		<path d="M630.9-122.9c-14.6,0-26.4-11.8-26.4-26.4c0-14.6,11.8-26.4,26.4-26.4c14.6,0,26.4,11.8,26.4,26.4c0,2.9-0.8,5.6-1.6,8.2
			c-0.3,0.9-0.5,1.8-0.8,2.7c-1,3.9,0.6,13.8,0.6,13.9v0.3h-0.3c-0.1,0-6.6-0.5-9.3-0.1C642.6-123.8,634.3-122.9,630.9-122.9z
			 M630.9-175.2c-14.3,0-25.9,11.6-25.9,25.9s11.6,25.9,25.9,25.9c3.3,0,11.6-0.9,15-1.5c2.5-0.4,7.8,0,9.1,0.1
			c-0.3-1.8-1.5-10.2-0.5-13.8c0.2-0.9,0.5-1.8,0.8-2.7c0.8-2.6,1.5-5.2,1.5-8C656.8-163.6,645.2-175.2,630.9-175.2z"/>
	</g>
</g>
    <g>
	<g>
		<path class="st3" d="M-156.7-211.8c-1.1-4.7-2.1-9.4-3.1-14.1s-2.1-9.4-3.1-14.1l-0.1-0.6h-0.6c-1.8,0.1-3.5,0.2-5.2,0.2l-0.4-3.3
			c-0.2-1.8-0.5-3.9-1.6-5.7c-1.2-1.8-3.2-3.1-5.4-3.3c-2.7-0.2-5.4,1.1-7.3,3.5c-1.5,1.9-2.4,4.6-2.5,7.6c0,0.5,0,1,0,1.5
			c-1.4,0.1-2.9,0.1-4.4,0.2h-0.6l-0.2,0.6c-1.3,9.6-3.5,19.2-6.5,28.4l-0.3,1h1c6.6-0.2,13.2-0.3,19.8-0.5
			c6.6-0.2,13.2-0.3,19.8-0.5h0.9L-156.7-211.8z M-184.6-241.5c0.1-2.7,0.9-5,2.2-6.8c1.5-1.9,3.8-3.1,6-2.9
			c1.7,0.1,3.4,1.2,4.3,2.6c0.9,1.5,1.2,3.4,1.4,5.1l0.4,3.2c-2.3,0-4.5,0-6.7,0c-2.5,0-5,0-7.6,0.1
			C-184.7-240.6-184.7-241.1-184.6-241.5z M-177.2-211.9c-6.3,0.2-12.5,0.3-18.7,0.5c2.8-8.8,4.9-17.9,6.1-27.1
			c1.3-0.1,2.5-0.1,3.7-0.1c0.1,1.6,0.3,3.2,0.6,4.8c0.1,0.4,0.4,0.6,0.7,0.6h0.1c0.4-0.1,0.7-0.4,0.6-0.8c-0.2-1.5-0.4-3.1-0.5-4.6
			c2.6-0.1,5.1-0.1,7.5-0.1c2.2,0,4.5,0,6.8,0l0.5,4.4c0,0.4,0.4,0.7,0.8,0.6c0.4,0,0.7-0.4,0.6-0.8l-0.5-4.3c1.5,0,3-0.1,4.5-0.2
			c1,4.5,2,9,3,13.5c1,4.4,1.9,8.8,2.9,13.2C-164.6-212.2-170.9-212-177.2-211.9z"/>
	</g>
        <g class="st5">
		<g>
			<g>
				<path class="st6" d="M-186.1-217.3h2.8v0.5h-3.4v-8.2h0.5L-186.1-217.3z"/>
			</g>
		</g>
            <g>
			<g>
				<path class="st6" d="M-169.6-224.4h-2.8v3.6h2.4v0.5h-2.4v3.6h-0.5v-8.2h3.4L-169.6-224.4z"/>
			</g>
		</g>
            <g>
			<g>
				<path class="st6" d="M-164.8-225v0.5h-1.9v7.7h-0.5v-7.7h-1.9v-0.5H-164.8z"/>
			</g>
		</g>
            <g>
			<g>
				<g>
					<path class="st3" d="M-178.9-225.2c-2.3,0-4.2,1.9-4.2,4.2c0,2.3,1.9,4.2,4.2,4.2s4.2-1.9,4.2-4.2S-176.6-225.2-178.9-225.2z
						 M-175.2-221c0,2-1.7,3.7-3.7,3.7s-3.7-1.7-3.7-3.7s1.7-3.7,3.7-3.7C-176.9-224.7-175.2-223-175.2-221z"/>
				</g>
			</g>
                <g>
				<g>
					<g>
						<path class="st3" d="M-176.5-220c-0.2,0.1-0.4,0.3-0.6,0.4s-0.4,0.2-0.6,0.4c-0.2,0.1-0.4,0.2-0.6,0.3
							c-0.2,0.1-0.4,0.2-0.6,0.3l0,0C-178-219-177.3-219.5-176.5-220L-176.5-220z"/>
					</g>
				</g>
                    <g>
					<g>
						<path class="st3" d="M-181.1-221.8c0.2-0.1,0.4-0.2,0.5-0.3c0.2-0.1,0.4-0.2,0.5-0.3c0.2-0.1,0.4-0.2,0.5-0.3
							c0.2-0.1,0.4-0.2,0.6-0.3l0,0C-179.6-222.7-180.4-222.3-181.1-221.8L-181.1-221.8z"/>
					</g>
				</g>
                    <g>
					<g>
						<g>
							<path class="st3" d="M-181.6-219.4c0.9-0.6,1.7-1.1,2.6-1.7c0.9-0.5,1.8-1.1,2.7-1.5c-0.9,0.6-1.7,1.1-2.6,1.7
								C-179.7-220.4-180.6-219.9-181.6-219.4z"/>
						</g>
					</g>
                        <g>
						<g>
							<path class="st3" d="M-176.6-221.3c-0.3,0.2-0.5,0.4-0.8,0.6s-0.6,0.4-0.9,0.6c-0.3,0.2-0.6,0.3-0.9,0.5
								c-0.3,0.2-0.6,0.3-0.9,0.4l0,0C-179-219.9-177.8-220.6-176.6-221.3L-176.6-221.3z"/>
						</g>
					</g>
                        <g>
						<g>
							<path class="st3" d="M-181.1-220.7c0.3-0.2,0.5-0.4,0.8-0.6c0.3-0.2,0.6-0.4,0.9-0.6s0.6-0.3,0.9-0.5
								c0.3-0.2,0.6-0.3,0.9-0.4l0,0C-178.8-222.1-179.9-221.4-181.1-220.7L-181.1-220.7z"/>
						</g>
					</g>
				</g>
			</g>
		</g>
	</g>
        <g>
		<path class="st1" d="M-128.4-189.9h-98c-1.4,0-2.5-1.1-2.5-2.5v-73.5c0-1.4,1.1-2.5,2.5-2.5h98c1.4,0,2.5,1.1,2.5,2.5v73.5
			C-125.9-191-127.1-189.9-128.4-189.9z M-226.4-267.6c-1,0-1.8,0.8-1.8,1.8v73.5c0,1,0.8,1.8,1.8,1.8h98c1,0,1.8-0.8,1.8-1.8v-73.5
			c0-1-0.8-1.8-1.8-1.8H-226.4z"/>
	</g>
        <g>
		<path class="st1" d="M-132.7-201.2h-89.2v-60.1h89.2V-201.2z M-221.3-201.7h88.1v-59.1h-88.2L-221.3-201.7L-221.3-201.7z"/>
	</g>
        <g>
		<rect x="-221.6" y="-198.3" class="st1" width="88.7" height="0.8"/>
	</g>
</g>
    <g>
	<rect x="-221.7" y="-195.9" width="0.2" height="3"/>
</g>
    <g>
	<rect x="-220.3" y="-195.9" width="0.2" height="3"/>
</g>
    <g>
	<rect x="-218.9" y="-195.9" width="0.2" height="3"/>
</g>
    <g>
	<rect x="-217.6" y="-195.9" width="0.2" height="3"/>
</g>
    <g>
	<rect x="-216.2" y="-195.9" width="0.2" height="3"/>
</g>
    <g>
	<g>
		<g>
			<path class="st3" d="M-176.9-194.1l-0.1,0.1l-0.1,0.1l-0.1,0.1l-0.1,0.1l0,0C-177.2-193.9-177-194-176.9-194.1L-176.9-194.1z"/>
		</g>
	</g>
        <g>
		<g>
			<path class="st3" d="M-177.9-194.5l0.1-0.1l0.1-0.1c0,0,0.1,0,0.1-0.1s0.1,0,0.1-0.1l0,0C-177.6-194.7-177.8-194.6-177.9-194.5
				L-177.9-194.5z"/>
		</g>
	</g>
        <g>
		<g>
			<path class="st3" d="M-177.4-195.3c-0.5,0-1,0.4-1,1s0.4,1,1,1s1-0.4,1-1S-176.9-195.3-177.4-195.3z M-176.6-194.3
				c0,0.5-0.4,0.9-0.9,0.9s-0.9-0.4-0.9-0.9s0.4-0.9,0.9-0.9S-176.6-194.8-176.6-194.3z"/>
		</g>
	</g>
        <g>
		<g>
			<g>
				<path class="st3" d="M-178.1-194c0.2-0.1,0.4-0.3,0.6-0.4c0.2-0.1,0.4-0.2,0.6-0.4c-0.2,0.1-0.4,0.3-0.6,0.4
					C-177.6-194.2-177.8-194.1-178.1-194z"/>
			</g>
		</g>
            <g>
			<g>
				<path class="st3" d="M-176.9-194.4c-0.1,0.1-0.1,0.1-0.2,0.1c-0.1,0-0.1,0.1-0.2,0.1c-0.1,0-0.1,0.1-0.2,0.1
					c-0.1,0-0.1,0.1-0.2,0.1l0,0C-177.5-194.1-177.2-194.2-176.9-194.4L-176.9-194.4z"/>
			</g>
		</g>
            <g>
			<g>
				<path class="st3" d="M-178-194.3c0.1-0.1,0.1-0.1,0.2-0.1c0.1,0,0.1-0.1,0.2-0.1s0.1-0.1,0.2-0.1c0.1,0,0.1-0.1,0.2-0.1l0,0
					C-177.4-194.6-177.7-194.4-178-194.3L-178-194.3z"/>
			</g>
		</g>
	</g>
</g>
    <g>
	<g>
		<g>
			<g>
				<g>
					<path class="st3" d="M336.4-212.5c-2.2,0-4-1.8-4-4V-238c0-2.2,1.8-4,4-4s4,1.8,4,4v21.5C340.3-214.3,338.6-212.5,336.4-212.5z
						 M336.4-240c-1.1,0-2,0.9-2,2v21.5c0,1.1,0.9,2,2,2s2-0.9,2-2V-238C338.3-239.1,337.5-240,336.4-240z"/>
				</g>
			</g>
		</g>
        <g>
			<g>
				<g>
					<path class="st3" d="M336.4-244c-2.2,0-4-1.8-4-4s1.8-4,4-4s4,1.8,4,4C340.3-245.8,338.6-244,336.4-244z M336.4-250
						c-1.1,0-2,0.9-2,2s0.9,2,2,2s2-0.9,2-2S337.5-250,336.4-250z"/>
				</g>
			</g>
		</g>
	</g>
        <g>
		<g>
			<path class="st1" d="M336.4-205.9c-14.6,0-26.4-11.8-26.4-26.4s11.8-26.4,26.4-26.4s26.4,11.8,26.4,26.4c0,2.9-0.8,5.6-1.6,8.2
				c-0.3,0.9-0.5,1.8-0.8,2.7c-1,3.9,0.6,13.8,0.6,13.9v0.3h-0.3c-0.1,0-6.6-0.5-9.3-0.1C348-206.8,339.7-205.9,336.4-205.9z
				 M336.4-258.2c-14.3,0-25.9,11.6-25.9,25.9s11.6,25.9,25.9,25.9c3.3,0,11.6-0.9,15-1.5c2.5-0.4,7.8,0,9.1,0.1
				c-0.3-1.8-1.5-10.2-0.5-13.8c0.2-0.9,0.5-1.8,0.8-2.7c0.8-2.6,1.5-5.2,1.5-8C362.3-246.5,350.6-258.2,336.4-258.2z"/>
		</g>
	</g>
        <g>
		<path class="st1" d="M363.7-192.5h-54.6c-6.9,0-12.5-5.6-12.5-12.5v-54.6c0-6.9,5.6-12.5,12.5-12.5h54.6c6.9,0,12.5,5.6,12.5,12.5
			v54.6C376.2-198.1,370.6-192.5,363.7-192.5z M309.1-271.1c-6.3,0-11.5,5.2-11.5,11.5v54.6c0,6.3,5.2,11.5,11.5,11.5h54.6
			c6.3,0,11.5-5.2,11.5-11.5v-54.6c0-6.3-5.2-11.5-11.5-11.5H309.1z"/>
	</g>
</g>
    <g>
	<g>
		<path class="st3" d="M41.4-253.5l-26,1.8l26,1.8l0,0V-253.5L41.4-253.5z"/>
	</g>
        <g>
		<path class="st3" d="M41.1-246.7l-17.3,1.8l16.7,1.8l0,0L41.1-246.7L41.1-246.7z"/>
	</g>
        <g>
		<g>
			<path class="st3" d="M84.4-247c-1.8-3.6-4.5-6.6-7.5-8.7c-3-2.1-6.6-3.9-10.2-4.8c-0.9,0-1.8-0.3-2.7-0.3c-0.3,0-0.9,0-1.2,0
				h-0.9c-0.3,0-0.3,0-0.9,0h-5.4h-11l-42.7,0.6l43,0.9l10.7,0.3H61c0.3,0,0.3,0,0.9,0h0.3c0.3,0,0.9,0,1.2,0c0.9,0,1.8,0.3,2.7,0.3
				c3,0.9,6.3,2.7,8.7,4.8c2.4,2.1,4.5,4.8,6.3,7.8c1.2,3,2.1,6.3,1.8,9.6c0,3-0.9,6.6-2.7,9.3c-3,5.7-8.7,10.2-14.9,11.3
				c-3,0.3-6.3,0.3-9.3-0.3c-3-0.9-5.7-2.1-8.4-4.5c-2.1-2.1-4.5-4.5-5.7-7.5c-0.3-0.9-0.9-2.1-1.2-3.9c0-0.3,0-0.9,0-1.2
				s0-0.9,0-1.2s0-0.9,0-1.2v-0.3v-0.6v-0.3c0,0,0,0,0-0.3c0,0,0,0,0-0.3h-7.8v0.3l0,0l0,0l0,0v0.3v0.9c0,0.3,0,0.9,0,1.8
				c0,0.3,0,0.9,0.3,1.2c0,0.3,0,0.9,0.3,1.2c0.3,2.1,1.2,3.9,2.1,5.7c1.8,3.6,4.5,6.9,7.8,9.3c3,2.7,6.9,4.5,11,5.4
				c3.9,0.9,7.8,0.9,11.9,0c7.8-1.8,14.3-7.5,17.9-14.3c1.8-3.6,2.7-7.5,2.7-11.3C87-240.1,86.1-244,84.4-247z"/>
		</g>
	</g>
        <g>
		<g>
			<path class="st1" d="M44.5-208.7c-5.2,0-10,5-10,10.3s4.8,10.3,10,10.3s10-5,10-10.3S50.1-208.7,44.5-208.7z M44.5-189.2
				c-4.8,0-8.8-4.1-8.8-9.1c0-0.1,0-0.2,0-0.3c0-0.1,0-0.1,0-0.2s0-0.2,0.1-0.3c0.4-4.6,4.2-8.3,8.8-8.3c5.2,0,8.8,3.7,8.8,9.1
				C53.3-193.4,49.3-189.2,44.5-189.2z"/>
		</g>
	</g>
        <g>
		<g>
			<path class="st1" d="M121.8-208.8c-5.2,0-10,5-10,10.3c0,5.4,4.8,10.3,10,10.3s10-5,10-10.3C131.8-203.9,127.4-208.8,121.8-208.8
				z M130.6-198.5c0,5-4,9.1-8.8,9.1s-8.8-4.1-8.8-9.1s4-9.1,8.8-9.1C127-207.6,130.6-203.9,130.6-198.5z"/>
		</g>
	</g>
        <g>
		<g>
			<g>
				<g>
					<path class="st1" d="M35-198H20c-1.4,0-2.6-1.2-2.6-2.6c-0.1-9.7-0.2-57.7-0.2-59c0-3.5,2.9-6.4,6.5-6.4l62.3-0.5
						c0,0,0,0,0.1,0c1.6,0,3.1,0.6,4.3,1.8c1.2,1.1,1.8,2.7,1.8,4.3c0.2,29,0.3,50.3,0.3,61.6v0.5L53.6-198v-1l37.9-0.3
						c0-11.4-0.1-32.5-0.3-61.1c0-1.4-0.5-2.6-1.5-3.6s-2.2-1.5-3.6-1.5L23.8-265c-3,0-5.4,2.5-5.5,5.4c0,1.2,0.1,49.2,0.2,58.9
						c0,0.9,0.7,1.6,1.6,1.6h15L35-198L35-198z"/>
				</g>
			</g>
            <g>
				<path class="st1" d="M131.8-226.6l-8.5-17.9c-0.8-1.7-2.6-2.9-4.5-2.9H91.3v-1h27.5c2.3,0,4.4,1.3,5.4,3.4l8.5,17.9L131.8-226.6
					z"/>
			</g>
		</g>
            <g>
			<path class="st1" d="M147.2-198.1h-0.1c-4.5-0.2-9.5-0.4-15.6-0.4v-1c6.1,0,11.1,0.1,15.6,0.4c0.3,0,0.6-0.1,0.8-0.3
				c0.2-0.2,0.3-0.5,0.3-0.8l-0.5-17.4c0-0.4-0.2-0.7-0.6-0.9l-15.2-7.8l0.5-0.9l15.2,7.8c0.7,0.3,1.1,1,1.1,1.8l0.5,17.4
				c0,0.6-0.2,1.1-0.6,1.5C148.3-198.3,147.8-198.1,147.2-198.1z"/>
		</g>
            <g>
			<rect x="91.3" y="-199.4" class="st1" width="21.7" height="1"/>
		</g>
	</g>
        <g>
		<path class="st1" d="M119.1-226.9H99.5c-1,0-1.8-0.8-1.8-1.9v-10.1c0-1,0.8-1.9,1.8-1.9h15.4c0.7,0,1.4,0.4,1.7,1.1l4.2,10.2
			c0.2,0.6,0.2,1.3-0.2,1.8C120.3-227.2,119.7-226.9,119.1-226.9z M99.6-240.3c-0.7,0-1.3,0.6-1.3,1.4v10.1c0,0.8,0.6,1.4,1.3,1.4
			h19.6c0.4,0,0.8-0.2,1.1-0.6c0.3-0.4,0.3-0.9,0.1-1.3l-4.2-10.2c-0.2-0.5-0.7-0.8-1.2-0.8H99.6z"/>
	</g>
        <g>
		<rect x="137.2" y="-207.3" class="st1" width="11.3" height="1"/>
	</g>
        <g>
		<rect x="98" y="-218.4" class="st1" width="4.2" height="1"/>
	</g>
        <g>
		<g>
			<path class="st3" d="M58.6-227L58.6-227L58.6-227l-3.8-3.4l0,0l-6.5-5.9l4-4.4l5.8,6.4l13-15.2l4.4,4L58.6-227z M55.7-230.6
				l2.8,2.6l16-17.5l-3.3-3l-13.1,15.2l-5.8-6.4l-3,3.3L55.7-230.6L55.7-230.6z"/>
		</g>
	</g>
        <g>
		<g>
			<g>
				<g>
					<g>
						<path class="st3" d="M50.5-196.2c-0.4,0.3-1,0.6-1.4,1c-0.4,0.3-1,0.6-1.5,0.9s-1,0.6-1.5,0.8c-0.5,0.3-1,0.6-1.5,0.8l0,0
							C46.6-193.9,48.6-195,50.5-196.2L50.5-196.2z"/>
					</g>
				</g>
			</g>
		</g>
            <g>
			<g>
				<g>
					<g>
						<path class="st3" d="M39-200.7c0.4-0.3,0.9-0.6,1.3-0.9c0.4-0.3,0.9-0.6,1.3-0.8c0.4-0.3,0.9-0.5,1.3-0.8
							c0.4-0.3,0.9-0.5,1.4-0.8l0,0C42.7-202.9,40.9-201.8,39-200.7L39-200.7z"/>
					</g>
				</g>
			</g>
		</g>
            <g>
			<g>
				<g>
					<g>
						<g>
							<path class="st3" d="M37.9-194.8c2.1-1.5,4.3-2.8,6.5-4.1c2.2-1.3,4.5-2.6,6.7-3.8c-2.1,1.5-4.3,2.8-6.5,4.1
								C42.4-197.2,40.2-195.9,37.9-194.8z"/>
						</g>
					</g>
				</g>
			</g>
                <g>
				<g>
					<g>
						<g>
							<path class="st3" d="M50.1-199.4c-0.7,0.6-1.3,1.1-2.1,1.5c-0.7,0.5-1.5,1-2.2,1.4c-0.8,0.4-1.5,0.9-2.2,1.3
								c-0.8,0.4-1.5,0.8-2.4,1.1v-0.1C44.2-196,47.1-197.7,50.1-199.4L50.1-199.4z"/>
						</g>
					</g>
				</g>
			</g>
                <g>
				<g>
					<g>
						<g>
							<path class="st3" d="M38.9-198c0.7-0.6,1.3-1.1,2.1-1.5c0.7-0.5,1.5-1,2.2-1.4c0.8-0.4,1.5-0.9,2.2-1.3
								c0.8-0.4,1.5-0.8,2.4-1.1v0.1C44.8-201.5,41.9-199.7,38.9-198L38.9-198z"/>
						</g>
					</g>
				</g>
			</g>
		</g>
	</g>
        <g>
		<g>
			<g>
				<g>
					<g>
						<path class="st3" d="M127.8-195.8c-0.4,0.3-1,0.6-1.4,1c-0.4,0.3-1,0.6-1.5,0.9s-1,0.6-1.5,0.8c-0.5,0.3-1,0.6-1.5,0.8l0,0
							C123.9-193.6,125.9-194.7,127.8-195.8L127.8-195.8z"/>
					</g>
				</g>
			</g>
		</g>
            <g>
			<g>
				<g>
					<g>
						<path class="st3" d="M116.3-200.4c0.4-0.3,0.9-0.6,1.3-0.9s0.9-0.6,1.3-0.8c0.4-0.3,0.9-0.5,1.3-0.8s0.9-0.5,1.4-0.8l0,0
							C120-202.6,118.2-201.5,116.3-200.4L116.3-200.4z"/>
					</g>
				</g>
			</g>
		</g>
            <g>
			<g>
				<g>
					<g>
						<g>
							<path class="st3" d="M115.2-194.4c2.1-1.5,4.3-2.8,6.5-4.1c2.2-1.3,4.5-2.6,6.7-3.8c-2.1,1.5-4.3,2.8-6.5,4.1
								C119.7-196.9,117.5-195.6,115.2-194.4z"/>
						</g>
					</g>
				</g>
			</g>
                <g>
				<g>
					<g>
						<g>
							<path class="st3" d="M127.4-199.1c-0.7,0.6-1.3,1.1-2.1,1.5c-0.7,0.5-1.5,1-2.2,1.4c-0.8,0.4-1.5,0.9-2.2,1.3
								c-0.8,0.4-1.5,0.8-2.4,1.1v-0.1C121.5-195.7,124.4-197.4,127.4-199.1L127.4-199.1z"/>
						</g>
					</g>
				</g>
			</g>
                <g>
				<g>
					<g>
						<g>
							<path class="st3" d="M116.2-197.7c0.7-0.6,1.3-1.1,2.1-1.5c0.7-0.5,1.5-1,2.2-1.4c0.8-0.4,1.5-0.9,2.2-1.3
								c0.8-0.4,1.5-0.8,2.4-1.1v0.1C122.1-201.2,119.2-199.4,116.2-197.7L116.2-197.7z"/>
						</g>
					</g>
				</g>
			</g>
		</g>
	</g>
</g>
    <g>
	<rect x="416.9" y="-596.9" class="st2" width="112" height="78.5"/>
        <rect x="426.4" y="-587.9" class="st7" width="92.9" height="60.5"/>
        <polyline class="st7" points="519.3,-545.5 495.3,-559.4 479.1,-549.2 459.6,-569.6 426.4,-543.9 	"/>
</g>
    <g>
	<g>
		<g>
			<path class="st3" d="M494.2-574.5c-0.3,0.2-0.6,0.4-0.8,0.6s-0.6,0.3-0.9,0.5c-0.3,0.2-0.6,0.3-0.9,0.5c-0.3,0.2-0.6,0.3-0.9,0.5
				l0,0C491.9-573.2,493.1-573.8,494.2-574.5L494.2-574.5z"/>
		</g>
	</g>
        <g>
		<g>
			<path class="st3" d="M487.4-577.3c0.3-0.2,0.5-0.3,0.8-0.5s0.5-0.3,0.8-0.5s0.5-0.3,0.8-0.5s0.5-0.3,0.8-0.5l0,0
				C489.6-578.5,488.5-577.9,487.4-577.3L487.4-577.3z"/>
		</g>
	</g>
        <g>
		<g>
			<path class="st3" d="M490.7-582.3c-3.4,0-6.2,2.8-6.2,6.2s2.8,6.2,6.2,6.2s6.2-2.8,6.2-6.2S494.1-582.3,490.7-582.3z M496.1-576
				c0,3-2.4,5.4-5.4,5.4s-5.4-2.4-5.4-5.4s2.4-5.5,5.4-5.5S496.1-579,496.1-576z"/>
		</g>
	</g>
        <g>
		<g>
			<g>
				<path class="st3" d="M486.7-573.7c1.3-0.9,2.6-1.7,3.9-2.5c1.3-0.8,2.7-1.6,4-2.3c-1.3,0.9-2.6,1.7-3.9,2.5
					S488.1-574.4,486.7-573.7z"/>
			</g>
		</g>
            <g>
			<g>
				<path class="st3" d="M494-576.5c-0.4,0.3-0.8,0.6-1.3,0.9c-0.4,0.3-0.9,0.6-1.3,0.8c-0.5,0.3-0.9,0.5-1.3,0.8s-0.9,0.5-1.4,0.6
					l0,0C490.5-574.4,492.2-575.4,494-576.5L494-576.5z"/>
			</g>
		</g>
            <g>
			<g>
				<path class="st3" d="M487.3-575.6c0.4-0.3,0.8-0.6,1.3-0.9c0.4-0.3,0.9-0.6,1.3-0.8c0.5-0.3,0.9-0.5,1.3-0.8
					c0.5-0.2,0.9-0.5,1.4-0.6l0,0C490.8-577.7,489.1-576.6,487.3-575.6L487.3-575.6z"/>
			</g>
		</g>
	</g>
</g>
    <g>
	<g>
		<g>
			<g>
				<path class="st1" d="M274.4-193H162.9v-78.5h111.6v78.5H274.4z M163.9-194h109.6v-76.5H163.9V-194z"/>
			</g>
            <g>
				<path class="st1" d="M264.7-202.1h-92.2v-60.3h92.2L264.7-202.1L264.7-202.1z M173-202.6h91.2v-59.3H173V-202.6z"/>
			</g>
            <g>
				<polygon class="st1" points="172.9,-218.5 172.6,-218.9 205.5,-244.4 205.7,-244.3 224.9,-224.3 240.8,-234.3 241,-234.2
					264.6,-220.5 264.4,-220 240.8,-233.7 224.8,-223.6 205.5,-243.8 				"/>
			</g>
		</g>
	</g>
        <g>
		<g>
			<g>
				<g>
					<path class="st3" d="M260-249.2c-0.3,0.2-0.6,0.4-0.8,0.6c-0.3,0.2-0.6,0.3-0.9,0.5s-0.6,0.3-0.9,0.5s-0.6,0.3-0.9,0.5l0,0
						C257.7-247.8,258.9-248.5,260-249.2L260-249.2z"/>
				</g>
			</g>
		</g>
            <g>
			<g>
				<g>
					<path class="st3" d="M253.2-251.9c0.3-0.2,0.5-0.3,0.8-0.5s0.5-0.3,0.8-0.5s0.5-0.3,0.8-0.5s0.5-0.3,0.8-0.5l0,0
						C255.3-253.2,254.3-252.5,253.2-251.9L253.2-251.9z"/>
				</g>
			</g>
		</g>
            <g>
			<g>
				<g>
					<path class="st3" d="M256.4-256.9c-3.4,0-6.2,2.8-6.2,6.2s2.8,6.2,6.2,6.2c3.5,0,6.2-2.8,6.2-6.2S259.8-256.9,256.4-256.9z
						 M261.9-250.7c0,3-2.4,5.4-5.4,5.4c-3,0-5.4-2.4-5.4-5.4s2.4-5.5,5.4-5.5C259.4-256.1,261.9-253.7,261.9-250.7z"/>
				</g>
			</g>
		</g>
            <g>
			<g>
				<g>
					<g>
						<path class="st3" d="M252.5-248.3c1.3-0.9,2.6-1.7,3.9-2.5c1.3-0.8,2.7-1.6,4-2.3c-1.3,0.9-2.6,1.7-3.9,2.5
							C255.2-249.8,253.8-249,252.5-248.3z"/>
					</g>
				</g>
			</g>
                <g>
				<g>
					<g>
						<path class="st3" d="M259.8-251.1c-0.4,0.3-0.8,0.6-1.3,0.9c-0.4,0.3-0.9,0.6-1.3,0.8c-0.5,0.3-0.9,0.5-1.3,0.8
							c-0.5,0.2-0.9,0.5-1.4,0.6l0,0C256.2-249,258-250.1,259.8-251.1L259.8-251.1z"/>
					</g>
				</g>
			</g>
                <g>
				<g>
					<g>
						<path class="st3" d="M253.1-250.3c0.4-0.3,0.8-0.6,1.3-0.9c0.4-0.3,0.9-0.6,1.3-0.8c0.5-0.3,0.9-0.5,1.3-0.8
							c0.5-0.2,0.9-0.5,1.4-0.6l0,0C256.6-252.3,254.9-251.3,253.1-250.3L253.1-250.3z"/>
					</g>
				</g>
			</g>
		</g>
	</g>
</g>
</svg>
