<?xml version="1.0" encoding="utf-8"?>
<!-- Generator: Adobe Illustrator 25.0.1, SVG Export Plug-In . SVG Version: 6.00 Build 0)  -->
<svg version="1.1" id="Слой_1" xmlns="http://www.w3.org/2000/svg" xmlns:xlink="http://www.w3.org/1999/xlink" x="0px" y="0px"
     viewBox="0 0 132.4 79.4" style="enable-background:new 0 0 132.4 79.4;" xml:space="preserve">
<style type="text/css">
	.st0{fill:#FFB05F;}
	.st1{fill:#FFFFFF;}
	.st2{fill:none;stroke:#000000;stroke-miterlimit:10;}
	.st3{fill:#0097AE;}
	.st4{opacity:0.69;enable-background:new    ;}
	.st5{opacity:0.6;}
	.st6{fill:#1D1D1B;}
	.st7{fill:none;stroke:#000000;stroke-width:0.5;stroke-miterlimit:10;}
</style>
    <path class="st0" d="M564.3,40.1l-11-1.8l-7.5-15.8c-0.3-3-3-5.7-6.6-5.7h-26.3V5.5c0-3-2.7-5.7-6.3-5.7h-60.9
	c-3.6,0-6.3,2.7-6.3,5.7v32.8v9.6v15.2c0,3,2.7,5.7,6.3,5.7h8.4V67c0.9,6.3,6.6,11.3,13.1,11.3c6.3,0,11.3-3.9,13.1-9.6H526
	c1.2,5.7,6.6,9.6,13.1,9.6c6.6,0,12.2-4.8,13.1-11v1.2h12.2c3.6,0,6.3-2.7,6.3-6.3V47.6C570.6,44.9,567.9,40.1,564.3,40.1z
	 M467.3,74.8c-4.8,0-9.3-3.9-9.3-8.4s3.9-8.4,9.3-8.4s9.3,3.9,9.3,8.4S472,74.8,467.3,74.8z M467.3,53.6c-6.9,0-12.8,5.4-13.1,11.3
	h-8.4c-0.9,0-1.8-0.9-1.8-1.8V47.9v-9.6V5.5c0-0.9,0.9-1.8,1.8-1.8H507c0.9,0,1.8,0.9,1.8,1.8v13.4v29v17h-28.4
	C479.8,58.6,474.1,53.6,467.3,53.6z M538.6,74.8c-4.8,0-9.3-3.9-9.3-8.4s3.9-8.4,9.3-8.4c4.8,0,9.3,3.9,9.3,8.4
	S543.7,74.8,538.6,74.8z M564,65.2h-12.2c-0.6-6.6-6.3-11.6-13.1-11.6s-12.8,5.4-13.1,11.3h-12.2v-17V20.7h26.3
	c0.9,0,1.8,0.9,1.8,1.8c0,0.3,0,0.3,0,0.9l8.4,17.6c0.3,0.3,0.9,0.9,1.8,1.2l12.2,1.8c0,0,0,0,0.3,0s1.8,2.1,1.8,3.6v9.6h-12.2v3.9
	H566v1.8C566.1,64.3,565.2,65.2,564,65.2z"/>
    <rect x="508.7" y="-99.6" width="6.3" height="3.9"/>
    <rect x="435.2" y="-135.4" width="59.1" height="3.9"/>
    <rect x="435.2" y="-120.2" width="59.1" height="3.9"/>
    <rect x="435.2" y="-104.7" width="59.1" height="3.9"/>
    <path d="M527.2-118.4c0-1.2-1.8-2.7-3-2.7h-13.1c-1.8,0-3.6,1.2-3.6,3v9.3c0,1.8,1.2,3,3.6,3H529c1.8,0,3.6-1.2,3.6-3
	c0-0.3,0-0.3,0-0.9L527.2-118.4z M511.1-108.6v-9.2h12.8c0,0.3,0,0.3,0,0.9l4.5,8.4h-17.3L511.1-108.6L511.1-108.6z"/>
    <circle class="st1" cx="-344.5" cy="-99.3" r="21.8"/>
    <path d="M378.4-109.8c1.2,1.2,2.1,2.1,3,3c-4.8,5.4-10.2,10.2-14.9,14.9c-2.7-2.7-5.4-5.4-7.8-7.8c1.2-0.9,2.1-1.8,3.6-3
	c1.2,1.8,3,3.6,4.5,5.4C370.6-102,374.5-105.9,378.4-109.8z"/>
    <g>
	<g>
		<path d="M435.7,93.5c-0.3,0.3-0.9,0.3-0.9,0.9c-0.3,0-0.9,0.3-0.9,0.3c-0.3,0-0.9,0.3-0.9,0.3c-0.3,0-0.9,0.3-0.9,0.3l0,0
			C432.7,95.3,434.2,94.4,435.7,93.5L435.7,93.5z"/>
	</g>
        <g>
		<path d="M427.7,89.9c0.3,0,0.3-0.3,0.9-0.3s0.3-0.3,0.9-0.3c0.3,0,0.3-0.3,0.9-0.3s0.3-0.3,0.9-0.3l0,0
			C430.1,88.7,428.9,89.6,427.7,89.9L427.7,89.9z"/>
	</g>
        <g>
		<path d="M431.6,84.2c-3.9,0-7.5,3.6-7.5,7.5s3.6,7.5,7.5,7.5s7.5-3.6,7.5-7.5C439,87.8,435.4,84.2,431.6,84.2z M438.1,91.7
			c0,3.6-3,6.6-6.6,6.6s-6.6-3-6.6-6.6s3-6.6,6.6-6.6C434.8,85.1,438.1,87.8,438.1,91.7z"/>
	</g>
        <g>
		<g>
			<path d="M426.8,94.4c1.2-0.9,3-2.1,4.8-3s3-1.8,4.8-2.7c-1.2,0.9-3,2.1-4.8,3S428.3,93.5,426.8,94.4z"/>
		</g>
            <g>
			<path d="M435.4,91.1c-0.3,0.3-0.9,0.9-1.2,1.2c-0.3,0.3-0.9,0.9-1.8,0.9c-0.3,0.3-0.9,0.3-1.8,0.9c-0.3,0.3-1.2,0.3-1.8,0.9l0,0
				C431,93.5,433.3,92,435.4,91.1L435.4,91.1z"/>
		</g>
            <g>
			<path d="M427.7,92c0.3-0.3,0.9-0.9,1.2-1.2c0.3-0.3,0.9-0.9,1.8-0.9c0.3-0.3,0.9-0.3,1.8-0.9c0.3-0.3,1.2-0.3,1.8-0.9l0,0
				C431.6,89.6,429.2,90.8,427.7,92L427.7,92z"/>
		</g>
	</g>
</g>
    <line class="st2" x1="598.8" y1="-83.1" x2="651.6" y2="-83.1"/>
    <line class="st2" x1="598.8" y1="-72.9" x2="651.6" y2="-72.9"/>
    <line class="st2" x1="598.8" y1="-62.7" x2="651.6" y2="-62.7"/>
    <g>
	<g>
		<g>
			<path class="st1" d="M27.5,58.4c-5.2,0-10,5-10,10.3c0,5.4,4.8,10.3,10,10.3s10-5,10-10.3S33.1,58.4,27.5,58.4z M27.5,77.8
				c-4.8,0-8.9-4.1-8.9-9.2c0-0.1,0-0.2,0-0.3c0-0.1,0-0.1,0-0.2s0-0.2,0.1-0.3c0.4-4.6,4.2-8.3,8.9-8.3c5.2,0,8.9,3.7,8.9,9.2
				C36.4,73.7,32.4,77.8,27.5,77.8z"/>
		</g>
	</g>
        <g>
		<g>
			<path class="st1" d="M104.9,58.2c-5.2,0-10,5-10,10.3c0,5.5,4.8,10.3,10,10.3s10-5,10-10.3S110.5,58.2,104.9,58.2z M113.7,68.6
				c0,5-4,9.2-8.9,9.2s-8.9-4.1-8.9-9.2s4-9.2,8.9-9.2C110.1,59.4,113.7,63.2,113.7,68.6z"/>
		</g>
	</g>
        <g>
		<g>
			<g>
				<g>
					<path class="st1" d="M17.9,69.1h-15c-1.4,0-2.6-1.2-2.6-2.6c-0.2-9.8-0.2-58-0.2-59.3c0-3.5,2.9-6.4,6.5-6.4l62.3-0.5
						c0,0,0,0,0.1,0c1.6,0,3.1,0.6,4.3,1.9c1.1,1,1.7,2.5,1.8,4.1c0.2,29.1,0.3,50.4,0.3,61.7v0.5l-38.9,0.3v-1l38-0.3
						c0-11.4-0.1-32.6-0.3-61.3c0-1.4-0.5-2.6-1.5-3.6s-2.2-1.5-3.6-1.5L6.5,1.8c-3,0-5.5,2.5-5.6,5.4c0,1.2,0.1,49.4,0.2,59.1
						c0,0.9,0.7,1.6,1.6,1.6h15L17.9,69.1L17.9,69.1z"/>
				</g>
			</g>
            <g>
				<path class="st1" d="M114.9,40.5l-8.5-18c-0.8-1.7-2.6-2.9-4.5-2.9H74.4v-1h27.5c2.3,0,4.4,1.3,5.4,3.4l8.5,17.9L114.9,40.5z"/>
			</g>
		</g>
            <g>
			<path class="st1" d="M130.4,69L130.4,69c-4.6-0.2-9.6-0.4-15.7-0.4v-1c6.1,0,11.1,0.1,15.6,0.4c0.3,0,0.6-0.1,0.8-0.3
				c0.2-0.2,0.3-0.5,0.3-0.8l-0.5-17.6c0-0.4-0.2-0.7-0.6-0.9l-15.2-7.8l0.5-0.9l15.2,7.8c0.7,0.3,1.1,1,1.1,1.9l0.5,17.5
				c0,0.6-0.2,1.1-0.6,1.5C131.3,68.8,130.8,69,130.4,69z"/>
		</g>
            <g>
			<rect x="74.4" y="67.6" class="st1" width="21.7" height="1"/>
		</g>
	</g>
        <g>
		<path class="st1" d="M102.2,40H82.6c-1,0-1.8-0.8-1.8-2V28c0-1,0.8-2,1.8-2H98c0.7,0,1.4,0.4,1.7,1.1l4.2,10.2
			c0.2,0.6,0.2,1.3-0.2,1.9C103.3,39.7,102.8,40,102.2,40z M82.6,26.6c-0.7,0-1.3,0.6-1.3,1.4v10.1c0,0.8,0.6,1.4,1.3,1.4h19.7
			c0.4,0,0.8-0.2,1.1-0.6c0.3-0.4,0.3-0.9,0.1-1.3l-4.2-10.2c-0.2-0.5-0.7-0.8-1.2-0.8C98,26.6,82.6,26.6,82.6,26.6z"/>
	</g>
        <g>
		<rect x="120.3" y="59.7" class="st1" width="11.3" height="1"/>
	</g>
        <g>
		<rect x="81.1" y="48.6" class="st1" width="4.2" height="1"/>
	</g>
        <g>
		<g>
			<g>
				<g>
					<g>
						<path class="st3" d="M33.4,70.9c-0.4,0.3-1,0.6-1.4,1c-0.4,0.3-1,0.6-1.5,0.9s-1,0.6-1.5,0.8c-0.5,0.3-1,0.6-1.5,0.8l0,0
							C29.6,73.2,31.5,72.1,33.4,70.9L33.4,70.9z"/>
					</g>
				</g>
			</g>
		</g>
            <g>
			<g>
				<g>
					<g>
						<path class="st3" d="M22,66.3c0.4-0.3,0.9-0.6,1.3-0.9s0.9-0.6,1.3-0.8c0.4-0.3,0.9-0.5,1.3-0.8c0.4-0.3,0.9-0.5,1.4-0.8l0,0
							C25.6,64.1,23.8,65.3,22,66.3L22,66.3z"/>
					</g>
				</g>
			</g>
		</g>
            <g>
			<g>
				<g>
					<g>
						<g>
							<path class="st3" d="M20.8,72.4c2.1-1.5,4.3-2.8,6.5-4.1c2.2-1.3,4.5-2.6,6.7-3.8c-2.1,1.5-4.3,2.8-6.5,4.1
								C25.5,69.8,23.1,71.1,20.8,72.4z"/>
						</g>
					</g>
				</g>
			</g>
                <g>
				<g>
					<g>
						<g>
							<path class="st3" d="M33.1,67.6c-0.7,0.6-1.3,1.1-2.1,1.5c-0.7,0.5-1.5,1-2.2,1.4c-0.8,0.4-1.5,0.9-2.2,1.3
								c-0.8,0.4-1.5,0.8-2.4,1.1v-0.1C27.1,71,30.1,69.4,33.1,67.6L33.1,67.6z"/>
						</g>
					</g>
				</g>
			</g>
                <g>
				<g>
					<g>
						<g>
							<path class="st3" d="M21.9,69.1c0.7-0.6,1.3-1.1,2.1-1.5c0.7-0.5,1.5-1,2.2-1.4c0.8-0.4,1.5-0.9,2.2-1.3
								c0.8-0.4,1.5-0.8,2.4-1.1v0.1C27.8,65.5,24.8,67.3,21.9,69.1L21.9,69.1z"/>
						</g>
					</g>
				</g>
			</g>
		</g>
	</g>
        <g>
		<g>
			<g>
				<g>
					<g>
						<path class="st3" d="M110.8,71.2c-0.4,0.3-1,0.6-1.4,1c-0.4,0.3-1,0.6-1.5,0.9s-1,0.6-1.5,0.8c-0.5,0.3-1,0.6-1.5,0.8l0,0
							C107,73.5,108.9,72.4,110.8,71.2L110.8,71.2z"/>
					</g>
				</g>
			</g>
		</g>
            <g>
			<g>
				<g>
					<g>
						<path class="st3" d="M99.4,66.6c0.4-0.3,0.9-0.6,1.3-0.9s0.9-0.6,1.3-0.8c0.4-0.3,0.9-0.5,1.3-0.8c0.4-0.3,0.9-0.5,1.4-0.8
							l0,0C103,64.4,101.2,65.5,99.4,66.6L99.4,66.6z"/>
					</g>
				</g>
			</g>
		</g>
            <g>
			<g>
				<g>
					<g>
						<g>
							<path class="st3" d="M98.2,72.7c2.1-1.5,4.3-2.8,6.5-4.1c2.2-1.3,4.5-2.6,6.7-3.8c-2.1,1.5-4.3,2.8-6.5,4.1
								C102.8,70.1,100.5,71.4,98.2,72.7z"/>
						</g>
					</g>
				</g>
			</g>
                <g>
				<g>
					<g>
						<g>
							<path class="st3" d="M110.5,67.9c-0.7,0.6-1.3,1.1-2.1,1.5c-0.7,0.5-1.5,1-2.2,1.4c-0.8,0.4-1.5,0.9-2.2,1.3
								s-1.5,0.8-2.4,1.1v-0.1C104.5,71.4,107.5,69.6,110.5,67.9L110.5,67.9z"/>
						</g>
					</g>
				</g>
			</g>
                <g>
				<g>
					<g>
						<g>
							<path class="st3" d="M99.3,69.4c0.7-0.6,1.3-1.1,2.1-1.5c0.7-0.5,1.5-1,2.2-1.4c0.8-0.4,1.5-0.9,2.2-1.3
								c0.8-0.4,1.5-0.8,2.4-1.1v0.2C105.3,65.8,102.2,67.6,99.3,69.4L99.3,69.4z"/>
						</g>
					</g>
				</g>
			</g>
		</g>
	</g>
        <g>
		<g>
			<path class="st3" d="M29.4,22.7l-13,1.4L29,25.5l0,0L29.4,22.7L29.4,22.7z"/>
		</g>
            <g>
			<g>
				<path class="st3" d="M42.6,37.5L42.6,37.5L42.6,37.5l-2.9-2.6l0,0l-4.9-4.4l3-3.3l4.4,4.8L52,20.6l3.3,3L42.6,37.5z M40.4,34.8
					l2.1,2l12.1-13.2l-2.5-2.3l-9.8,11.5L37.9,28l-2.2,2.5L40.4,34.8L40.4,34.8z"/>
			</g>
		</g>
            <g>
			<g>
				<path class="st3" d="M62,22.5c-1.4-2.7-3.4-5-5.6-6.6c-2.2-1.5-4.9-2.9-7.6-3.5c-0.7,0-1.4-0.2-2-0.2c-0.2,0-0.7,0-0.9,0h-0.7
					c-0.2,0-0.2,0-0.7,0h-4.1h-8.3L0,12.6l32.3,0.7l8,0.2h4.1c0.2,0,0.2,0,0.7,0h0.2c0.2,0,0.7,0,0.9,0c0.7,0,1.4,0.2,2,0.2
					c2.3,0.7,4.8,2.1,6.6,3.6c1.8,1.6,3.4,3.6,4.8,5.9c0.9,2.3,1.6,4.8,1.4,7.3c0,2.3-0.7,5-2,7c-2.3,4.3-6.6,7.7-11.2,8.5
					c-2.3,0.2-4.8,0.2-7-0.2c-2.3-0.7-4.3-1.6-6.3-3.4c-1.6-1.6-3.4-3.4-4.3-5.6c-0.2-0.7-0.7-1.6-0.9-2.9c0-0.2,0-0.7,0-0.9
					s0-0.7,0-0.9s0-0.7,0-0.9V31v-0.4v-0.3c0,0,0,0,0-0.2c0,0,0,0,0-0.2h-5.9v0.2l0,0l0,0l0,0v0.2V31c0,0.2,0,0.7,0,1.4
					c0,0.2,0,0.7,0.2,0.9c0,0.2,0,0.7,0.2,0.9c0.2,1.6,0.9,2.9,1.6,4.3c1.4,2.7,3.4,5.2,5.9,7c2.3,2.1,5.2,3.4,8.3,4.1
					c2.9,0.7,5.9,0.7,8.9,0C54.4,48.2,59.3,44,62,38.8c1.4-2.7,2-5.6,2-8.5C64,27.7,63.4,24.7,62,22.5z"/>
			</g>
		</g>
            <g>
			<path class="st3" d="M29.6,17.6L10.1,19l19.5,1.4l0,0V17.6L29.6,17.6z"/>
		</g>
	</g>
</g>
    <g>
	<path class="st3" d="M196.4,517.6c0,32.2-26.8,59.1-59.8,59.1c-32.2,0-59.8-27.6-59.1-59.8c0.8-33,26.8-59.8,59.8-59.8
		C169.5,457.8,196.4,485.4,196.4,517.6z M166.4,486.9c-13.8,14.6-27.6,28.4-43,43.7c-5.4-6.9-10.7-13-16.1-19.2
		c-4.6,4.6-7.7,8.4-11.5,12.3c10,9.2,19.9,19.2,29.1,28.4c17.6-17.6,35.3-35.3,52.9-53.7C174.9,495.3,171,491.5,166.4,486.9z"/>
        <path class="st1" d="M166.4,486.9c4.6,4.6,8.4,8.4,11.5,11.5c-18.4,18.4-36.1,36.1-52.9,53.7c-9.2-9.2-19.2-19.2-28.4-28.4
		c3.1-3.8,6.9-6.9,11.5-12.3c5.4,6.1,10.7,12.3,16.1,19.2C138.8,515.3,152.6,501.5,166.4,486.9z"/>
</g>
    <path d="M329,363.2H172.1c-14.3,0-26,11.7-26,26v5.9V429h9.8h78.8H346v61.9c0,9.1-7.2,16.3-16.3,16.3h-95.1v9.8H329
	c14.3,0,26-11.7,26-26v-61.9v-33.9v-5.9C355.1,374.9,343.3,363.2,329,363.2z M345.3,419.2H155.2v-14.3h190.1V419.2L345.3,419.2z
	 M345.3,395.1H155.2v-5.9c0-9.1,7.2-16.3,16.3-16.3H329c9.1,0,16.3,7.2,16.3,16.3V395.1L345.3,395.1z"/>
    <g>
	<path d="M310.1,499.9c-4.6,0-8.5-1.3-11.7-3.9c-3.3,2.6-7.8,3.9-11.7,3.9c-11.1,0-20.2-9.1-20.2-20.2s9.1-20.2,20.2-20.2
		c4.6,0,8.5,1.3,11.7,3.9c3.3-2.6,7.8-3.9,11.7-3.9c11.1,0,20.2,9.1,20.2,20.2C331,490.8,321.8,499.9,310.1,499.9z M298.4,483
		l3.3,3.9c2,2.6,5.2,3.9,8.5,3.9c6.5,0,11.7-5.2,11.7-11.7s-5.2-11.7-11.7-11.7c-3.3,0-6.5,1.3-8.5,3.9l-3.3,3.9l-3.3-3.9
		c-2-2.6-5.2-3.9-8.5-3.9c-6.5,0-11.7,5.2-11.7,11.7s5.2,11.7,11.7,11.7c3.3,0,6.5-1.3,8.5-3.9L298.4,483z"/>
</g>
    <g>
	<path d="M293.8,483c-0.7,0.7-1.3,0.7-2,1.3s-1.3,0.7-2,1.3c-0.7,0.7-1.3,0.7-2,1.3s-1.3,0.7-2,1.3l0,0
		C288.6,485.6,291.2,484.3,293.8,483L293.8,483z"/>
</g>
    <g>
	<path d="M278.9,476.5c0.7-0.7,1.3-0.7,2-1.3c0.7-0.7,1.3-0.7,2-1.3s1.3-0.7,2-1.3c0.7-0.7,1.3-0.7,2-1.3l0,0
		C283.4,473.9,281.5,475.2,278.9,476.5L278.9,476.5z"/>
</g>
    <g>
	<g>
		<path d="M277.6,484.9c2.6-2,5.9-3.9,8.5-5.2c2.6-2,5.9-3.3,9.1-5.2c-2.6,2-5.9,3.9-8.5,5.2C283.4,481.7,280.2,483,277.6,484.9z"/>
	</g>
        <g>
		<path d="M293.2,478.4c-0.7,0.7-2,1.3-2.6,2c-0.7,0.7-2,1.3-2.6,2c-1.3,0.7-2,1.3-3.3,2s-2,1.3-3.3,1.3l0,0
			C285.4,483,289.3,481,293.2,478.4L293.2,478.4z"/>
	</g>
        <g>
		<path d="M278.9,480.4c0.7-0.7,2-1.3,2.6-2c0.7-0.7,2-1.3,2.6-2c1.3-0.7,2-1.3,3.3-2s2-1.3,3.3-1.3l0,0
			C286.7,475.8,282.8,478.4,278.9,480.4L278.9,480.4z"/>
	</g>
</g>
    <g>
	<path d="M317.9,483c-0.7,0.7-1.3,0.7-2,1.3c-0.7,0.7-1.3,0.7-2,1.3c-0.7,0.7-1.3,0.7-2,1.3s-1.3,0.7-2,1.3l0,0
		C312.7,485.6,315.3,484.3,317.9,483L317.9,483z"/>
</g>
    <g>
	<path d="M303,476.5c0.7-0.7,1.3-0.7,2-1.3c0.7-0.7,1.3-0.7,2-1.3s1.3-0.7,2-1.3c0.7-0.7,1.3-0.7,2-1.3l0,0
		C307.5,473.9,304.9,475.2,303,476.5L303,476.5z"/>
</g>
    <g>
	<g>
		<path d="M301,484.9c2.6-2,5.9-3.9,8.5-5.2c2.6-2,5.9-3.3,9.1-5.2c-2.6,2-5.9,3.9-8.5,5.2C307.5,481.7,304.3,483,301,484.9z"/>
	</g>
        <g>
		<path d="M317.3,478.4c-0.7,0.7-2,1.3-2.6,2c-0.7,0.7-2,1.3-2.6,2c-1.3,0.7-2,1.3-3.3,2s-2,1.3-3.3,1.3l0,0
			C309.5,483,313.4,481,317.3,478.4L317.3,478.4z"/>
	</g>
        <g>
		<path d="M302.3,480.4c0.7-0.7,2-1.3,2.6-2c0.7-0.7,2-1.3,2.6-2c1.3-0.7,2-1.3,3.3-2s2-1.3,3.3-1.3l0,0
			C310.1,475.8,306.9,478.4,302.3,480.4L302.3,480.4z"/>
	</g>
</g>
    <g>
	<g>
		<path class="st3" d="M-9.8,507.5c-9.5,0-17.3,7.7-17.3,17.3s7.7,17.3,17.3,17.3s17.3-7.7,17.3-17.3S-0.3,507.5-9.8,507.5z
			 M5.3,524.8c0,8.3-6.8,15.1-15.1,15.1s-15.1-6.8-15.1-15.1s6.8-15.2,15.1-15.2S5.3,516.5,5.3,524.8z"/>
	</g>
</g>
    <g>
	<g>
		<g>
			<path class="st3" d="M76.9,592.4c-0.7,0.5-1.6,1.1-2.3,1.6s-1.6,1-2.4,1.5c-0.8,0.4-1.6,1-2.4,1.4s-1.7,1-2.4,1.4l0,0
				C70.5,596.2,73.8,594.3,76.9,592.4L76.9,592.4z"/>
		</g>
	</g>
        <g>
		<g>
			<path class="st3" d="M57.9,584.8c0.7-0.5,1.5-1,2.2-1.5c0.7-0.4,1.5-1,2.2-1.4s1.5-0.8,2.2-1.3c0.7-0.4,1.5-0.8,2.3-1.3l0,0
				C64,581.2,61,583,57.9,584.8L57.9,584.8z"/>
		</g>
	</g>
        <g>
		<g>
			<path class="st3" d="M67,570.9c-9.5,0-17.3,7.7-17.3,17.3s7.7,17.3,17.3,17.3s17.3-7.7,17.3-17.3S76.5,570.9,67,570.9z
				 M82.1,588.2c0,8.3-6.8,15.1-15.1,15.1s-15.1-6.8-15.1-15.1S58.7,573,67,573C75.4,573,82.1,579.9,82.1,588.2z"/>
		</g>
	</g>
        <g>
		<g>
			<g>
				<path class="st3" d="M56,594.8c3.5-2.4,7.2-4.6,10.8-6.9c3.7-2.1,7.4-4.3,11.2-6.3c-3.5,2.4-7.2,4.6-10.8,6.9
					C63.5,590.6,59.8,592.9,56,594.8z"/>
			</g>
		</g>
            <g>
			<g>
				<path class="st3" d="M76.3,587c-1.2,1-2.2,1.8-3.5,2.5c-1.2,0.8-2.4,1.6-3.6,2.3c-1.3,0.7-2.4,1.5-3.7,2.1
					c-1.3,0.6-2.5,1.3-3.9,1.8l0,0C66.5,592.7,71.4,589.9,76.3,587L76.3,587z"/>
			</g>
		</g>
            <g>
			<g>
				<path class="st3" d="M57.7,589.4c1.2-1,2.2-1.8,3.5-2.5c1.2-0.8,2.4-1.6,3.6-2.3c1.3-0.7,2.4-1.5,3.7-2.1
					c1.3-0.6,2.5-1.3,3.9-1.8v0.1C67.6,583.6,62.7,586.5,57.7,589.4L57.7,589.4z"/>
			</g>
		</g>
	</g>
</g>
    <polygon class="st2" points="-129.7,534.5 -140.3,524.8 -176.8,567.1 -193,549.4 -202.8,560 -184.8,576.5 -184.8,576.5
	-175.6,584.8 -175.6,584.8 -175.6,584.8 -168.1,576.6 -168.1,576.6 "/>
    <g>
	<g>
		<path class="st1" d="M-282.2,51.3h-38.7V51h38.7c6.3,0,11.4-5.1,11.4-11.4V-7.2c0-6.3-5.1-11.4-11.4-11.4h-72
			c-6.2,0-11.3,5.1-11.3,11.4V5.6h-0.4V-7.2c0-6.5,5.3-11.7,11.7-11.7h72c6.5,0,11.7,5.3,11.7,11.7v46.8
			C-270.5,46-275.8,51.3-282.2,51.3z"/>
        <path class="st1" d="M-282.2,51.5h-39v-0.8h39c6.1,0,11.1-5,11.1-11.1V-7.2c0-6.1-5-11.1-11.1-11.1h-72c-6.1,0-11.1,5-11.1,11.1
			V5.9h-0.8V-7.2c0-6.6,5.4-12,12-12h71.9c6.6,0,12,5.4,12,12v46.8C-270.3,46.1-275.6,51.5-282.2,51.5z"/>
	</g>
</g>
    <g>
	<rect x="-365.7" y="-8.6" class="st1" width="95" height="0.3"/>
</g>
    <g>
	<rect x="-365.7" y="-4" class="st1" width="95" height="0.3"/>
</g>
    <g>
	<path class="st1" d="M-285.6,46.5c-2.9,0-5.7-1.4-7.5-3.7c-1.8,2.3-4.5,3.7-7.5,3.7c-5.2,0-9.3-4.2-9.3-9.3c0-5.2,4.2-9.3,9.3-9.3
		c2.9,0,5.7,1.4,7.5,3.7c1.8-2.3,4.5-3.7,7.5-3.7c5.2,0,9.3,4.2,9.3,9.3S-280.4,46.5-285.6,46.5z M-293.1,42.2l0.1,0.2
		c1.7,2.4,4.4,3.8,7.3,3.8c5,0,9-4,9-9s-4-9-9-9c-2.9,0-5.6,1.4-7.3,3.8l-0.1,0.2l-0.1-0.3c-1.7-2.4-4.4-3.8-7.3-3.8c-5,0-9,4-9,9
		s4,9,9,9c2.9,0,5.6-1.4,7.3-3.8L-293.1,42.2z"/>
</g>
    <g>
	<g>
		<g>
			<g>
				<path class="st3" d="M-279.8,39.4c-0.4,0.3-1,0.6-1.4,1c-0.4,0.3-1,0.6-1.5,0.9c-0.5,0.3-1,0.6-1.5,0.8c-0.5,0.3-1,0.6-1.5,0.8
					l0,0C-283.7,41.7-281.7,40.5-279.8,39.4L-279.8,39.4z"/>
			</g>
		</g>
	</g>
        <g>
		<g>
			<g>
				<path class="st3" d="M-291.3,34.8c0.4-0.3,0.9-0.6,1.3-0.9c0.4-0.3,0.9-0.6,1.3-0.8c0.4-0.3,0.9-0.5,1.3-0.8
					c0.4-0.3,0.9-0.5,1.4-0.8l0,0C-287.6,32.7-289.4,33.7-291.3,34.8L-291.3,34.8z"/>
			</g>
		</g>
	</g>
        <g>
		<g>
			<g>
				<g>
					<path class="st3" d="M-292.4,40.8c2.1-1.5,4.3-2.8,6.5-4.1s4.5-2.6,6.7-3.8c-2.1,1.5-4.3,2.8-6.5,4.1S-290.1,39.7-292.4,40.8z"
                    />
				</g>
			</g>
		</g>
            <g>
			<g>
				<g>
					<path class="st3" d="M-280.2,36.2c-0.7,0.6-1.3,1.1-2.1,1.5c-0.7,0.5-1.5,1-2.2,1.4c-0.8,0.4-1.5,0.9-2.2,1.3
						c-0.8,0.4-1.5,0.8-2.4,1.1v-0.1C-286.1,39.6-283.2,37.9-280.2,36.2L-280.2,36.2z"/>
				</g>
			</g>
		</g>
            <g>
			<g>
				<g>
					<path class="st3" d="M-291.4,37.6c0.7-0.6,1.3-1.1,2.1-1.5c0.7-0.5,1.5-1,2.2-1.4c0.8-0.4,1.5-0.9,2.2-1.3
						c0.7-0.4,1.5-0.8,2.4-1.1v0.1C-285.5,34.1-288.4,35.8-291.4,37.6L-291.4,37.6z"/>
				</g>
			</g>
		</g>
	</g>
</g>
    <g>
	<path class="st1" d="M-348.7,59.5c-14.6,0-26.5-11.9-26.5-26.5s11.9-26.5,26.5-26.5s26.5,11.9,26.5,26.5S-334.1,59.5-348.7,59.5z
		 M-348.7,6.9c-14.4,0-26,11.7-26,26s11.7,26,26,26c14.4,0,26-11.7,26-26S-334.3,6.9-348.7,6.9z"/>
</g>
    <g>
	<path class="st3" d="M-353.5,47.3L-353.5,47.3L-353.5,47.3l-4.8-4.4l0,0l-8.2-7.5l5.1-5.5l7.4,8.1l16.5-19.2l5.5,5L-353.5,47.3z
		 M-357.1,42.8l3.5,3.2l20.3-22.2l-4.2-3.8L-354,39.3l-7.4-8.1l-3.8,4.1L-357.1,42.8L-357.1,42.8z"/>
</g>
    <rect x="-623.4" y="-512.7" class="st4" width="661.3" height="249.3"/>
    <g>
	<g>
		<g>
			<path class="st1" d="M-11.1-198.2h-38.7v-0.3h38.7c6.3,0,11.4-5.1,11.4-11.4v-46.8c0-6.3-5.1-11.4-11.4-11.4H-83
				c-6.3,0-11.4,5.1-11.4,11.4v12.8h-0.3v-12.8c0-6.5,5.3-11.7,11.7-11.7h71.9c6.5,0,11.7,5.3,11.7,11.7v46.8
				C0.6-203.4-4.6-198.2-11.1-198.2z"/>
            <path class="st1" d="M-11.1-197.9H-50v-0.8h38.9c6.1,0,11.1-5,11.1-11.1v-46.8c0-6.1-5-11.1-11.1-11.1H-83
				c-6.1,0-11.1,5-11.1,11.1v13.1H-95v-13.1c0-6.6,5.4-12,12-12h71.9c6.6,0,12,5.4,12,12v46.8C0.9-203.3-4.5-197.9-11.1-197.9z"/>
		</g>
	</g>
        <g>
		<rect x="-94.6" y="-258" class="st1" width="95" height="0.3"/>
	</g>
        <g>
		<rect x="-94.6" y="-253.5" class="st1" width="95" height="0.3"/>
	</g>
        <g>
		<path class="st1" d="M-14.5-202.9c-2.9,0-5.7-1.4-7.5-3.7c-1.8,2.3-4.5,3.7-7.5,3.7c-5.2,0-9.3-4.2-9.3-9.3c0-5.2,4.2-9.3,9.3-9.3
			c2.9,0,5.7,1.4,7.5,3.7c1.8-2.3,4.5-3.7,7.5-3.7c5.2,0,9.3,4.2,9.3,9.3C-5.1-207.1-9.3-202.9-14.5-202.9z M-21.9-207.2l0.1,0.2
			c1.7,2.4,4.4,3.8,7.3,3.8c5,0,9-4,9-9s-4-9-9-9c-2.9,0-5.6,1.4-7.3,3.8l-0.1,0.2l-0.1-0.2c-1.7-2.4-4.4-3.8-7.3-3.8c-5,0-9,4-9,9
			s4,9,9,9c2.9,0,5.6-1.4,7.3-3.8L-21.9-207.2z"/>
	</g>
        <g>
		<g>
			<g>
				<g>
					<path class="st3" d="M-8.7-210c-0.4,0.3-1,0.6-1.4,1c-0.4,0.3-1,0.6-1.5,0.9s-1,0.6-1.5,0.8c-0.5,0.3-1,0.6-1.5,0.8l0,0
						C-12.5-207.7-10.6-208.9-8.7-210L-8.7-210z"/>
				</g>
			</g>
		</g>
            <g>
			<g>
				<g>
					<path class="st3" d="M-20.1-214.6c0.4-0.3,0.9-0.6,1.3-0.9c0.4-0.3,0.9-0.6,1.3-0.8c0.4-0.3,0.9-0.5,1.3-0.8s0.9-0.5,1.4-0.8
						l0,0C-16.5-216.8-18.3-215.7-20.1-214.6L-20.1-214.6z"/>
				</g>
			</g>
		</g>
            <g>
			<g>
				<g>
					<g>
						<path class="st3" d="M-21.3-208.6c2.1-1.5,4.3-2.8,6.5-4.1s4.5-2.6,6.7-3.8c-2.1,1.5-4.3,2.8-6.5,4.1
							C-16.7-211.1-19-209.8-21.3-208.6z"/>
					</g>
				</g>
			</g>
                <g>
				<g>
					<g>
						<path class="st3" d="M-9-213.3c-0.7,0.6-1.3,1.1-2.1,1.5c-0.7,0.5-1.5,1-2.2,1.4c-0.8,0.4-1.5,0.9-2.2,1.3
							c-0.8,0.4-1.5,0.8-2.4,1.1v-0.1C-15-209.8-12-211.6-9-213.3L-9-213.3z"/>
					</g>
				</g>
			</g>
                <g>
				<g>
					<g>
						<path class="st3" d="M-20.2-211.9c0.7-0.6,1.3-1.1,2.1-1.5c0.7-0.5,1.5-1,2.2-1.4c0.8-0.4,1.5-0.9,2.2-1.3
							c0.8-0.4,1.5-0.8,2.4-1.1v0.1C-14.3-215.4-17.3-213.6-20.2-211.9L-20.2-211.9z"/>
					</g>
				</g>
			</g>
		</g>
	</g>
        <g>
		<path class="st1" d="M-77.6-189.9c-14.6,0-26.5-11.9-26.5-26.5s11.9-26.5,26.5-26.5s26.5,11.9,26.5,26.5S-62.9-189.9-77.6-189.9z
			 M-77.6-242.5c-14.4,0-26,11.7-26,26s11.7,26,26,26c14.4,0,26-11.7,26-26S-63.2-242.5-77.6-242.5z"/>
	</g>
        <g>
		<path class="st3" d="M-82.3-202.2L-82.3-202.2L-82.3-202.2l-4.8-4.4l0,0l-8.2-7.5l5.1-5.5l7.4,8.1l16.5-19.2l5.5,5L-82.3-202.2z
			 M-86-206.7l3.5,3.2l20.3-22.2l-4.2-3.8L-83-210.2l-7.4-8.1l-3.8,4.1L-86-206.7L-86-206.7z"/>
	</g>
</g>
    <g>
	<g>
		<g>
			<path d="M633.1-110.6c-21.9,0-39.6-17.8-39.6-39.6c0-21.9,17.8-39.6,39.6-39.6s39.6,17.8,39.6,39.6
				C672.8-128.4,655-110.6,633.1-110.6z M633.1-189.2c-21.4,0-38.9,17.5-38.9,38.9s17.5,38.9,38.9,38.9s38.9-17.4,38.9-38.9
				C672-171.7,654.6-189.2,633.1-189.2z"/>
		</g>
	</g>
        <g>
		<g>
			<g>
				<path class="st3" d="M633.1-130.6c-2.2,0-4-1.8-4-4v-21.5c0-2.2,1.8-4,4-4s4,1.8,4,4v21.5C637.1-132.3,635.3-130.6,633.1-130.6z
					 M633.1-158c-1.1,0-2,0.9-2,2v21.5c0,1.1,0.9,2,2,2s2-0.9,2-2V-156C635.1-157.1,634.2-158,633.1-158z"/>
			</g>
		</g>
            <g>
			<g>
				<path class="st3" d="M633.1-162.1c-2.2,0-4-1.8-4-4s1.8-4,4-4s4,1.8,4,4C637.1-163.8,635.3-162.1,633.1-162.1z M633.1-168
					c-1.1,0-2,0.9-2,2s0.9,2,2,2s2-0.9,2-2S634.2-168,633.1-168z"/>
			</g>
		</g>
	</g>
        <g>
		<path d="M633.1-123.9c-14.6,0-26.4-11.8-26.4-26.4s11.8-26.4,26.4-26.4c14.6,0,26.4,11.8,26.4,26.4c0,2.9-0.8,5.6-1.6,8.2
			c-0.3,0.9-0.5,1.8-0.8,2.7c-1,3.9,0.6,13.8,0.6,13.9v0.3h-0.3c-0.1,0-6.6-0.5-9.3-0.1C644.8-124.8,636.5-123.9,633.1-123.9z
			 M633.1-176.2c-14.3,0-25.9,11.6-25.9,25.9s11.6,25.9,25.9,25.9c3.3,0,11.6-0.9,15-1.5c2.5-0.4,7.8,0,9.1,0.1
			c-0.3-1.8-1.5-10.2-0.5-13.8c0.2-0.9,0.5-1.8,0.8-2.7c0.8-2.6,1.5-5.2,1.5-8C659-164.6,647.4-176.2,633.1-176.2z"/>
	</g>
</g>
    <g>
	<g>
		<path class="st3" d="M-154.5-212.8c-1.1-4.7-2.1-9.4-3.1-14.1s-2.1-9.4-3.1-14.1l-0.1-0.6h-0.6c-1.8,0.1-3.5,0.2-5.2,0.2l-0.4-3.3
			c-0.2-1.8-0.5-3.9-1.6-5.7c-1.2-1.8-3.2-3.1-5.4-3.3c-2.7-0.2-5.4,1.1-7.3,3.5c-1.5,1.9-2.4,4.6-2.5,7.6c0,0.5,0,1,0,1.5
			c-1.4,0.1-2.9,0.1-4.4,0.2h-0.6l-0.2,0.6c-1.3,9.6-3.5,19.2-6.5,28.4l-0.3,1h1c6.6-0.2,13.2-0.3,19.8-0.5s13.2-0.3,19.8-0.5h0.9
			L-154.5-212.8z M-182.4-242.5c0.1-2.7,0.9-5,2.2-6.8c1.5-1.9,3.8-3.1,6-2.9c1.7,0.1,3.4,1.2,4.3,2.6c0.9,1.5,1.2,3.4,1.4,5.1
			l0.4,3.2c-2.3,0-4.5,0-6.7,0c-2.5,0-5,0-7.6,0.1C-182.5-241.6-182.5-242.1-182.4-242.5z M-175-212.9c-6.3,0.2-12.5,0.3-18.7,0.5
			c2.8-8.8,4.9-17.9,6.1-27.1c1.3-0.1,2.5-0.1,3.7-0.1c0.1,1.6,0.3,3.2,0.6,4.8c0.1,0.4,0.4,0.6,0.7,0.6h0.1
			c0.4-0.1,0.7-0.4,0.6-0.8c-0.2-1.5-0.4-3.1-0.5-4.6c2.6-0.1,5.1-0.1,7.5-0.1c2.2,0,4.5,0,6.8,0l0.5,4.4c0,0.4,0.4,0.7,0.8,0.6
			c0.4,0,0.7-0.4,0.6-0.8l-0.5-4.3c1.5,0,3-0.1,4.5-0.2c1,4.5,2,9,3,13.5c1,4.4,1.9,8.8,2.9,13.2C-162.4-213.2-168.7-213-175-212.9z
			"/>
	</g>
        <g class="st5">
		<g>
			<g>
				<path class="st6" d="M-183.9-218.3h2.8v0.5h-3.4v-8.2h0.5L-183.9-218.3z"/>
			</g>
		</g>
            <g>
			<g>
				<path class="st6" d="M-167.4-225.4h-2.8v3.6h2.4v0.5h-2.4v3.6h-0.5v-8.2h3.4L-167.4-225.4z"/>
			</g>
		</g>
            <g>
			<g>
				<path class="st6" d="M-162.6-226v0.5h-1.9v7.7h-0.5v-7.7h-1.9v-0.5H-162.6z"/>
			</g>
		</g>
            <g>
			<g>
				<g>
					<path class="st3" d="M-176.7-226.2c-2.3,0-4.2,1.9-4.2,4.2s1.9,4.2,4.2,4.2s4.2-1.9,4.2-4.2S-174.4-226.2-176.7-226.2z
						 M-173-222c0,2-1.7,3.7-3.7,3.7s-3.7-1.7-3.7-3.7s1.7-3.7,3.7-3.7S-173-224-173-222z"/>
				</g>
			</g>
                <g>
				<g>
					<g>
						<path class="st3" d="M-174.3-221c-0.2,0.1-0.4,0.3-0.6,0.4s-0.4,0.2-0.6,0.4c-0.2,0.1-0.4,0.2-0.6,0.3
							c-0.2,0.1-0.4,0.2-0.6,0.3l0,0C-175.8-220-175.1-220.5-174.3-221L-174.3-221z"/>
					</g>
				</g>
                    <g>
					<g>
						<path class="st3" d="M-178.9-222.8c0.2-0.1,0.4-0.2,0.5-0.3c0.2-0.1,0.4-0.2,0.5-0.3c0.2-0.1,0.4-0.2,0.5-0.3
							c0.2-0.1,0.4-0.2,0.6-0.3l0,0C-177.4-223.7-178.2-223.3-178.9-222.8L-178.9-222.8z"/>
					</g>
				</g>
                    <g>
					<g>
						<g>
							<path class="st3" d="M-179.4-220.4c0.9-0.6,1.7-1.1,2.6-1.7c0.9-0.5,1.8-1.1,2.7-1.5c-0.9,0.6-1.7,1.1-2.6,1.7
								C-177.5-221.4-178.4-220.9-179.4-220.4z"/>
						</g>
					</g>
                        <g>
						<g>
							<path class="st3" d="M-174.4-222.3c-0.3,0.2-0.5,0.4-0.8,0.6s-0.6,0.4-0.9,0.6c-0.3,0.2-0.6,0.3-0.9,0.5
								c-0.3,0.2-0.6,0.3-0.9,0.4l0,0C-176.8-220.9-175.6-221.6-174.4-222.3L-174.4-222.3z"/>
						</g>
					</g>
                        <g>
						<g>
							<path class="st3" d="M-178.9-221.7c0.3-0.2,0.5-0.4,0.8-0.6c0.3-0.2,0.6-0.4,0.9-0.6s0.6-0.3,0.9-0.5
								c0.3-0.2,0.6-0.3,0.9-0.4l0,0C-176.6-223.1-177.7-222.4-178.9-221.7L-178.9-221.7z"/>
						</g>
					</g>
				</g>
			</g>
		</g>
	</g>
        <g>
		<path class="st1" d="M-126.2-190.9h-98c-1.4,0-2.5-1.1-2.5-2.5v-73.5c0-1.4,1.1-2.5,2.5-2.5h98c1.4,0,2.5,1.1,2.5,2.5v73.5
			C-123.7-192-124.9-190.9-126.2-190.9z M-224.2-268.6c-1,0-1.8,0.8-1.8,1.8v73.5c0,1,0.8,1.8,1.8,1.8h98c1,0,1.8-0.8,1.8-1.8v-73.5
			c0-1-0.8-1.8-1.8-1.8H-224.2z"/>
	</g>
        <g>
		<path class="st1" d="M-130.5-202.2h-89.2v-60.1h89.2V-202.2z M-219.1-202.7h88.1v-59.1h-88.2L-219.1-202.7L-219.1-202.7z"/>
	</g>
        <g>
		<rect x="-219.4" y="-199.3" class="st1" width="88.7" height="0.8"/>
	</g>
</g>
    <g>
	<rect x="-219.5" y="-196.9" width="0.2" height="3"/>
</g>
    <g>
	<rect x="-218.1" y="-196.9" width="0.2" height="3"/>
</g>
    <g>
	<rect x="-216.7" y="-196.9" width="0.2" height="3"/>
</g>
    <g>
	<rect x="-215.4" y="-196.9" width="0.2" height="3"/>
</g>
    <g>
	<rect x="-214" y="-196.9" width="0.2" height="3"/>
</g>
    <g>
	<g>
		<g>
			<path class="st3" d="M-174.7-195.1l-0.1,0.1l-0.1,0.1l-0.1,0.1l-0.1,0.1l0,0C-175-194.9-174.8-195-174.7-195.1L-174.7-195.1z"/>
		</g>
	</g>
        <g>
		<g>
			<path class="st3" d="M-175.7-195.5l0.1-0.1l0.1-0.1c0,0,0.1,0,0.1-0.1s0.1,0,0.1-0.1l0,0C-175.4-195.7-175.6-195.6-175.7-195.5
				L-175.7-195.5z"/>
		</g>
	</g>
        <g>
		<g>
			<path class="st3" d="M-175.2-196.3c-0.5,0-1,0.4-1,1s0.4,1,1,1s1-0.4,1-1S-174.7-196.3-175.2-196.3z M-174.4-195.3
				c0,0.5-0.4,0.9-0.9,0.9s-0.9-0.4-0.9-0.9s0.4-0.9,0.9-0.9S-174.4-195.8-174.4-195.3z"/>
		</g>
	</g>
        <g>
		<g>
			<g>
				<path class="st3" d="M-175.9-195c0.2-0.1,0.4-0.3,0.6-0.4c0.2-0.1,0.4-0.2,0.6-0.4c-0.2,0.1-0.4,0.3-0.6,0.4
					C-175.4-195.2-175.6-195.1-175.9-195z"/>
			</g>
		</g>
            <g>
			<g>
				<path class="st3" d="M-174.7-195.4c-0.1,0.1-0.1,0.1-0.2,0.1c-0.1,0-0.1,0.1-0.2,0.1c-0.1,0-0.1,0.1-0.2,0.1
					c-0.1,0-0.1,0.1-0.2,0.1l0,0C-175.3-195.1-175-195.2-174.7-195.4L-174.7-195.4z"/>
			</g>
		</g>
            <g>
			<g>
				<path class="st3" d="M-175.8-195.3c0.1-0.1,0.1-0.1,0.2-0.1c0.1,0,0.1-0.1,0.2-0.1s0.1-0.1,0.2-0.1c0.1,0,0.1-0.1,0.2-0.1l0,0
					C-175.2-195.6-175.5-195.4-175.8-195.3L-175.8-195.3z"/>
			</g>
		</g>
	</g>
</g>
    <g>
	<g>
		<g>
			<g>
				<g>
					<path class="st3" d="M338.6-213.5c-2.2,0-4-1.8-4-4V-239c0-2.2,1.8-4,4-4s4,1.8,4,4v21.5C342.5-215.3,340.8-213.5,338.6-213.5z
						 M338.6-241c-1.1,0-2,0.9-2,2v21.5c0,1.1,0.9,2,2,2s2-0.9,2-2V-239C340.5-240.1,339.7-241,338.6-241z"/>
				</g>
			</g>
		</g>
        <g>
			<g>
				<g>
					<path class="st3" d="M338.6-245c-2.2,0-4-1.8-4-4s1.8-4,4-4s4,1.8,4,4C342.5-246.8,340.8-245,338.6-245z M338.6-251
						c-1.1,0-2,0.9-2,2s0.9,2,2,2s2-0.9,2-2S339.7-251,338.6-251z"/>
				</g>
			</g>
		</g>
	</g>
        <g>
		<g>
			<path class="st1" d="M338.6-206.9c-14.6,0-26.4-11.8-26.4-26.4s11.8-26.4,26.4-26.4s26.4,11.8,26.4,26.4c0,2.9-0.8,5.6-1.6,8.2
				c-0.3,0.9-0.5,1.8-0.8,2.7c-1,3.9,0.6,13.8,0.6,13.9v0.3h-0.3c-0.1,0-6.6-0.5-9.3-0.1C350.2-207.8,341.9-206.9,338.6-206.9z
				 M338.6-259.2c-14.3,0-25.9,11.6-25.9,25.9s11.6,25.9,25.9,25.9c3.3,0,11.6-0.9,15-1.5c2.5-0.4,7.8,0,9.1,0.1
				c-0.3-1.8-1.5-10.2-0.5-13.8c0.2-0.9,0.5-1.8,0.8-2.7c0.8-2.6,1.5-5.2,1.5-8C364.5-247.5,352.8-259.2,338.6-259.2z"/>
		</g>
	</g>
        <g>
		<path class="st1" d="M365.9-193.5h-54.6c-6.9,0-12.5-5.6-12.5-12.5v-54.6c0-6.9,5.6-12.5,12.5-12.5h54.6c6.9,0,12.5,5.6,12.5,12.5
			v54.6C378.4-199.1,372.8-193.5,365.9-193.5z M311.3-272.1c-6.3,0-11.5,5.2-11.5,11.5v54.6c0,6.3,5.2,11.5,11.5,11.5h54.6
			c6.3,0,11.5-5.2,11.5-11.5v-54.6c0-6.3-5.2-11.5-11.5-11.5H311.3z"/>
	</g>
</g>
    <g>
	<g>
		<path class="st3" d="M43.6-254.5l-26,1.8l26,1.8l0,0V-254.5L43.6-254.5z"/>
	</g>
        <g>
		<path class="st3" d="M43.3-247.7L26-245.9l16.7,1.8l0,0L43.3-247.7L43.3-247.7z"/>
	</g>
        <g>
		<g>
			<path class="st3" d="M86.6-248c-1.8-3.6-4.5-6.6-7.5-8.7c-3-2.1-6.6-3.9-10.2-4.8c-0.9,0-1.8-0.3-2.7-0.3c-0.3,0-0.9,0-1.2,0
				h-0.9c-0.3,0-0.3,0-0.9,0h-5.4h-11l-42.7,0.6l43,0.9l10.7,0.3h5.4c0.3,0,0.3,0,0.9,0h0.3c0.3,0,0.9,0,1.2,0
				c0.9,0,1.8,0.3,2.7,0.3c3,0.9,6.3,2.7,8.7,4.8c2.4,2.1,4.5,4.8,6.3,7.8c1.2,3,2.1,6.3,1.8,9.6c0,3-0.9,6.6-2.7,9.3
				c-3,5.7-8.7,10.2-14.9,11.3c-3,0.3-6.3,0.3-9.3-0.3c-3-0.9-5.7-2.1-8.4-4.5c-2.1-2.1-4.5-4.5-5.7-7.5c-0.3-0.9-0.9-2.1-1.2-3.9
				c0-0.3,0-0.9,0-1.2s0-0.9,0-1.2s0-0.9,0-1.2v-0.3v-0.6v-0.3c0,0,0,0,0-0.3c0,0,0,0,0-0.3h-7.8v0.3l0,0l0,0l0,0v0.3v0.9
				c0,0.3,0,0.9,0,1.8c0,0.3,0,0.9,0.3,1.2c0,0.3,0,0.9,0.3,1.2c0.3,2.1,1.2,3.9,2.1,5.7c1.8,3.6,4.5,6.9,7.8,9.3
				c3,2.7,6.9,4.5,11,5.4c3.9,0.9,7.8,0.9,11.9,0c7.8-1.8,14.3-7.5,17.9-14.3c1.8-3.6,2.7-7.5,2.7-11.3
				C89.2-241.1,88.3-245,86.6-248z"/>
		</g>
	</g>
        <g>
		<g>
			<path class="st1" d="M46.7-209.7c-5.2,0-10,5-10,10.3s4.8,10.3,10,10.3s10-5,10-10.3S52.3-209.7,46.7-209.7z M46.7-190.2
				c-4.8,0-8.8-4.1-8.8-9.1c0-0.1,0-0.2,0-0.3s0-0.1,0-0.2s0-0.2,0.1-0.3c0.4-4.6,4.2-8.3,8.8-8.3c5.2,0,8.8,3.7,8.8,9.1
				C55.5-194.4,51.5-190.2,46.7-190.2z"/>
		</g>
	</g>
        <g>
		<g>
			<path class="st1" d="M124-209.8c-5.2,0-10,5-10,10.3c0,5.4,4.8,10.3,10,10.3c5.2,0,10-5,10-10.3C134-204.9,129.6-209.8,124-209.8
				z M132.8-199.5c0,5-4,9.1-8.8,9.1c-4.8,0-8.8-4.1-8.8-9.1s4-9.1,8.8-9.1C129.2-208.6,132.8-204.9,132.8-199.5z"/>
		</g>
	</g>
        <g>
		<g>
			<g>
				<g>
					<path class="st1" d="M37.2-199h-15c-1.4,0-2.6-1.2-2.6-2.6c-0.1-9.7-0.2-57.7-0.2-59c0-3.5,2.9-6.4,6.5-6.4l62.3-0.5
						c0,0,0,0,0.1,0c1.6,0,3.1,0.6,4.3,1.8c1.2,1.1,1.8,2.7,1.8,4.3c0.2,29,0.3,50.3,0.3,61.6v0.5L55.8-199v-1l37.9-0.3
						c0-11.4-0.1-32.5-0.3-61.1c0-1.4-0.5-2.6-1.5-3.6s-2.2-1.5-3.6-1.5L26-266c-3,0-5.4,2.5-5.5,5.4c0,1.2,0.1,49.2,0.2,58.9
						c0,0.9,0.7,1.6,1.6,1.6h15L37.2-199L37.2-199z"/>
				</g>
			</g>
            <g>
				<path class="st1" d="M134-227.6l-8.5-17.9c-0.8-1.7-2.6-2.9-4.5-2.9H93.5v-1H121c2.3,0,4.4,1.3,5.4,3.4l8.5,17.9L134-227.6z"/>
			</g>
		</g>
            <g>
			<path class="st1" d="M149.4-199.1h-0.1c-4.5-0.2-9.5-0.4-15.6-0.4v-1c6.1,0,11.1,0.1,15.6,0.4c0.3,0,0.6-0.1,0.8-0.3
				s0.3-0.5,0.3-0.8l-0.5-17.4c0-0.4-0.2-0.7-0.6-0.9l-15.2-7.8l0.5-0.9l15.2,7.8c0.7,0.3,1.1,1,1.1,1.8l0.5,17.4
				c0,0.6-0.2,1.1-0.6,1.5C150.5-199.3,150-199.1,149.4-199.1z"/>
		</g>
            <g>
			<rect x="93.5" y="-200.4" class="st1" width="21.7" height="1"/>
		</g>
	</g>
        <g>
		<path class="st1" d="M121.3-227.9h-19.6c-1,0-1.8-0.8-1.8-1.9v-10.1c0-1,0.8-1.9,1.8-1.9h15.4c0.7,0,1.4,0.4,1.7,1.1l4.2,10.2
			c0.2,0.6,0.2,1.3-0.2,1.8C122.5-228.2,121.9-227.9,121.3-227.9z M101.8-241.3c-0.7,0-1.3,0.6-1.3,1.4v10.1c0,0.8,0.6,1.4,1.3,1.4
			h19.6c0.4,0,0.8-0.2,1.1-0.6c0.3-0.4,0.3-0.9,0.1-1.3l-4.2-10.2c-0.2-0.5-0.7-0.8-1.2-0.8L101.8-241.3L101.8-241.3z"/>
	</g>
        <g>
		<rect x="139.4" y="-208.3" class="st1" width="11.3" height="1"/>
	</g>
        <g>
		<rect x="100.2" y="-219.4" class="st1" width="4.2" height="1"/>
	</g>
        <g>
		<g>
			<path class="st3" d="M60.8-228L60.8-228L60.8-228l-3.8-3.4l0,0l-6.5-5.9l4-4.4l5.8,6.4l13-15.2l4.4,4L60.8-228z M57.9-231.6
				l2.8,2.6l16-17.5l-3.3-3l-13.1,15.2l-5.8-6.4l-3,3.3L57.9-231.6L57.9-231.6z"/>
		</g>
	</g>
        <g>
		<g>
			<g>
				<g>
					<g>
						<path class="st3" d="M52.7-197.2c-0.4,0.3-1,0.6-1.4,1c-0.4,0.3-1,0.6-1.5,0.9s-1,0.6-1.5,0.8c-0.5,0.3-1,0.6-1.5,0.8l0,0
							C48.8-194.9,50.8-196,52.7-197.2L52.7-197.2z"/>
					</g>
				</g>
			</g>
		</g>
            <g>
			<g>
				<g>
					<g>
						<path class="st3" d="M41.2-201.7c0.4-0.3,0.9-0.6,1.3-0.9c0.4-0.3,0.9-0.6,1.3-0.8c0.4-0.3,0.9-0.5,1.3-0.8
							c0.4-0.3,0.9-0.5,1.4-0.8l0,0C44.9-203.9,43.1-202.8,41.2-201.7L41.2-201.7z"/>
					</g>
				</g>
			</g>
		</g>
            <g>
			<g>
				<g>
					<g>
						<g>
							<path class="st3" d="M40.1-195.8c2.1-1.5,4.3-2.8,6.5-4.1s4.5-2.6,6.7-3.8c-2.1,1.5-4.3,2.8-6.5,4.1
								C44.6-198.2,42.4-196.9,40.1-195.8z"/>
						</g>
					</g>
				</g>
			</g>
                <g>
				<g>
					<g>
						<g>
							<path class="st3" d="M52.3-200.4c-0.7,0.6-1.3,1.1-2.1,1.5c-0.7,0.5-1.5,1-2.2,1.4c-0.8,0.4-1.5,0.9-2.2,1.3
								c-0.8,0.4-1.5,0.8-2.4,1.1v-0.1C46.4-197,49.3-198.7,52.3-200.4L52.3-200.4z"/>
						</g>
					</g>
				</g>
			</g>
                <g>
				<g>
					<g>
						<g>
							<path class="st3" d="M41.1-199c0.7-0.6,1.3-1.1,2.1-1.5c0.7-0.5,1.5-1,2.2-1.4c0.8-0.4,1.5-0.9,2.2-1.3
								c0.8-0.4,1.5-0.8,2.4-1.1v0.1C47-202.5,44.1-200.7,41.1-199L41.1-199z"/>
						</g>
					</g>
				</g>
			</g>
		</g>
	</g>
        <g>
		<g>
			<g>
				<g>
					<g>
						<path class="st3" d="M130-196.8c-0.4,0.3-1,0.6-1.4,1c-0.4,0.3-1,0.6-1.5,0.9s-1,0.6-1.5,0.8c-0.5,0.3-1,0.6-1.5,0.8l0,0
							C126.1-194.6,128.1-195.7,130-196.8L130-196.8z"/>
					</g>
				</g>
			</g>
		</g>
            <g>
			<g>
				<g>
					<g>
						<path class="st3" d="M118.5-201.4c0.4-0.3,0.9-0.6,1.3-0.9s0.9-0.6,1.3-0.8c0.4-0.3,0.9-0.5,1.3-0.8s0.9-0.5,1.4-0.8l0,0
							C122.2-203.6,120.4-202.5,118.5-201.4L118.5-201.4z"/>
					</g>
				</g>
			</g>
		</g>
            <g>
			<g>
				<g>
					<g>
						<g>
							<path class="st3" d="M117.4-195.4c2.1-1.5,4.3-2.8,6.5-4.1s4.5-2.6,6.7-3.8c-2.1,1.5-4.3,2.8-6.5,4.1
								S119.7-196.6,117.4-195.4z"/>
						</g>
					</g>
				</g>
			</g>
                <g>
				<g>
					<g>
						<g>
							<path class="st3" d="M129.6-200.1c-0.7,0.6-1.3,1.1-2.1,1.5c-0.7,0.5-1.5,1-2.2,1.4c-0.8,0.4-1.5,0.9-2.2,1.3
								c-0.8,0.4-1.5,0.8-2.4,1.1v-0.1C123.7-196.7,126.6-198.4,129.6-200.1L129.6-200.1z"/>
						</g>
					</g>
				</g>
			</g>
                <g>
				<g>
					<g>
						<g>
							<path class="st3" d="M118.4-198.7c0.7-0.6,1.3-1.1,2.1-1.5c0.7-0.5,1.5-1,2.2-1.4c0.8-0.4,1.5-0.9,2.2-1.3
								c0.8-0.4,1.5-0.8,2.4-1.1v0.1C124.3-202.2,121.4-200.4,118.4-198.7L118.4-198.7z"/>
						</g>
					</g>
				</g>
			</g>
		</g>
	</g>
</g>
    <g>
	<rect x="419.1" y="-597.9" class="st2" width="112" height="78.5"/>
        <rect x="428.6" y="-588.9" class="st7" width="92.9" height="60.5"/>
        <polyline class="st7" points="521.5,-546.5 497.5,-560.4 481.3,-550.2 461.8,-570.6 428.6,-544.9 	"/>
</g>
    <g>
	<g>
		<g>
			<path class="st3" d="M496.4-575.5c-0.3,0.2-0.6,0.4-0.8,0.6s-0.6,0.3-0.9,0.5s-0.6,0.3-0.9,0.5s-0.6,0.3-0.9,0.5l0,0
				C494.1-574.2,495.3-574.8,496.4-575.5L496.4-575.5z"/>
		</g>
	</g>
        <g>
		<g>
			<path class="st3" d="M489.6-578.3c0.3-0.2,0.5-0.3,0.8-0.5s0.5-0.3,0.8-0.5s0.5-0.3,0.8-0.5s0.5-0.3,0.8-0.5l0,0
				C491.8-579.5,490.7-578.9,489.6-578.3L489.6-578.3z"/>
		</g>
	</g>
        <g>
		<g>
			<path class="st3" d="M492.9-583.3c-3.4,0-6.2,2.8-6.2,6.2s2.8,6.2,6.2,6.2s6.2-2.8,6.2-6.2S496.3-583.3,492.9-583.3z M498.3-577
				c0,3-2.4,5.4-5.4,5.4s-5.4-2.4-5.4-5.4s2.4-5.5,5.4-5.5S498.3-580,498.3-577z"/>
		</g>
	</g>
        <g>
		<g>
			<g>
				<path class="st3" d="M488.9-574.7c1.3-0.9,2.6-1.7,3.9-2.5s2.7-1.6,4-2.3c-1.3,0.9-2.6,1.7-3.9,2.5S490.3-575.4,488.9-574.7z"/>
			</g>
		</g>
            <g>
			<g>
				<path class="st3" d="M496.2-577.5c-0.4,0.3-0.8,0.6-1.3,0.9c-0.4,0.3-0.9,0.6-1.3,0.8c-0.5,0.3-0.9,0.5-1.3,0.8
					s-0.9,0.5-1.4,0.6l0,0C492.7-575.4,494.4-576.4,496.2-577.5L496.2-577.5z"/>
			</g>
		</g>
            <g>
			<g>
				<path class="st3" d="M489.5-576.6c0.4-0.3,0.8-0.6,1.3-0.9c0.4-0.3,0.9-0.6,1.3-0.8c0.5-0.3,0.9-0.5,1.3-0.8
					c0.5-0.2,0.9-0.5,1.4-0.6l0,0C493-578.7,491.3-577.6,489.5-576.6L489.5-576.6z"/>
			</g>
		</g>
	</g>
</g>
    <g>
	<g>
		<g>
			<g>
				<path class="st1" d="M276.6-194H165.1v-78.5h111.6v78.5L276.6-194L276.6-194z M166.1-195h109.6v-76.5H166.1V-195z"/>
			</g>
            <g>
				<path class="st1" d="M266.9-203.1h-92.2v-60.3h92.2V-203.1L266.9-203.1z M175.2-203.6h91.2v-59.3h-91.2V-203.6z"/>
			</g>
            <g>
				<polygon class="st1" points="175.1,-219.5 174.8,-219.9 207.7,-245.4 207.9,-245.3 227.1,-225.3 243,-235.3 243.2,-235.2
					266.8,-221.5 266.6,-221 243,-234.7 227,-224.6 207.7,-244.8 				"/>
			</g>
		</g>
	</g>
        <g>
		<g>
			<g>
				<g>
					<path class="st3" d="M262.2-250.2c-0.3,0.2-0.6,0.4-0.8,0.6c-0.3,0.2-0.6,0.3-0.9,0.5s-0.6,0.3-0.9,0.5s-0.6,0.3-0.9,0.5l0,0
						C259.9-248.8,261.1-249.5,262.2-250.2L262.2-250.2z"/>
				</g>
			</g>
		</g>
            <g>
			<g>
				<g>
					<path class="st3" d="M255.4-252.9c0.3-0.2,0.5-0.3,0.8-0.5s0.5-0.3,0.8-0.5s0.5-0.3,0.8-0.5s0.5-0.3,0.8-0.5l0,0
						C257.5-254.2,256.5-253.5,255.4-252.9L255.4-252.9z"/>
				</g>
			</g>
		</g>
            <g>
			<g>
				<g>
					<path class="st3" d="M258.6-257.9c-3.4,0-6.2,2.8-6.2,6.2s2.8,6.2,6.2,6.2c3.5,0,6.2-2.8,6.2-6.2S262-257.9,258.6-257.9z
						 M264.1-251.7c0,3-2.4,5.4-5.4,5.4s-5.4-2.4-5.4-5.4s2.4-5.5,5.4-5.5C261.6-257.1,264.1-254.7,264.1-251.7z"/>
				</g>
			</g>
		</g>
            <g>
			<g>
				<g>
					<g>
						<path class="st3" d="M254.7-249.3c1.3-0.9,2.6-1.7,3.9-2.5s2.7-1.6,4-2.3c-1.3,0.9-2.6,1.7-3.9,2.5S256-250,254.7-249.3z"/>
					</g>
				</g>
			</g>
                <g>
				<g>
					<g>
						<path class="st3" d="M262-252.1c-0.4,0.3-0.8,0.6-1.3,0.9c-0.4,0.3-0.9,0.6-1.3,0.8c-0.5,0.3-0.9,0.5-1.3,0.8
							c-0.5,0.2-0.9,0.5-1.4,0.6l0,0C258.4-250,260.2-251.1,262-252.1L262-252.1z"/>
					</g>
				</g>
			</g>
                <g>
				<g>
					<g>
						<path class="st3" d="M255.3-251.3c0.4-0.3,0.8-0.6,1.3-0.9c0.4-0.3,0.9-0.6,1.3-0.8c0.5-0.3,0.9-0.5,1.3-0.8
							c0.5-0.2,0.9-0.5,1.4-0.6l0,0C258.8-253.3,257.1-252.3,255.3-251.3L255.3-251.3z"/>
					</g>
				</g>
			</g>
		</g>
	</g>
</g>
</svg>
