<?xml version="1.0" encoding="utf-8"?>
<!-- Generator: Adobe Illustrator 25.0.1, SVG Export Plug-In . SVG Version: 6.00 Build 0)  -->
<svg version="1.1" id="Слой_1" xmlns="http://www.w3.org/2000/svg" xmlns:xlink="http://www.w3.org/1999/xlink" x="0px" y="0px"
     viewBox="0 0 132.3 78.8" style="enable-background:new 0 0 132.3 78.8;" xml:space="preserve">
<style type="text/css">
	.st0{fill:#FFB05F;}
	.st1{fill:#FFFFFF;}
	.st2{fill:none;stroke:#000000;stroke-miterlimit:10;}
	.st3{fill:#0097AE;}
	.st4{opacity:0.69;enable-background:new    ;}
	.st5{opacity:0.6;}
	.st6{fill:#1D1D1B;}
	.st7{fill:none;stroke:#000000;stroke-width:0.5;stroke-miterlimit:10;}
</style>
    <path class="st0" d="M564.3,39.8l-11-1.8l-7.5-15.8c-0.3-3-3-5.7-6.6-5.7h-26.3V5.2c0-3-2.7-5.7-6.3-5.7h-60.9
	c-3.6,0-6.3,2.7-6.3,5.7V38v9.6v15.2c0,3,2.7,5.7,6.3,5.7h8.4v-1.8C455,73,460.7,78,467.2,78c6.3,0,11.3-3.9,13.1-9.6H526
	c1.2,5.7,6.6,9.6,13.1,9.6c6.6,0,12.2-4.8,13.1-11v1.2h12.2c3.6,0,6.3-2.7,6.3-6.3V47.3C570.6,44.6,567.9,39.8,564.3,39.8z
	 M467.3,74.5c-4.8,0-9.3-3.9-9.3-8.4s3.9-8.4,9.3-8.4s9.3,3.9,9.3,8.4S472,74.5,467.3,74.5z M467.3,53.3c-6.9,0-12.8,5.4-13.1,11.3
	h-8.4c-0.9,0-1.8-0.9-1.8-1.8V47.6V38V5.2c0-0.9,0.9-1.8,1.8-1.8H507c0.9,0,1.8,0.9,1.8,1.8v13.4v29v17h-28.4
	C479.8,58.3,474.1,53.3,467.3,53.3z M538.6,74.5c-4.8,0-9.3-3.9-9.3-8.4s3.9-8.4,9.3-8.4c4.8,0,9.3,3.9,9.3,8.4
	S543.7,74.5,538.6,74.5z M564,64.9h-12.2c-0.6-6.6-6.3-11.6-13.1-11.6s-12.8,5.4-13.1,11.3h-12.2v-17V20.4h26.3
	c0.9,0,1.8,0.9,1.8,1.8c0,0.3,0,0.3,0,0.9l8.4,17.6c0.3,0.3,0.9,0.9,1.8,1.2l12.2,1.8c0,0,0,0,0.3,0s1.8,2.1,1.8,3.6v9.6h-12.2v3.9
	H566v1.8C566.1,64,565.2,64.9,564,64.9z"/>
    <rect x="508.7" y="-99.9" width="6.3" height="3.9"/>
    <rect x="435.2" y="-135.7" width="59.1" height="3.9"/>
    <rect x="435.2" y="-120.5" width="59.1" height="3.9"/>
    <rect x="435.2" y="-105" width="59.1" height="3.9"/>
    <path d="M527.2-118.7c0-1.2-1.8-2.7-3-2.7h-13.1c-1.8,0-3.6,1.2-3.6,3v9.3c0,1.8,1.2,3,3.6,3H529c1.8,0,3.6-1.2,3.6-3
	c0-0.3,0-0.3,0-0.9L527.2-118.7z M511.1-108.9v-9.2h12.8c0,0.3,0,0.3,0,0.9l4.5,8.4h-17.3L511.1-108.9L511.1-108.9z"/>
    <circle class="st1" cx="-344.5" cy="-99.6" r="21.8"/>
    <path d="M378.4-110.1c1.2,1.2,2.1,2.1,3,3c-4.8,5.4-10.2,10.2-14.9,14.9c-2.7-2.7-5.4-5.4-7.8-7.8c1.2-0.9,2.1-1.8,3.6-3
	c1.2,1.8,3,3.6,4.5,5.4C370.6-102.3,374.5-106.2,378.4-110.1z"/>
    <g>
	<g>
		<path d="M435.7,93.2c-0.3,0.3-0.9,0.3-0.9,0.9c-0.3,0-0.9,0.3-0.9,0.3c-0.3,0-0.9,0.3-0.9,0.3c-0.3,0-0.9,0.3-0.9,0.3l0,0
			C432.7,95,434.2,94.1,435.7,93.2L435.7,93.2z"/>
	</g>
        <g>
		<path d="M427.7,89.6c0.3,0,0.3-0.3,0.9-0.3s0.3-0.3,0.9-0.3c0.3,0,0.3-0.3,0.9-0.3s0.3-0.3,0.9-0.3l0,0
			C430.1,88.4,428.9,89.3,427.7,89.6L427.7,89.6z"/>
	</g>
        <g>
		<path d="M431.6,83.9c-3.9,0-7.5,3.6-7.5,7.5s3.6,7.5,7.5,7.5s7.5-3.6,7.5-7.5C439,87.5,435.4,83.9,431.6,83.9z M438.1,91.4
			c0,3.6-3,6.6-6.6,6.6s-6.6-3-6.6-6.6s3-6.6,6.6-6.6C434.8,84.8,438.1,87.5,438.1,91.4z"/>
	</g>
        <g>
		<g>
			<path d="M426.8,94.1c1.2-0.9,3-2.1,4.8-3s3-1.8,4.8-2.7c-1.2,0.9-3,2.1-4.8,3S428.3,93.2,426.8,94.1z"/>
		</g>
            <g>
			<path d="M435.4,90.8c-0.3,0.3-0.9,0.9-1.2,1.2c-0.3,0.3-0.9,0.9-1.8,0.9c-0.3,0.3-0.9,0.3-1.8,0.9c-0.3,0.3-1.2,0.3-1.8,0.9l0,0
				C431,93.2,433.3,91.7,435.4,90.8L435.4,90.8z"/>
		</g>
            <g>
			<path d="M427.7,91.7c0.3-0.3,0.9-0.9,1.2-1.2c0.3-0.3,0.9-0.9,1.8-0.9c0.3-0.3,0.9-0.3,1.8-0.9c0.3-0.3,1.2-0.3,1.8-0.9l0,0
				C431.6,89.3,429.2,90.5,427.7,91.7L427.7,91.7z"/>
		</g>
	</g>
</g>
    <line class="st2" x1="598.8" y1="-83.4" x2="651.6" y2="-83.4"/>
    <line class="st2" x1="598.8" y1="-73.2" x2="651.6" y2="-73.2"/>
    <line class="st2" x1="598.8" y1="-63" x2="651.6" y2="-63"/>
    <g>
	<g>
		<g>
			<path class="st1" d="M27.5,58.1c-5.2,0-10,5-10,10.3c0,5.4,4.8,10.3,10,10.3s10-5,10-10.3C37.5,63.1,33.1,58.1,27.5,58.1z
				 M27.5,77.5c-4.8,0-8.9-4.1-8.9-9.2c0-0.1,0-0.2,0-0.3c0-0.1,0-0.1,0-0.2s0-0.2,0.1-0.3c0.4-4.6,4.2-8.3,8.9-8.3
				c5.2,0,8.9,3.7,8.9,9.2C36.4,73.4,32.4,77.5,27.5,77.5z"/>
		</g>
	</g>
        <g>
		<g>
			<path class="st1" d="M104.9,57.9c-5.2,0-10,5-10,10.3c0,5.5,4.8,10.3,10,10.3c5.2,0,10-5,10-10.3S110.5,57.9,104.9,57.9z
				 M113.7,68.3c0,5-4,9.2-8.9,9.2c-4.9,0-8.9-4.1-8.9-9.2s4-9.2,8.9-9.2C110.1,59.1,113.7,62.9,113.7,68.3z"/>
		</g>
	</g>
        <g>
		<g>
			<g>
				<g>
					<path class="st1" d="M17.9,68.8h-15c-1.4,0-2.6-1.2-2.6-2.6C0.1,56.4,0.1,8.2,0.1,6.9c0-3.5,2.9-6.4,6.5-6.4L68.9,0
						c0,0,0,0,0.1,0c1.6,0,3.1,0.6,4.3,1.9C74.4,2.9,75,4.4,75.1,6c0.2,29.1,0.3,50.4,0.3,61.7v0.5l-38.9,0.3v-1l38-0.3
						c0-11.4-0.1-32.6-0.3-61.3c0-1.4-0.5-2.6-1.5-3.6c-1-1-2.2-1.5-3.6-1.5L6.5,1.5C3.5,1.5,1,4,0.9,6.9C0.9,8.1,1,56.3,1.1,66
						c0,0.9,0.7,1.6,1.6,1.6h15L17.9,68.8L17.9,68.8z"/>
				</g>
			</g>
            <g>
				<path class="st1" d="M114.9,40.2l-8.5-18c-0.8-1.7-2.6-2.9-4.5-2.9H74.4v-1h27.5c2.3,0,4.4,1.3,5.4,3.4l8.5,17.9L114.9,40.2z"/>
			</g>
		</g>
            <g>
			<path class="st1" d="M130.4,68.7L130.4,68.7c-4.6-0.2-9.6-0.4-15.7-0.4v-1c6.1,0,11.1,0.1,15.6,0.4c0.3,0,0.6-0.1,0.8-0.3
				c0.2-0.2,0.3-0.5,0.3-0.8l-0.5-17.6c0-0.4-0.2-0.7-0.6-0.9l-15.2-7.8l0.5-0.9l15.2,7.8c0.7,0.3,1.1,1,1.1,1.9l0.5,17.5
				c0,0.6-0.2,1.1-0.6,1.5C131.3,68.5,130.8,68.7,130.4,68.7z"/>
		</g>
            <g>
			<rect x="74.4" y="67.3" class="st1" width="21.7" height="1"/>
		</g>
	</g>
        <g>
		<path class="st1" d="M102.2,39.7H82.6c-1,0-1.8-0.8-1.8-2v-10c0-1,0.8-2,1.8-2H98c0.7,0,1.4,0.4,1.7,1.1l4.2,10.2
			c0.2,0.6,0.2,1.3-0.2,1.9C103.3,39.4,102.8,39.7,102.2,39.7z M82.6,26.3c-0.7,0-1.3,0.6-1.3,1.4v10.1c0,0.8,0.6,1.4,1.3,1.4h19.7
			c0.4,0,0.8-0.2,1.1-0.6c0.3-0.4,0.3-0.9,0.1-1.3l-4.2-10.2c-0.2-0.5-0.7-0.8-1.2-0.8C98,26.3,82.6,26.3,82.6,26.3z"/>
	</g>
        <g>
		<rect x="120.3" y="59.4" class="st1" width="11.3" height="1"/>
	</g>
        <g>
		<rect x="81.1" y="48.3" class="st1" width="4.2" height="1"/>
	</g>
        <g>
		<g>
			<g>
				<g>
					<g>
						<path class="st3" d="M33.4,70.6c-0.4,0.3-1,0.6-1.4,1c-0.4,0.3-1,0.6-1.5,0.9c-0.5,0.3-1,0.6-1.5,0.8c-0.5,0.3-1,0.6-1.5,0.8
							l0,0C29.6,72.9,31.5,71.8,33.4,70.6L33.4,70.6z"/>
					</g>
				</g>
			</g>
		</g>
            <g>
			<g>
				<g>
					<g>
						<path class="st3" d="M22,66c0.4-0.3,0.9-0.6,1.3-0.9s0.9-0.6,1.3-0.8c0.4-0.3,0.9-0.5,1.3-0.8c0.4-0.3,0.9-0.5,1.4-0.8l0,0
							C25.6,63.8,23.8,65,22,66L22,66z"/>
					</g>
				</g>
			</g>
		</g>
            <g>
			<g>
				<g>
					<g>
						<g>
							<path class="st3" d="M20.8,72.1c2.1-1.5,4.3-2.8,6.5-4.1c2.2-1.3,4.5-2.6,6.7-3.8c-2.1,1.5-4.3,2.8-6.5,4.1
								C25.5,69.5,23.1,70.8,20.8,72.1z"/>
						</g>
					</g>
				</g>
			</g>
                <g>
				<g>
					<g>
						<g>
							<path class="st3" d="M33.1,67.3c-0.7,0.6-1.3,1.1-2.1,1.5c-0.7,0.5-1.5,1-2.2,1.4c-0.8,0.4-1.5,0.9-2.2,1.3
								c-0.8,0.4-1.5,0.8-2.4,1.1v-0.1C27.1,70.7,30.1,69.1,33.1,67.3L33.1,67.3z"/>
						</g>
					</g>
				</g>
			</g>
                <g>
				<g>
					<g>
						<g>
							<path class="st3" d="M21.9,68.8c0.7-0.6,1.3-1.1,2.1-1.5c0.7-0.5,1.5-1,2.2-1.4c0.8-0.4,1.5-0.9,2.2-1.3
								c0.8-0.4,1.5-0.8,2.4-1.1v0.1C27.8,65.2,24.8,67,21.9,68.8L21.9,68.8z"/>
						</g>
					</g>
				</g>
			</g>
		</g>
	</g>
        <g>
		<g>
			<g>
				<g>
					<g>
						<path class="st3" d="M110.8,70.9c-0.4,0.3-1,0.6-1.4,1c-0.4,0.3-1,0.6-1.5,0.9c-0.5,0.3-1,0.6-1.5,0.8c-0.5,0.3-1,0.6-1.5,0.8
							l0,0C107,73.2,108.9,72.1,110.8,70.9L110.8,70.9z"/>
					</g>
				</g>
			</g>
		</g>
            <g>
			<g>
				<g>
					<g>
						<path class="st3" d="M99.4,66.3c0.4-0.3,0.9-0.6,1.3-0.9s0.9-0.6,1.3-0.8c0.4-0.3,0.9-0.5,1.3-0.8c0.4-0.3,0.9-0.5,1.4-0.8
							l0,0C103,64.1,101.2,65.2,99.4,66.3L99.4,66.3z"/>
					</g>
				</g>
			</g>
		</g>
            <g>
			<g>
				<g>
					<g>
						<g>
							<path class="st3" d="M98.2,72.4c2.1-1.5,4.3-2.8,6.5-4.1c2.2-1.3,4.5-2.6,6.7-3.8c-2.1,1.5-4.3,2.8-6.5,4.1
								C102.8,69.8,100.5,71.1,98.2,72.4z"/>
						</g>
					</g>
				</g>
			</g>
                <g>
				<g>
					<g>
						<g>
							<path class="st3" d="M110.5,67.6c-0.7,0.6-1.3,1.1-2.1,1.5c-0.7,0.5-1.5,1-2.2,1.4c-0.8,0.4-1.5,0.9-2.2,1.3
								s-1.5,0.8-2.4,1.1v-0.1C104.5,71.1,107.5,69.3,110.5,67.6L110.5,67.6z"/>
						</g>
					</g>
				</g>
			</g>
                <g>
				<g>
					<g>
						<g>
							<path class="st3" d="M99.3,69.1c0.7-0.6,1.3-1.1,2.1-1.5c0.7-0.5,1.5-1,2.2-1.4c0.8-0.4,1.5-0.9,2.2-1.3
								c0.8-0.4,1.5-0.8,2.4-1.1V64C105.3,65.5,102.2,67.3,99.3,69.1L99.3,69.1z"/>
						</g>
					</g>
				</g>
			</g>
		</g>
	</g>
        <g>
		<g>
			<path class="st3" d="M29.4,22.4l-13,1.4L29,25.2l0,0L29.4,22.4L29.4,22.4z"/>
		</g>
            <g>
			<g>
				<path class="st3" d="M42.6,37.2L42.6,37.2L42.6,37.2l-2.9-2.6l0,0l-4.9-4.4l3-3.3l4.4,4.8L52,20.3l3.3,3L42.6,37.2z M40.4,34.5
					l2.1,2l12.1-13.2L52.1,21l-9.8,11.5l-4.4-4.8l-2.2,2.5L40.4,34.5L40.4,34.5z"/>
			</g>
		</g>
            <g>
			<g>
				<path class="st3" d="M62,22.2c-1.4-2.7-3.4-5-5.6-6.6c-2.2-1.5-4.9-2.9-7.6-3.5c-0.7,0-1.4-0.2-2-0.2c-0.2,0-0.7,0-0.9,0h-0.7
					c-0.2,0-0.2,0-0.7,0h-4.1h-8.3L0,12.3L32.3,13l8,0.2h4.1c0.2,0,0.2,0,0.7,0h0.2c0.2,0,0.7,0,0.9,0c0.7,0,1.4,0.2,2,0.2
					c2.3,0.7,4.8,2.1,6.6,3.6c1.8,1.6,3.4,3.6,4.8,5.9c0.9,2.3,1.6,4.8,1.4,7.3c0,2.3-0.7,5-2,7c-2.3,4.3-6.6,7.7-11.2,8.5
					c-2.3,0.2-4.8,0.2-7-0.2c-2.3-0.7-4.3-1.6-6.3-3.4c-1.6-1.6-3.4-3.4-4.3-5.6c-0.2-0.7-0.7-1.6-0.9-2.9c0-0.2,0-0.7,0-0.9
					c0-0.2,0-0.7,0-0.9c0-0.2,0-0.7,0-0.9v-0.2v-0.4V30c0,0,0,0,0-0.2c0,0,0,0,0-0.2h-5.9v0.2l0,0l0,0l0,0V30v0.7c0,0.2,0,0.7,0,1.4
					c0,0.2,0,0.7,0.2,0.9c0,0.2,0,0.7,0.2,0.9c0.2,1.6,0.9,2.9,1.6,4.3c1.4,2.7,3.4,5.2,5.9,7c2.3,2.1,5.2,3.4,8.3,4.1
					c2.9,0.7,5.9,0.7,8.9,0c5.9-1.4,10.8-5.6,13.5-10.8c1.4-2.7,2-5.6,2-8.5C64,27.4,63.4,24.4,62,22.2z"/>
			</g>
		</g>
            <g>
			<path class="st3" d="M29.6,17.3l-19.5,1.4l19.5,1.4l0,0V17.3L29.6,17.3z"/>
		</g>
	</g>
</g>
    <g>
	<path class="st3" d="M196.4,517.3c0,32.2-26.8,59.1-59.8,59.1c-32.2,0-59.8-27.6-59.1-59.8c0.8-33,26.8-59.8,59.8-59.8
		C169.5,457.5,196.4,485.1,196.4,517.3z M166.4,486.6c-13.8,14.6-27.6,28.4-43,43.7c-5.4-6.9-10.7-13-16.1-19.2
		c-4.6,4.6-7.7,8.4-11.5,12.3c10,9.2,19.9,19.2,29.1,28.4c17.6-17.6,35.3-35.3,52.9-53.7C174.9,495,171,491.2,166.4,486.6z"/>
        <path class="st1" d="M166.4,486.6c4.6,4.6,8.4,8.4,11.5,11.5c-18.4,18.4-36.1,36.1-52.9,53.7c-9.2-9.2-19.2-19.2-28.4-28.4
		c3.1-3.8,6.9-6.9,11.5-12.3c5.4,6.1,10.7,12.3,16.1,19.2C138.8,515,152.6,501.2,166.4,486.6z"/>
</g>
    <path d="M329,362.9H172.1c-14.3,0-26,11.7-26,26v5.9v33.9h9.8h78.8H346v61.9c0,9.1-7.2,16.3-16.3,16.3h-95.1v9.8H329
	c14.3,0,26-11.7,26-26v-61.9v-33.9V389C355.1,374.6,343.3,362.9,329,362.9z M345.3,418.9H155.2v-14.3h190.1V418.9L345.3,418.9z
	 M345.3,394.8H155.2v-5.9c0-9.1,7.2-16.3,16.3-16.3H329c9.1,0,16.3,7.2,16.3,16.3L345.3,394.8L345.3,394.8z"/>
    <g>
	<path d="M310.1,499.6c-4.6,0-8.5-1.3-11.7-3.9c-3.3,2.6-7.8,3.9-11.7,3.9c-11.1,0-20.2-9.1-20.2-20.2s9.1-20.2,20.2-20.2
		c4.6,0,8.5,1.3,11.7,3.9c3.3-2.6,7.8-3.9,11.7-3.9c11.1,0,20.2,9.1,20.2,20.2C331,490.5,321.8,499.6,310.1,499.6z M298.4,482.7
		l3.3,3.9c2,2.6,5.2,3.9,8.5,3.9c6.5,0,11.7-5.2,11.7-11.7s-5.2-11.7-11.7-11.7c-3.3,0-6.5,1.3-8.5,3.9l-3.3,3.9l-3.3-3.9
		c-2-2.6-5.2-3.9-8.5-3.9c-6.5,0-11.7,5.2-11.7,11.7s5.2,11.7,11.7,11.7c3.3,0,6.5-1.3,8.5-3.9L298.4,482.7z"/>
</g>
    <g>
	<path d="M293.8,482.7c-0.7,0.7-1.3,0.7-2,1.3s-1.3,0.7-2,1.3c-0.7,0.7-1.3,0.7-2,1.3s-1.3,0.7-2,1.3l0,0
		C288.6,485.3,291.2,484,293.8,482.7L293.8,482.7z"/>
</g>
    <g>
	<path d="M278.9,476.2c0.7-0.7,1.3-0.7,2-1.3c0.7-0.7,1.3-0.7,2-1.3s1.3-0.7,2-1.3c0.7-0.7,1.3-0.7,2-1.3l0,0
		C283.4,473.6,281.5,474.9,278.9,476.2L278.9,476.2z"/>
</g>
    <g>
	<g>
		<path d="M277.6,484.6c2.6-2,5.9-3.9,8.5-5.2c2.6-2,5.9-3.3,9.1-5.2c-2.6,2-5.9,3.9-8.5,5.2C283.4,481.4,280.2,482.7,277.6,484.6z"
        />
	</g>
        <g>
		<path d="M293.2,478.1c-0.7,0.7-2,1.3-2.6,2c-0.7,0.7-2,1.3-2.6,2c-1.3,0.7-2,1.3-3.3,2s-2,1.3-3.3,1.3l0,0
			C285.4,482.7,289.3,480.7,293.2,478.1L293.2,478.1z"/>
	</g>
        <g>
		<path d="M278.9,480.1c0.7-0.7,2-1.3,2.6-2c0.7-0.7,2-1.3,2.6-2c1.3-0.7,2-1.3,3.3-2s2-1.3,3.3-1.3l0,0
			C286.7,475.5,282.8,478.1,278.9,480.1L278.9,480.1z"/>
	</g>
</g>
    <g>
	<path d="M317.9,482.7c-0.7,0.7-1.3,0.7-2,1.3c-0.7,0.7-1.3,0.7-2,1.3c-0.7,0.7-1.3,0.7-2,1.3s-1.3,0.7-2,1.3l0,0
		C312.7,485.3,315.3,484,317.9,482.7L317.9,482.7z"/>
</g>
    <g>
	<path d="M303,476.2c0.7-0.7,1.3-0.7,2-1.3c0.7-0.7,1.3-0.7,2-1.3s1.3-0.7,2-1.3c0.7-0.7,1.3-0.7,2-1.3l0,0
		C307.5,473.6,304.9,474.9,303,476.2L303,476.2z"/>
</g>
    <g>
	<g>
		<path d="M301,484.6c2.6-2,5.9-3.9,8.5-5.2c2.6-2,5.9-3.3,9.1-5.2c-2.6,2-5.9,3.9-8.5,5.2C307.5,481.4,304.3,482.7,301,484.6z"/>
	</g>
        <g>
		<path d="M317.3,478.1c-0.7,0.7-2,1.3-2.6,2c-0.7,0.7-2,1.3-2.6,2c-1.3,0.7-2,1.3-3.3,2s-2,1.3-3.3,1.3l0,0
			C309.5,482.7,313.4,480.7,317.3,478.1L317.3,478.1z"/>
	</g>
        <g>
		<path d="M302.3,480.1c0.7-0.7,2-1.3,2.6-2c0.7-0.7,2-1.3,2.6-2c1.3-0.7,2-1.3,3.3-2s2-1.3,3.3-1.3l0,0
			C310.1,475.5,306.9,478.1,302.3,480.1L302.3,480.1z"/>
	</g>
</g>
    <g>
	<g>
		<path class="st3" d="M-9.8,507.2c-9.5,0-17.3,7.7-17.3,17.3s7.7,17.3,17.3,17.3s17.3-7.7,17.3-17.3S-0.3,507.2-9.8,507.2z
			 M5.3,524.5c0,8.3-6.8,15.1-15.1,15.1s-15.1-6.8-15.1-15.1s6.8-15.2,15.1-15.2S5.3,516.2,5.3,524.5z"/>
	</g>
</g>
    <g>
	<g>
		<g>
			<path class="st3" d="M76.9,592.1c-0.7,0.5-1.6,1.1-2.3,1.6s-1.6,1-2.4,1.5c-0.8,0.4-1.6,1-2.4,1.4s-1.7,1-2.4,1.4l0,0
				C70.5,595.9,73.8,594,76.9,592.1L76.9,592.1z"/>
		</g>
	</g>
        <g>
		<g>
			<path class="st3" d="M57.9,584.5c0.7-0.5,1.5-1,2.2-1.5c0.7-0.4,1.5-1,2.2-1.4s1.5-0.8,2.2-1.3c0.7-0.4,1.5-0.8,2.3-1.3l0,0
				C64,580.9,61,582.7,57.9,584.5L57.9,584.5z"/>
		</g>
	</g>
        <g>
		<g>
			<path class="st3" d="M67,570.6c-9.5,0-17.3,7.7-17.3,17.3s7.7,17.3,17.3,17.3s17.3-7.7,17.3-17.3S76.5,570.6,67,570.6z
				 M82.1,587.9c0,8.3-6.8,15.1-15.1,15.1s-15.1-6.8-15.1-15.1s6.8-15.2,15.1-15.2C75.4,572.7,82.1,579.6,82.1,587.9z"/>
		</g>
	</g>
        <g>
		<g>
			<g>
				<path class="st3" d="M56,594.5c3.5-2.4,7.2-4.6,10.8-6.9c3.7-2.1,7.4-4.3,11.2-6.3c-3.5,2.4-7.2,4.6-10.8,6.9
					C63.5,590.3,59.8,592.6,56,594.5z"/>
			</g>
		</g>
            <g>
			<g>
				<path class="st3" d="M76.3,586.7c-1.2,1-2.2,1.8-3.5,2.5c-1.2,0.8-2.4,1.6-3.6,2.3c-1.3,0.7-2.4,1.5-3.7,2.1
					c-1.3,0.6-2.5,1.3-3.9,1.8l0,0C66.5,592.4,71.4,589.6,76.3,586.7L76.3,586.7z"/>
			</g>
		</g>
            <g>
			<g>
				<path class="st3" d="M57.7,589.1c1.2-1,2.2-1.8,3.5-2.5c1.2-0.8,2.4-1.6,3.6-2.3c1.3-0.7,2.4-1.5,3.7-2.1
					c1.3-0.6,2.5-1.3,3.9-1.8v0.1C67.6,583.3,62.7,586.2,57.7,589.1L57.7,589.1z"/>
			</g>
		</g>
	</g>
</g>
    <polygon class="st2" points="-129.7,534.2 -140.3,524.5 -176.8,566.8 -193,549.1 -202.8,559.7 -184.8,576.2 -184.8,576.2
	-175.6,584.5 -175.6,584.5 -175.6,584.5 -168.1,576.3 -168.1,576.3 "/>
    <g>
	<g>
		<path class="st1" d="M-282.2,51h-38.7v-0.3h38.7c6.3,0,11.4-5.1,11.4-11.4V-7.5c0-6.3-5.1-11.4-11.4-11.4h-72
			c-6.2,0-11.3,5.1-11.3,11.4V5.3h-0.4V-7.5c0-6.5,5.3-11.7,11.7-11.7h72c6.5,0,11.7,5.3,11.7,11.7v46.8
			C-270.5,45.7-275.8,51-282.2,51z"/>
        <path class="st1" d="M-282.2,51.2h-39v-0.8h39c6.1,0,11.1-5,11.1-11.1V-7.5c0-6.1-5-11.1-11.1-11.1h-72c-6.1,0-11.1,5-11.1,11.1
			V5.6h-0.8V-7.5c0-6.6,5.4-12,12-12h71.9c6.6,0,12,5.4,12,12v46.8C-270.3,45.8-275.6,51.2-282.2,51.2z"/>
	</g>
</g>
    <g>
	<rect x="-365.7" y="-8.9" class="st1" width="95" height="0.3"/>
</g>
    <g>
	<rect x="-365.7" y="-4.3" class="st1" width="95" height="0.3"/>
</g>
    <g>
	<path class="st1" d="M-285.6,46.2c-2.9,0-5.7-1.4-7.5-3.7c-1.8,2.3-4.5,3.7-7.5,3.7c-5.2,0-9.3-4.2-9.3-9.3c0-5.2,4.2-9.3,9.3-9.3
		c2.9,0,5.7,1.4,7.5,3.7c1.8-2.3,4.5-3.7,7.5-3.7c5.2,0,9.3,4.2,9.3,9.3S-280.4,46.2-285.6,46.2z M-293.1,41.9l0.1,0.2
		c1.7,2.4,4.4,3.8,7.3,3.8c5,0,9-4,9-9s-4-9-9-9c-2.9,0-5.6,1.4-7.3,3.8l-0.1,0.2l-0.1-0.3c-1.7-2.4-4.4-3.8-7.3-3.8c-5,0-9,4-9,9
		s4,9,9,9c2.9,0,5.6-1.4,7.3-3.8L-293.1,41.9z"/>
</g>
    <g>
	<g>
		<g>
			<g>
				<path class="st3" d="M-279.8,39.1c-0.4,0.3-1,0.6-1.4,1c-0.4,0.3-1,0.6-1.5,0.9c-0.5,0.3-1,0.6-1.5,0.8c-0.5,0.3-1,0.6-1.5,0.8
					l0,0C-283.7,41.4-281.7,40.2-279.8,39.1L-279.8,39.1z"/>
			</g>
		</g>
	</g>
        <g>
		<g>
			<g>
				<path class="st3" d="M-291.3,34.5c0.4-0.3,0.9-0.6,1.3-0.9c0.4-0.3,0.9-0.6,1.3-0.8c0.4-0.3,0.9-0.5,1.3-0.8
					c0.4-0.3,0.9-0.5,1.4-0.8l0,0C-287.6,32.4-289.4,33.4-291.3,34.5L-291.3,34.5z"/>
			</g>
		</g>
	</g>
        <g>
		<g>
			<g>
				<g>
					<path class="st3" d="M-292.4,40.5c2.1-1.5,4.3-2.8,6.5-4.1s4.5-2.6,6.7-3.8c-2.1,1.5-4.3,2.8-6.5,4.1S-290.1,39.4-292.4,40.5z"
                    />
				</g>
			</g>
		</g>
            <g>
			<g>
				<g>
					<path class="st3" d="M-280.2,35.9c-0.7,0.6-1.3,1.1-2.1,1.5c-0.7,0.5-1.5,1-2.2,1.4c-0.8,0.4-1.5,0.9-2.2,1.3
						c-0.8,0.4-1.5,0.8-2.4,1.1v-0.1C-286.1,39.3-283.2,37.6-280.2,35.9L-280.2,35.9z"/>
				</g>
			</g>
		</g>
            <g>
			<g>
				<g>
					<path class="st3" d="M-291.4,37.3c0.7-0.6,1.3-1.1,2.1-1.5c0.7-0.5,1.5-1,2.2-1.4c0.8-0.4,1.5-0.9,2.2-1.3
						c0.7-0.4,1.5-0.8,2.4-1.1v0.1C-285.5,33.8-288.4,35.5-291.4,37.3L-291.4,37.3z"/>
				</g>
			</g>
		</g>
	</g>
</g>
    <g>
	<path class="st1" d="M-348.7,59.2c-14.6,0-26.5-11.9-26.5-26.5s11.9-26.5,26.5-26.5s26.5,11.9,26.5,26.5S-334.1,59.2-348.7,59.2z
		 M-348.7,6.6c-14.4,0-26,11.7-26,26s11.7,26,26,26c14.4,0,26-11.7,26-26S-334.3,6.6-348.7,6.6z"/>
</g>
    <g>
	<path class="st3" d="M-353.5,47L-353.5,47L-353.5,47l-4.8-4.4l0,0l-8.2-7.5l5.1-5.5l7.4,8.1l16.5-19.2l5.5,5L-353.5,47z
		 M-357.1,42.5l3.5,3.2l20.3-22.2l-4.2-3.8L-354,39l-7.4-8.1l-3.8,4.1L-357.1,42.5L-357.1,42.5z"/>
</g>
    <rect x="-623.4" y="-513" class="st4" width="661.3" height="249.3"/>
    <g>
	<g>
		<g>
			<path class="st1" d="M-11.1-198.5h-38.7v-0.3h38.7c6.3,0,11.4-5.1,11.4-11.4V-257c0-6.3-5.1-11.4-11.4-11.4H-83
				c-6.3,0-11.4,5.1-11.4,11.4v12.8h-0.3V-257c0-6.5,5.3-11.7,11.7-11.7h71.9c6.5,0,11.7,5.3,11.7,11.7v46.8
				C0.6-203.7-4.6-198.5-11.1-198.5z"/>
            <path class="st1" d="M-11.1-198.2H-50v-0.8h38.9C-5-199,0-204,0-210.1v-46.8C0-263-5-268-11.1-268H-83c-6.1,0-11.1,5-11.1,11.1
				v13.1H-95v-13.1c0-6.6,5.4-12,12-12h71.9c6.6,0,12,5.4,12,12v46.8C0.9-203.6-4.5-198.2-11.1-198.2z"/>
		</g>
	</g>
        <g>
		<rect x="-94.6" y="-258.3" class="st1" width="95" height="0.3"/>
	</g>
        <g>
		<rect x="-94.6" y="-253.8" class="st1" width="95" height="0.3"/>
	</g>
        <g>
		<path class="st1" d="M-14.5-203.2c-2.9,0-5.7-1.4-7.5-3.7c-1.8,2.3-4.5,3.7-7.5,3.7c-5.2,0-9.3-4.2-9.3-9.3c0-5.2,4.2-9.3,9.3-9.3
			c2.9,0,5.7,1.4,7.5,3.7c1.8-2.3,4.5-3.7,7.5-3.7c5.2,0,9.3,4.2,9.3,9.3C-5.1-207.4-9.3-203.2-14.5-203.2z M-21.9-207.5l0.1,0.2
			c1.7,2.4,4.4,3.8,7.3,3.8c5,0,9-4,9-9s-4-9-9-9c-2.9,0-5.6,1.4-7.3,3.8l-0.1,0.2l-0.1-0.2c-1.7-2.4-4.4-3.8-7.3-3.8c-5,0-9,4-9,9
			s4,9,9,9c2.9,0,5.6-1.4,7.3-3.8L-21.9-207.5z"/>
	</g>
        <g>
		<g>
			<g>
				<g>
					<path class="st3" d="M-8.7-210.3c-0.4,0.3-1,0.6-1.4,1c-0.4,0.3-1,0.6-1.5,0.9s-1,0.6-1.5,0.8c-0.5,0.3-1,0.6-1.5,0.8l0,0
						C-12.5-208-10.6-209.2-8.7-210.3L-8.7-210.3z"/>
				</g>
			</g>
		</g>
            <g>
			<g>
				<g>
					<path class="st3" d="M-20.1-214.9c0.4-0.3,0.9-0.6,1.3-0.9c0.4-0.3,0.9-0.6,1.3-0.8c0.4-0.3,0.9-0.5,1.3-0.8
						c0.4-0.3,0.9-0.5,1.4-0.8l0,0C-16.5-217.1-18.3-216-20.1-214.9L-20.1-214.9z"/>
				</g>
			</g>
		</g>
            <g>
			<g>
				<g>
					<g>
						<path class="st3" d="M-21.3-208.9c2.1-1.5,4.3-2.8,6.5-4.1s4.5-2.6,6.7-3.8c-2.1,1.5-4.3,2.8-6.5,4.1
							C-16.7-211.4-19-210.1-21.3-208.9z"/>
					</g>
				</g>
			</g>
                <g>
				<g>
					<g>
						<path class="st3" d="M-9-213.6c-0.7,0.6-1.3,1.1-2.1,1.5c-0.7,0.5-1.5,1-2.2,1.4c-0.8,0.4-1.5,0.9-2.2,1.3
							c-0.8,0.4-1.5,0.8-2.4,1.1v-0.1C-15-210.1-12-211.9-9-213.6L-9-213.6z"/>
					</g>
				</g>
			</g>
                <g>
				<g>
					<g>
						<path class="st3" d="M-20.2-212.2c0.7-0.6,1.3-1.1,2.1-1.5c0.7-0.5,1.5-1,2.2-1.4c0.8-0.4,1.5-0.9,2.2-1.3
							c0.8-0.4,1.5-0.8,2.4-1.1v0.1C-14.3-215.7-17.3-213.9-20.2-212.2L-20.2-212.2z"/>
					</g>
				</g>
			</g>
		</g>
	</g>
        <g>
		<path class="st1" d="M-77.6-190.2c-14.6,0-26.5-11.9-26.5-26.5s11.9-26.5,26.5-26.5s26.5,11.9,26.5,26.5S-62.9-190.2-77.6-190.2z
			 M-77.6-242.8c-14.4,0-26,11.7-26,26s11.7,26,26,26c14.4,0,26-11.7,26-26S-63.2-242.8-77.6-242.8z"/>
	</g>
        <g>
		<path class="st3" d="M-82.3-202.5L-82.3-202.5L-82.3-202.5l-4.8-4.4l0,0l-8.2-7.5l5.1-5.5l7.4,8.1l16.5-19.2l5.5,5L-82.3-202.5z
			 M-86-207l3.5,3.2l20.3-22.2l-4.2-3.8L-83-210.5l-7.4-8.1l-3.8,4.1L-86-207L-86-207z"/>
	</g>
</g>
    <g>
	<g>
		<g>
			<path d="M633.1-110.9c-21.9,0-39.6-17.8-39.6-39.6c0-21.9,17.8-39.6,39.6-39.6s39.6,17.8,39.6,39.6
				C672.8-128.7,655-110.9,633.1-110.9z M633.1-189.5c-21.4,0-38.9,17.5-38.9,38.9s17.5,38.9,38.9,38.9s38.9-17.4,38.9-38.9
				C672-172,654.6-189.5,633.1-189.5z"/>
		</g>
	</g>
        <g>
		<g>
			<g>
				<path class="st3" d="M633.1-130.9c-2.2,0-4-1.8-4-4v-21.5c0-2.2,1.8-4,4-4s4,1.8,4,4v21.5C637.1-132.6,635.3-130.9,633.1-130.9z
					 M633.1-158.3c-1.1,0-2,0.9-2,2v21.5c0,1.1,0.9,2,2,2s2-0.9,2-2v-21.5C635.1-157.4,634.2-158.3,633.1-158.3z"/>
			</g>
		</g>
            <g>
			<g>
				<path class="st3" d="M633.1-162.4c-2.2,0-4-1.8-4-4s1.8-4,4-4s4,1.8,4,4C637.1-164.1,635.3-162.4,633.1-162.4z M633.1-168.3
					c-1.1,0-2,0.9-2,2s0.9,2,2,2s2-0.9,2-2S634.2-168.3,633.1-168.3z"/>
			</g>
		</g>
	</g>
        <g>
		<path d="M633.1-124.2c-14.6,0-26.4-11.8-26.4-26.4s11.8-26.4,26.4-26.4c14.6,0,26.4,11.8,26.4,26.4c0,2.9-0.8,5.6-1.6,8.2
			c-0.3,0.9-0.5,1.8-0.8,2.7c-1,3.9,0.6,13.8,0.6,13.9v0.3h-0.3c-0.1,0-6.6-0.5-9.3-0.1C644.8-125.1,636.5-124.2,633.1-124.2z
			 M633.1-176.5c-14.3,0-25.9,11.6-25.9,25.9s11.6,25.9,25.9,25.9c3.3,0,11.6-0.9,15-1.5c2.5-0.4,7.8,0,9.1,0.1
			c-0.3-1.8-1.5-10.2-0.5-13.8c0.2-0.9,0.5-1.8,0.8-2.7c0.8-2.6,1.5-5.2,1.5-8C659-164.9,647.4-176.5,633.1-176.5z"/>
	</g>
</g>
    <g>
	<g>
		<path class="st3" d="M-154.5-213.1c-1.1-4.7-2.1-9.4-3.1-14.1s-2.1-9.4-3.1-14.1l-0.1-0.6h-0.6c-1.8,0.1-3.5,0.2-5.2,0.2l-0.4-3.3
			c-0.2-1.8-0.5-3.9-1.6-5.7c-1.2-1.8-3.2-3.1-5.4-3.3c-2.7-0.2-5.4,1.1-7.3,3.5c-1.5,1.9-2.4,4.6-2.5,7.6c0,0.5,0,1,0,1.5
			c-1.4,0.1-2.9,0.1-4.4,0.2h-0.6l-0.2,0.6c-1.3,9.6-3.5,19.2-6.5,28.4l-0.3,1h1c6.6-0.2,13.2-0.3,19.8-0.5s13.2-0.3,19.8-0.5h0.9
			L-154.5-213.1z M-182.4-242.8c0.1-2.7,0.9-5,2.2-6.8c1.5-1.9,3.8-3.1,6-2.9c1.7,0.1,3.4,1.2,4.3,2.6c0.9,1.5,1.2,3.4,1.4,5.1
			l0.4,3.2c-2.3,0-4.5,0-6.7,0c-2.5,0-5,0-7.6,0.1C-182.5-241.9-182.5-242.4-182.4-242.8z M-175-213.2c-6.3,0.2-12.5,0.3-18.7,0.5
			c2.8-8.8,4.9-17.9,6.1-27.1c1.3-0.1,2.5-0.1,3.7-0.1c0.1,1.6,0.3,3.2,0.6,4.8c0.1,0.4,0.4,0.6,0.7,0.6h0.1
			c0.4-0.1,0.7-0.4,0.6-0.8c-0.2-1.5-0.4-3.1-0.5-4.6c2.6-0.1,5.1-0.1,7.5-0.1c2.2,0,4.5,0,6.8,0l0.5,4.4c0,0.4,0.4,0.7,0.8,0.6
			c0.4,0,0.7-0.4,0.6-0.8l-0.5-4.3c1.5,0,3-0.1,4.5-0.2c1,4.5,2,9,3,13.5c1,4.4,1.9,8.8,2.9,13.2
			C-162.4-213.5-168.7-213.3-175-213.2z"/>
	</g>
        <g class="st5">
		<g>
			<g>
				<path class="st6" d="M-183.9-218.6h2.8v0.5h-3.4v-8.2h0.5L-183.9-218.6z"/>
			</g>
		</g>
            <g>
			<g>
				<path class="st6" d="M-167.4-225.7h-2.8v3.6h2.4v0.5h-2.4v3.6h-0.5v-8.2h3.4L-167.4-225.7z"/>
			</g>
		</g>
            <g>
			<g>
				<path class="st6" d="M-162.6-226.3v0.5h-1.9v7.7h-0.5v-7.7h-1.9v-0.5H-162.6z"/>
			</g>
		</g>
            <g>
			<g>
				<g>
					<path class="st3" d="M-176.7-226.5c-2.3,0-4.2,1.9-4.2,4.2s1.9,4.2,4.2,4.2s4.2-1.9,4.2-4.2S-174.4-226.5-176.7-226.5z
						 M-173-222.3c0,2-1.7,3.7-3.7,3.7s-3.7-1.7-3.7-3.7s1.7-3.7,3.7-3.7S-173-224.3-173-222.3z"/>
				</g>
			</g>
                <g>
				<g>
					<g>
						<path class="st3" d="M-174.3-221.3c-0.2,0.1-0.4,0.3-0.6,0.4s-0.4,0.2-0.6,0.4c-0.2,0.1-0.4,0.2-0.6,0.3
							c-0.2,0.1-0.4,0.2-0.6,0.3l0,0C-175.8-220.3-175.1-220.8-174.3-221.3L-174.3-221.3z"/>
					</g>
				</g>
                    <g>
					<g>
						<path class="st3" d="M-178.9-223.1c0.2-0.1,0.4-0.2,0.5-0.3c0.2-0.1,0.4-0.2,0.5-0.3c0.2-0.1,0.4-0.2,0.5-0.3
							c0.2-0.1,0.4-0.2,0.6-0.3l0,0C-177.4-224-178.2-223.6-178.9-223.1L-178.9-223.1z"/>
					</g>
				</g>
                    <g>
					<g>
						<g>
							<path class="st3" d="M-179.4-220.7c0.9-0.6,1.7-1.1,2.6-1.7c0.9-0.5,1.8-1.1,2.7-1.5c-0.9,0.6-1.7,1.1-2.6,1.7
								C-177.5-221.7-178.4-221.2-179.4-220.7z"/>
						</g>
					</g>
                        <g>
						<g>
							<path class="st3" d="M-174.4-222.6c-0.3,0.2-0.5,0.4-0.8,0.6s-0.6,0.4-0.9,0.6c-0.3,0.2-0.6,0.3-0.9,0.5
								c-0.3,0.2-0.6,0.3-0.9,0.4l0,0C-176.8-221.2-175.6-221.9-174.4-222.6L-174.4-222.6z"/>
						</g>
					</g>
                        <g>
						<g>
							<path class="st3" d="M-178.9-222c0.3-0.2,0.5-0.4,0.8-0.6c0.3-0.2,0.6-0.4,0.9-0.6s0.6-0.3,0.9-0.5c0.3-0.2,0.6-0.3,0.9-0.4
								l0,0C-176.6-223.4-177.7-222.7-178.9-222L-178.9-222z"/>
						</g>
					</g>
				</g>
			</g>
		</g>
	</g>
        <g>
		<path class="st1" d="M-126.2-191.2h-98c-1.4,0-2.5-1.1-2.5-2.5v-73.5c0-1.4,1.1-2.5,2.5-2.5h98c1.4,0,2.5,1.1,2.5,2.5v73.5
			C-123.7-192.3-124.9-191.2-126.2-191.2z M-224.2-268.9c-1,0-1.8,0.8-1.8,1.8v73.5c0,1,0.8,1.8,1.8,1.8h98c1,0,1.8-0.8,1.8-1.8
			v-73.5c0-1-0.8-1.8-1.8-1.8H-224.2z"/>
	</g>
        <g>
		<path class="st1" d="M-130.5-202.5h-89.2v-60.1h89.2V-202.5z M-219.1-203h88.1v-59.1h-88.2L-219.1-203L-219.1-203z"/>
	</g>
        <g>
		<rect x="-219.4" y="-199.6" class="st1" width="88.7" height="0.8"/>
	</g>
</g>
    <g>
	<rect x="-219.5" y="-197.2" width="0.2" height="3"/>
</g>
    <g>
	<rect x="-218.1" y="-197.2" width="0.2" height="3"/>
</g>
    <g>
	<rect x="-216.7" y="-197.2" width="0.2" height="3"/>
</g>
    <g>
	<rect x="-215.4" y="-197.2" width="0.2" height="3"/>
</g>
    <g>
	<rect x="-214" y="-197.2" width="0.2" height="3"/>
</g>
    <g>
	<g>
		<g>
			<path class="st3" d="M-174.7-195.4l-0.1,0.1l-0.1,0.1l-0.1,0.1l-0.1,0.1l0,0C-175-195.2-174.8-195.3-174.7-195.4L-174.7-195.4z"
            />
		</g>
	</g>
        <g>
		<g>
			<path class="st3" d="M-175.7-195.8l0.1-0.1l0.1-0.1c0,0,0.1,0,0.1-0.1s0.1,0,0.1-0.1l0,0C-175.4-196-175.6-195.9-175.7-195.8
				L-175.7-195.8z"/>
		</g>
	</g>
        <g>
		<g>
			<path class="st3" d="M-175.2-196.6c-0.5,0-1,0.4-1,1s0.4,1,1,1s1-0.4,1-1S-174.7-196.6-175.2-196.6z M-174.4-195.6
				c0,0.5-0.4,0.9-0.9,0.9s-0.9-0.4-0.9-0.9s0.4-0.9,0.9-0.9S-174.4-196.1-174.4-195.6z"/>
		</g>
	</g>
        <g>
		<g>
			<g>
				<path class="st3" d="M-175.9-195.3c0.2-0.1,0.4-0.3,0.6-0.4c0.2-0.1,0.4-0.2,0.6-0.4c-0.2,0.1-0.4,0.3-0.6,0.4
					C-175.4-195.5-175.6-195.4-175.9-195.3z"/>
			</g>
		</g>
            <g>
			<g>
				<path class="st3" d="M-174.7-195.7c-0.1,0.1-0.1,0.1-0.2,0.1c-0.1,0-0.1,0.1-0.2,0.1c-0.1,0-0.1,0.1-0.2,0.1
					c-0.1,0-0.1,0.1-0.2,0.1l0,0C-175.3-195.4-175-195.5-174.7-195.7L-174.7-195.7z"/>
			</g>
		</g>
            <g>
			<g>
				<path class="st3" d="M-175.8-195.6c0.1-0.1,0.1-0.1,0.2-0.1c0.1,0,0.1-0.1,0.2-0.1s0.1-0.1,0.2-0.1c0.1,0,0.1-0.1,0.2-0.1l0,0
					C-175.2-195.9-175.5-195.7-175.8-195.6L-175.8-195.6z"/>
			</g>
		</g>
	</g>
</g>
    <g>
	<g>
		<g>
			<g>
				<g>
					<path class="st3" d="M338.6-213.8c-2.2,0-4-1.8-4-4v-21.5c0-2.2,1.8-4,4-4s4,1.8,4,4v21.5C342.5-215.6,340.8-213.8,338.6-213.8
						z M338.6-241.3c-1.1,0-2,0.9-2,2v21.5c0,1.1,0.9,2,2,2s2-0.9,2-2v-21.5C340.5-240.4,339.7-241.3,338.6-241.3z"/>
				</g>
			</g>
		</g>
        <g>
			<g>
				<g>
					<path class="st3" d="M338.6-245.3c-2.2,0-4-1.8-4-4s1.8-4,4-4s4,1.8,4,4C342.5-247.1,340.8-245.3,338.6-245.3z M338.6-251.3
						c-1.1,0-2,0.9-2,2s0.9,2,2,2s2-0.9,2-2S339.7-251.3,338.6-251.3z"/>
				</g>
			</g>
		</g>
	</g>
        <g>
		<g>
			<path class="st1" d="M338.6-207.2c-14.6,0-26.4-11.8-26.4-26.4S324-260,338.6-260s26.4,11.8,26.4,26.4c0,2.9-0.8,5.6-1.6,8.2
				c-0.3,0.9-0.5,1.8-0.8,2.7c-1,3.9,0.6,13.8,0.6,13.9v0.3h-0.3c-0.1,0-6.6-0.5-9.3-0.1C350.2-208.1,341.9-207.2,338.6-207.2z
				 M338.6-259.5c-14.3,0-25.9,11.6-25.9,25.9s11.6,25.9,25.9,25.9c3.3,0,11.6-0.9,15-1.5c2.5-0.4,7.8,0,9.1,0.1
				c-0.3-1.8-1.5-10.2-0.5-13.8c0.2-0.9,0.5-1.8,0.8-2.7c0.8-2.6,1.5-5.2,1.5-8C364.5-247.8,352.8-259.5,338.6-259.5z"/>
		</g>
	</g>
        <g>
		<path class="st1" d="M365.9-193.8h-54.6c-6.9,0-12.5-5.6-12.5-12.5v-54.6c0-6.9,5.6-12.5,12.5-12.5h54.6c6.9,0,12.5,5.6,12.5,12.5
			v54.6C378.4-199.4,372.8-193.8,365.9-193.8z M311.3-272.4c-6.3,0-11.5,5.2-11.5,11.5v54.6c0,6.3,5.2,11.5,11.5,11.5h54.6
			c6.3,0,11.5-5.2,11.5-11.5v-54.6c0-6.3-5.2-11.5-11.5-11.5H311.3z"/>
	</g>
</g>
    <g>
	<g>
		<path class="st3" d="M43.6-254.8l-26,1.8l26,1.8l0,0V-254.8L43.6-254.8z"/>
	</g>
        <g>
		<path class="st3" d="M43.3-248L26-246.2l16.7,1.8l0,0L43.3-248L43.3-248z"/>
	</g>
        <g>
		<g>
			<path class="st3" d="M86.6-248.3c-1.8-3.6-4.5-6.6-7.5-8.7c-3-2.1-6.6-3.9-10.2-4.8c-0.9,0-1.8-0.3-2.7-0.3c-0.3,0-0.9,0-1.2,0
				h-0.9c-0.3,0-0.3,0-0.9,0h-5.4h-11l-42.7,0.6l43,0.9l10.7,0.3h5.4c0.3,0,0.3,0,0.9,0h0.3c0.3,0,0.9,0,1.2,0
				c0.9,0,1.8,0.3,2.7,0.3c3,0.9,6.3,2.7,8.7,4.8c2.4,2.1,4.5,4.8,6.3,7.8c1.2,3,2.1,6.3,1.8,9.6c0,3-0.9,6.6-2.7,9.3
				c-3,5.7-8.7,10.2-14.9,11.3c-3,0.3-6.3,0.3-9.3-0.3c-3-0.9-5.7-2.1-8.4-4.5c-2.1-2.1-4.5-4.5-5.7-7.5c-0.3-0.9-0.9-2.1-1.2-3.9
				c0-0.3,0-0.9,0-1.2s0-0.9,0-1.2s0-0.9,0-1.2v-0.3v-0.6v-0.3c0,0,0,0,0-0.3c0,0,0,0,0-0.3h-7.8v0.3l0,0l0,0l0,0v0.3v0.9
				c0,0.3,0,0.9,0,1.8c0,0.3,0,0.9,0.3,1.2c0,0.3,0,0.9,0.3,1.2c0.3,2.1,1.2,3.9,2.1,5.7c1.8,3.6,4.5,6.9,7.8,9.3
				c3,2.7,6.9,4.5,11,5.4c3.9,0.9,7.8,0.9,11.9,0c7.8-1.8,14.3-7.5,17.9-14.3c1.8-3.6,2.7-7.5,2.7-11.3
				C89.2-241.4,88.3-245.3,86.6-248.3z"/>
		</g>
	</g>
        <g>
		<g>
			<path class="st1" d="M46.7-210c-5.2,0-10,5-10,10.3s4.8,10.3,10,10.3s10-5,10-10.3S52.3-210,46.7-210z M46.7-190.5
				c-4.8,0-8.8-4.1-8.8-9.1c0-0.1,0-0.2,0-0.3s0-0.1,0-0.2s0-0.2,0.1-0.3c0.4-4.6,4.2-8.3,8.8-8.3c5.2,0,8.8,3.7,8.8,9.1
				C55.5-194.7,51.5-190.5,46.7-190.5z"/>
		</g>
	</g>
        <g>
		<g>
			<path class="st1" d="M124-210.1c-5.2,0-10,5-10,10.3c0,5.4,4.8,10.3,10,10.3s10-5,10-10.3C134-205.2,129.6-210.1,124-210.1z
				 M132.8-199.8c0,5-4,9.1-8.8,9.1s-8.8-4.1-8.8-9.1s4-9.1,8.8-9.1C129.2-208.9,132.8-205.2,132.8-199.8z"/>
		</g>
	</g>
        <g>
		<g>
			<g>
				<g>
					<path class="st1" d="M37.2-199.3h-15c-1.4,0-2.6-1.2-2.6-2.6c-0.1-9.7-0.2-57.7-0.2-59c0-3.5,2.9-6.4,6.5-6.4l62.3-0.5
						c0,0,0,0,0.1,0c1.6,0,3.1,0.6,4.3,1.8c1.2,1.1,1.8,2.7,1.8,4.3c0.2,29,0.3,50.3,0.3,61.6v0.5l-38.9,0.3v-1l37.9-0.3
						c0-11.4-0.1-32.5-0.3-61.1c0-1.4-0.5-2.6-1.5-3.6s-2.2-1.5-3.6-1.5L26-266.3c-3,0-5.4,2.5-5.5,5.4c0,1.2,0.1,49.2,0.2,58.9
						c0,0.9,0.7,1.6,1.6,1.6h15L37.2-199.3L37.2-199.3z"/>
				</g>
			</g>
            <g>
				<path class="st1" d="M134-227.9l-8.5-17.9c-0.8-1.7-2.6-2.9-4.5-2.9H93.5v-1H121c2.3,0,4.4,1.3,5.4,3.4l8.5,17.9L134-227.9z"/>
			</g>
		</g>
            <g>
			<path class="st1" d="M149.4-199.4h-0.1c-4.5-0.2-9.5-0.4-15.6-0.4v-1c6.1,0,11.1,0.1,15.6,0.4c0.3,0,0.6-0.1,0.8-0.3
				s0.3-0.5,0.3-0.8l-0.5-17.4c0-0.4-0.2-0.7-0.6-0.9l-15.2-7.8l0.5-0.9l15.2,7.8c0.7,0.3,1.1,1,1.1,1.8l0.5,17.4
				c0,0.6-0.2,1.1-0.6,1.5C150.5-199.6,150-199.4,149.4-199.4z"/>
		</g>
            <g>
			<rect x="93.5" y="-200.7" class="st1" width="21.7" height="1"/>
		</g>
	</g>
        <g>
		<path class="st1" d="M121.3-228.2h-19.6c-1,0-1.8-0.8-1.8-1.9v-10.1c0-1,0.8-1.9,1.8-1.9h15.4c0.7,0,1.4,0.4,1.7,1.1l4.2,10.2
			c0.2,0.6,0.2,1.3-0.2,1.8C122.5-228.5,121.9-228.2,121.3-228.2z M101.8-241.6c-0.7,0-1.3,0.6-1.3,1.4v10.1c0,0.8,0.6,1.4,1.3,1.4
			h19.6c0.4,0,0.8-0.2,1.1-0.6c0.3-0.4,0.3-0.9,0.1-1.3l-4.2-10.2c-0.2-0.5-0.7-0.8-1.2-0.8L101.8-241.6L101.8-241.6z"/>
	</g>
        <g>
		<rect x="139.4" y="-208.6" class="st1" width="11.3" height="1"/>
	</g>
        <g>
		<rect x="100.2" y="-219.7" class="st1" width="4.2" height="1"/>
	</g>
        <g>
		<g>
			<path class="st3" d="M60.8-228.3L60.8-228.3L60.8-228.3l-3.8-3.4l0,0l-6.5-5.9l4-4.4l5.8,6.4l13-15.2l4.4,4L60.8-228.3z
				 M57.9-231.9l2.8,2.6l16-17.5l-3.3-3l-13.1,15.2l-5.8-6.4l-3,3.3L57.9-231.9L57.9-231.9z"/>
		</g>
	</g>
        <g>
		<g>
			<g>
				<g>
					<g>
						<path class="st3" d="M52.7-197.5c-0.4,0.3-1,0.6-1.4,1c-0.4,0.3-1,0.6-1.5,0.9s-1,0.6-1.5,0.8c-0.5,0.3-1,0.6-1.5,0.8l0,0
							C48.8-195.2,50.8-196.3,52.7-197.5L52.7-197.5z"/>
					</g>
				</g>
			</g>
		</g>
            <g>
			<g>
				<g>
					<g>
						<path class="st3" d="M41.2-202c0.4-0.3,0.9-0.6,1.3-0.9c0.4-0.3,0.9-0.6,1.3-0.8c0.4-0.3,0.9-0.5,1.3-0.8
							c0.4-0.3,0.9-0.5,1.4-0.8l0,0C44.9-204.2,43.1-203.1,41.2-202L41.2-202z"/>
					</g>
				</g>
			</g>
		</g>
            <g>
			<g>
				<g>
					<g>
						<g>
							<path class="st3" d="M40.1-196.1c2.1-1.5,4.3-2.8,6.5-4.1s4.5-2.6,6.7-3.8c-2.1,1.5-4.3,2.8-6.5,4.1
								C44.6-198.5,42.4-197.2,40.1-196.1z"/>
						</g>
					</g>
				</g>
			</g>
                <g>
				<g>
					<g>
						<g>
							<path class="st3" d="M52.3-200.7c-0.7,0.6-1.3,1.1-2.1,1.5c-0.7,0.5-1.5,1-2.2,1.4c-0.8,0.4-1.5,0.9-2.2,1.3
								c-0.8,0.4-1.5,0.8-2.4,1.1v-0.1C46.4-197.3,49.3-199,52.3-200.7L52.3-200.7z"/>
						</g>
					</g>
				</g>
			</g>
                <g>
				<g>
					<g>
						<g>
							<path class="st3" d="M41.1-199.3c0.7-0.6,1.3-1.1,2.1-1.5c0.7-0.5,1.5-1,2.2-1.4c0.8-0.4,1.5-0.9,2.2-1.3
								c0.8-0.4,1.5-0.8,2.4-1.1v0.1C47-202.8,44.1-201,41.1-199.3L41.1-199.3z"/>
						</g>
					</g>
				</g>
			</g>
		</g>
	</g>
        <g>
		<g>
			<g>
				<g>
					<g>
						<path class="st3" d="M130-197.1c-0.4,0.3-1,0.6-1.4,1c-0.4,0.3-1,0.6-1.5,0.9s-1,0.6-1.5,0.8c-0.5,0.3-1,0.6-1.5,0.8l0,0
							C126.1-194.9,128.1-196,130-197.1L130-197.1z"/>
					</g>
				</g>
			</g>
		</g>
            <g>
			<g>
				<g>
					<g>
						<path class="st3" d="M118.5-201.7c0.4-0.3,0.9-0.6,1.3-0.9s0.9-0.6,1.3-0.8c0.4-0.3,0.9-0.5,1.3-0.8s0.9-0.5,1.4-0.8l0,0
							C122.2-203.9,120.4-202.8,118.5-201.7L118.5-201.7z"/>
					</g>
				</g>
			</g>
		</g>
            <g>
			<g>
				<g>
					<g>
						<g>
							<path class="st3" d="M117.4-195.7c2.1-1.5,4.3-2.8,6.5-4.1s4.5-2.6,6.7-3.8c-2.1,1.5-4.3,2.8-6.5,4.1
								S119.7-196.9,117.4-195.7z"/>
						</g>
					</g>
				</g>
			</g>
                <g>
				<g>
					<g>
						<g>
							<path class="st3" d="M129.6-200.4c-0.7,0.6-1.3,1.1-2.1,1.5c-0.7,0.5-1.5,1-2.2,1.4c-0.8,0.4-1.5,0.9-2.2,1.3
								c-0.8,0.4-1.5,0.8-2.4,1.1v-0.1C123.7-197,126.6-198.7,129.6-200.4L129.6-200.4z"/>
						</g>
					</g>
				</g>
			</g>
                <g>
				<g>
					<g>
						<g>
							<path class="st3" d="M118.4-199c0.7-0.6,1.3-1.1,2.1-1.5c0.7-0.5,1.5-1,2.2-1.4c0.8-0.4,1.5-0.9,2.2-1.3
								c0.8-0.4,1.5-0.8,2.4-1.1v0.1C124.3-202.5,121.4-200.7,118.4-199L118.4-199z"/>
						</g>
					</g>
				</g>
			</g>
		</g>
	</g>
</g>
    <g>
	<rect x="419.1" y="-598.2" class="st2" width="112" height="78.5"/>
        <rect x="428.6" y="-589.2" class="st7" width="92.9" height="60.5"/>
        <polyline class="st7" points="521.5,-546.8 497.5,-560.7 481.3,-550.5 461.8,-570.9 428.6,-545.2 	"/>
</g>
    <g>
	<g>
		<g>
			<path class="st3" d="M496.4-575.8c-0.3,0.2-0.6,0.4-0.8,0.6s-0.6,0.3-0.9,0.5s-0.6,0.3-0.9,0.5s-0.6,0.3-0.9,0.5l0,0
				C494.1-574.5,495.3-575.1,496.4-575.8L496.4-575.8z"/>
		</g>
	</g>
        <g>
		<g>
			<path class="st3" d="M489.6-578.6c0.3-0.2,0.5-0.3,0.8-0.5s0.5-0.3,0.8-0.5s0.5-0.3,0.8-0.5s0.5-0.3,0.8-0.5l0,0
				C491.8-579.8,490.7-579.2,489.6-578.6L489.6-578.6z"/>
		</g>
	</g>
        <g>
		<g>
			<path class="st3" d="M492.9-583.6c-3.4,0-6.2,2.8-6.2,6.2s2.8,6.2,6.2,6.2s6.2-2.8,6.2-6.2S496.3-583.6,492.9-583.6z
				 M498.3-577.3c0,3-2.4,5.4-5.4,5.4s-5.4-2.4-5.4-5.4s2.4-5.5,5.4-5.5S498.3-580.3,498.3-577.3z"/>
		</g>
	</g>
        <g>
		<g>
			<g>
				<path class="st3" d="M488.9-575c1.3-0.9,2.6-1.7,3.9-2.5s2.7-1.6,4-2.3c-1.3,0.9-2.6,1.7-3.9,2.5S490.3-575.7,488.9-575z"/>
			</g>
		</g>
            <g>
			<g>
				<path class="st3" d="M496.2-577.8c-0.4,0.3-0.8,0.6-1.3,0.9c-0.4,0.3-0.9,0.6-1.3,0.8c-0.5,0.3-0.9,0.5-1.3,0.8
					s-0.9,0.5-1.4,0.6l0,0C492.7-575.7,494.4-576.7,496.2-577.8L496.2-577.8z"/>
			</g>
		</g>
            <g>
			<g>
				<path class="st3" d="M489.5-576.9c0.4-0.3,0.8-0.6,1.3-0.9c0.4-0.3,0.9-0.6,1.3-0.8c0.5-0.3,0.9-0.5,1.3-0.8
					c0.5-0.2,0.9-0.5,1.4-0.6l0,0C493-579,491.3-577.9,489.5-576.9L489.5-576.9z"/>
			</g>
		</g>
	</g>
</g>
    <g>
	<g>
		<g>
			<g>
				<path class="st1" d="M276.6-194.3H165.1v-78.5h111.6v78.5H276.6z M166.1-195.3h109.6v-76.5H166.1V-195.3z"/>
			</g>
            <g>
				<path class="st1" d="M266.9-203.4h-92.2v-60.3h92.2V-203.4L266.9-203.4z M175.2-203.9h91.2v-59.3h-91.2V-203.9z"/>
			</g>
            <g>
				<polygon class="st1" points="175.1,-219.8 174.8,-220.2 207.7,-245.7 207.9,-245.6 227.1,-225.6 243,-235.6 243.2,-235.5
					266.8,-221.8 266.6,-221.3 243,-235 227,-224.9 207.7,-245.1 				"/>
			</g>
		</g>
	</g>
        <g>
		<g>
			<g>
				<g>
					<path class="st3" d="M262.2-250.5c-0.3,0.2-0.6,0.4-0.8,0.6c-0.3,0.2-0.6,0.3-0.9,0.5s-0.6,0.3-0.9,0.5s-0.6,0.3-0.9,0.5l0,0
						C259.9-249.1,261.1-249.8,262.2-250.5L262.2-250.5z"/>
				</g>
			</g>
		</g>
            <g>
			<g>
				<g>
					<path class="st3" d="M255.4-253.2c0.3-0.2,0.5-0.3,0.8-0.5c0.3-0.2,0.5-0.3,0.8-0.5c0.3-0.2,0.5-0.3,0.8-0.5
						c0.3-0.2,0.5-0.3,0.8-0.5l0,0C257.5-254.5,256.5-253.8,255.4-253.2L255.4-253.2z"/>
				</g>
			</g>
		</g>
            <g>
			<g>
				<g>
					<path class="st3" d="M258.6-258.2c-3.4,0-6.2,2.8-6.2,6.2s2.8,6.2,6.2,6.2c3.5,0,6.2-2.8,6.2-6.2S262-258.2,258.6-258.2z
						 M264.1-252c0,3-2.4,5.4-5.4,5.4s-5.4-2.4-5.4-5.4s2.4-5.5,5.4-5.5C261.6-257.4,264.1-255,264.1-252z"/>
				</g>
			</g>
		</g>
            <g>
			<g>
				<g>
					<g>
						<path class="st3" d="M254.7-249.6c1.3-0.9,2.6-1.7,3.9-2.5s2.7-1.6,4-2.3c-1.3,0.9-2.6,1.7-3.9,2.5S256-250.3,254.7-249.6z"/>
					</g>
				</g>
			</g>
                <g>
				<g>
					<g>
						<path class="st3" d="M262-252.4c-0.4,0.3-0.8,0.6-1.3,0.9c-0.4,0.3-0.9,0.6-1.3,0.8c-0.5,0.3-0.9,0.5-1.3,0.8
							c-0.5,0.2-0.9,0.5-1.4,0.6l0,0C258.4-250.3,260.2-251.4,262-252.4L262-252.4z"/>
					</g>
				</g>
			</g>
                <g>
				<g>
					<g>
						<path class="st3" d="M255.3-251.6c0.4-0.3,0.8-0.6,1.3-0.9c0.4-0.3,0.9-0.6,1.3-0.8c0.5-0.3,0.9-0.5,1.3-0.8
							c0.5-0.2,0.9-0.5,1.4-0.6l0,0C258.8-253.6,257.1-252.6,255.3-251.6L255.3-251.6z"/>
					</g>
				</g>
			</g>
		</g>
	</g>
</g>
</svg>
