<?xml version="1.0" encoding="utf-8"?>
<!-- Generator: Adobe Illustrator 25.0.1, SVG Export Plug-In . SVG Version: 6.00 Build 0)  -->
<svg version="1.1" id="Слой_1" xmlns="http://www.w3.org/2000/svg" xmlns:xlink="http://www.w3.org/1999/xlink" x="0px" y="0px"
     viewBox="0 0 147.3 78.5" style="enable-background:new 0 0 147.3 78.5;" xml:space="preserve">
<style type="text/css">
	.st0{fill:#FFB05F;}
	.st1{fill:#FFFFFF;}
	.st2{fill:none;stroke:#000000;stroke-miterlimit:10;}
	.st3{fill:#0097AE;}
</style>
    <path class="st0" d="M388.9,66.6l-11-1.8L370.4,49c-0.3-3-3-5.7-6.6-5.7h-26.3V32c0-3-2.7-5.7-6.3-5.7h-60.9c-3.6,0-6.3,2.7-6.3,5.7
	v32.8v9.6v15.2c0,3,2.7,5.7,6.3,5.7h8.4v-1.8c0.9,6.3,6.6,11.3,13.1,11.3c6.3,0,11.3-3.9,13.1-9.6h45.7c1.2,5.7,6.6,9.6,13.1,9.6
	c6.6,0,12.2-4.8,13.1-11V95H389c3.6,0,6.3-2.7,6.3-6.3V74.1C395.2,71.4,392.5,66.6,388.9,66.6z M291.9,101.3c-4.8,0-9.3-3.9-9.3-8.4
	s3.9-8.4,9.3-8.4s9.3,3.9,9.3,8.4S296.6,101.3,291.9,101.3z M291.9,80.1c-6.9,0-12.8,5.4-13.1,11.3h-8.4c-0.9,0-1.8-0.9-1.8-1.8
	V74.4v-9.6V32c0-0.9,0.9-1.8,1.8-1.8h61.2c0.9,0,1.8,0.9,1.8,1.8v13.4v29v17H305C304.4,85.1,298.7,80.1,291.9,80.1z M363.2,101.3
	c-4.8,0-9.3-3.9-9.3-8.4s3.9-8.4,9.3-8.4c4.8,0,9.3,3.9,9.3,8.4S368.3,101.3,363.2,101.3z M388.6,91.7h-12.2
	c-0.6-6.6-6.3-11.6-13.1-11.6s-12.8,5.4-13.1,11.3H338v-17V47.2h26.3c0.9,0,1.8,0.9,1.8,1.8c0,0.3,0,0.3,0,0.9l8.4,17.6
	c0.3,0.3,0.9,0.9,1.8,1.2l12.2,1.8c0,0,0,0,0.3,0s1.8,2.1,1.8,3.6v9.6h-12.2v3.9h12.2v1.8C390.7,90.8,389.8,91.7,388.6,91.7z"/>
    <rect x="73.3" y="-52.8" width="6.3" height="3.9"/>
    <rect x="-0.2" y="-88.6" width="59.1" height="3.9"/>
    <rect x="-0.2" y="-73.4" width="59.1" height="3.9"/>
    <rect x="-0.2" y="-57.9" width="59.1" height="3.9"/>
    <path d="M91.8-71.6c0-1.2-1.8-2.7-3-2.7H75.7c-1.8,0-3.6,1.2-3.6,3v9.3c0,1.8,1.2,3,3.6,3h17.9c1.8,0,3.6-1.2,3.6-3
	c0-0.3,0-0.3,0-0.9L91.8-71.6z M75.7-61.8V-71h12.8c0,0.3,0,0.3,0,0.9l4.5,8.4H75.7V-61.8z"/>
    <circle class="st1" cx="-182.1" cy="32.3" r="21.8"/>
    <path d="M-57-63c1.2,1.2,2.1,2.1,3,3c-4.8,5.4-10.2,10.2-14.9,14.9c-2.7-2.7-5.4-5.4-7.8-7.8c1.2-0.9,2.1-1.8,3.6-3
	c1.2,1.8,3,3.6,4.5,5.4C-64.8-55.2-60.9-59.1-57-63z"/>
    <g>
	<g>
		<path d="M260.3,120c-0.3,0.3-0.9,0.3-0.9,0.9c-0.3,0-0.9,0.3-0.9,0.3c-0.3,0-0.9,0.3-0.9,0.3c-0.3,0-0.9,0.3-0.9,0.3l0,0
			C257.3,121.8,258.8,120.9,260.3,120L260.3,120z"/>
	</g>
        <g>
		<path d="M252.3,116.4c0.3,0,0.3-0.3,0.9-0.3s0.3-0.3,0.9-0.3c0.3,0,0.3-0.3,0.9-0.3s0.3-0.3,0.9-0.3l0,0
			C254.7,115.2,253.5,116.1,252.3,116.4L252.3,116.4z"/>
	</g>
        <g>
		<path d="M256.2,110.7c-3.9,0-7.5,3.6-7.5,7.5s3.6,7.5,7.5,7.5s7.5-3.6,7.5-7.5C263.6,114.3,260,110.7,256.2,110.7z M262.7,118.2
			c0,3.6-3,6.6-6.6,6.6s-6.6-3-6.6-6.6s3-6.6,6.6-6.6C259.4,111.6,262.7,114.3,262.7,118.2z"/>
	</g>
        <g>
		<g>
			<path d="M251.4,120.9c1.2-0.9,3-2.1,4.8-3s3-1.8,4.8-2.7c-1.2,0.9-3,2.1-4.8,3S252.9,120,251.4,120.9z"/>
		</g>
            <g>
			<path d="M260,117.6c-0.3,0.3-0.9,0.9-1.2,1.2c-0.3,0.3-0.9,0.9-1.8,0.9c-0.3,0.3-0.9,0.3-1.8,0.9c-0.3,0.3-1.2,0.3-1.8,0.9l0,0
				C255.6,120,257.9,118.5,260,117.6L260,117.6z"/>
		</g>
            <g>
			<path d="M252.3,118.5c0.3-0.3,0.9-0.9,1.2-1.2s0.9-0.9,1.8-0.9c0.3-0.3,0.9-0.3,1.8-0.9c0.3-0.3,1.2-0.3,1.8-0.9l0,0
				C256.2,116.1,253.8,117.3,252.3,118.5L252.3,118.5z"/>
		</g>
	</g>
</g>
    <line class="st2" x1="163.4" y1="-36.3" x2="216.2" y2="-36.3"/>
    <line class="st2" x1="163.4" y1="-26.1" x2="216.2" y2="-26.1"/>
    <line class="st2" x1="163.4" y1="-15.9" x2="216.2" y2="-15.9"/>
    <g>
	<g>
		<path class="st3" d="M39.1,19.8l-17.3,1.8l16.7,1.8l0,0L39.1,19.8L39.1,19.8z"/>
	</g>
        <g>
		<g>
			<path class="st1" d="M42.6,57.9c-5.2,0-10,5-10,10.3s4.8,10.3,10,10.3s10-5,10-10.3S48.2,57.9,42.6,57.9z M42.6,77.3
				c-4.8,0-8.8-4.1-8.8-9.1c0-0.1,0-0.2,0-0.3c0-0.1,0-0.1,0-0.2s0-0.2,0.1-0.3c0.4-4.6,4.2-8.3,8.8-8.3c5.2,0,8.8,3.7,8.8,9.1
				C51.4,73.2,47.4,77.3,42.6,77.3z"/>
		</g>
	</g>
        <g>
		<g>
			<path class="st1" d="M119.9,57.7c-5.2,0-10,5-10,10.3c0,5.4,4.8,10.3,10,10.3s10-5,10-10.3S125.5,57.7,119.9,57.7z M128.7,68
				c0,5-4,9.1-8.8,9.1s-8.8-4.1-8.8-9.1s4-9.1,8.8-9.1C125.1,58.9,128.7,62.7,128.7,68z"/>
		</g>
	</g>
        <g>
		<g>
			<g>
				<g>
					<path class="st1" d="M33,68.5H18c-1.4,0-2.6-1.2-2.6-2.6c-0.1-9.7-0.2-57.7-0.2-59c0-3.5,2.9-6.4,6.5-6.4L83.9,0c0,0,0,0,0.1,0
						c1.6,0,3.1,0.6,4.3,1.8C89.4,2.9,90,4.4,90.1,6c0.2,29,0.3,50.3,0.3,61.6v0.5l-38.9,0.3v-1l37.9-0.3c0-11.4-0.1-32.5-0.3-61.1
						c0-1.4-0.5-2.6-1.5-3.6S85.4,0.9,84,0.9L21.6,1.5c-3,0-5.4,2.5-5.5,5.4c0,1.2,0.1,49.2,0.2,58.9c0,0.9,0.7,1.6,1.6,1.6h15
						L33,68.5L33,68.5z"/>
				</g>
			</g>
            <g>
				<path class="st1" d="M129.9,40l-8.5-18c-0.8-1.7-2.6-2.9-4.5-2.9H89.4v-1h27.5c2.3,0,4.4,1.3,5.4,3.4l8.5,17.9L129.9,40z"/>
			</g>
		</g>
            <g>
			<path class="st1" d="M145.3,68.4h-0.1c-4.5-0.2-9.5-0.4-15.6-0.4v-1c6.1,0,11.1,0.1,15.6,0.4c0.3,0,0.6-0.1,0.8-0.3
				c0.2-0.2,0.3-0.5,0.3-0.8l-0.5-17.4c0-0.4-0.2-0.7-0.6-0.9L130,40.2l0.5-0.9l15.2,7.8c0.7,0.3,1.1,1,1.1,1.8l0.5,17.4
				c0,0.6-0.2,1.1-0.6,1.5C146.3,68.2,145.8,68.4,145.3,68.4z"/>
		</g>
            <g>
			<rect x="89.4" y="67.1" class="st1" width="21.7" height="1"/>
		</g>
	</g>
        <g>
		<path class="st1" d="M117.2,39.6H97.6c-1,0-1.8-0.8-1.8-1.9V27.6c0-1,0.8-1.9,1.8-1.9H113c0.7,0,1.4,0.4,1.7,1.1l4.2,10.2
			c0.2,0.6,0.2,1.3-0.2,1.8S117.8,39.6,117.2,39.6z M97.6,26.2c-0.7,0-1.3,0.6-1.3,1.4v10.1c0,0.8,0.6,1.4,1.3,1.4h19.6
			c0.4,0,0.8-0.2,1.1-0.6c0.3-0.4,0.3-0.9,0.1-1.3L114.2,27c-0.2-0.5-0.7-0.8-1.2-0.8H97.6z"/>
	</g>
        <g>
		<rect x="135.3" y="59.2" class="st1" width="11.3" height="1"/>
	</g>
        <g>
		<rect x="96.1" y="48.1" class="st1" width="4.2" height="1"/>
	</g>
        <g>
		<g>
			<path class="st3" d="M56.6,39.5L56.6,39.5L56.6,39.5L52.8,36l0,0l-6.5-5.9l4-4.4l5.8,6.4l13-15.2l4.4,4L56.6,39.5z M53.7,35.9
				l2.8,2.6l16-17.5l-3.3-3l-13,15.2l-5.8-6.4l-3,3.3L53.7,35.9L53.7,35.9z"/>
		</g>
	</g>
        <g>
		<g>
			<g>
				<g>
					<g>
						<path class="st3" d="M48.5,70.4c-0.4,0.3-1,0.6-1.4,1c-0.4,0.3-1,0.6-1.5,0.9s-1,0.6-1.5,0.8c-0.5,0.3-1,0.6-1.5,0.8l0,0
							C44.7,72.6,46.6,71.5,48.5,70.4L48.5,70.4z"/>
					</g>
				</g>
			</g>
		</g>
            <g>
			<g>
				<g>
					<g>
						<path class="st3" d="M37.1,65.8c0.4-0.3,0.9-0.6,1.3-0.9c0.4-0.3,0.9-0.6,1.3-0.8c0.4-0.3,0.9-0.5,1.3-0.8
							c0.4-0.3,0.9-0.5,1.4-0.8l0,0C40.7,63.6,38.9,64.7,37.1,65.8L37.1,65.8z"/>
					</g>
				</g>
			</g>
		</g>
            <g>
			<g>
				<g>
					<g>
						<g>
							<path class="st3" d="M35.9,71.8c2.1-1.5,4.3-2.8,6.5-4.1c2.2-1.3,4.5-2.6,6.7-3.8c-2.1,1.5-4.3,2.8-6.5,4.1
								C40.5,69.3,38.2,70.6,35.9,71.8z"/>
						</g>
					</g>
				</g>
			</g>
                <g>
				<g>
					<g>
						<g>
							<path class="st3" d="M48.2,67.1c-0.7,0.6-1.3,1.1-2.1,1.5c-0.7,0.5-1.5,1-2.2,1.4c-0.8,0.4-1.5,0.9-2.2,1.3
								c-0.8,0.4-1.5,0.8-2.4,1.1v-0.1C42.2,70.5,45.2,68.8,48.2,67.1L48.2,67.1z"/>
						</g>
					</g>
				</g>
			</g>
                <g>
				<g>
					<g>
						<g>
							<path class="st3" d="M37,68.5c0.7-0.6,1.3-1.1,2.1-1.5c0.7-0.5,1.5-1,2.2-1.4c0.8-0.4,1.5-0.9,2.2-1.3
								c0.8-0.4,1.5-0.8,2.4-1.1v0.1C42.9,65,39.9,66.8,37,68.5L37,68.5z"/>
						</g>
					</g>
				</g>
			</g>
		</g>
	</g>
        <g>
		<g>
			<g>
				<g>
					<g>
						<path class="st3" d="M125.8,70.7c-0.4,0.3-1,0.6-1.4,1c-0.4,0.3-1,0.6-1.5,0.9s-1,0.6-1.5,0.8c-0.5,0.3-1,0.6-1.5,0.8l0,0
							C122,73,123.9,71.8,125.8,70.7L125.8,70.7z"/>
					</g>
				</g>
			</g>
		</g>
            <g>
			<g>
				<g>
					<g>
						<path class="st3" d="M114.4,66.1c0.4-0.3,0.9-0.6,1.3-0.9s0.9-0.6,1.3-0.8c0.4-0.3,0.9-0.5,1.3-0.8s0.9-0.5,1.4-0.8l0,0
							C118,63.9,116.2,65,114.4,66.1L114.4,66.1z"/>
					</g>
				</g>
			</g>
		</g>
            <g>
			<g>
				<g>
					<g>
						<g>
							<path class="st3" d="M113.2,72.1c2.1-1.5,4.3-2.8,6.5-4.1c2.2-1.3,4.5-2.6,6.7-3.8c-2.1,1.5-4.3,2.8-6.5,4.1
								C117.8,69.6,115.5,70.9,113.2,72.1z"/>
						</g>
					</g>
				</g>
			</g>
                <g>
				<g>
					<g>
						<g>
							<path class="st3" d="M125.5,67.4c-0.7,0.6-1.3,1.1-2.1,1.5c-0.7,0.5-1.5,1-2.2,1.4c-0.8,0.4-1.5,0.9-2.2,1.3
								c-0.8,0.4-1.5,0.8-2.4,1.1v-0.1C119.5,70.9,122.5,69.1,125.5,67.4L125.5,67.4z"/>
						</g>
					</g>
				</g>
			</g>
                <g>
				<g>
					<g>
						<g>
							<path class="st3" d="M114.3,68.8c0.7-0.6,1.3-1.1,2.1-1.5c0.7-0.5,1.5-1,2.2-1.4c0.8-0.4,1.5-0.9,2.2-1.3
								c0.8-0.4,1.5-0.8,2.4-1.1v0.1C120.2,65.3,117.2,67.1,114.3,68.8L114.3,68.8z"/>
						</g>
					</g>
				</g>
			</g>
		</g>
	</g>
        <g>
		<g>
			<path class="st3" d="M82.4,19.5c-1.8-3.6-4.5-6.6-7.5-8.7C72,8.8,68.4,7,64.8,6.1c-0.9,0-1.8-0.3-2.7-0.3c-0.3,0-0.9,0-1.2,0H60
				c-0.3,0-0.3,0-0.9,0h-5.4h-11L0,6.4l43,0.9l10.7,0.3h5.4c0.3,0,0.3,0,0.9,0h0.3c0.3,0,0.9,0,1.2,0c0.9,0,1.8,0.3,2.7,0.3
				c3,0.9,6.3,2.7,8.7,4.8c2.4,2.1,4.5,4.8,6.3,7.8c1.2,3,2.1,6.3,1.8,9.6c0,3-0.9,6.6-2.7,9.3c-3,5.7-8.7,10.2-14.9,11.3
				c-3,0.3-6.3,0.3-9.3-0.3c-3-0.9-5.7-2.1-8.4-4.5c-2.1-2.1-4.5-4.5-5.7-7.5c-0.3-0.9-0.9-2.1-1.2-3.9c0-0.3,0-0.9,0-1.2
				s0-0.9,0-1.2c0-0.3,0-0.9,0-1.2v-0.3V30v-0.3c0,0,0,0,0-0.3c0,0,0,0,0-0.3H31v0.3l0,0l0,0l0,0v0.3v0.9c0,0.3,0,0.9,0,1.8
				c0,0.3,0,0.9,0.3,1.2c0,0.3,0,0.9,0.3,1.2c0.3,2.1,1.2,3.9,2.1,5.7c1.8,3.6,4.5,6.9,7.8,9.3c3,2.7,6.9,4.5,11,5.4
				c3.9,0.9,7.8,0.9,11.9,0c7.8-1.8,14.3-7.5,17.9-14.3c1.8-3.6,2.7-7.5,2.7-11.3C85.1,26.4,84.2,22.5,82.4,19.5z"/>
		</g>
	</g>
        <g>
		<path class="st3" d="M39.4,13l-26,1.8l26,1.8l0,0V13L39.4,13z"/>
	</g>
</g>
</svg>
