<?xml version="1.0" encoding="utf-8"?>
<!-- Generator: Adobe Illustrator 25.0.1, SVG Export Plug-In . SVG Version: 6.00 Build 0)  -->
<svg version="1.1" id="Слой_1" xmlns="http://www.w3.org/2000/svg" xmlns:xlink="http://www.w3.org/1999/xlink" x="0px" y="0px"
     viewBox="0 0 152.5 81.5" style="enable-background:new 0 0 152.5 81.5;" xml:space="preserve">
<style type="text/css">
	.st0{fill:#FFB05F;}
	.st1{fill:#FFFFFF;}
	.st2{fill:none;stroke:#000000;stroke-miterlimit:10;}
	.st3{fill:#0097AE;}
	.st4{opacity:0.69;enable-background:new    ;}
	.st5{opacity:0.6;}
	.st6{fill:#1D1D1B;}
	.st7{fill:none;stroke:#000000;stroke-width:0.5;stroke-miterlimit:10;}
</style>
    <path class="st0" d="M563.6,42.5l-11-1.8l-7.5-15.8c-0.3-3-3-5.7-6.6-5.7h-26.3V7.9c0-3-2.7-5.7-6.3-5.7H445c-3.6,0-6.3,2.7-6.3,5.7
	v32.8v9.6v15.2c0,3,2.7,5.7,6.3,5.7h8.4v-1.8c0.9,6.3,6.6,11.3,13.1,11.3c6.3,0,11.3-3.9,13.1-9.6h45.7c1.2,5.7,6.6,9.6,13.1,9.6
	c6.6,0,12.2-4.8,13.1-11v1.2h12.2c3.6,0,6.3-2.7,6.3-6.3V50C569.9,47.3,567.2,42.5,563.6,42.5z M466.6,77.2c-4.8,0-9.3-3.9-9.3-8.4
	s3.9-8.4,9.3-8.4s9.3,3.9,9.3,8.4S471.3,77.2,466.6,77.2z M466.6,56c-6.9,0-12.8,5.4-13.1,11.3h-8.4c-0.9,0-1.8-0.9-1.8-1.8V50.3
	v-9.6V7.9c0-0.9,0.9-1.8,1.8-1.8h61.2c0.9,0,1.8,0.9,1.8,1.8v13.4v29v17h-28.4C479.1,61,473.4,56,466.6,56z M537.9,77.2
	c-4.8,0-9.3-3.9-9.3-8.4s3.9-8.4,9.3-8.4c4.8,0,9.3,3.9,9.3,8.4S543,77.2,537.9,77.2z M563.3,67.6h-12.2C550.5,61,544.8,56,538,56
	s-12.8,5.4-13.1,11.3h-12.2v-17V23.1H539c0.9,0,1.8,0.9,1.8,1.8c0,0.3,0,0.3,0,0.9l8.4,17.6c0.3,0.3,0.9,0.9,1.8,1.2l12.2,1.8
	c0,0,0,0,0.3,0s1.8,2.1,1.8,3.6v9.6h-12.2v3.9h12.2v1.8C565.4,66.7,564.5,67.6,563.3,67.6z"/>
    <rect x="508" y="-97.2" width="6.3" height="3.9"/>
    <rect x="434.5" y="-133" width="59.1" height="3.9"/>
    <rect x="434.5" y="-117.8" width="59.1" height="3.9"/>
    <rect x="434.5" y="-102.3" width="59.1" height="3.9"/>
    <path d="M526.5-116c0-1.2-1.8-2.7-3-2.7h-13.1c-1.8,0-3.6,1.2-3.6,3v9.3c0,1.8,1.2,3,3.6,3h17.9c1.8,0,3.6-1.2,3.6-3
	c0-0.3,0-0.3,0-0.9L526.5-116z M510.4-106.2v-9.2h12.8c0,0.3,0,0.3,0,0.9l4.5,8.4h-17.3L510.4-106.2L510.4-106.2z"/>
    <circle class="st1" cx="-345.2" cy="-96.9" r="21.8"/>
    <path d="M377.7-107.4c1.2,1.2,2.1,2.1,3,3c-4.8,5.4-10.2,10.2-14.9,14.9c-2.7-2.7-5.4-5.4-7.8-7.8c1.2-0.9,2.1-1.8,3.6-3
	c1.2,1.8,3,3.6,4.5,5.4C369.9-99.6,373.8-103.5,377.7-107.4z"/>
    <g>
	<g>
		<path d="M435,95.9c-0.3,0.3-0.9,0.3-0.9,0.9c-0.3,0-0.9,0.3-0.9,0.3c-0.3,0-0.9,0.3-0.9,0.3c-0.3,0-0.9,0.3-0.9,0.3l0,0
			C432,97.7,433.5,96.8,435,95.9L435,95.9z"/>
	</g>
        <g>
		<path d="M427,92.3c0.3,0,0.3-0.3,0.9-0.3s0.3-0.3,0.9-0.3c0.3,0,0.3-0.3,0.9-0.3s0.3-0.3,0.9-0.3l0,0
			C429.4,91.1,428.2,92,427,92.3L427,92.3z"/>
	</g>
        <g>
		<path d="M430.9,86.6c-3.9,0-7.5,3.6-7.5,7.5s3.6,7.5,7.5,7.5s7.5-3.6,7.5-7.5C438.3,90.2,434.7,86.6,430.9,86.6z M437.4,94.1
			c0,3.6-3,6.6-6.6,6.6s-6.6-3-6.6-6.6s3-6.6,6.6-6.6C434.1,87.5,437.4,90.2,437.4,94.1z"/>
	</g>
        <g>
		<g>
			<path d="M426.1,96.8c1.2-0.9,3-2.1,4.8-3s3-1.8,4.8-2.7c-1.2,0.9-3,2.1-4.8,3S427.6,95.9,426.1,96.8z"/>
		</g>
            <g>
			<path d="M434.7,93.5c-0.3,0.3-0.9,0.9-1.2,1.2c-0.3,0.3-0.9,0.9-1.8,0.9c-0.3,0.3-0.9,0.3-1.8,0.9c-0.3,0.3-1.2,0.3-1.8,0.9l0,0
				C430.3,95.9,432.6,94.4,434.7,93.5L434.7,93.5z"/>
		</g>
            <g>
			<path d="M427,94.4c0.3-0.3,0.9-0.9,1.2-1.2c0.3-0.3,0.9-0.9,1.8-0.9c0.3-0.3,0.9-0.3,1.8-0.9c0.3-0.3,1.2-0.3,1.8-0.9l0,0
				C430.9,92,428.5,93.2,427,94.4L427,94.4z"/>
		</g>
	</g>
</g>
    <line class="st2" x1="598.1" y1="-80.7" x2="650.9" y2="-80.7"/>
    <line class="st2" x1="598.1" y1="-70.5" x2="650.9" y2="-70.5"/>
    <line class="st2" x1="598.1" y1="-60.3" x2="650.9" y2="-60.3"/>
    <g>
	<g>
		<path class="st3" d="M40.5,20.6l-17.9,1.9l17.3,1.9l0,0L40.5,20.6L40.5,20.6z"/>
	</g>
        <g>
		<g>
			<path class="st1" d="M44.1,60.1c-5.3,0-10.4,5.1-10.4,10.7s4.9,10.7,10.4,10.7s10.4-5.1,10.4-10.7S49.9,60.1,44.1,60.1z
				 M44.1,80.2c-4.9,0-9.2-4.2-9.2-9.5c0-0.1,0-0.2,0-0.3s0-0.1,0-0.2c0-0.1,0-0.2,0.1-0.3c0.4-4.7,4.3-8.6,9.2-8.6
				c5.3,0,9.2,3.8,9.2,9.5C53.2,76,49.1,80.2,44.1,80.2z"/>
		</g>
	</g>
        <g>
		<g>
			<path class="st1" d="M124.1,59.9c-5.3,0-10.4,5.1-10.4,10.7c0,5.6,4.9,10.7,10.4,10.7c5.3,0,10.4-5.1,10.4-10.7
				C134.5,65.1,129.9,59.9,124.1,59.9z M133.3,70.6c0,5.1-4.1,9.5-9.2,9.5c-5,0-9.2-4.2-9.2-9.5c0-5.2,4.1-9.5,9.2-9.5
				C129.5,61.1,133.3,65.1,133.3,70.6z"/>
		</g>
	</g>
        <g>
		<g>
			<g>
				<g>
					<path class="st1" d="M34.1,71.1H18.6c-1.4,0-2.7-1.2-2.7-2.7c-0.1-10.1-0.2-59.9-0.2-61.2c0-3.6,3-6.7,6.7-6.7L86.9,0
						c0,0,0,0,0.1,0c1.6,0,3.2,0.6,4.4,1.9c1.2,1.1,1.8,2.6,1.9,4.3c0.2,30.1,0.3,52.1,0.3,63.8v0.5l-40.3,0.3v-1l39.3-0.3
						c0-11.8-0.1-33.7-0.3-63.4c0-1.4-0.5-2.7-1.5-3.7s-2.3-1.5-3.7-1.5L22.3,1.5c-3.1,0-5.6,2.6-5.7,5.6c0,1.2,0.1,51,0.2,61.1
						c0,0.9,0.7,1.6,1.6,1.6h15.5L34.1,71.1L34.1,71.1z"/>
				</g>
			</g>
            <g>
				<path class="st1" d="M134.5,41.6l-8.8-18.7c-0.8-1.7-2.7-3-4.6-3H92.6v-1h28.5c2.4,0,4.5,1.3,5.6,3.5l8.8,18.6L134.5,41.6z"/>
			</g>
		</g>
            <g>
			<path class="st1" d="M150.5,71h-0.1c-4.6-0.2-9.9-0.4-16.1-0.4v-1c6.3,0,11.5,0.1,16.1,0.4c0.3,0,0.6-0.1,0.8-0.3
				c0.2-0.2,0.3-0.5,0.3-0.8L151,50.7c0-0.4-0.2-0.7-0.6-0.9l-15.7-8.1l0.5-0.9l15.7,8.1c0.7,0.3,1.1,1,1.1,1.9l0.5,18.1
				c0,0.6-0.2,1.1-0.6,1.5C151.5,70.8,151,71,150.5,71z"/>
		</g>
            <g>
			<rect x="92.6" y="69.6" class="st1" width="22.4" height="1"/>
		</g>
	</g>
        <g>
		<path class="st1" d="M121.4,41.1H101c-1,0-1.9-0.8-1.9-2V28.6c0-1,0.8-2,1.9-2h15.9c0.7,0,1.4,0.4,1.7,1.1l4.3,10.6
			c0.2,0.6,0.2,1.3-0.2,1.9C122.5,40.7,122,41.1,121.4,41.1z M101,27.2c-0.7,0-1.3,0.6-1.3,1.4v10.5c0,0.8,0.6,1.4,1.3,1.4h20.3
			c0.4,0,0.8-0.2,1.1-0.6c0.3-0.4,0.3-0.9,0.1-1.3L118.3,28c-0.2-0.5-0.7-0.8-1.2-0.8C117,27.2,101,27.2,101,27.2z"/>
	</g>
        <g>
		<rect x="140.1" y="61.4" class="st1" width="11.7" height="1"/>
	</g>
        <g>
		<rect x="99.5" y="49.9" class="st1" width="4.3" height="1"/>
	</g>
        <g>
		<g>
			<path class="st3" d="M58.6,41L58.6,41L58.6,41l-3.9-3.6l0,0l-6.7-6.1l4.1-4.5l6,6.7l13.5-15.7l4.5,4.1L58.6,41z M55.6,37.2
				l2.9,2.7l16.6-18.2l-3.4-3.1L58.2,34.5l-6-6.7l-3,3.4L55.6,37.2L55.6,37.2z"/>
		</g>
	</g>
        <g>
		<g>
			<g>
				<g>
					<g>
						<path class="st3" d="M50.2,73c-0.4,0.3-1,0.6-1.4,1c-0.4,0.3-1,0.6-1.5,0.9c-0.5,0.3-1,0.6-1.5,0.8c-0.5,0.3-1,0.6-1.5,0.8
							l0,0C46.3,75.3,48.2,74.2,50.2,73L50.2,73z"/>
					</g>
				</g>
			</g>
		</g>
            <g>
			<g>
				<g>
					<g>
						<path class="st3" d="M38.4,68.3c0.4-0.3,0.9-0.6,1.3-0.9c0.4-0.3,0.9-0.6,1.3-0.8c0.4-0.3,0.9-0.5,1.3-0.8
							c0.4-0.3,0.9-0.5,1.4-0.8l0,0C42.2,66,40.3,67.2,38.4,68.3L38.4,68.3z"/>
					</g>
				</g>
			</g>
		</g>
            <g>
			<g>
				<g>
					<g>
						<g>
							<path class="st3" d="M37.1,74.5c2.2-1.5,4.4-2.9,6.7-4.2c2.3-1.3,4.6-2.7,6.9-3.9c-2.2,1.5-4.4,2.9-6.7,4.2
								C42,71.9,39.6,73.2,37.1,74.5z"/>
						</g>
					</g>
				</g>
			</g>
                <g>
				<g>
					<g>
						<g>
							<path class="st3" d="M49.9,69.6c-0.7,0.6-1.3,1.1-2.2,1.5c-0.7,0.5-1.5,1-2.3,1.4c-0.8,0.4-1.5,0.9-2.3,1.3
								c-0.8,0.4-1.5,0.8-2.5,1.1v-0.1C43.7,73.1,46.8,71.4,49.9,69.6L49.9,69.6z"/>
						</g>
					</g>
				</g>
			</g>
                <g>
				<g>
					<g>
						<g>
							<path class="st3" d="M38.3,71.1c0.7-0.6,1.3-1.1,2.2-1.5c0.7-0.5,1.5-1,2.3-1.4c0.8-0.4,1.5-0.9,2.3-1.3
								c0.8-0.4,1.5-0.8,2.5-1.1v0.1C44.4,67.5,41.3,69.3,38.3,71.1L38.3,71.1z"/>
						</g>
					</g>
				</g>
			</g>
		</g>
	</g>
        <g>
		<g>
			<g>
				<g>
					<g>
						<path class="st3" d="M130.2,73.3c-0.4,0.3-1,0.6-1.4,1c-0.4,0.3-1,0.6-1.5,0.9c-0.5,0.3-1,0.6-1.5,0.8c-0.5,0.3-1,0.6-1.5,0.8
							l0,0C126.3,75.7,128.3,74.5,130.2,73.3L130.2,73.3z"/>
					</g>
				</g>
			</g>
		</g>
            <g>
			<g>
				<g>
					<g>
						<path class="st3" d="M118.5,68.6c0.4-0.3,0.9-0.6,1.3-0.9c0.4-0.3,0.9-0.6,1.3-0.8c0.4-0.3,0.9-0.5,1.3-0.8s0.9-0.5,1.4-0.8
							l0,0C122.2,66.3,120.3,67.5,118.5,68.6L118.5,68.6z"/>
					</g>
				</g>
			</g>
		</g>
            <g>
			<g>
				<g>
					<g>
						<g>
							<path class="st3" d="M117.3,74.8c2.2-1.5,4.4-2.9,6.7-4.2c2.3-1.3,4.6-2.7,6.9-3.9c-2.2,1.5-4.4,2.9-6.7,4.2
								C122,72.2,119.6,73.5,117.3,74.8z"/>
						</g>
					</g>
				</g>
			</g>
                <g>
				<g>
					<g>
						<g>
							<path class="st3" d="M129.9,69.9c-0.7,0.6-1.3,1.1-2.2,1.5c-0.7,0.5-1.5,1-2.3,1.4c-0.8,0.4-1.5,0.9-2.3,1.3
								c-0.8,0.4-1.5,0.8-2.5,1.1v-0.1C123.7,73.5,126.8,71.7,129.9,69.9L129.9,69.9z"/>
						</g>
					</g>
				</g>
			</g>
                <g>
				<g>
					<g>
						<g>
							<path class="st3" d="M118.4,71.4c0.7-0.6,1.3-1.1,2.2-1.5c0.7-0.5,1.5-1,2.3-1.4c0.8-0.4,1.5-0.9,2.3-1.3
								c0.8-0.4,1.5-0.8,2.5-1.1v0.1C124.5,67.8,121.4,69.6,118.4,71.4L118.4,71.4z"/>
						</g>
					</g>
				</g>
			</g>
		</g>
	</g>
        <g>
		<g>
			<path class="st3" d="M85.3,20.3c-1.9-3.7-4.6-6.9-7.7-9.1c-3-2.1-6.7-3.9-10.5-4.8c-0.9,0-1.9-0.3-2.8-0.3c-0.3,0-0.9,0-1.2,0
				h-0.9c-0.3,0-0.3,0-0.9,0h-5.6H44.2L0,6.7l44.5,0.9l11.1,0.3h5.6c0.3,0,0.3,0,0.9,0h0.3c0.3,0,0.9,0,1.2,0c0.9,0,1.9,0.3,2.8,0.3
				c3.1,0.9,6.5,2.8,9.1,4.9c2.5,2.2,4.6,4.9,6.5,8.1c1.2,3.1,2.2,6.6,1.9,10c0,3.1-0.9,6.9-2.8,9.7c-3.1,6-9.1,10.6-15.4,11.7
				c-3.1,0.3-6.5,0.3-9.7-0.3c-3.1-0.9-5.9-2.2-8.7-4.6c-2.2-2.2-4.6-4.6-5.9-7.8c-0.3-0.9-0.9-2.2-1.2-4c0-0.3,0-0.9,0-1.2
				c0-0.3,0-0.9,0-1.2c0-0.3,0-0.9,0-1.2v-0.3v-0.6V31c0,0,0,0,0-0.3c0,0,0,0,0-0.3h-8.1v0.3l0,0l0,0l0,0V31v0.9c0,0.3,0,0.9,0,1.9
				c0,0.3,0,0.9,0.3,1.2c0,0.3,0,0.9,0.3,1.2c0.3,2.2,1.2,4,2.2,6c1.9,3.7,4.6,7.2,8.1,9.7c3.1,2.8,7.1,4.6,11.4,5.6
				c4,0.9,8.1,0.9,12.3,0c8.1-1.9,14.8-7.8,18.5-14.8c1.9-3.7,2.8-7.8,2.8-11.7C88.1,27.4,87.2,23.3,85.3,20.3z"/>
		</g>
	</g>
        <g>
		<path class="st3" d="M40.8,13.5l-26.9,1.9l26.9,1.9l0,0V13.5L40.8,13.5z"/>
	</g>
</g>
    <g>
	<path class="st3" d="M195.7,520c0,32.2-26.8,59.1-59.8,59.1c-32.2,0-59.8-27.6-59.1-59.8c0.8-33,26.8-59.8,59.8-59.8
		C168.8,460.2,195.7,487.8,195.7,520z M165.7,489.3c-13.8,14.6-27.6,28.4-43,43.7c-5.4-6.9-10.7-13-16.1-19.2
		c-4.6,4.6-7.7,8.4-11.5,12.3c10,9.2,19.9,19.2,29.1,28.4c17.6-17.6,35.3-35.3,52.9-53.7C174.2,497.7,170.3,493.9,165.7,489.3z"/>
        <path class="st1" d="M165.7,489.3c4.6,4.6,8.4,8.4,11.5,11.5c-18.4,18.4-36.1,36.1-52.9,53.7c-9.2-9.2-19.2-19.2-28.4-28.4
		c3.1-3.8,6.9-6.9,11.5-12.3c5.4,6.1,10.7,12.3,16.1,19.2C138.1,517.7,151.9,503.9,165.7,489.3z"/>
</g>
    <path d="M328.3,365.6H171.4c-14.3,0-26,11.7-26,26v5.9v33.9h9.8H234h111.3v61.9c0,9.1-7.2,16.3-16.3,16.3h-95.1v9.8h94.4
	c14.3,0,26-11.7,26-26v-61.9v-33.9v-5.9C354.4,377.3,342.6,365.6,328.3,365.6z M344.6,421.6H154.5v-14.3h190.1V421.6L344.6,421.6z
	 M344.6,397.5H154.5v-5.9c0-9.1,7.2-16.3,16.3-16.3h157.5c9.1,0,16.3,7.2,16.3,16.3L344.6,397.5L344.6,397.5z"/>
    <g>
	<path d="M309.4,502.3c-4.6,0-8.5-1.3-11.7-3.9c-3.3,2.6-7.8,3.9-11.7,3.9c-11.1,0-20.2-9.1-20.2-20.2s9.1-20.2,20.2-20.2
		c4.6,0,8.5,1.3,11.7,3.9c3.3-2.6,7.8-3.9,11.7-3.9c11.1,0,20.2,9.1,20.2,20.2C330.3,493.2,321.1,502.3,309.4,502.3z M297.7,485.4
		l3.3,3.9c2,2.6,5.2,3.9,8.5,3.9c6.5,0,11.7-5.2,11.7-11.7s-5.2-11.7-11.7-11.7c-3.3,0-6.5,1.3-8.5,3.9l-3.3,3.9l-3.3-3.9
		c-2-2.6-5.2-3.9-8.5-3.9c-6.5,0-11.7,5.2-11.7,11.7s5.2,11.7,11.7,11.7c3.3,0,6.5-1.3,8.5-3.9L297.7,485.4z"/>
</g>
    <g>
	<path d="M293.1,485.4c-0.7,0.7-1.3,0.7-2,1.3s-1.3,0.7-2,1.3c-0.7,0.7-1.3,0.7-2,1.3s-1.3,0.7-2,1.3l0,0
		C287.9,488,290.5,486.7,293.1,485.4L293.1,485.4z"/>
</g>
    <g>
	<path d="M278.2,478.9c0.7-0.7,1.3-0.7,2-1.3c0.7-0.7,1.3-0.7,2-1.3s1.3-0.7,2-1.3c0.7-0.7,1.3-0.7,2-1.3l0,0
		C282.7,476.3,280.8,477.6,278.2,478.9L278.2,478.9z"/>
</g>
    <g>
	<g>
		<path d="M276.9,487.3c2.6-2,5.9-3.9,8.5-5.2c2.6-2,5.9-3.3,9.1-5.2c-2.6,2-5.9,3.9-8.5,5.2C282.7,484.1,279.5,485.4,276.9,487.3z"
        />
	</g>
        <g>
		<path d="M292.5,480.8c-0.7,0.7-2,1.3-2.6,2c-0.7,0.7-2,1.3-2.6,2c-1.3,0.7-2,1.3-3.3,2s-2,1.3-3.3,1.3l0,0
			C284.7,485.4,288.6,483.4,292.5,480.8L292.5,480.8z"/>
	</g>
        <g>
		<path d="M278.2,482.8c0.7-0.7,2-1.3,2.6-2c0.7-0.7,2-1.3,2.6-2c1.3-0.7,2-1.3,3.3-2s2-1.3,3.3-1.3l0,0
			C286,478.2,282.1,480.8,278.2,482.8L278.2,482.8z"/>
	</g>
</g>
    <g>
	<path d="M317.2,485.4c-0.7,0.7-1.3,0.7-2,1.3c-0.7,0.7-1.3,0.7-2,1.3c-0.7,0.7-1.3,0.7-2,1.3s-1.3,0.7-2,1.3l0,0
		C312,488,314.6,486.7,317.2,485.4L317.2,485.4z"/>
</g>
    <g>
	<path d="M302.3,478.9c0.7-0.7,1.3-0.7,2-1.3c0.7-0.7,1.3-0.7,2-1.3s1.3-0.7,2-1.3c0.7-0.7,1.3-0.7,2-1.3l0,0
		C306.8,476.3,304.2,477.6,302.3,478.9L302.3,478.9z"/>
</g>
    <g>
	<g>
		<path d="M300.3,487.3c2.6-2,5.9-3.9,8.5-5.2c2.6-2,5.9-3.3,9.1-5.2c-2.6,2-5.9,3.9-8.5,5.2C306.8,484.1,303.6,485.4,300.3,487.3z"
        />
	</g>
        <g>
		<path d="M316.6,480.8c-0.7,0.7-2,1.3-2.6,2c-0.7,0.7-2,1.3-2.6,2c-1.3,0.7-2,1.3-3.3,2s-2,1.3-3.3,1.3l0,0
			C308.8,485.4,312.7,483.4,316.6,480.8L316.6,480.8z"/>
	</g>
        <g>
		<path d="M301.6,482.8c0.7-0.7,2-1.3,2.6-2c0.7-0.7,2-1.3,2.6-2c1.3-0.7,2-1.3,3.3-2s2-1.3,3.3-1.3l0,0
			C309.4,478.2,306.2,480.8,301.6,482.8L301.6,482.8z"/>
	</g>
</g>
    <g>
	<g>
		<path class="st3" d="M-10.5,509.9c-9.5,0-17.3,7.7-17.3,17.3s7.7,17.3,17.3,17.3s17.3-7.7,17.3-17.3S-1,509.9-10.5,509.9z
			 M4.6,527.2c0,8.3-6.8,15.1-15.1,15.1s-15.1-6.8-15.1-15.1s6.8-15.2,15.1-15.2S4.6,518.9,4.6,527.2z"/>
	</g>
</g>
    <g>
	<g>
		<g>
			<path class="st3" d="M76.2,594.8c-0.7,0.5-1.6,1.1-2.3,1.6s-1.6,1-2.4,1.5c-0.8,0.4-1.6,1-2.4,1.4s-1.7,1-2.4,1.4l0,0
				C69.8,598.6,73.1,596.7,76.2,594.8L76.2,594.8z"/>
		</g>
	</g>
        <g>
		<g>
			<path class="st3" d="M57.2,587.2c0.7-0.5,1.5-1,2.2-1.5c0.7-0.4,1.5-1,2.2-1.4s1.5-0.8,2.2-1.3c0.7-0.4,1.5-0.8,2.3-1.3l0,0
				C63.3,583.6,60.3,585.4,57.2,587.2L57.2,587.2z"/>
		</g>
	</g>
        <g>
		<g>
			<path class="st3" d="M66.3,573.3c-9.5,0-17.3,7.7-17.3,17.3s7.7,17.3,17.3,17.3s17.3-7.7,17.3-17.3S75.8,573.3,66.3,573.3z
				 M81.4,590.6c0,8.3-6.8,15.1-15.1,15.1s-15.1-6.8-15.1-15.1s6.8-15.2,15.1-15.2C74.7,575.4,81.4,582.3,81.4,590.6z"/>
		</g>
	</g>
        <g>
		<g>
			<g>
				<path class="st3" d="M55.3,597.2c3.5-2.4,7.2-4.6,10.8-6.9c3.7-2.1,7.4-4.3,11.2-6.3c-3.5,2.4-7.2,4.6-10.8,6.9
					C62.8,593,59.1,595.3,55.3,597.2z"/>
			</g>
		</g>
            <g>
			<g>
				<path class="st3" d="M75.6,589.4c-1.2,1-2.2,1.8-3.5,2.5c-1.2,0.8-2.4,1.6-3.6,2.3c-1.3,0.7-2.4,1.5-3.7,2.1
					c-1.3,0.6-2.5,1.3-3.9,1.8l0,0C65.8,595.1,70.7,592.3,75.6,589.4L75.6,589.4z"/>
			</g>
		</g>
            <g>
			<g>
				<path class="st3" d="M57,591.8c1.2-1,2.2-1.8,3.5-2.5c1.2-0.8,2.4-1.6,3.6-2.3c1.3-0.7,2.4-1.5,3.7-2.1c1.3-0.6,2.5-1.3,3.9-1.8
					v0.1C66.9,586,62,588.9,57,591.8L57,591.8z"/>
			</g>
		</g>
	</g>
</g>
    <polygon class="st2" points="-130.4,536.9 -141,527.2 -177.5,569.5 -193.7,551.8 -203.5,562.4 -185.5,578.9 -185.5,578.9
	-176.3,587.2 -176.3,587.2 -176.3,587.2 -168.8,579 -168.8,579 "/>
    <g>
	<g>
		<path class="st1" d="M-282.9,53.7h-38.7v-0.3h38.7c6.3,0,11.4-5.1,11.4-11.4V-4.8c0-6.3-5.1-11.4-11.4-11.4h-72
			c-6.2,0-11.3,5.1-11.3,11.4V8h-0.4V-4.8c0-6.5,5.3-11.7,11.7-11.7h72c6.5,0,11.7,5.3,11.7,11.7V42
			C-271.2,48.4-276.5,53.7-282.9,53.7z"/>
        <path class="st1" d="M-282.9,53.9h-39v-0.8h39c6.1,0,11.1-5,11.1-11.1V-4.8c0-6.1-5-11.1-11.1-11.1h-72c-6.1,0-11.1,5-11.1,11.1
			V8.3h-0.8V-4.8c0-6.6,5.4-12,12-12h71.9c6.6,0,12,5.4,12,12V42C-271,48.5-276.3,53.9-282.9,53.9z"/>
	</g>
</g>
    <g>
	<rect x="-366.4" y="-6.2" class="st1" width="95" height="0.3"/>
</g>
    <g>
	<rect x="-366.4" y="-1.6" class="st1" width="95" height="0.3"/>
</g>
    <g>
	<path class="st1" d="M-286.3,48.9c-2.9,0-5.7-1.4-7.5-3.7c-1.8,2.3-4.5,3.7-7.5,3.7c-5.2,0-9.3-4.2-9.3-9.3c0-5.2,4.2-9.3,9.3-9.3
		c2.9,0,5.7,1.4,7.5,3.7c1.8-2.3,4.5-3.7,7.5-3.7c5.2,0,9.3,4.2,9.3,9.3S-281.1,48.9-286.3,48.9z M-293.8,44.6l0.1,0.2
		c1.7,2.4,4.4,3.8,7.3,3.8c5,0,9-4,9-9s-4-9-9-9c-2.9,0-5.6,1.4-7.3,3.8l-0.1,0.2l-0.1-0.3c-1.7-2.4-4.4-3.8-7.3-3.8c-5,0-9,4-9,9
		s4,9,9,9c2.9,0,5.6-1.4,7.3-3.8L-293.8,44.6z"/>
</g>
    <g>
	<g>
		<g>
			<g>
				<path class="st3" d="M-280.5,41.8c-0.4,0.3-1,0.6-1.4,1c-0.4,0.3-1,0.6-1.5,0.9c-0.5,0.3-1,0.6-1.5,0.8c-0.5,0.3-1,0.6-1.5,0.8
					l0,0C-284.4,44.1-282.4,42.9-280.5,41.8L-280.5,41.8z"/>
			</g>
		</g>
	</g>
        <g>
		<g>
			<g>
				<path class="st3" d="M-292,37.2c0.4-0.3,0.9-0.6,1.3-0.9c0.4-0.3,0.9-0.6,1.3-0.8c0.4-0.3,0.9-0.5,1.3-0.8s0.9-0.5,1.4-0.8l0,0
					C-288.3,35.1-290.1,36.1-292,37.2L-292,37.2z"/>
			</g>
		</g>
	</g>
        <g>
		<g>
			<g>
				<g>
					<path class="st3" d="M-293.1,43.2c2.1-1.5,4.3-2.8,6.5-4.1s4.5-2.6,6.7-3.8c-2.1,1.5-4.3,2.8-6.5,4.1S-290.8,42.1-293.1,43.2z"
                    />
				</g>
			</g>
		</g>
            <g>
			<g>
				<g>
					<path class="st3" d="M-280.9,38.6c-0.7,0.6-1.3,1.1-2.1,1.5c-0.7,0.5-1.5,1-2.2,1.4c-0.8,0.4-1.5,0.9-2.2,1.3
						c-0.8,0.4-1.5,0.8-2.4,1.1v-0.1C-286.8,42-283.9,40.3-280.9,38.6L-280.9,38.6z"/>
				</g>
			</g>
		</g>
            <g>
			<g>
				<g>
					<path class="st3" d="M-292.1,40c0.7-0.6,1.3-1.1,2.1-1.5c0.7-0.5,1.5-1,2.2-1.4c0.8-0.4,1.5-0.9,2.2-1.3
						c0.7-0.4,1.5-0.8,2.4-1.1v0.1C-286.2,36.5-289.1,38.2-292.1,40L-292.1,40z"/>
				</g>
			</g>
		</g>
	</g>
</g>
    <g>
	<path class="st1" d="M-349.4,61.9c-14.6,0-26.5-11.9-26.5-26.5S-364,8.9-349.4,8.9s26.5,11.9,26.5,26.5S-334.8,61.9-349.4,61.9z
		 M-349.4,9.3c-14.4,0-26,11.7-26,26s11.7,26,26,26c14.4,0,26-11.7,26-26S-335,9.3-349.4,9.3z"/>
</g>
    <g>
	<path class="st3" d="M-354.2,49.7L-354.2,49.7L-354.2,49.7l-4.8-4.4l0,0l-8.2-7.5l5.1-5.5l7.4,8.1l16.5-19.2l5.5,5L-354.2,49.7z
		 M-357.8,45.2l3.5,3.2l20.3-22.2l-4.2-3.8l-16.5,19.3l-7.4-8.1l-3.8,4.1L-357.8,45.2L-357.8,45.2z"/>
</g>
    <rect x="-624.1" y="-510.3" class="st4" width="661.3" height="249.3"/>
    <g>
	<g>
		<g>
			<path class="st1" d="M-11.8-195.8h-38.7v-0.3h38.7c6.3,0,11.4-5.1,11.4-11.4v-46.8c0-6.3-5.1-11.4-11.4-11.4h-71.9
				c-6.3,0-11.4,5.1-11.4,11.4v12.8h-0.3v-12.8c0-6.5,5.3-11.7,11.7-11.7h71.9c6.5,0,11.7,5.3,11.7,11.7v46.8
				C-0.1-201-5.3-195.8-11.8-195.8z"/>
            <path class="st1" d="M-11.8-195.5h-38.9v-0.8h38.9c6.1,0,11.1-5,11.1-11.1v-46.8c0-6.1-5-11.1-11.1-11.1h-71.9
				c-6.1,0-11.1,5-11.1,11.1v13.1h-0.9v-13.1c0-6.6,5.4-12,12-12h71.9c6.6,0,12,5.4,12,12v46.8C0.2-200.9-5.2-195.5-11.8-195.5z"/>
		</g>
	</g>
        <g>
		<rect x="-95.3" y="-255.6" class="st1" width="95" height="0.3"/>
	</g>
        <g>
		<rect x="-95.3" y="-251.1" class="st1" width="95" height="0.3"/>
	</g>
        <g>
		<path class="st1" d="M-15.2-200.5c-2.9,0-5.7-1.4-7.5-3.7c-1.8,2.3-4.5,3.7-7.5,3.7c-5.2,0-9.3-4.2-9.3-9.3c0-5.2,4.2-9.3,9.3-9.3
			c2.9,0,5.7,1.4,7.5,3.7c1.8-2.3,4.5-3.7,7.5-3.7c5.2,0,9.3,4.2,9.3,9.3C-5.8-204.7-10-200.5-15.2-200.5z M-22.6-204.8l0.1,0.2
			c1.7,2.4,4.4,3.8,7.3,3.8c5,0,9-4,9-9s-4-9-9-9c-2.9,0-5.6,1.4-7.3,3.8l-0.1,0.2l-0.1-0.2c-1.7-2.4-4.4-3.8-7.3-3.8c-5,0-9,4-9,9
			s4,9,9,9c2.9,0,5.6-1.4,7.3-3.8L-22.6-204.8z"/>
	</g>
        <g>
		<g>
			<g>
				<g>
					<path class="st3" d="M-9.4-207.6c-0.4,0.3-1,0.6-1.4,1c-0.4,0.3-1,0.6-1.5,0.9s-1,0.6-1.5,0.8c-0.5,0.3-1,0.6-1.5,0.8l0,0
						C-13.2-205.3-11.3-206.5-9.4-207.6L-9.4-207.6z"/>
				</g>
			</g>
		</g>
            <g>
			<g>
				<g>
					<path class="st3" d="M-20.8-212.2c0.4-0.3,0.9-0.6,1.3-0.9c0.4-0.3,0.9-0.6,1.3-0.8c0.4-0.3,0.9-0.5,1.3-0.8s0.9-0.5,1.4-0.8
						l0,0C-17.2-214.4-19-213.3-20.8-212.2L-20.8-212.2z"/>
				</g>
			</g>
		</g>
            <g>
			<g>
				<g>
					<g>
						<path class="st3" d="M-22-206.2c2.1-1.5,4.3-2.8,6.5-4.1s4.5-2.6,6.7-3.8c-2.1,1.5-4.3,2.8-6.5,4.1
							C-17.4-208.7-19.7-207.4-22-206.2z"/>
					</g>
				</g>
			</g>
                <g>
				<g>
					<g>
						<path class="st3" d="M-9.7-210.9c-0.7,0.6-1.3,1.1-2.1,1.5c-0.7,0.5-1.5,1-2.2,1.4c-0.8,0.4-1.5,0.9-2.2,1.3
							c-0.8,0.4-1.5,0.8-2.4,1.1v-0.1C-15.7-207.4-12.7-209.2-9.7-210.9L-9.7-210.9z"/>
					</g>
				</g>
			</g>
                <g>
				<g>
					<g>
						<path class="st3" d="M-20.9-209.5c0.7-0.6,1.3-1.1,2.1-1.5c0.7-0.5,1.5-1,2.2-1.4c0.8-0.4,1.5-0.9,2.2-1.3
							c0.8-0.4,1.5-0.8,2.4-1.1v0.1C-15-213-18-211.2-20.9-209.5L-20.9-209.5z"/>
					</g>
				</g>
			</g>
		</g>
	</g>
        <g>
		<path class="st1" d="M-78.3-187.5c-14.6,0-26.5-11.9-26.5-26.5s11.9-26.5,26.5-26.5s26.5,11.9,26.5,26.5S-63.6-187.5-78.3-187.5z
			 M-78.3-240.1c-14.4,0-26,11.7-26,26s11.7,26,26,26c14.4,0,26-11.7,26-26S-63.9-240.1-78.3-240.1z"/>
	</g>
        <g>
		<path class="st3" d="M-83-199.8L-83-199.8L-83-199.8l-4.8-4.4l0,0l-8.2-7.5l5.1-5.5l7.4,8.1l16.5-19.2l5.5,5L-83-199.8z
			 M-86.7-204.3l3.5,3.2l20.3-22.2l-4.2-3.8l-16.6,19.3l-7.4-8.1l-3.8,4.1L-86.7-204.3L-86.7-204.3z"/>
	</g>
</g>
    <g>
	<g>
		<g>
			<path d="M632.4-108.2c-21.9,0-39.6-17.8-39.6-39.6c0-21.9,17.8-39.6,39.6-39.6s39.6,17.8,39.6,39.6
				C672.1-126,654.3-108.2,632.4-108.2z M632.4-186.8c-21.4,0-38.9,17.5-38.9,38.9S611-109,632.4-109s38.9-17.4,38.9-38.9
				C671.3-169.3,653.9-186.8,632.4-186.8z"/>
		</g>
	</g>
        <g>
		<g>
			<g>
				<path class="st3" d="M632.4-128.2c-2.2,0-4-1.8-4-4v-21.5c0-2.2,1.8-4,4-4s4,1.8,4,4v21.5C636.4-129.9,634.6-128.2,632.4-128.2z
					 M632.4-155.6c-1.1,0-2,0.9-2,2v21.5c0,1.1,0.9,2,2,2s2-0.9,2-2v-21.5C634.4-154.7,633.5-155.6,632.4-155.6z"/>
			</g>
		</g>
            <g>
			<g>
				<path class="st3" d="M632.4-159.7c-2.2,0-4-1.8-4-4s1.8-4,4-4s4,1.8,4,4C636.4-161.4,634.6-159.7,632.4-159.7z M632.4-165.6
					c-1.1,0-2,0.9-2,2s0.9,2,2,2s2-0.9,2-2S633.5-165.6,632.4-165.6z"/>
			</g>
		</g>
	</g>
        <g>
		<path d="M632.4-121.5c-14.6,0-26.4-11.8-26.4-26.4s11.8-26.4,26.4-26.4c14.6,0,26.4,11.8,26.4,26.4c0,2.9-0.8,5.6-1.6,8.2
			c-0.3,0.9-0.5,1.8-0.8,2.7c-1,3.9,0.6,13.8,0.6,13.9v0.3h-0.3c-0.1,0-6.6-0.5-9.3-0.1C644.1-122.4,635.8-121.5,632.4-121.5z
			 M632.4-173.8c-14.3,0-25.9,11.6-25.9,25.9s11.6,25.9,25.9,25.9c3.3,0,11.6-0.9,15-1.5c2.5-0.4,7.8,0,9.1,0.1
			c-0.3-1.8-1.5-10.2-0.5-13.8c0.2-0.9,0.5-1.8,0.8-2.7c0.8-2.6,1.5-5.2,1.5-8C658.3-162.2,646.7-173.8,632.4-173.8z"/>
	</g>
</g>
    <g>
	<g>
		<path class="st3" d="M-155.2-210.4c-1.1-4.7-2.1-9.4-3.1-14.1s-2.1-9.4-3.1-14.1l-0.1-0.6h-0.6c-1.8,0.1-3.5,0.2-5.2,0.2l-0.4-3.3
			c-0.2-1.8-0.5-3.9-1.6-5.7c-1.2-1.8-3.2-3.1-5.4-3.3c-2.7-0.2-5.4,1.1-7.3,3.5c-1.5,1.9-2.4,4.6-2.5,7.6c0,0.5,0,1,0,1.5
			c-1.4,0.1-2.9,0.1-4.4,0.2h-0.6l-0.2,0.6c-1.3,9.6-3.5,19.2-6.5,28.4l-0.3,1h1c6.6-0.2,13.2-0.3,19.8-0.5s13.2-0.3,19.8-0.5h0.9
			L-155.2-210.4z M-183.1-240.1c0.1-2.7,0.9-5,2.2-6.8c1.5-1.9,3.8-3.1,6-2.9c1.7,0.1,3.4,1.2,4.3,2.6c0.9,1.5,1.2,3.4,1.4,5.1
			l0.4,3.2c-2.3,0-4.5,0-6.7,0c-2.5,0-5,0-7.6,0.1C-183.2-239.2-183.2-239.7-183.1-240.1z M-175.7-210.5c-6.3,0.2-12.5,0.3-18.7,0.5
			c2.8-8.8,4.9-17.9,6.1-27.1c1.3-0.1,2.5-0.1,3.7-0.1c0.1,1.6,0.3,3.2,0.6,4.8c0.1,0.4,0.4,0.6,0.7,0.6h0.1
			c0.4-0.1,0.7-0.4,0.6-0.8c-0.2-1.5-0.4-3.1-0.5-4.6c2.6-0.1,5.1-0.1,7.5-0.1c2.2,0,4.5,0,6.8,0l0.5,4.4c0,0.4,0.4,0.7,0.8,0.6
			c0.4,0,0.7-0.4,0.6-0.8l-0.5-4.3c1.5,0,3-0.1,4.5-0.2c1,4.5,2,9,3,13.5c1,4.4,1.9,8.8,2.9,13.2
			C-163.1-210.8-169.4-210.6-175.7-210.5z"/>
	</g>
        <g class="st5">
		<g>
			<g>
				<path class="st6" d="M-184.6-215.9h2.8v0.5h-3.4v-8.2h0.5L-184.6-215.9z"/>
			</g>
		</g>
            <g>
			<g>
				<path class="st6" d="M-168.1-223h-2.8v3.6h2.4v0.5h-2.4v3.6h-0.5v-8.2h3.4L-168.1-223z"/>
			</g>
		</g>
            <g>
			<g>
				<path class="st6" d="M-163.3-223.6v0.5h-1.9v7.7h-0.5v-7.7h-1.9v-0.5H-163.3z"/>
			</g>
		</g>
            <g>
			<g>
				<g>
					<path class="st3" d="M-177.4-223.8c-2.3,0-4.2,1.9-4.2,4.2s1.9,4.2,4.2,4.2s4.2-1.9,4.2-4.2S-175.1-223.8-177.4-223.8z
						 M-173.7-219.6c0,2-1.7,3.7-3.7,3.7s-3.7-1.7-3.7-3.7s1.7-3.7,3.7-3.7S-173.7-221.6-173.7-219.6z"/>
				</g>
			</g>
                <g>
				<g>
					<g>
						<path class="st3" d="M-175-218.6c-0.2,0.1-0.4,0.3-0.6,0.4s-0.4,0.2-0.6,0.4c-0.2,0.1-0.4,0.2-0.6,0.3
							c-0.2,0.1-0.4,0.2-0.6,0.3l0,0C-176.5-217.6-175.8-218.1-175-218.6L-175-218.6z"/>
					</g>
				</g>
                    <g>
					<g>
						<path class="st3" d="M-179.6-220.4c0.2-0.1,0.4-0.2,0.5-0.3c0.2-0.1,0.4-0.2,0.5-0.3c0.2-0.1,0.4-0.2,0.5-0.3
							c0.2-0.1,0.4-0.2,0.6-0.3l0,0C-178.1-221.3-178.9-220.9-179.6-220.4L-179.6-220.4z"/>
					</g>
				</g>
                    <g>
					<g>
						<g>
							<path class="st3" d="M-180.1-218c0.9-0.6,1.7-1.1,2.6-1.7c0.9-0.5,1.8-1.1,2.7-1.5c-0.9,0.6-1.7,1.1-2.6,1.7
								C-178.2-219-179.1-218.5-180.1-218z"/>
						</g>
					</g>
                        <g>
						<g>
							<path class="st3" d="M-175.1-219.9c-0.3,0.2-0.5,0.4-0.8,0.6s-0.6,0.4-0.9,0.6c-0.3,0.2-0.6,0.3-0.9,0.5
								c-0.3,0.2-0.6,0.3-0.9,0.4l0,0C-177.5-218.5-176.3-219.2-175.1-219.9L-175.1-219.9z"/>
						</g>
					</g>
                        <g>
						<g>
							<path class="st3" d="M-179.6-219.3c0.3-0.2,0.5-0.4,0.8-0.6c0.3-0.2,0.6-0.4,0.9-0.6s0.6-0.3,0.9-0.5
								c0.3-0.2,0.6-0.3,0.9-0.4l0,0C-177.3-220.7-178.4-220-179.6-219.3L-179.6-219.3z"/>
						</g>
					</g>
				</g>
			</g>
		</g>
	</g>
        <g>
		<path class="st1" d="M-126.9-188.5h-98c-1.4,0-2.5-1.1-2.5-2.5v-73.5c0-1.4,1.1-2.5,2.5-2.5h98c1.4,0,2.5,1.1,2.5,2.5v73.5
			C-124.4-189.6-125.6-188.5-126.9-188.5z M-224.9-266.2c-1,0-1.8,0.8-1.8,1.8v73.5c0,1,0.8,1.8,1.8,1.8h98c1,0,1.8-0.8,1.8-1.8
			v-73.5c0-1-0.8-1.8-1.8-1.8H-224.9z"/>
	</g>
        <g>
		<path class="st1" d="M-131.2-199.8h-89.2v-60.1h89.2V-199.8z M-219.8-200.3h88.1v-59.1h-88.2L-219.8-200.3L-219.8-200.3z"/>
	</g>
        <g>
		<rect x="-220.1" y="-196.9" class="st1" width="88.7" height="0.8"/>
	</g>
</g>
    <g>
	<rect x="-220.2" y="-194.5" width="0.2" height="3"/>
</g>
    <g>
	<rect x="-218.8" y="-194.5" width="0.2" height="3"/>
</g>
    <g>
	<rect x="-217.4" y="-194.5" width="0.2" height="3"/>
</g>
    <g>
	<rect x="-216.1" y="-194.5" width="0.2" height="3"/>
</g>
    <g>
	<rect x="-214.7" y="-194.5" width="0.2" height="3"/>
</g>
    <g>
	<g>
		<g>
			<path class="st3" d="M-175.4-192.7l-0.1,0.1l-0.1,0.1l-0.1,0.1l-0.1,0.1l0,0C-175.7-192.5-175.5-192.6-175.4-192.7L-175.4-192.7z
				"/>
		</g>
	</g>
        <g>
		<g>
			<path class="st3" d="M-176.4-193.1l0.1-0.1l0.1-0.1c0,0,0.1,0,0.1-0.1s0.1,0,0.1-0.1l0,0C-176.1-193.3-176.3-193.2-176.4-193.1
				L-176.4-193.1z"/>
		</g>
	</g>
        <g>
		<g>
			<path class="st3" d="M-175.9-193.9c-0.5,0-1,0.4-1,1s0.4,1,1,1s1-0.4,1-1S-175.4-193.9-175.9-193.9z M-175.1-192.9
				c0,0.5-0.4,0.9-0.9,0.9s-0.9-0.4-0.9-0.9s0.4-0.9,0.9-0.9S-175.1-193.4-175.1-192.9z"/>
		</g>
	</g>
        <g>
		<g>
			<g>
				<path class="st3" d="M-176.6-192.6c0.2-0.1,0.4-0.3,0.6-0.4c0.2-0.1,0.4-0.2,0.6-0.4c-0.2,0.1-0.4,0.3-0.6,0.4
					C-176.1-192.8-176.3-192.7-176.6-192.6z"/>
			</g>
		</g>
            <g>
			<g>
				<path class="st3" d="M-175.4-193c-0.1,0.1-0.1,0.1-0.2,0.1c-0.1,0-0.1,0.1-0.2,0.1c-0.1,0-0.1,0.1-0.2,0.1
					c-0.1,0-0.1,0.1-0.2,0.1l0,0C-176-192.7-175.7-192.8-175.4-193L-175.4-193z"/>
			</g>
		</g>
            <g>
			<g>
				<path class="st3" d="M-176.5-192.9c0.1-0.1,0.1-0.1,0.2-0.1c0.1,0,0.1-0.1,0.2-0.1s0.1-0.1,0.2-0.1c0.1,0,0.1-0.1,0.2-0.1l0,0
					C-175.9-193.2-176.2-193-176.5-192.9L-176.5-192.9z"/>
			</g>
		</g>
	</g>
</g>
    <g>
	<g>
		<g>
			<g>
				<g>
					<path class="st3" d="M337.9-211.1c-2.2,0-4-1.8-4-4v-21.5c0-2.2,1.8-4,4-4s4,1.8,4,4v21.5C341.8-212.9,340.1-211.1,337.9-211.1
						z M337.9-238.6c-1.1,0-2,0.9-2,2v21.5c0,1.1,0.9,2,2,2s2-0.9,2-2v-21.5C339.8-237.7,339-238.6,337.9-238.6z"/>
				</g>
			</g>
		</g>
        <g>
			<g>
				<g>
					<path class="st3" d="M337.9-242.6c-2.2,0-4-1.8-4-4s1.8-4,4-4s4,1.8,4,4C341.8-244.4,340.1-242.6,337.9-242.6z M337.9-248.6
						c-1.1,0-2,0.9-2,2s0.9,2,2,2s2-0.9,2-2S339-248.6,337.9-248.6z"/>
				</g>
			</g>
		</g>
	</g>
        <g>
		<g>
			<path class="st1" d="M337.9-204.5c-14.6,0-26.4-11.8-26.4-26.4s11.8-26.4,26.4-26.4s26.4,11.8,26.4,26.4c0,2.9-0.8,5.6-1.6,8.2
				c-0.3,0.9-0.5,1.8-0.8,2.7c-1,3.9,0.6,13.8,0.6,13.9v0.3h-0.3c-0.1,0-6.6-0.5-9.3-0.1C349.5-205.4,341.2-204.5,337.9-204.5z
				 M337.9-256.8c-14.3,0-25.9,11.6-25.9,25.9s11.6,25.9,25.9,25.9c3.3,0,11.6-0.9,15-1.5c2.5-0.4,7.8,0,9.1,0.1
				c-0.3-1.8-1.5-10.2-0.5-13.8c0.2-0.9,0.5-1.8,0.8-2.7c0.8-2.6,1.5-5.2,1.5-8C363.8-245.1,352.1-256.8,337.9-256.8z"/>
		</g>
	</g>
        <g>
		<path class="st1" d="M365.2-191.1h-54.6c-6.9,0-12.5-5.6-12.5-12.5v-54.6c0-6.9,5.6-12.5,12.5-12.5h54.6c6.9,0,12.5,5.6,12.5,12.5
			v54.6C377.7-196.7,372.1-191.1,365.2-191.1z M310.6-269.7c-6.3,0-11.5,5.2-11.5,11.5v54.6c0,6.3,5.2,11.5,11.5,11.5h54.6
			c6.3,0,11.5-5.2,11.5-11.5v-54.6c0-6.3-5.2-11.5-11.5-11.5H310.6z"/>
	</g>
</g>
    <g>
	<g>
		<path class="st3" d="M42.9-252.1l-26,1.8l26,1.8l0,0V-252.1L42.9-252.1z"/>
	</g>
        <g>
		<path class="st3" d="M42.6-245.3l-17.3,1.8l16.7,1.8l0,0L42.6-245.3L42.6-245.3z"/>
	</g>
        <g>
		<g>
			<path class="st3" d="M85.9-245.6c-1.8-3.6-4.5-6.6-7.5-8.7s-6.6-3.9-10.2-4.8c-0.9,0-1.8-0.3-2.7-0.3c-0.3,0-0.9,0-1.2,0h-0.9
				c-0.3,0-0.3,0-0.9,0h-5.4h-11l-42.7,0.6l43,0.9l10.7,0.3h5.4c0.3,0,0.3,0,0.9,0h0.3c0.3,0,0.9,0,1.2,0c0.9,0,1.8,0.3,2.7,0.3
				c3,0.9,6.3,2.7,8.7,4.8c2.4,2.1,4.5,4.8,6.3,7.8c1.2,3,2.1,6.3,1.8,9.6c0,3-0.9,6.6-2.7,9.3c-3,5.7-8.7,10.2-14.9,11.3
				c-3,0.3-6.3,0.3-9.3-0.3c-3-0.9-5.7-2.1-8.4-4.5c-2.1-2.1-4.5-4.5-5.7-7.5c-0.3-0.9-0.9-2.1-1.2-3.9c0-0.3,0-0.9,0-1.2
				s0-0.9,0-1.2s0-0.9,0-1.2v-0.3v-0.6v-0.3c0,0,0,0,0-0.3c0,0,0,0,0-0.3h-7.8v0.3l0,0l0,0l0,0v0.3v0.9c0,0.3,0,0.9,0,1.8
				c0,0.3,0,0.9,0.3,1.2c0,0.3,0,0.9,0.3,1.2c0.3,2.1,1.2,3.9,2.1,5.7c1.8,3.6,4.5,6.9,7.8,9.3c3,2.7,6.9,4.5,11,5.4
				c3.9,0.9,7.8,0.9,11.9,0c7.8-1.8,14.3-7.5,17.9-14.3c1.8-3.6,2.7-7.5,2.7-11.3C88.5-238.7,87.6-242.6,85.9-245.6z"/>
		</g>
	</g>
        <g>
		<g>
			<path class="st1" d="M46-207.3c-5.2,0-10,5-10,10.3s4.8,10.3,10,10.3s10-5,10-10.3S51.6-207.3,46-207.3z M46-187.8
				c-4.8,0-8.8-4.1-8.8-9.1c0-0.1,0-0.2,0-0.3s0-0.1,0-0.2s0-0.2,0.1-0.3c0.4-4.6,4.2-8.3,8.8-8.3c5.2,0,8.8,3.7,8.8,9.1
				C54.8-192,50.8-187.8,46-187.8z"/>
		</g>
	</g>
        <g>
		<g>
			<path class="st1" d="M123.3-207.4c-5.2,0-10,5-10,10.3c0,5.4,4.8,10.3,10,10.3c5.2,0,10-5,10-10.3
				C133.3-202.5,128.9-207.4,123.3-207.4z M132.1-197.1c0,5-4,9.1-8.8,9.1c-4.8,0-8.8-4.1-8.8-9.1s4-9.1,8.8-9.1
				C128.5-206.2,132.1-202.5,132.1-197.1z"/>
		</g>
	</g>
        <g>
		<g>
			<g>
				<g>
					<path class="st1" d="M36.5-196.6h-15c-1.4,0-2.6-1.2-2.6-2.6c-0.1-9.7-0.2-57.7-0.2-59c0-3.5,2.9-6.4,6.5-6.4l62.3-0.5
						c0,0,0,0,0.1,0c1.6,0,3.1,0.6,4.3,1.8c1.2,1.1,1.8,2.7,1.8,4.3c0.2,29,0.3,50.3,0.3,61.6v0.5l-38.9,0.3v-1l37.9-0.3
						c0-11.4-0.1-32.5-0.3-61.1c0-1.4-0.5-2.6-1.5-3.6s-2.2-1.5-3.6-1.5l-62.3,0.5c-3,0-5.4,2.5-5.5,5.4c0,1.2,0.1,49.2,0.2,58.9
						c0,0.9,0.7,1.6,1.6,1.6h15L36.5-196.6L36.5-196.6z"/>
				</g>
			</g>
            <g>
				<path class="st1" d="M133.3-225.2l-8.5-17.9c-0.8-1.7-2.6-2.9-4.5-2.9H92.8v-1h27.5c2.3,0,4.4,1.3,5.4,3.4l8.5,17.9L133.3-225.2
					z"/>
			</g>
		</g>
            <g>
			<path class="st1" d="M148.7-196.7h-0.1c-4.5-0.2-9.5-0.4-15.6-0.4v-1c6.1,0,11.1,0.1,15.6,0.4c0.3,0,0.6-0.1,0.8-0.3
				s0.3-0.5,0.3-0.8l-0.5-17.4c0-0.4-0.2-0.7-0.6-0.9l-15.2-7.8l0.5-0.9l15.2,7.8c0.7,0.3,1.1,1,1.1,1.8l0.5,17.4
				c0,0.6-0.2,1.1-0.6,1.5C149.8-196.9,149.3-196.7,148.7-196.7z"/>
		</g>
            <g>
			<rect x="92.8" y="-198" class="st1" width="21.7" height="1"/>
		</g>
	</g>
        <g>
		<path class="st1" d="M120.6-225.5H101c-1,0-1.8-0.8-1.8-1.9v-10.1c0-1,0.8-1.9,1.8-1.9h15.4c0.7,0,1.4,0.4,1.7,1.1l4.2,10.2
			c0.2,0.6,0.2,1.3-0.2,1.8C121.8-225.8,121.2-225.5,120.6-225.5z M101.1-238.9c-0.7,0-1.3,0.6-1.3,1.4v10.1c0,0.8,0.6,1.4,1.3,1.4
			h19.6c0.4,0,0.8-0.2,1.1-0.6c0.3-0.4,0.3-0.9,0.1-1.3l-4.2-10.2c-0.2-0.5-0.7-0.8-1.2-0.8L101.1-238.9L101.1-238.9z"/>
	</g>
        <g>
		<rect x="138.7" y="-205.9" class="st1" width="11.3" height="1"/>
	</g>
        <g>
		<rect x="99.5" y="-217" class="st1" width="4.2" height="1"/>
	</g>
        <g>
		<g>
			<path class="st3" d="M60.1-225.6L60.1-225.6L60.1-225.6l-3.8-3.4l0,0l-6.5-5.9l4-4.4l5.8,6.4l13-15.2l4.4,4L60.1-225.6z
				 M57.2-229.2l2.8,2.6l16-17.5l-3.3-3l-13.1,15.2l-5.8-6.4l-3,3.3L57.2-229.2L57.2-229.2z"/>
		</g>
	</g>
        <g>
		<g>
			<g>
				<g>
					<g>
						<path class="st3" d="M52-194.8c-0.4,0.3-1,0.6-1.4,1c-0.4,0.3-1,0.6-1.5,0.9s-1,0.6-1.5,0.8c-0.5,0.3-1,0.6-1.5,0.8l0,0
							C48.1-192.5,50.1-193.6,52-194.8L52-194.8z"/>
					</g>
				</g>
			</g>
		</g>
            <g>
			<g>
				<g>
					<g>
						<path class="st3" d="M40.5-199.3c0.4-0.3,0.9-0.6,1.3-0.9c0.4-0.3,0.9-0.6,1.3-0.8c0.4-0.3,0.9-0.5,1.3-0.8
							c0.4-0.3,0.9-0.5,1.4-0.8l0,0C44.2-201.5,42.4-200.4,40.5-199.3L40.5-199.3z"/>
					</g>
				</g>
			</g>
		</g>
            <g>
			<g>
				<g>
					<g>
						<g>
							<path class="st3" d="M39.4-193.4c2.1-1.5,4.3-2.8,6.5-4.1s4.5-2.6,6.7-3.8c-2.1,1.5-4.3,2.8-6.5,4.1
								C43.9-195.8,41.7-194.5,39.4-193.4z"/>
						</g>
					</g>
				</g>
			</g>
                <g>
				<g>
					<g>
						<g>
							<path class="st3" d="M51.6-198c-0.7,0.6-1.3,1.1-2.1,1.5c-0.7,0.5-1.5,1-2.2,1.4c-0.8,0.4-1.5,0.9-2.2,1.3
								c-0.8,0.4-1.5,0.8-2.4,1.1v-0.1C45.7-194.6,48.6-196.3,51.6-198L51.6-198z"/>
						</g>
					</g>
				</g>
			</g>
                <g>
				<g>
					<g>
						<g>
							<path class="st3" d="M40.4-196.6c0.7-0.6,1.3-1.1,2.1-1.5c0.7-0.5,1.5-1,2.2-1.4c0.8-0.4,1.5-0.9,2.2-1.3
								c0.8-0.4,1.5-0.8,2.4-1.1v0.1C46.3-200.1,43.4-198.3,40.4-196.6L40.4-196.6z"/>
						</g>
					</g>
				</g>
			</g>
		</g>
	</g>
        <g>
		<g>
			<g>
				<g>
					<g>
						<path class="st3" d="M129.3-194.4c-0.4,0.3-1,0.6-1.4,1c-0.4,0.3-1,0.6-1.5,0.9s-1,0.6-1.5,0.8c-0.5,0.3-1,0.6-1.5,0.8l0,0
							C125.4-192.2,127.4-193.3,129.3-194.4L129.3-194.4z"/>
					</g>
				</g>
			</g>
		</g>
            <g>
			<g>
				<g>
					<g>
						<path class="st3" d="M117.8-199c0.4-0.3,0.9-0.6,1.3-0.9s0.9-0.6,1.3-0.8c0.4-0.3,0.9-0.5,1.3-0.8s0.9-0.5,1.4-0.8l0,0
							C121.5-201.2,119.7-200.1,117.8-199L117.8-199z"/>
					</g>
				</g>
			</g>
		</g>
            <g>
			<g>
				<g>
					<g>
						<g>
							<path class="st3" d="M116.7-193c2.1-1.5,4.3-2.8,6.5-4.1s4.5-2.6,6.7-3.8c-2.1,1.5-4.3,2.8-6.5,4.1S119-194.2,116.7-193z"/>
						</g>
					</g>
				</g>
			</g>
                <g>
				<g>
					<g>
						<g>
							<path class="st3" d="M128.9-197.7c-0.7,0.6-1.3,1.1-2.1,1.5c-0.7,0.5-1.5,1-2.2,1.4c-0.8,0.4-1.5,0.9-2.2,1.3
								c-0.8,0.4-1.5,0.8-2.4,1.1v-0.1C123-194.3,125.9-196,128.9-197.7L128.9-197.7z"/>
						</g>
					</g>
				</g>
			</g>
                <g>
				<g>
					<g>
						<g>
							<path class="st3" d="M117.7-196.3c0.7-0.6,1.3-1.1,2.1-1.5c0.7-0.5,1.5-1,2.2-1.4c0.8-0.4,1.5-0.9,2.2-1.3
								c0.8-0.4,1.5-0.8,2.4-1.1v0.1C123.6-199.8,120.7-198,117.7-196.3L117.7-196.3z"/>
						</g>
					</g>
				</g>
			</g>
		</g>
	</g>
</g>
    <g>
	<rect x="418.4" y="-595.5" class="st2" width="112" height="78.5"/>
        <rect x="427.9" y="-586.5" class="st7" width="92.9" height="60.5"/>
        <polyline class="st7" points="520.8,-544.1 496.8,-558 480.6,-547.8 461.1,-568.2 427.9,-542.5 	"/>
</g>
    <g>
	<g>
		<g>
			<path class="st3" d="M495.7-573.1c-0.3,0.2-0.6,0.4-0.8,0.6s-0.6,0.3-0.9,0.5s-0.6,0.3-0.9,0.5s-0.6,0.3-0.9,0.5l0,0
				C493.4-571.8,494.6-572.4,495.7-573.1L495.7-573.1z"/>
		</g>
	</g>
        <g>
		<g>
			<path class="st3" d="M488.9-575.9c0.3-0.2,0.5-0.3,0.8-0.5s0.5-0.3,0.8-0.5s0.5-0.3,0.8-0.5s0.5-0.3,0.8-0.5l0,0
				C491.1-577.1,490-576.5,488.9-575.9L488.9-575.9z"/>
		</g>
	</g>
        <g>
		<g>
			<path class="st3" d="M492.2-580.9c-3.4,0-6.2,2.8-6.2,6.2s2.8,6.2,6.2,6.2s6.2-2.8,6.2-6.2S495.6-580.9,492.2-580.9z
				 M497.6-574.6c0,3-2.4,5.4-5.4,5.4s-5.4-2.4-5.4-5.4s2.4-5.5,5.4-5.5S497.6-577.6,497.6-574.6z"/>
		</g>
	</g>
        <g>
		<g>
			<g>
				<path class="st3" d="M488.2-572.3c1.3-0.9,2.6-1.7,3.9-2.5s2.7-1.6,4-2.3c-1.3,0.9-2.6,1.7-3.9,2.5S489.6-573,488.2-572.3z"/>
			</g>
		</g>
            <g>
			<g>
				<path class="st3" d="M495.5-575.1c-0.4,0.3-0.8,0.6-1.3,0.9c-0.4,0.3-0.9,0.6-1.3,0.8c-0.5,0.3-0.9,0.5-1.3,0.8
					s-0.9,0.5-1.4,0.6l0,0C492-573,493.7-574,495.5-575.1L495.5-575.1z"/>
			</g>
		</g>
            <g>
			<g>
				<path class="st3" d="M488.8-574.2c0.4-0.3,0.8-0.6,1.3-0.9c0.4-0.3,0.9-0.6,1.3-0.8c0.5-0.3,0.9-0.5,1.3-0.8
					c0.5-0.2,0.9-0.5,1.4-0.6l0,0C492.3-576.3,490.6-575.2,488.8-574.2L488.8-574.2z"/>
			</g>
		</g>
	</g>
</g>
    <g>
	<g>
		<g>
			<g>
				<path class="st1" d="M275.9-191.6H164.4v-78.5H276v78.5H275.9z M165.4-192.6H275v-76.5H165.4V-192.6z"/>
			</g>
            <g>
				<path class="st1" d="M266.2-200.7H174V-261h92.2V-200.7L266.2-200.7z M174.5-201.2h91.2v-59.3h-91.2V-201.2z"/>
			</g>
            <g>
				<polygon class="st1" points="174.4,-217.1 174.1,-217.5 207,-243 207.2,-242.9 226.4,-222.9 242.3,-232.9 242.5,-232.8
					266.1,-219.1 265.9,-218.6 242.3,-232.3 226.3,-222.2 207,-242.4 				"/>
			</g>
		</g>
	</g>
        <g>
		<g>
			<g>
				<g>
					<path class="st3" d="M261.5-247.8c-0.3,0.2-0.6,0.4-0.8,0.6c-0.3,0.2-0.6,0.3-0.9,0.5s-0.6,0.3-0.9,0.5s-0.6,0.3-0.9,0.5l0,0
						C259.2-246.4,260.4-247.1,261.5-247.8L261.5-247.8z"/>
				</g>
			</g>
		</g>
            <g>
			<g>
				<g>
					<path class="st3" d="M254.7-250.5c0.3-0.2,0.5-0.3,0.8-0.5s0.5-0.3,0.8-0.5c0.3-0.2,0.5-0.3,0.8-0.5c0.3-0.2,0.5-0.3,0.8-0.5
						l0,0C256.8-251.8,255.8-251.1,254.7-250.5L254.7-250.5z"/>
				</g>
			</g>
		</g>
            <g>
			<g>
				<g>
					<path class="st3" d="M257.9-255.5c-3.4,0-6.2,2.8-6.2,6.2s2.8,6.2,6.2,6.2c3.5,0,6.2-2.8,6.2-6.2S261.3-255.5,257.9-255.5z
						 M263.4-249.3c0,3-2.4,5.4-5.4,5.4s-5.4-2.4-5.4-5.4s2.4-5.5,5.4-5.5C260.9-254.7,263.4-252.3,263.4-249.3z"/>
				</g>
			</g>
		</g>
            <g>
			<g>
				<g>
					<g>
						<path class="st3" d="M254-246.9c1.3-0.9,2.6-1.7,3.9-2.5s2.7-1.6,4-2.3c-1.3,0.9-2.6,1.7-3.9,2.5S255.3-247.6,254-246.9z"/>
					</g>
				</g>
			</g>
                <g>
				<g>
					<g>
						<path class="st3" d="M261.3-249.7c-0.4,0.3-0.8,0.6-1.3,0.9c-0.4,0.3-0.9,0.6-1.3,0.8c-0.5,0.3-0.9,0.5-1.3,0.8
							c-0.5,0.2-0.9,0.5-1.4,0.6l0,0C257.7-247.6,259.5-248.7,261.3-249.7L261.3-249.7z"/>
					</g>
				</g>
			</g>
                <g>
				<g>
					<g>
						<path class="st3" d="M254.6-248.9c0.4-0.3,0.8-0.6,1.3-0.9c0.4-0.3,0.9-0.6,1.3-0.8c0.5-0.3,0.9-0.5,1.3-0.8
							c0.5-0.2,0.9-0.5,1.4-0.6l0,0C258.1-250.9,256.4-249.9,254.6-248.9L254.6-248.9z"/>
					</g>
				</g>
			</g>
		</g>
	</g>
</g>
</svg>
