<?xml version="1.0" encoding="utf-8"?>
<!-- Generator: Adobe Illustrator 25.0.1, SVG Export Plug-In . SVG Version: 6.00 Build 0)  -->
<svg version="1.1" id="Слой_1" xmlns="http://www.w3.org/2000/svg" xmlns:xlink="http://www.w3.org/1999/xlink" x="0px" y="0px"
     viewBox="0 0 51.5 26.4" style="enable-background:new 0 0 51.5 26.4;" xml:space="preserve">
<style type="text/css">
	.st0{fill:#FFFFFF;}
	.st1{fill:#0097AE;}
</style>
    <g>
	<g>
		<path d="M49.4,13.5l-3.7-0.6l-2.5-5.3c-0.1-1-1-1.9-2.2-1.9h-8.8V1.9c0-1-0.9-1.9-2.1-1.9H9.7C8.5,0,7.6,0.9,7.6,1.9v11v3.2v5.1
			c0,1,0.9,1.9,2.1,1.9h2.8v-0.6c0.3,2.1,2.2,3.8,4.4,3.8c2.1,0,3.8-1.3,4.4-3.2h15.3c0.4,1.9,2.2,3.2,4.4,3.2
			c2.2,0,4.1-1.6,4.4-3.7v0.4h4.1c1.2,0,2.1-0.9,2.1-2.1V16C51.5,15.1,50.6,13.5,49.4,13.5z M16.9,25.1c-1.6,0-3.1-1.3-3.1-2.8
			s1.3-2.8,3.1-2.8s3.1,1.3,3.1,2.8S18.5,25.1,16.9,25.1z M16.9,18c-2.3,0-4.3,1.8-4.4,3.8H9.7c-0.3,0-0.6-0.3-0.6-0.6v-5.1v-3.2
			v-11c0-0.3,0.3-0.6,0.6-0.6h20.5c0.3,0,0.6,0.3,0.6,0.6v4.5v9.7v5.7h-9.5C21.1,19.7,19.2,18,16.9,18z M40.8,25.1
			c-1.6,0-3.1-1.3-3.1-2.8s1.3-2.8,3.1-2.8c1.6,0,3.1,1.3,3.1,2.8S42.5,25.1,40.8,25.1z M49.3,21.9h-4.1C45,19.7,43.1,18,40.8,18
			c-2.3,0-4.3,1.8-4.4,3.8h-4.1v-5.7V7h8.8c0.3,0,0.6,0.3,0.6,0.6c0,0.1,0,0.1,0,0.3l2.8,5.9c0.1,0.1,0.3,0.3,0.6,0.4l4.1,0.6
			c0,0,0,0,0.1,0s0.6,0.7,0.6,1.2v3.2h-4.1v1.3h4.1v0.6C50,21.6,49.7,21.9,49.3,21.9z"/>
        <rect x="34.3" y="15.8" width="2.1" height="1.3"/>
        <rect x="9.7" y="3.8" width="19.8" height="1.3"/>
        <rect x="9.7" y="8.9" width="19.8" height="1.3"/>
        <rect x="9.7" y="14.1" width="19.8" height="1.3"/>
        <path d="M40.5,9.5c0-0.4-0.6-0.9-1-0.9h-4.4c-0.6,0-1.2,0.4-1.2,1v3.1c0,0.6,0.4,1,1.2,1h6c0.6,0,1.2-0.4,1.2-1c0-0.1,0-0.1,0-0.3
			L40.5,9.5z M35.1,12.8V9.7h4.3c0,0.1,0,0.1,0,0.3l1.5,2.8H35.1z"/>
	</g>
        <g>
		<circle class="st0" cx="19.2" cy="8.8" r="7.3"/>
            <g>
			<path class="st1" d="M13.2,2.5L4.5,3.1l8.7,0.6l0,0V2.5L13.2,2.5z"/>
                <path class="st1" d="M13.1,4.8L7.3,5.4L12.9,6l0,0L13.1,4.8L13.1,4.8z"/>
                <g>
				<path class="st1" d="M27.6,4.7c-0.6-1.2-1.5-2.2-2.5-2.9c-1-0.7-2.2-1.3-3.4-1.6c-0.3,0-0.6-0.1-0.9-0.1c-0.1,0-0.3,0-0.4,0
					h-0.3c-0.1,0-0.1,0-0.3,0H18l-3.7,0L0,0.3l14.4,0.3L18,0.7h1.8c0.1,0,0.1,0,0.3,0h0.1c0.1,0,0.3,0,0.4,0c0.3,0,0.6,0.1,0.9,0.1
					c1,0.3,2.1,0.9,2.9,1.6s1.5,1.6,2.1,2.6c0.4,1,0.7,2.1,0.6,3.2c0,1-0.3,2.2-0.9,3.1c-1,1.9-2.9,3.4-5,3.8
					c-1,0.1-2.1,0.1-3.1-0.1c-1-0.3-1.9-0.7-2.8-1.5c-0.7-0.7-1.5-1.5-1.9-2.5c-0.1-0.3-0.3-0.7-0.4-1.3c0-0.1,0-0.3,0-0.4
					c0-0.1,0-0.3,0-0.4c0-0.1,0-0.3,0-0.4V8.4V8.2V8.1c0,0,0,0,0-0.1c0,0,0,0,0-0.1h-2.6v0.1l0,0l0,0l0,0v0.1v0.3c0,0.1,0,0.3,0,0.6
					c0,0.1,0,0.3,0.1,0.4c0,0.1,0,0.3,0.1,0.4c0.1,0.7,0.4,1.3,0.7,1.9c0.6,1.2,1.5,2.3,2.6,3.1c1,0.9,2.3,1.5,3.7,1.8
					c1.3,0.3,2.6,0.3,4,0c2.6-0.6,4.8-2.5,6-4.8c0.6-1.2,0.9-2.5,0.9-3.8C28.5,7,28.2,5.7,27.6,4.7z"/>
			</g>
                <path d="M23,4.1c0.4,0.4,0.7,0.7,1,1c-1.6,1.8-3.4,3.4-5,5c-0.9-0.9-1.8-1.8-2.6-2.6c0.4-0.3,0.7-0.6,1.2-1
				c0.4,0.6,1,1.2,1.5,1.8C20.4,6.7,21.7,5.4,23,4.1z"/>
		</g>
	</g>
        <g>
		<g>
			<path d="M18.3,22.9C18.2,23,18,23,18,23.2c-0.1,0-0.3,0.1-0.3,0.1c-0.1,0-0.3,0.1-0.3,0.1c-0.1,0-0.3,0.1-0.3,0.1l0,0
				C17.5,23.5,17.9,23.2,18.3,22.9L18.3,22.9z"/>
		</g>
            <g>
			<path d="M15.5,21.7c0.1,0,0.1-0.1,0.3-0.1c0.1,0,0.1-0.1,0.3-0.1c0.1,0,0.1-0.1,0.3-0.1c0.1,0,0.1-0.1,0.3-0.1l0,0
				C16.4,21.3,16,21.6,15.5,21.7L15.5,21.7z"/>
		</g>
            <g>
			<path d="M16.9,19.8c-1.3,0-2.5,1.2-2.5,2.5c0,1.3,1.2,2.5,2.5,2.5s2.5-1.2,2.5-2.5S18.3,19.8,16.9,19.8z M19.1,22.3
				c0,1.2-1,2.2-2.2,2.2s-2.2-1-2.2-2.2s1-2.2,2.2-2.2C18.2,20.1,19.1,21,19.1,22.3z"/>
		</g>
            <g>
			<g>
				<path d="M15.3,23.2c0.4-0.3,1-0.7,1.6-1c0.6-0.3,1-0.6,1.6-0.9c-0.4,0.3-1,0.7-1.6,1C16.4,22.6,15.8,22.9,15.3,23.2z"/>
			</g>
                <g>
				<path d="M18.2,22.1c-0.1,0.1-0.3,0.3-0.4,0.4c-0.1,0.1-0.3,0.3-0.6,0.3C17,23,16.9,23,16.6,23.2c0,0-0.3,0.1-0.4,0.1l0,0
					C16.9,22.9,17.6,22.4,18.2,22.1L18.2,22.1z"/>
			</g>
                <g>
				<path d="M15.5,22.4c0.1-0.1,0.3-0.3,0.4-0.4s0.3-0.3,0.6-0.3c0.1-0.1,0.3-0.1,0.6-0.3c0.1-0.1,0.4-0.1,0.6-0.3l0,0
					C17,21.6,16.3,22,15.5,22.4L15.5,22.4z"/>
			</g>
		</g>
	</g>
        <g>
		<g>
			<path d="M42.2,22.9c-0.1,0.1-0.3,0.1-0.3,0.3c-0.1,0-0.3,0.1-0.3,0.1c-0.1,0-0.3,0.1-0.3,0.1c-0.1,0-0.3,0.1-0.3,0.1l0,0
				C41.2,23.5,41.7,23.2,42.2,22.9L42.2,22.9z"/>
		</g>
            <g>
			<path d="M39.5,21.7c0.1,0,0.1-0.1,0.3-0.1s0.1-0.1,0.3-0.1c0.1,0,0.1-0.1,0.3-0.1s0.1-0.1,0.3-0.1l0,0
				C40.3,21.3,39.9,21.6,39.5,21.7L39.5,21.7z"/>
		</g>
            <g>
			<path d="M40.8,19.8c-1.3,0-2.5,1.2-2.5,2.5c0,1.3,1.2,2.5,2.5,2.5c1.3,0,2.5-1.2,2.5-2.5S42.1,19.8,40.8,19.8z M43,22.3
				c0,1.2-1,2.2-2.2,2.2s-2.2-1-2.2-2.2s1-2.2,2.2-2.2C41.9,20.1,43,21,43,22.3z"/>
		</g>
            <g>
			<g>
				<path d="M39.2,23.2c0.4-0.3,1-0.7,1.6-1c0.6-0.3,1-0.6,1.6-0.9c-0.4,0.3-1,0.7-1.6,1C40.2,22.6,39.7,22.9,39.2,23.2z"/>
			</g>
                <g>
				<path d="M42.1,22.1c-0.1,0.1-0.3,0.3-0.4,0.4c-0.1,0.1-0.3,0.3-0.6,0.3c-0.1,0.1-0.3,0.1-0.6,0.3c-0.1,0.1-0.4,0.1-0.6,0.3l0,0
					C40.6,22.9,41.4,22.4,42.1,22.1L42.1,22.1z"/>
			</g>
                <g>
				<path d="M39.5,22.4c0.1-0.1,0.3-0.3,0.4-0.4c0.1-0.1,0.3-0.3,0.6-0.3c0.1-0.1,0.3-0.1,0.6-0.3c0.1-0.1,0.4-0.1,0.6-0.3l0,0
					C40.8,21.6,40,22,39.5,22.4L39.5,22.4z"/>
			</g>
		</g>
	</g>
</g>
</svg>
