<?xml version="1.0" encoding="utf-8"?>
<!-- Generator: Adobe Illustrator 25.0.1, SVG Export Plug-In . SVG Version: 6.00 Build 0)  -->
<svg version="1.1" id="Слой_1" xmlns="http://www.w3.org/2000/svg" xmlns:xlink="http://www.w3.org/1999/xlink" x="0px" y="0px"
     viewBox="0 0 103 78.5" style="enable-background:new 0 0 103 78.5;" xml:space="preserve">
<style type="text/css">
	.st0{fill:#FFB05F;}
	.st1{fill:#FFFFFF;}
	.st2{fill:none;stroke:#000000;stroke-miterlimit:10;}
	.st3{fill:#0097AE;}
	.st4{opacity:0.69;enable-background:new    ;}
	.st5{opacity:0.6;}
	.st6{fill:#1D1D1B;}
	.st7{fill:none;stroke:#000000;stroke-width:0.5;stroke-miterlimit:10;}
	.st8{fill:none;stroke:#FFFFFF;stroke-width:0.25;stroke-miterlimit:10;}
	.st9{fill:none;stroke:#FFFFFF;stroke-width:2;stroke-miterlimit:10;}
</style>
    <path class="st0" d="M553.9,38.5l-11-1.8l-7.5-15.8c-0.3-3-3-5.7-6.6-5.7h-26.3V3.9c0-3-2.7-5.7-6.3-5.7h-60.9
	c-3.6,0-6.3,2.7-6.3,5.7v32.8v9.6v15.2c0,3,2.7,5.7,6.3,5.7h8.4v-1.8c0.9,6.3,6.6,11.3,13.1,11.3c6.3,0,11.3-3.9,13.1-9.6h45.7
	c1.2,5.7,6.6,9.6,13.1,9.6c6.6,0,12.2-4.8,13.1-11v1.2H554c3.6,0,6.3-2.7,6.3-6.3V46C560.2,43.3,557.5,38.5,553.9,38.5z M456.9,73.2
	c-4.8,0-9.3-3.9-9.3-8.4s3.9-8.4,9.3-8.4s9.3,3.9,9.3,8.4S461.6,73.2,456.9,73.2z M456.9,52c-6.9,0-12.8,5.4-13.1,11.3h-8.4
	c-0.9,0-1.8-0.9-1.8-1.8V46.3v-9.6V3.9c0-0.9,0.9-1.8,1.8-1.8h61.2c0.9,0,1.8,0.9,1.8,1.8v13.4v29v17H470
	C469.4,57,463.7,52,456.9,52z M528.2,73.2c-4.8,0-9.3-3.9-9.3-8.4s3.9-8.4,9.3-8.4c4.8,0,9.3,3.9,9.3,8.4S533.3,73.2,528.2,73.2z
	 M553.6,63.6h-12.2C540.8,57,535.1,52,528.3,52s-12.8,5.4-13.1,11.3H503v-17V19.1h26.3c0.9,0,1.8,0.9,1.8,1.8c0,0.3,0,0.3,0,0.9
	l8.4,17.6c0.3,0.3,0.9,0.9,1.8,1.2l12.2,1.8c0,0,0,0,0.3,0s1.8,2.1,1.8,3.6v9.6h-12.2v3.9h12.2v1.8
	C555.7,62.7,554.8,63.6,553.6,63.6z"/>
    <rect x="498.3" y="-101.2" width="6.3" height="3.9"/>
    <rect x="424.8" y="-137" width="59.1" height="3.9"/>
    <rect x="424.8" y="-121.8" width="59.1" height="3.9"/>
    <rect x="424.8" y="-106.3" width="59.1" height="3.9"/>
    <path d="M516.8-120c0-1.2-1.8-2.7-3-2.7h-13.1c-1.8,0-3.6,1.2-3.6,3v9.3c0,1.8,1.2,3,3.6,3h17.9c1.8,0,3.6-1.2,3.6-3
	c0-0.3,0-0.3,0-0.9L516.8-120z M500.7-110.2v-9.2h12.8c0,0.3,0,0.3,0,0.9l4.5,8.4h-17.3L500.7-110.2L500.7-110.2z"/>
    <circle class="st1" cx="-354.9" cy="-100.9" r="21.8"/>
    <path d="M368-111.4c1.2,1.2,2.1,2.1,3,3c-4.8,5.4-10.2,10.2-14.9,14.9c-2.7-2.7-5.4-5.4-7.8-7.8c1.2-0.9,2.1-1.8,3.6-3
	c1.2,1.8,3,3.6,4.5,5.4C360.2-103.6,364.1-107.5,368-111.4z"/>
    <g>
	<g>
		<path d="M425.3,91.9c-0.3,0.3-0.9,0.3-0.9,0.9c-0.3,0-0.9,0.3-0.9,0.3c-0.3,0-0.9,0.3-0.9,0.3c-0.3,0-0.9,0.3-0.9,0.3l0,0
			C422.3,93.7,423.8,92.8,425.3,91.9L425.3,91.9z"/>
	</g>
        <g>
		<path d="M417.3,88.3c0.3,0,0.3-0.3,0.9-0.3s0.3-0.3,0.9-0.3c0.3,0,0.3-0.3,0.9-0.3s0.3-0.3,0.9-0.3l0,0
			C419.7,87.1,418.5,88,417.3,88.3L417.3,88.3z"/>
	</g>
        <g>
		<path d="M421.2,82.6c-3.9,0-7.5,3.6-7.5,7.5s3.6,7.5,7.5,7.5s7.5-3.6,7.5-7.5C428.6,86.2,425,82.6,421.2,82.6z M427.7,90.1
			c0,3.6-3,6.6-6.6,6.6s-6.6-3-6.6-6.6s3-6.6,6.6-6.6C424.4,83.5,427.7,86.2,427.7,90.1z"/>
	</g>
        <g>
		<g>
			<path d="M416.4,92.8c1.2-0.9,3-2.1,4.8-3s3-1.8,4.8-2.7c-1.2,0.9-3,2.1-4.8,3S417.9,91.9,416.4,92.8z"/>
		</g>
            <g>
			<path d="M425,89.5c-0.3,0.3-0.9,0.9-1.2,1.2c-0.3,0.3-0.9,0.9-1.8,0.9c-0.3,0.3-0.9,0.3-1.8,0.9c-0.3,0.3-1.2,0.3-1.8,0.9l0,0
				C420.6,91.9,422.9,90.4,425,89.5L425,89.5z"/>
		</g>
            <g>
			<path d="M417.3,90.4c0.3-0.3,0.9-0.9,1.2-1.2c0.3-0.3,0.9-0.9,1.8-0.9c0.3-0.3,0.9-0.3,1.8-0.9c0.3-0.3,1.2-0.3,1.8-0.9l0,0
				C421.2,88,418.8,89.2,417.3,90.4L417.3,90.4z"/>
		</g>
	</g>
</g>
    <line class="st2" x1="588.4" y1="-84.7" x2="641.2" y2="-84.7"/>
    <line class="st2" x1="588.4" y1="-74.5" x2="641.2" y2="-74.5"/>
    <line class="st2" x1="588.4" y1="-64.3" x2="641.2" y2="-64.3"/>
    <g>
	<g>
		<path class="st1" d="M-65.3,270.2c-5.2,0-10,5-10,10.3c0,5.4,4.8,10.3,10,10.3s10-5,10-10.3C-55.3,275.2-59.7,270.2-65.3,270.2z
			 M-65.3,289.6c-4.8,0-8.9-4.1-8.9-9.2c0-0.1,0-0.2,0-0.3s0-0.1,0-0.2c0-0.1,0-0.2,0.1-0.3c0.4-4.6,4.2-8.3,8.9-8.3
			c5.2,0,8.9,3.7,8.9,9.2C-56.4,285.5-60.4,289.6-65.3,289.6z"/>
	</g>
</g>
    <g>
	<g>
		<path class="st1" d="M12.1,270c-5.2,0-10,5-10,10.3c0,5.5,4.8,10.3,10,10.3s10-5,10-10.3C22.1,275,17.7,270,12.1,270z M20.9,280.4
			c0,5-4,9.2-8.9,9.2s-8.9-4.1-8.9-9.2s4-9.2,8.9-9.2C17.3,271.2,20.9,275,20.9,280.4z"/>
	</g>
</g>
    <g>
	<g>
		<g>
			<g>
				<path class="st1" d="M-74.9,280.9h-15c-1.4,0-2.6-1.2-2.6-2.6c-0.2-9.8-0.2-58-0.2-59.3c0-3.5,2.9-6.4,6.5-6.4l62.3-0.5
					c0,0,0,0,0.1,0c1.6,0,3.1,0.6,4.3,1.9c1.1,1,1.7,2.5,1.8,4.1c0.2,29.1,0.3,50.4,0.3,61.7v0.5l-38.9,0.3v-1l38-0.3
					c0-11.4-0.1-32.6-0.3-61.3c0-1.4-0.5-2.6-1.5-3.6s-2.2-1.5-3.6-1.5l-62.6,0.7c-3,0-5.5,2.5-5.6,5.4c0,1.2,0.1,49.4,0.2,59.1
					c0,0.9,0.7,1.6,1.6,1.6h15L-74.9,280.9L-74.9,280.9z"/>
			</g>
		</g>
        <g>
			<path class="st1" d="M22.1,252.3l-8.5-18c-0.8-1.7-2.6-2.9-4.5-2.9h-27.5v-1H9.1c2.3,0,4.4,1.3,5.4,3.4l8.5,17.9L22.1,252.3z"/>
		</g>
	</g>
        <g>
		<path class="st1" d="M37.6,280.8L37.6,280.8c-4.6-0.2-9.6-0.4-15.7-0.4v-1c6.1,0,11.1,0.1,15.6,0.4c0.3,0,0.6-0.1,0.8-0.3
			s0.3-0.5,0.3-0.8l-0.5-17.6c0-0.4-0.2-0.7-0.6-0.9l-15.2-7.8l0.5-0.9l15.2,7.8c0.7,0.3,1.1,1,1.1,1.9l0.5,17.5
			c0,0.6-0.2,1.1-0.6,1.5C38.5,280.6,38,280.8,37.6,280.8z"/>
	</g>
        <g>
		<rect x="-18.4" y="279.4" class="st1" width="21.7" height="1"/>
	</g>
</g>
    <g>
	<path class="st1" d="M9.4,251.8h-19.6c-1,0-1.8-0.8-1.8-2v-10c0-1,0.8-2,1.8-2H5.2c0.7,0,1.4,0.4,1.7,1.1l4.2,10.2
		c0.2,0.6,0.2,1.3-0.2,1.9C10.5,251.5,10,251.8,9.4,251.8z M-10.2,238.4c-0.7,0-1.3,0.6-1.3,1.4v10.1c0,0.8,0.6,1.4,1.3,1.4H9.5
		c0.4,0,0.8-0.2,1.1-0.6c0.3-0.4,0.3-0.9,0.1-1.3l-4.2-10.2c-0.2-0.5-0.7-0.8-1.2-0.8C5.2,238.4-10.2,238.4-10.2,238.4z"/>
</g>
    <g>
	<rect x="27.5" y="271.5" class="st1" width="11.3" height="1"/>
</g>
    <g>
	<rect x="-11.7" y="260.4" class="st1" width="4.2" height="1"/>
</g>
    <g>
	<g>
		<g>
			<g>
				<g>
					<path class="st3" d="M-59.4,282.7c-0.4,0.3-1,0.6-1.4,1c-0.4,0.3-1,0.6-1.5,0.9c-0.5,0.3-1,0.6-1.5,0.8c-0.5,0.3-1,0.6-1.5,0.8
						l0,0C-63.2,285-61.3,283.9-59.4,282.7L-59.4,282.7z"/>
				</g>
			</g>
		</g>
	</g>
        <g>
		<g>
			<g>
				<g>
					<path class="st3" d="M-70.8,278.1c0.4-0.3,0.9-0.6,1.3-0.9c0.4-0.3,0.9-0.6,1.3-0.8c0.4-0.3,0.9-0.5,1.3-0.8
						c0.4-0.3,0.9-0.5,1.4-0.8l0,0C-67.2,275.9-69,277.1-70.8,278.1L-70.8,278.1z"/>
				</g>
			</g>
		</g>
	</g>
        <g>
		<g>
			<g>
				<g>
					<g>
						<path class="st3" d="M-72,284.2c2.1-1.5,4.3-2.8,6.5-4.1c2.2-1.3,4.5-2.6,6.7-3.8c-2.1,1.5-4.3,2.8-6.5,4.1
							C-67.3,281.6-69.7,282.9-72,284.2z"/>
					</g>
				</g>
			</g>
		</g>
            <g>
			<g>
				<g>
					<g>
						<path class="st3" d="M-59.7,279.4c-0.7,0.6-1.3,1.1-2.1,1.5c-0.7,0.5-1.5,1-2.2,1.4c-0.8,0.4-1.5,0.9-2.2,1.3
							c-0.8,0.4-1.5,0.8-2.4,1.1v-0.1C-65.7,282.8-62.7,281.2-59.7,279.4L-59.7,279.4z"/>
					</g>
				</g>
			</g>
		</g>
            <g>
			<g>
				<g>
					<g>
						<path class="st3" d="M-70.9,280.9c0.7-0.6,1.3-1.1,2.1-1.5c0.7-0.5,1.5-1,2.2-1.4c0.8-0.4,1.5-0.9,2.2-1.3
							c0.8-0.4,1.5-0.8,2.4-1.1v0.1C-65,277.3-68,279.1-70.9,280.9L-70.9,280.9z"/>
					</g>
				</g>
			</g>
		</g>
	</g>
</g>
    <g>
	<g>
		<g>
			<g>
				<g>
					<path class="st3" d="M18,283c-0.4,0.3-1,0.6-1.4,1c-0.4,0.3-1,0.6-1.5,0.9c-0.5,0.3-1,0.6-1.5,0.8c-0.5,0.3-1,0.6-1.5,0.8l0,0
						C14.2,285.3,16.1,284.2,18,283L18,283z"/>
				</g>
			</g>
		</g>
	</g>
        <g>
		<g>
			<g>
				<g>
					<path class="st3" d="M6.6,278.4c0.4-0.3,0.9-0.6,1.3-0.9c0.4-0.3,0.9-0.6,1.3-0.8c0.4-0.3,0.9-0.5,1.3-0.8
						c0.4-0.3,0.9-0.5,1.4-0.8l0,0C10.2,276.2,8.4,277.3,6.6,278.4L6.6,278.4z"/>
				</g>
			</g>
		</g>
	</g>
        <g>
		<g>
			<g>
				<g>
					<g>
						<path class="st3" d="M5.4,284.5c2.1-1.5,4.3-2.8,6.5-4.1s4.5-2.6,6.7-3.8c-2.1,1.5-4.3,2.8-6.5,4.1
							C10,281.9,7.7,283.2,5.4,284.5z"/>
					</g>
				</g>
			</g>
		</g>
            <g>
			<g>
				<g>
					<g>
						<path class="st3" d="M17.7,279.7c-0.7,0.6-1.3,1.1-2.1,1.5c-0.7,0.5-1.5,1-2.2,1.4c-0.8,0.4-1.5,0.9-2.2,1.3
							c-0.7,0.4-1.5,0.8-2.4,1.1v-0.1C11.7,283.2,14.7,281.4,17.7,279.7L17.7,279.7z"/>
					</g>
				</g>
			</g>
		</g>
            <g>
			<g>
				<g>
					<g>
						<path class="st3" d="M6.5,281.2c0.7-0.6,1.3-1.1,2.1-1.5c0.7-0.5,1.5-1,2.2-1.4c0.8-0.4,1.5-0.9,2.2-1.3
							c0.8-0.4,1.5-0.8,2.4-1.1v0.2C12.5,277.6,9.4,279.4,6.5,281.2L6.5,281.2z"/>
					</g>
				</g>
			</g>
		</g>
	</g>
</g>
    <g>
	<g>
		<path class="st3" d="M-63.4,234.5l-13,1.4l12.6,1.4l0,0L-63.4,234.5L-63.4,234.5z"/>
	</g>
        <g>
		<g>
			<path class="st3" d="M-50.2,249.3L-50.2,249.3L-50.2,249.3l-2.9-2.6l0,0l-4.9-4.4l3-3.3l4.4,4.8l9.8-11.4l3.3,3L-50.2,249.3z
				 M-52.4,246.6l2.1,2l12.1-13.2l-2.5-2.3l-9.8,11.5l-4.4-4.8l-2.2,2.5L-52.4,246.6L-52.4,246.6z"/>
		</g>
	</g>
        <g>
		<g>
			<path class="st3" d="M-30.8,234.3c-1.4-2.7-3.4-5-5.6-6.6c-2.2-1.5-4.9-2.9-7.6-3.5c-0.7,0-1.4-0.2-2-0.2c-0.2,0-0.7,0-0.9,0
				h-0.7c-0.2,0-0.2,0-0.7,0h-4.1h-8.3l-32.1,0.4l32.3,0.7l8,0.2h4.1c0.2,0,0.2,0,0.7,0h0.2c0.2,0,0.7,0,0.9,0c0.7,0,1.4,0.2,2,0.2
				c2.3,0.7,4.8,2.1,6.6,3.6c1.8,1.6,3.4,3.6,4.8,5.9c0.9,2.3,1.6,4.8,1.4,7.3c0,2.3-0.7,5-2,7c-2.3,4.3-6.6,7.7-11.2,8.5
				c-2.3,0.2-4.8,0.2-7-0.2c-2.3-0.7-4.3-1.6-6.3-3.4c-1.6-1.6-3.4-3.4-4.3-5.6c-0.2-0.7-0.7-1.6-0.9-2.9c0-0.2,0-0.7,0-0.9
				c0-0.2,0-0.7,0-0.9s0-0.7,0-0.9v-0.2v-0.4v-0.3c0,0,0,0,0-0.2c0,0,0,0,0-0.2h-5.9v0.2l0,0l0,0l0,0v0.2v0.7c0,0.2,0,0.7,0,1.4
				c0,0.2,0,0.7,0.2,0.9c0,0.2,0,0.7,0.2,0.9c0.2,1.6,0.9,2.9,1.6,4.3c1.4,2.7,3.4,5.2,5.9,7c2.3,2.1,5.2,3.4,8.3,4.1
				c2.9,0.7,5.9,0.7,8.9,0c5.9-1.4,10.8-5.6,13.5-10.8c1.4-2.7,2-5.6,2-8.5C-28.8,239.5-29.4,236.5-30.8,234.3z"/>
		</g>
	</g>
        <g>
		<path class="st3" d="M-63.2,229.4l-19.5,1.4l19.5,1.4l0,0V229.4L-63.2,229.4z"/>
	</g>
</g>
    <g>
	<g>
		<path class="st1" d="M-383.8,163.1c-5.2,0-10,5-10,10.3c0,5.4,4.8,10.3,10,10.3s10-5,10-10.3S-378.2,163.1-383.8,163.1z
			 M-383.8,182.5c-4.8,0-8.9-4.1-8.9-9.2c0-0.1,0-0.2,0-0.3s0-0.1,0-0.2c0-0.1,0-0.2,0.1-0.3c0.4-4.6,4.2-8.3,8.9-8.3
			c5.2,0,8.9,3.7,8.9,9.2C-374.9,178.4-378.9,182.5-383.8,182.5z"/>
	</g>
</g>
    <g>
	<g>
		<path class="st1" d="M-306.4,162.9c-5.2,0-10,5-10,10.3c0,5.5,4.8,10.3,10,10.3c5.2,0,10-5,10-10.3S-300.8,162.9-306.4,162.9z
			 M-297.6,173.3c0,5-4,9.2-8.9,9.2s-8.9-4.1-8.9-9.2c0-5.1,4-9.2,8.9-9.2C-301.2,164.1-297.6,167.9-297.6,173.3z"/>
	</g>
</g>
    <g>
	<g>
		<g>
			<path class="st1" d="M-393.4,173.8h-15c-1.4,0-2.6-1.2-2.6-2.6c-0.2-9.8-0.2-58-0.2-59.3c0-3.5,2.9-6.4,6.5-6.4l62.3-0.5
				c0,0,0,0,0.1,0c1.6,0,3.1,0.6,4.3,1.9c1.1,1,1.7,2.5,1.8,4.1c0.2,29.1,0.3,50.4,0.3,61.7v0.5l-38.9,0.3v-1l38-0.3
				c0-11.4-0.1-32.6-0.3-61.3c0-1.4-0.5-2.6-1.5-3.6s-2.2-1.5-3.6-1.5l-62.6,0.7c-3,0-5.5,2.5-5.6,5.4c0,1.2,0.1,49.4,0.2,59.1
				c0,0.9,0.7,1.6,1.6,1.6h15L-393.4,173.8L-393.4,173.8z"/>
		</g>
	</g>
        <g>
		<path class="st1" d="M-296.4,145.2l-8.5-18c-0.8-1.7-2.6-2.9-4.5-2.9h-27.5v-1h27.5c2.3,0,4.4,1.3,5.4,3.4l8.5,17.9L-296.4,145.2z
			"/>
	</g>
</g>
    <g>
	<path class="st1" d="M-280.9,173.7L-280.9,173.7c-4.6-0.2-9.6-0.4-15.7-0.4v-1c6.1,0,11.1,0.1,15.6,0.4c0.3,0,0.6-0.1,0.8-0.3
		c0.2-0.2,0.3-0.5,0.3-0.8l-0.5-17.6c0-0.4-0.2-0.7-0.6-0.9l-15.2-7.8l0.5-0.9l15.2,7.8c0.7,0.3,1.1,1,1.1,1.9l0.5,17.5
		c0,0.6-0.2,1.1-0.6,1.5C-280,173.5-280.5,173.7-280.9,173.7z"/>
</g>
    <g>
	<rect x="-336.9" y="172.3" class="st1" width="21.7" height="1"/>
</g>
    <g>
	<path class="st1" d="M-309.1,144.7h-19.6c-1,0-1.8-0.8-1.8-2v-10c0-1,0.8-2,1.8-2h15.4c0.7,0,1.4,0.4,1.7,1.1l4.2,10.2
		c0.2,0.6,0.2,1.3-0.2,1.9C-308,144.4-308.5,144.7-309.1,144.7z M-328.7,131.3c-0.7,0-1.3,0.6-1.3,1.4v10.1c0,0.8,0.6,1.4,1.3,1.4
		h19.7c0.4,0,0.8-0.2,1.1-0.6c0.3-0.4,0.3-0.9,0.1-1.3l-4.2-10.2c-0.2-0.5-0.7-0.8-1.2-0.8C-313.3,131.3-328.7,131.3-328.7,131.3z"
    />
</g>
    <g>
	<rect x="-291" y="164.4" class="st1" width="11.3" height="1"/>
</g>
    <g>
	<rect x="-330.2" y="153.3" class="st1" width="4.2" height="1"/>
</g>
    <g>
	<g>
		<g>
			<g>
				<g>
					<path class="st3" d="M-377.9,175.6c-0.4,0.3-1,0.6-1.4,1c-0.4,0.3-1,0.6-1.5,0.9s-1,0.6-1.5,0.8c-0.5,0.3-1,0.6-1.5,0.8l0,0
						C-381.7,177.9-379.8,176.8-377.9,175.6L-377.9,175.6z"/>
				</g>
			</g>
		</g>
	</g>
        <g>
		<g>
			<g>
				<g>
					<path class="st3" d="M-389.3,171c0.4-0.3,0.9-0.6,1.3-0.9s0.9-0.6,1.3-0.8c0.4-0.3,0.9-0.5,1.3-0.8c0.4-0.3,0.9-0.5,1.4-0.8
						l0,0C-385.7,168.8-387.5,170-389.3,171L-389.3,171z"/>
				</g>
			</g>
		</g>
	</g>
        <g>
		<g>
			<g>
				<g>
					<g>
						<path class="st3" d="M-390.5,177.1c2.1-1.5,4.3-2.8,6.5-4.1c2.2-1.3,4.5-2.6,6.7-3.8c-2.1,1.5-4.3,2.8-6.5,4.1
							C-385.8,174.5-388.2,175.8-390.5,177.1z"/>
					</g>
				</g>
			</g>
		</g>
            <g>
			<g>
				<g>
					<g>
						<path class="st3" d="M-378.2,172.3c-0.7,0.6-1.3,1.1-2.1,1.5c-0.7,0.5-1.5,1-2.2,1.4c-0.8,0.4-1.5,0.9-2.2,1.3
							c-0.8,0.4-1.5,0.8-2.4,1.1v-0.1C-384.2,175.7-381.2,174.1-378.2,172.3L-378.2,172.3z"/>
					</g>
				</g>
			</g>
		</g>
            <g>
			<g>
				<g>
					<g>
						<path class="st3" d="M-389.4,173.8c0.7-0.6,1.3-1.1,2.1-1.5c0.7-0.5,1.5-1,2.2-1.4c0.8-0.4,1.5-0.9,2.2-1.3
							c0.8-0.4,1.5-0.8,2.4-1.1v0.1C-383.5,170.2-386.5,172-389.4,173.8L-389.4,173.8z"/>
					</g>
				</g>
			</g>
		</g>
	</g>
</g>
    <g>
	<g>
		<g>
			<g>
				<g>
					<path class="st3" d="M-300.5,175.9c-0.4,0.3-1,0.6-1.4,1c-0.4,0.3-1,0.6-1.5,0.9s-1,0.6-1.5,0.8c-0.5,0.3-1,0.6-1.5,0.8l0,0
						C-304.3,178.2-302.4,177.1-300.5,175.9L-300.5,175.9z"/>
				</g>
			</g>
		</g>
	</g>
        <g>
		<g>
			<g>
				<g>
					<path class="st3" d="M-311.9,171.3c0.4-0.3,0.9-0.6,1.3-0.9c0.4-0.3,0.9-0.6,1.3-0.8c0.4-0.3,0.9-0.5,1.3-0.8
						c0.4-0.3,0.9-0.5,1.4-0.8l0,0C-308.3,169.1-310.1,170.2-311.9,171.3L-311.9,171.3z"/>
				</g>
			</g>
		</g>
	</g>
        <g>
		<g>
			<g>
				<g>
					<g>
						<path class="st3" d="M-313.1,177.4c2.1-1.5,4.3-2.8,6.5-4.1c2.2-1.3,4.5-2.6,6.7-3.8c-2.1,1.5-4.3,2.8-6.5,4.1
							C-308.5,174.8-310.8,176.1-313.1,177.4z"/>
					</g>
				</g>
			</g>
		</g>
            <g>
			<g>
				<g>
					<g>
						<path class="st3" d="M-300.8,172.6c-0.7,0.6-1.3,1.1-2.1,1.5c-0.7,0.5-1.5,1-2.2,1.4c-0.8,0.4-1.5,0.9-2.2,1.3
							c-0.7,0.4-1.5,0.8-2.4,1.1v-0.1C-306.8,176.1-303.8,174.3-300.8,172.6L-300.8,172.6z"/>
					</g>
				</g>
			</g>
		</g>
            <g>
			<g>
				<g>
					<g>
						<path class="st3" d="M-312,174.1c0.7-0.6,1.3-1.1,2.1-1.5c0.7-0.5,1.5-1,2.2-1.4c0.8-0.4,1.5-0.9,2.2-1.3
							c0.8-0.4,1.5-0.8,2.4-1.1v0.2C-306,170.5-309.1,172.3-312,174.1L-312,174.1z"/>
					</g>
				</g>
			</g>
		</g>
	</g>
</g>
    <g>
	<g>
		<path class="st3" d="M-222.3,111.9l-13,1.4l12.6,1.4l0,0L-222.3,111.9L-222.3,111.9z"/>
	</g>
        <g>
		<g>
			<path class="st3" d="M-209.1,126.7L-209.1,126.7L-209.1,126.7l-2.9-2.6l0,0l-4.9-4.4l3-3.3l4.4,4.8l9.8-11.4l3.3,3L-209.1,126.7z
				 M-211.3,124l2.1,2l12.1-13.2l-2.5-2.3l-9.8,11.5l-4.4-4.8l-2.2,2.5L-211.3,124L-211.3,124z"/>
		</g>
	</g>
        <g>
		<g>
			<path class="st3" d="M-189.7,111.7c-1.4-2.7-3.4-5-5.6-6.6c-2.2-1.5-4.9-2.9-7.6-3.5c-0.7,0-1.4-0.2-2-0.2c-0.2,0-0.7,0-0.9,0
				h-0.7c-0.2,0-0.2,0-0.7,0h-4.1h-8.3l-32.1,0.4l32.3,0.7l8,0.2h4.1c0.2,0,0.2,0,0.7,0h0.2c0.2,0,0.7,0,0.9,0c0.7,0,1.4,0.2,2,0.2
				c2.3,0.7,4.8,2.1,6.6,3.6c1.8,1.6,3.4,3.6,4.8,5.9c0.9,2.3,1.6,4.8,1.4,7.3c0,2.3-0.7,5-2,7c-2.3,4.3-6.6,7.7-11.2,8.5
				c-2.3,0.2-4.8,0.2-7-0.2c-2.3-0.7-4.3-1.6-6.3-3.4c-1.6-1.6-3.4-3.4-4.3-5.6c-0.2-0.7-0.7-1.6-0.9-2.9c0-0.2,0-0.7,0-0.9
				c0-0.2,0-0.7,0-0.9c0-0.2,0-0.7,0-0.9v-0.2v-0.4v-0.3c0,0,0,0,0-0.2c0,0,0,0,0-0.2h-5.9v0.2l0,0l0,0l0,0v0.2v0.7
				c0,0.2,0,0.7,0,1.4c0,0.2,0,0.7,0.2,0.9c0,0.2,0,0.7,0.2,0.9c0.2,1.6,0.9,2.9,1.6,4.3c1.4,2.7,3.4,5.2,5.9,7
				c2.3,2.1,5.2,3.4,8.3,4.1c2.9,0.7,5.9,0.7,8.9,0c5.9-1.4,10.8-5.6,13.5-10.8c1.4-2.7,2-5.6,2-8.5
				C-187.7,116.9-188.3,113.9-189.7,111.7z"/>
		</g>
	</g>
        <g>
		<path class="st3" d="M-222.1,106.8l-19.5,1.4l19.5,1.4l0,0V106.8L-222.1,106.8z"/>
	</g>
</g>
    <g>
	<path class="st3" d="M186,516c0,32.2-26.8,59.1-59.8,59.1c-32.2,0-59.8-27.6-59.1-59.8c0.8-33,26.8-59.8,59.8-59.8
		C159.1,456.2,186,483.8,186,516z M156,485.3c-13.8,14.6-27.6,28.4-43,43.7c-5.4-6.9-10.7-13-16.1-19.2c-4.6,4.6-7.7,8.4-11.5,12.3
		c10,9.2,19.9,19.2,29.1,28.4c17.6-17.6,35.3-35.3,52.9-53.7C164.5,493.7,160.6,489.9,156,485.3z"/>
        <path class="st1" d="M156,485.3c4.6,4.6,8.4,8.4,11.5,11.5c-18.4,18.4-36.1,36.1-52.9,53.7c-9.2-9.2-19.2-19.2-28.4-28.4
		c3.1-3.8,6.9-6.9,11.5-12.3c5.4,6.1,10.7,12.3,16.1,19.2C128.4,513.7,142.2,499.9,156,485.3z"/>
</g>
    <path d="M318.6,361.6H161.7c-14.3,0-26,11.7-26,26v5.9v33.9h9.8h78.8h111.3v61.9c0,9.1-7.2,16.3-16.3,16.3h-95.1v9.8h94.4
	c14.3,0,26-11.7,26-26v-61.9v-33.9v-5.9C344.7,373.3,332.9,361.6,318.6,361.6z M334.9,417.6H144.8v-14.3h190.1V417.6L334.9,417.6z
	 M334.9,393.5H144.8v-5.9c0-9.1,7.2-16.3,16.3-16.3h157.5c9.1,0,16.3,7.2,16.3,16.3V393.5L334.9,393.5z"/>
    <g>
	<path d="M299.7,498.3c-4.6,0-8.5-1.3-11.7-3.9c-3.3,2.6-7.8,3.9-11.7,3.9c-11.1,0-20.2-9.1-20.2-20.2s9.1-20.2,20.2-20.2
		c4.6,0,8.5,1.3,11.7,3.9c3.3-2.6,7.8-3.9,11.7-3.9c11.1,0,20.2,9.1,20.2,20.2C320.6,489.2,311.4,498.3,299.7,498.3z M288,481.4
		l3.3,3.9c2,2.6,5.2,3.9,8.5,3.9c6.5,0,11.7-5.2,11.7-11.7s-5.2-11.7-11.7-11.7c-3.3,0-6.5,1.3-8.5,3.9l-3.3,3.9l-3.3-3.9
		c-2-2.6-5.2-3.9-8.5-3.9c-6.5,0-11.7,5.2-11.7,11.7s5.2,11.7,11.7,11.7c3.3,0,6.5-1.3,8.5-3.9L288,481.4z"/>
</g>
    <g>
	<path d="M283.4,481.4c-0.7,0.7-1.3,0.7-2,1.3s-1.3,0.7-2,1.3c-0.7,0.7-1.3,0.7-2,1.3s-1.3,0.7-2,1.3l0,0
		C278.2,484,280.8,482.7,283.4,481.4L283.4,481.4z"/>
</g>
    <g>
	<path d="M268.5,474.9c0.7-0.7,1.3-0.7,2-1.3c0.7-0.7,1.3-0.7,2-1.3s1.3-0.7,2-1.3c0.7-0.7,1.3-0.7,2-1.3l0,0
		C273,472.3,271.1,473.6,268.5,474.9L268.5,474.9z"/>
</g>
    <g>
	<g>
		<path d="M267.2,483.3c2.6-2,5.9-3.9,8.5-5.2c2.6-2,5.9-3.3,9.1-5.2c-2.6,2-5.9,3.9-8.5,5.2C273,480.1,269.8,481.4,267.2,483.3z"/>
	</g>
        <g>
		<path d="M282.8,476.8c-0.7,0.7-2,1.3-2.6,2c-0.7,0.7-2,1.3-2.6,2c-1.3,0.7-2,1.3-3.3,2s-2,1.3-3.3,1.3l0,0
			C275,481.4,278.9,479.4,282.8,476.8L282.8,476.8z"/>
	</g>
        <g>
		<path d="M268.5,478.8c0.7-0.7,2-1.3,2.6-2c0.7-0.7,2-1.3,2.6-2c1.3-0.7,2-1.3,3.3-2s2-1.3,3.3-1.3l0,0
			C276.3,474.2,272.4,476.8,268.5,478.8L268.5,478.8z"/>
	</g>
</g>
    <g>
	<path d="M307.5,481.4c-0.7,0.7-1.3,0.7-2,1.3c-0.7,0.7-1.3,0.7-2,1.3c-0.7,0.7-1.3,0.7-2,1.3s-1.3,0.7-2,1.3l0,0
		C302.3,484,304.9,482.7,307.5,481.4L307.5,481.4z"/>
</g>
    <g>
	<path d="M292.6,474.9c0.7-0.7,1.3-0.7,2-1.3c0.7-0.7,1.3-0.7,2-1.3s1.3-0.7,2-1.3c0.7-0.7,1.3-0.7,2-1.3l0,0
		C297.1,472.3,294.5,473.6,292.6,474.9L292.6,474.9z"/>
</g>
    <g>
	<g>
		<path d="M290.6,483.3c2.6-2,5.9-3.9,8.5-5.2c2.6-2,5.9-3.3,9.1-5.2c-2.6,2-5.9,3.9-8.5,5.2C297.1,480.1,293.9,481.4,290.6,483.3z"
        />
	</g>
        <g>
		<path d="M306.9,476.8c-0.7,0.7-2,1.3-2.6,2c-0.7,0.7-2,1.3-2.6,2c-1.3,0.7-2,1.3-3.3,2s-2,1.3-3.3,1.3l0,0
			C299.1,481.4,303,479.4,306.9,476.8L306.9,476.8z"/>
	</g>
        <g>
		<path d="M291.9,478.8c0.7-0.7,2-1.3,2.6-2c0.7-0.7,2-1.3,2.6-2c1.3-0.7,2-1.3,3.3-2s2-1.3,3.3-1.3l0,0
			C299.7,474.2,296.5,476.8,291.9,478.8L291.9,478.8z"/>
	</g>
</g>
    <g>
	<g>
		<path class="st3" d="M-20.2,505.9c-9.5,0-17.3,7.7-17.3,17.3s7.7,17.3,17.3,17.3s17.3-7.7,17.3-17.3S-10.7,505.9-20.2,505.9z
			 M-5.1,523.2c0,8.3-6.8,15.1-15.1,15.1s-15.1-6.8-15.1-15.1s6.8-15.2,15.1-15.2S-5.1,514.9-5.1,523.2z"/>
	</g>
</g>
    <g>
	<g>
		<g>
			<path class="st3" d="M66.5,590.8c-0.7,0.5-1.6,1.1-2.3,1.6c-0.7,0.5-1.6,1-2.4,1.5c-0.8,0.4-1.6,1-2.4,1.4s-1.7,1-2.4,1.4l0,0
				C60.1,594.6,63.4,592.7,66.5,590.8L66.5,590.8z"/>
		</g>
	</g>
        <g>
		<g>
			<path class="st3" d="M47.5,583.2c0.7-0.5,1.5-1,2.2-1.5c0.7-0.4,1.5-1,2.2-1.4s1.5-0.8,2.2-1.3c0.7-0.4,1.5-0.8,2.3-1.3l0,0
				C53.6,579.6,50.6,581.4,47.5,583.2L47.5,583.2z"/>
		</g>
	</g>
        <g>
		<g>
			<path class="st3" d="M56.6,569.3c-9.5,0-17.3,7.7-17.3,17.3s7.7,17.3,17.3,17.3s17.3-7.7,17.3-17.3S66.1,569.3,56.6,569.3z
				 M71.7,586.6c0,8.3-6.8,15.1-15.1,15.1s-15.1-6.8-15.1-15.1s6.8-15.2,15.1-15.2C65,571.4,71.7,578.3,71.7,586.6z"/>
		</g>
	</g>
        <g>
		<g>
			<g>
				<path class="st3" d="M45.6,593.2c3.5-2.4,7.2-4.6,10.8-6.9c3.7-2.1,7.4-4.3,11.2-6.3c-3.5,2.4-7.2,4.6-10.8,6.9
					C53.1,589,49.4,591.3,45.6,593.2z"/>
			</g>
		</g>
            <g>
			<g>
				<path class="st3" d="M65.9,585.4c-1.2,1-2.2,1.8-3.5,2.5c-1.2,0.8-2.4,1.6-3.6,2.3c-1.3,0.7-2.4,1.5-3.7,2.1
					c-1.3,0.6-2.5,1.3-3.9,1.8l0,0C56.1,591.1,61,588.3,65.9,585.4L65.9,585.4z"/>
			</g>
		</g>
            <g>
			<g>
				<path class="st3" d="M47.3,587.8c1.2-1,2.2-1.8,3.5-2.5c1.2-0.8,2.4-1.6,3.6-2.3c1.3-0.7,2.4-1.5,3.7-2.1
					c1.3-0.6,2.5-1.3,3.9-1.8v0.1C57.2,582,52.3,584.9,47.3,587.8L47.3,587.8z"/>
			</g>
		</g>
	</g>
</g>
    <polygon class="st2" points="-140.1,532.9 -150.7,523.2 -187.2,565.5 -203.4,547.8 -213.2,558.4 -195.2,574.9 -195.2,574.9
	-186,583.2 -186,583.2 -186,583.2 -178.5,575 -178.5,575 "/>
    <g>
	<g>
		<path class="st1" d="M-292.6,49.7h-38.7v-0.3h38.7c6.3,0,11.4-5.1,11.4-11.4V-8.8c0-6.3-5.1-11.4-11.4-11.4h-72
			c-6.2,0-11.3,5.1-11.3,11.4V4h-0.4V-8.8c0-6.5,5.3-11.7,11.7-11.7h72c6.5,0,11.7,5.3,11.7,11.7V38
			C-280.9,44.4-286.2,49.7-292.6,49.7z"/>
        <path class="st1" d="M-292.6,49.9h-39v-0.8h39c6.1,0,11.1-5,11.1-11.1V-8.8c0-6.1-5-11.1-11.1-11.1h-72c-6.1,0-11.1,5-11.1,11.1
			V4.3h-0.8V-8.8c0-6.6,5.4-12,12-12h71.9c6.6,0,12,5.4,12,12V38C-280.7,44.5-286,49.9-292.6,49.9z"/>
	</g>
</g>
    <g>
	<rect x="-376.1" y="-10.2" class="st1" width="95" height="0.3"/>
</g>
    <g>
	<rect x="-376.1" y="-5.6" class="st1" width="95" height="0.3"/>
</g>
    <g>
	<path class="st1" d="M-296,44.9c-2.9,0-5.7-1.4-7.5-3.7c-1.8,2.3-4.5,3.7-7.5,3.7c-5.2,0-9.3-4.2-9.3-9.3c0-5.2,4.2-9.3,9.3-9.3
		c2.9,0,5.7,1.4,7.5,3.7c1.8-2.3,4.5-3.7,7.5-3.7c5.2,0,9.3,4.2,9.3,9.3S-290.8,44.9-296,44.9z M-303.5,40.6l0.1,0.2
		c1.7,2.4,4.4,3.8,7.3,3.8c5,0,9-4,9-9s-4-9-9-9c-2.9,0-5.6,1.4-7.3,3.8l-0.1,0.2l-0.1-0.3c-1.7-2.4-4.4-3.8-7.3-3.8c-5,0-9,4-9,9
		s4,9,9,9c2.9,0,5.6-1.4,7.3-3.8L-303.5,40.6z"/>
</g>
    <g>
	<g>
		<g>
			<g>
				<path class="st3" d="M-290.2,37.8c-0.4,0.3-1,0.6-1.4,1c-0.4,0.3-1,0.6-1.5,0.9c-0.5,0.3-1,0.6-1.5,0.8c-0.5,0.3-1,0.6-1.5,0.8
					l0,0C-294.1,40.1-292.1,38.9-290.2,37.8L-290.2,37.8z"/>
			</g>
		</g>
	</g>
        <g>
		<g>
			<g>
				<path class="st3" d="M-301.7,33.2c0.4-0.3,0.9-0.6,1.3-0.9c0.4-0.3,0.9-0.6,1.3-0.8c0.4-0.3,0.9-0.5,1.3-0.8s0.9-0.5,1.4-0.8
					l0,0C-298,31.1-299.8,32.1-301.7,33.2L-301.7,33.2z"/>
			</g>
		</g>
	</g>
        <g>
		<g>
			<g>
				<g>
					<path class="st3" d="M-302.8,39.2c2.1-1.5,4.3-2.8,6.5-4.1s4.5-2.6,6.7-3.8c-2.1,1.5-4.3,2.8-6.5,4.1S-300.5,38.1-302.8,39.2z"
                    />
				</g>
			</g>
		</g>
            <g>
			<g>
				<g>
					<path class="st3" d="M-290.6,34.6c-0.7,0.6-1.3,1.1-2.1,1.5c-0.7,0.5-1.5,1-2.2,1.4c-0.8,0.4-1.5,0.9-2.2,1.3
						c-0.8,0.4-1.5,0.8-2.4,1.1v-0.1C-296.5,38-293.6,36.3-290.6,34.6L-290.6,34.6z"/>
				</g>
			</g>
		</g>
            <g>
			<g>
				<g>
					<path class="st3" d="M-301.8,36c0.7-0.6,1.3-1.1,2.1-1.5c0.7-0.5,1.5-1,2.2-1.4c0.8-0.4,1.5-0.9,2.2-1.3
						c0.7-0.4,1.5-0.8,2.4-1.1v0.1C-295.9,32.5-298.8,34.2-301.8,36L-301.8,36z"/>
				</g>
			</g>
		</g>
	</g>
</g>
    <g>
	<path class="st1" d="M-359.1,57.9c-14.6,0-26.5-11.9-26.5-26.5s11.9-26.5,26.5-26.5s26.5,11.9,26.5,26.5S-344.5,57.9-359.1,57.9z
		 M-359.1,5.3c-14.4,0-26,11.7-26,26s11.7,26,26,26c14.4,0,26-11.7,26-26S-344.7,5.3-359.1,5.3z"/>
</g>
    <g>
	<path class="st3" d="M-363.9,45.7L-363.9,45.7L-363.9,45.7l-4.8-4.4l0,0l-8.2-7.5l5.1-5.5l7.4,8.1l16.5-19.2l5.5,5L-363.9,45.7z
		 M-367.5,41.2l3.5,3.2l20.3-22.2l-4.2-3.8l-16.5,19.3l-7.4-8.1l-3.8,4.1L-367.5,41.2L-367.5,41.2z"/>
</g>
    <rect x="-633.8" y="-514.3" class="st4" width="661.3" height="249.3"/>
    <g>
	<g>
		<g>
			<path class="st1" d="M-21.5-199.8h-38.7v-0.3h38.7c6.3,0,11.4-5.1,11.4-11.4v-46.8c0-6.3-5.1-11.4-11.4-11.4h-71.9
				c-6.3,0-11.4,5.1-11.4,11.4v12.8h-0.3v-12.8c0-6.5,5.3-11.7,11.7-11.7h71.9c6.5,0,11.7,5.3,11.7,11.7v46.8
				C-9.8-205-15-199.8-21.5-199.8z"/>
            <path class="st1" d="M-21.5-199.5h-38.9v-0.8h38.9c6.1,0,11.1-5,11.1-11.1v-46.8c0-6.1-5-11.1-11.1-11.1h-71.9
				c-6.1,0-11.1,5-11.1,11.1v13.1h-0.9v-13.1c0-6.6,5.4-12,12-12h71.9c6.6,0,12,5.4,12,12v46.8C-9.5-204.9-14.9-199.5-21.5-199.5z"
            />
		</g>
	</g>
        <g>
		<rect x="-105" y="-259.6" class="st1" width="95" height="0.3"/>
	</g>
        <g>
		<rect x="-105" y="-255.1" class="st1" width="95" height="0.3"/>
	</g>
        <g>
		<path class="st1" d="M-24.9-204.5c-2.9,0-5.7-1.4-7.5-3.7c-1.8,2.3-4.5,3.7-7.5,3.7c-5.2,0-9.3-4.2-9.3-9.3c0-5.2,4.2-9.3,9.3-9.3
			c2.9,0,5.7,1.4,7.5,3.7c1.8-2.3,4.5-3.7,7.5-3.7c5.2,0,9.3,4.2,9.3,9.3C-15.5-208.7-19.7-204.5-24.9-204.5z M-32.3-208.8l0.1,0.2
			c1.7,2.4,4.4,3.8,7.3,3.8c5,0,9-4,9-9s-4-9-9-9c-2.9,0-5.6,1.4-7.3,3.8l-0.1,0.2l-0.1-0.2c-1.7-2.4-4.4-3.8-7.3-3.8c-5,0-9,4-9,9
			s4,9,9,9c2.9,0,5.6-1.4,7.3-3.8L-32.3-208.8z"/>
	</g>
        <g>
		<g>
			<g>
				<g>
					<path class="st3" d="M-19.1-211.6c-0.4,0.3-1,0.6-1.4,1c-0.4,0.3-1,0.6-1.5,0.9s-1,0.6-1.5,0.8c-0.5,0.3-1,0.6-1.5,0.8l0,0
						C-22.9-209.3-21-210.5-19.1-211.6L-19.1-211.6z"/>
				</g>
			</g>
		</g>
            <g>
			<g>
				<g>
					<path class="st3" d="M-30.5-216.2c0.4-0.3,0.9-0.6,1.3-0.9c0.4-0.3,0.9-0.6,1.3-0.8c0.4-0.3,0.9-0.5,1.3-0.8s0.9-0.5,1.4-0.8
						l0,0C-26.9-218.4-28.7-217.3-30.5-216.2L-30.5-216.2z"/>
				</g>
			</g>
		</g>
            <g>
			<g>
				<g>
					<g>
						<path class="st3" d="M-31.7-210.2c2.1-1.5,4.3-2.8,6.5-4.1s4.5-2.6,6.7-3.8c-2.1,1.5-4.3,2.8-6.5,4.1
							C-27.1-212.7-29.4-211.4-31.7-210.2z"/>
					</g>
				</g>
			</g>
                <g>
				<g>
					<g>
						<path class="st3" d="M-19.4-214.9c-0.7,0.6-1.3,1.1-2.1,1.5c-0.7,0.5-1.5,1-2.2,1.4c-0.8,0.4-1.5,0.9-2.2,1.3
							c-0.8,0.4-1.5,0.8-2.4,1.1v-0.1C-25.4-211.4-22.4-213.2-19.4-214.9L-19.4-214.9z"/>
					</g>
				</g>
			</g>
                <g>
				<g>
					<g>
						<path class="st3" d="M-30.6-213.5c0.7-0.6,1.3-1.1,2.1-1.5c0.7-0.5,1.5-1,2.2-1.4c0.8-0.4,1.5-0.9,2.2-1.3
							c0.8-0.4,1.5-0.8,2.4-1.1v0.1C-24.7-217-27.7-215.2-30.6-213.5L-30.6-213.5z"/>
					</g>
				</g>
			</g>
		</g>
	</g>
        <g>
		<path class="st1" d="M-88-191.5c-14.6,0-26.5-11.9-26.5-26.5s11.9-26.5,26.5-26.5s26.5,11.9,26.5,26.5S-73.3-191.5-88-191.5z
			 M-88-244.1c-14.4,0-26,11.7-26,26s11.7,26,26,26c14.4,0,26-11.7,26-26S-73.6-244.1-88-244.1z"/>
	</g>
        <g>
		<path class="st3" d="M-92.7-203.8L-92.7-203.8L-92.7-203.8l-4.8-4.4l0,0l-8.2-7.5l5.1-5.5l7.4,8.1l16.5-19.2l5.5,5L-92.7-203.8z
			 M-96.4-208.3l3.5,3.2l20.3-22.2l-4.2-3.8l-16.6,19.3l-7.4-8.1l-3.8,4.1L-96.4-208.3L-96.4-208.3z"/>
	</g>
</g>
    <g>
	<g>
		<g>
			<path d="M622.7-112.2c-21.9,0-39.6-17.8-39.6-39.6c0-21.9,17.8-39.6,39.6-39.6s39.6,17.8,39.6,39.6
				C662.4-130,644.6-112.2,622.7-112.2z M622.7-190.8c-21.4,0-38.9,17.5-38.9,38.9s17.5,38.9,38.9,38.9s38.9-17.4,38.9-38.9
				C661.6-173.3,644.2-190.8,622.7-190.8z"/>
		</g>
	</g>
        <g>
		<g>
			<g>
				<path class="st3" d="M622.7-132.2c-2.2,0-4-1.8-4-4v-21.5c0-2.2,1.8-4,4-4s4,1.8,4,4v21.5C626.7-133.9,624.9-132.2,622.7-132.2z
					 M622.7-159.6c-1.1,0-2,0.9-2,2v21.5c0,1.1,0.9,2,2,2s2-0.9,2-2v-21.5C624.7-158.7,623.8-159.6,622.7-159.6z"/>
			</g>
		</g>
            <g>
			<g>
				<path class="st3" d="M622.7-163.7c-2.2,0-4-1.8-4-4s1.8-4,4-4s4,1.8,4,4C626.7-165.4,624.9-163.7,622.7-163.7z M622.7-169.6
					c-1.1,0-2,0.9-2,2s0.9,2,2,2s2-0.9,2-2S623.8-169.6,622.7-169.6z"/>
			</g>
		</g>
	</g>
        <g>
		<path d="M622.7-125.5c-14.6,0-26.4-11.8-26.4-26.4s11.8-26.4,26.4-26.4c14.6,0,26.4,11.8,26.4,26.4c0,2.9-0.8,5.6-1.6,8.2
			c-0.3,0.9-0.5,1.8-0.8,2.7c-1,3.9,0.6,13.8,0.6,13.9v0.3H647c-0.1,0-6.6-0.5-9.3-0.1C634.4-126.4,626.1-125.5,622.7-125.5z
			 M622.7-177.8c-14.3,0-25.9,11.6-25.9,25.9s11.6,25.9,25.9,25.9c3.3,0,11.6-0.9,15-1.5c2.5-0.4,7.8,0,9.1,0.1
			c-0.3-1.8-1.5-10.2-0.5-13.8c0.2-0.9,0.5-1.8,0.8-2.7c0.8-2.6,1.5-5.2,1.5-8C648.6-166.2,637-177.8,622.7-177.8z"/>
	</g>
</g>
    <g>
	<g>
		<path class="st3" d="M-164.9-214.4c-1.1-4.7-2.1-9.4-3.1-14.1s-2.1-9.4-3.1-14.1l-0.1-0.6h-0.6c-1.8,0.1-3.5,0.2-5.2,0.2l-0.4-3.3
			c-0.2-1.8-0.5-3.9-1.6-5.7c-1.2-1.8-3.2-3.1-5.4-3.3c-2.7-0.2-5.4,1.1-7.3,3.5c-1.5,1.9-2.4,4.6-2.5,7.6c0,0.5,0,1,0,1.5
			c-1.4,0.1-2.9,0.1-4.4,0.2h-0.6l-0.2,0.6c-1.3,9.6-3.5,19.2-6.5,28.4l-0.3,1h1c6.6-0.2,13.2-0.3,19.8-0.5s13.2-0.3,19.8-0.5h0.9
			L-164.9-214.4z M-192.8-244.1c0.1-2.7,0.9-5,2.2-6.8c1.5-1.9,3.8-3.1,6-2.9c1.7,0.1,3.4,1.2,4.3,2.6c0.9,1.5,1.2,3.4,1.4,5.1
			l0.4,3.2c-2.3,0-4.5,0-6.7,0c-2.5,0-5,0-7.6,0.1C-192.9-243.2-192.9-243.7-192.8-244.1z M-185.4-214.5c-6.3,0.2-12.5,0.3-18.7,0.5
			c2.8-8.8,4.9-17.9,6.1-27.1c1.3-0.1,2.5-0.1,3.7-0.1c0.1,1.6,0.3,3.2,0.6,4.8c0.1,0.4,0.4,0.6,0.7,0.6h0.1
			c0.4-0.1,0.7-0.4,0.6-0.8c-0.2-1.5-0.4-3.1-0.5-4.6c2.6-0.1,5.1-0.1,7.5-0.1c2.2,0,4.5,0,6.8,0l0.5,4.4c0,0.4,0.4,0.7,0.8,0.6
			c0.4,0,0.7-0.4,0.6-0.8l-0.5-4.3c1.5,0,3-0.1,4.5-0.2c1,4.5,2,9,3,13.5c1,4.4,1.9,8.8,2.9,13.2
			C-172.8-214.8-179.1-214.6-185.4-214.5z"/>
	</g>
        <g class="st5">
		<g>
			<g>
				<path class="st6" d="M-194.3-219.9h2.8v0.5h-3.4v-8.2h0.5L-194.3-219.9z"/>
			</g>
		</g>
            <g>
			<g>
				<path class="st6" d="M-177.8-227h-2.8v3.6h2.4v0.5h-2.4v3.6h-0.5v-8.2h3.4L-177.8-227z"/>
			</g>
		</g>
            <g>
			<g>
				<path class="st6" d="M-173-227.6v0.5h-1.9v7.7h-0.5v-7.7h-1.9v-0.5H-173z"/>
			</g>
		</g>
            <g>
			<g>
				<g>
					<path class="st3" d="M-187.1-227.8c-2.3,0-4.2,1.9-4.2,4.2s1.9,4.2,4.2,4.2s4.2-1.9,4.2-4.2S-184.8-227.8-187.1-227.8z
						 M-183.4-223.6c0,2-1.7,3.7-3.7,3.7s-3.7-1.7-3.7-3.7s1.7-3.7,3.7-3.7S-183.4-225.6-183.4-223.6z"/>
				</g>
			</g>
                <g>
				<g>
					<g>
						<path class="st3" d="M-184.7-222.6c-0.2,0.1-0.4,0.3-0.6,0.4s-0.4,0.2-0.6,0.4c-0.2,0.1-0.4,0.2-0.6,0.3
							c-0.2,0.1-0.4,0.2-0.6,0.3l0,0C-186.2-221.6-185.5-222.1-184.7-222.6L-184.7-222.6z"/>
					</g>
				</g>
                    <g>
					<g>
						<path class="st3" d="M-189.3-224.4c0.2-0.1,0.4-0.2,0.5-0.3c0.2-0.1,0.4-0.2,0.5-0.3c0.2-0.1,0.4-0.2,0.5-0.3
							c0.2-0.1,0.4-0.2,0.6-0.3l0,0C-187.8-225.3-188.6-224.9-189.3-224.4L-189.3-224.4z"/>
					</g>
				</g>
                    <g>
					<g>
						<g>
							<path class="st3" d="M-189.8-222c0.9-0.6,1.7-1.1,2.6-1.7c0.9-0.5,1.8-1.1,2.7-1.5c-0.9,0.6-1.7,1.1-2.6,1.7
								C-187.9-223-188.8-222.5-189.8-222z"/>
						</g>
					</g>
                        <g>
						<g>
							<path class="st3" d="M-184.8-223.9c-0.3,0.2-0.5,0.4-0.8,0.6s-0.6,0.4-0.9,0.6c-0.3,0.2-0.6,0.3-0.9,0.5
								c-0.3,0.2-0.6,0.3-0.9,0.4l0,0C-187.2-222.5-186-223.2-184.8-223.9L-184.8-223.9z"/>
						</g>
					</g>
                        <g>
						<g>
							<path class="st3" d="M-189.3-223.3c0.3-0.2,0.5-0.4,0.8-0.6c0.3-0.2,0.6-0.4,0.9-0.6s0.6-0.3,0.9-0.5
								c0.3-0.2,0.6-0.3,0.9-0.4l0,0C-187-224.7-188.1-224-189.3-223.3L-189.3-223.3z"/>
						</g>
					</g>
				</g>
			</g>
		</g>
	</g>
        <g>
		<path class="st1" d="M-136.6-192.5h-98c-1.4,0-2.5-1.1-2.5-2.5v-73.5c0-1.4,1.1-2.5,2.5-2.5h98c1.4,0,2.5,1.1,2.5,2.5v73.5
			C-134.1-193.6-135.3-192.5-136.6-192.5z M-234.6-270.2c-1,0-1.8,0.8-1.8,1.8v73.5c0,1,0.8,1.8,1.8,1.8h98c1,0,1.8-0.8,1.8-1.8
			v-73.5c0-1-0.8-1.8-1.8-1.8H-234.6z"/>
	</g>
        <g>
		<path class="st1" d="M-140.9-203.8h-89.2v-60.1h89.2V-203.8z M-229.5-204.3h88.1v-59.1h-88.2L-229.5-204.3L-229.5-204.3z"/>
	</g>
        <g>
		<rect x="-229.8" y="-200.9" class="st1" width="88.7" height="0.8"/>
	</g>
</g>
    <g>
	<rect x="-229.9" y="-198.5" width="0.2" height="3"/>
</g>
    <g>
	<rect x="-228.5" y="-198.5" width="0.2" height="3"/>
</g>
    <g>
	<rect x="-227.1" y="-198.5" width="0.2" height="3"/>
</g>
    <g>
	<rect x="-225.8" y="-198.5" width="0.2" height="3"/>
</g>
    <g>
	<rect x="-224.4" y="-198.5" width="0.2" height="3"/>
</g>
    <g>
	<g>
		<g>
			<path class="st3" d="M-185.1-196.7l-0.1,0.1l-0.1,0.1l-0.1,0.1l-0.1,0.1l0,0C-185.4-196.5-185.2-196.6-185.1-196.7L-185.1-196.7z
				"/>
		</g>
	</g>
        <g>
		<g>
			<path class="st3" d="M-186.1-197.1l0.1-0.1l0.1-0.1c0,0,0.1,0,0.1-0.1s0.1,0,0.1-0.1l0,0C-185.8-197.3-186-197.2-186.1-197.1
				L-186.1-197.1z"/>
		</g>
	</g>
        <g>
		<g>
			<path class="st3" d="M-185.6-197.9c-0.5,0-1,0.4-1,1s0.4,1,1,1s1-0.4,1-1S-185.1-197.9-185.6-197.9z M-184.8-196.9
				c0,0.5-0.4,0.9-0.9,0.9s-0.9-0.4-0.9-0.9s0.4-0.9,0.9-0.9S-184.8-197.4-184.8-196.9z"/>
		</g>
	</g>
        <g>
		<g>
			<g>
				<path class="st3" d="M-186.3-196.6c0.2-0.1,0.4-0.3,0.6-0.4c0.2-0.1,0.4-0.2,0.6-0.4c-0.2,0.1-0.4,0.3-0.6,0.4
					C-185.8-196.8-186-196.7-186.3-196.6z"/>
			</g>
		</g>
            <g>
			<g>
				<path class="st3" d="M-185.1-197c-0.1,0.1-0.1,0.1-0.2,0.1c-0.1,0-0.1,0.1-0.2,0.1c-0.1,0-0.1,0.1-0.2,0.1
					c-0.1,0-0.1,0.1-0.2,0.1l0,0C-185.7-196.7-185.4-196.8-185.1-197L-185.1-197z"/>
			</g>
		</g>
            <g>
			<g>
				<path class="st3" d="M-186.2-196.9c0.1-0.1,0.1-0.1,0.2-0.1c0.1,0,0.1-0.1,0.2-0.1s0.1-0.1,0.2-0.1c0.1,0,0.1-0.1,0.2-0.1l0,0
					C-185.6-197.2-185.9-197-186.2-196.9L-186.2-196.9z"/>
			</g>
		</g>
	</g>
</g>
    <g>
	<g>
		<g>
			<g>
				<g>
					<path class="st3" d="M328.2-215.1c-2.2,0-4-1.8-4-4v-21.5c0-2.2,1.8-4,4-4s4,1.8,4,4v21.5C332.1-216.9,330.4-215.1,328.2-215.1
						z M328.2-242.6c-1.1,0-2,0.9-2,2v21.5c0,1.1,0.9,2,2,2s2-0.9,2-2v-21.5C330.1-241.7,329.3-242.6,328.2-242.6z"/>
				</g>
			</g>
		</g>
        <g>
			<g>
				<g>
					<path class="st3" d="M328.2-246.6c-2.2,0-4-1.8-4-4s1.8-4,4-4s4,1.8,4,4C332.1-248.4,330.4-246.6,328.2-246.6z M328.2-252.6
						c-1.1,0-2,0.9-2,2s0.9,2,2,2s2-0.9,2-2S329.3-252.6,328.2-252.6z"/>
				</g>
			</g>
		</g>
	</g>
        <g>
		<g>
			<path class="st1" d="M328.2-208.5c-14.6,0-26.4-11.8-26.4-26.4s11.8-26.4,26.4-26.4s26.4,11.8,26.4,26.4c0,2.9-0.8,5.6-1.6,8.2
				c-0.3,0.9-0.5,1.8-0.8,2.7c-1,3.9,0.6,13.8,0.6,13.9v0.3h-0.3c-0.1,0-6.6-0.5-9.3-0.1C339.8-209.4,331.5-208.5,328.2-208.5z
				 M328.2-260.8c-14.3,0-25.9,11.6-25.9,25.9s11.6,25.9,25.9,25.9c3.3,0,11.6-0.9,15-1.5c2.5-0.4,7.8,0,9.1,0.1
				c-0.3-1.8-1.5-10.2-0.5-13.8c0.2-0.9,0.5-1.8,0.8-2.7c0.8-2.6,1.5-5.2,1.5-8C354.1-249.1,342.4-260.8,328.2-260.8z"/>
		</g>
	</g>
        <g>
		<path class="st1" d="M355.5-195.1h-54.6c-6.9,0-12.5-5.6-12.5-12.5v-54.6c0-6.9,5.6-12.5,12.5-12.5h54.6c6.9,0,12.5,5.6,12.5,12.5
			v54.6C368-200.7,362.4-195.1,355.5-195.1z M300.9-273.7c-6.3,0-11.5,5.2-11.5,11.5v54.6c0,6.3,5.2,11.5,11.5,11.5h54.6
			c6.3,0,11.5-5.2,11.5-11.5v-54.6c0-6.3-5.2-11.5-11.5-11.5H300.9z"/>
	</g>
</g>
    <g>
	<g>
		<path class="st3" d="M33.2-256.1l-26,1.8l26,1.8l0,0V-256.1L33.2-256.1z"/>
	</g>
        <g>
		<path class="st3" d="M32.9-249.3l-17.3,1.8l16.7,1.8l0,0L32.9-249.3L32.9-249.3z"/>
	</g>
        <g>
		<g>
			<path class="st3" d="M76.2-249.6c-1.8-3.6-4.5-6.6-7.5-8.7s-6.6-3.9-10.2-4.8c-0.9,0-1.8-0.3-2.7-0.3c-0.3,0-0.9,0-1.2,0h-0.9
				c-0.3,0-0.3,0-0.9,0h-5.4h-11l-42.7,0.6l43,0.9l10.7,0.3h5.4c0.3,0,0.3,0,0.9,0H54c0.3,0,0.9,0,1.2,0c0.9,0,1.8,0.3,2.7,0.3
				c3,0.9,6.3,2.7,8.7,4.8c2.4,2.1,4.5,4.8,6.3,7.8c1.2,3,2.1,6.3,1.8,9.6c0,3-0.9,6.6-2.7,9.3c-3,5.7-8.7,10.2-14.9,11.3
				c-3,0.3-6.3,0.3-9.3-0.3c-3-0.9-5.7-2.1-8.4-4.5c-2.1-2.1-4.5-4.5-5.7-7.5c-0.3-0.9-0.9-2.1-1.2-3.9c0-0.3,0-0.9,0-1.2
				s0-0.9,0-1.2s0-0.9,0-1.2v-0.3v-0.6v-0.3c0,0,0,0,0-0.3c0,0,0,0,0-0.3h-7.8v0.3l0,0l0,0l0,0v0.3v0.9c0,0.3,0,0.9,0,1.8
				c0,0.3,0,0.9,0.3,1.2c0,0.3,0,0.9,0.3,1.2c0.3,2.1,1.2,3.9,2.1,5.7c1.8,3.6,4.5,6.9,7.8,9.3c3,2.7,6.9,4.5,11,5.4
				c3.9,0.9,7.8,0.9,11.9,0c7.8-1.8,14.3-7.5,17.9-14.3c1.8-3.6,2.7-7.5,2.7-11.3C78.8-242.7,77.9-246.6,76.2-249.6z"/>
		</g>
	</g>
        <g>
		<g>
			<path class="st1" d="M36.3-211.3c-5.2,0-10,5-10,10.3s4.8,10.3,10,10.3s10-5,10-10.3S41.9-211.3,36.3-211.3z M36.3-191.8
				c-4.8,0-8.8-4.1-8.8-9.1c0-0.1,0-0.2,0-0.3s0-0.1,0-0.2s0-0.2,0.1-0.3c0.4-4.6,4.2-8.3,8.8-8.3c5.2,0,8.8,3.7,8.8,9.1
				C45.1-196,41.1-191.8,36.3-191.8z"/>
		</g>
	</g>
        <g>
		<g>
			<path class="st1" d="M113.6-211.4c-5.2,0-10,5-10,10.3c0,5.4,4.8,10.3,10,10.3s10-5,10-10.3C123.6-206.5,119.2-211.4,113.6-211.4
				z M122.4-201.1c0,5-4,9.1-8.8,9.1s-8.8-4.1-8.8-9.1s4-9.1,8.8-9.1C118.8-210.2,122.4-206.5,122.4-201.1z"/>
		</g>
	</g>
        <g>
		<g>
			<g>
				<g>
					<path class="st1" d="M26.8-200.6h-15c-1.4,0-2.6-1.2-2.6-2.6c-0.1-9.7-0.2-57.7-0.2-59c0-3.5,2.9-6.4,6.5-6.4l62.3-0.5
						c0,0,0,0,0.1,0c1.6,0,3.1,0.6,4.3,1.8c1.2,1.1,1.8,2.7,1.8,4.3c0.2,29,0.3,50.3,0.3,61.6v0.5l-38.9,0.3v-1l37.9-0.3
						c0-11.4-0.1-32.5-0.3-61.1c0-1.4-0.5-2.6-1.5-3.6s-2.2-1.5-3.6-1.5l-62.3,0.5c-3,0-5.4,2.5-5.5,5.4c0,1.2,0.1,49.2,0.2,58.9
						c0,0.9,0.7,1.6,1.6,1.6h15L26.8-200.6L26.8-200.6z"/>
				</g>
			</g>
            <g>
				<path class="st1" d="M123.6-229.2l-8.5-17.9c-0.8-1.7-2.6-2.9-4.5-2.9H83.1v-1h27.5c2.3,0,4.4,1.3,5.4,3.4l8.5,17.9L123.6-229.2
					z"/>
			</g>
		</g>
            <g>
			<path class="st1" d="M139-200.7h-0.1c-4.5-0.2-9.5-0.4-15.6-0.4v-1c6.1,0,11.1,0.1,15.6,0.4c0.3,0,0.6-0.1,0.8-0.3
				s0.3-0.5,0.3-0.8l-0.5-17.4c0-0.4-0.2-0.7-0.6-0.9l-15.2-7.8l0.5-0.9l15.2,7.8c0.7,0.3,1.1,1,1.1,1.8l0.5,17.4
				c0,0.6-0.2,1.1-0.6,1.5C140.1-200.9,139.6-200.7,139-200.7z"/>
		</g>
            <g>
			<rect x="83.1" y="-202" class="st1" width="21.7" height="1"/>
		</g>
	</g>
        <g>
		<path class="st1" d="M110.9-229.5H91.3c-1,0-1.8-0.8-1.8-1.9v-10.1c0-1,0.8-1.9,1.8-1.9h15.4c0.7,0,1.4,0.4,1.7,1.1l4.2,10.2
			c0.2,0.6,0.2,1.3-0.2,1.8C112.1-229.8,111.5-229.5,110.9-229.5z M91.4-242.9c-0.7,0-1.3,0.6-1.3,1.4v10.1c0,0.8,0.6,1.4,1.3,1.4
			H111c0.4,0,0.8-0.2,1.1-0.6c0.3-0.4,0.3-0.9,0.1-1.3l-4.2-10.2c-0.2-0.5-0.7-0.8-1.2-0.8L91.4-242.9L91.4-242.9z"/>
	</g>
        <g>
		<rect x="129" y="-209.9" class="st1" width="11.3" height="1"/>
	</g>
        <g>
		<rect x="89.8" y="-221" class="st1" width="4.2" height="1"/>
	</g>
        <g>
		<g>
			<path class="st3" d="M50.4-229.6L50.4-229.6L50.4-229.6l-3.8-3.4l0,0l-6.5-5.9l4-4.4l5.8,6.4l13-15.2l4.4,4L50.4-229.6z
				 M47.5-233.2l2.8,2.6l16-17.5l-3.3-3l-13.1,15.2l-5.8-6.4l-3,3.3L47.5-233.2L47.5-233.2z"/>
		</g>
	</g>
        <g>
		<g>
			<g>
				<g>
					<g>
						<path class="st3" d="M42.3-198.8c-0.4,0.3-1,0.6-1.4,1c-0.4,0.3-1,0.6-1.5,0.9s-1,0.6-1.5,0.8c-0.5,0.3-1,0.6-1.5,0.8l0,0
							C38.4-196.5,40.4-197.6,42.3-198.8L42.3-198.8z"/>
					</g>
				</g>
			</g>
		</g>
            <g>
			<g>
				<g>
					<g>
						<path class="st3" d="M30.8-203.3c0.4-0.3,0.9-0.6,1.3-0.9c0.4-0.3,0.9-0.6,1.3-0.8c0.4-0.3,0.9-0.5,1.3-0.8
							c0.4-0.3,0.9-0.5,1.4-0.8l0,0C34.5-205.5,32.7-204.4,30.8-203.3L30.8-203.3z"/>
					</g>
				</g>
			</g>
		</g>
            <g>
			<g>
				<g>
					<g>
						<g>
							<path class="st3" d="M29.7-197.4c2.1-1.5,4.3-2.8,6.5-4.1s4.5-2.6,6.7-3.8c-2.1,1.5-4.3,2.8-6.5,4.1
								C34.2-199.8,32-198.5,29.7-197.4z"/>
						</g>
					</g>
				</g>
			</g>
                <g>
				<g>
					<g>
						<g>
							<path class="st3" d="M41.9-202c-0.7,0.6-1.3,1.1-2.1,1.5c-0.7,0.5-1.5,1-2.2,1.4c-0.8,0.4-1.5,0.9-2.2,1.3
								c-0.8,0.4-1.5,0.8-2.4,1.1v-0.1C36-198.6,38.9-200.3,41.9-202L41.9-202z"/>
						</g>
					</g>
				</g>
			</g>
                <g>
				<g>
					<g>
						<g>
							<path class="st3" d="M30.7-200.6c0.7-0.6,1.3-1.1,2.1-1.5c0.7-0.5,1.5-1,2.2-1.4c0.8-0.4,1.5-0.9,2.2-1.3
								c0.8-0.4,1.5-0.8,2.4-1.1v0.1C36.6-204.1,33.7-202.3,30.7-200.6L30.7-200.6z"/>
						</g>
					</g>
				</g>
			</g>
		</g>
	</g>
        <g>
		<g>
			<g>
				<g>
					<g>
						<path class="st3" d="M119.6-198.4c-0.4,0.3-1,0.6-1.4,1c-0.4,0.3-1,0.6-1.5,0.9s-1,0.6-1.5,0.8c-0.5,0.3-1,0.6-1.5,0.8l0,0
							C115.7-196.2,117.7-197.3,119.6-198.4L119.6-198.4z"/>
					</g>
				</g>
			</g>
		</g>
            <g>
			<g>
				<g>
					<g>
						<path class="st3" d="M108.1-203c0.4-0.3,0.9-0.6,1.3-0.9s0.9-0.6,1.3-0.8c0.4-0.3,0.9-0.5,1.3-0.8s0.9-0.5,1.4-0.8l0,0
							C111.8-205.2,110-204.1,108.1-203L108.1-203z"/>
					</g>
				</g>
			</g>
		</g>
            <g>
			<g>
				<g>
					<g>
						<g>
							<path class="st3" d="M107-197c2.1-1.5,4.3-2.8,6.5-4.1s4.5-2.6,6.7-3.8c-2.1,1.5-4.3,2.8-6.5,4.1S109.3-198.2,107-197z"/>
						</g>
					</g>
				</g>
			</g>
                <g>
				<g>
					<g>
						<g>
							<path class="st3" d="M119.2-201.7c-0.7,0.6-1.3,1.1-2.1,1.5c-0.7,0.5-1.5,1-2.2,1.4c-0.8,0.4-1.5,0.9-2.2,1.3
								c-0.8,0.4-1.5,0.8-2.4,1.1v-0.1C113.3-198.3,116.2-200,119.2-201.7L119.2-201.7z"/>
						</g>
					</g>
				</g>
			</g>
                <g>
				<g>
					<g>
						<g>
							<path class="st3" d="M108-200.3c0.7-0.6,1.3-1.1,2.1-1.5c0.7-0.5,1.5-1,2.2-1.4c0.8-0.4,1.5-0.9,2.2-1.3
								c0.8-0.4,1.5-0.8,2.4-1.1v0.1C113.9-203.8,111-202,108-200.3L108-200.3z"/>
						</g>
					</g>
				</g>
			</g>
		</g>
	</g>
</g>
    <g>
	<rect x="408.7" y="-599.5" class="st2" width="112" height="78.5"/>
        <rect x="418.2" y="-590.5" class="st7" width="92.9" height="60.5"/>
        <polyline class="st7" points="511.1,-548.1 487.1,-562 470.9,-551.8 451.4,-572.2 418.2,-546.5 	"/>
</g>
    <g>
	<g>
		<g>
			<path class="st3" d="M486-577.1c-0.3,0.2-0.6,0.4-0.8,0.6s-0.6,0.3-0.9,0.5s-0.6,0.3-0.9,0.5s-0.6,0.3-0.9,0.5l0,0
				C483.7-575.8,484.9-576.4,486-577.1L486-577.1z"/>
		</g>
	</g>
        <g>
		<g>
			<path class="st3" d="M479.2-579.9c0.3-0.2,0.5-0.3,0.8-0.5s0.5-0.3,0.8-0.5s0.5-0.3,0.8-0.5s0.5-0.3,0.8-0.5l0,0
				C481.4-581.1,480.3-580.5,479.2-579.9L479.2-579.9z"/>
		</g>
	</g>
        <g>
		<g>
			<path class="st3" d="M482.5-584.9c-3.4,0-6.2,2.8-6.2,6.2s2.8,6.2,6.2,6.2s6.2-2.8,6.2-6.2S485.9-584.9,482.5-584.9z
				 M487.9-578.6c0,3-2.4,5.4-5.4,5.4s-5.4-2.4-5.4-5.4s2.4-5.5,5.4-5.5S487.9-581.6,487.9-578.6z"/>
		</g>
	</g>
        <g>
		<g>
			<g>
				<path class="st3" d="M478.5-576.3c1.3-0.9,2.6-1.7,3.9-2.5s2.7-1.6,4-2.3c-1.3,0.9-2.6,1.7-3.9,2.5S479.9-577,478.5-576.3z"/>
			</g>
		</g>
            <g>
			<g>
				<path class="st3" d="M485.8-579.1c-0.4,0.3-0.8,0.6-1.3,0.9c-0.4,0.3-0.9,0.6-1.3,0.8c-0.5,0.3-0.9,0.5-1.3,0.8
					s-0.9,0.5-1.4,0.6l0,0C482.3-577,484-578,485.8-579.1L485.8-579.1z"/>
			</g>
		</g>
            <g>
			<g>
				<path class="st3" d="M479.1-578.2c0.4-0.3,0.8-0.6,1.3-0.9c0.4-0.3,0.9-0.6,1.3-0.8c0.5-0.3,0.9-0.5,1.3-0.8
					c0.5-0.2,0.9-0.5,1.4-0.6l0,0C482.6-580.3,480.9-579.2,479.1-578.2L479.1-578.2z"/>
			</g>
		</g>
	</g>
</g>
    <g>
	<g>
		<g>
			<g>
				<path class="st1" d="M266.2-195.6H154.7v-78.5h111.6v78.5H266.2L266.2-195.6z M155.7-196.6h109.6v-76.5H155.7V-196.6z"/>
			</g>
            <g>
				<path class="st1" d="M256.5-204.7h-92.2V-265h92.2V-204.7L256.5-204.7z M164.8-205.2H256v-59.3h-91.2V-205.2z"/>
			</g>
            <g>
				<polygon class="st1" points="164.7,-221.1 164.4,-221.5 197.3,-247 197.5,-246.9 216.7,-226.9 232.6,-236.9 232.8,-236.8
					256.4,-223.1 256.2,-222.6 232.6,-236.3 216.6,-226.2 197.3,-246.4 				"/>
			</g>
		</g>
	</g>
        <g>
		<g>
			<g>
				<g>
					<path class="st3" d="M251.8-251.8c-0.3,0.2-0.6,0.4-0.8,0.6c-0.3,0.2-0.6,0.3-0.9,0.5s-0.6,0.3-0.9,0.5s-0.6,0.3-0.9,0.5l0,0
						C249.5-250.4,250.7-251.1,251.8-251.8L251.8-251.8z"/>
				</g>
			</g>
		</g>
            <g>
			<g>
				<g>
					<path class="st3" d="M245-254.5c0.3-0.2,0.5-0.3,0.8-0.5s0.5-0.3,0.8-0.5s0.5-0.3,0.8-0.5s0.5-0.3,0.8-0.5l0,0
						C247.1-255.8,246.1-255.1,245-254.5L245-254.5z"/>
				</g>
			</g>
		</g>
            <g>
			<g>
				<g>
					<path class="st3" d="M248.2-259.5c-3.4,0-6.2,2.8-6.2,6.2s2.8,6.2,6.2,6.2c3.5,0,6.2-2.8,6.2-6.2S251.6-259.5,248.2-259.5z
						 M253.7-253.3c0,3-2.4,5.4-5.4,5.4s-5.4-2.4-5.4-5.4s2.4-5.5,5.4-5.5C251.2-258.7,253.7-256.3,253.7-253.3z"/>
				</g>
			</g>
		</g>
            <g>
			<g>
				<g>
					<g>
						<path class="st3" d="M244.3-250.9c1.3-0.9,2.6-1.7,3.9-2.5s2.7-1.6,4-2.3c-1.3,0.9-2.6,1.7-3.9,2.5S245.6-251.6,244.3-250.9z"
                        />
					</g>
				</g>
			</g>
                <g>
				<g>
					<g>
						<path class="st3" d="M251.6-253.7c-0.4,0.3-0.8,0.6-1.3,0.9c-0.4,0.3-0.9,0.6-1.3,0.8c-0.5,0.3-0.9,0.5-1.3,0.8
							c-0.5,0.2-0.9,0.5-1.4,0.6l0,0C248-251.6,249.8-252.7,251.6-253.7L251.6-253.7z"/>
					</g>
				</g>
			</g>
                <g>
				<g>
					<g>
						<path class="st3" d="M244.9-252.9c0.4-0.3,0.8-0.6,1.3-0.9c0.4-0.3,0.9-0.6,1.3-0.8c0.5-0.3,0.9-0.5,1.3-0.8
							c0.5-0.2,0.9-0.5,1.4-0.6l0,0C248.4-254.9,246.7-253.9,244.9-252.9L244.9-252.9z"/>
					</g>
				</g>
			</g>
		</g>
	</g>
</g>
    <g>
	<g>
		<g>
			<g>
				<path class="st1" d="M-760.1,165.1h-41.6v-0.3h41.6c6.8,0,12.2-5.7,12.2-12.7v-52c0-7-5.5-12.7-12.2-12.7h-77.3
					c-6.7,0-12.1,5.7-12.1,12.7v14.2h-0.4v-14.2c0-7.2,5.7-13,12.6-13h77.3c7,0,12.6,5.9,12.6,13v52
					C-747.5,159.2-753.2,165.1-760.1,165.1z"/>
                <path class="st1" d="M-760.1,165.3h-41.9v-0.9h41.9c6.6,0,11.9-5.6,11.9-12.3v-52c0-6.8-5.4-12.3-11.9-12.3h-77.3
					c-6.6,0-11.9,5.6-11.9,12.3v14.5h-0.9v-14.5c0-7.3,5.8-13.3,12.9-13.3h77.2c7.1,0,12.9,6,12.9,13.3v52
					C-747.3,159.3-753,165.3-760.1,165.3z"/>
			</g>
		</g>
        <g>
			<rect x="-849.7" y="99.5" class="st1" width="102" height="0.3"/>
		</g>
        <g>
			<rect x="-849.7" y="104.4" class="st1" width="102" height="0.3"/>
		</g>
        <g>
			<path class="st1" d="M-763.7,158.6c-3.1,0-6.1-1.5-8.1-4c-1.9,2.5-4.8,4-8.1,4c-5.6,0-10-4.5-10-10c0-5.6,4.5-10,10-10
				c3.1,0,6.1,1.5,8.1,4c1.9-2.5,4.8-4,8.1-4c5.6,0,10,4.5,10,10C-753.7,154.1-758.1,158.6-763.7,158.6z M-771.8,154l0.1,0.2
				c1.8,2.6,4.7,4.1,7.8,4.1c5.4,0,9.7-4.3,9.7-9.7c0-5.4-4.3-9.7-9.7-9.7c-3.1,0-6,1.5-7.8,4.1l-0.1,0.2l-0.1-0.3
				c-1.8-2.6-4.7-4.1-7.8-4.1c-5.4,0-9.7,4.3-9.7,9.7c0,5.4,4.3,9.7,9.7,9.7c3.1,0,6-1.5,7.8-4.1L-771.8,154z"/>
		</g>
        <g>
			<g>
				<g>
					<g>
						<path class="st3" d="M-757.5,151c-0.4,0.3-1.1,0.6-1.5,1.1c-0.4,0.3-1.1,0.6-1.6,1c-0.5,0.3-1.1,0.6-1.6,0.9
							c-0.5,0.3-1.1,0.6-1.6,0.9l0,0C-761.7,153.5-759.5,152.2-757.5,151L-757.5,151z"/>
					</g>
				</g>
			</g>
            <g>
				<g>
					<g>
						<path class="st3" d="M-769.8,146.1c0.4-0.3,1-0.6,1.4-1c0.4-0.3,1-0.6,1.4-0.9c0.4-0.3,1-0.5,1.4-0.9c0.4-0.3,1-0.5,1.5-0.9
							l0,0C-765.9,143.8-767.8,144.9-769.8,146.1L-769.8,146.1z"/>
					</g>
				</g>
			</g>
            <g>
				<g>
					<g>
						<g>
							<path class="st3" d="M-771,152.5c2.3-1.6,4.6-3,7-4.4c2.4-1.4,4.8-2.8,7.2-4.1c-2.3,1.6-4.6,3-7,4.4
								C-766.2,149.8-768.5,151.3-771,152.5z"/>
						</g>
					</g>
				</g>
                <g>
					<g>
						<g>
							<path class="st3" d="M-757.9,147.6c-0.8,0.6-1.4,1.2-2.3,1.6c-0.8,0.5-1.6,1.1-2.4,1.5c-0.9,0.4-1.6,1-2.4,1.4
								c-0.9,0.4-1.6,0.9-2.6,1.2v-0.1C-764.2,151.2-761.1,149.4-757.9,147.6L-757.9,147.6z"/>
						</g>
					</g>
				</g>
                <g>
					<g>
						<g>
							<path class="st3" d="M-769.9,149.1c0.8-0.6,1.4-1.2,2.3-1.6c0.8-0.5,1.6-1.1,2.4-1.5c0.9-0.4,1.6-1,2.4-1.4s1.6-0.9,2.6-1.2
								v0.1C-763.6,145.3-766.7,147.1-769.9,149.1L-769.9,149.1z"/>
						</g>
					</g>
				</g>
			</g>
		</g>
	</g>
        <g>
		<g>
			<path class="st1" d="M-824.2,165.3c-14.3,0-26-11.7-26-26s11.7-26,26-26c14.3,0,26,11.7,26,26S-809.9,165.3-824.2,165.3z
				 M-824.2,113.7c-14.1,0-25.5,11.5-25.5,25.5s11.5,25.5,25.5,25.5c14.1,0,25.5-11.5,25.5-25.5S-810.1,113.7-824.2,113.7z"/>
		</g>
            <g>
			<path class="st3" d="M-828.9,153.3L-828.9,153.3L-828.9,153.3l-4.7-4.3l0,0l-8-7.4l5-5.4l7.3,7.9l16.2-18.8l5.4,4.9L-828.9,153.3
				z M-832.4,148.9l3.4,3.1l19.9-21.8l-4.1-3.7l-16.2,18.9l-7.3-7.9l-3.7,4L-832.4,148.9L-832.4,148.9z"/>
		</g>
	</g>
</g>
    <g>
	<g>
		<path class="st3" d="M-899.7,143.4c-1.1-4.7-2.1-9.4-3.1-14.1s-2.1-9.4-3.1-14.1l-0.1-0.6h-0.6c-1.9,0.2-3.6,0.2-5.3,0.3l-0.4-3.3
			c-0.2-1.8-0.5-3.9-1.6-5.7c-1.2-1.8-3.2-3.1-5.4-3.3c-2.7-0.2-5.4,1.1-7.3,3.5c-1.5,1.9-2.4,4.6-2.5,7.6c0,0.5,0,1,0,1.5
			c-1.4,0.1-2.9,0.1-4.4,0.2h-0.6l-0.1,0.6c-1.3,9.6-3.5,19.2-6.5,28.4l-0.3,1h1c6.6-0.2,13.2-0.3,19.8-0.5s13.2-0.3,19.8-0.5h0.9
			L-899.7,143.4z M-927.6,113.6c0.1-2.7,0.9-5,2.2-6.8c1.5-1.9,3.8-3.1,6-2.9c1.7,0.1,3.4,1.2,4.3,2.6c0.9,1.5,1.2,3.4,1.4,5.1
			l0.4,3.2c-2.3,0-4.5,0-6.7,0c-2.5,0-5,0-7.6,0.1C-927.6,114.6-927.7,114.1-927.6,113.6z M-920.2,143.3c-6.2,0.2-12.5,0.3-18.7,0.5
			c2.8-8.8,4.9-17.9,6.1-27.1c1.3-0.1,2.5-0.1,3.7-0.1c0.1,1.6,0.3,3.2,0.6,4.8c0.1,0.4,0.4,0.6,0.7,0.6h0.1
			c0.4-0.1,0.7-0.4,0.6-0.8c-0.2-1.5-0.4-3.1-0.5-4.6c2.6-0.1,5.1-0.1,7.5-0.1c2.2,0,4.5,0,6.8,0l0.5,4.4c0,0.4,0.4,0.7,0.8,0.6
			c0.4,0,0.7-0.4,0.6-0.8l-0.5-4.3c1.5,0,3-0.1,4.5-0.2c1,4.5,2,9,3,13.5c1,4.4,1.9,8.8,2.9,13.2
			C-907.6,143-913.9,143.2-920.2,143.3z"/>
	</g>
        <g class="st5">
		<g>
			<g>
				<path class="st6" d="M-929.1,137.9h2.8v0.5h-3.4v-8.2h0.5L-929.1,137.9z"/>
			</g>
		</g>
            <g>
			<g>
				<path class="st6" d="M-912.5,130.7h-2.8v3.6h2.4v0.5h-2.4v3.6h-0.5v-8.2h3.4L-912.5,130.7z"/>
			</g>
		</g>
            <g>
			<g>
				<path class="st6" d="M-907.8,130.2v0.5h-1.9v7.7h-0.5v-7.7h-1.9v-0.5H-907.8z"/>
			</g>
		</g>
            <g>
			<g>
				<g>
					<path class="st3" d="M-921.9,130c-2.3,0-4.2,1.9-4.2,4.2s1.9,4.2,4.2,4.2s4.2-1.9,4.2-4.2S-919.5,130-921.9,130z M-918.2,134.2
						c0,2-1.7,3.7-3.7,3.7c-2,0-3.7-1.7-3.7-3.7c0-2,1.7-3.7,3.7-3.7C-919.8,130.5-918.2,132.2-918.2,134.2z"/>
				</g>
			</g>
                <g>
				<g>
					<g>
						<path class="st3" d="M-919.4,135.2c-0.2,0.1-0.4,0.3-0.6,0.4s-0.4,0.2-0.6,0.4c-0.2,0.1-0.4,0.2-0.6,0.3
							c-0.2,0.1-0.4,0.2-0.6,0.3l0,0C-921,136.1-920.2,135.7-919.4,135.2L-919.4,135.2z"/>
					</g>
				</g>
                    <g>
					<g>
						<path class="st3" d="M-924.1,133.4c0.2-0.1,0.4-0.2,0.5-0.3c0.2-0.1,0.4-0.2,0.5-0.3c0.2-0.1,0.4-0.2,0.5-0.3
							c0.2-0.1,0.4-0.2,0.6-0.3l0,0C-922.6,132.5-923.3,132.9-924.1,133.4L-924.1,133.4z"/>
					</g>
				</g>
                    <g>
					<g>
						<g>
							<path class="st3" d="M-924.5,135.8c0.9-0.6,1.7-1.1,2.6-1.7c0.9-0.5,1.8-1.1,2.7-1.5c-0.9,0.6-1.7,1.1-2.6,1.7
								C-922.7,134.8-923.6,135.3-924.5,135.8z"/>
						</g>
					</g>
                        <g>
						<g>
							<path class="st3" d="M-919.6,133.9c-0.3,0.2-0.5,0.4-0.8,0.6c-0.3,0.2-0.6,0.4-0.9,0.6c-0.3,0.2-0.6,0.3-0.9,0.5
								c-0.3,0.2-0.6,0.3-0.9,0.4l0,0C-922,135.3-920.8,134.6-919.6,133.9L-919.6,133.9z"/>
						</g>
					</g>
                        <g>
						<g>
							<path class="st3" d="M-924.1,134.5c0.3-0.2,0.5-0.4,0.8-0.6s0.6-0.4,0.9-0.6s0.6-0.3,0.9-0.5c0.3-0.2,0.6-0.3,0.9-0.4l0,0
								C-921.7,133.1-922.9,133.8-924.1,134.5L-924.1,134.5z"/>
						</g>
					</g>
				</g>
			</g>
		</g>
	</g>
        <g>
		<path class="st1" d="M-871.4,165.3h-98c-1.4,0-2.5-1.1-2.5-2.5V89.3c0-1.4,1.1-2.5,2.5-2.5h98c1.4,0,2.5,1.1,2.5,2.5v73.5
			C-868.9,164.2-870,165.3-871.4,165.3z M-969.4,87.6c-1,0-1.8,0.8-1.8,1.8v73.4c0,1,0.8,1.8,1.8,1.8h98c1,0,1.8-0.8,1.8-1.8V89.3
			c0-1-0.8-1.8-1.8-1.8L-969.4,87.6L-969.4,87.6z"/>
	</g>
        <g>
		<path class="st1" d="M-875.6,153.9h-89.2v-60h89.2V153.9z M-964.3,153.4h88.2v-59h-88.2V153.4z"/>
	</g>
        <g>
		<rect x="-964.6" y="156.9" class="st1" width="88.7" height="0.8"/>
	</g>
        <g>
		<rect x="-964.7" y="159.3" class="st1" width="0.2" height="3"/>
	</g>
        <g>
		<rect x="-963.3" y="159.3" class="st1" width="0.2" height="3"/>
	</g>
        <g>
		<rect x="-961.9" y="159.3" class="st1" width="0.2" height="3"/>
	</g>
        <g>
		<rect x="-960.5" y="159.3" class="st1" width="0.2" height="3"/>
	</g>
        <g>
		<rect x="-959.1" y="159.3" class="st1" width="0.2" height="3"/>
	</g>
        <g>
		<g>
			<g>
				<path class="st3" d="M-919.8,161.1L-919.8,161.1l-0.2,0.2l-0.1,0.1l-0.1,0.1l0,0C-920.2,161.3-920,161.2-919.8,161.1
					L-919.8,161.1z"/>
			</g>
		</g>
            <g>
			<g>
				<path class="st3" d="M-920.9,160.6L-920.9,160.6l0.2-0.2c0,0,0.1,0,0.1-0.1c0,0,0.1,0,0.1-0.1l0,0
					C-920.6,160.4-920.8,160.5-920.9,160.6L-920.9,160.6z"/>
			</g>
		</g>
            <g>
			<g>
				<path class="st3" d="M-920.4,159.8c-0.5,0-1,0.4-1,1c0,0.5,0.4,1,1,1c0.5,0,1-0.4,1-1C-919.4,160.3-919.9,159.8-920.4,159.8z
					 M-919.5,160.8c0,0.5-0.4,0.9-0.9,0.9s-0.9-0.4-0.9-0.9c0-0.5,0.4-0.9,0.9-0.9S-919.5,160.4-919.5,160.8z"/>
			</g>
		</g>
            <g>
			<g>
				<g>
					<path class="st3" d="M-921,161.2c0.2-0.1,0.4-0.3,0.6-0.4s0.4-0.2,0.6-0.4c-0.2,0.1-0.4,0.3-0.6,0.4
						C-920.6,161-920.8,161.1-921,161.2z"/>
				</g>
			</g>
                <g>
				<g>
					<path class="st3" d="M-919.9,160.8c-0.1,0.1-0.1,0.1-0.2,0.1c-0.1,0-0.1,0.1-0.2,0.1c-0.1,0-0.1,0.1-0.2,0.1
						c-0.1,0-0.1,0.1-0.2,0.1l0,0C-920.4,161.1-920.2,160.9-919.9,160.8L-919.9,160.8z"/>
				</g>
			</g>
                <g>
				<g>
					<path class="st3" d="M-920.9,160.9c0-0.1,0.1-0.1,0.2-0.1c0.1,0,0.1-0.1,0.2-0.1s0.1-0.1,0.2-0.1c0.1,0,0.1-0.1,0.2-0.1l0,0
						C-920.4,160.6-920.7,160.7-920.9,160.9L-920.9,160.9z"/>
				</g>
			</g>
		</g>
	</g>
</g>
    <g>
	<g>
		<g>
			<g>
				<g>
					<path class="st3" d="M-562.7-14.9c-2.2,0-4-1.8-4-4v-21.4c0-2.2,1.8-4,4-4c2.2,0,4,1.8,4,4v21.5
						C-558.8-16.7-560.5-14.9-562.7-14.9z M-562.7-42.3c-1.1,0-2,0.9-2,2v21.5c0,1.1,0.9,2,2,2c1.1,0,2-0.9,2-2v-21.5
						C-560.8-41.4-561.6-42.3-562.7-42.3z"/>
				</g>
			</g>
		</g>
        <g>
			<g>
				<g>
					<path class="st3" d="M-562.7-46.4c-2.2,0-4-1.8-4-4s1.8-4,4-4c2.2,0,4,1.8,4,4C-558.8-48.2-560.5-46.4-562.7-46.4z
						 M-562.7-52.3c-1.1,0-2,0.9-2,2c0,1.1,0.9,2,2,2c1.1,0,2-0.9,2-2C-560.7-51.4-561.6-52.3-562.7-52.3z"/>
				</g>
			</g>
		</g>
	</g>
        <g>
		<g>
			<path class="st1" d="M-562.7-8.2c-14.6,0-26.4-11.8-26.4-26.4S-577.3-61-562.7-61c14.6,0,26.4,11.8,26.4,26.4
				c0,2.9-0.8,5.6-1.6,8.2c-0.3,0.9-0.5,1.8-0.8,2.7c-1,3.9,0.6,13.8,0.6,13.9v0.3h-0.3c-0.1,0-6.6-0.5-9.3-0.1
				C-551.1-9.2-559.4-8.2-562.7-8.2z M-562.7-60.5c-14.3,0-25.9,11.6-25.9,25.9S-577-8.7-562.7-8.7c3.3,0,11.6-0.9,15-1.5
				c2.5-0.4,7.8,0,9.1,0.1c-0.3-1.8-1.5-10.2-0.5-13.8c0.2-0.9,0.5-1.8,0.8-2.7c0.8-2.6,1.5-5.2,1.5-8
				C-536.8-48.9-548.5-60.5-562.7-60.5z"/>
		</g>
	</g>
        <g>
		<path class="st1" d="M-535.4,5.2H-590c-6.9,0-12.5-5.6-12.5-12.5v-54.6c0-6.9,5.6-12.5,12.5-12.5h54.6c6.9,0,12.5,5.6,12.5,12.5
			v54.6C-522.9-0.4-528.5,5.2-535.4,5.2z M-590-73.4c-6.4,0-11.5,5.2-11.5,11.5v54.6c0,6.3,5.2,11.5,11.5,11.5h54.6
			c6.3,0,11.5-5.2,11.5-11.5v-54.6c0-6.3-5.2-11.5-11.5-11.5C-535.4-73.4-590-73.4-590-73.4z"/>
	</g>
</g>
    <g>
	<g>
		<g>
			<g>
				<g>
					<path class="st3" d="M24,74.1c-0.5-0.1-1.1-0.3-1.7-0.2c-0.5-0.1-1.1-0.3-1.7-0.4c-0.6-0.1-1.1-0.3-1.6-0.5
						c-0.6-0.1-1.1-0.3-1.6-0.5l0,0C19.6,73.2,21.8,73.7,24,74.1L24,74.1z"/>
				</g>
			</g>
		</g>
	</g>
        <g>
		<g>
			<g>
				<g>
					<path class="st3" d="M18.7,62.3c0.5,0.1,1.1,0.2,1.6,0.2c0.5,0.1,1.1,0.2,1.5,0.3c0.5,0.1,1,0.3,1.5,0.3c0.5,0.1,1,0.3,1.6,0.4
						l0,0C22.8,63.2,20.7,62.8,18.7,62.3L18.7,62.3z"/>
				</g>
			</g>
		</g>
	</g>
        <g>
		<g>
			<g>
				<g>
					<g>
						<path class="st3" d="M13.8,66.2c2.5,0.3,5,0.9,7.5,1.5c2.5,0.6,5,1.2,7.4,1.9c-2.5-0.3-5-0.9-7.5-1.5
							C18.9,67.6,16.3,66.8,13.8,66.2z"/>
					</g>
				</g>
			</g>
		</g>
            <g>
			<g>
				<g>
					<g>
						<path class="st3" d="M26,71.3c-0.9,0-1.7-0.1-2.5-0.3c-0.8-0.1-1.8-0.3-2.5-0.5c-0.9-0.3-1.7-0.4-2.5-0.6
							c-0.9-0.3-1.6-0.5-2.5-0.9L16,69C19.3,69.6,22.6,70.6,26,71.3L26,71.3z"/>
					</g>
				</g>
			</g>
		</g>
            <g>
			<g>
				<g>
					<g>
						<path class="st3" d="M16.8,64.4c0.9,0,1.7,0.1,2.5,0.3c0.8,0.1,1.8,0.3,2.5,0.5c0.9,0.3,1.7,0.4,2.5,0.6
							c0.9,0.3,1.6,0.5,2.5,0.9l-0.1,0.1C23.5,65.9,20.1,65.1,16.8,64.4L16.8,64.4z"/>
					</g>
				</g>
			</g>
		</g>
	</g>
</g>
    <g>
	<g>
		<g>
			<g>
				<g>
					<path class="st3" d="M89.4,70.6c-0.4,0.3-1,0.6-1.4,1.1c-0.4,0.3-1,0.6-1.5,1c-0.5,0.3-1,0.6-1.5,0.8c-0.5,0.3-1,0.6-1.5,0.8
						l0,0C85.6,73,87.5,71.9,89.4,70.6L89.4,70.6z"/>
				</g>
			</g>
		</g>
	</g>
        <g>
		<g>
			<g>
				<g>
					<path class="st3" d="M78.1,65.7c0.4-0.3,0.9-0.6,1.3-1c0.4-0.3,0.9-0.6,1.3-0.8c0.4-0.3,0.9-0.5,1.3-0.8
						c0.4-0.3,0.9-0.5,1.4-0.8l0,0C81.7,63.4,79.9,64.6,78.1,65.7L78.1,65.7z"/>
				</g>
			</g>
		</g>
	</g>
        <g>
		<g>
			<g>
				<g>
					<g>
						<path class="st3" d="M76.9,72.2c2.1-1.6,4.3-3,6.5-4.4c2.2-1.4,4.5-2.8,6.7-4c-2.1,1.6-4.3,3-6.5,4.4
							C81.5,69.4,79.2,70.8,76.9,72.2z"/>
					</g>
				</g>
			</g>
		</g>
            <g>
			<g>
				<g>
					<g>
						<path class="st3" d="M89.1,67.1c-0.7,0.6-1.3,1.2-2.1,1.6c-0.7,0.5-1.5,1.1-2.2,1.5c-0.8,0.4-1.5,1-2.2,1.4
							c-0.7,0.4-1.5,0.8-2.4,1.2v-0.1C83.1,70.8,86.1,68.9,89.1,67.1L89.1,67.1z"/>
					</g>
				</g>
			</g>
		</g>
            <g>
			<g>
				<g>
					<g>
						<path class="st3" d="M78,68.7c0.7-0.6,1.3-1.2,2.1-1.6c0.7-0.5,1.5-1.1,2.2-1.5c0.8-0.4,1.5-1,2.2-1.4
							c0.8-0.4,1.5-0.8,2.4-1.2v0.2C83.9,64.9,80.9,66.8,78,68.7L78,68.7z"/>
					</g>
				</g>
			</g>
		</g>
	</g>
</g>
    <g>
	<g>
		<g>
			<path class="st3" d="M39.6,40.4L39.6,40.4L39.6,40.4l-2.8-2.7l0,0L32,33.1l2.9-3.4l4.3,5l9.5-11.8L52,26L39.6,40.4z M37.5,37.6
				l2,2.1L51.3,26l-2.4-2.4l-9.5,11.9l-4.3-5l-2.1,2.6L37.5,37.6L37.5,37.6z"/>
		</g>
	</g>
        <g>
		<g>
			<path class="st3" d="M25.8,25l-12.6,1.5l12.2,1.5l0,0L25.8,25L25.8,25z"/>
		</g>
            <g>
			<g>
				<path class="st3" d="M57.6,24.2c-1.3-2.7-3.1-4.9-5.1-6.5c-2-1.5-4.5-2.8-7-3.4c-0.6,0-1.3-0.2-1.8-0.2c-0.2,0-0.6,0-0.8,0h-0.6
					c-0.2,0-0.2,0-0.6,0h-3.8h-7.6L0.6,14.5l29.7,0.7l7.3,0.2h3.8c0.2,0,0.2,0,0.6,0h0.2c0.2,0,0.6,0,0.8,0c0.6,0,1.3,0.2,1.8,0.2
					c2.1,0.7,4.4,2.1,6.1,3.5c1.7,1.6,3.1,3.5,4.4,5.8c0.8,2.3,1.5,4.7,1.3,7.2c0,2.3-0.6,4.9-1.8,6.9c-2.1,4.2-6.1,7.6-10.3,8.3
					c-2.1,0.2-4.4,0.2-6.4-0.2c-2.1-0.7-3.9-1.6-5.8-3.3c-1.5-1.6-3.1-3.3-3.9-5.5c-0.2-0.7-0.6-1.6-0.8-2.8c0-0.2,0-0.7,0-0.9
					s0-0.7,0-0.9s0-0.7,0-0.9v-0.2v-0.4v-0.3c0,0,0,0,0-0.2c0,0,0,0,0-0.2h-5.4v0.2l0,0l0,0l0,0v0.2v0.7c0,0.2,0,0.7,0,1.4
					c0,0.2,0,0.7,0.2,0.9c0,0.2,0,0.7,0.2,0.9c0.2,1.6,0.8,2.8,1.5,4.2c1.3,2.7,3.1,5.1,5.4,6.9c2.1,2.1,4.8,3.3,7.6,4
					c2.7,0.7,5.4,0.7,8.2,0c5.4-1.4,9.9-5.5,12.4-10.6c1.3-2.7,1.8-5.5,1.8-8.3C59.4,29.3,58.9,26.4,57.6,24.2z"/>
			</g>
		</g>
            <g>
			<path class="st3" d="M26,19.7L7,21.2l19,1.5l0,0V19.7L26,19.7z"/>
		</g>
	</g>
</g>
    <g>
	<g>
		<rect x="97" y="61" class="st1" width="5.5" height="0.5"/>
	</g>
        <g>
		<path class="st1" d="M91.5,44H69.8c-1.6,0-2.9-1.4-2.9-3V29.6c0-1.7,1.3-3,2.9-3h13c0.9,0,1.7,0.4,2.3,1.1l8.6,11.4
			c0.7,1,0.8,2.2,0.3,3.3C93.5,43.4,92.6,44,91.5,44z M69.8,27c-1.3,0-2.4,1.1-2.4,2.6V41c0,1.4,1.1,2.6,2.4,2.6h21.7
			c0.9,0,1.7-0.5,2.1-1.3c0.5-0.9,0.4-2-0.2-2.8L84.7,28c-0.5-0.6-1.1-1-1.9-1H69.8z"/>
	</g>
        <g>
		<path class="st1" d="M83.8,78.7c-5.4,0-9.8-4.5-10-10.1h-8.5c-0.9,0-1.6-0.7-1.6-1.6V26.5c0-3.3,2.5-6,5.7-6h13.5
			c1.8,0,3.4,0.9,4.5,2.3l14.5,19.9c0.8,1,1.2,2.3,1.2,3.6v16.2c0,3.3-2.5,6-5.7,6h-3.5C93.6,74.2,89.2,78.7,83.8,78.7z M69.4,21.5
			c-2.6,0-4.7,2.2-4.7,5V67c0,0.3,0.3,0.6,0.6,0.6h9.5v0.5c0,5.3,4.1,9.6,9,9.6c5,0,9-4.3,9-9.6v-0.5h4.5c2.6,0,4.7-2.2,4.7-5V46.4
			c0-1.1-0.3-2.2-1-3.1L86.6,23.4c-0.9-1.2-2.3-1.9-3.7-1.9H69.4z"/>
	</g>
        <g>
		<path class="st1" d="M21.1,78.7c-5.5,0-10-4.7-10-10.6s4.5-10.6,10-10.6c5.5,0,10,4.7,10,10.6S26.7,78.7,21.1,78.7z M21.1,58.5
			c-5,0-9,4.3-9,9.6c0,5.3,4.1,9.6,9,9.6s9-4.3,9-9.6C30.2,62.8,26.1,58.5,21.1,58.5z"/>
	</g>
        <g>
		<path class="st1" d="M83.8,78.7c-5.5,0-10-4.7-10-10.6s4.5-10.6,10-10.6c5.5,0,10,4.7,10,10.6S89.3,78.7,83.8,78.7z M83.8,58.5
			c-5,0-9,4.3-9,9.6c0,5.3,4.1,9.6,9,9.6c5,0,9-4.3,9-9.6C92.8,62.8,88.8,58.5,83.8,58.5z"/>
	</g>
        <g>
		<path class="st1" d="M21.2,78.7c-5.4,0-9.8-4.5-10-10.1H7.9c-4.3,0-7.9-3.7-7.9-8.3V8.5c0-4.6,3.5-8.3,7.9-8.3h48.9
			c4.3,0,7.9,3.7,7.9,8.3v60.1H31.2C31,74.2,26.6,78.7,21.2,78.7z M7.9,1.2C4.1,1.2,1,4.5,1,8.5v51.8c0,4,3.1,7.3,6.9,7.3h4.3v0.5
			c0,5.3,4.1,9.6,9,9.6s9-4.3,9-9.6v-0.5h33.4V8.5c0-4-3.1-7.3-6.9-7.3H7.9z"/>
	</g>
        <g>
		<rect x="67.2" y="48.5" class="st1" width="3" height="0.5"/>
	</g>
        <g>
		<rect x="0.5" y="61" class="st1" width="3.9" height="0.5"/>
	</g>
</g>
    <g>
	<g>
		<g>
			<g>
				<g>
					<g>
						<path class="st3" d="M-704.5,160.7c-0.5-0.1-1.1-0.3-1.7-0.2c-0.5-0.1-1.1-0.3-1.7-0.4c-0.6-0.1-1.1-0.3-1.6-0.5
							c-0.6-0.1-1.1-0.3-1.6-0.5l0,0C-708.8,159.7-706.7,160.2-704.5,160.7L-704.5,160.7z"/>
					</g>
				</g>
			</g>
		</g>
        <g>
			<g>
				<g>
					<g>
						<path class="st3" d="M-709.7,148.9c0.5,0.1,1.1,0.2,1.6,0.2c0.5,0.1,1.1,0.2,1.5,0.3c0.5,0.1,1,0.3,1.5,0.3s1,0.3,1.6,0.4l0,0
							C-705.6,149.8-707.7,149.4-709.7,148.9L-709.7,148.9z"/>
					</g>
				</g>
			</g>
		</g>
        <g>
			<g>
				<g>
					<g>
						<g>
							<path class="st3" d="M-714.7,152.8c2.5,0.3,5,0.9,7.5,1.5c2.5,0.6,5,1.2,7.4,1.9c-2.5-0.3-5-0.9-7.5-1.5
								C-709.5,154.1-712.1,153.4-714.7,152.8z"/>
						</g>
					</g>
				</g>
			</g>
            <g>
				<g>
					<g>
						<g>
							<path class="st3" d="M-702.5,157.9c-0.9,0-1.7-0.1-2.5-0.3c-0.8-0.1-1.8-0.3-2.5-0.5c-0.9-0.3-1.7-0.4-2.5-0.6
								c-0.9-0.3-1.6-0.5-2.5-0.9l0.1-0.1C-709.1,156.2-705.9,157.1-702.5,157.9L-702.5,157.9z"/>
						</g>
					</g>
				</g>
			</g>
            <g>
				<g>
					<g>
						<g>
							<path class="st3" d="M-711.6,151c0.9,0,1.7,0.1,2.5,0.3c0.8,0.1,1.8,0.3,2.5,0.5c0.9,0.3,1.7,0.4,2.5,0.6
								c0.9,0.3,1.6,0.5,2.5,0.9l-0.1,0.1C-704.9,152.4-708.3,151.7-711.6,151L-711.6,151z"/>
						</g>
					</g>
				</g>
			</g>
		</g>
	</g>
        <g>
		<g>
			<g>
				<g>
					<g>
						<path class="st3" d="M-639,157.2c-0.4,0.3-1,0.6-1.4,1.1c-0.4,0.3-1,0.6-1.5,1c-0.5,0.3-1,0.6-1.5,0.8c-0.5,0.3-1,0.6-1.5,0.8
							l0,0C-642.8,159.6-640.9,158.5-639,157.2L-639,157.2z"/>
					</g>
				</g>
			</g>
		</g>
            <g>
			<g>
				<g>
					<g>
						<path class="st3" d="M-650.3,152.3c0.4-0.3,0.9-0.6,1.3-1c0.4-0.3,0.9-0.6,1.3-0.8c0.4-0.3,0.9-0.5,1.3-0.8
							c0.4-0.3,0.9-0.5,1.4-0.8l0,0C-646.8,150-648.6,151.1-650.3,152.3L-650.3,152.3z"/>
					</g>
				</g>
			</g>
		</g>
            <g>
			<g>
				<g>
					<g>
						<g>
							<path class="st3" d="M-651.5,158.8c2.1-1.6,4.3-3,6.5-4.4s4.5-2.8,6.7-4c-2.1,1.6-4.3,3-6.5,4.4
								C-647,156-649.2,157.4-651.5,158.8z"/>
						</g>
					</g>
				</g>
			</g>
                <g>
				<g>
					<g>
						<g>
							<path class="st3" d="M-639.3,153.7c-0.7,0.6-1.3,1.2-2.1,1.6c-0.7,0.5-1.5,1.1-2.2,1.5c-0.8,0.4-1.5,1-2.2,1.4
								s-1.5,0.8-2.4,1.2v-0.1C-645.3,157.4-642.3,155.5-639.3,153.7L-639.3,153.7z"/>
						</g>
					</g>
				</g>
			</g>
                <g>
				<g>
					<g>
						<g>
							<path class="st3" d="M-650.4,155.3c0.7-0.6,1.3-1.2,2.1-1.6c0.7-0.5,1.5-1.1,2.2-1.5c0.8-0.4,1.5-1,2.2-1.4
								c0.8-0.4,1.5-0.8,2.4-1.2v0.2C-644.5,151.4-647.6,153.4-650.4,155.3L-650.4,155.3z"/>
						</g>
					</g>
				</g>
			</g>
		</g>
	</g>
        <g>
		<g>
			<g>
				<path class="st3" d="M-688.8,127L-688.8,127L-688.8,127l-2.8-2.7l0,0l-4.8-4.6l2.9-3.4l4.3,5l9.5-11.8l3.2,3.1L-688.8,127z
					 M-690.9,124.2l2,2.1l11.8-13.7l-2.4-2.4l-9.5,11.9l-4.3-5l-2.1,2.6L-690.9,124.2L-690.9,124.2z"/>
			</g>
		</g>
            <g>
			<g>
				<path class="st3" d="M-702.6,111.6l-12.6,1.5l12.2,1.5l0,0L-702.6,111.6L-702.6,111.6z"/>
			</g>
                <g>
				<g>
					<path class="st3" d="M-670.8,110.8c-1.3-2.7-3.1-4.9-5.1-6.5c-2-1.5-4.5-2.8-7-3.4c-0.6,0-1.3-0.2-1.8-0.2c-0.2,0-0.6,0-0.8,0
						h-0.6c-0.2,0-0.2,0-0.6,0h-3.8h-7.6l-29.5,0.4l29.7,0.7l7.3,0.2h3.8c0.2,0,0.2,0,0.6,0h0.2c0.2,0,0.6,0,0.8,0
						c0.6,0,1.3,0.2,1.8,0.2c2.1,0.7,4.4,2.1,6.1,3.5c1.7,1.6,3.1,3.5,4.4,5.8c0.8,2.3,1.5,4.7,1.3,7.2c0,2.3-0.6,4.9-1.8,6.9
						c-2.1,4.2-6.1,7.6-10.3,8.3c-2.1,0.2-4.4,0.2-6.4-0.2c-2.1-0.7-3.9-1.6-5.8-3.3c-1.5-1.6-3.1-3.3-3.9-5.5
						c-0.2-0.7-0.6-1.6-0.8-2.8c0-0.2,0-0.7,0-0.9s0-0.7,0-0.9s0-0.7,0-0.9v-0.2v-0.4v-0.3c0,0,0,0,0-0.2c0,0,0,0,0-0.2h-5.4v0.2
						l0,0l0,0l0,0v0.2v0.7c0,0.2,0,0.7,0,1.4c0,0.2,0,0.7,0.2,0.9c0,0.2,0,0.7,0.2,0.9c0.2,1.6,0.8,2.8,1.5,4.2
						c1.3,2.7,3.1,5.1,5.4,6.9c2.1,2.1,4.8,3.3,7.6,4c2.7,0.7,5.4,0.7,8.2,0c5.4-1.4,9.9-5.5,12.4-10.6c1.3-2.7,1.8-5.5,1.8-8.3
						C-669,115.9-669.5,113-670.8,110.8z"/>
				</g>
			</g>
                <g>
				<path class="st3" d="M-702.4,106.3l-19,1.5l19,1.5l0,0V106.3L-702.4,106.3z"/>
			</g>
		</g>
	</g>
        <g>
		<g>
			<rect x="-631.4" y="147.6" class="st1" width="5.5" height="0.5"/>
		</g>
            <g>
			<path class="st1" d="M-636.9,130.6h-21.7c-1.6,0-2.9-1.4-2.9-3v-11.4c0-1.7,1.3-3,2.9-3h13c0.9,0,1.7,0.4,2.3,1.1l8.6,11.4
				c0.7,1,0.8,2.2,0.3,3.3C-634.9,130-635.9,130.6-636.9,130.6z M-658.6,113.6c-1.3,0-2.4,1.1-2.4,2.6v11.4c0,1.4,1.1,2.6,2.4,2.6
				h21.7c0.9,0,1.7-0.5,2.1-1.3c0.5-0.9,0.4-2-0.2-2.8l-8.6-11.4c-0.5-0.6-1.1-1-1.9-1H-658.6z"/>
		</g>
            <g>
			<path class="st1" d="M-644.6,165.3c-5.4,0-9.8-4.5-10-10.1h-8.5c-0.9,0-1.6-0.7-1.6-1.6v-40.5c0-3.3,2.5-6,5.7-6h13.5
				c1.8,0,3.4,0.9,4.5,2.3l14.5,19.9c0.8,1,1.2,2.3,1.2,3.6v16.2c0,3.3-2.5,6-5.7,6h-3.5C-634.9,160.8-639.3,165.3-644.6,165.3z
				 M-659,108.1c-2.6,0-4.7,2.2-4.7,5v40.5c0,0.3,0.3,0.6,0.6,0.6h9.5v0.5c0,5.3,4.1,9.6,9,9.6c5,0,9-4.3,9-9.6v-0.5h4.5
				c2.6,0,4.7-2.2,4.7-5V133c0-1.1-0.3-2.2-1-3.1l-14.5-19.9c-0.9-1.2-2.3-1.9-3.7-1.9H-659z"/>
		</g>
            <g>
			<path class="st1" d="M-707.3,165.3c-5.5,0-10-4.7-10-10.6c0-5.8,4.5-10.6,10-10.6c5.5,0,10,4.7,10,10.6
				C-697.2,160.5-701.7,165.3-707.3,165.3z M-707.3,145.1c-5,0-9,4.3-9,9.6c0,5.3,4.1,9.6,9,9.6c5,0,9-4.3,9-9.6
				C-698.2,149.4-702.3,145.1-707.3,145.1z"/>
		</g>
            <g>
			<path class="st1" d="M-644.6,165.3c-5.5,0-10-4.7-10-10.6c0-5.8,4.5-10.6,10-10.6c5.5,0,10,4.7,10,10.6
				C-634.6,160.5-639.1,165.3-644.6,165.3z M-644.6,145.1c-5,0-9,4.3-9,9.6c0,5.3,4.1,9.6,9,9.6c5,0,9-4.3,9-9.6
				C-635.6,149.4-639.7,145.1-644.6,145.1z"/>
		</g>
            <g>
			<path class="st1" d="M-707.2,165.3c-5.4,0-9.8-4.5-10-10.1h-3.3c-4.3,0-7.9-3.7-7.9-8.3V95.1c0-4.6,3.5-8.3,7.9-8.3h48.9
				c4.3,0,7.9,3.7,7.9,8.3v60.1h-33.5C-697.4,160.8-701.8,165.3-707.2,165.3z M-720.5,87.8c-3.8,0-6.9,3.3-6.9,7.3v51.8
				c0,4,3.1,7.3,6.9,7.3h4.3v0.5c0,5.3,4.1,9.6,9,9.6c5,0,9-4.3,9-9.6v-0.5h33.4V95.1c0-4-3.1-7.3-6.9-7.3H-720.5z"/>
		</g>
            <g>
			<rect x="-661.3" y="135.1" class="st1" width="3" height="0.5"/>
		</g>
            <g>
			<rect x="-727.9" y="147.6" class="st1" width="3.9" height="0.5"/>
		</g>
	</g>
</g>
    <g>
	<g>
		<rect x="-186.4" y="-38.2" class="st6" width="5.5" height="0.5"/>
	</g>
        <g>
		<path class="st6" d="M-191.9-55.1h-21.7c-1.6,0-2.9-1.4-2.9-3v-11.4c0-1.7,1.3-3,2.9-3h13c0.9,0,1.7,0.4,2.3,1.1l8.6,11.4
			c0.7,1,0.8,2.2,0.3,3.3C-189.8-55.7-190.8-55.1-191.9-55.1z M-213.5-72.1c-1.3,0-2.4,1.1-2.4,2.6v11.4c0,1.4,1.1,2.6,2.4,2.6h21.7
			c0.9,0,1.7-0.5,2.1-1.3c0.5-0.9,0.4-2-0.2-2.8l-8.6-11.4c-0.5-0.6-1.1-1-1.9-1H-213.5z"/>
	</g>
        <g>
		<path class="st6" d="M-199.6-20.5c-5.4,0-9.8-4.5-10-10.1h-8.5c-0.9,0-1.6-0.7-1.6-1.6v-40.5c0-3.3,2.5-6,5.7-6h13.5
			c1.8,0,3.4,0.9,4.5,2.3l14.5,19.9c0.8,1,1.2,2.3,1.2,3.6v16.2c0,3.3-2.5,6-5.7,6h-3.5C-189.8-24.9-194.2-20.5-199.6-20.5z
			 M-214-77.6c-2.6,0-4.7,2.2-4.7,5v40.5c0,0.3,0.3,0.6,0.6,0.6h9.5v0.5c0,5.3,4.1,9.6,9,9.6s9-4.3,9-9.6v-0.5h4.5
			c2.6,0,4.7-2.2,4.7-5v-16.2c0-1.1-0.3-2.2-1-3.1l-14.5-19.9c-0.9-1.2-2.3-1.9-3.7-1.9H-214z"/>
	</g>
        <g>
		<path class="st6" d="M-262.2-20.5c-5.5,0-10-4.7-10-10.6s4.5-10.6,10-10.6c5.5,0,10,4.7,10,10.6S-256.7-20.5-262.2-20.5z
			 M-262.2-40.6c-5,0-9,4.3-9,9.6c0,5.3,4.1,9.6,9,9.6c5,0,9-4.3,9-9.6C-253.2-36.3-257.2-40.6-262.2-40.6z"/>
	</g>
        <g>
		<path class="st6" d="M-199.6-20.5c-5.5,0-10-4.7-10-10.6s4.5-10.6,10-10.6c5.5,0,10,4.7,10,10.6S-194-20.5-199.6-20.5z
			 M-199.6-40.6c-5,0-9,4.3-9,9.6c0,5.3,4.1,9.6,9,9.6s9-4.3,9-9.6C-190.5-36.3-194.6-40.6-199.6-40.6z"/>
	</g>
        <g>
		<path class="st6" d="M-262.1-20.5c-5.4,0-9.8-4.5-10-10.1h-3.3c-4.3,0-7.9-3.7-7.9-8.3v-51.8c0-4.6,3.5-8.3,7.9-8.3h48.9
			c4.3,0,7.9,3.7,7.9,8.3v60.1h-33.5C-252.3-24.9-256.8-20.5-262.1-20.5z M-275.5-98c-3.8,0-6.9,3.3-6.9,7.3v51.8
			c0,4,3.1,7.3,6.9,7.3h4.3v0.5c0,5.3,4.1,9.6,9,9.6s9-4.3,9-9.6v-0.5h33.4v-59.1c0-4-3.1-7.3-6.9-7.3H-275.5z"/>
	</g>
        <g>
		<rect x="-216.2" y="-50.7" class="st6" width="3" height="0.5"/>
	</g>
        <g>
		<rect x="-282.8" y="-38.2" class="st6" width="3.9" height="0.5"/>
	</g>
</g>
    <path class="st8" d="M-415.9,420c-7.3,0.2-13.2,1.9-17.2,3.4c0,0.4,0,0.8,0,1.2c4-1.5,9.9-3.2,17.2-3.4c8.7-0.2,15.6,1.8,19.9,3.4
	c0-0.4,0-0.8,0-1.2C-400.3,421.8-407.2,419.8-415.9,420z"/>
    <path class="st8" d="M-415.9,440.9c-7.3,0.2-13.2,1.9-17.2,3.4c0,0.4,0,0.8,0,1.2c4-1.5,9.9-3.2,17.2-3.4c8.7-0.2,15.6,1.8,19.9,3.4
	c0-0.4,0-0.8,0-1.2C-400.3,442.6-407.2,440.6-415.9,440.9z"/>
    <path class="st8" d="M-415.9,461.7c-7.3,0.2-13.2,1.9-17.2,3.4c0,0.4,0,0.8,0,1.2c4-1.5,9.9-3.2,17.2-3.4c8.7-0.2,15.6,1.8,19.9,3.4
	c0-0.4,0-0.8,0-1.2C-400.3,463.5-407.2,461.5-415.9,461.7z"/>
    <path class="st8" d="M-363.1,365.2c-7.3,0.2-13.2,1.9-17.2,3.4c0,0.4,0,0.8,0,1.2c4-1.5,9.9-3.2,17.2-3.4c8.7-0.2,15.6,1.8,19.9,3.4
	c0-0.4,0-0.8,0-1.2C-347.5,367-354.4,365-363.1,365.2z"/>
    <path class="st8" d="M-363.1,386.1c-7.3,0.2-13.2,1.9-17.2,3.4c0,0.4,0,0.8,0,1.2c4-1.5,9.9-3.2,17.2-3.4c8.7-0.2,15.6,1.8,19.9,3.4
	c0-0.4,0-0.8,0-1.2C-347.5,387.9-354.4,385.9-363.1,386.1z"/>
    <path class="st8" d="M-363.1,407c-7.3,0.2-13.2,1.9-17.2,3.4c0,0.4,0,0.8,0,1.2c4-1.5,9.9-3.2,17.2-3.4c8.7-0.2,15.6,1.8,19.9,3.4
	c0-0.4,0-0.8,0-1.2C-347.5,408.7-354.4,406.7-363.1,407z"/>
    <path class="st9" d="M-371.2,502.5h-8.1c-0.5,0-0.9-0.4-0.9-0.9v-32.5c0-0.5,0.4-0.9,0.9-0.9h8.1c0.5,0,0.9,0.4,0.9,0.9v32.5
	C-370.3,502.1-370.7,502.5-371.2,502.5z"/>
    <g>
	<path class="st1" d="M-289.1,416.8H-301v-47.2h11.9V416.8z M-299,414.8h7.9v-43.2h-7.9V414.8z"/>
</g>
    <g>
	<path class="st1" d="M-295,366.7c-4.7,0-8.5-3.8-8.5-8.5s3.8-8.5,8.5-8.5s8.5,3.8,8.5,8.5S-290.3,366.7-295,366.7z M-295,351.6
		c-3.6,0-6.5,2.9-6.5,6.5s2.9,6.5,6.5,6.5s6.5-2.9,6.5-6.5S-291.4,351.6-295,351.6z"/>
</g>
    <circle class="st9" cx="-375.3" cy="455.3" r="5"/>
    <path class="st3" d="M-971.9,389.4"/>
    <g>
	<g>
		<g>
			<g>
				<g>
					<g>
						<g>
							<path class="st3" d="M-516.3,116.3c0,0.1-3.9-1.3-9.4-1.6c-4-0.2-7.3,0.3-9.5,0.8c2.2-0.7,5.5-1.4,9.4-1.2
								C-520.4,114.5-516.3,116.3-516.3,116.3z"/>
						</g>
					</g>
				</g>
			</g>
            <g>
				<g>
					<g>
						<g>
							<g>
								<path class="st3" d="M-552.1,104.5c0-0.3,9.3-3.3,21.3-3.1c11.9,0.1,21,3.3,20.9,3.5c0,0.2-8.5-2.2-20.8-2.4
									C-543.4,102.4-552.1,104.8-552.1,104.5z"/>
							</g>
						</g>
					</g>
				</g>
                <g>
					<g>
						<g>
							<g>
								<path class="st3" d="M-514.6,109.9c-4-0.8-8.6-1.5-13.9-1.7c-5.5-0.2-10.4,0-14.6,0.5l0.1-0.2c3.6-0.8,8.5-1.4,14.4-1.2
									C-522.9,107.7-518.1,108.8-514.6,109.9z"/>
							</g>
						</g>
					</g>
				</g>
                <g>
					<g>
						<g>
							<g>
								<path class="st3" d="M-545.9,98.7c3.5-0.8,8.3-1.6,14.1-1.4c6,0.2,10.9,1.4,14.4,2.5l-0.1,0.2c-4-0.9-8.8-1.6-14.3-1.8
									C-537.1,97.9-541.9,98.2-545.9,98.7z"/>
							</g>
						</g>
					</g>
				</g>
			</g>
		</g>
        <g>
			<path class="st1" d="M-555.5,165.3V91.6l0.3-0.1c7.7-2.9,15.6-4.5,23.7-4.7c9.4-0.2,18.6,1.3,27.5,4.7l0.3,0.1v73.7l-0.7-0.2
				c-8.4-2.9-17.2-4.3-26-4.2c-8.3,0.1-16.6,1.5-24.5,4.2L-555.5,165.3z M-529.6,159.9c8.5,0,16.8,1.4,24.9,4V92.3
				c-8.6-3.2-17.6-4.7-26.8-4.5c-7.9,0.2-15.7,1.7-23.1,4.5v71.6c7.8-2.6,16-4,24.2-4C-530.1,159.9-529.8,159.9-529.6,159.9z"/>
		</g>
        <g>
			<path class="st1" d="M-554.8,165.3l-0.7-0.2c-8.4-2.9-17.2-4.3-26-4.2c-1,0-2,0-2.9,0.1l0-1c1,0,2-0.1,3-0.1
				c8.7-0.1,17.4,1.3,25.7,4V92.3c-8.6-3.2-17.6-4.7-26.8-4.5c-7.9,0.2-15.7,1.7-23.1,4.5V125h-1V91.6l0.3-0.1
				c7.7-2.9,15.6-4.5,23.7-4.7c9.4-0.2,18.6,1.3,27.5,4.7l0.3,0.1V165.3z"/>
		</g>
        <g>
			<rect x="-506" y="91.4" class="st1" width="0.5" height="72.2"/>
		</g>
        <g>
			<rect x="-507.6" y="91.4" class="st1" width="0.5" height="72.2"/>
		</g>
        <g>
			<g>
				<path class="st3" d="M-591.6,164.7h-6.7c-0.9,0-1.6-0.9-1.6-1.9v-32c0-1.1,0.7-1.9,1.6-1.9h6.7c0.9,0,1.6,0.9,1.6,1.9v32
					C-590,163.8-590.7,164.7-591.6,164.7z M-591.7,130.7l-6.6,0.1l0.1,32l6.6-0.1V130.7z M-591.6,162.7
					C-591.6,162.7-591.6,162.7-591.6,162.7L-591.6,162.7z"/>
			</g>
		</g>
        <g>
			<g>
				<path class="st3" d="M-595,123.1c-2.7,0-5-2.2-5-4.9c0-2.7,2.2-4.9,5-4.9c2.7,0,5,2.2,5,4.9C-590,120.9-592.3,123.1-595,123.1z
					 M-595,114.9c-1.8,0-3.3,1.5-3.3,3.3s1.5,3.3,3.3,3.3s3.3-1.5,3.3-3.3S-593.2,114.9-595,114.9z"/>
			</g>
		</g>
	</g>
        <g>
		<path class="st3" d="M-528.3,96.2"/>
	</g>
</g>
</svg>
