<?xml version="1.0" encoding="utf-8"?>
<!-- Generator: Adobe Illustrator 25.0.1, SVG Export Plug-In . SVG Version: 6.00 Build 0)  -->
<svg version="1.1" id="Слой_1" xmlns="http://www.w3.org/2000/svg" xmlns:xlink="http://www.w3.org/1999/xlink" x="0px" y="0px"
	 viewBox="0 0 61.18 46.02" style="enable-background:new 0 0 61.18 46.02;" xml:space="preserve">
<style type="text/css">
	.st0{fill:#FFFFFF;}
	.st1{fill:#FAB900;}
	.st2{fill:#FDD271;}
	.st3{fill:#3E3E91;}
	.st4{fill:#7667AB;}
</style>
<g>
	<path class="st0" d="M13.08,45.06c-2.88,0-5.23-2.21-5.23-4.94c0-2.72,2.35-4.92,5.23-4.92s5.23,2.21,5.23,4.92
		C18.3,42.84,15.96,45.06,13.08,45.06L13.08,45.06z"/>
	<path class="st1" d="M18.37,40.57l-0.08-0.91c-0.25-2.52-2.53-4.48-5.2-4.48c-2.68,0-4.95,1.96-5.2,4.48L7.8,40.57H3.11
		c-1.05,0-1.91-0.81-1.91-1.79V11.9c0-0.99,0.86-1.79,1.91-1.79h28.52c1.05,0,1.91,0.81,1.91,1.79v4.15l-0.02,0.07
		c-0.02,0.08-0.03,0.18-0.03,0.26v2.58l0.05,0.99v20.61H18.37V40.57z"/>
	<path class="st0" d="M46.36,45.06c-2.88,0-5.23-2.21-5.23-4.94c0-2.72,2.35-4.92,5.23-4.92c2.88,0,5.23,2.21,5.23,4.92
		S49.24,45.06,46.36,45.06L46.36,45.06z"/>
	<path class="st2" d="M51.66,40.57l-0.08-0.91c-0.25-2.52-2.53-4.48-5.2-4.48c-2.68,0-4.97,1.96-5.2,4.48l-0.08,0.91h-7.54v-22.4
		h13.31c1.05,0,1.89,0.81,1.89,1.79l3.8,8.06l5.71,0.91h0.15l0.12,0.03c0.94,0.26,1.63,1.76,1.63,2.65V37h-5.6h5.6v1.79
		c0,0.99-0.86,1.79-1.89,1.79h-6.62V40.57z"/>
	<g>
		<g>
			<path class="st3" d="M58.25,41.54h-5.71v-1.93h5.71c0.49,0,0.89-0.38,0.89-0.84V31.6c0-0.67-0.61-1.66-0.91-1.73
				c-0.05,0-0.1,0-0.15-0.02l-5.71-0.91c-0.35-0.05-0.63-0.26-0.76-0.56l-3.8-8.06c-0.07-0.12-0.08-0.26-0.08-0.4
				c0-0.46-0.4-0.84-0.89-0.84H33.53v-1.93h13.31c1.53,0,2.78,1.12,2.91,2.53l3.51,7.42l5.1,0.81c1.7,0.08,2.81,2.22,2.81,3.65v7.18
				C61.18,40.31,59.86,41.54,58.25,41.54L58.25,41.54z"/>
		</g>
		<g>
			<path class="st3" d="M6.9,41.54h-3.8c-1.61,0-2.93-1.23-2.93-2.75V27.14h2.04v11.65c0,0.46,0.39,0.84,0.89,0.84h3.8V41.54
				L6.9,41.54z"/>
		</g>
		<g>
			<polygon class="st3" points="41.13,41.54 18.3,41.54 18.3,39.62 41.13,39.62 			"/>
		</g>
		<g>
			<path class="st3" d="M13.08,46.02c-3.44,0-6.25-2.65-6.25-5.89s2.8-5.89,6.25-5.89c3.44,0,6.25,2.65,6.25,5.89
				C19.32,43.38,16.52,46.02,13.08,46.02L13.08,46.02z M13.08,36.16c-2.32,0-4.21,1.78-4.21,3.97s1.89,3.97,4.21,3.97
				s4.21-1.78,4.21-3.97S15.4,36.16,13.08,36.16L13.08,36.16z"/>
		</g>
		<g>
			<path class="st3" d="M46.36,46.02c-3.44,0-6.25-2.65-6.25-5.89s2.8-5.89,6.25-5.89c3.44,0,6.25,2.65,6.25,5.89
				C52.62,43.38,49.8,46.02,46.36,46.02L46.36,46.02z M46.36,36.16c-2.32,0-4.21,1.78-4.21,3.97s1.89,3.97,4.21,3.97
				c2.32,0,4.21-1.78,4.21-3.97S48.68,36.16,46.36,36.16L46.36,36.16z"/>
		</g>
		<g>
			<polygon class="st3" points="59.2,37.95 53.49,37.95 53.49,36.03 59.2,36.03 			"/>
		</g>
		<g>
			<polygon class="st3" points="34.55,39.68 32.51,39.68 32.51,18.17 34.55,18.17 			"/>
		</g>
		<g>
			<polygon class="st3" points="40.17,33.16 37.33,33.16 37.33,31.25 40.17,31.25 			"/>
		</g>
		<g>
			<path class="st3" d="M34.55,31.62h-2.04V11.9c0-0.46-0.4-0.84-0.89-0.84H3.09c-0.49,0-0.89,0.38-0.89,0.84v19.72H0.16V11.9
				c0-1.51,1.32-2.75,2.93-2.75h28.52c1.61,0,2.93,1.23,2.93,2.75V31.62L34.55,31.62z"/>
		</g>
		<g>
			<polygon class="st3" points="30.68,16.44 3.09,16.44 3.09,14.52 30.68,14.52 			"/>
		</g>
		<g>
			<polygon class="st3" points="30.68,23.62 3.09,23.62 3.09,21.69 30.68,21.69 			"/>
		</g>
		<g>
			<polygon class="st3" points="30.68,30.78 3.09,30.78 3.09,28.87 30.68,28.87 			"/>
		</g>
		<g>
			<path class="st4" d="M36.37,28.13c0,0.49,0.43,0.89,0.95,0.89h10.47c0.53,0,0.95-0.4,0.95-0.89l-2.85-5.38
				c0-0.49-0.43-0.89-0.95-0.89h-7.6c-0.53,0-0.95,0.4-0.95,0.89v5.38H36.37z"/>
			<path class="st3" d="M47.79,29.99H37.33c-1.09,0-1.97-0.84-1.97-1.86v-5.38c0-1.02,0.89-1.86,1.97-1.86h7.6
				c0.99,0,1.81,0.69,1.96,1.6l2.76,5.22c0.07,0.13,0.12,0.28,0.12,0.43C49.75,29.15,48.88,29.99,47.79,29.99L47.79,29.99z
				 M44.87,22.75l-7.54,0.07l0.07,5.32l10.17-0.07l-2.58-4.89C44.9,23.04,44.87,22.89,44.87,22.75L44.87,22.75z"/>
		</g>
	</g>
	<g>
		<g>
			<path class="st0" d="M10.85,0.95c5.43,0,9.83,4.15,9.83,9.27s-4.39,9.27-9.83,9.27s-9.83-4.15-9.83-9.27S5.41,0.95,10.85,0.95z"
				/>
			<path class="st3" d="M10.85,20.44C4.87,20.44,0,15.85,0,10.22C0,4.59,4.87,0,10.85,0c5.97,0,10.85,4.59,10.85,10.22
				C21.69,15.87,16.82,20.44,10.85,20.44L10.85,20.44z M10.85,1.93c-4.86,0-8.81,3.72-8.81,8.3c0,4.58,3.95,8.3,8.81,8.3
				s8.81-3.72,8.81-8.3S15.7,1.93,10.85,1.93L10.85,1.93z"/>
		</g>
		<g>
			<polygon class="st3" points="16.46,11.16 9.81,11.16 9.81,2.98 11.85,2.98 11.85,9.23 16.46,9.23 			"/>
		</g>
	</g>
</g>
</svg>
