<?xml version="1.0" encoding="utf-8"?>
<!-- Generator: Adobe Illustrator 25.0.1, SVG Export Plug-In . SVG Version: 6.00 Build 0)  -->
<svg version="1.1" id="Слой_1" xmlns="http://www.w3.org/2000/svg" xmlns:xlink="http://www.w3.org/1999/xlink" x="0px" y="0px"
	 viewBox="0 0 50.88 45.56" style="enable-background:new 0 0 50.88 45.56;" xml:space="preserve">
<style type="text/css">
	.st0{fill:#90C89B;}
	.st1{fill:#C0A17A;}
	.st2{fill:#BEB6DB;}
	.st3{fill:#FFEAC2;}
	.st4{fill:#C2BBDD;}
	.st5{fill:#FFFFFF;}
	.st6{fill:#7667AB;}
	.st7{fill:#FFD57D;}
	.st8{fill:#FFE3AA;}
	.st9{fill:#00A55B;}
	.st10{fill:#9E7943;}
</style>
<g id="Layer_2">
	<ellipse class="st0" cx="9.49" cy="44.52" rx="1.01" ry="1.04"/>
	<ellipse class="st0" cx="28.67" cy="1.67" rx="0.81" ry="0.84"/>
	<ellipse class="st0" cx="15.14" cy="23.62" rx="0.61" ry="0.63"/>
	<ellipse class="st0" cx="28.67" cy="24.66" rx="0.4" ry="0.42"/>
	<ellipse class="st0" cx="45.43" cy="44.1" rx="0.2" ry="0.21"/>
	<ellipse class="st1" cx="49.87" cy="41.17" rx="1.01" ry="1.04"/>
	<ellipse class="st1" cx="10.9" cy="2.51" rx="0.81" ry="0.84"/>
	<ellipse class="st1" cx="37.35" cy="22.99" rx="0.61" ry="0.63"/>
	<ellipse class="st1" cx="3.23" cy="39.29" rx="0.4" ry="0.42"/>
	<ellipse class="st1" cx="3.43" cy="19.23" rx="0.2" ry="0.21"/>
	<ellipse class="st2" cx="20.8" cy="1.04" rx="1.01" ry="1.04"/>
	<ellipse class="st2" cx="46.84" cy="23.41" rx="0.81" ry="0.84"/>
	<ellipse class="st2" cx="27.66" cy="43.89" rx="0.61" ry="0.63"/>
	<ellipse class="st2" cx="20.39" cy="22.57" rx="0.4" ry="0.42"/>
	<ellipse class="st2" cx="42.6" cy="2.72" rx="0.2" ry="0.21"/>
	<ellipse class="st3" cx="1.01" cy="2.51" rx="1.01" ry="1.04"/>
	<ellipse class="st3" cx="4.44" cy="23.41" rx="0.81" ry="0.84"/>
	<ellipse class="st3" cx="36.34" cy="1.04" rx="0.61" ry="0.63"/>
	<ellipse class="st3" cx="31.09" cy="24.66" rx="0.4" ry="0.42"/>
	<ellipse class="st3" cx="31.5" cy="44.72" rx="0.2" ry="0.21"/>
	<ellipse class="st4" cx="11.22" cy="12.25" rx="6.77" ry="7.01"/>
	<ellipse class="st5" cx="11.22" cy="11.16" rx="5.72" ry="5.92"/>
	<path class="st6" d="M11.22,19.68c-3.96,0-7.18-3.33-7.18-7.43s3.21-7.43,7.18-7.43s7.18,3.33,7.18,7.43
		C18.39,16.35,15.18,19.67,11.22,19.68z M11.22,5.66c-3.52,0-6.37,2.95-6.37,6.59s2.85,6.59,6.37,6.59s6.37-2.95,6.37-6.59v0
		C17.58,8.61,14.73,5.66,11.22,5.66z"/>
	<path class="st7" d="M6.14,12.25c0,2.9,2.27,5.26,5.08,5.26s5.08-2.35,5.08-5.26H6.14z"/>
	<path class="st8" d="M7.31,13.46c0,2.23,1.75,4.05,3.91,4.05s3.91-1.81,3.91-4.05H7.31z"/>
	<path class="st6" d="M11.22,17.93c-3.03,0-5.48-2.54-5.48-5.68c0-0.23,0.18-0.42,0.4-0.42H16.3c0.22,0,0.4,0.19,0.4,0.42
		C16.7,15.38,14.24,17.92,11.22,17.93z M6.56,12.67c0.22,2.66,2.49,4.64,5.06,4.41c2.27-0.2,4.06-2.06,4.26-4.41H6.56z"/>
	<ellipse class="st4" cx="39.67" cy="33.31" rx="6.77" ry="7.01"/>
	<ellipse class="st5" cx="39.67" cy="32.22" rx="5.72" ry="5.92"/>
	<path class="st6" d="M39.67,40.74c-3.96,0-7.18-3.33-7.18-7.43c0-4.1,3.21-7.43,7.18-7.43c3.96,0,7.18,3.33,7.18,7.43
		C46.84,37.41,43.63,40.74,39.67,40.74z M39.67,26.72c-3.52,0-6.37,2.95-6.37,6.59c0,3.64,2.85,6.59,6.37,6.59
		c3.52,0,6.37-2.95,6.37-6.59C46.03,29.67,43.18,26.72,39.67,26.72z"/>
	<path class="st7" d="M34.59,33.31c0,2.9,2.28,5.26,5.08,5.26c2.8,0,5.08-2.35,5.08-5.26H34.59z"/>
	<path class="st8" d="M35.76,34.52c0,2.23,1.75,4.05,3.91,4.05c2.16,0,3.91-1.81,3.91-4.05H35.76z"/>
	<path class="st6" d="M39.67,38.99c-3.03,0-5.48-2.54-5.48-5.68c0-0.23,0.18-0.42,0.4-0.42h10.16c0.22,0,0.4,0.19,0.4,0.42
		C45.15,36.45,42.69,38.98,39.67,38.99z M35.01,33.73c0.22,2.66,2.49,4.64,5.06,4.41c2.27-0.2,4.06-2.06,4.26-4.41H35.01z"/>
	<path class="st4" d="M46.44,8.74v7.01c0,1.94-1.52,3.5-3.39,3.5l0,0H27.81c-1.87,0-3.38-1.57-3.38-3.5l-3.73-3.51l3.73-3.5
		c0-1.94,1.52-3.5,3.39-3.5l0,0h15.24C44.93,5.24,46.44,6.81,46.44,8.74z"/>
	<path class="st5" d="M45.07,8.74v5.53c0,1.94-1.52,3.5-3.39,3.5l0,0H28.67c-1.87,0-3.39-1.57-3.39-3.5v0l-4.58-2.02l3.72-3.5
		c0-1.94,1.52-3.5,3.39-3.5l0,0h13.88C43.56,5.24,45.07,6.81,45.07,8.74z"/>
	<path class="st6" d="M43.05,19.68H27.81c-2.02,0-3.68-1.65-3.78-3.73l-3.6-3.39c-0.17-0.15-0.18-0.42-0.04-0.59
		c0.01-0.01,0.02-0.03,0.04-0.04l3.6-3.38c0.1-2.09,1.76-3.73,3.79-3.73h15.24c2.09,0,3.79,1.76,3.79,3.92v7.01
		C46.84,17.92,45.15,19.68,43.05,19.68z M21.3,12.25l3.4,3.2c0.08,0.08,0.13,0.19,0.13,0.31c0,1.7,1.34,3.08,2.98,3.09h15.24
		c1.65,0,2.98-1.38,2.99-3.08V8.74c0-1.7-1.34-3.08-2.98-3.09H27.81c-1.64,0.01-2.97,1.39-2.98,3.09c0,0.12-0.05,0.23-0.13,0.31
		L21.3,12.25z"/>
	<path class="st9" d="M28.15,8.74h13.89c0.56,0,1.02,0.47,1.02,1.05l0,0c0,0.58-0.45,1.05-1.02,1.05H28.15
		c-0.56,0-1.02-0.47-1.02-1.05l0,0C27.14,9.21,27.59,8.74,28.15,8.74z"/>
	<path class="st9" d="M28.15,13.65h13.89c0.56,0,1.02,0.47,1.02,1.05l0,0c0,0.58-0.45,1.05-1.02,1.05H28.15
		c-0.56,0-1.02-0.47-1.02-1.05l0,0C27.14,14.12,27.59,13.65,28.15,13.65z"/>
	<path class="st4" d="M4.44,29.8v7.01c0,1.94,1.52,3.5,3.39,3.5h0h15.24c1.87,0,3.38-1.57,3.38-3.5l3.73-3.5l-3.73-3.51
		c0-1.94-1.52-3.5-3.39-3.5h0H7.83C5.96,26.3,4.44,27.87,4.44,29.8L4.44,29.8z"/>
	<path class="st5" d="M5.81,29.8v5.53c0,1.94,1.52,3.5,3.39,3.5h0h13.02c1.87,0,3.39-1.57,3.39-3.5v0l4.58-2.02l-3.72-3.5
		c0-1.94-1.52-3.5-3.39-3.5h0H9.2C7.33,26.3,5.81,27.87,5.81,29.8L5.81,29.8z"/>
	<path class="st6" d="M23.07,40.74H7.83c-2.09,0-3.79-1.76-3.79-3.92V29.8c0-2.17,1.7-3.92,3.79-3.92h15.24
		c2.02,0,3.69,1.65,3.79,3.73l3.6,3.39c0.17,0.15,0.18,0.42,0.04,0.59c-0.01,0.01-0.02,0.03-0.04,0.04l-3.6,3.38
		C26.75,39.1,25.09,40.74,23.07,40.74z M7.83,26.72c-1.65,0-2.98,1.38-2.98,3.09v7.01c0,1.7,1.34,3.08,2.98,3.09h15.24
		c1.64,0,2.98-1.38,2.98-3.09c0-0.12,0.05-0.23,0.13-0.31l3.4-3.2l-3.4-3.2c-0.08-0.08-0.13-0.19-0.13-0.31
		c0-1.7-1.34-3.08-2.98-3.09L7.83,26.72z"/>
	<path class="st10" d="M22.73,31.91H8.85c-0.56,0-1.02-0.47-1.02-1.05l0,0c0-0.58,0.45-1.05,1.02-1.05h13.89
		c0.56,0,1.02,0.47,1.02,1.05l0,0C23.75,31.44,23.29,31.91,22.73,31.91z"/>
	<path class="st10" d="M22.73,36.82H8.85c-0.56,0-1.02-0.47-1.02-1.05l0,0c0-0.58,0.45-1.05,1.02-1.05h13.89
		c0.56,0,1.02,0.47,1.02,1.05l0,0C23.75,36.35,23.29,36.82,22.73,36.82z"/>
</g>
</svg>
