<?xml version="1.0" encoding="utf-8"?>
<!-- Generator: Adobe Illustrator 25.0.1, SVG Export Plug-In . SVG Version: 6.00 Build 0)  -->
<svg version="1.1" id="Слой_1" xmlns="http://www.w3.org/2000/svg" xmlns:xlink="http://www.w3.org/1999/xlink" x="0px" y="0px"
	 viewBox="0 0 38.75 38.75" style="enable-background:new 0 0 38.75 38.75;" xml:space="preserve">
<style type="text/css">
	.st0{fill:#4A3A8E;}
	.st1{fill:#FFDB90;}
	.st2{fill:#FDD373;}
	.st3{fill:#FFFFFF;}
	.st4{fill:#FFECC7;}
	.st5{fill:#64559F;}
	.st6{fill:#CCC9E5;}
	.st7{fill:#D6D4EB;}
	.st8{fill:#8275B3;}
	.st9{fill:#FFE2A8;}
</style>
<g>
	<g>
		<path class="st0" d="M1.81,32.35C1.5,32.3,1.28,32,1.33,31.69L6.3,0.77c0.05-0.31,0.35-0.53,0.66-0.48l30.92,4.97
			c0.32,0.05,0.53,0.35,0.48,0.66l-4.97,30.92c-0.05,0.32-0.35,0.53-0.66,0.48L1.81,32.35z"/>
	</g>
	<g>
		<g>
			<g>
				<g>
					<g>
						<g>
							<path class="st1" d="M8.52,37.71c-0.29,0.07-0.59-0.11-0.66-0.41L1.04,8.52C0.97,8.22,1.15,7.93,1.44,7.86l28.79-6.82
								c0.29-0.07,0.59,0.11,0.66,0.41l6.82,28.78c0.07,0.29-0.11,0.59-0.41,0.66L8.52,37.71z"/>
						</g>
						<path class="st2" d="M29.99,0.04c0.85-0.2,1.69,0.32,1.89,1.17l6.82,28.78c0.2,0.84-0.32,1.69-1.16,1.89L8.75,38.7
							c-0.84,0.2-1.69-0.32-1.89-1.17"/>
						<g>
							<path class="st3" d="M15.62,18.12c-0.55,0.13-1,0.47-1.3,0.9c-0.29-0.21-0.66-0.31-1.03-0.22c-0.33,0.08-0.6,0.28-0.77,0.55
								c-0.24-0.11-0.51-0.17-0.78-0.18c-0.31-0.65-1.04-1.02-1.76-0.85c-0.25,0.06-0.47,0.18-0.66,0.34
								c-0.16-0.4-0.56-0.64-0.99-0.6c-0.01-0.1-0.02-0.19-0.04-0.29c-0.12-0.51-0.39-0.94-0.74-1.28c0.28-0.21,0.43-0.58,0.35-0.95
								c-0.12-0.49-0.61-0.8-1.1-0.68c-0.01,0-0.02,0.01-0.04,0.01c-0.01-0.05-0.01-0.1-0.02-0.15c-0.3-1.27-1.58-2.06-2.85-1.76
								c-1.27,0.3-2.06,1.58-1.76,2.85c0.17,0.72,0.66,1.27,1.27,1.57c-0.2,0.48-0.26,1.03-0.13,1.57c0.22,0.91,0.9,1.59,1.73,1.85
								c-0.25,0.61-0.32,1.31-0.16,2c0.42,1.76,2.19,2.85,3.95,2.44c1.11-0.26,1.95-1.06,2.32-2.05c0.33,0.09,0.68,0.11,1.03,0.03
								c0.94-0.22,1.56-1.05,1.58-1.97c0.05-0.01,0.09-0.01,0.14-0.02c0.09-0.02,0.18-0.05,0.26-0.09c0.42,0.94,1.46,1.48,2.5,1.23
								c1.18-0.28,1.91-1.46,1.63-2.64C17.98,18.57,16.8,17.84,15.62,18.12z"/>
							<path class="st3" d="M35.34,15.79l-0.89-3.76c-0.43-0.32-0.95-0.54-1.5-0.6c0.49-0.71,0.7-1.61,0.48-2.52
								c-0.4-1.7-2.1-2.74-3.79-2.34c-1.7,0.4-2.74,2.1-2.34,3.79c0,0.02,0.01,0.04,0.02,0.05c-1.26,0.42-2.06,1.68-1.9,3
								c-0.15-0.03-0.32-0.03-0.48,0.01c-0.51,0.12-0.86,0.57-0.86,1.08c-1.22,0.49-1.93,1.8-1.62,3.12
								c0.3,1.28,1.47,2.13,2.73,2.08c0.32,1.19,1.53,1.93,2.74,1.64c0.78-0.19,1.37-0.75,1.63-1.45c0.48,0.12,0.99,0.13,1.51,0.01
								c0.68-0.16,1.26-0.53,1.68-1.02c0.41,0.55,1.12,0.83,1.83,0.67c0.7-0.17,1.21-0.73,1.33-1.4l-0.33-1.39
								c-0.15-0.19-0.33-0.35-0.54-0.47C35.15,16.13,35.25,15.96,35.34,15.79z"/>
						</g>
						<g>
							<path class="st4" d="M15.79,18.82c-0.55,0.13-1,0.46-1.3,0.9c-0.29-0.21-0.66-0.31-1.03-0.22c-0.33,0.08-0.6,0.28-0.77,0.55
								c-0.24-0.11-0.51-0.17-0.78-0.18c-0.31-0.65-1.04-1.02-1.76-0.85c-0.25,0.06-0.47,0.18-0.65,0.34
								c-0.16-0.4-0.56-0.64-0.99-0.6c-0.01-0.09-0.01-0.19-0.04-0.29c-0.12-0.51-0.39-0.95-0.74-1.28
								c0.29-0.21,0.43-0.58,0.35-0.95c-0.12-0.49-0.61-0.8-1.1-0.68c-0.01,0-0.02,0.01-0.03,0.01c-0.01-0.05-0.01-0.1-0.02-0.15
								c-0.3-1.27-1.57-2.06-2.84-1.76C2.79,13.98,2,15.25,2.3,16.52c0.17,0.72,0.66,1.27,1.27,1.57c-0.2,0.48-0.26,1.03-0.13,1.57
								c0.22,0.91,0.9,1.59,1.73,1.85c-0.25,0.61-0.32,1.31-0.16,2c0.42,1.76,2.19,2.85,3.95,2.44c1.11-0.26,1.95-1.06,2.32-2.05
								c0.33,0.09,0.68,0.11,1.03,0.03c0.94-0.22,1.56-1.05,1.58-1.97c0.04-0.01,0.09-0.01,0.14-0.02c0.09-0.02,0.18-0.06,0.26-0.09
								c0.42,0.94,1.46,1.48,2.5,1.24c1.18-0.28,1.91-1.46,1.63-2.64C18.15,19.27,16.97,18.54,15.79,18.82z"/>
							<path class="st4" d="M35.5,16.49l-0.89-3.76c-0.43-0.33-0.95-0.54-1.5-0.6c0.49-0.71,0.69-1.62,0.48-2.52
								c-0.4-1.69-2.1-2.74-3.8-2.34c-1.69,0.4-2.74,2.1-2.34,3.8c0,0.02,0.01,0.03,0.01,0.05c-1.26,0.42-2.06,1.68-1.9,2.99
								c-0.15-0.03-0.32-0.03-0.48,0.01c-0.51,0.12-0.86,0.57-0.87,1.08c-1.22,0.49-1.93,1.81-1.62,3.12
								c0.3,1.28,1.47,2.13,2.73,2.08c0.32,1.19,1.53,1.92,2.74,1.64c0.78-0.19,1.37-0.75,1.63-1.45c0.48,0.12,0.99,0.13,1.51,0.01
								c0.68-0.16,1.25-0.53,1.68-1.02c0.41,0.55,1.12,0.84,1.83,0.67c0.7-0.17,1.21-0.73,1.33-1.4l-0.33-1.38
								c-0.15-0.19-0.33-0.35-0.54-0.47C35.31,16.83,35.42,16.67,35.5,16.49z"/>
						</g>
						
							<rect x="5.51" y="20.46" transform="matrix(0.9731 -0.2305 0.2305 0.9731 -4.9078 5.375)" class="st5" width="30.08" height="6.48"/>
						<path class="st6" d="M29.99,0.04L1.21,6.86c-0.84,0.2-1.37,1.05-1.17,1.89l6.82,28.78c0.2,0.84,1.05,1.37,1.89,1.17
							l28.79-6.82c0.84-0.2,1.37-1.05,1.16-1.89L31.89,1.21C31.68,0.36,30.84-0.16,29.99,0.04z M30,2.14l4.43,18.7l-27.86,6.6
							L2.14,8.74L30,2.14z"/>
						<path class="st7" d="M8.75,38.7l1.73-0.41L19,24.5L6.57,27.44L2.14,8.74L30,2.14l0.77,3.26l1.52-2.46l-0.41-1.73
							c-0.2-0.84-1.05-1.37-1.89-1.17L1.21,6.86c-0.84,0.2-1.37,1.05-1.17,1.89l6.82,28.78C7.06,38.38,7.91,38.9,8.75,38.7z"/>
						<g>
							<path class="st8" d="M28.29,18.53l-0.77,0.18l-7.93-6.66c-0.37-0.31-1-0.16-1.2,0.29l-3.01,6.99l-1.49-1.25
								c-0.37-0.31-1-0.16-1.2,0.28l-1.86,4.31l-0.81,0.19c-0.41,0.1-0.67,0.51-0.57,0.92c0.1,0.41,0.51,0.67,0.92,0.57l0.97-0.23
								c0.13,0,0.26-0.03,0.38-0.09l3.11-0.74c0.06,0,0.12,0,0.17-0.01c0.06-0.01,0.12-0.04,0.18-0.07l2.1-0.5
								c0.07,0,0.13,0,0.2-0.02c0.06-0.01,0.11-0.04,0.16-0.07l9.69-2.29c0.13,0,0.26-0.03,0.38-0.09l0.93-0.22
								c0.41-0.1,0.67-0.51,0.57-0.92C29.12,18.69,28.7,18.43,28.29,18.53z"/>
							<path class="st5" d="M28.29,18.53l-0.77,0.18l-7.93-6.66c-0.37-0.31-1-0.16-1.2,0.29l-1.58,8.14l-2.93-2.41
								c-0.37-0.31-1-0.16-1.2,0.28l-0.66,4.02l-2,0.47c-0.41,0.1-0.67,0.51-0.57,0.92c0.1,0.41,0.51,0.67,0.92,0.57l0.97-0.23
								c0.13,0,0.26-0.03,0.38-0.09l3.11-0.74c0.06,0,0.12,0,0.17-0.01c0.06-0.01,0.12-0.04,0.18-0.07l2.1-0.5
								c0.07,0,0.13,0,0.2-0.02c0.06-0.01,0.11-0.04,0.16-0.07l9.69-2.29c0.13,0,0.26-0.03,0.38-0.09l0.93-0.22
								c0.41-0.1,0.67-0.51,0.57-0.92C29.12,18.69,28.7,18.43,28.29,18.53z"/>
						</g>
						<circle class="st9" cx="13.27" cy="7.44" r="0.15"/>
						<path class="st9" d="M15.69,7.77c0.04,0.18-0.07,0.37-0.25,0.41c-0.18,0.04-0.37-0.07-0.41-0.25
							c-0.04-0.18,0.07-0.37,0.25-0.41C15.46,7.47,15.64,7.59,15.69,7.77z"/>
						<circle class="st9" cx="17.14" cy="5.98" r="0.08"/>
						<circle class="st9" cx="19.08" cy="9.04" r="0.36"/>
						<circle class="st9" cx="13.42" cy="9.49" r="0.13"/>
						<circle class="st9" cx="15.78" cy="9.74" r="0.28"/>
						<circle class="st9" cx="10.34" cy="8.4" r="0.19"/>
						
							<rect x="6.34" y="23.98" transform="matrix(0.9731 -0.2305 0.2305 0.9731 -5.126 5.5519)" class="st6" width="29.72" height="1.47"/>
					</g>
				</g>
			</g>
		</g>
	</g>
	<circle class="st9" cx="12.01" cy="12.94" r="2.14"/>
	<g>
		
			<rect x="11.57" y="9.36" transform="matrix(0.7071 -0.7071 0.7071 0.7071 -3.4067 11.361)" class="st9" width="0.87" height="0.87"/>
		
			<rect x="11.57" y="15.64" transform="matrix(0.7071 -0.7071 0.7071 0.7071 -7.8481 13.2008)" class="st9" width="0.87" height="0.87"/>
	</g>
	<g>
		<rect x="13.8" y="10.28" class="st9" width="0.87" height="0.87"/>
		<rect x="9.35" y="14.72" class="st9" width="0.87" height="0.87"/>
	</g>
	<g>
		
			<rect x="14.72" y="12.5" transform="matrix(0.7075 -0.7068 0.7068 0.7075 -4.7097 14.4928)" class="st9" width="0.87" height="0.87"/>
		
			<rect x="8.43" y="12.5" transform="matrix(0.7078 -0.7064 0.7064 0.7078 -6.5449 10.0451)" class="st9" width="0.87" height="0.87"/>
	</g>
	<g>
		<rect x="13.8" y="14.72" class="st9" width="0.87" height="0.87"/>
		<rect x="9.35" y="10.28" class="st9" width="0.87" height="0.87"/>
	</g>
</g>
</svg>
