<?xml version="1.0" encoding="utf-8"?>
<!-- Generator: Adobe Illustrator 25.0.1, SVG Export Plug-In . SVG Version: 6.00 Build 0)  -->
<svg version="1.1" id="Слой_1" xmlns="http://www.w3.org/2000/svg" xmlns:xlink="http://www.w3.org/1999/xlink" x="0px" y="0px"
     viewBox="0 0 111.6 78.5" style="enable-background:new 0 0 111.6 78.5;" xml:space="preserve">
<style type="text/css">
	.st0{fill:#FFFFFF;}
	.st1{fill:#0198AF;}
</style>
    <g>
	<g>
		<g>
			<g>
				<path class="st0" d="M111.5,78.5H0V0h111.6v78.5H111.5z M1,77.5h109.6V1H1V77.5z"/>
			</g>
            <g>
				<path class="st0" d="M101.8,69.4H9.6V9.1h92.2L101.8,69.4L101.8,69.4z M10.1,68.9h91.2V9.6H10.1V68.9z"/>
			</g>
            <g>
				<polygon class="st0" points="10,53 9.7,52.6 42.6,27.1 42.8,27.2 62,47.2 77.9,37.2 78.1,37.3 101.7,51 101.5,51.5 77.9,37.8
					61.9,47.9 42.6,27.7 				"/>
			</g>
		</g>
	</g>
        <g>
		<g>
			<g>
				<g>
					<path class="st1" d="M97.1,22.3c-0.3,0.2-0.6,0.4-0.8,0.6c-0.3,0.2-0.6,0.3-0.9,0.5s-0.6,0.3-0.9,0.5s-0.6,0.3-0.9,0.5l0,0
						C94.8,23.7,96,23,97.1,22.3L97.1,22.3z"/>
				</g>
			</g>
		</g>
            <g>
			<g>
				<g>
					<path class="st1" d="M90.3,19.6c0.3-0.2,0.5-0.3,0.8-0.5s0.5-0.3,0.8-0.5s0.5-0.3,0.8-0.5s0.5-0.3,0.8-0.5l0,0
						C92.4,18.3,91.4,19,90.3,19.6L90.3,19.6z"/>
				</g>
			</g>
		</g>
            <g>
			<g>
				<g>
					<path class="st1" d="M93.5,14.6c-3.4,0-6.2,2.8-6.2,6.2s2.8,6.2,6.2,6.2c3.5,0,6.2-2.8,6.2-6.2S96.9,14.6,93.5,14.6z M99,20.8
						c0,3-2.4,5.4-5.4,5.4s-5.4-2.4-5.4-5.4s2.4-5.5,5.4-5.5C96.5,15.4,99,17.8,99,20.8z"/>
				</g>
			</g>
		</g>
            <g>
			<g>
				<g>
					<g>
						<path class="st1" d="M89.6,23.2c1.3-0.9,2.6-1.7,3.9-2.5s2.7-1.6,4-2.3c-1.3,0.9-2.6,1.7-3.9,2.5
							C92.3,21.7,90.9,22.5,89.6,23.2z"/>
					</g>
				</g>
			</g>
                <g>
				<g>
					<g>
						<path class="st1" d="M96.9,20.4c-0.4,0.3-0.8,0.6-1.3,0.9c-0.4,0.3-0.9,0.6-1.3,0.8c-0.5,0.3-0.9,0.5-1.3,0.8
							c-0.5,0.2-0.9,0.5-1.4,0.6l0,0C93.3,22.5,95.1,21.4,96.9,20.4L96.9,20.4z"/>
					</g>
				</g>
			</g>
                <g>
				<g>
					<g>
						<path class="st1" d="M90.2,21.2c0.4-0.3,0.8-0.6,1.3-0.9c0.4-0.3,0.9-0.6,1.3-0.8c0.5-0.3,0.9-0.5,1.3-0.8
							c0.5-0.2,0.9-0.5,1.4-0.6l0,0C93.7,19.2,92,20.2,90.2,21.2L90.2,21.2z"/>
					</g>
				</g>
			</g>
		</g>
	</g>
</g>
</svg>
