<svg width="229" height="122" viewBox="0 0 229 122" fill="none" xmlns="http://www.w3.org/2000/svg">
<g filter="url(#filter0_d_328_4832)">
<path d="M176.799 113.991C173.66 113.991 170.629 114.027 167.562 113.955C167.238 113.955 166.696 113.234 166.588 112.801C165.794 108.293 165.109 103.785 164.315 99.3131C164.207 98.7721 163.63 98.0869 163.125 97.8705C159.084 96.2837 154.971 94.8051 150.461 93.1101C146.636 95.7428 142.271 98.8082 137.941 101.801C135.56 99.4213 133.287 97.1493 130.906 94.7691C133.648 90.9103 136.39 86.9793 139.24 83.1205C139.962 82.1468 139.926 81.4977 139.421 80.4157C137.797 76.9536 136.462 73.3833 134.911 69.8852C134.658 69.3082 134.009 68.6229 133.432 68.5148C128.669 67.5771 123.907 66.7476 119 65.846C119 62.6003 119 59.3907 119 55.9285C122.536 55.3155 126.108 54.486 129.715 54.1975C133.287 53.909 135.344 52.755 136.065 48.8601C136.57 46.1192 138.302 43.5948 139.601 41.0343C140.034 40.2048 139.998 39.736 139.493 38.9787C136.643 34.9756 133.828 30.9365 131.086 27.0055C133.468 24.6614 135.777 22.3894 138.158 20.0092C141.982 22.714 145.951 25.4909 149.884 28.3759C150.822 29.0972 151.399 28.9169 152.409 28.4841C155.909 26.9334 159.481 25.5269 163.052 24.1565C163.846 23.868 164.351 23.6516 164.496 22.6779C165.109 18.4585 165.867 14.2751 166.588 10.0917C166.696 9.40648 166.877 8.72127 167.021 8C170.34 8 173.587 8 176.871 8C177.737 12.9047 178.639 17.7372 179.432 22.5697C179.577 23.4713 179.937 23.8319 180.767 24.1565C184.375 25.563 187.983 27.0416 191.519 28.5923C192.457 28.989 193.034 29.1333 193.9 28.4841C197.796 25.599 201.801 22.7861 205.77 19.9371C208.043 22.3173 210.316 24.6614 212.697 27.1498C210.135 30.8283 207.43 34.7953 204.615 38.6901C203.822 39.772 203.894 40.5294 204.471 41.7195C205.986 44.9652 207.321 48.3191 208.584 51.673C208.981 52.755 209.378 53.332 210.604 53.5123C214.754 54.1254 218.903 54.8466 223.052 55.5319C223.701 55.64 224.314 55.7843 225 55.9285C225 59.2464 225 62.4561 225 65.81C220.598 66.5673 216.233 67.4328 211.867 68.0459C209.919 68.3344 208.873 68.9475 208.259 71.1113C207.357 74.321 205.806 77.3143 204.363 80.3436C203.894 81.3173 203.822 81.9665 204.507 82.9041C207.393 86.799 210.208 90.8021 212.95 94.6609C210.604 97.005 208.332 99.277 205.878 101.693C202.126 99.0967 198.157 96.3919 194.297 93.579C193.214 92.7856 192.493 92.8216 191.302 93.3987C187.947 94.9855 184.519 96.3559 181.056 97.6902C180.082 98.0509 179.613 98.4476 179.432 99.4934C178.53 104.29 177.664 109.05 176.799 113.991ZM151.11 60.7971C150.966 72.1211 160.383 81.678 171.711 81.7501C183.221 81.8222 192.565 72.5899 192.709 61.0135C192.854 49.9059 183.509 40.313 172.361 40.1688C160.743 39.9884 151.255 49.1847 151.11 60.7971Z" fill="#ABABAB"/>
</g>
<path d="M0 11.7324H224.938" stroke="#ABABAB" stroke-width="2"/>
<path d="M0 106.938H224.938" stroke="#ABABAB" stroke-width="2"/>
<path d="M126.045 61.0107H-4.90695e-05" stroke="#ABABAB" stroke-width="2"/>
<path d="M46.591 61.0115C46.591 55.2689 51.2462 50.6137 56.9887 50.6137C62.7313 50.6137 67.3865 55.2689 67.3865 61.0115C67.3865 66.754 62.7313 71.4092 56.9887 71.4092C51.2462 71.4092 46.591 66.754 46.591 61.0115Z" fill="#D9D9D9" stroke="#0097AE" stroke-width="2"/>
<path d="M78.7727 106.602C78.7727 100.86 83.4279 96.2045 89.1704 96.2045C94.9129 96.2045 99.5681 100.86 99.5681 106.602C99.5681 112.345 94.9129 117 89.1704 117C83.4279 117 78.7727 112.345 78.7727 106.602Z" fill="#D9D9D9" stroke="#0097AE" stroke-width="2"/>
<path d="M104.25 11.3982C104.25 5.65566 108.905 1.00044 114.648 1.00045C120.39 1.00045 125.045 5.65567 125.045 11.3982C125.045 17.1407 120.39 21.7959 114.648 21.7959C108.905 21.7959 104.25 17.1407 104.25 11.3982Z" fill="#D9D9D9" stroke="#0097AE" stroke-width="2"/>
<defs>
<filter id="filter0_d_328_4832" x="115" y="8" width="114" height="114" filterUnits="userSpaceOnUse" color-interpolation-filters="sRGB">
<feFlood flood-opacity="0" result="BackgroundImageFix"/>
<feColorMatrix in="SourceAlpha" type="matrix" values="0 0 0 0 0 0 0 0 0 0 0 0 0 0 0 0 0 0 127 0" result="hardAlpha"/>
<feOffset dy="4"/>
<feGaussianBlur stdDeviation="2"/>
<feComposite in2="hardAlpha" operator="out"/>
<feColorMatrix type="matrix" values="0 0 0 0 0 0 0 0 0 0 0 0 0 0 0 0 0 0 0.25 0"/>
<feBlend mode="normal" in2="BackgroundImageFix" result="effect1_dropShadow_328_4832"/>
<feBlend mode="normal" in="SourceGraphic" in2="effect1_dropShadow_328_4832" result="shape"/>
</filter>
</defs>
</svg>
