<?xml version="1.0" encoding="utf-8"?>
<!-- Generator: Adobe Illustrator 25.0.1, SVG Export Plug-In . SVG Version: 6.00 Build 0)  -->
<svg version="1.1" id="Слой_1" xmlns="http://www.w3.org/2000/svg" xmlns:xlink="http://www.w3.org/1999/xlink" x="0px" y="0px"
     viewBox="0 0 103 78.5" style="enable-background:new 0 0 103 78.5;" xml:space="preserve">
<style type="text/css">
	.st0{fill:none;stroke:#FFFFFF;stroke-width:0.5;stroke-miterlimit:10;}
	.st1{fill:none;stroke:#000000;stroke-miterlimit:10;}
	.st2{fill:#0097AE;}
	.st3{fill:#FFFFFF;}
	.st4{fill:#0096AD;}
	.st5{fill:none;stroke:#000000;stroke-width:0.75;stroke-miterlimit:10.0003;}
	.st6{fill:none;stroke:#000000;stroke-width:0.5;stroke-miterlimit:10;}
	.st7{fill:none;}
	.st8{fill:none;stroke:#FFFFFF;stroke-miterlimit:10;}
	.st9{fill:none;stroke:#FFFFFF;stroke-width:0.25;stroke-miterlimit:10;}
	.st10{fill:none;stroke:#1D1D1B;stroke-miterlimit:10;}
	.st11{fill:none;stroke:#FFFFFF;stroke-width:3;stroke-miterlimit:10;}
</style>
    <g>
	<path class="st0" d="M-654-287.8c0,0.3,0,0.7,0,1c3.6-1.2,8.9-2.5,15.4-2.5c6.9-0.1,12.6,1.3,16.3,2.5c0-0.3,0-0.7,0-1
		c-3.7-1.2-9.4-2.6-16.3-2.5C-645.1-290.3-650.4-289-654-287.8z"/>
        <path class="st0" d="M-654-332c0,14.4,0,28.8,0,43.2c3.6-1.2,8.9-2.5,15.4-2.5c6.9-0.1,12.6,1.3,16.3,2.5c0-14.4,0-28.8,0-43.2
		c-3.7-1.3-9.6-2.9-17-2.8C-645.6-334.6-650.6-333.2-654-332z"/>
        <path class="st0" d="M-687.6-287.8c0,0.3,0,0.7,0,1c3.6-1.2,8.9-2.5,15.4-2.5c6.9-0.1,12.6,1.3,16.3,2.5c0-0.3,0-0.7,0-1
		c-3.7-1.2-9.4-2.6-16.3-2.5C-678.8-290.3-684-289-687.6-287.8z"/>
        <path class="st0" d="M-687.6-332c0,14.4,0,28.8,0,43.2c3.6-1.2,8.9-2.5,15.4-2.5c6.9-0.1,12.6,1.3,16.3,2.5c0-14.4,0-28.8,0-43.2
		c-3.7-1.3-9.6-2.9-17-2.8C-679.2-334.6-684.3-333.2-687.6-332z"/>
        <line class="st0" x1="-623.4" y1="-332.4" x2="-623.4" y2="-289.4"/>
        <line class="st0" x1="-624.4" y1="-332.4" x2="-624.4" y2="-289.4"/>
        <line class="st0" x1="-686.7" y1="-332.4" x2="-686.7" y2="-289.4"/>
</g>
    <path class="st1" d="M504.8,50.2c0,2-1.1,3.7-2.8,5.1c-0.3,0.3,2.3,3.8,1.9,4c-0.5,0.3-4-2.7-4.6-2.5c-1.7,0.7-3.6,1.1-5.7,1.1
	c-6.2,0-11.2-3.4-11.2-7.7s5-7.7,11.2-7.7C499.8,42.5,504.8,45.9,504.8,50.2z"/>
    <g>
	<path d="M542.1,15.1l-1.4-0.3c-3.7-0.9-9.9-2.3-10.5-2.3h-0.6c-0.9,0.1-1.8,0.1-3.4,0.2c-5.4,0.2-10.7-1.6-14.1-4.8
		c-2.1-2.2-3.3-4.6-3.3-7.2c0-6.6,7.8-12,17.4-12c9.6,0,17.4,5.4,17.4,12c0,3.9-1.6,5.9-4.2,7.8c0,0.7,1,3.3,2,5.4L542.1,15.1z
		 M530.2,11.1c0.8,0,6.2,1.3,9.5,2.1c-2.2-4.9-1.5-5.4-1.1-5.7c2.4-1.7,3.7-3.3,3.7-6.8c0-5.9-7.2-10.7-16.1-10.7
		c-8.9,0-16.1,4.8-16.1,10.7c0,2.2,1,4.4,2.9,6.2c3.1,3,8,4.6,13.2,4.5c1.6-0.1,2.4-0.1,3.3-0.2L530.2,11.1L530.2,11.1z"/>
</g>
    <g>
	<path class="st2" d="M526.3,2.9c-1,0-1.9-0.7-2.1-1.8l-1-6.5c-0.1-0.5,0.1-1.1,0.4-1.5s0.8-0.7,1.4-0.8c1.1-0.2,2.2,0.6,2.4,1.8
		l1,6.5c0.2,1.1-0.6,2.2-1.8,2.4C526.6,2.9,526.4,2.9,526.3,2.9z M525.4-6.8c-0.1,0-0.1,0-0.2,0c-0.3,0-0.6,0.2-0.8,0.5
		s-0.3,0.6-0.2,0.9l1,6.5c0.1,0.7,0.7,1.1,1.4,1l0,0c0.7-0.1,1.1-0.7,1-1.4l-1-6.5C526.5-6.4,526-6.8,525.4-6.8z"/>
</g>
    <g>
	<path class="st2" d="M527.1,7.9c-0.4,0-0.9-0.1-1.2-0.4c-0.9-0.7-1.1-2-0.4-2.9c0.3-0.4,0.8-0.7,1.4-0.8c0.6-0.1,1.1,0.1,1.5,0.4
		s0.7,0.8,0.8,1.4s-0.1,1.1-0.4,1.5l0,0c-0.3,0.4-0.8,0.7-1.4,0.8C527.3,7.9,527.2,7.9,527.1,7.9z M527.1,4.6c-0.1,0-0.1,0-0.2,0
		c-0.3,0-0.6,0.2-0.8,0.5c-0.4,0.5-0.3,1.3,0.2,1.7c0.3,0.2,0.6,0.3,0.9,0.2c0.3,0,0.6-0.2,0.8-0.5l0,0c0.2-0.3,0.3-0.6,0.2-0.9
		c0-0.3-0.2-0.6-0.5-0.8C527.6,4.7,527.3,4.6,527.1,4.6z"/>
</g>
    <path class="st1" d="M558.9,62.6c-0.1,2.1-1.4,3.8-3.3,5.2c-0.3,0.3,2.2,4.2,1.7,4.4c-0.6,0.3-4-3.2-4.7-3c-1.9,0.6-3.9,0.9-6.1,0.7
	c-6.6-0.5-11.6-4.4-11.3-9s5.9-7.8,12.5-7.3C554.3,54.1,559.2,58.1,558.9,62.6z"/>
    <path class="st3" d="M453.7,21c-0.1,1.5-1,2.8-2.4,3.8c-0.2,0.2,1.6,3,1.2,3.2s-2.9-2.3-3.4-2.2c-1.3,0.4-2.8,0.6-4.4,0.5
	c-4.7-0.3-8.4-3.2-8.2-6.5c0.2-3.3,4.2-5.6,9-5.3C450.3,14.8,453.9,17.7,453.7,21z"/>
    <path class="st0" d="M560.5,89.8c0,2.6-2.5,4.2-1.8,7.4c0.3,1.1,0.9,2.1,0.5,2.4s-1.7-0.8-3-1.5c-2.9-1.5-5.1-0.6-7.8-0.7
	c-5.1-0.3-11-4.4-11.1-8.6c-0.1-3.5,3.9-6.1,4.5-6.4c3.2-2,6.5-1.5,7.8-1.3C554.8,81.8,560.6,85.9,560.5,89.8z"/>
    <g>
	<path d="M520.7,98.7l-1.4-0.3c-3.7-0.9-9.9-2.3-10.5-2.3h-0.6c-0.9,0.1-1.8,0.1-3.4,0.2c-5.4,0.2-10.7-1.6-14.1-4.8
		c-2.1-2.2-3.3-4.6-3.3-7.2c0-6.6,7.8-12,17.4-12s17.4,5.4,17.4,12c0,3.9-1.6,5.9-4.2,7.8c0,0.7,1,3.3,2,5.4L520.7,98.7z
		 M508.8,94.7c0.8,0,6.2,1.3,9.5,2.1c-2.2-4.9-1.5-5.4-1.1-5.7c2.4-1.7,3.7-3.3,3.7-6.8c0-5.9-7.2-10.7-16.1-10.7
		s-16.1,4.8-16.1,10.7c0,2.2,1,4.4,2.9,6.2c3.1,3,8,4.6,13.2,4.5c1.6-0.1,2.4-0.1,3.3-0.2L508.8,94.7L508.8,94.7z"/>
</g>
    <g>
	<path class="st2" d="M520.1,68.9c0.7,0.1,1.2,0.8,1.2,2v6.6c0,0.5-0.2,1.1-0.4,1.5s-0.6,0.7-1,0.7c-0.8,0.1-1.4-0.8-1.4-2v-6.6
		c0-1.1,0.6-2.2,1.4-2.3C519.9,68.9,520.1,68.9,520.1,68.9z M519.7,78.8C519.8,78.8,519.8,78.8,519.7,78.8c0.3,0,0.5-0.2,0.7-0.5
		c0.2-0.3,0.3-0.6,0.2-0.9v-6.6c0-0.7-0.4-1.2-0.8-1.1l0,0c-0.5,0.1-0.8,0.6-0.8,1.3v6.6C519.1,78.3,519.3,78.7,519.7,78.8z"/>
</g>
    <g>
	<path class="st2" d="M520,64.3c0.3,0,0.6,0.1,0.8,0.4c0.5,0.7,0.6,1.8,0,2.6c-0.2,0.3-0.6,0.6-1,0.6s-0.7-0.2-1-0.5
		c-0.2-0.3-0.4-0.8-0.4-1.3s0.2-1,0.4-1.3l0,0c0.2-0.3,0.6-0.6,1-0.6C519.9,64.3,520,64.3,520,64.3z M519.7,67.2
		C519.8,67.2,519.8,67.2,519.7,67.2c0.3,0,0.5-0.1,0.7-0.4c0.3-0.4,0.3-1.1,0-1.5c-0.2-0.2-0.4-0.3-0.6-0.2c-0.2,0-0.4,0.1-0.6,0.4
		l0,0c-0.2,0.3-0.3,0.5-0.2,0.8c0,0.3,0.1,0.5,0.3,0.7C519.4,67.1,519.6,67.2,519.7,67.2z"/>
</g>
    <g>
	<path class="st3" d="M421.8,98.3l-0.8-0.2c-2.1-0.5-5.5-1.3-5.8-1.3h-0.3c-0.5,0.1-1,0.1-1.9,0.1c-3,0.1-5.9-0.9-7.8-2.7
		c-1.2-1.2-1.8-2.6-1.8-4c0-3.7,4.3-6.7,9.7-6.7c5.3,0,9.7,3,9.7,6.7c0,2.2-0.9,3.3-2.3,4.3c0,0.4,0.6,1.8,1.1,3L421.8,98.3z
		 M415.2,96.1c0.4,0,3.4,0.7,5.3,1.2c-1.2-2.7-0.8-3-0.6-3.2c1.3-0.9,2.1-1.8,2.1-3.8c0-3.3-4-5.9-8.9-5.9s-8.9,2.7-8.9,5.9
		c0,1.2,0.6,2.4,1.6,3.4c1.7,1.7,4.4,2.6,7.3,2.5c0.9-0.1,1.3-0.1,1.8-0.1H415.2L415.2,96.1z"/>
</g>
    <g>
	<path class="st2" d="M447.3,20.7c-1-0.3-1.7-1.3-1.6-2.5l0.9-7c0-0.5,0.4-1.1,0.9-1.4c0.4-0.3,1-0.5,1.7-0.4
		c1.2,0.1,2.1,1.3,1.9,2.6l-0.9,7c-0.1,1.2-1.3,2.1-2.6,1.9C447.6,20.8,447.4,20.8,447.3,20.7z M449.3,10.5c-0.1,0-0.1,0-0.2-0.1
		c-0.3-0.1-0.7,0-1,0.3c-0.3,0.2-0.5,0.5-0.5,0.9l-0.9,7c-0.1,0.7,0.4,1.3,1.1,1.4l0,0c0.7,0.1,1.3-0.4,1.4-1.1l0.9-7
		C450.3,11.2,449.9,10.7,449.3,10.5z"/>
</g>
    <g>
	<path class="st2" d="M446.7,26.1c-0.4-0.1-0.9-0.4-1.1-0.8c-0.7-1-0.5-2.4,0.5-3.1c0.4-0.3,1-0.5,1.7-0.4s1.1,0.4,1.4,0.9
		c0.3,0.4,0.5,1,0.4,1.7c-0.1,0.6-0.4,1.1-0.9,1.4l0,0c-0.4,0.3-1,0.5-1.7,0.4C446.9,26.2,446.8,26.2,446.7,26.1z M447.6,22.7
		c-0.1,0-0.1,0-0.2-0.1c-0.3-0.1-0.7,0-1,0.3c-0.6,0.4-0.7,1.2-0.3,1.8c0.2,0.3,0.5,0.5,0.9,0.5c0.3,0.1,0.7,0,1-0.3l0,0
		c0.3-0.2,0.5-0.5,0.5-0.9c0.1-0.3,0-0.7-0.3-1C448.1,23,447.9,22.8,447.6,22.7z"/>
</g>
    <g>
	<path d="M463.5,31.8l-1.4-0.3c-3.7-0.9-9.9-2.3-10.5-2.3H451c-0.9,0.1-1.8,0.1-3.4,0.2c-5.4,0.2-10.7-1.6-14.1-4.8
		c-2.1-2.2-3.3-4.6-3.3-7.2c0-6.6,7.8-12,17.4-12s17.4,5.4,17.4,12c0,3.9-1.6,5.9-4.2,7.8c0,0.7,1,3.3,2,5.4L463.5,31.8z
		 M451.6,27.8c0.8,0,6.2,1.3,9.5,2.1c-2.2-4.9-1.5-5.4-1.1-5.7c2.4-1.7,3.7-3.3,3.7-6.8c0-5.9-7.2-10.7-16.1-10.7
		s-16.1,4.8-16.1,10.7c0,2.2,1,4.4,2.9,6.2c3.1,3,8,4.6,13.2,4.5c1.6-0.1,2.4-0.1,3.3-0.2L451.6,27.8L451.6,27.8z"/>
</g>
    <path class="st0" d="M495.6,130c-1.2-0.6-2.4-1.4-3.2-2.6c-0.8-1.2-1.1-2.7-0.5-3.9c1-2.4,3.9-3,6.5-3.2c2.7-0.3,5.5-0.6,8.1,0.1
	s5.1,2.6,5.7,5.2c0.6,2.6-0.6,5.4-1.3,7.8c-0.9,2.8-0.7,3.1-3,1.6C503.9,132.4,499.8,131.9,495.6,130z"/>
    <path class="st0" d="M488.8,7.3c-0.4-0.1-1.7-0.6-2.9-1.7c-0.6-0.6-1.3-1.2-1.4-2.2c-0.1-0.9,0.3-1.8,0.8-2.5c0.6-0.7,1.3-1.1,2-1.5
	c0.6-0.3,1.2-0.5,1.9-0.8c1.1-0.3,2.9-0.9,5.1-0.7c1.2,0.1,1.9,0.2,2.7,0.6c0.8,0.5,1.5,1.3,1.7,2.3c0.2,1.1-0.2,2.1-0.7,3.1
	c-0.4,1-1,1.9-1,3c0,0.9,0.4,1.8,1.2,2.3C497.4,9.2,492.3,8.5,488.8,7.3z"/>
    <path class="st1" d="M-350.7,4.4c-0.1,1.1-0.8,2-1.9,2.7c-0.2,0.1,0.9,1.5,0.9,1.5s-2.2-0.8-2.6-0.7c-1,0.3-2.2,0.5-3.4,0.4
	c-3.7-0.2-6.6-2.3-6.4-4.6s3.4-4.1,7-3.8C-353.4,0-350.5,2.1-350.7,4.4z"/>
    <g>
	<path class="st4" d="M-358.6,4.8c-1.1-0.2-1.8-1.1-1.7-2.3l0.4-7.1c0-0.6,0.4-1.2,0.7-1.5c0.4-0.3,1-0.5,1.7-0.6
		c1.2,0.1,2.2,1.1,2.1,2.4l-0.4,7.1c-0.1,1.2-1.1,2.2-2.4,2.1C-358.3,4.8-358.5,4.8-358.6,4.8z M-357.4-5.6c-0.1,0-0.1,0-0.2,0
		c-0.3-0.1-0.6,0.1-1,0.3c-0.3,0.3-0.4,0.5-0.4,0.9l-0.4,7.1c-0.1,0.7,0.4,1.3,1.2,1.4l0,0c0.7,0.1,1.3-0.4,1.4-1.2l0.4-7.1
		C-356.3-5-356.7-5.5-357.4-5.6z"/>
</g>
    <g>
	<path class="st4" d="M-359,10.1c-0.4-0.1-1-0.3-1.2-0.7c-0.8-0.9-0.7-2.3,0.3-3.1c0.4-0.3,1-0.5,1.7-0.6c0.6,0,1.2,0.4,1.5,0.7
		c0.3,0.4,0.5,1,0.6,1.7c0,0.6-0.4,1.2-0.7,1.5l0,0c-0.4,0.3-1,0.5-1.7,0.6C-358.7,10.2-358.9,10.1-359,10.1z M-358.2,6.7
		c-0.1,0-0.1,0-0.2,0c-0.3-0.1-0.6,0.1-1,0.3c-0.5,0.4-0.6,1.3-0.2,1.8c0.3,0.3,0.5,0.4,0.9,0.4c0.3,0.1,0.6-0.1,1-0.3l0,0
		c0.3-0.3,0.4-0.5,0.4-0.9c0.1-0.3-0.1-0.6-0.3-1C-357.7,6.9-357.9,6.8-358.2,6.7z"/>
</g>
    <g>
	<path d="M-342.7,15.7l-1.3-0.3c-3.7-0.9-9.9-2.3-10.5-2.3h-0.6c-0.9,0.1-1.8,0.1-3.4,0.2c-5.4,0.2-10.7-1.6-14.1-4.8
		c-2.1-2.2-3.3-4.6-3.3-7.2c0-6.6,7.8-12,17.4-12s17.4,5.4,17.4,12c0,3.9-1.6,5.9-4.2,7.8c0,0.7,1,3.3,2,5.4L-342.7,15.7z
		 M-354.5,11.7c0.8,0,6.2,1.3,9.5,2.1c-2.2-4.9-1.5-5.4-1.1-5.7c2.4-1.7,3.7-3.3,3.7-6.8c0-5.9-7.2-10.7-16.1-10.7
		s-16.1,4.8-16.1,10.7c0,2.2,1,4.4,2.9,6.2c3.1,3,8,4.6,13.2,4.5c1.6-0.1,2.4-0.1,3.3-0.2L-354.5,11.7L-354.5,11.7z"/>
</g>
    <g>
	<g>
		<path d="M508.8,4.6c-21.9,0-39.6-17.8-39.6-39.6c0-21.9,17.8-39.6,39.6-39.6s39.6,17.8,39.6,39.6S530.6,4.6,508.8,4.6z
			 M508.8-73.9c-21.5,0-38.9,17.4-38.9,38.9c0,21.4,17.5,38.9,38.9,38.9c21.4,0,38.9-17.5,38.9-38.9
			C547.7-56.5,530.2-73.9,508.8-73.9z"/>
	</g>
</g>
    <g>
	<path d="M-332-162.2c-14.6,0-26.5-11.9-26.5-26.5s11.9-26.5,26.5-26.5s26.5,11.9,26.5,26.5c0,2.9-0.8,5.6-1.6,8.2
		c-0.3,0.9-0.5,1.8-0.8,2.7c-1,3.8,0.6,13.8,0.6,13.9l0.1,0.5h-0.5c-0.1,0-6.6-0.5-9.3-0.1C-320.2-163.2-328.6-162.2-332-162.2z
		 M-332-214.5c-14.2,0-25.8,11.6-25.8,25.8s11.6,25.8,25.8,25.8c3.3,0,11.6-0.9,15-1.5c2.4-0.4,7.4-0.1,9,0
		c-0.3-2.1-1.4-10.1-0.5-13.7c0.2-0.9,0.5-1.8,0.8-2.7c0.8-2.5,1.5-5.2,1.5-8C-306.3-202.9-317.8-214.5-332-214.5z"/>
</g>
    <ellipse transform="matrix(0.3162 -0.9487 0.9487 0.3162 525.3898 377.0388)" class="st5" cx="524.2" cy="-175.9" rx="39.3" ry="39.3"/>
    <path class="st6" d="M550.3-175.9c0,3.8-1.4,7.3-2.3,10.8c-1,4,0.6,14,0.6,14s-6.6-0.5-9.4-0.1c-3.2,0.5-11.6,1.5-15,1.5
	c-14.4,0-26.1-11.7-26.1-26.1s11.7-26.1,26.1-26.1C538.6-202,550.3-190.3,550.3-175.9z"/>
    <g>
	<path class="st6" d="M522.2-184.6h4c0.6,0,1,0.5,1,1v25.4c0,0.6-0.5,1-1,1h-4c-0.6,0-1-0.5-1-1v-25.4
		C521.2-184.1,521.6-184.6,522.2-184.6z"/>
        <circle class="st6" cx="524.2" cy="-191.6" r="3"/>
</g>
    <g>
	<g>
		<g>
			<g>
				<path class="st2" d="M233.7-341.8c-2.2,0-4-1.8-4-4v-21.4c0-2.2,1.8-4,4-4s4,1.8,4,4v21.5C237.6-343.6,235.9-341.8,233.7-341.8z
					 M233.7-369.2c-1.1,0-2,0.9-2,2v21.5c0,1.1,0.9,2,2,2c1.1,0,2-0.9,2-2v-21.5C235.6-368.3,234.8-369.2,233.7-369.2z"/>
			</g>
		</g>
	</g>
        <g>
		<g>
			<g>
				<path class="st2" d="M233.7-373.3c-2.2,0-4-1.8-4-4s1.8-4,4-4s4,1.8,4,4C237.6-375.1,235.9-373.3,233.7-373.3z M233.7-379.2
					c-1.1,0-2,0.9-2,2s0.9,2,2,2c1.1,0,2-0.9,2-2S234.8-379.2,233.7-379.2z"/>
			</g>
		</g>
	</g>
</g>
    <g>
	<g>
		<path class="st3" d="M233.7-335.1c-14.6,0-26.4-11.8-26.4-26.4c0-14.6,11.8-26.4,26.4-26.4s26.4,11.8,26.4,26.4
			c0,2.9-0.8,5.6-1.6,8.2c-0.3,0.9-0.5,1.8-0.8,2.7c-1,3.9,0.6,13.8,0.6,13.9v0.3H258c-0.1,0-6.6-0.5-9.3-0.1
			C245.3-336.1,237-335.1,233.7-335.1z M233.7-387.4c-14.3,0-25.9,11.6-25.9,25.9c0,14.3,11.6,25.9,25.9,25.9c3.3,0,11.6-0.9,15-1.5
			c2.5-0.4,7.8,0,9.1,0.1c-0.3-1.8-1.5-10.2-0.5-13.8c0.2-0.9,0.5-1.8,0.8-2.7c0.8-2.6,1.5-5.2,1.5-8
			C259.6-375.8,247.9-387.4,233.7-387.4z"/>
	</g>
</g>
    <g>
	<path class="st3" d="M261-321.7h-54.6c-6.9,0-12.5-5.6-12.5-12.5v-54.6c0-6.9,5.6-12.5,12.5-12.5H261c6.9,0,12.5,5.6,12.5,12.5
		v54.6C273.5-327.3,267.9-321.7,261-321.7z M206.4-400.3c-6.4,0-11.5,5.2-11.5,11.5v54.6c0,6.3,5.2,11.5,11.5,11.5H261
		c6.3,0,11.5-5.2,11.5-11.5v-54.6c0-6.3-5.2-11.5-11.5-11.5C261-400.3,206.4-400.3,206.4-400.3z"/>
</g>
    <g>
	<g>
		<g>
			<g>
				<path class="st2" d="M-655-287.2c-3.1,0-5.5-2.6-5.5-5.8v-31.1c0-3.2,2.5-5.8,5.5-5.8c3.1,0,5.5,2.6,5.5,5.8v31.3
					C-649.6-289.8-652-287.2-655-287.2z M-655-327.1c-1.5,0-2.8,1.3-2.8,2.9v31.3c0,1.6,1.2,2.9,2.8,2.9c1.5,0,2.8-1.3,2.8-2.9
					v-31.3C-652.4-325.8-653.5-327.1-655-327.1z"/>
			</g>
		</g>
	</g>
        <g>
		<g>
			<g>
				<path class="st2" d="M-655-333c-3.1,0-5.5-2.6-5.5-5.8c0-3.2,2.5-5.8,5.5-5.8c3.1,0,5.5,2.6,5.5,5.8
					C-649.6-335.6-652-333-655-333z M-655-341.6c-1.5,0-2.8,1.3-2.8,2.9c0,1.6,1.2,2.9,2.8,2.9c1.5,0,2.8-1.3,2.8-2.9
					C-652.2-340.3-653.5-341.6-655-341.6z"/>
			</g>
		</g>
	</g>
</g>
    <path class="st7" d="M-806.8-247.2c1.5,0,2.8-1.3,2.8-2.9c0-1.6-1.2-2.9-2.8-2.9c-1.5,0-2.8,1.3-2.8,2.9
	C-809.6-248.5-808.4-247.2-806.8-247.2z"/>
    <path class="st7" d="M-749.5-254.8c0,12.2,0,24.5,0,36.7c0.3,0.1,0.6,0.2,1,0.2s0.7-0.1,1-0.2c0-12.2,0-24.5,0-36.7
	c-0.3-0.1-0.6-0.2-1-0.2C-748.8-255-749.2-254.9-749.5-254.8z"/>
    <path class="st0" d="M-894.5-155.6v-31.3c-0.1-1.2-0.8-2.3-1.8-2.7c0,12.2,0,24.5,0,36.7C-895.2-153.3-894.5-154.4-894.5-155.6z"/>
    <path class="st0" d="M-709.4-263c-0.3-0.1-0.7-0.2-1-0.3v42.9v-42.9c-3.7-1.2-9.2-2.6-16-2.4c-6.2,0.2-11.3,1.5-14.7,2.8
	c0,0.7,0,1.4,0,2.1c2.6,0.5,4.6,2.9,4.6,5.7v31.3c0,1.1-0.4,2.1-0.9,3c3.2-0.8,7.2-1.4,11.7-1.5c5.8-0.1,10.7,0.9,14.3,1.9v-42.9
	v42.9c0.7,0.2,1.4,0.4,2,0.6C-709.4-234.3-709.4-248.6-709.4-263z"/>
    <path class="st0" d="M-243.8,76.4v31.3c0,1.2,0.7,2.3,1.8,2.7c0-12.2,0-24.5,0-36.7C-243,74.1-243.8,75.2-243.8,76.4z"/>
    <g>
	<path class="st0" d="M-831.7-175.3c3.6-1.2,8.9-2.5,15.4-2.5c6.9-0.1,12.6,1.3,16.3,2.5c0-0.3,0-0.7,0-1c-3.7-1.2-9.4-2.6-16.3-2.5
		c-5.1,0-9.4,0.8-12.8,1.7c-0.7,0.7-1.6,1.1-2.6,1.3C-831.7-175.6-831.7-175.4-831.7-175.3z"/>
        <path class="st0" d="M-800.1-220.4c-0.3-0.1-0.7-0.2-1-0.3v42.9v-42.9c-3.7-1.2-9.2-2.6-16-2.4c-6.2,0.2-11.3,1.5-14.7,2.8
		c0,0.7,0,1.4,0,2.1c2.6,0.5,4.6,2.9,4.6,5.7v31.3c0,1.1-0.4,2.1-0.9,3c3.2-0.8,7.2-1.4,11.7-1.5c5.8-0.1,10.7,0.9,14.3,1.9v-42.9
		v42.9c0.7,0.2,1.4,0.4,2,0.6C-800.1-191.7-800.1-206.1-800.1-220.4z"/>
        <path class="st0" d="M-850-178.8c-6.5,0.1-11.8,1.3-15.4,2.5c0,0.3,0,0.7,0,1c3.6-1.2,8.9-2.5,15.4-2.5c6.9-0.1,12.6,1.3,16.3,2.5
		c0-0.1,0-0.3,0-0.4c-1-0.2-1.9-0.7-2.6-1.3C-839.9-178-844.6-178.8-850-178.8z"/>
        <path class="st0" d="M-838.3-212.6c0-2.8,2-5.2,4.6-5.7c0-0.7,0-1.4,0-2.1c-3.7-1.3-9.6-2.9-17-2.8c-5.7,0.1-10.3,1.3-13.7,2.4
		v42.9v-42.9c-0.3,0.1-0.7,0.2-1,0.3c0,14.4,0,28.8,0,43.2c3.6-1.2,8.9-2.5,15.4-2.5c4.9,0,9.2,0.6,12.6,1.5c-0.6-0.9-0.9-2-0.9-3.1
		V-212.6z"/>
        <path class="st2" d="M-831.7-178.6c-0.3,0.1-0.6,0.2-1,0.2s-0.7-0.1-1-0.2c0,0.4,0,0.9,0,1.3c-1.1-0.3-2.3-0.7-3.7-1
		c0.3,0.5,0.6,0.9,1,1.3c1,0.3,1.8,0.5,2.6,0.8c0,0.2,0,0.4,0,0.6c0.3,0.1,0.7,0.1,1,0.1c0.3,0,0.7,0,1-0.1c0-0.2,0-0.4,0-0.6
		c0.8-0.3,1.7-0.5,2.6-0.8c0.4-0.4,0.8-0.8,1-1.3c-1.3,0.3-2.6,0.7-3.6,1C-831.7-177.7-831.7-178.2-831.7-178.6z"/>
        <path class="st2" d="M-832.7-215.5c0.4,0,0.7,0.1,1,0.2c0-1,0-2,0-3c-0.3-0.1-0.7-0.1-1-0.1s-0.7,0-1,0.1c0,1,0,2,0,3
		C-833.4-215.4-833.1-215.5-832.7-215.5z"/>
        <path class="st2" d="M-831.7-175.7c1-0.2,1.9-0.7,2.6-1.3c-0.9,0.3-1.8,0.5-2.6,0.8C-831.7-176.1-831.7-175.9-831.7-175.7z"/>
        <path class="st2" d="M-827.2-212.6c0-2.8-2-5.2-4.6-5.7c0,1,0,2,0,3c1,0.4,1.7,1.5,1.8,2.7v31.3c0,1.2-0.7,2.3-1.8,2.7
		c0,0.4,0,0.9,0,1.3c1.1-0.3,2.3-0.7,3.6-1c0.5-0.9,0.9-1.9,0.9-3V-212.6z"/>
        <path class="st2" d="M-836.4-177.1c0.7,0.7,1.6,1.1,2.6,1.3c0-0.2,0-0.4,0-0.6C-834.5-176.5-835.4-176.8-836.4-177.1z"/>
        <path class="st2" d="M-833.7-178.6c-1-0.4-1.8-1.5-1.8-2.7v-31.3c0-1.2,0.7-2.3,1.8-2.7c0-1,0-2,0-3c-2.6,0.5-4.6,2.9-4.6,5.7v31.1
		c0,1.1,0.3,2.2,0.9,3.1c1.4,0.3,2.6,0.7,3.7,1C-833.7-177.7-833.7-178.2-833.7-178.6z"/>
        <path class="st2" d="M-832.7-221.5c3.1,0,5.4-2.6,5.5-5.8c0-3.2-2.5-5.8-5.5-5.8s-5.5,2.6-5.5,5.8
		C-838.3-224.1-835.8-221.5-832.7-221.5z M-832.7-230c1.5,0,2.8,1.3,2.8,2.9c0,1.6-1.2,2.9-2.8,2.9c-1.5,0-2.8-1.3-2.8-2.9
		C-835.5-228.7-834.3-230-832.7-230z"/>
</g>
    <path class="st2" d="M-864.4-288.9c3.6-1.2,8.9-2.5,15.4-2.5c6.9-0.1,12.6,1.3,16.3,2.5c0-0.3,0-0.7,0-1c-3.7-1.2-9.4-2.6-16.3-2.5
	c-5.1,0-9.4,0.8-12.8,1.7c-0.7,0.7-1.6,1.1-2.6,1.3C-864.4-289.2-864.4-289.1-864.4-288.9z"/>
    <path class="st2" d="M-862.6-295v-31.3c-0.1-1.2-0.8-2.3-1.8-2.7c0,12.2,0,24.5,0,36.7C-863.3-292.7-862.6-293.7-862.6-295z"/>
    <path class="st2" d="M-832.7-334.1c-3.7-1.3-9.6-2.9-17-2.8c-6.2,0.2-11.3,1.5-14.7,2.8c0,0.7,0,1.4,0,2.1c2.6,0.5,4.6,2.9,4.6,5.7
	v31.3c0,1.1-0.4,2.1-0.9,3c3.2-0.8,7.2-1.4,11.7-1.5c6.9-0.1,12.6,1.3,16.3,2.5C-832.7-305.3-832.7-319.7-832.7-334.1z"/>
    <path class="st2" d="M-882.7-292.5c-6.5,0.1-11.8,1.3-15.4,2.5c0,0.3,0,0.7,0,1c3.6-1.2,8.9-2.5,15.4-2.5c6.9-0.1,12.6,1.3,16.3,2.5
	c0-0.1,0-0.3,0-0.4c-1-0.2-1.9-0.7-2.6-1.3C-872.6-291.7-877.2-292.5-882.7-292.5z"/>
    <path class="st2" d="M-868.2-326.2v31.3c0,1.2,0.7,2.3,1.8,2.7c0-12.2,0-24.5,0-36.7C-867.4-328.5-868.2-327.5-868.2-326.2z"/>
    <path class="st2" d="M-870.9-326.2c0-2.8,2-5.2,4.6-5.7c0-0.7,0-1.4,0-2.1c-3.7-1.3-9.6-2.9-17-2.8c-6.2,0.2-11.3,1.5-14.7,2.8
	c0,14.4,0,28.8,0,43.2c3.6-1.2,8.9-2.5,15.4-2.5c4.9,0,9.2,0.6,12.6,1.5c-0.6-0.9-0.9-2-0.9-3.1V-326.2z"/>
    <path class="st2" d="M-865.4-329.2c0.4,0,0.7,0.1,1,0.2c0-1,0-2,0-3c-0.3-0.1-0.7-0.1-1-0.1c-0.3,0-0.7,0-1,0.1c0,1,0,2,0,3
	C-866.1-329.1-865.7-329.2-865.4-329.2z"/>
    <path class="st2" d="M-864.4-292.3c-0.3,0.1-0.6,0.2-1,0.2s-0.7-0.1-1-0.2c0,0.4,0,0.9,0,1.3c-1.1-0.3-2.3-0.7-3.7-1
	c0.3,0.5,0.6,0.9,1,1.3c1,0.3,1.8,0.5,2.6,0.8c0,0.2,0,0.4,0,0.6c0.3,0.1,0.7,0.1,1,0.1c0.3,0,0.7,0,1-0.1c0-0.2,0-0.4,0-0.6
	c0.8-0.3,1.7-0.5,2.6-0.8c0.4-0.4,0.8-0.8,1-1.3c-1.3,0.3-2.6,0.7-3.6,1C-864.4-291.4-864.4-291.8-864.4-292.3z"/>
    <path class="st2" d="M-865.4-335.1c3.1,0,5.4-2.6,5.5-5.8c0-3.2-2.5-5.8-5.5-5.8c-3.1,0-5.5,2.6-5.5,5.8S-868.4-335.1-865.4-335.1z
	 M-865.4-343.7c1.5,0,2.8,1.3,2.8,2.9s-1.2,2.9-2.8,2.9c-1.5,0-2.8-1.3-2.8-2.9S-866.9-343.7-865.4-343.7z"/>
    <g>
	<g>
		<path class="st3" d="M-552.8-281.1c-16.4,0-29.7-13.3-29.7-29.7c0-16.4,13.3-29.7,29.7-29.7s29.7,13.3,29.7,29.7
			c0,3.3-0.9,6.3-1.8,9.2c-0.3,1-0.6,2-0.9,3c-1.1,4.4,0.7,15.5,0.7,15.7v0.3h-0.3c-0.1,0-7.4-0.6-10.5-0.1
			C-539.8-282.2-549.1-281.1-552.8-281.1z M-552.8-340c-16.1,0-29.2,13.1-29.2,29.2c0,16.1,13.1,29.2,29.2,29.2
			c3.7,0,13.1-1,16.9-1.7c2.8-0.5,8.8,0,10.3,0.1c-0.3-2-1.7-11.5-0.6-15.5c0.2-1,0.6-2,0.9-3c0.9-2.9,1.7-5.9,1.7-9
			C-523.7-326.9-536.8-340-552.8-340z"/>
	</g>
</g>
    <g>
	<path class="st3" d="M-339.3-259.1h-70.7c-8.9,0-16.2-5.5-16.2-12.3v-53.8c0-6.8,7.2-12.3,16.2-12.3h70.7c8.9,0,16.2,5.5,16.2,12.3
		v53.8C-323.1-264.6-330.3-259.1-339.3-259.1z M-409.9-336.6c-8.3,0-14.9,5.1-14.9,11.3v53.8c0,6.2,6.7,11.3,14.9,11.3h70.7
		c8.2,0,14.9-5.1,14.9-11.3v-53.8c0-6.2-6.7-11.3-14.9-11.3C-339.3-336.6-409.9-336.6-409.9-336.6z"/>
</g>
    <path class="st8" d="M-615.5-270.5h-79c-6.6,0-12-5.4-12-12V-337c0-6.6,5.4-12,12-12h79c6.6,0,12,5.4,12,12v54.5
	C-603.5-275.9-608.9-270.5-615.5-270.5z"/>
    <path class="st0" d="M-518.2,224.4c0,0.3,0,0.7,0,1c3.6-1.2,8.9-2.5,15.4-2.5c6.9-0.1,12.6,1.3,16.3,2.5c0-0.3,0-0.7,0-1
	c-3.7-1.2-9.4-2.6-16.3-2.5C-509.4,221.9-514.6,223.2-518.2,224.4z"/>
    <path class="st0" d="M-619.2,178.2c0,0.3,0,0.7,0,1c3.6-1.2,8.9-2.5,15.4-2.5c6.9-0.1,12.6,1.3,16.3,2.5c0-0.3,0-0.7,0-1
	c-3.7-1.2-9.4-2.6-16.3-2.5C-610.3,175.8-615.6,177-619.2,178.2z"/>
    <path class="st0" d="M-518.2,180.2c0,14.4,0,28.8,0,43.2c3.6-1.2,8.9-2.5,15.4-2.5c6.9-0.1,12.6,1.3,16.3,2.5c0-14.4,0-28.8,0-43.2
	c-3.7-1.3-9.6-2.9-17-2.8C-509.8,177.6-514.9,179-518.2,180.2z"/>
    <path class="st0" d="M-551.9,224.4c0,0.3,0,0.7,0,1c3.6-1.2,8.9-2.5,15.4-2.5c6.9-0.1,12.6,1.3,16.3,2.5c0-0.3,0-0.7,0-1
	c-3.7-1.2-9.4-2.6-16.3-2.5C-543,221.9-548.3,223.2-551.9,224.4z"/>
    <path class="st0" d="M-551.9,180.2c0,14.4,0,28.8,0,43.2c3.6-1.2,8.9-2.5,15.4-2.5c6.9-0.1,12.6,1.3,16.3,2.5c0-14.4,0-28.8,0-43.2
	c-3.7-1.3-9.6-2.9-17-2.8C-543.4,177.6-548.5,179-551.9,180.2z"/>
    <line class="st0" x1="-487.6" y1="179.9" x2="-487.6" y2="222.8"/>
    <line class="st0" x1="-488.6" y1="179.9" x2="-488.6" y2="222.8"/>
    <line class="st0" x1="-550.9" y1="179.9" x2="-550.9" y2="222.8"/>
    <g>
	<g>
		<g>
			<g>
				<path class="st2" d="M-295.8,217.3c-3.1,0-5.5-2.6-5.5-5.8v-31.1c0-3.2,2.5-5.8,5.5-5.8c3.1,0,5.5,2.6,5.5,5.8v31.3
					C-290.4,214.7-292.8,217.3-295.8,217.3z M-295.8,177.5c-1.5,0-2.8,1.3-2.8,2.9v31.3c0,1.6,1.2,2.9,2.8,2.9
					c1.5,0,2.8-1.3,2.8-2.9v-31.3C-293.2,178.8-294.3,177.5-295.8,177.5z"/>
			</g>
		</g>
	</g>
        <g>
		<g>
			<g>
				<path class="st2" d="M-295.8,171.5c-3.1,0-5.5-2.6-5.5-5.8s2.5-5.8,5.5-5.8c3.1,0,5.5,2.6,5.5,5.8
					C-290.4,168.9-292.8,171.5-295.8,171.5z M-295.8,162.9c-1.5,0-2.8,1.3-2.8,2.9c0,1.6,1.2,2.9,2.8,2.9c1.5,0,2.8-1.3,2.8-2.9
					C-293.1,164.2-294.3,162.9-295.8,162.9z"/>
			</g>
		</g>
	</g>
</g>
    <g>
	<path class="st0" d="M-705.3-53.9c0,0.3,0,0.7,0,1c3.6-1.2,8.9-2.5,15.4-2.5c6.9-0.1,12.6,1.3,16.3,2.5c0-0.3,0-0.7,0-1
		c-3.7-1.2-9.4-2.6-16.3-2.5C-696.4-56.4-701.7-55.1-705.3-53.9z"/>
        <path class="st0" d="M-705.3-98.1c0,14.4,0,28.8,0,43.2c3.6-1.2,8.9-2.5,15.4-2.5c6.9-0.1,12.6,1.3,16.3,2.5c0-14.4,0-28.8,0-43.2
		c-3.7-1.3-9.6-2.9-17-2.8C-696.8-100.7-701.9-99.3-705.3-98.1z"/>
        <path class="st0" d="M-738.9-53.9c0,0.3,0,0.7,0,1c3.6-1.2,8.9-2.5,15.4-2.5c6.9-0.1,12.6,1.3,16.3,2.5c0-0.3,0-0.7,0-1
		c-3.7-1.2-9.4-2.6-16.3-2.5C-730-56.4-735.3-55.1-738.9-53.9z"/>
        <path class="st0" d="M-738.9-98.1c0,14.4,0,28.8,0,43.2c3.6-1.2,8.9-2.5,15.4-2.5c6.9-0.1,12.6,1.3,16.3,2.5c0-14.4,0-28.8,0-43.2
		c-3.7-1.3-9.6-2.9-17-2.8C-730.5-100.7-735.5-99.3-738.9-98.1z"/>
        <line class="st0" x1="-674.6" y1="-98.4" x2="-674.6" y2="-55.5"/>
        <line class="st0" x1="-675.6" y1="-98.4" x2="-675.6" y2="-55.5"/>
        <line class="st0" x1="-737.9" y1="-98.4" x2="-737.9" y2="-55.5"/>
</g>
    <g>
	<g>
		<g>
			<g>
				<path class="st2" d="M-706.3-53.3c-3.1,0-5.5-2.6-5.5-5.8v-31.1c0-3.2,2.5-5.8,5.5-5.8s5.5,2.6,5.5,5.8V-59
					C-700.9-55.9-703.2-53.3-706.3-53.3z M-706.3-93.2c-1.5,0-2.8,1.3-2.8,2.9V-59c0,1.6,1.2,2.9,2.8,2.9s2.8-1.3,2.8-2.9v-31.3
					C-703.6-91.8-704.7-93.2-706.3-93.2z"/>
			</g>
		</g>
	</g>
        <g>
		<g>
			<g>
				<path class="st2" d="M-706.3-99.1c-3.1,0-5.5-2.6-5.5-5.8c0-3.2,2.5-5.8,5.5-5.8s5.5,2.6,5.5,5.8
					C-700.9-101.7-703.2-99.1-706.3-99.1z M-706.3-107.7c-1.5,0-2.8,1.3-2.8,2.9s1.2,2.9,2.8,2.9s2.8-1.3,2.8-2.9
					S-704.7-107.7-706.3-107.7z"/>
			</g>
		</g>
	</g>
</g>
    <path class="st8" d="M-653.7,295.8h-79c-6.6,0-12-5.4-12-12v-54.5c0-6.6,5.4-12,12-12h79c6.6,0,12,5.4,12,12v54.5
	C-641.7,290.4-647.1,295.8-653.7,295.8z"/>
    <path class="st8" d="M-796.9,111.1l-44.4,6.6c-6.6,0-12-5.4-12-12V51.2c0-6.6,5.4-12,12-12h79c6.6,0,12,5.4,12,12l-4.1,21.1
	c-1.8,9.5-3.6,9.7-2,19.2c1.1,6.2,2.3,22.9,2.3,22.9s-1.2,0.4-2.2,0.1C-769.5,110.5-783.3,109.1-796.9,111.1z"/>
    <g>
	<g>
		<path class="st3" d="M-519.2,92.8c-10.7,0-19.4-9.9-19.4-22.2s8.7-22.2,19.4-22.2c10.7,0,19.4,9.9,19.4,22.2
			c0,2.4-0.6,4.7-1.2,6.9c-0.2,0.8-0.4,1.5-0.6,2.3c-0.7,3.3,0.4,11.6,0.4,11.7v0.3h-0.2c-0.1,0-4.8-0.4-6.8-0.1
			C-510.7,92-516.8,92.8-519.2,92.8z M-519.2,48.8c-10.5,0-19,9.8-19,21.8s8.5,21.8,19,21.8c2.4,0,8.5-0.8,11-1.3
			c1.8-0.3,5.7,0,6.7,0.1c-0.2-1.5-1.1-8.6-0.4-11.6c0.1-0.8,0.4-1.5,0.6-2.3c0.6-2.2,1.1-4.4,1.1-6.7
			C-500.3,58.5-508.8,48.8-519.2,48.8z"/>
	</g>
</g>
    <path class="st0" d="M-619.2,52.1c0,23.6,0,47.1,0,70.7c5.7-1.9,14-4,24.2-4.1c10.9-0.1,19.8,2.1,25.7,4.1c0-23.6,0-47.1,0-70.7
	c-5.8-2.2-15.1-4.8-26.8-4.5C-605.9,47.8-613.8,50.1-619.2,52.1z"/>
    <path class="st0" d="M-898,356.7c0,0.5,0,1.1,0,1.6c5.7-1.9,14-4,24.2-4.1c10.9-0.1,19.8,2.1,25.7,4.1c0-0.5,0-1.1,0-1.6
	c-5.9-2-14.8-4.2-25.7-4.1C-884,352.7-892.3,354.8-898,356.7z"/>
    <path class="st0" d="M-907.4,227.9c0,23.6,0,47.1,0,70.7c5.7-1.9,14-4,24.2-4.1c10.9-0.1,19.8,2.1,25.7,4.1c0-23.6,0-47.1,0-70.7
	c-5.8-2.2-15.1-4.8-26.8-4.5C-894.1,223.7-902.1,225.9-907.4,227.9z"/>
    <path class="st0" d="M-648.1,118.7c1,0,1.9-0.1,2.9-0.1c10.9-0.1,19.8,2.1,25.7,4.1c0-23.6,0-47.1,0-70.7
	c-5.8-2.2-15.1-4.8-26.8-4.5c-9.8,0.3-17.8,2.5-23.2,4.5c0,10.7,0,21.4,0,32.2"/>
    <path class="st0" d="M-291.2,284.8c-5.8-2.2-15.1-4.8-26.8-4.5c-9.8,0.3-17.8,2.5-23.2,4.5c0,8.9,0,17.8,0,26.7
	c11.2-0.1,20.1,2.4,25.7,4.5c0,11.8,0,23.6,0,35.4c10.3,0.1,18.6,2.2,24.2,4.1C-291.2,331.9-291.2,308.3-291.2,284.8z"/>
    <path class="st0" d="M-388.8,308.2c0-14.7,0-29.3,0-44c-0.4,0-0.7,0-1.1,0c-9.8,0.3-17.8,2.5-23.2,4.5c0,23.6,0,47.1,0,70.7
	c5.7-1.9,14-4,24.2-4.1c10.9-0.1,19.8,2.1,25.7,4.1c0-11.8,0-23.5,0-35.3c-0.5,0-1,0-1.5,0C-374.7,304.2-383.1,306.3-388.8,308.2z"
    />
    <path class="st0" d="M-538.2,295.8c0,14.7,0,29.3,0,44c5.7-1.9,14-4,24.2-4.1c0.5,0,1,0,1.5,0c0-11.8,0-23.6,0-35.4
	C-518.1,298.3-527.1,295.7-538.2,295.8z"/>
    <line class="st0" x1="-570.8" y1="51.5" x2="-570.8" y2="121.8"/>
    <line class="st0" x1="-572.4" y1="51.5" x2="-572.4" y2="121.8"/>
    <line class="st0" x1="-817.8" y1="170" x2="-817.8" y2="240.3"/>
    <g>
	<g>
		<g>
			<g>
				<path class="st2" d="M-658.8,119.4c-3.2,0-5.9-2.7-5.9-6.1V80.6c0-3.4,2.6-6.1,5.9-6.1s5.9,2.7,5.9,6.1v32.8
					C-653.1,116.6-655.6,119.4-658.8,119.4z M-658.8,77.6c-1.6,0-2.9,1.4-2.9,3.1v32.8c0,1.7,1.3,3.1,2.9,3.1s2.9-1.4,2.9-3.1V80.6
					C-656,78.9-657.2,77.6-658.8,77.6z"/>
			</g>
		</g>
	</g>
        <g>
		<g>
			<g>
				<path class="st2" d="M-658.8,71.3c-3.2,0-5.9-2.7-5.9-6.1s2.6-6.1,5.9-6.1s5.9,2.7,5.9,6.1C-653.1,68.5-655.6,71.3-658.8,71.3z
					 M-658.8,62.3c-1.6,0-2.9,1.4-2.9,3.1s1.3,3.1,2.9,3.1s2.9-1.4,2.9-3.1S-657.2,62.3-658.8,62.3z"/>
			</g>
		</g>
	</g>
</g>
    <path class="st9" d="M-508.5,11.6c-7.1,0.2-12.9,1.8-16.7,3.3c0,0.4,0,0.8,0,1.2c3.9-1.4,9.6-3.1,16.7-3.3
	c8.4-0.2,15.2,1.7,19.3,3.3c0-0.4,0-0.8,0-1.2C-493.4,13.3-500.1,11.4-508.5,11.6z"/>
    <path class="st9" d="M-551.5,25.5c-7.1,0.2-12.9,1.8-16.7,3.3c0,0.4,0,0.8,0,1.2c3.9-1.4,9.6-3.1,16.7-3.3
	c8.4-0.2,15.2,1.7,19.3,3.3c0-0.4,0-0.8,0-1.2C-536.4,27.2-543.1,25.3-551.5,25.5z"/>
    <path class="st9" d="M-541.5,36.2c-7.1,0.2-12.9,1.8-16.7,3.3c0,0.4,0,0.8,0,1.2c3.9-1.4,9.6-3.1,16.7-3.3
	c8.4-0.2,15.2,1.7,19.3,3.3c0-0.4,0-0.8,0-1.2C-526.4,37.9-533.1,35.9-541.5,36.2z"/>
    <path class="st9" d="M-474.7,26.6c-7.1,0.2-12.9,1.8-16.7,3.3c0,0.4,0,0.8,0,1.2c3.9-1.4,9.6-3.1,16.7-3.3
	c8.4-0.2,15.2,1.7,19.3,3.3c0-0.4,0-0.8,0-1.2C-459.5,28.3-466.2,26.4-474.7,26.6z"/>
    <path class="st9" d="M-598.1,54.6c-7.1,0.2-12.9,1.8-16.7,3.3c0,0.4,0,0.8,0,1.2c3.9-1.4,9.6-3.1,16.7-3.3
	c8.4-0.2,15.2,1.7,19.3,3.3c0-0.4,0-0.8,0-1.2C-582.9,56.3-589.7,54.4-598.1,54.6z"/>
    <path class="st9" d="M-598.1,74.6c-7.1,0.2-12.9,1.8-16.7,3.3c0,0.4,0,0.8,0,1.2c3.9-1.4,9.6-3.1,16.7-3.3
	c8.4-0.2,15.2,1.7,19.3,3.3c0-0.4,0-0.8,0-1.2C-582.9,76.3-589.7,74.4-598.1,74.6z"/>
    <path class="st9" d="M-482,28.8c-7.1,0.2-12.9,1.8-16.7,3.3c0,0.4,0,0.8,0,1.2c3.9-1.4,9.6-3.1,16.7-3.3c8.4-0.2,15.2,1.7,19.3,3.3
	c0-0.4,0-0.8,0-1.2C-466.9,30.5-473.6,28.6-482,28.8z"/>
    <path class="st9" d="M-598.1,94.6c-7.1,0.2-12.9,1.8-16.7,3.3c0,0.4,0,0.8,0,1.2c3.9-1.4,9.6-3.1,16.7-3.3
	c8.4-0.2,15.2,1.7,19.3,3.3c0-0.4,0-0.8,0-1.2C-582.9,96.3-589.7,94.4-598.1,94.6z"/>
    <path class="st8" d="M9.9-209.8c0,24.6,0,49.2,0,73.8c5.8-2,14.4-4.2,24.9-4.3c11.2-0.1,20.4,2.2,26.4,4.3c0-24.6,0-49.2,0-73.8
	c-5.9-2.2-15.5-5-27.5-4.7C23.6-214.2,15.4-211.9,9.9-209.8z"/>
    <path class="st8" d="M-19.8-140.2c1,0,2-0.1,3-0.1c11.2-0.1,20.4,2.2,26.4,4.3c0-24.6,0-49.2,0-73.8c-5.9-2.2-15.5-5-27.5-4.7
	c-10.1,0.3-18.3,2.6-23.8,4.7c0,11.2,0,22.4,0,33.6"/>
    <line class="st0" x1="59.7" y1="-210.4" x2="59.7" y2="-137"/>
    <line class="st0" x1="58.1" y1="-210.4" x2="58.1" y2="-137"/>
    <g>
	<g>
		<g>
			<path class="st2" d="M-236.6-134.8c-3.3,0-6-2.9-6-6.4v-34.1c0-3.5,2.7-6.4,6-6.4c3.3,0,6,2.9,6,6.4v34.2
				C-230.7-137.6-233.2-134.8-236.6-134.8z M-236.6-178.4c-1.7,0-3,1.4-3,3.2v34.2c0,1.8,1.4,3.2,3,3.2c1.7,0,3-1.4,3-3.2v-34.2
				C-233.7-177-234.9-178.4-236.6-178.4z"/>
		</g>
	</g>
</g>
    <g>
	<g>
		<g>
			<path class="st2" d="M-193-233.2c-3.3,0-6-2.9-6-6.4s2.7-6.4,6-6.4c3.3,0,6,2.9,6,6.4C-187.1-236.1-189.7-233.2-193-233.2z
				 M-193-242.6c-1.7,0-3,1.4-3,3.2s1.4,3.2,3,3.2c1.7,0,3-1.4,3-3.2S-191.3-242.6-193-242.6z"/>
		</g>
	</g>
</g>
    <path class="st9" d="M31.6-207.1c-7.3,0.2-13.2,1.9-17.2,3.4c0,0.4,0,0.8,0,1.2c4-1.5,9.9-3.2,17.2-3.4c8.7-0.2,15.6,1.8,19.9,3.4
	c0-0.4,0-0.8,0-1.2C47.2-205.3,40.3-207.3,31.6-207.1z"/>
    <path class="st9" d="M31.6-186.2c-7.3,0.2-13.2,1.9-17.2,3.4c0,0.4,0,0.8,0,1.2c4-1.5,9.9-3.2,17.2-3.4c8.7-0.2,15.6,1.8,19.9,3.4
	c0-0.4,0-0.8,0-1.2C47.2-184.5,40.3-186.4,31.6-186.2z"/>
    <path class="st9" d="M31.6-165.4c-7.3,0.2-13.2,1.9-17.2,3.4c0,0.4,0,0.8,0,1.2c4-1.5,9.9-3.2,17.2-3.4c8.7-0.2,15.6,1.8,19.9,3.4
	c0-0.4,0-0.8,0-1.2C47.2-163.6,40.3-165.6,31.6-165.4z"/>
    <path class="st9" d="M-506.9,119.6c-7.1,0.2-12.9,1.8-16.7,3.3c0,0.4,0,0.8,0,1.2c3.9-1.4,9.6-3.1,16.7-3.3
	c8.4-0.2,15.2,1.7,19.3,3.3c0-0.4,0-0.8,0-1.2C-491.8,121.3-498.5,119.4-506.9,119.6z"/>
    <path class="st9" d="M-616.1,10.5c-7.1,0.6-12.9,6.1-16.7,11c0,1.3,0,2.7,0,4c3.9-4.9,9.6-10.4,16.7-11c8.4-0.7,15.2,5.7,19.3,11
	c0-1.3,0-2.7,0-4C-600.9,16.3-607.7,9.8-616.1,10.5z"/>
    <path class="st9" d="M-525-2.3c-7.1,0.2-12.9,1.8-16.7,3.3c0,0.4,0,0.8,0,1.2c3.9-1.4,9.6-3.1,16.7-3.3c8.4-0.2,15.2,1.7,19.3,3.3
	c0-0.4,0-0.8,0-1.2C-509.8-0.6-516.5-2.5-525-2.3z"/>
    <path class="st9" d="M-645.8-27.8c-7.1,0.2-12.9,1.8-16.7,3.3c0,0.4,0,0.8,0,1.2c3.9-1.4,9.6-3.1,16.7-3.3
	c8.4-0.2,15.2,1.7,19.3,3.3c0-0.4,0-0.8,0-1.2C-630.6-26.1-637.3-28-645.8-27.8z"/>
    <path class="st9" d="M-567-5.6c-7.1,0.2-12.9,1.8-16.7,3.3c0,0.4,0,0.8,0,1.2c3.9-1.4,9.6-3.1,16.7-3.3c8.4-0.2,15.2,1.7,19.3,3.3
	c0-0.4,0-0.8,0-1.2C-551.9-3.9-558.6-5.8-567-5.6z"/>
    <path class="st10" d="M-436.7,125.8L-436.7,125.8c-15.3-6.3-32.6-6.3-47.9,0l0,0V54.4l0,0c15.3-6.3,32.6-6.3,47.9,0l0,0V125.8z"/>
    <path class="st0" d="M-533.8,140.2c-0.6-0.2-1.2-0.4-1.8-0.6v1.6c0.6,0.2,1.3,0.4,1.8,0.6C-533.8,141.3-533.8,140.7-533.8,140.2z"/>
    <path class="st0" d="M-559.5,136.1c-10.2,0.1-18.6,2.2-24.2,4.1c0,0.5,0,1.1,0,1.6c5.7-1.9,14-4,24.2-4.1c4.3,0,8.2,0.3,11.8,0.8
	v-1.6C-551.3,136.4-555.2,136-559.5,136.1z"/>
    <path class="st0" d="M-544.3,107.3c0,1.4,1.7,2.2,2.8,1.3l3.3-2.7l3.3,2.7c1.1,0.9,2.8,0.1,2.8-1.3V106c-3.3-1-7.4-2.1-12.1-2.7
	V107.3z"/>
    <path class="st10" d="M-535.6,124.1h-12.1v12.8c4.7,0.7,8.8,1.7,12.1,2.7V124.1z"/>
    <path class="st0" d="M-547.7,136.9v1.6c4.7,0.7,8.8,1.7,12.1,2.7v-1.6C-538.9,138.6-543,137.5-547.7,136.9z"/>
    <path class="st10" d="M-436.7,125.8L-436.7,125.8c15.3-6.3,32.6-6.3,47.9,0l0,0V54.4l0,0c-15.3-6.3-32.6-6.3-47.9,0l0,0V125.8z"/>
    <path class="st10" d="M-476.8,68.9c-0.7,0-1.2-0.6-1.3-1.2c0-0.5,0.3-1,0.8-1.2c10.4-3.8,21.8-3.8,32.2,0c0.6,0.2,1,1,0.7,1.6
	s-1,1-1.6,0.7l0,0c-9.8-3.6-20.7-3.6-30.5,0C-476.5,68.9-476.6,68.9-476.8,68.9z"/>
    <path class="st10" d="M-476.8,82.1c-0.7,0-1.2-0.6-1.3-1.2c0-0.5,0.3-1,0.8-1.2c10.4-3.8,21.8-3.8,32.2,0c0.7,0.2,1,0.9,0.8,1.6
	c-0.2,0.7-0.9,1-1.6,0.8c0,0-0.1,0-0.1,0c-9.8-3.6-20.7-3.6-30.5,0C-476.5,82.1-476.6,82.1-476.8,82.1z"/>
    <path class="st10" d="M-476.8,95.4c-0.7,0-1.2-0.6-1.2-1.3c0-0.5,0.3-1,0.8-1.2c10.4-3.8,21.8-3.8,32.2,0c0.7,0.2,1,0.9,0.8,1.6
	c-0.2,0.7-0.9,1-1.6,0.8c0,0-0.1,0-0.1,0c-9.8-3.6-20.7-3.6-30.5,0C-476.5,95.3-476.6,95.4-476.8,95.4z"/>
    <path class="st10" d="M-476.8,108.6c-0.7,0-1.2-0.6-1.3-1.2c0-0.5,0.3-1,0.8-1.2c10.4-3.8,21.8-3.8,32.2,0c0.6,0.2,1,1,0.7,1.6
	c-0.2,0.6-1,1-1.6,0.7c-9.8-3.6-20.7-3.6-30.5,0C-476.5,108.5-476.6,108.6-476.8,108.6z"/>
    <path class="st10" d="M-397.5,68.9c-0.1,0-0.3,0-0.4-0.1c-9.8-3.6-20.7-3.6-30.5,0c-0.6,0.2-1.4-0.1-1.6-0.7
	c-0.2-0.6,0.1-1.4,0.7-1.6c10.4-3.8,21.8-3.8,32.2,0c0.6,0.2,1,1,0.7,1.6C-396.5,68.6-396.9,68.9-397.5,68.9z"/>
    <path class="st10" d="M-397.5,82.1c-0.1,0-0.3,0-0.4-0.1c-9.8-3.6-20.7-3.6-30.5,0c-0.6,0.3-1.4,0-1.6-0.7c-0.3-0.6,0-1.4,0.7-1.6
	c0,0,0.1,0,0.1,0c10.4-3.8,21.8-3.8,32.2,0c0.6,0.2,1,1,0.7,1.6C-396.5,81.8-396.9,82.1-397.5,82.1z"/>
    <path class="st10" d="M-397.5,95.4c-0.1,0-0.3,0-0.4-0.1c-9.8-3.6-20.7-3.6-30.5,0c-0.6,0.3-1.4,0-1.6-0.7c-0.3-0.6,0-1.4,0.7-1.6
	c0,0,0.1,0,0.1,0c10.4-3.8,21.8-3.8,32.2,0c0.6,0.2,1,1,0.7,1.6C-396.5,95-397,95.3-397.5,95.4z"/>
    <path class="st10" d="M-397.5,108.6c-0.1,0-0.3,0-0.4-0.1c-9.8-3.6-20.7-3.6-30.5,0c-0.6,0.2-1.4-0.1-1.6-0.7
	c-0.2-0.6,0.1-1.4,0.7-1.6c10.4-3.8,21.8-3.8,32.2,0c0.6,0.2,1,1,0.7,1.6C-396.5,108.2-396.9,108.6-397.5,108.6L-397.5,108.6z"/>
    <path class="st10" d="M-396.8,67.9c-0.1,0-0.3,0-0.4-0.1c-9.8-3.6-20.7-3.6-30.5,0c-0.6,0.2-1.4-0.1-1.6-0.7s0.1-1.4,0.7-1.6
	c10.4-3.8,21.8-3.8,32.2,0c0.6,0.2,1,1,0.7,1.6C-395.8,67.5-396.3,67.9-396.8,67.9z"/>
    <path class="st10" d="M-396.8,81.1c-0.1,0-0.3,0-0.4-0.1c-9.8-3.6-20.7-3.6-30.5,0c-0.6,0.3-1.4,0-1.6-0.7s0-1.4,0.7-1.6
	c0,0,0.1,0,0.1,0c10.4-3.8,21.8-3.8,32.2,0c0.6,0.2,1,1,0.7,1.6C-395.8,80.7-396.3,81.1-396.8,81.1z"/>
    <path class="st10" d="M-396.8,94.3c-0.1,0-0.3,0-0.4-0.1c-9.8-3.6-20.7-3.6-30.5,0c-0.6,0.3-1.4,0-1.6-0.7s0-1.4,0.7-1.6
	c0,0,0.1,0,0.1,0c10.4-3.8,21.8-3.8,32.2,0c0.6,0.2,1,1,0.7,1.6C-395.8,94-396.3,94.3-396.8,94.3z"/>
    <path class="st10" d="M-396.8,107.5c-0.1,0-0.3,0-0.4-0.1c-9.8-3.6-20.7-3.6-30.5,0c-0.6,0.2-1.4-0.1-1.6-0.7
	c-0.2-0.6,0.1-1.4,0.7-1.6l0,0c10.4-3.8,21.8-3.8,32.2,0c0.6,0.2,1,1,0.7,1.6C-395.8,107.2-396.3,107.5-396.8,107.5L-396.8,107.5z"
    />
    <path class="st10" d="M-476.1,67.9c-0.7,0-1.2-0.6-1.3-1.2c0-0.5,0.3-1,0.8-1.2c10.4-3.8,21.8-3.8,32.2,0c0.6,0.2,1,1,0.7,1.6
	s-1,1-1.6,0.7l0,0c-9.8-3.6-20.7-3.6-30.5,0C-475.8,67.8-475.9,67.9-476.1,67.9z"/>
    <path class="st10" d="M-476.1,81.1c-0.7,0-1.2-0.6-1.3-1.2c0-0.5,0.3-1,0.8-1.2c10.4-3.8,21.8-3.8,32.2,0c0.7,0.2,1,0.9,0.8,1.6
	c-0.2,0.7-0.9,1-1.6,0.8c0,0-0.1,0-0.1,0c-9.8-3.6-20.7-3.6-30.5,0C-475.8,81-475.9,81.1-476.1,81.1z"/>
    <path class="st10" d="M-476.1,94.3c-0.7,0-1.2-0.6-1.2-1.3c0-0.5,0.3-1,0.8-1.2c10.4-3.8,21.8-3.8,32.2,0c0.7,0.2,1,0.9,0.8,1.6
	c-0.2,0.7-0.9,1-1.6,0.8c0,0-0.1,0-0.1,0c-9.8-3.6-20.7-3.6-30.5,0C-475.8,94.3-475.9,94.3-476.1,94.3z"/>
    <path class="st10" d="M-476.1,107.5c-0.7,0-1.2-0.6-1.3-1.2c0-0.5,0.3-1,0.8-1.2c10.4-3.8,21.8-3.8,32.2,0c0.6,0.2,1,1,0.7,1.6
	s-1,1-1.6,0.7c-9.8-3.6-20.7-3.6-30.5,0C-475.8,107.5-475.9,107.5-476.1,107.5z"/>
    <path class="st10" d="M-397.1,68.3c-0.1,0-0.3,0-0.4-0.1c-9.8-3.6-20.7-3.6-30.5,0c-0.6,0.2-1.4-0.1-1.6-0.7s0.1-1.4,0.7-1.6l0,0
	c10.4-3.8,21.8-3.8,32.2,0c0.6,0.2,1,1,0.7,1.6C-396.1,68-396.6,68.3-397.1,68.3z"/>
    <path class="st10" d="M-397.1,81.5c-0.1,0-0.3,0-0.4-0.1c-9.8-3.6-20.7-3.6-30.5,0c-0.6,0.3-1.4,0-1.6-0.7c-0.3-0.6,0-1.4,0.7-1.6
	c0,0,0.1,0,0.1,0c10.4-3.8,21.8-3.8,32.2,0c0.6,0.2,1,1,0.7,1.6C-396.1,81.2-396.6,81.5-397.1,81.5z"/>
    <path class="st10" d="M-397.1,94.7c-0.1,0-0.3,0-0.4-0.1c-9.8-3.6-20.7-3.6-30.5,0c-0.6,0.3-1.4,0-1.6-0.7c-0.3-0.6,0-1.4,0.7-1.6
	c0,0,0.1,0,0.1,0c10.4-3.8,21.8-3.8,32.2,0c0.6,0.2,1,1,0.7,1.6C-396.1,94.4-396.6,94.7-397.1,94.7z"/>
    <path class="st10" d="M-397.1,108c-0.1,0-0.3,0-0.4-0.1c-9.8-3.6-20.7-3.6-30.5,0c-0.6,0.2-1.4-0.1-1.6-0.7
	c-0.2-0.6,0.1-1.4,0.7-1.6c10.4-3.8,21.8-3.8,32.2,0c0.6,0.2,1,1,0.7,1.6C-396.1,107.6-396.6,108-397.1,108L-397.1,108z"/>
    <path class="st10" d="M-476.4,68.3c-0.7,0-1.2-0.6-1.3-1.2c0-0.5,0.3-1,0.8-1.2c10.4-3.8,21.8-3.8,32.2,0c0.6,0.2,1,1,0.7,1.6
	c-0.2,0.6-1,1-1.6,0.7c-9.8-3.6-20.7-3.6-30.5,0C-476.1,68.3-476.2,68.3-476.4,68.3z"/>
    <path class="st10" d="M-476.4,81.5c-0.7,0-1.2-0.6-1.3-1.2c0-0.5,0.3-1,0.8-1.2c10.4-3.8,21.8-3.8,32.2,0c0.7,0.2,1,0.9,0.8,1.6
	c-0.2,0.7-0.9,1-1.6,0.8c0,0-0.1,0-0.1,0c-9.8-3.6-20.7-3.6-30.5,0C-476.1,81.5-476.2,81.5-476.4,81.5z"/>
    <path class="st10" d="M-476.4,94.7c-0.7,0-1.2-0.6-1.2-1.3c0-0.5,0.3-1,0.8-1.2c10.4-3.8,21.8-3.8,32.2,0c0.7,0.2,1,0.9,0.8,1.6
	c-0.2,0.7-0.9,1-1.6,0.8c0,0-0.1,0-0.1,0c-9.8-3.6-20.7-3.6-30.5,0C-476.1,94.7-476.2,94.7-476.4,94.7z"/>
    <path class="st10" d="M-476.4,108c-0.7,0-1.2-0.6-1.3-1.2c0-0.5,0.3-1,0.8-1.2c10.4-3.8,21.8-3.8,32.2,0c0.6,0.2,1,1,0.7,1.6
	s-1,1-1.6,0.7c-9.8-3.6-20.7-3.6-30.5,0C-476.1,107.9-476.2,108-476.4,108z"/>
    <rect x="-36.3" y="-184.5" class="st11" width="9.9" height="45.2"/>
    <circle class="st11" cx="-31.3" cy="-197" r="7.5"/>
    <g>
	<g>
		<g>
			<g>
				<g>
					<g>
						<g>
							<path class="st2" d="M90.3,29.6c0,0.1-3.9-1.3-9.4-1.6c-4-0.2-7.3,0.3-9.5,0.8c2.2-0.7,5.5-1.4,9.4-1.2
								C86.2,27.7,90.3,29.5,90.3,29.6z"/>
						</g>
					</g>
				</g>
			</g>
            <g>
				<g>
					<g>
						<g>
							<g>
								<path class="st2" d="M54.5,17.7c0-0.3,9.3-3.3,21.3-3.1c11.9,0.1,21,3.3,20.9,3.5c0,0.2-8.5-2.2-20.8-2.4
									C63.3,15.6,54.6,18,54.5,17.7z"/>
							</g>
						</g>
					</g>
				</g>
                <g>
					<g>
						<g>
							<g>
								<path class="st2" d="M92,23.1c-4-0.8-8.6-1.5-13.9-1.7c-5.5-0.2-10.4,0-14.6,0.5l0.1-0.2c3.6-0.8,8.5-1.4,14.4-1.2
									C83.8,20.9,88.5,22,92,23.1z"/>
							</g>
						</g>
					</g>
				</g>
                <g>
					<g>
						<g>
							<g>
								<path class="st2" d="M60.8,11.9c3.5-0.8,8.3-1.6,14.1-1.4c6,0.2,10.9,1.4,14.4,2.5l-0.1,0.2c-4-0.9-8.8-1.6-14.3-1.8
									C69.5,11.1,64.8,11.4,60.8,11.9z"/>
							</g>
						</g>
					</g>
				</g>
			</g>
		</g>
        <g>
			<path class="st3" d="M51.2,78.5V4.8l0.3-0.1C59.1,1.8,67.1,0.2,75.2,0c9.4-0.2,18.6,1.3,27.5,4.7l0.3,0.1v73.7l-0.7-0.2
				c-8.4-2.9-17.2-4.3-26-4.2c-8.3,0.1-16.6,1.5-24.5,4.2L51.2,78.5z M77.1,73.1c8.5,0,16.8,1.4,24.9,4V5.5
				C93.4,2.3,84.4,0.8,75.3,1c-7.9,0.2-15.7,1.7-23.1,4.5v71.6c7.8-2.6,16-4,24.2-4C76.6,73.1,76.8,73.1,77.1,73.1z"/>
		</g>
        <g>
			<path class="st3" d="M51.8,78.5l-0.7-0.2c-8.4-2.9-17.2-4.3-26-4.2c-1,0-2,0-2.9,0.1l0-1c1,0,2-0.1,3-0.1
				c8.7-0.1,17.4,1.3,25.7,4V5.5C42.2,2.3,33.2,0.8,24.1,1C16.2,1.2,8.4,2.7,1,5.5v32.7H0V4.8l0.3-0.1C8,1.8,16,0.2,24.1,0
				c9.4-0.2,18.6,1.3,27.5,4.7l0.3,0.1V78.5z"/>
		</g>
        <g>
			<rect x="100.7" y="4.6" class="st3" width="0.5" height="72.2"/>
		</g>
        <g>
			<rect x="99.1" y="4.6" class="st3" width="0.5" height="72.2"/>
		</g>
        <g>
			<g>
				<path class="st2" d="M15,77.9H8.3c-0.9,0-1.6-0.9-1.6-1.9v-32c0-1.1,0.7-1.9,1.6-1.9H15c0.9,0,1.6,0.9,1.6,1.9v32
					C16.6,77,15.9,77.9,15,77.9z M15,43.9L8.3,44l0.1,32l6.6-0.1V43.9z M15,75.9C15,75.9,15,75.9,15,75.9L15,75.9z"/>
			</g>
		</g>
        <g>
			<g>
				<path class="st2" d="M11.7,36.3c-2.7,0-5-2.2-5-4.9c0-2.7,2.2-4.9,5-4.9s5,2.2,5,4.9C16.6,34.1,14.4,36.3,11.7,36.3z M11.7,28.1
					c-1.8,0-3.3,1.5-3.3,3.3c0,1.8,1.5,3.3,3.3,3.3s3.3-1.5,3.3-3.3C15,29.6,13.5,28.1,11.7,28.1z"/>
			</g>
		</g>
	</g>
        <g>
		<path class="st2" d="M78.4,9.4"/>
	</g>
</g>
</svg>
