<?xml version="1.0" encoding="utf-8"?>
<!-- Generator: Adobe Illustrator 25.0.1, SVG Export Plug-In . SVG Version: 6.00 Build 0)  -->
<svg version="1.1" id="Слой_1" xmlns="http://www.w3.org/2000/svg" xmlns:xlink="http://www.w3.org/1999/xlink" x="0px" y="0px"
     viewBox="0 0 79.3 79.3" style="enable-background:new 0 0 79.3 79.3;" xml:space="preserve">
<style type="text/css">
	.st0{fill:none;stroke:#000000;stroke-miterlimit:10;}
	.st1{fill:#0097AE;}
	.st2{fill:#FFFFFF;}
	.st3{fill:none;stroke:#FFFFFF;stroke-width:0.5;stroke-miterlimit:10;}
	.st4{fill:#0096AD;}
	.st5{fill:none;stroke:#000000;stroke-width:0.75;stroke-miterlimit:10;}
	.st6{fill:none;stroke:#000000;stroke-width:0.5;stroke-miterlimit:10;}
</style>
    <path class="st0" d="M250.5,10.9c0,2-1.1,3.7-2.8,5.1c-0.3,0.3,2.3,3.8,1.9,4c-0.5,0.3-4-2.7-4.6-2.5c-1.7,0.7-3.6,1.1-5.7,1.1
	c-6.2,0-11.2-3.4-11.2-7.7s5-7.7,11.2-7.7S250.5,6.6,250.5,10.9z"/>
    <g>
	<path d="M287.8-24.2l-1.4-0.3c-3.7-0.9-9.9-2.3-10.5-2.3h-0.6c-0.9,0.1-1.8,0.1-3.4,0.2c-5.4,0.2-10.7-1.6-14.1-4.8
		c-2.1-2.2-3.3-4.6-3.3-7.2c0-6.6,7.8-12,17.4-12s17.4,5.4,17.4,12c0,3.9-1.6,5.9-4.2,7.8c0,0.7,1,3.3,2,5.4L287.8-24.2z
		 M275.9-28.2c0.8,0,6.2,1.3,9.5,2.1c-2.2-4.9-1.5-5.4-1.1-5.7c2.4-1.7,3.7-3.3,3.7-6.8c0-5.9-7.2-10.7-16.1-10.7
		s-16.1,4.8-16.1,10.7c0,2.2,1,4.4,2.9,6.2c3.1,3,8,4.6,13.2,4.5c1.6-0.1,2.4-0.1,3.3-0.2L275.9-28.2L275.9-28.2z"/>
</g>
    <g>
	<path class="st1" d="M272-36.4c-1,0-1.9-0.7-2.1-1.8l-1-6.5c-0.1-0.5,0.1-1.1,0.4-1.5s0.8-0.7,1.4-0.8c1.1-0.2,2.2,0.6,2.4,1.8
		l1,6.5c0.2,1.1-0.6,2.2-1.8,2.4C272.3-36.4,272.1-36.4,272-36.4z M271.1-46.1c-0.1,0-0.1,0-0.2,0c-0.3,0-0.6,0.2-0.8,0.5
		c-0.2,0.3-0.3,0.6-0.2,0.9l1,6.5c0.1,0.7,0.7,1.1,1.4,1l0,0c0.7-0.1,1.1-0.7,1-1.4l-1-6.5C272.2-45.7,271.7-46.1,271.1-46.1z"/>
</g>
    <g>
	<path class="st1" d="M272.8-31.4c-0.4,0-0.9-0.1-1.2-0.4c-0.9-0.7-1.1-2-0.4-2.9c0.3-0.4,0.8-0.7,1.4-0.8s1.1,0.1,1.5,0.4
		c0.4,0.3,0.7,0.8,0.8,1.4c0.1,0.6-0.1,1.1-0.4,1.5l0,0c-0.3,0.4-0.8,0.7-1.4,0.8C273-31.4,272.9-31.4,272.8-31.4z M272.8-34.7
		c-0.1,0-0.1,0-0.2,0c-0.3,0-0.6,0.2-0.8,0.5c-0.4,0.5-0.3,1.3,0.2,1.7c0.3,0.2,0.6,0.3,0.9,0.2c0.3,0,0.6-0.2,0.8-0.5l0,0
		c0.2-0.3,0.3-0.6,0.2-0.9c0-0.3-0.2-0.6-0.5-0.8C273.3-34.6,273-34.7,272.8-34.7z"/>
</g>
    <path class="st0" d="M304.6,23.3c-0.1,2.1-1.4,3.8-3.3,5.2c-0.3,0.3,2.2,4.2,1.7,4.4c-0.6,0.3-4-3.2-4.7-3c-1.9,0.6-3.9,0.9-6.1,0.7
	c-6.6-0.5-11.6-4.4-11.3-9c0.3-4.6,5.9-7.8,12.5-7.3S304.9,18.8,304.6,23.3z"/>
    <path class="st2" d="M199.4-18.3c-0.1,1.5-1,2.8-2.4,3.8c-0.2,0.2,1.6,3,1.2,3.2c-0.4,0.2-2.9-2.3-3.4-2.2c-1.3,0.4-2.8,0.6-4.4,0.5
	c-4.7-0.3-8.4-3.2-8.2-6.5s4.2-5.6,9-5.3C196-24.5,199.6-21.6,199.4-18.3z"/>
    <path class="st3" d="M306.2,50.5c0,2.6-2.5,4.2-1.8,7.4c0.3,1.1,0.9,2.1,0.5,2.4s-1.7-0.8-3-1.5c-2.9-1.5-5.1-0.6-7.8-0.7
	c-5.1-0.3-11-4.4-11.1-8.6c-0.1-3.5,3.9-6.1,4.5-6.4c3.2-2,6.5-1.5,7.8-1.3C300.5,42.5,306.3,46.6,306.2,50.5z"/>
    <g>
	<path d="M266.4,59.4l-1.4-0.3c-3.7-0.9-9.9-2.3-10.5-2.3h-0.6c-0.9,0.1-1.8,0.1-3.4,0.2c-5.4,0.2-10.7-1.6-14.1-4.8
		c-2.1-2.2-3.3-4.6-3.3-7.2c0-6.6,7.8-12,17.4-12s17.4,5.4,17.4,12c0,3.9-1.6,5.9-4.2,7.8c0,0.7,1,3.3,2,5.4L266.4,59.4z
		 M254.5,55.4c0.8,0,6.2,1.3,9.5,2.1c-2.2-4.9-1.5-5.4-1.1-5.7c2.4-1.7,3.7-3.3,3.7-6.8c0-5.9-7.2-10.7-16.1-10.7
		s-16.1,4.8-16.1,10.7c0,2.2,1,4.4,2.9,6.2c3.1,3,8,4.6,13.2,4.5c1.6-0.1,2.4-0.1,3.3-0.2L254.5,55.4L254.5,55.4z"/>
</g>
    <g>
	<path class="st1" d="M265.8,29.6c0.7,0.1,1.2,0.8,1.2,2v6.6c0,0.5-0.2,1.1-0.4,1.5c-0.2,0.4-0.6,0.7-1,0.7c-0.8,0.1-1.4-0.8-1.4-2
		v-6.6c0-1.1,0.6-2.2,1.4-2.3C265.6,29.6,265.8,29.6,265.8,29.6z M265.4,39.5c0.1,0,0.1,0,0.1,0c0.2,0,0.4-0.2,0.6-0.5
		s0.3-0.6,0.2-0.9v-6.6c0-0.7-0.4-1.2-0.8-1.1l0,0c-0.5,0.1-0.8,0.6-0.8,1.3v6.6C264.8,39,265,39.4,265.4,39.5z"/>
</g>
    <g>
	<path class="st1" d="M265.7,25c0.3,0,0.6,0.1,0.8,0.4c0.5,0.7,0.6,1.8,0,2.6c-0.2,0.3-0.6,0.6-1,0.6s-0.7-0.2-1-0.5
		c-0.2-0.3-0.4-0.8-0.4-1.3s0.2-1,0.4-1.3l0,0c0.2-0.3,0.6-0.6,1-0.6C265.6,25,265.7,25,265.7,25z M265.4,27.9c0.1,0,0.1,0,0.1,0
		c0.2,0,0.4-0.1,0.6-0.4c0.3-0.4,0.3-1.1,0-1.5c-0.2-0.2-0.4-0.3-0.6-0.2c-0.2,0-0.4,0.1-0.6,0.4l0,0c-0.2,0.3-0.3,0.5-0.2,0.8
		c0,0.3,0.1,0.5,0.3,0.7C265.1,27.8,265.3,27.9,265.4,27.9z"/>
</g>
    <g>
	<path class="st2" d="M167.5,59l-0.8-0.2c-2.1-0.5-5.5-1.3-5.8-1.3h-0.3c-0.5,0.1-1,0.1-1.9,0.1c-3,0.1-5.9-0.9-7.8-2.7
		c-1.2-1.2-1.8-2.6-1.8-4c0-3.7,4.3-6.7,9.7-6.7c5.3,0,9.7,3,9.7,6.7c0,2.2-0.9,3.3-2.3,4.3c0,0.4,0.6,1.8,1.1,3L167.5,59z
		 M160.9,56.8c0.4,0,3.4,0.7,5.3,1.2c-1.2-2.7-0.8-3-0.6-3.2c1.3-0.9,2.1-1.8,2.1-3.8c0-3.3-4-5.9-8.9-5.9s-8.9,2.7-8.9,5.9
		c0,1.2,0.6,2.4,1.6,3.4c1.7,1.7,4.4,2.6,7.3,2.5c0.9-0.1,1.3-0.1,1.8-0.1L160.9,56.8L160.9,56.8z"/>
</g>
    <g>
	<path class="st1" d="M193-18.6c-1-0.3-1.7-1.3-1.6-2.5l0.9-7c0-0.5,0.4-1.1,0.9-1.4c0.4-0.3,1-0.5,1.7-0.4c1.2,0.1,2.1,1.3,1.9,2.6
		l-0.9,7c-0.1,1.2-1.3,2.1-2.6,1.9C193.3-18.5,193.1-18.5,193-18.6z M195-28.8c-0.1,0-0.1,0-0.2-0.1c-0.3-0.1-0.7,0-1,0.3
		c-0.3,0.2-0.5,0.5-0.5,0.9l-0.9,7c-0.1,0.7,0.4,1.3,1.1,1.4l0,0c0.7,0.1,1.3-0.4,1.4-1.1l0.9-7C196-28.1,195.6-28.6,195-28.8z"/>
</g>
    <g>
	<path class="st1" d="M192.4-13.2c-0.4-0.1-0.9-0.4-1.1-0.8c-0.7-1-0.5-2.4,0.5-3.1c0.4-0.3,1-0.5,1.7-0.4s1.1,0.4,1.4,0.9
		c0.3,0.4,0.5,1,0.4,1.7c-0.1,0.6-0.4,1.1-0.9,1.4l0,0c-0.4,0.3-1,0.5-1.7,0.4C192.6-13.1,192.5-13.1,192.4-13.2z M193.3-16.6
		c-0.1,0-0.1,0-0.2-0.1c-0.3-0.1-0.7,0-1,0.3c-0.6,0.4-0.7,1.2-0.3,1.8c0.2,0.3,0.5,0.5,0.9,0.5c0.3,0.1,0.7,0,1-0.3l0,0
		c0.3-0.2,0.5-0.5,0.5-0.9c0.1-0.3,0-0.7-0.3-1C193.8-16.3,193.6-16.5,193.3-16.6z"/>
</g>
    <g>
	<path d="M209.2-7.5l-1.4-0.3c-3.7-0.9-9.9-2.3-10.5-2.3h-0.6c-0.9,0.1-1.8,0.1-3.4,0.2c-5.4,0.2-10.7-1.6-14.1-4.8
		c-2.1-2.2-3.3-4.6-3.3-7.2c0-6.6,7.8-12,17.4-12c9.6,0,17.4,5.4,17.4,12c0,3.9-1.6,5.9-4.2,7.8c0,0.7,1,3.3,2,5.4L209.2-7.5z
		 M197.3-11.5c0.8,0,6.2,1.3,9.5,2.1c-2.2-4.9-1.5-5.4-1.1-5.7c2.4-1.7,3.7-3.3,3.7-6.8c0-5.9-7.2-10.7-16.1-10.7
		c-8.9,0-16.1,4.8-16.1,10.7c0,2.2,1,4.4,2.9,6.2c3.1,3,8,4.6,13.2,4.5c1.6-0.1,2.4-0.1,3.3-0.2L197.3-11.5L197.3-11.5z"/>
</g>
    <path class="st3" d="M241.3,90.7c-1.2-0.6-2.4-1.4-3.2-2.6s-1.1-2.7-0.5-3.9c1-2.4,3.9-3,6.5-3.2c2.7-0.3,5.5-0.6,8.1,0.1
	s5.1,2.6,5.7,5.2s-0.6,5.4-1.3,7.8c-0.9,2.8-0.7,3.1-3,1.6C249.6,93.1,245.5,92.6,241.3,90.7z"/>
    <path class="st3" d="M234.5-32c-0.4-0.1-1.7-0.6-2.9-1.7c-0.6-0.6-1.3-1.2-1.4-2.2c-0.1-0.9,0.3-1.8,0.8-2.5c0.6-0.7,1.3-1.1,2-1.5
	c0.6-0.3,1.2-0.5,1.9-0.8c1.1-0.3,2.9-0.9,5.1-0.7c1.2,0.1,1.9,0.2,2.7,0.6c0.8,0.5,1.5,1.3,1.7,2.3c0.2,1.1-0.2,2.1-0.7,3.1
	c-0.4,1-1,1.9-1,3c0,0.9,0.4,1.8,1.2,2.3C243.1-30.1,238-30.8,234.5-32z"/>
    <path class="st0" d="M-58,83.8c-0.1,1.1-0.8,2-1.9,2.7C-60.1,86.6-59,88-59,88s-2.2-0.8-2.6-0.7c-1,0.3-2.2,0.5-3.4,0.4
	c-3.7-0.2-6.6-2.3-6.4-4.6c0.2-2.3,3.4-4.1,7-3.8C-60.7,79.4-57.8,81.5-58,83.8z"/>
    <g>
	<path class="st4" d="M-65.9,84.2c-1.1-0.2-1.8-1.1-1.7-2.3l0.4-7.1c0-0.6,0.4-1.2,0.7-1.5c0.4-0.3,1-0.5,1.7-0.6
		c1.2,0.1,2.2,1.1,2.1,2.4l-0.4,7.1c-0.1,1.2-1.1,2.2-2.4,2.1C-65.6,84.2-65.8,84.2-65.9,84.2z M-64.7,73.8c-0.1,0-0.1,0-0.2,0
		c-0.3-0.1-0.6,0.1-1,0.3c-0.3,0.3-0.4,0.5-0.4,0.9l-0.4,7.1c-0.1,0.7,0.4,1.3,1.2,1.4l0,0c0.7,0.1,1.3-0.4,1.4-1.2l0.4-7.1
		C-63.6,74.4-64,73.9-64.7,73.8z"/>
</g>
    <g>
	<path class="st4" d="M-66.3,89.5c-0.4-0.1-1-0.3-1.2-0.7c-0.8-0.9-0.7-2.3,0.3-3.1c0.4-0.3,1-0.5,1.7-0.6c0.6,0,1.2,0.4,1.5,0.7
		c0.3,0.4,0.5,1,0.6,1.7c0,0.6-0.4,1.2-0.7,1.5l0,0c-0.4,0.3-1,0.5-1.7,0.6C-66,89.6-66.2,89.5-66.3,89.5z M-65.5,86.1
		c-0.1,0-0.1,0-0.2,0c-0.3-0.1-0.6,0.1-1,0.3c-0.5,0.4-0.6,1.3-0.2,1.8c0.3,0.3,0.5,0.4,0.9,0.4c0.3,0.1,0.6-0.1,1-0.3l0,0
		c0.3-0.3,0.4-0.5,0.4-0.9c0.1-0.3-0.1-0.6-0.3-1C-65,86.3-65.2,86.2-65.5,86.1z"/>
</g>
    <g>
	<path d="M-50,95.1l-1.3-0.3c-3.7-0.9-9.9-2.3-10.5-2.3h-0.6c-0.9,0.1-1.8,0.1-3.4,0.2c-5.4,0.2-10.7-1.6-14.1-4.8
		c-2.1-2.2-3.3-4.6-3.3-7.2c0-6.6,7.8-12,17.4-12s17.4,5.4,17.4,12c0,3.9-1.6,5.9-4.2,7.8c0,0.7,1,3.3,2,5.4L-50,95.1z M-61.8,91.1
		c0.8,0,6.2,1.3,9.5,2.1c-2.2-4.9-1.5-5.4-1.1-5.7c2.4-1.7,3.7-3.3,3.7-6.8c0-5.9-7.2-10.7-16.1-10.7s-16.1,4.8-16.1,10.7
		c0,2.2,1,4.4,2.9,6.2c3.1,3,8,4.6,13.2,4.5c1.6-0.1,2.4-0.1,3.3-0.2L-61.8,91.1L-61.8,91.1z"/>
</g>
    <g>
	<g>
		<path d="M254.5-34.7c-21.9,0-39.6-17.8-39.6-39.6c0-21.9,17.8-39.6,39.6-39.6s39.6,17.8,39.6,39.6S276.3-34.7,254.5-34.7z
			 M254.5-113.2c-21.5,0-38.9,17.4-38.9,38.9c0,21.4,17.5,38.9,38.9,38.9s38.9-17.5,38.9-38.9C293.4-95.8,275.9-113.2,254.5-113.2z"
        />
	</g>
</g>
    <g>
	<path d="M-39.3-82.8c-14.6,0-26.5-11.9-26.5-26.5s11.9-26.5,26.5-26.5s26.5,11.9,26.5,26.5c0,2.9-0.8,5.6-1.6,8.2
		c-0.3,0.9-0.5,1.8-0.8,2.7c-1,3.8,0.6,13.8,0.6,13.9l0.1,0.5H-15c-0.1,0-6.6-0.5-9.3-0.1C-27.5-83.8-35.9-82.8-39.3-82.8z
		 M-39.3-135.1c-14.2,0-25.8,11.6-25.8,25.8s11.6,25.8,25.8,25.8c3.3,0,11.6-0.9,15-1.5c2.4-0.4,7.4-0.1,9,0
		c-0.3-2.1-1.4-10.1-0.5-13.7c0.2-0.9,0.5-1.8,0.8-2.7c0.8-2.5,1.5-5.2,1.5-8C-13.6-123.5-25.1-135.1-39.3-135.1z"/>
</g>
    <ellipse transform="matrix(0.1602 -0.9871 0.9871 0.1602 439.088 85.6861)" class="st5" cx="269.9" cy="-215.2" rx="39.3" ry="39.3"/>
    <path class="st6" d="M296-215.2c0,3.8-1.4,7.3-2.3,10.8c-1,4,0.6,14,0.6,14s-6.6-0.5-9.4-0.1c-3.2,0.5-11.6,1.5-15,1.5
	c-14.4,0-26.1-11.7-26.1-26.1s11.7-26.1,26.1-26.1C284.3-241.3,296-229.6,296-215.2z"/>
    <g>
	<path class="st6" d="M267.9-223.9h4c0.6,0,1,0.5,1,1v25.4c0,0.6-0.5,1-1,1h-4c-0.6,0-1-0.5-1-1v-25.4
		C266.9-223.4,267.3-223.9,267.9-223.9z"/>
        <circle class="st6" cx="269.9" cy="-230.9" r="3"/>
</g>
    <g>
	<g>
		<g>
			<g>
				<path class="st1" d="M39.8,59.2c-2.2,0-4-1.8-4-4V33.8c0-2.2,1.8-4,4-4s4,1.8,4,4v21.5C43.7,57.4,42,59.2,39.8,59.2z M39.8,31.8
					c-1.1,0-2,0.9-2,2v21.5c0,1.1,0.9,2,2,2s2-0.9,2-2V33.8C41.7,32.7,40.9,31.8,39.8,31.8z"/>
			</g>
		</g>
	</g>
        <g>
		<g>
			<g>
				<path class="st1" d="M39.8,27.7c-2.2,0-4-1.8-4-4s1.8-4,4-4s4,1.8,4,4C43.7,25.9,42,27.7,39.8,27.7z M39.8,21.8
					c-1.1,0-2,0.9-2,2s0.9,2,2,2s2-0.9,2-2S40.9,21.8,39.8,21.8z"/>
			</g>
		</g>
	</g>
</g>
    <g>
	<g>
		<path class="st2" d="M39.8,65.9c-14.6,0-26.4-11.8-26.4-26.4s11.8-26.4,26.4-26.4s26.4,11.8,26.4,26.4c0,2.9-0.8,5.6-1.6,8.2
			c-0.3,0.9-0.5,1.8-0.8,2.7c-1,3.9,0.6,13.8,0.6,13.9v0.3h-0.3c-0.1,0-6.6-0.5-9.3-0.1C51.4,64.9,43.1,65.9,39.8,65.9z M39.8,13.6
			c-14.3,0-25.9,11.6-25.9,25.9s11.6,25.9,25.9,25.9c3.3,0,11.6-0.9,15-1.5c2.5-0.4,7.8,0,9.1,0.1c-0.3-1.8-1.5-10.2-0.5-13.8
			c0.2-0.9,0.5-1.8,0.8-2.7c0.8-2.6,1.5-5.2,1.5-8C65.7,25.2,54,13.6,39.8,13.6z"/>
	</g>
</g>
    <g>
	<path class="st2" d="M67.1,79.3H12.5C5.6,79.3,0,73.7,0,66.8V12.2C0,5.3,5.6-0.3,12.5-0.3h54.6c6.9,0,12.5,5.6,12.5,12.5v54.6
		C79.6,73.7,74,79.3,67.1,79.3z M12.5,0.7C6.1,0.7,1,5.9,1,12.2v54.6c0,6.3,5.2,11.5,11.5,11.5h54.6c6.3,0,11.5-5.2,11.5-11.5V12.2
		c0-6.3-5.2-11.5-11.5-11.5C67.1,0.7,12.5,0.7,12.5,0.7z"/>
</g>
</svg>
