<?xml version="1.0" encoding="utf-8"?>
<!-- Generator: Adobe Illustrator 25.0.1, SVG Export Plug-In . SVG Version: 6.00 Build 0)  -->
<svg version="1.1" id="Слой_1" xmlns="http://www.w3.org/2000/svg" xmlns:xlink="http://www.w3.org/1999/xlink" x="0px" y="0px"
     viewBox="0 0 34.9 26.4" style="enable-background:new 0 0 34.9 26.4;" xml:space="preserve">
<style type="text/css">
	.st0{fill:#FFFFFF;}
	.st1{fill:#0097AE;}
	.st2{fill:none;stroke:#FFFFFF;stroke-width:0.5;stroke-miterlimit:10;}
	.st3{fill:#0096AD;}
</style>
    <g>
	<path class="st0" d="M-5.9-24.1c0,2-1.1,3.7-2.8,5.1c-0.3,0.3,2.3,3.8,1.9,4c-0.5,0.3-4-2.7-4.6-2.5c-1.7,0.7-3.6,1.1-5.7,1.1
		c-6.2,0-11.2-3.4-11.2-7.7s5-7.7,11.2-7.7S-5.9-28.4-5.9-24.1z"/>
        <g>
		<path d="M-1.5-10.8l-1.4-0.3c-3.7-0.9-9.9-2.3-10.5-2.3H-14c-0.9,0.1-1.8,0.1-3.4,0.2c-5.4,0.2-10.7-1.6-14.1-4.8
			c-2.1-2.2-3.3-4.6-3.3-7.2c0-6.6,7.8-12,17.4-12S0-31.8,0-25.2c0,3.9-1.6,5.9-4.2,7.8c0,0.7,1,3.3,2,5.4L-1.5-10.8z M-13.4-14.8
			c0.8,0,6.2,1.3,9.5,2.1c-2.2-4.9-1.5-5.4-1.1-5.7c2.4-1.7,3.7-3.3,3.7-6.8c0-5.9-7.2-10.7-16.1-10.7s-16.1,4.8-16.1,10.7
			c0,2.2,1,4.4,2.9,6.2c3.1,3,8,4.6,13.2,4.5c1.6-0.1,2.4-0.1,3.3-0.2L-13.4-14.8L-13.4-14.8z"/>
	</g>
        <g>
		<path class="st1" d="M-17.3-23c-1,0-1.9-0.7-2.1-1.8l-1-6.5c-0.1-0.5,0.1-1.1,0.4-1.5s0.8-0.7,1.4-0.8c1.1-0.2,2.2,0.6,2.4,1.8
			l1,6.5c0.2,1.1-0.6,2.2-1.8,2.4C-17-23-17.2-23-17.3-23z M-18.2-32.7c-0.1,0-0.1,0-0.2,0c-0.3,0-0.6,0.2-0.8,0.5
			c-0.2,0.3-0.3,0.6-0.2,0.9l1,6.5c0.1,0.7,0.7,1.1,1.4,1l0,0c0.7-0.1,1.1-0.7,1-1.4l-1-6.5C-17.1-32.3-17.6-32.7-18.2-32.7z"/>
	</g>
        <g>
		<path class="st1" d="M-16.5-18c-0.4,0-0.9-0.1-1.2-0.4c-0.9-0.7-1.1-2-0.4-2.9c0.3-0.4,0.8-0.7,1.4-0.8s1.1,0.1,1.5,0.4
			c0.4,0.3,0.7,0.8,0.8,1.4c0.1,0.6-0.1,1.1-0.4,1.5l0,0c-0.3,0.4-0.8,0.7-1.4,0.8C-16.3-18-16.4-18-16.5-18z M-16.5-21.3
			c-0.1,0-0.1,0-0.2,0c-0.3,0-0.6,0.2-0.8,0.5c-0.4,0.5-0.3,1.3,0.2,1.7c0.3,0.2,0.6,0.3,0.9,0.2c0.3,0,0.6-0.2,0.8-0.5l0,0
			c0.2-0.3,0.3-0.6,0.2-0.9c0-0.3-0.2-0.6-0.5-0.8C-16-21.2-16.3-21.3-16.5-21.3z"/>
	</g>
</g>
    <path class="st0" d="M56.9,55.1c-0.1,2.1-1.4,3.8-3.3,5.2c-0.3,0.3,2.2,4.2,1.7,4.4c-0.6,0.3-4-3.2-4.7-3c-1.9,0.6-3.9,0.9-6.1,0.7
	c-6.6-0.5-11.6-4.4-11.3-9s5.9-7.8,12.5-7.3S57.2,50.6,56.9,55.1z"/>
    <path class="st0" d="M173.2-44.4c-0.1,1.5-1,2.8-2.4,3.8c-0.2,0.2,1.6,3,1.2,3.2c-0.4,0.2-2.9-2.3-3.4-2.2c-1.3,0.4-2.8,0.6-4.4,0.5
	c-4.7-0.3-8.4-3.2-8.2-6.5s4.2-5.6,9-5.3C169.8-50.6,173.4-47.7,173.2-44.4z"/>
    <path class="st2" d="M133.2,63.4c0,2.6-2.5,4.2-1.8,7.4c0.3,1.1,0.9,2.1,0.5,2.4c-0.4,0.3-1.7-0.8-3-1.5c-2.9-1.5-5.1-0.6-7.8-0.7
	c-5.1-0.3-11-4.4-11.1-8.6c-0.1-3.5,3.9-6.1,4.5-6.4c3.2-2,6.5-1.5,7.8-1.3C127.5,55.4,133.3,59.5,133.2,63.4z"/>
    <g>
	<path d="M60.9,68.9l-1.4-0.3c-3.7-0.9-9.9-2.3-10.5-2.3h-0.6c-0.9,0.1-1.8,0.1-3.4,0.2c-5.4,0.2-10.7-1.6-14.1-4.8
		c-2.1-2.2-3.3-4.6-3.3-7.2c0-6.6,7.8-12,17.4-12s17.4,5.4,17.4,12c0,3.9-1.6,5.9-4.2,7.8c0,0.7,1,3.3,2,5.4L60.9,68.9z M49,64.9
		c0.8,0,6.2,1.3,9.5,2.1c-2.2-4.9-1.5-5.4-1.1-5.7c2.4-1.7,3.7-3.3,3.7-6.8c0-5.9-7.2-10.7-16.1-10.7s-16.1,4.8-16.1,10.7
		c0,2.2,1,4.4,2.9,6.2c3.1,3,8,4.6,13.2,4.5c1.6-0.1,2.4-0.1,3.3-0.2L49,64.9L49,64.9z"/>
</g>
    <g>
	<path class="st1" d="M45.1,56.7c-1,0-1.9-0.7-2.1-1.8l-1-6.5c-0.1-0.5,0.1-1.1,0.4-1.5s0.8-0.7,1.4-0.8c1.1-0.2,2.2,0.6,2.4,1.8
		l1,6.5c0.2,1.1-0.6,2.2-1.8,2.4C45.4,56.7,45.2,56.7,45.1,56.7z M44.2,47c-0.1,0-0.1,0-0.2,0c-0.3,0-0.6,0.2-0.8,0.5
		c-0.2,0.3-0.3,0.6-0.2,0.9l1,6.5c0.1,0.7,0.7,1.1,1.4,1l0,0c0.7-0.1,1.1-0.7,1-1.4l-1-6.5C45.3,47.4,44.8,47,44.2,47z"/>
</g>
    <g>
	<path class="st1" d="M45.9,61.7c-0.4,0-0.9-0.1-1.2-0.4c-0.9-0.7-1.1-2-0.4-2.9c0.3-0.4,0.8-0.7,1.4-0.8c0.6-0.1,1.1,0.1,1.5,0.4
		c0.4,0.3,0.7,0.8,0.8,1.4c0.1,0.6-0.1,1.1-0.4,1.5l0,0c-0.3,0.4-0.8,0.7-1.4,0.8C46.1,61.7,46,61.7,45.9,61.7z M45.9,58.4
		c-0.1,0-0.1,0-0.2,0c-0.3,0-0.6,0.2-0.8,0.5c-0.4,0.5-0.3,1.3,0.2,1.7c0.3,0.2,0.6,0.3,0.9,0.2c0.3,0,0.6-0.2,0.8-0.5l0,0
		c0.2-0.3,0.3-0.6,0.2-0.9c0-0.3-0.2-0.6-0.5-0.8C46.4,58.5,46.1,58.4,45.9,58.4z"/>
</g>
    <g>
	<path class="st0" d="M141.3,32.9l-0.8-0.2c-2.1-0.5-5.5-1.3-5.8-1.3h-0.3c-0.5,0.1-1,0.1-1.9,0.1c-3,0.1-5.9-0.9-7.8-2.7
		c-1.2-1.2-1.8-2.6-1.8-4c0-3.7,4.3-6.7,9.7-6.7c5.3,0,9.7,3,9.7,6.7c0,2.2-0.9,3.3-2.3,4.3c0,0.4,0.6,1.8,1.1,3L141.3,32.9z
		 M134.7,30.7c0.4,0,3.4,0.7,5.3,1.2c-1.2-2.7-0.8-3-0.6-3.2c1.3-0.9,2.1-1.8,2.1-3.8c0-3.3-4-5.9-8.9-5.9c-4.9,0-8.9,2.7-8.9,5.9
		c0,1.2,0.6,2.4,1.6,3.4c1.7,1.7,4.4,2.6,7.3,2.5c0.9-0.1,1.3-0.1,1.8-0.1L134.7,30.7L134.7,30.7z"/>
</g>
    <g>
	<path class="st1" d="M166.8-44.7c-1-0.3-1.7-1.3-1.6-2.5l0.9-7c0-0.5,0.4-1.1,0.9-1.4c0.4-0.3,1-0.5,1.7-0.4
		c1.2,0.1,2.1,1.3,1.9,2.6l-0.9,7c-0.1,1.2-1.3,2.1-2.6,1.9C167.1-44.6,166.9-44.6,166.8-44.7z M168.8-54.9c-0.1,0-0.1,0-0.2-0.1
		c-0.3-0.1-0.7,0-1,0.3c-0.3,0.2-0.5,0.5-0.5,0.9l-0.9,7c-0.1,0.7,0.4,1.3,1.1,1.4l0,0c0.7,0.1,1.3-0.4,1.4-1.1l0.9-7
		C169.8-54.2,169.4-54.7,168.8-54.9z"/>
</g>
    <g>
	<path class="st1" d="M166.2-39.3c-0.4-0.1-0.9-0.4-1.1-0.8c-0.7-1-0.5-2.4,0.5-3.1c0.4-0.3,1-0.5,1.7-0.4s1.1,0.4,1.4,0.9
		c0.3,0.4,0.5,1,0.4,1.7c-0.1,0.6-0.4,1.1-0.9,1.4l0,0c-0.4,0.3-1,0.5-1.7,0.4C166.4-39.2,166.3-39.2,166.2-39.3z M167.1-42.7
		c-0.1,0-0.1,0-0.2-0.1c-0.3-0.1-0.7,0-1,0.3c-0.6,0.4-0.7,1.2-0.3,1.8c0.2,0.3,0.5,0.5,0.9,0.5c0.3,0.1,0.7,0,1-0.3l0,0
		c0.3-0.2,0.5-0.5,0.5-0.9c0.1-0.3,0-0.7-0.3-1C167.6-42.4,167.4-42.6,167.1-42.7z"/>
</g>
    <g>
	<path d="M183-33.6l-1.4-0.3c-3.7-0.9-9.9-2.3-10.5-2.3h-0.6c-0.9,0.1-1.8,0.1-3.4,0.2c-5.4,0.2-10.7-1.6-14.1-4.8
		c-2.1-2.2-3.3-4.6-3.3-7.2c0-6.6,7.8-12,17.4-12c9.6,0,17.4,5.4,17.4,12c0,3.9-1.6,5.9-4.2,7.8c0,0.7,1,3.3,2,5.4L183-33.6z
		 M171.1-37.6c0.8,0,6.2,1.3,9.5,2.1c-2.2-4.9-1.5-5.4-1.1-5.7c2.4-1.7,3.7-3.3,3.7-6.8c0-5.9-7.2-10.7-16.1-10.7
		c-8.9,0-16.1,4.8-16.1,10.7c0,2.2,1,4.4,2.9,6.2c3.1,3,8,4.6,13.2,4.5c1.6-0.1,2.4-0.1,3.3-0.2L171.1-37.6L171.1-37.6z"/>
</g>
    <path class="st2" d="M68.3,103.6c-1.2-0.6-2.4-1.4-3.2-2.6c-0.8-1.2-1.1-2.7-0.5-3.9c1-2.4,3.9-3,6.5-3.2c2.7-0.3,5.5-0.6,8.1,0.1
	s5.1,2.6,5.7,5.2c0.6,2.6-0.6,5.4-1.3,7.8c-0.9,2.8-0.7,3.1-3,1.6C76.6,106,72.5,105.5,68.3,103.6z"/>
    <path class="st2" d="M61.5-19.1c-0.4-0.1-1.7-0.6-2.9-1.7C58-21.4,57.3-22,57.2-23c-0.1-0.9,0.3-1.8,0.8-2.5c0.6-0.7,1.3-1.1,2-1.5
	c0.6-0.3,1.2-0.5,1.9-0.8c1.1-0.3,2.9-0.9,5.1-0.7c1.2,0.1,1.9,0.2,2.7,0.6c0.8,0.5,1.5,1.3,1.7,2.3c0.2,1.1-0.2,2.1-0.7,3.1
	c-0.4,1-1,1.9-1,3c0,0.9,0.4,1.8,1.2,2.3C70.1-17.2,65-17.9,61.5-19.1z"/>
    <path class="st0" d="M25.1,14c-0.1,1.5-1,2.8-2.4,3.8c-0.2,0.2,1.6,3,1.2,3.2c-0.4,0.2-2.9-2.3-3.4-2.2c-1.3,0.4-2.8,0.7-4.4,0.5
	c-4.8-0.3-8.4-3.2-8.2-6.5c0.2-3.3,4.3-5.7,9-5.3C21.7,7.8,25.4,10.7,25.1,14z"/>
    <g>
	<path class="st3" d="M18,15.5c-1.1,0-2-0.7-2.2-1.9l-1.1-7C14.6,6,14.8,5.4,15.1,5c0.3-0.4,0.9-0.7,1.5-0.9
		c1.2-0.2,2.4,0.6,2.6,1.9l1.1,7c0.2,1.2-0.6,2.4-1.9,2.6C18.3,15.5,18.1,15.5,18,15.5z M17,5.1c-0.1,0-0.1,0-0.2,0
		c-0.3,0-0.6,0.2-0.9,0.5c-0.2,0.3-0.3,0.6-0.2,1l1.1,7c0.1,0.7,0.7,1.2,1.5,1.1l0,0c0.7-0.1,1.2-0.7,1.1-1.5l-1.1-7
		C18.2,5.5,17.7,5.1,17,5.1z"/>
</g>
    <g>
	<path class="st3" d="M18.8,20.8c-0.4,0-1-0.1-1.3-0.4c-1-0.7-1.2-2.1-0.4-3.1c0.3-0.4,0.9-0.7,1.5-0.9c0.6-0.1,1.2,0.1,1.6,0.4
		c0.4,0.3,0.7,0.9,0.9,1.5c0.1,0.6-0.1,1.2-0.4,1.6l0,0c-0.3,0.4-0.9,0.7-1.5,0.9C19.1,20.8,18.9,20.8,18.8,20.8z M18.8,17.3
		c-0.1,0-0.1,0-0.2,0c-0.3,0-0.6,0.2-0.9,0.5c-0.4,0.5-0.3,1.4,0.2,1.8c0.3,0.2,0.6,0.3,1,0.2c0.3,0,0.6-0.2,0.9-0.5l0,0
		c0.2-0.3,0.3-0.6,0.2-1c0-0.3-0.2-0.6-0.5-0.9C19.4,17.4,19.1,17.3,18.8,17.3z"/>
</g>
    <g>
	<path d="M33.3,26.4L32,26.1c-3.7-0.9-9.9-2.3-10.5-2.3h-0.6c-0.9,0.1-1.8,0.1-3.4,0.2c-5.4,0.2-10.7-1.6-14.1-4.8
		C1.3,17,0.1,14.6,0.1,12c0-6.6,7.8-12,17.4-12s17.4,5.4,17.4,12c0,3.9-1.6,5.9-4.2,7.8c0,0.7,1,3.3,2,5.4L33.3,26.4z M21.5,22.4
		c0.8,0,6.2,1.3,9.5,2.1c-2.2-4.9-1.5-5.4-1.1-5.7c2.4-1.7,3.7-3.3,3.7-6.8c0-5.9-7.2-10.7-16.1-10.7S1.4,6.1,1.4,12
		c0,2.2,1,4.4,2.9,6.2c3.1,3,8,4.6,13.2,4.5c1.6-0.1,2.4-0.1,3.3-0.2L21.5,22.4L21.5,22.4z"/>
</g>
</svg>
