<?xml version="1.0" encoding="utf-8"?>
<!-- Generator: Adobe Illustrator 25.0.1, SVG Export Plug-In . SVG Version: 6.00 Build 0)  -->
<svg version="1.1" id="Слой_1" xmlns="http://www.w3.org/2000/svg" xmlns:xlink="http://www.w3.org/1999/xlink" x="0px" y="0px"
     viewBox="0 0 132.4 79.4" style="enable-background:new 0 0 132.4 79.4;" xml:space="preserve">
<style type="text/css">
	.st0{fill:none;stroke:#000000;stroke-miterlimit:10;}
	.st1{fill:#0097AE;}
	.st2{fill:#FFFFFF;}
	.st3{fill:none;stroke:#FFFFFF;stroke-width:0.5;stroke-miterlimit:10;}
	.st4{fill:#0096AD;}
	.st5{fill:none;stroke:#000000;stroke-width:0.75;stroke-miterlimit:10.0002;}
	.st6{fill:none;stroke:#000000;stroke-width:0.5;stroke-miterlimit:10;}
</style>
    <path class="st0" d="M513.8,52.2c0,2-1.1,3.7-2.8,5.1c-0.3,0.3,2.3,3.8,1.9,4c-0.5,0.3-4-2.7-4.6-2.5c-1.7,0.7-3.6,1.1-5.7,1.1
	c-6.2,0-11.2-3.4-11.2-7.7s5-7.7,11.2-7.7C508.8,44.5,513.8,47.9,513.8,52.2z"/>
    <g>
	<path d="M551.1,17.1l-1.4-0.3c-3.7-0.9-9.9-2.3-10.5-2.3h-0.6c-0.9,0.1-1.8,0.1-3.4,0.2c-5.4,0.2-10.7-1.6-14.1-4.8
		c-2.1-2.2-3.3-4.6-3.3-7.2c0-6.6,7.8-12,17.4-12c9.6,0,17.4,5.4,17.4,12c0,3.9-1.6,5.9-4.2,7.8c0,0.7,1,3.3,2,5.4L551.1,17.1z
		 M539.2,13.1c0.8,0,6.2,1.3,9.5,2.1c-2.2-4.9-1.5-5.4-1.1-5.7c2.4-1.7,3.7-3.3,3.7-6.8c0-5.9-7.2-10.7-16.1-10.7
		c-8.9,0-16.1,4.8-16.1,10.7c0,2.2,1,4.4,2.9,6.2c3.1,3,8,4.6,13.2,4.5c1.6-0.1,2.4-0.1,3.3-0.2L539.2,13.1L539.2,13.1z"/>
</g>
    <g>
	<path class="st1" d="M535.3,4.9c-1,0-1.9-0.7-2.1-1.8l-1-6.5c-0.1-0.5,0.1-1.1,0.4-1.5s0.8-0.7,1.4-0.8c1.1-0.2,2.2,0.6,2.4,1.8
		l1,6.5c0.2,1.1-0.6,2.2-1.8,2.4C535.6,4.9,535.4,4.9,535.3,4.9z M534.4-4.8c-0.1,0-0.1,0-0.2,0c-0.3,0-0.6,0.2-0.8,0.5
		s-0.3,0.6-0.2,0.9l1,6.5c0.1,0.7,0.7,1.1,1.4,1l0,0c0.7-0.1,1.1-0.7,1-1.4l-1-6.5C535.5-4.4,535-4.8,534.4-4.8z"/>
</g>
    <g>
	<path class="st1" d="M536.1,9.9c-0.4,0-0.9-0.1-1.2-0.4c-0.9-0.7-1.1-2-0.4-2.9c0.3-0.4,0.8-0.7,1.4-0.8c0.6-0.1,1.1,0.1,1.5,0.4
		c0.4,0.3,0.7,0.8,0.8,1.4c0.1,0.6-0.1,1.1-0.4,1.5l0,0c-0.3,0.4-0.8,0.7-1.4,0.8C536.3,9.9,536.2,9.9,536.1,9.9z M536.1,6.6
		c-0.1,0-0.1,0-0.2,0c-0.3,0-0.6,0.2-0.8,0.5c-0.4,0.5-0.3,1.3,0.2,1.7c0.3,0.2,0.6,0.3,0.9,0.2c0.3,0,0.6-0.2,0.8-0.5l0,0
		c0.2-0.3,0.3-0.6,0.2-0.9c0-0.3-0.2-0.6-0.5-0.8C536.6,6.7,536.3,6.6,536.1,6.6z"/>
</g>
    <path class="st0" d="M567.9,64.6c-0.1,2.1-1.4,3.8-3.3,5.2c-0.3,0.3,2.2,4.2,1.7,4.4c-0.6,0.3-4-3.2-4.7-3c-1.9,0.6-3.9,0.9-6.1,0.7
	c-6.6-0.5-11.6-4.4-11.3-9c0.3-4.6,5.9-7.8,12.5-7.3C563.3,56.1,568.2,60.1,567.9,64.6z"/>
    <path class="st2" d="M462.7,23c-0.1,1.5-1,2.8-2.4,3.8c-0.2,0.2,1.6,3,1.2,3.2c-0.4,0.2-2.9-2.3-3.4-2.2c-1.3,0.4-2.8,0.6-4.4,0.5
	c-4.7-0.3-8.4-3.2-8.2-6.5c0.2-3.3,4.2-5.6,9-5.3C459.3,16.8,462.9,19.7,462.7,23z"/>
    <path class="st3" d="M569.5,91.8c0,2.6-2.5,4.2-1.8,7.4c0.3,1.1,0.9,2.1,0.5,2.4c-0.4,0.3-1.7-0.8-3-1.5c-2.9-1.5-5.1-0.6-7.8-0.7
	c-5.1-0.3-11-4.4-11.1-8.6c-0.1-3.5,3.9-6.1,4.5-6.4c3.2-2,6.5-1.5,7.8-1.3C563.8,83.8,569.6,87.9,569.5,91.8z"/>
    <g>
	<path d="M529.7,100.7l-1.4-0.3c-3.7-0.9-9.9-2.3-10.5-2.3h-0.6c-0.9,0.1-1.8,0.1-3.4,0.2c-5.4,0.2-10.7-1.6-14.1-4.8
		c-2.1-2.2-3.3-4.6-3.3-7.2c0-6.6,7.8-12,17.4-12c9.6,0,17.4,5.4,17.4,12c0,3.9-1.6,5.9-4.2,7.8c0,0.7,1,3.3,2,5.4L529.7,100.7z
		 M517.8,96.7c0.8,0,6.2,1.3,9.5,2.1c-2.2-4.9-1.5-5.4-1.1-5.7c2.4-1.7,3.7-3.3,3.7-6.8c0-5.9-7.2-10.7-16.1-10.7
		c-8.9,0-16.1,4.8-16.1,10.7c0,2.2,1,4.4,2.9,6.2c3.1,3,8,4.6,13.2,4.5c1.6-0.1,2.4-0.1,3.3-0.2L517.8,96.7L517.8,96.7z"/>
</g>
    <g>
	<path class="st1" d="M529.1,70.9c0.7,0.1,1.2,0.8,1.2,2v6.6c0,0.5-0.2,1.1-0.4,1.5s-0.6,0.7-1,0.7c-0.8,0.1-1.4-0.8-1.4-2v-6.6
		c0-1.1,0.6-2.2,1.4-2.3C528.9,70.9,529.1,70.9,529.1,70.9z M528.7,80.8c0.1,0,0.1,0,0.1,0c0.2,0,0.4-0.2,0.6-0.5
		c0.2-0.3,0.3-0.6,0.2-0.9v-6.6c0-0.7-0.4-1.2-0.8-1.1l0,0c-0.5,0.1-0.8,0.6-0.8,1.3v6.6C528.1,80.3,528.3,80.7,528.7,80.8z"/>
</g>
    <g>
	<path class="st1" d="M529,66.3c0.3,0,0.6,0.1,0.8,0.4c0.5,0.7,0.6,1.8,0,2.6c-0.2,0.3-0.6,0.6-1,0.6c-0.4,0-0.7-0.2-1-0.5
		c-0.2-0.3-0.4-0.8-0.4-1.3s0.2-1,0.4-1.3l0,0c0.2-0.3,0.6-0.6,1-0.6C528.9,66.3,529,66.3,529,66.3z M528.7,69.2c0.1,0,0.1,0,0.1,0
		c0.2,0,0.4-0.1,0.6-0.4c0.3-0.4,0.3-1.1,0-1.5c-0.2-0.2-0.4-0.3-0.6-0.2c-0.2,0-0.4,0.1-0.6,0.4l0,0c-0.2,0.3-0.3,0.5-0.2,0.8
		c0,0.3,0.1,0.5,0.3,0.7C528.4,69.1,528.6,69.2,528.7,69.2z"/>
</g>
    <g>
	<path class="st2" d="M430.8,100.3l-0.8-0.2c-2.1-0.5-5.5-1.3-5.8-1.3h-0.3c-0.5,0.1-1,0.1-1.9,0.1c-3,0.1-5.9-0.9-7.8-2.7
		c-1.2-1.2-1.8-2.6-1.8-4c0-3.7,4.3-6.7,9.7-6.7c5.3,0,9.7,3,9.7,6.7c0,2.2-0.9,3.3-2.3,4.3c0,0.4,0.6,1.8,1.1,3L430.8,100.3z
		 M424.2,98.1c0.4,0,3.4,0.7,5.3,1.2c-1.2-2.7-0.8-3-0.6-3.2c1.3-0.9,2.1-1.8,2.1-3.8c0-3.3-4-5.9-8.9-5.9s-8.9,2.7-8.9,5.9
		c0,1.2,0.6,2.4,1.6,3.4c1.7,1.7,4.4,2.6,7.3,2.5c0.9-0.1,1.3-0.1,1.8-0.1H424.2L424.2,98.1z"/>
</g>
    <g>
	<path class="st1" d="M456.3,22.7c-1-0.3-1.7-1.3-1.6-2.5l0.9-7c0-0.5,0.4-1.1,0.9-1.4c0.4-0.3,1-0.5,1.7-0.4
		c1.2,0.1,2.1,1.3,1.9,2.6l-0.9,7c-0.1,1.2-1.3,2.1-2.6,1.9C456.6,22.8,456.4,22.8,456.3,22.7z M458.3,12.5c-0.1,0-0.1,0-0.2-0.1
		c-0.3-0.1-0.7,0-1,0.3c-0.3,0.2-0.5,0.5-0.5,0.9l-0.9,7c-0.1,0.7,0.4,1.3,1.1,1.4l0,0c0.7,0.1,1.3-0.4,1.4-1.1l0.9-7
		C459.3,13.2,458.9,12.7,458.3,12.5z"/>
</g>
    <g>
	<path class="st1" d="M455.7,28.1c-0.4-0.1-0.9-0.4-1.1-0.8c-0.7-1-0.5-2.4,0.5-3.1c0.4-0.3,1-0.5,1.7-0.4c0.7,0.1,1.1,0.4,1.4,0.9
		c0.3,0.4,0.5,1,0.4,1.7c-0.1,0.6-0.4,1.1-0.9,1.4l0,0c-0.4,0.3-1,0.5-1.7,0.4C455.9,28.2,455.8,28.2,455.7,28.1z M456.6,24.7
		c-0.1,0-0.1,0-0.2-0.1c-0.3-0.1-0.7,0-1,0.3c-0.6,0.4-0.7,1.2-0.3,1.8c0.2,0.3,0.5,0.5,0.9,0.5c0.3,0.1,0.7,0,1-0.3l0,0
		c0.3-0.2,0.5-0.5,0.5-0.9c0.1-0.3,0-0.7-0.3-1C457.1,25,456.9,24.8,456.6,24.7z"/>
</g>
    <g>
	<path d="M472.5,33.8l-1.4-0.3c-3.7-0.9-9.9-2.3-10.5-2.3H460c-0.9,0.1-1.8,0.1-3.4,0.2c-5.4,0.2-10.7-1.6-14.1-4.8
		c-2.1-2.2-3.3-4.6-3.3-7.2c0-6.6,7.8-12,17.4-12s17.4,5.4,17.4,12c0,3.9-1.6,5.9-4.2,7.8c0,0.7,1,3.3,2,5.4L472.5,33.8z
		 M460.6,29.8c0.8,0,6.2,1.3,9.5,2.1c-2.2-4.9-1.5-5.4-1.1-5.7c2.4-1.7,3.7-3.3,3.7-6.8c0-5.9-7.2-10.7-16.1-10.7
		s-16.1,4.8-16.1,10.7c0,2.2,1,4.4,2.9,6.2c3.1,3,8,4.6,13.2,4.5c1.6-0.1,2.4-0.1,3.3-0.2L460.6,29.8L460.6,29.8z"/>
</g>
    <path class="st3" d="M504.6,132c-1.2-0.6-2.4-1.4-3.2-2.6c-0.8-1.2-1.1-2.7-0.5-3.9c1-2.4,3.9-3,6.5-3.2c2.7-0.3,5.5-0.6,8.1,0.1
	c2.6,0.7,5.1,2.6,5.7,5.2c0.6,2.6-0.6,5.4-1.3,7.8c-0.9,2.8-0.7,3.1-3,1.6C512.9,134.4,508.8,133.9,504.6,132z"/>
    <path class="st3" d="M497.8,9.3c-0.4-0.1-1.7-0.6-2.9-1.7c-0.6-0.6-1.3-1.2-1.4-2.2c-0.1-0.9,0.3-1.8,0.8-2.5c0.6-0.7,1.3-1.1,2-1.5
	c0.6-0.3,1.2-0.5,1.9-0.8c1.1-0.3,2.9-0.9,5.1-0.7c1.2,0.1,1.9,0.2,2.7,0.6c0.8,0.5,1.5,1.3,1.7,2.3c0.2,1.1-0.2,2.1-0.7,3.1
	c-0.4,1-1,1.9-1,3c0,0.9,0.4,1.8,1.2,2.3C506.4,11.2,501.3,10.5,497.8,9.3z"/>
    <path class="st0" d="M-341.7,6.4c-0.1,1.1-0.8,2-1.9,2.7c-0.2,0.1,0.9,1.5,0.9,1.5s-2.2-0.8-2.6-0.7c-1,0.3-2.2,0.5-3.4,0.4
	c-3.7-0.2-6.6-2.3-6.4-4.6c0.2-2.3,3.4-4.1,7-3.8C-344.4,2-341.5,4.1-341.7,6.4z"/>
    <g>
	<path class="st4" d="M-349.6,6.8c-1.1-0.2-1.8-1.1-1.7-2.3l0.4-7.1c0-0.6,0.4-1.2,0.7-1.5c0.4-0.3,1-0.5,1.7-0.6
		c1.2,0.1,2.2,1.1,2.1,2.4l-0.4,7.1c-0.1,1.2-1.1,2.2-2.4,2.1C-349.3,6.8-349.5,6.8-349.6,6.8z M-348.4-3.6c-0.1,0-0.1,0-0.2,0
		c-0.3-0.1-0.6,0.1-1,0.3c-0.3,0.3-0.4,0.5-0.4,0.9l-0.4,7.1c-0.1,0.7,0.4,1.3,1.2,1.4l0,0c0.7,0.1,1.3-0.4,1.4-1.2l0.4-7.1
		C-347.3-3-347.7-3.5-348.4-3.6z"/>
</g>
    <g>
	<path class="st4" d="M-350,12.1c-0.4-0.1-1-0.3-1.2-0.7c-0.8-0.9-0.7-2.3,0.3-3.1c0.4-0.3,1-0.5,1.7-0.6c0.6,0,1.2,0.4,1.5,0.7
		c0.3,0.4,0.5,1,0.6,1.7c0,0.6-0.4,1.2-0.7,1.5l0,0c-0.4,0.3-1,0.5-1.7,0.6C-349.7,12.2-349.9,12.1-350,12.1z M-349.2,8.7
		c-0.1,0-0.1,0-0.2,0c-0.3-0.1-0.6,0.1-1,0.3c-0.5,0.4-0.6,1.3-0.2,1.8c0.3,0.3,0.5,0.4,0.9,0.4c0.3,0.1,0.6-0.1,1-0.3l0,0
		c0.3-0.3,0.4-0.5,0.4-0.9c0.1-0.3-0.1-0.6-0.3-1C-348.7,8.9-348.9,8.8-349.2,8.7z"/>
</g>
    <g>
	<path d="M-333.7,17.7l-1.3-0.3c-3.7-0.9-9.9-2.3-10.5-2.3h-0.6c-0.9,0.1-1.8,0.1-3.4,0.2c-5.4,0.2-10.7-1.6-14.1-4.8
		c-2.1-2.2-3.3-4.6-3.3-7.2c0-6.6,7.8-12,17.4-12c9.6,0,17.4,5.4,17.4,12c0,3.9-1.6,5.9-4.2,7.8c0,0.7,1,3.3,2,5.4L-333.7,17.7z
		 M-345.5,13.7c0.8,0,6.2,1.3,9.5,2.1c-2.2-4.9-1.5-5.4-1.1-5.7c2.4-1.7,3.7-3.3,3.7-6.8c0-5.9-7.2-10.7-16.1-10.7
		c-8.9,0-16.1,4.8-16.1,10.7c0,2.2,1,4.4,2.9,6.2c3.1,3,8,4.6,13.2,4.5c1.6-0.1,2.4-0.1,3.3-0.2L-345.5,13.7L-345.5,13.7z"/>
</g>
    <g>
	<g>
		<path d="M517.8,6.6c-21.9,0-39.6-17.8-39.6-39.6c0-21.9,17.8-39.6,39.6-39.6c21.8,0,39.6,17.8,39.6,39.6S539.6,6.6,517.8,6.6z
			 M517.8-71.9c-21.5,0-38.9,17.4-38.9,38.9c0,21.4,17.5,38.9,38.9,38.9c21.4,0,38.9-17.5,38.9-38.9
			C556.7-54.5,539.2-71.9,517.8-71.9z"/>
	</g>
</g>
    <g>
	<path d="M-323-160.2c-14.6,0-26.5-11.9-26.5-26.5c0-14.6,11.9-26.5,26.5-26.5c14.6,0,26.5,11.9,26.5,26.5c0,2.9-0.8,5.6-1.6,8.2
		c-0.3,0.9-0.5,1.8-0.8,2.7c-1,3.8,0.6,13.8,0.6,13.9l0.1,0.5h-0.5c-0.1,0-6.6-0.5-9.3-0.1C-311.2-161.2-319.6-160.2-323-160.2z
		 M-323-212.5c-14.2,0-25.8,11.6-25.8,25.8c0,14.2,11.6,25.8,25.8,25.8c3.3,0,11.6-0.9,15-1.5c2.4-0.4,7.4-0.1,9,0
		c-0.3-2.1-1.4-10.1-0.5-13.7c0.2-0.9,0.5-1.8,0.8-2.7c0.8-2.5,1.5-5.2,1.5-8C-297.3-200.9-308.8-212.5-323-212.5z"/>
</g>
    <ellipse transform="matrix(0.3162 -0.9487 0.9487 0.3162 529.6005 386.9706)" class="st5" cx="533.3" cy="-173.9" rx="39.3" ry="39.3"/>
    <path class="st6" d="M559.3-173.9c0,3.8-1.4,7.3-2.3,10.8c-1,4,0.6,14,0.6,14s-6.6-0.5-9.4-0.1c-3.2,0.5-11.6,1.5-15,1.5
	c-14.4,0-26.1-11.7-26.1-26.1s11.7-26.1,26.1-26.1C547.6-200,559.3-188.3,559.3-173.9z"/>
    <g>
	<path class="st6" d="M531.2-182.6h4c0.6,0,1,0.5,1,1v25.4c0,0.6-0.5,1-1,1h-4c-0.6,0-1-0.5-1-1v-25.4
		C530.2-182.1,530.6-182.6,531.2-182.6z"/>
        <circle class="st6" cx="533.2" cy="-189.6" r="3"/>
</g>
    <g>
	<g>
		<g>
			<g>
				<path class="st1" d="M66.3,59.2c-2.2,0-4-1.8-4-4V33.8c0-2.2,1.8-4,4-4c2.2,0,4,1.8,4,4v21.5C70.2,57.4,68.5,59.2,66.3,59.2z
					 M66.3,31.8c-1.1,0-2,0.9-2,2v21.5c0,1.1,0.9,2,2,2s2-0.9,2-2V33.8C68.2,32.7,67.4,31.8,66.3,31.8z"/>
			</g>
		</g>
	</g>
        <g>
		<g>
			<g>
				<path class="st1" d="M66.3,27.7c-2.2,0-4-1.8-4-4s1.8-4,4-4c2.2,0,4,1.8,4,4C70.2,25.9,68.5,27.7,66.3,27.7z M66.3,21.8
					c-1.1,0-2,0.9-2,2s0.9,2,2,2s2-0.9,2-2S67.4,21.8,66.3,21.8z"/>
			</g>
		</g>
	</g>
</g>
    <g>
	<g>
		<path class="st2" d="M66.3,65.9c-14.6,0-26.4-11.8-26.4-26.4s11.8-26.4,26.4-26.4s26.4,11.8,26.4,26.4c0,2.9-0.8,5.6-1.6,8.2
			c-0.3,0.9-0.5,1.8-0.8,2.7c-1,3.9,0.6,13.8,0.6,13.9v0.3h-0.3c-0.1,0-6.6-0.5-9.3-0.1C77.9,64.9,69.6,65.9,66.3,65.9z M66.3,13.6
			c-14.3,0-25.9,11.6-25.9,25.9S52,65.4,66.3,65.4c3.3,0,11.6-0.9,15-1.5c2.5-0.4,7.8,0,9.1,0.1c-0.3-1.8-1.5-10.2-0.5-13.8
			c0.2-0.9,0.5-1.8,0.8-2.7c0.8-2.6,1.5-5.2,1.5-8C92.2,25.2,80.5,13.6,66.3,13.6z"/>
	</g>
</g>
    <g>
	<path class="st2" d="M93.6,79.3H39c-6.9,0-12.5-5.6-12.5-12.5V12.2c0-6.9,5.6-12.5,12.5-12.5h54.6c6.9,0,12.5,5.6,12.5,12.5v54.6
		C106.1,73.7,100.5,79.3,93.6,79.3z M39,0.7c-6.4,0-11.5,5.2-11.5,11.5v54.6c0,6.3,5.2,11.5,11.5,11.5h54.6
		c6.3,0,11.5-5.2,11.5-11.5V12.2c0-6.3-5.2-11.5-11.5-11.5C93.6,0.7,39,0.7,39,0.7z"/>
</g>
</svg>
