<?xml version="1.0" encoding="utf-8"?>
<!-- Generator: Adobe Illustrator 25.0.1, SVG Export Plug-In . SVG Version: 6.00 Build 0)  -->
<svg version="1.1" id="Слой_1" xmlns="http://www.w3.org/2000/svg" xmlns:xlink="http://www.w3.org/1999/xlink" x="0px" y="0px"
	 viewBox="0 0 34 47.3" style="enable-background:new 0 0 34 47.3;" xml:space="preserve">
<style type="text/css">
	.st0{clip-path:url(#SVGID_2_);fill:#0097AE;}
	.st1{clip-path:url(#SVGID_2_);}
	.st2{clip-path:url(#SVGID_2_);fill:#FFFFFF;}
</style>
<g>
	<defs>
		<rect id="SVGID_1_" width="34" height="47.3"/>
	</defs>
	<clipPath id="SVGID_2_">
		<use xlink:href="#SVGID_1_"  style="overflow:visible;"/>
	</clipPath>
	<path class="st0" d="M16.9,12.2c4.4,0,8.5,1.3,11.3,3.5c3,2.2,4.8,5.2,4.8,8.6c0,2-0.6,3.9-1.8,5.5c-1.1,1.7-2.8,3.1-4.7,4.2
		l-1.1,3.8l-1.6,5.6c0,0.2-0.3,0.3-0.4,0.3c-0.1,0-0.2-0.2-0.3-0.3l-1.6-5.6L21.1,36c-0.6,0.1-1.3,0.2-1.9,0.3
		c-0.7,0.1-1.5,0.1-2.3,0.1c-4.4,0-8.4-1.3-11.3-3.5c-2.9-2.2-4.7-5.2-4.7-8.6c0-3.3,1.8-6.4,4.7-8.6C8.5,13.5,12.5,12.2,16.9,12.2
		 M27.8,16.3c-2.8-2.1-6.6-3.3-10.9-3.3c-4.3,0-8.1,1.3-10.9,3.3c-2.8,2.1-4.4,4.9-4.4,8c0,3.1,1.7,6,4.4,8
		c2.8,2.1,6.6,3.3,10.9,3.3c0.8,0,1.5-0.1,2.2-0.1c0.7-0.1,1.4-0.2,2.2-0.3c0.2-0.1,0.3,0.1,0.4,0.3l0.6,2.1l1.2,4.4l1.2-4.3v0
		l1.1-3.9c0-0.1,0.1-0.2,0.2-0.2c1.9-1.1,3.5-2.5,4.6-4c1-1.6,1.6-3.3,1.6-5.1C32.3,21.2,30.6,18.4,27.8,16.3"/>
	<path class="st0" d="M23.5,44.1c-0.1,0-0.1,0-0.2,0c-0.2-0.1-0.4-0.2-0.5-0.5l0-0.1l-2-7c-0.5,0.1-1,0.2-1.6,0.2
		C14,37.4,8.9,36,5.3,33.3c-3.2-2.4-4.9-5.6-4.9-9c0-3.4,1.7-6.5,4.9-8.9c3.1-2.3,7.2-3.6,11.6-3.6c4.4,0,8.6,1.3,11.6,3.6
		c3.2,2.4,5,5.5,5,8.9c0,2-0.6,4-1.9,5.8c-1,1.6-2.6,3-4.7,4.3l-2.6,9.2c0,0.2-0.2,0.4-0.4,0.5C23.8,44,23.7,44.1,23.5,44.1
		 M21.4,34.8c0.3,0,0.6,0.2,0.8,0.5l1.4,5l1.9-6.7c0-0.2,0.2-0.4,0.4-0.5c1.9-1.1,3.4-2.4,4.5-3.9c1-1.6,1.5-3.2,1.5-4.9
		c0-2.9-1.5-5.6-4.3-7.6l0,0c-2.8-2.1-6.6-3.3-10.6-3.3c-4,0-7.8,1.2-10.7,3.3C3.5,18.7,2,21.4,2,24.3c0,2.9,1.5,5.6,4.3,7.7
		c2.8,2.1,6.6,3.3,10.6,3.3c0.7,0,1.4,0,2.2-0.1c0.7-0.1,1.4-0.2,2.1-0.3C21.3,34.8,21.3,34.8,21.4,34.8"/>
	<path class="st1" d="M14.6,22.1l7.9,0c0.3,0,0.5,0.2,0.5,0.5c0,0.3-0.2,0.5-0.5,0.5l-7.9,0c-0.3,0-0.5-0.2-0.5-0.5
		C14.1,22.4,14.3,22.1,14.6,22.1"/>
	<path class="st1" d="M14.6,24.1l7.9,0c0.3,0,0.5,0.2,0.5,0.5c0,0.3-0.2,0.5-0.5,0.5l-7.9,0c-0.3,0-0.5-0.2-0.5-0.5
		C14.1,24.4,14.3,24.1,14.6,24.1"/>
	<path class="st1" d="M14.6,26l7.9,0c0.3,0,0.5,0.2,0.5,0.5c0,0.3-0.2,0.5-0.5,0.5l-7.9,0c-0.3,0-0.5-0.2-0.5-0.5
		C14.1,26.2,14.3,26,14.6,26"/>
	<path class="st1" d="M28.1,12.2c0-2.6-1.3-5.2-3-7.1c-1.9-2.1-4.5-3.3-7.3-3.3c-5.7,0-10.3,4.2-10.2,10.5c0,4,2.2,7.5,5.6,9.3v0.1
		c-0.3,0.2-0.5,0.6-0.5,1c0,0.4,0.2,0.8,0.5,1v0.2c-0.3,0.2-0.5,0.6-0.5,1c0,0.4,0.2,0.8,0.5,1v0.1c-0.3,0.2-0.5,0.6-0.5,1
		c0,0.6,0.4,1,0.9,1.2c0.4,0.8,1.1,1.4,2.1,1.4h5c0.9,0,1.7-0.6,2-1.4c0.5-0.1,1-0.6,1-1.2c0-0.4-0.3-0.8-0.6-1
		c0.3-0.2,0.6-0.6,0.6-1c0-0.5-0.3-0.9-0.7-1v-0.1c0.4-0.2,0.7-0.6,0.7-1.1c0-0.5-0.3-0.9-0.7-1.1v-0.1
		C26.4,19.5,28.1,16.4,28.1,12.2 M22.4,22.1c0.3,0,0.5,0.3,0.5,0.6c0,0.3-0.3,0.6-0.5,0.6h-0.1v1h0.1c0.3,0,0.5,0.3,0.5,0.6
		c0,0.3-0.2,0.6-0.5,0.6h-0.1v0.9h0.1c0.3,0,0.5,0.3,0.5,0.6c0,0.3-0.2,0.6-0.5,0.6h-0.3c-0.3,0.8-0.9,1.3-1.7,1.3l-5,0.1
		c-0.8,0-1.4-0.6-1.6-1.4h-0.1c-0.3,0-0.5-0.2-0.5-0.6c0-0.3,0.3-0.6,0.5-0.6V26v-0.6c-0.3,0-0.5-0.3-0.5-0.6c0-0.3,0.3-0.6,0.5-0.6
		v-1.1c-0.3,0-0.5-0.2-0.5-0.6c0-0.3,0.3-0.6,0.5-0.6v-0.8v-0.1h0c-3.3-1.6-5.6-5-5.6-8.9c0-5.9,4.3-9.9,9.6-9.9
		c5.3,0,9.7,5.2,9.7,9.8c0,4.6-2.1,7.3-5.2,8.9v0.1v0v0.1v0.8L22.4,22.1z"/>
	<path class="st1" d="M20.5,29.9h-5c-1,0-1.9-0.6-2.4-1.5c-0.6-0.3-1-0.9-1-1.5c0-0.4,0.1-0.7,0.3-1c-0.2-0.3-0.3-0.6-0.3-1
		c0-0.4,0.1-0.8,0.4-1.1c-0.3-0.3-0.4-0.7-0.4-1.1c0-0.4,0.1-0.7,0.3-1c-3.3-1.9-5.4-5.5-5.4-9.4c0-3,1.1-5.8,3-7.8
		c2-2,4.7-3.1,7.6-3.1c2.8,0,5.5,1.2,7.6,3.5c2,2.1,3.1,4.8,3.1,7.4c0,4.2-1.7,7.3-4.9,9.4c0.2,0.3,0.4,0.7,0.4,1.1
		c0,0.4-0.1,0.8-0.4,1.1c0.3,0.3,0.4,0.6,0.4,1c0,0.4-0.1,0.8-0.4,1.1c0.2,0.3,0.4,0.7,0.4,1c0,0.7-0.5,1.3-1.2,1.6
		C22.3,29.3,21.4,29.9,20.5,29.9 M13.8,26.8c0,0-0.1,0-0.1,0.1c0,0.1,0.1,0.1,0.1,0.1h0.5l0.1,0.3c0.2,0.6,0.7,1.1,1.2,1.1l4.9-0.1
		c0.5,0,1-0.4,1.2-1l0.1-0.3h0.6c0.1,0,0.1-0.1,0.1-0.1c0-0.1-0.1-0.1-0.1-0.1h-0.6v-1.8h0.6c0.1,0,0.1,0,0.1-0.1
		c0-0.1-0.1-0.1-0.1-0.1h-0.6v-1.9h0.6c0,0,0.1,0,0.1-0.1c0-0.1-0.1-0.1-0.1-0.1l-0.2,0l-0.3-0.1v-1.6l0.2-0.2c3.4-1.8,5-4.5,5-8.5
		c0-4.3-4-9.4-9.2-9.4c-2.6,0-4.9,0.9-6.6,2.6c-1.7,1.7-2.6,4.1-2.6,6.8c0,3.6,2.1,6.9,5.2,8.4h0.4l0,0.6v1.3h-0.5
		c0,0-0.1,0-0.1,0.1c0,0.1,0.1,0.1,0.1,0.1h0.5v2h-0.5c0,0-0.1,0.1-0.1,0.1c0,0.1,0.1,0.1,0.1,0.1h0.5v1.8H13.8z"/>
	<path class="st2" d="M17.5,19.2c-1.1,0-2-0.9-2-2v-5c0-1.1,0.9-2,2-2c1.1,0,2,0.9,2,2v5C19.5,18.3,18.6,19.2,17.5,19.2"/>
	<path class="st1" d="M18.2,7.3c-0.1,0-0.1,0.1-0.2,0.1c-0.1,0-0.1,0.1-0.2,0.1c-0.1,0-0.1,0.1-0.2,0.1c-0.1,0-0.1,0.1-0.2,0.1v0
		C17.8,7.6,18,7.5,18.2,7.3z"/>
	<path class="st1" d="M16.9,6.8c0,0,0.1-0.1,0.1-0.1c0,0,0.1-0.1,0.2-0.1c0.1,0,0.1-0.1,0.2-0.1c0.1,0,0.1-0.1,0.2-0.1l0,0L16.9,6.8
		L16.9,6.8z"/>
	<path class="st1" d="M16.8,7.5C17,7.3,17.3,7.2,17.5,7c0.3-0.1,0.5-0.3,0.8-0.4c-0.2,0.2-0.5,0.3-0.7,0.5
		C17.3,7.2,17.1,7.4,16.8,7.5"/>
	<path class="st1" d="M18.2,7C18.1,7,18,7.1,17.9,7.1c-0.1,0.1-0.2,0.1-0.2,0.2c-0.1,0-0.2,0.1-0.3,0.1c-0.1,0-0.2,0.1-0.3,0.1l0,0
		C17.5,7.4,17.8,7.2,18.2,7L18.2,7z"/>
	<path class="st1" d="M16.9,7.1C17,7.1,17.1,7,17.1,6.9c0.1-0.1,0.2-0.1,0.2-0.2c0.1,0,0.2-0.1,0.3-0.1c0.1,0,0.2-0.1,0.3-0.1l0,0
		C17.6,6.7,17.2,6.9,16.9,7.1L16.9,7.1z"/>
	<path class="st1" d="M17.5,8.9c-1,0-1.8-0.8-1.8-1.8s0.8-1.8,1.8-1.8s1.8,0.8,1.8,1.8S18.5,8.9,17.5,8.9 M17.5,6
		c-0.6,0-1.1,0.5-1.1,1.1c0,0.6,0.5,1.1,1.1,1.1s1.1-0.5,1.1-1.1C18.6,6.5,18.1,6,17.5,6"/>
	<path class="st1" d="M17.5,19.2c-1.1,0-2-0.9-2-2v-5c0-1.1,0.9-2,2-2c1.1,0,2,0.9,2,2v5C19.5,18.3,18.6,19.2,17.5,19.2 M17.5,11.2
		c-0.5,0-1,0.5-1,1v5c0,0.6,0.4,1,1,1s1-0.5,1-1v-5C18.5,11.6,18.1,11.2,17.5,11.2"/>
</g>
</svg>
