<?xml version="1.0" encoding="utf-8"?>
<!-- Generator: Adobe Illustrator 25.0.1, SVG Export Plug-In . SVG Version: 6.00 Build 0)  -->
<svg version="1.1" id="Слой_1" xmlns="http://www.w3.org/2000/svg" xmlns:xlink="http://www.w3.org/1999/xlink" x="0px" y="0px"
	 viewBox="0 0 53.2 50.77" style="enable-background:new 0 0 53.2 50.77;" xml:space="preserve">
<style type="text/css">
	.st0{fill:#4C3C8F;stroke:#45368B;stroke-width:3;}
	.st1{fill:#584997;}
	.st2{fill:#B7B3D9;}
	.st3{fill:#FFFFFF;}
	.st4{fill:#45368B;}
	.st5{fill:#CBC7E4;}
	.st6{fill:#FFE0A2;}
	.st7{fill:#FFD784;}
	.st8{fill:#A4A0CF;}
	.st9{fill:#928EC4;}
	.st10{fill:#FFDF9E;}
</style>
<g>
	<path class="st0" d="M9.85,23.41h15.61c0.21,0,0.39,0.17,0.39,0.37c0-0.2,0.18-0.37,0.39-0.37h15.61c0.24,0,0.42,0.17,0.42,0.37
		v18.97c0,0.2-0.18,0.37-0.42,0.37H26.23c-0.21,0-0.39-0.17-0.39-0.37c0,0.2-0.18,0.37-0.39,0.37H9.85c-0.24,0-0.42-0.17-0.42-0.37
		V23.8C9.42,23.59,9.61,23.41,9.85,23.41z"/>
	<path class="st1" d="M9.85,23.01h15.61c0.21,0,0.39,0.17,0.39,0.4c0-0.23,0.18-0.4,0.39-0.4h15.61c0.24,0,0.42,0.17,0.42,0.4v18.94
		c0,0.23-0.18,0.4-0.42,0.4H26.23c-0.21,0-0.39-0.17-0.39-0.4c0,0.23-0.18,0.4-0.39,0.4H9.85c-0.24,0-0.42-0.17-0.42-0.4V23.41
		C9.42,23.18,9.61,23.01,9.85,23.01z"/>
	<polygon class="st2" points="41.11,25.56 25.84,25.56 10.56,25.56 10.56,41.35 25.84,41.35 41.11,41.35 	"/>
	<path class="st3" d="M10.56,23.01c4.82,0,10.75-1.44,15.3-0.06c5.84-1.24,9.85,0.06,15.24,0.06c0,6.13,0,12.23,0,18.37
		c-6.23-2.69-9.76,0-15.15,0c-4.79,0-9.79-1.56-15.4,0C10.56,35.25,10.56,29.14,10.56,23.01z"/>
	<path class="st2" d="M11.52,24.46c4.82-0.49,8.8-0.49,12.88,0c0,0.34,0,0.73,0,1.1c-4.13-0.4-8.74-0.43-12.88,0
		C11.52,25.18,11.52,24.8,11.52,24.46z M11.52,37.88c4.82-0.49,8.8-0.49,12.88,0c0,0.37,0,0.76,0,1.1c-4.13-0.4-8.74-0.4-12.88,0
		C11.52,38.63,11.52,38.25,11.52,37.88z M11.52,35.65c4.82-0.49,8.8-0.49,12.88,0c0,0.37,0,0.73,0,1.1c-4.13-0.4-8.74-0.43-12.88,0
		C11.52,36.38,11.52,36.03,11.52,35.65z M11.52,33.39c4.82-0.46,8.8-0.46,12.88,0c0,0.37,0,0.76,0,1.13
		c-4.13-0.43-8.74-0.43-12.88,0C11.52,34.15,11.52,33.77,11.52,33.39z M11.52,31.17c4.82-0.49,8.8-0.49,12.88,0c0,0.37,0,0.73,0,1.1
		c-4.13-0.4-8.74-0.43-12.88,0C11.52,31.89,11.52,31.55,11.52,31.17z M11.52,28.94c4.82-0.49,8.8-0.49,12.88,0c0,0.34,0,0.73,0,1.1
		c-4.13-0.4-8.74-0.43-12.88,0C11.52,29.66,11.52,29.29,11.52,28.94z M11.52,26.69c4.82-0.49,8.8-0.49,12.88,0c0,0.37,0,0.76,0,1.1
		c-4.13-0.4-8.74-0.43-12.88,0C11.52,27.44,11.52,27.06,11.52,26.69z"/>
	<path class="st2" d="M39.35,24.46c-4.82-0.49-8.8-0.49-12.88,0c0,0.34,0,0.73,0,1.1c4.13-0.4,8.74-0.43,12.88,0
		C39.35,25.18,39.35,24.8,39.35,24.46z M39.35,37.88c-4.82-0.49-8.8-0.49-12.88,0c0,0.37,0,0.76,0,1.1c4.13-0.4,8.74-0.4,12.88,0
		C39.35,38.63,39.35,38.25,39.35,37.88z M39.35,35.65c-4.82-0.49-8.8-0.49-12.88,0c0,0.37,0,0.73,0,1.1c4.13-0.4,8.74-0.43,12.88,0
		C39.35,36.38,39.35,36.03,39.35,35.65z M39.35,33.39c-4.82-0.46-8.8-0.46-12.88,0c0,0.37,0,0.76,0,1.13
		c4.13-0.43,8.74-0.43,12.88,0C39.35,34.15,39.35,33.77,39.35,33.39z M39.35,31.17c-4.82-0.49-8.8-0.49-12.88,0c0,0.37,0,0.73,0,1.1
		c4.13-0.4,8.74-0.43,12.88,0C39.35,31.89,39.35,31.55,39.35,31.17z M39.35,28.94c-4.82-0.49-8.8-0.49-12.88,0c0,0.34,0,0.73,0,1.1
		c4.13-0.4,8.74-0.43,12.88,0C39.35,29.66,39.35,29.29,39.35,28.94z M39.35,26.69c-4.82-0.49-8.8-0.49-12.88,0c0,0.37,0,0.76,0,1.1
		c4.13-0.4,8.74-0.43,12.88,0C39.35,27.44,39.35,27.06,39.35,26.69z"/>
	<path class="st4" d="M10.56,22.78c1.61,0,3.33-0.17,5.09-0.32c3.51-0.32,7.16-0.67,10.21,0.23c3.83-0.81,6.89-0.52,10.03-0.23
		c1.64,0.17,3.36,0.32,5.21,0.32h0.72c0.18,0,0.36,0.06,0.47,0.17c0.12,0.11,0.18,0.29,0.18,0.46v0.37v18.57v0.4
		c0,0.17-0.06,0.32-0.18,0.43c-0.12,0.11-0.3,0.17-0.47,0.17h-15.6c-0.15,0-0.27-0.03-0.39-0.11c-0.12,0.09-0.24,0.11-0.39,0.11
		H9.85c-0.18,0-0.36-0.06-0.48-0.17c-0.12-0.11-0.18-0.26-0.18-0.43v-0.4V23.8v-0.37c0-0.17,0.06-0.34,0.18-0.46
		c0.12-0.11,0.3-0.17,0.48-0.17L10.56,22.78L10.56,22.78z M15.68,22.93c-1.76,0.17-3.51,0.34-5.12,0.34H9.85
		c-0.06,0-0.09,0-0.12,0.03S9.7,23.36,9.7,23.41v0.37v18.57v0.4c0,0.03,0,0.06,0.03,0.09c0.03,0.03,0.06,0.06,0.12,0.06h15.61
		c0.03,0,0.06-0.03,0.09-0.06c0.03-0.03,0.06-0.06,0.06-0.09h0.48c0,0.03,0.03,0.06,0.06,0.09l0,0c0.03,0.03,0.06,0.06,0.09,0.06
		h15.61c0.06,0,0.09-0.03,0.12-0.06C42,42.82,42,42.79,42,42.76v-0.4V23.8v-0.37c0-0.06,0-0.09-0.03-0.11
		c-0.03-0.03-0.06-0.03-0.12-0.03h-0.72c-1.89,0-3.59-0.17-5.27-0.32c-3.12-0.29-6.14-0.57-9.91,0.23h-0.12
		C22.81,22.29,19.19,22.61,15.68,22.93z"/>
	<path class="st5" d="M24.37,9.68c5.14,0,9.29,3.1,9.29,6.91c0,2.31-1.47,4.35-3.77,5.59l-0.68,2.34l-0.93,3.28l-0.93-3.28L27,23.24
		c-0.85,0.18-1.72,0.28-2.64,0.28c-5.11,0-9.29-3.1-9.29-6.94C15.08,12.78,19.24,9.68,24.37,9.68z"/>
	<path class="st6" d="M7.28,43.15c1.2,1.3,3.93,3.47,4.94,3.95c-0.18-1.3-0.53-4.13-0.17-6.53c0.33-2.2,1.73-3.79,2.28-4.37
		c0,0,1.26-1.33,0.93-2.92c-0.27-1.42-0.54-3.73-0.42-5.06c0.15-1.88-1.32-3.03-1.64-0.29c-0.36,2.83-1.73,9.13-4.32,5.12V26.8
		c0,0-0.81-0.11-1.23,1.04c-0.42,1.13-3.33,2.57-3.3,3.64c0,1.07,1.11,2.17,1.47,4.89c0.15,1.01,1.32,2.69,1.5,4.16
		C7.43,41.58,7.4,42.37,7.28,43.15z"/>
	<path class="st6" d="M44.13,43.41c-1.07,1.15-3.14,2.92-4.93,3.97c0.18-1.3,0.48-4.25,0.12-6.65c-0.33-2.2-1.73-3.79-2.28-4.37
		c0,0-1.26-1.33-0.93-2.92c0.27-1.42,0.54-3.73,0.42-5.06c-0.15-1.88,1.32-3.03,1.64-0.29c0.36,2.83,1.73,9.13,4.32,5.12v-6.25
		c0,0,0.81-0.11,1.23,1.04c0.42,1.13,3.33,2.57,3.3,3.64c0,1.07-1.11,2.17-1.47,4.89c-0.15,1.01-1.32,2.69-1.5,4.16
		C43.93,41.74,44.01,42.63,44.13,43.41z"/>
	<path class="st4" d="M24.37,9.45c2.62,0,4.99,0.79,6.68,2.09c1.74,1.29,2.82,3.08,2.82,5.05c0,1.17-0.37,2.29-1.05,3.25
		c-0.65,0.99-1.62,1.82-2.77,2.49l-0.65,2.24l0,0l-0.93,3.28c-0.02,0.1-0.15,0.18-0.25,0.15c-0.07-0.03-0.12-0.1-0.15-0.15l0,0
		l-0.93-3.28l-0.3-1.07c-0.37,0.08-0.75,0.13-1.15,0.18c-0.42,0.05-0.88,0.08-1.35,0.08c-2.59,0-4.97-0.79-6.68-2.09
		c-1.72-1.29-2.79-3.08-2.79-5.08c0-1.98,1.07-3.76,2.79-5.05C19.4,10.23,21.76,9.45,24.37,9.45z M30.8,11.87
		c-1.62-1.22-3.92-1.98-6.44-1.98s-4.79,0.77-6.44,1.98c-1.62,1.22-2.62,2.89-2.62,4.73c0,1.86,1,3.53,2.62,4.75
		c1.64,1.22,3.92,1.98,6.44,1.98c0.45,0,0.9-0.03,1.32-0.08c0.42-0.05,0.85-0.1,1.27-0.2l0,0c0.1-0.03,0.2,0.05,0.25,0.15l0.35,1.24
		l0.73,2.59L29,24.46v-0.02l0.68-2.31c0-0.05,0.05-0.1,0.1-0.13c1.12-0.64,2.07-1.45,2.72-2.39c0.59-0.92,0.95-1.93,0.95-3.02
		C33.45,14.76,32.45,13.09,30.8,11.87z"/>
	<path class="st7" d="M24.37,2.59c3.15,0,5.72,3.04,5.72,5.79s-1.25,4.3-3.1,5.25l0,0l-5.01,0.03c-1.95-0.92-3.3-2.92-3.3-5.25
		C18.65,4.94,21.2,2.59,24.37,2.59z M26.99,13.64c0,0.03,0,0.03,0,0.05C26.99,13.67,26.99,13.67,26.99,13.64z M22,16.52L22,16.52
		v-2.77c0-0.03,0-0.05,0-0.08l0,0c0,0.02,0,0.05,0,0.08V16.52z"/>
	<path class="st8" d="M26.99,13.64c0,0.05,0,0.03,0,0.1v3.2c0,0.69-0.45,1.22-1.02,1.22l-2.92,0.03c-0.57,0-1.02-0.55-1.05-1.22
		v-3.23c0-0.03,0-0.05,0-0.08h-0.02L26.99,13.64z"/>
	<path class="st9" d="M21.99,14.24l5.07-0.01c0.18,0,0.32,0.15,0.33,0.33l0,0c0,0.18-0.14,0.33-0.32,0.33L22,14.9
		c-0.18,0-0.32-0.15-0.33-0.33l0,0C21.66,14.39,21.8,14.24,21.99,14.24z"/>
	<path class="st9" d="M22,15.52l5.07-0.01c0.18,0,0.33,0.15,0.33,0.33l0,0c0,0.18-0.14,0.33-0.32,0.33l-5.07,0.01
		c-0.18,0-0.32-0.15-0.32-0.33l0,0C21.66,15.67,21.81,15.52,22,15.52z"/>
	<path class="st9" d="M22,16.73l5.07-0.01c0.18,0,0.32,0.15,0.33,0.33l0,0c0,0.18-0.14,0.33-0.32,0.33l-5.07,0.01
		c-0.18,0-0.32-0.15-0.33-0.33l0,0C21.67,16.87,21.81,16.73,22,16.73z"/>
	<polygon class="st10" points="22.96,7.98 26.01,7.98 26.23,7.98 26.23,8.21 26.23,13.67 25.79,13.67 25.79,8.44 23.19,8.44 
		23.19,13.67 22.74,13.67 22.74,8.21 22.74,7.98 	"/>
	<path class="st4" d="M30.43,8.39c0-1.55-0.75-3.08-1.77-4.16c-1.12-1.22-2.64-1.98-4.3-1.98c-3.34,0-6.07,2.5-6.04,6.17
		c0,2.34,1.3,4.45,3.32,5.48v0.08c-0.2,0.13-0.32,0.35-0.32,0.6c0,0.23,0.12,0.45,0.32,0.58v0.1c-0.2,0.1-0.32,0.33-0.32,0.58
		c0,0.25,0.12,0.48,0.32,0.58v0.03c-0.2,0.13-0.32,0.33-0.32,0.58c0,0.33,0.22,0.6,0.5,0.69c0.22,0.45,0.68,0.82,1.22,0.82h2.92
		c0.52,0,0.98-0.35,1.2-0.82c0.32-0.05,0.59-0.35,0.59-0.69c0-0.25-0.15-0.48-0.35-0.6c0.2-0.13,0.35-0.33,0.35-0.6
		c-0.02-0.28-0.17-0.5-0.42-0.6v-0.03c0.25-0.1,0.4-0.35,0.4-0.64s-0.15-0.53-0.4-0.64v-0.05C29.43,12.7,30.43,10.87,30.43,8.39z
		 M27.06,14.23c0.17,0,0.32,0.15,0.32,0.33s-0.15,0.33-0.32,0.33h-0.07v0.6h0.07c0.17,0,0.32,0.15,0.32,0.33
		c0,0.2-0.12,0.33-0.32,0.33h-0.07v0.55h0.07c0.2,0,0.32,0.15,0.32,0.33s-0.12,0.33-0.3,0.33h-0.15c-0.15,0.45-0.54,0.79-0.98,0.79
		l-2.92,0.03c-0.45,0-0.83-0.33-0.97-0.82h-0.07c-0.17,0-0.32-0.13-0.32-0.33c0-0.18,0.15-0.33,0.32-0.33v-0.2v-0.33
		c-0.17,0-0.32-0.15-0.32-0.33s0.15-0.33,0.32-0.33v-0.64c-0.17,0-0.32-0.13-0.32-0.33c0-0.18,0.15-0.33,0.32-0.33v-0.48
		c0-0.03,0-0.05,0-0.08h-0.02c-1.95-0.92-3.3-2.92-3.3-5.25c-0.03-3.47,2.52-5.82,5.69-5.82c3.15,0,5.72,3.04,5.72,5.79
		s-1.25,4.3-3.1,5.25c0,0.01,0,0.02,0,0.03c0,0.01,0,0.01,0,0.02c0,0,0,0,0,0.05v0.48L27.06,14.23L27.06,14.23z"/>
</g>
</svg>
