<?xml version="1.0" encoding="utf-8"?>
<!-- Generator: Adobe Illustrator 25.0.1, SVG Export Plug-In . SVG Version: 6.00 Build 0)  -->
<svg version="1.1" id="Слой_1" xmlns="http://www.w3.org/2000/svg" xmlns:xlink="http://www.w3.org/1999/xlink" x="0px" y="0px"
	 viewBox="0 0 40.28 13.89" style="enable-background:new 0 0 40.28 13.89;" xml:space="preserve">
<style type="text/css">
	.st0{fill:#FFFFFF;}
	.st1{fill:#EDE41D;}
	.st2{fill:#313A8D;}
	.st3{fill:#1AA8E1;}
	.st4{fill:#E72386;}
</style>
<g>
	<path class="st0" d="M2.76,9.81c0.23,0,0.42,0.06,0.57,0.17c0.14,0.11,0.21,0.26,0.21,0.45c0,0.18-0.07,0.33-0.21,0.45
		c-0.14,0.11-0.33,0.17-0.57,0.17H2.34v0.75H2.02V9.82L2.76,9.81L2.76,9.81z M2.74,10.79c0.14,0,0.26-0.03,0.34-0.09
		c0.08-0.07,0.13-0.15,0.13-0.26s-0.05-0.2-0.13-0.26c-0.08-0.07-0.2-0.09-0.34-0.09h-0.4v0.71L2.74,10.79L2.74,10.79z"/>
	<path class="st0" d="M4.75,10.3c0.09,0,0.18,0.02,0.27,0.05c0.09,0.03,0.18,0.08,0.25,0.14c0.08,0.06,0.14,0.14,0.2,0.24
		c0.05,0.1,0.07,0.21,0.07,0.33c0,0.04,0,0.07-0.01,0.11H4.27c0.02,0.12,0.07,0.22,0.17,0.29c0.1,0.07,0.2,0.11,0.32,0.11
		c0.16,0,0.29-0.05,0.38-0.14l0.25,0.13C5.22,11.73,5,11.82,4.74,11.82c-0.09,0-0.18-0.02-0.27-0.05c-0.09-0.03-0.18-0.07-0.26-0.14
		c-0.08-0.06-0.15-0.14-0.2-0.24c-0.05-0.1-0.08-0.21-0.08-0.33S3.96,10.84,4,10.73c0.05-0.1,0.12-0.18,0.2-0.24
		c0.08-0.06,0.16-0.11,0.26-0.14C4.57,10.32,4.66,10.3,4.75,10.3z M4.75,10.55c-0.11,0-0.22,0.03-0.31,0.1
		c-0.09,0.07-0.14,0.16-0.17,0.29h0.96c-0.02-0.13-0.08-0.22-0.17-0.29C4.97,10.58,4.86,10.55,4.75,10.55z"/>
	<path class="st0" d="M7.5,11.79H7.1l-0.62-0.58l-0.13,0.11v0.47H6.03v-1.48h0.32v0.63l0.68-0.63h0.41l-0.76,0.7L7.5,11.79z"/>
	<path class="st0" d="M9.67,10.32v1.48H9.36v-1.22H8.47v0.87c0,0.14-0.04,0.24-0.1,0.29C8.3,11.8,8.21,11.82,8.1,11.82
		c-0.12,0-0.22-0.02-0.29-0.05v-0.26c0.08,0.03,0.15,0.06,0.22,0.06c0.05,0,0.08-0.02,0.1-0.04c0.02-0.02,0.04-0.06,0.04-0.1v-1.1
		L9.67,10.32L9.67,10.32z"/>
	<path class="st0" d="M10.91,10.3c0.13,0,0.23,0.02,0.32,0.07c0.1,0.05,0.15,0.11,0.19,0.19v-0.24h0.32v1.48h-0.32v-0.26
		c-0.03,0.07-0.09,0.14-0.19,0.2c-0.1,0.06-0.21,0.08-0.32,0.08c-0.09,0-0.18-0.02-0.27-0.05c-0.09-0.03-0.17-0.08-0.24-0.14
		c-0.07-0.06-0.14-0.14-0.18-0.24s-0.07-0.21-0.07-0.33s0.03-0.23,0.07-0.33s0.11-0.18,0.18-0.24c0.07-0.06,0.16-0.11,0.24-0.14
		C10.73,10.32,10.82,10.3,10.91,10.3z M11.3,10.68c-0.1-0.08-0.21-0.13-0.33-0.13c-0.13,0-0.24,0.05-0.34,0.14
		c-0.1,0.09-0.15,0.21-0.15,0.37c0,0.16,0.05,0.29,0.15,0.38c0.1,0.09,0.22,0.13,0.34,0.13c0.13,0,0.24-0.04,0.33-0.13
		c0.1-0.09,0.14-0.21,0.14-0.38C11.43,10.89,11.39,10.76,11.3,10.68z"/>
	<path class="st0" d="M14.16,10.32v1.48h-0.32v-0.76l-0.6,0.76h-0.07l-0.59-0.76v0.76h-0.32v-1.48h0.06l0.88,1.07l0.88-1.07H14.16z"
		/>
	<path class="st0" d="M15.89,10.32h0.32v1.48h-0.32v-0.61h-0.82v0.61h-0.32v-1.48h0.32v0.61h0.82V10.32z"/>
	<path class="st0" d="M17.48,10.3c0.09,0,0.18,0.02,0.27,0.05c0.09,0.03,0.18,0.08,0.26,0.14c0.08,0.06,0.14,0.14,0.2,0.24
		s0.08,0.21,0.08,0.33s-0.03,0.24-0.08,0.33c-0.05,0.1-0.12,0.18-0.2,0.24c-0.08,0.06-0.17,0.11-0.26,0.14
		c-0.09,0.03-0.18,0.05-0.27,0.05c-0.09,0-0.18-0.02-0.27-0.05c-0.09-0.03-0.18-0.07-0.26-0.14c-0.08-0.06-0.15-0.14-0.2-0.24
		c-0.05-0.1-0.08-0.21-0.08-0.33s0.03-0.23,0.08-0.33c0.05-0.1,0.12-0.18,0.2-0.24c0.08-0.06,0.17-0.11,0.26-0.14
		C17.3,10.32,17.39,10.3,17.48,10.3z M17.48,10.55c-0.13,0-0.24,0.05-0.34,0.13c-0.1,0.09-0.15,0.21-0.15,0.38
		c0,0.16,0.05,0.29,0.15,0.37c0.1,0.09,0.22,0.13,0.34,0.13s0.23-0.04,0.34-0.13c0.1-0.09,0.15-0.21,0.15-0.37
		c0-0.16-0.05-0.29-0.15-0.38C17.73,10.59,17.61,10.55,17.48,10.55z"/>
	<path class="st0" d="M19.47,10.3c0.09,0,0.18,0.02,0.27,0.05c0.09,0.03,0.18,0.08,0.25,0.14c0.08,0.06,0.14,0.14,0.2,0.24
		s0.07,0.21,0.07,0.33c0,0.04,0,0.07-0.01,0.11h-1.27c0.02,0.12,0.07,0.22,0.17,0.29c0.1,0.07,0.2,0.11,0.32,0.11
		c0.16,0,0.29-0.05,0.38-0.14l0.25,0.13c-0.16,0.17-0.38,0.26-0.64,0.26c-0.09,0-0.18-0.02-0.27-0.05
		c-0.09-0.03-0.18-0.07-0.26-0.14c-0.08-0.06-0.15-0.14-0.2-0.24c-0.05-0.1-0.08-0.21-0.08-0.33s0.03-0.23,0.07-0.33
		c0.05-0.1,0.12-0.18,0.2-0.24c0.08-0.06,0.16-0.11,0.26-0.14C19.29,10.32,19.38,10.3,19.47,10.3z M19.47,10.55
		c-0.11,0-0.22,0.03-0.31,0.1c-0.09,0.07-0.14,0.16-0.17,0.29h0.96c-0.02-0.13-0.08-0.22-0.17-0.29
		C19.68,10.58,19.58,10.55,19.47,10.55z"/>
	<path class="st0" d="M23.42,11.79l-0.23-0.48h-0.94l-0.23,0.48h-0.35l1.03-1.98h0.06l1.03,1.98H23.42z M22.38,11.06h0.69l-0.35-0.7
		L22.38,11.06z"/>
	<path class="st0" d="M25.5,10.32v0.24h-0.97v1.22h-0.32v-1.48L25.5,10.32L25.5,10.32z"/>
	<path class="st0" d="M26.63,10.3c0.09,0,0.18,0.02,0.27,0.05c0.09,0.03,0.18,0.08,0.25,0.14c0.08,0.06,0.14,0.14,0.2,0.24
		s0.07,0.21,0.07,0.33c0,0.04,0,0.07-0.01,0.11h-1.26c0.02,0.12,0.07,0.22,0.17,0.29c0.1,0.07,0.2,0.11,0.32,0.11
		c0.16,0,0.29-0.05,0.38-0.14l0.25,0.13c-0.16,0.17-0.38,0.26-0.64,0.26c-0.09,0-0.18-0.02-0.27-0.05
		c-0.09-0.03-0.18-0.07-0.26-0.14c-0.08-0.06-0.15-0.14-0.2-0.24c-0.05-0.1-0.08-0.21-0.08-0.33s0.03-0.23,0.07-0.33
		c0.05-0.1,0.12-0.18,0.2-0.24c0.08-0.06,0.16-0.11,0.26-0.14C26.44,10.32,26.53,10.3,26.63,10.3z M26.63,10.55
		c-0.11,0-0.22,0.03-0.31,0.1c-0.09,0.07-0.14,0.16-0.17,0.29h0.96c-0.02-0.13-0.08-0.22-0.17-0.29
		C26.84,10.58,26.74,10.55,26.63,10.55z"/>
	<path class="st0" d="M29.03,10.32h0.32v1.48h-0.32v-0.61h-0.82v0.61H27.9v-1.48h0.32v0.61h0.82V10.32z"/>
	<path class="st0" d="M31.14,10.32v0.24h-0.48v1.22h-0.32v-1.22h-0.48v-0.24H31.14z"/>
	<path class="st0" d="M32.37,10.3c0.13,0,0.25,0.03,0.38,0.09s0.23,0.15,0.3,0.26l-0.29,0.09c-0.09-0.13-0.23-0.2-0.4-0.2
		c-0.13,0-0.24,0.05-0.34,0.14c-0.1,0.09-0.15,0.21-0.15,0.38c0,0.16,0.05,0.28,0.15,0.37c0.1,0.09,0.22,0.13,0.34,0.13
		c0.08,0,0.15-0.02,0.23-0.05c0.07-0.03,0.13-0.08,0.17-0.14l0.29,0.09c-0.07,0.11-0.17,0.2-0.3,0.26
		c-0.13,0.07-0.25,0.09-0.38,0.09c-0.09,0-0.18-0.02-0.27-0.05c-0.09-0.03-0.18-0.07-0.26-0.14c-0.08-0.06-0.14-0.14-0.2-0.24
		c-0.05-0.1-0.08-0.21-0.08-0.33s0.03-0.24,0.08-0.33c0.05-0.1,0.12-0.18,0.2-0.24c0.08-0.06,0.17-0.11,0.26-0.14
		C32.19,10.32,32.28,10.3,32.37,10.3z"/>
	<path class="st0" d="M34.61,10.32v0.24h-0.48v1.22h-0.32v-1.22h-0.48v-0.24H34.61z"/>
	<path class="st0" d="M36.26,10.97c0.23,0.07,0.33,0.2,0.33,0.38c0,0.15-0.06,0.25-0.18,0.33c-0.12,0.07-0.3,0.11-0.51,0.11h-0.78
		v-1.48h0.78c0.17,0,0.32,0.03,0.41,0.1c0.1,0.07,0.15,0.16,0.15,0.29C36.48,10.84,36.41,10.94,36.26,10.97z M35.43,10.56v0.32h0.47
		c0.17,0,0.25-0.06,0.25-0.16c0-0.1-0.08-0.16-0.25-0.16H35.43z M35.9,11.56c0.25,0,0.38-0.07,0.38-0.2c0-0.16-0.13-0.24-0.38-0.24
		h-0.47v0.44H35.9z"/>
	<path class="st0" d="M37.8,10.3c0.09,0,0.18,0.02,0.27,0.05c0.09,0.03,0.18,0.08,0.26,0.14c0.08,0.06,0.14,0.14,0.2,0.24
		c0.05,0.1,0.08,0.21,0.08,0.33s-0.03,0.24-0.08,0.33c-0.05,0.1-0.12,0.18-0.2,0.24c-0.08,0.06-0.17,0.11-0.26,0.14
		c-0.09,0.03-0.18,0.05-0.27,0.05c-0.09,0-0.18-0.02-0.27-0.05c-0.09-0.03-0.18-0.07-0.26-0.14c-0.08-0.06-0.15-0.14-0.2-0.24
		c-0.05-0.1-0.08-0.21-0.08-0.33s0.03-0.23,0.08-0.33c0.05-0.1,0.12-0.18,0.2-0.24c0.08-0.06,0.17-0.11,0.26-0.14
		C37.62,10.32,37.71,10.3,37.8,10.3z M37.8,10.55c-0.13,0-0.24,0.05-0.34,0.13c-0.1,0.09-0.15,0.21-0.15,0.38
		c0,0.16,0.05,0.29,0.15,0.37c0.1,0.09,0.22,0.13,0.34,0.13s0.23-0.04,0.34-0.13c0.1-0.09,0.15-0.21,0.15-0.37
		c0-0.16-0.05-0.29-0.15-0.38C38.05,10.59,37.93,10.55,37.8,10.55z"/>
</g>
<g>
	<path class="st0" d="M11.97,1.74v1.12h-1.44V1.74H11.97z M11.97,3.33v4.58h-1.44V3.33H11.97z"/>
	<path class="st0" d="M15.32,3.27c0.39,0,0.79,0.09,1.18,0.26c0.39,0.17,0.71,0.44,0.96,0.78l-1.25,0.4
		c-0.2-0.25-0.49-0.37-0.89-0.37c-0.32,0-0.6,0.12-0.83,0.35c-0.23,0.23-0.35,0.54-0.35,0.94c0,0.37,0.12,0.68,0.35,0.91
		c0.23,0.23,0.51,0.34,0.83,0.34c0.41,0,0.7-0.12,0.89-0.36l1.26,0.4c-0.25,0.35-0.58,0.61-0.97,0.78
		c-0.39,0.17-0.79,0.26-1.18,0.26c-0.28,0-0.55-0.05-0.85-0.15c-0.29-0.09-0.57-0.23-0.83-0.42c-0.27-0.18-0.48-0.43-0.65-0.74
		C12.82,6.34,12.74,6,12.74,5.62c0-0.39,0.09-0.74,0.25-1.05c0.17-0.31,0.39-0.56,0.65-0.75c0.27-0.18,0.55-0.32,0.83-0.42
		C14.76,3.33,15.04,3.27,15.32,3.27z"/>
	<path class="st0" d="M20.89,4.35h-1.09v2.09c0,0.3,0.14,0.44,0.42,0.44c0.25,0,0.47-0.04,0.66-0.11v1.03
		c-0.23,0.11-0.56,0.16-1,0.16c-0.47,0-0.84-0.11-1.1-0.32c-0.26-0.22-0.39-0.61-0.39-1.2v-2.1h-0.5V3.33h0.5V2.54h1.4v0.79h1.09
		V4.35z"/>
	<path class="st0" d="M22.97,3.43c0.29-0.1,0.58-0.15,0.86-0.15s0.56,0.05,0.86,0.15c0.29,0.1,0.57,0.24,0.84,0.43
		s0.48,0.44,0.65,0.75c0.17,0.31,0.25,0.66,0.25,1.04c0,0.38-0.09,0.73-0.25,1.03C26,6.99,25.79,7.23,25.53,7.41
		c-0.27,0.18-0.55,0.32-0.84,0.42c-0.29,0.09-0.58,0.15-0.86,0.15s-0.56-0.05-0.86-0.15c-0.29-0.09-0.58-0.23-0.85-0.42
		c-0.27-0.18-0.48-0.43-0.66-0.74c-0.17-0.31-0.25-0.65-0.25-1.03c0-0.38,0.09-0.73,0.25-1.04c0.17-0.31,0.39-0.56,0.65-0.75
		C22.39,3.67,22.67,3.53,22.97,3.43z M23.83,4.35c-0.32,0-0.61,0.12-0.84,0.34c-0.24,0.23-0.36,0.54-0.36,0.94
		c0,0.39,0.12,0.69,0.36,0.92c0.24,0.23,0.52,0.33,0.84,0.33c0.31,0,0.59-0.11,0.83-0.33c0.24-0.23,0.36-0.53,0.36-0.92
		c0-0.4-0.12-0.71-0.36-0.94C24.42,4.46,24.14,4.35,23.83,4.35z"/>
	<path class="st0" d="M30.16,3.29c0.22,0,0.37,0.02,0.48,0.04V4.5c-0.11-0.02-0.28-0.02-0.49-0.02c-0.44,0-0.81,0.13-1.12,0.4
		c-0.3,0.27-0.48,0.62-0.53,1.06v1.98h-1.39V3.34h1.4V4.8c0.06-0.46,0.23-0.82,0.49-1.1C29.27,3.42,29.65,3.29,30.16,3.29z"/>
	<path class="st0" d="M32.76,1.74v1.12h-1.44V1.74H32.76z M32.76,3.33v4.58h-1.44V3.33H32.76z"/>
	<path class="st0" d="M35.9,3.27c0.36,0,0.68,0.07,0.93,0.21c0.25,0.14,0.38,0.26,0.39,0.38V3.33h1.4v4.58h-1.4V7.31
		c-0.01,0.12-0.14,0.26-0.39,0.42c-0.25,0.16-0.56,0.25-0.93,0.25c-0.28,0-0.55-0.05-0.82-0.15c-0.28-0.09-0.53-0.24-0.76-0.42
		c-0.23-0.19-0.42-0.44-0.57-0.75C33.59,6.35,33.52,6,33.52,5.61c0-0.72,0.25-1.29,0.74-1.71C34.74,3.48,35.3,3.27,35.9,3.27z
		 M36.95,4.66c-0.22-0.2-0.48-0.3-0.81-0.3c-0.33,0-0.61,0.12-0.86,0.34c-0.24,0.23-0.36,0.54-0.36,0.92c0,0.4,0.12,0.71,0.36,0.93
		c0.24,0.23,0.53,0.34,0.86,0.34c0.33,0,0.6-0.1,0.81-0.31s0.32-0.53,0.32-0.96C37.27,5.18,37.17,4.86,36.95,4.66z"/>
	<g>
		<ellipse class="st1" cx="5.79" cy="2.57" rx="0.91" ry="0.83"/>
		<path class="st2" d="M6.51,5.99L5.79,4.85L5.07,5.99c-0.18,0.28-0.18,0.63,0,0.91l0.72,1.14l0.72-1.14
			C6.69,6.63,6.69,6.28,6.51,5.99z"/>
		<path class="st3" d="M9.67,1.9H8.23c-0.36,0-0.69,0.17-0.87,0.46l-1.58,2.5l0.72,1.14c0.18,0.28,0.18,0.63,0,0.91L5.79,8.05l0,0
			L9.67,1.9z"/>
		<path class="st4" d="M5.06,5.99l0.72-1.14l-1.58-2.5C4.02,2.07,3.7,1.9,3.34,1.9H1.9l3.89,6.15l0,0L5.06,6.91
			C4.89,6.63,4.89,6.28,5.06,5.99z"/>
	</g>
</g>
</svg>
