<?xml version="1.0" encoding="utf-8"?>
<!-- Generator: Adobe Illustrator 25.0.1, SVG Export Plug-In . SVG Version: 6.00 Build 0)  -->
<svg version="1.1" id="Слой_1" xmlns="http://www.w3.org/2000/svg" xmlns:xlink="http://www.w3.org/1999/xlink" x="0px" y="0px"
	 viewBox="0 0 503 433.1" style="enable-background:new 0 0 503 433.1;" xml:space="preserve">
<style type="text/css">
	.st0{fill:#FAEA27;}
	.st1{fill:#E32285;}
	.st2{fill:#29ABE3;}
	.st3{fill:#30358C;}
</style>
<g>
	<circle class="st0" cx="245.5" cy="55.2" r="47.6"/>
	<path class="st1" d="M207.7,242.1l37.8-65.3L162.8,33.6c-9.4-16.2-26.6-26.2-45.5-26.2H42l203.5,352.4l0,0l-37.8-65.3
		C198.5,278.3,198.5,258.3,207.7,242.1z"/>
	<path class="st2" d="M448,7.4h-75.3c-18.7,0-36,10-45.3,26.2l-82.7,143.1l37.8,65.3c9.4,16.2,9.4,36.2,0,52.4l-37.8,65.3l0,0
		L448,7.4z"/>
	<path class="st3" d="M283.3,242.1l-37.8-65.3l-37.8,65.3c-9.4,16.2-9.4,36.2,0,52.4l37.8,65.3l37.8-65.3
		C292.5,278.3,292.5,258.3,283.3,242.1z"/>
</g>
<g>
	<g>
		<path class="st3" d="M-73.5,475.5l-38.5,79.4h-2.6l-38.5-79.4h18.3l21.5,47.5l21.5-47.5H-73.5z"/>
		<path class="st3" d="M-50.9,475.5v14.4h-16.6v-14.4H-50.9z M-50.9,495.9v59h-16.6v-59H-50.9z"/>
		<path class="st3" d="M-12.2,495.2c4.5,0,9.1,1.1,13.6,3.3s8.2,5.6,11.1,10l-14.4,5.2c-2.3-3.2-5.7-4.8-10.3-4.8
			c-3.7,0-6.9,1.5-9.6,4.5s-4.1,7-4.1,12.1c0,4.8,1.4,8.7,4.1,11.7c2.7,2.9,5.9,4.4,9.6,4.4c4.7,0,8.1-1.5,10.3-4.6l14.5,5.2
			c-2.9,4.5-6.7,7.8-11.2,10c-4.5,2.2-9.1,3.3-13.6,3.3c-3.2,0-6.4-0.6-9.8-1.9c-3.4-1.2-6.6-3-9.6-5.4c-3.1-2.3-5.6-5.5-7.5-9.5
			c-2-4-2.9-8.4-2.9-13.3c0-5,1-9.5,2.9-13.5c2-4,4.5-7.2,7.5-9.6c3.1-2.3,6.3-4.1,9.6-5.4C-18.7,495.9-15.4,495.2-12.2,495.2z"/>
		<path class="st3" d="M52.1,509.1H39.5V536c0,3.8,1.6,5.7,4.9,5.7c2.9,0,5.4-0.5,7.6-1.4v13.3c-2.7,1.4-6.5,2-11.5,2
			c-5.4,0-9.7-1.4-12.7-4.1c-3-2.8-4.5-7.9-4.5-15.4v-27h-5.8v-13.2h5.8v-10.2h16.2v10.2h12.6V509.1z"/>
		<path class="st3" d="M76.2,497.2c3.4-1.3,6.7-1.9,9.9-1.9c3.2,0,6.5,0.6,9.9,1.9c3.4,1.3,6.6,3.1,9.7,5.5c3.1,2.4,5.6,5.6,7.5,9.6
			c2,4,2.9,8.5,2.9,13.4c0,4.9-1,9.4-2.9,13.3c-2,4-4.5,7.1-7.5,9.5c-3.1,2.3-6.3,4.1-9.7,5.4c-3.4,1.2-6.7,1.9-9.9,1.9
			c-3.2,0-6.5-0.6-9.9-1.9c-3.4-1.2-6.7-3-9.8-5.4c-3.1-2.3-5.6-5.5-7.6-9.5s-2.9-8.4-2.9-13.3c0-4.9,1-9.4,2.9-13.4
			c2-4,4.5-7.2,7.5-9.6C69.5,500.3,72.7,498.5,76.2,497.2z M86.1,509.1c-3.7,0-7,1.5-9.7,4.4c-2.8,2.9-4.2,7-4.2,12.1
			c0,5,1.4,8.9,4.2,11.8c2.8,2.9,6,4.3,9.7,4.3c3.6,0,6.8-1.4,9.6-4.3c2.8-2.9,4.2-6.8,4.2-11.8c0-5.1-1.4-9.2-4.2-12.1
			C92.9,510.5,89.7,509.1,86.1,509.1z"/>
		<path class="st3" d="M159.2,495.4c2.5,0,4.3,0.2,5.6,0.5V511c-1.3-0.2-3.2-0.3-5.7-0.3c-5.1,0-9.4,1.7-12.9,5.2s-5.5,8-6.1,13.6
			V555H124v-59h16.2v18.9c0.7-5.9,2.6-10.6,5.7-14.2C148.9,497.1,153.4,495.4,159.2,495.4z"/>
		<path class="st3" d="M189.3,475.5v14.4h-16.6v-14.4H189.3z M189.3,495.9v59h-16.6v-59H189.3z"/>
		<path class="st3" d="M225.5,495.2c4.2,0,7.8,0.9,10.7,2.7c2.9,1.8,4.4,3.4,4.5,4.9v-6.9H257v59h-16.2v-7.8
			c-0.1,1.5-1.6,3.3-4.5,5.4c-2.9,2.1-6.5,3.2-10.7,3.2c-3.2,0-6.3-0.6-9.5-1.9c-3.2-1.2-6.1-3.1-8.8-5.4c-2.7-2.4-4.9-5.6-6.6-9.6
			s-2.6-8.5-2.6-13.5c0-9.3,2.9-16.6,8.6-22C212.2,497.9,218.6,495.2,225.5,495.2z M237.7,513c-2.5-2.6-5.6-3.9-9.4-3.9
			s-7.1,1.5-9.9,4.4c-2.8,2.9-4.2,6.9-4.2,11.8c0,5.1,1.4,9.1,4.2,12c2.8,2.9,6.1,4.4,9.9,4.4s6.9-1.3,9.4-4s3.7-6.8,3.7-12.4
			C241.4,519.7,240.2,515.6,237.7,513z"/>
	</g>
</g>
<g>
	<path class="st3" d="M51.8,376.2c2.6,0,4.7,0.7,6.3,2.1s2.3,3.2,2.3,5.5c0,2.2-0.8,4-2.3,5.5c-1.6,1.4-3.7,2.1-6.3,2.1h-4.6v9.2
		h-3.6v-24.3h8.2C51.8,376.3,51.8,376.2,51.8,376.2z M51.5,388.2c1.6,0,2.9-0.4,3.8-1.1c0.9-0.8,1.4-1.8,1.4-3.2
		c0-1.4-0.5-2.5-1.4-3.2c-0.9-0.8-2.2-1.1-3.8-1.1h-4.4v8.7L51.5,388.2L51.5,388.2z"/>
	<path class="st3" d="M73.8,382.3c1,0,2,0.2,3,0.6s2,1,2.8,1.7c0.9,0.7,1.6,1.7,2.2,2.9s0.8,2.6,0.8,4.1c0,0.5,0,0.9-0.1,1.3H68.5
		c0.2,1.5,0.8,2.7,1.9,3.6s2.2,1.3,3.5,1.3c1.8,0,3.2-0.6,4.2-1.7l2.8,1.6c-1.8,2.1-4.2,3.2-7.1,3.2c-1,0-2-0.2-3-0.6
		s-2-0.9-2.9-1.7c-0.9-0.7-1.7-1.7-2.2-2.9c-0.6-1.2-0.9-2.6-0.9-4.1s0.3-2.8,0.8-4.1c0.6-1.2,1.3-2.2,2.2-2.9
		c0.9-0.7,1.8-1.3,2.9-1.7C71.8,382.5,72.8,382.3,73.8,382.3z M73.8,385.3c-1.2,0-2.4,0.4-3.4,1.2s-1.6,2-1.9,3.6h10.6
		c-0.2-1.6-0.9-2.7-1.9-3.6C76.2,385.7,75.1,385.3,73.8,385.3z"/>
	<path class="st3" d="M104.3,400.5h-4.5l-6.9-7.1l-1.4,1.4v5.7H88v-18.1h3.5v7.7l7.5-7.7h4.5l-8.4,8.6L104.3,400.5z"/>
	<path class="st3" d="M128.4,382.5v18.1h-3.5v-15H115v10.7c0,1.7-0.4,2.9-1.1,3.6s-1.7,1-3,1s-2.4-0.2-3.2-0.6v-3.2
		c0.9,0.4,1.7,0.7,2.4,0.7c0.5,0,0.9-0.2,1.1-0.5s0.4-0.7,0.4-1.2v-13.5h16.8V382.5z"/>
	<path class="st3" d="M142.1,382.3c1.4,0,2.6,0.3,3.6,0.9c1.1,0.6,1.7,1.4,2.1,2.3v-3h3.5v18.1h-3.5v-3.2c-0.3,0.9-1,1.7-2.1,2.4
		c-1.1,0.7-2.3,1-3.6,1c-1,0-2-0.2-3-0.6s-1.9-1-2.7-1.7s-1.5-1.7-2-2.9s-0.8-2.6-0.8-4.1s0.3-2.8,0.8-4s1.2-2.2,2-2.9
		s1.8-1.3,2.7-1.7C140.1,382.5,141.1,382.3,142.1,382.3z M146.4,386.9c-1.1-1-2.3-1.6-3.7-1.6s-2.7,0.6-3.8,1.7s-1.7,2.6-1.7,4.5
		s0.6,3.5,1.7,4.6s2.4,1.6,3.8,1.6s2.7-0.5,3.7-1.6c1.1-1.1,1.6-2.6,1.6-4.6C147.9,389.5,147.4,387.9,146.4,386.9z"/>
	<path class="st3" d="M178.2,382.5v18.1h-3.5v-9.3l-6.6,9.3h-0.8l-6.5-9.3v9.3h-3.5v-18.1h0.7l9.8,13.1l9.8-13.1H178.2z"/>
	<path class="st3" d="M197.4,382.5h3.5v18.1h-3.5v-7.5h-9.1v7.5h-3.5v-18.1h3.5v7.5h9.1V382.5z"/>
	<path class="st3" d="M215.1,382.3c1,0,2,0.2,3,0.6s2,1,2.9,1.7s1.6,1.7,2.2,2.9s0.9,2.6,0.9,4.1s-0.3,2.9-0.9,4.1
		c-0.6,1.2-1.3,2.2-2.2,2.9c-0.9,0.7-1.9,1.3-2.9,1.7c-1,0.4-2,0.6-3,0.6s-2-0.2-3-0.6s-2-0.9-2.9-1.7c-0.9-0.7-1.7-1.7-2.2-2.9
		c-0.6-1.2-0.9-2.6-0.9-4.1s0.3-2.8,0.9-4.1c0.6-1.2,1.3-2.2,2.2-2.9c0.9-0.7,1.9-1.3,2.9-1.7S214.1,382.3,215.1,382.3z
		 M215.1,385.3c-1.4,0-2.7,0.6-3.8,1.6c-1.1,1.1-1.7,2.6-1.7,4.6c0,1.9,0.6,3.5,1.7,4.5c1.1,1.1,2.4,1.6,3.8,1.6s2.6-0.5,3.8-1.6
		c1.1-1.1,1.7-2.6,1.7-4.5c0-2-0.6-3.5-1.7-4.6C217.8,385.8,216.4,385.3,215.1,385.3z"/>
	<path class="st3" d="M237.1,382.3c1,0,2,0.2,3,0.6s2,1,2.8,1.7c0.9,0.7,1.6,1.7,2.2,2.9s0.8,2.6,0.8,4.1c0,0.5,0,0.9-0.1,1.3h-14.1
		c0.2,1.5,0.8,2.7,1.9,3.6c1.1,0.9,2.2,1.3,3.5,1.3c1.8,0,3.2-0.6,4.2-1.7l2.8,1.6c-1.8,2.1-4.2,3.2-7.1,3.2c-1,0-2-0.2-3-0.6
		s-2-0.9-2.9-1.7c-0.9-0.7-1.7-1.7-2.2-2.9c-0.6-1.2-0.9-2.6-0.9-4.1s0.3-2.8,0.8-4.1c0.6-1.2,1.3-2.2,2.2-2.9
		c0.9-0.7,1.8-1.3,2.9-1.7C235.1,382.5,236.1,382.3,237.1,382.3z M237.1,385.3c-1.2,0-2.4,0.4-3.4,1.2s-1.6,2-1.9,3.6h10.6
		c-0.2-1.6-0.9-2.7-1.9-3.6C239.4,385.7,238.4,385.3,237.1,385.3z"/>
	<path class="st3" d="M281,400.5l-2.6-5.9H268l-2.6,5.9h-3.9l11.4-24.3h0.7l11.4,24.3H281z M269.4,391.6h7.7l-3.9-8.6L269.4,391.6z"
		/>
	<path class="st3" d="M304,382.5v3h-10.8v15h-3.5v-18.1H304V382.5z"/>
	<path class="st3" d="M316.5,382.3c1,0,2,0.2,3,0.6s2,1,2.8,1.7c0.9,0.7,1.6,1.7,2.2,2.9c0.6,1.2,0.8,2.6,0.8,4.1
		c0,0.5,0,0.9-0.1,1.3h-14c0.2,1.5,0.8,2.7,1.9,3.6s2.2,1.3,3.5,1.3c1.8,0,3.2-0.6,4.2-1.7l2.8,1.6c-1.8,2.1-4.2,3.2-7.1,3.2
		c-1,0-2-0.2-3-0.6s-2-0.9-2.9-1.7c-0.9-0.7-1.7-1.7-2.2-2.9c-0.6-1.2-0.9-2.6-0.9-4.1s0.3-2.8,0.8-4.1c0.6-1.2,1.3-2.2,2.2-2.9
		c0.9-0.7,1.8-1.3,2.9-1.7C314.5,382.5,315.5,382.3,316.5,382.3z M316.5,385.3c-1.2,0-2.4,0.4-3.4,1.2s-1.6,2-1.9,3.6h10.6
		c-0.2-1.6-0.9-2.7-1.9-3.6C318.9,385.7,317.8,385.3,316.5,385.3z"/>
	<path class="st3" d="M343.1,382.5h3.5v18.1h-3.5v-7.5H334v7.5h-3.5v-18.1h3.5v7.5h9.1V382.5z"/>
	<path class="st3" d="M366.5,382.5v3h-5.3v15h-3.5v-15h-5.3v-3H366.5z"/>
	<path class="st3" d="M380.1,382.3c1.4,0,2.8,0.4,4.2,1.1s2.5,1.8,3.3,3.2l-3.2,1.1c-1-1.6-2.5-2.4-4.4-2.4c-1.4,0-2.7,0.6-3.8,1.7
		c-1.1,1.1-1.7,2.6-1.7,4.6c0,1.9,0.6,3.4,1.7,4.5s2.4,1.6,3.8,1.6c0.9,0,1.7-0.2,2.5-0.6s1.4-1,1.9-1.7l3.2,1.1
		c-0.8,1.4-1.9,2.4-3.3,3.2c-1.4,0.8-2.8,1.1-4.2,1.1c-1,0-2-0.2-3-0.6s-2-0.9-2.9-1.7c-0.9-0.7-1.6-1.7-2.2-2.9
		c-0.6-1.2-0.9-2.6-0.9-4.1s0.3-2.9,0.9-4.1s1.3-2.2,2.2-2.9s1.9-1.3,2.9-1.7C378.1,382.5,379.1,382.3,380.1,382.3z"/>
	<path class="st3" d="M405,382.5v3h-5.3v15h-3.5v-15H391v-3H405z"/>
	<path class="st3" d="M423.4,390.5c2.5,0.9,3.7,2.4,3.7,4.7c0,1.8-0.7,3.1-2,4s-3.3,1.3-5.7,1.3h-8.7v-18.1h8.7
		c1.9,0,3.5,0.4,4.6,1.2c1.1,0.8,1.7,2,1.7,3.5C425.8,388.9,425,390.1,423.4,390.5z M414.1,385.4v3.9h5.2c1.9,0,2.8-0.7,2.8-2
		c0-1.2-0.9-1.9-2.8-1.9H414.1z M419.4,397.7c2.8,0,4.2-0.8,4.2-2.4c0-2-1.4-3-4.2-3h-5.2v5.4H419.4z"/>
	<path class="st3" d="M440.5,382.3c1,0,2,0.2,3,0.6s2,1,2.9,1.7s1.6,1.7,2.2,2.9c0.6,1.2,0.9,2.6,0.9,4.1s-0.3,2.9-0.9,4.1
		s-1.3,2.2-2.2,2.9s-1.9,1.3-2.9,1.7c-1,0.4-2,0.6-3,0.6s-2-0.2-3-0.6s-2-0.9-2.9-1.7c-0.9-0.7-1.7-1.7-2.2-2.9
		c-0.6-1.2-0.9-2.6-0.9-4.1s0.3-2.8,0.9-4.1c0.6-1.2,1.3-2.2,2.2-2.9s1.9-1.3,2.9-1.7S439.5,382.3,440.5,382.3z M440.5,385.3
		c-1.4,0-2.7,0.6-3.8,1.6c-1.1,1.1-1.7,2.6-1.7,4.6c0,1.9,0.6,3.5,1.7,4.5c1.1,1.1,2.4,1.6,3.8,1.6s2.6-0.5,3.8-1.6
		c1.1-1.1,1.7-2.6,1.7-4.5c0-2-0.6-3.5-1.7-4.6S441.9,385.3,440.5,385.3z"/>
</g>
</svg>
