<?xml version="1.0" encoding="utf-8"?>
<!-- Generator: Adobe Illustrator 25.0.1, SVG Export Plug-In . SVG Version: 6.00 Build 0)  -->
<svg version="1.1" id="Слой_1" xmlns="http://www.w3.org/2000/svg" xmlns:xlink="http://www.w3.org/1999/xlink" x="0px" y="0px"
     viewBox="0 0 34.8 26.4" style="enable-background:new 0 0 34.8 26.4;" xml:space="preserve">
<style type="text/css">
	.st0{fill:#FFFFFF;}
	.st1{fill:#0097AE;}
	.st2{opacity:0.31;}
	.st3{fill:#1D1D1B;}
</style>
    <g>
	<g>
		<path d="M32.5,22.6H2.4V2.4h30.1C32.5,2.4,32.5,22.6,32.5,22.6z M2.6,22.3h29.6V2.6H2.6V22.3z"/>
	</g>
        <g>
		<rect x="2.5" y="23.1" width="29.8" height="0.7"/>
	</g>
        <g>
		<path d="M33.1,26.4H1.7c-0.9,0-1.7-0.8-1.7-1.7v-23C0,0.8,0.8,0,1.7,0h31.5c0.9,0,1.7,0.8,1.7,1.7v23
			C34.8,25.6,34.1,26.4,33.1,26.4z M1.7,1.2c-0.2,0-0.4,0.2-0.4,0.4v23c0,0.2,0.2,0.4,0.4,0.4h31.5c0.2,0,0.4-0.2,0.4-0.4v-23
			c0-0.2-0.2-0.4-0.4-0.4H1.7z"/>
	</g>
        <g>
		<circle class="st0" cx="31" cy="25.8" r="0.3"/>
	</g>
        <path class="st1" d="M24.4,19.1c-0.4-1.6-0.7-3.2-1.1-4.8s-0.7-3.2-1.1-4.8l0-0.2l-0.2,0c-0.6,0-1.2,0.1-1.8,0.1l-0.1-1.1
		c-0.1-0.6-0.2-1.3-0.5-1.9c-0.4-0.6-1.1-1.1-1.8-1.1c-0.9-0.1-1.8,0.4-2.5,1.2C14.8,7,14.5,7.9,14.4,9c0,0.2,0,0.3,0,0.5
		c-0.5,0-1,0-1.5,0.1l-0.2,0l0,0.2c-0.4,3.3-1.2,6.5-2.2,9.6l-0.1,0.3l0.4,0c2.2-0.1,4.5-0.1,6.7-0.2c2.2-0.1,4.5-0.1,6.7-0.2l0.3,0
		L24.4,19.1z M14.9,9c0-0.9,0.3-1.7,0.8-2.3c0.5-0.7,1.3-1.1,2-1c0.6,0.1,1.1,0.4,1.5,0.9c0.3,0.5,0.4,1.2,0.5,1.7l0.1,1.1
		c-0.8,0-1.5,0-2.3,0c-0.8,0-1.7,0-2.6,0C14.9,9.3,14.9,9.1,14.9,9z M17.4,19.1c-2.1,0.1-4.2,0.1-6.4,0.2c1-3,1.7-6.1,2.1-9.2
		c0.4,0,0.8,0,1.3-0.1c0,0.5,0.1,1.1,0.2,1.6c0,0.1,0.1,0.2,0.2,0.2c0,0,0,0,0,0c0.1,0,0.2-0.1,0.2-0.3C15,11,15,10.5,14.9,10
		c0.9,0,1.7,0,2.6,0c0.8,0,1.5,0,2.3,0l0.2,1.5c0,0.1,0.1,0.2,0.3,0.2c0.1,0,0.2-0.1,0.2-0.3l-0.2-1.4c0.5,0,1,0,1.5-0.1
		c0.3,1.5,0.7,3,1,4.6c0.3,1.5,0.7,3,1,4.5C21.7,18.9,19.6,19,17.4,19.1z"/>
</g>
    <g class="st2">
	<path class="st3" d="M14.8,16.5h0.7v0.1h-0.8v-2.1h0.1L14.8,16.5L14.8,16.5z"/>
</g>
    <g class="st2">
	<path class="st3" d="M19,14.7h-0.7v0.9h0.6v0.1h-0.6v0.9h-0.1v-2.1H19L19,14.7L19,14.7z"/>
</g>
    <g class="st2">
	<path class="st3" d="M20.2,14.5v0.1h-0.5v1.9h-0.1v-1.9h-0.5v-0.1H20.2z"/>
</g>
    <g class="st2">
	<g>
		<path class="st1" d="M17.2,15.8c0,0-0.1,0.1-0.1,0.1c0,0-0.1,0.1-0.2,0.1c-0.1,0-0.1,0.1-0.2,0.1s-0.1,0.1-0.2,0.1l0,0
			C16.8,16.1,17,15.9,17.2,15.8L17.2,15.8z"/>
	</g>
        <g>
		<path class="st1" d="M16,15.3c0,0,0.1-0.1,0.1-0.1c0,0,0.1-0.1,0.1-0.1c0,0,0.1-0.1,0.1-0.1s0.1-0.1,0.1-0.1l0,0
			C16.4,15.1,16.2,15.2,16,15.3L16,15.3z"/>
	</g>
        <g>
		<path class="st1" d="M16.6,14.5c-0.6,0-1.1,0.5-1.1,1.1s0.5,1.1,1.1,1.1c0.6,0,1.1-0.5,1.1-1.1S17.2,14.5,16.6,14.5z M17.5,15.5
			c0,0.5-0.4,1-1,1c-0.5,0-1-0.4-1-1c0-0.5,0.4-1,1-1C17.1,14.6,17.5,15,17.5,15.5z"/>
	</g>
        <g>
		<g>
			<path class="st1" d="M15.9,16c0.2-0.2,0.5-0.3,0.7-0.4c0.2-0.1,0.5-0.3,0.7-0.4c-0.2,0.2-0.5,0.3-0.7,0.4
				C16.4,15.7,16.1,15.8,15.9,16z"/>
		</g>
            <g>
			<path class="st1" d="M17.2,15.5c-0.1,0.1-0.1,0.1-0.2,0.2c-0.1,0.1-0.2,0.1-0.2,0.1c-0.1,0-0.2,0.1-0.2,0.1S16.3,16,16.2,16v0
				C16.5,15.8,16.9,15.7,17.2,15.5L17.2,15.5z"/>
		</g>
            <g>
			<path class="st1" d="M16,15.6c0.1-0.1,0.1-0.1,0.2-0.2c0.1-0.1,0.2-0.1,0.2-0.1c0.1,0,0.2-0.1,0.2-0.1s0.2-0.1,0.2-0.1v0
				C16.6,15.3,16.3,15.4,16,15.6L16,15.6z"/>
		</g>
	</g>
</g>
</svg>
