<?xml version="1.0" encoding="utf-8"?>
<!-- Generator: Adobe Illustrator 25.0.1, SVG Export Plug-In . SVG Version: 6.00 Build 0)  -->
<svg version="1.1" id="Слой_1" xmlns="http://www.w3.org/2000/svg" xmlns:xlink="http://www.w3.org/1999/xlink" x="0px" y="0px"
     viewBox="0 0 36.8 27.5" style="enable-background:new 0 0 36.8 27.5;" xml:space="preserve">
<style type="text/css">
	.st0{fill:#0097AE;}
	.st1{opacity:0.1;}
	.st2{fill:#FFFFFF;}
</style>
    <path class="st0" d="M25.6,15.2c-0.1-0.9-0.4-1.8-0.5-2.7c-0.1-0.4-0.1-0.9-0.3-1.3c-0.1-0.4-0.1-0.8-0.3-1.2c0-0.1-0.1-0.3-0.3-0.3
	c-0.7,0-1.4,0.1-2.1,0c0-0.1,0-0.4,0-0.5c-0.3-0.9-0.3-2-0.9-2.9c-0.7-0.8-2.1-1-3.1-0.5c-0.1,0-0.1,0.1-0.3,0.1
	c-1.3,0.8-1.6,2.1-1.7,3.3c0,0.3,0,0.5,0,0.8h-0.4H15c0,0-0.7,0-0.5,0c-0.1-0.1-0.3-0.1-0.4,0c0,0,0,0-0.1,0.1
	c-0.4,1.8-0.8,3.7-1,5.4c-0.1,0.9-0.4,1.7-0.5,2.6c-0.3,0.9-0.4,1.7-0.7,2.5c0,0.1,0,0.3,0.3,0.3c0,0,0,0,0.1,0
	c4.8,0,9.6,0,14.4,0.1c0.1,0,0.3-0.1,0.3-0.3c0,0,0,0,0-0.1C26.3,18.9,25.9,17,25.6,15.2z M16.9,9.3L16.9,9.3c0-1.2,0.5-3.7,2.7-3.4
	c1.7,0.3,1.7,2.1,1.8,3.1c0,0.3,0,0.5,0.1,0.8c-0.7,0-1.2,0-1.7,0c-0.9,0-1.7,0-2.6,0.1h-0.4C16.9,9.7,16.9,9.6,16.9,9.3z
	 M12.4,20.4L12.4,20.4c0.1-0.7,0.3-1.4,0.4-2.1c0.1-0.9,0.4-1.8,0.5-2.7c0.4-1.7,0.7-3.4,1-5.2c0.1,0,0.4,0,0.5,0c0.4,0,0.8,0,1.2,0
	c0,0.7,0.1,1.3,0.1,2c0,0.3,0.7,0.3,0.7,0c0-0.7-0.1-1.3-0.1-2.1c0.9,0,1.7,0,2.6-0.1c0.7,0,1.4,0,2.1,0c0,0.7,0.1,1.4,0.1,2.1
	c0,0.3,0.7,0.3,0.7,0c0-0.7-0.1-1.4-0.1-2.1l0,0c0.7,0,1.2,0,1.8,0c0,0.3,0.1,0.5,0.1,0.8c0.1,0.4,0.1,0.9,0.3,1.3
	c0.1,0.9,0.4,1.8,0.5,2.9c0.4,1.7,0.7,3.5,1,5.2C21.4,20.4,17,20.4,12.4,20.4z"/>
    <g class="st1">
	<g>
		<path d="M15.5,17.6h1v0.1h-1.3v-3h0.1v2.9H15.5z"/>
	</g>
        <g>
		<path d="M21.6,14.9h-1v1.3h0.9v0.1h-0.9v1.3h-0.1v-3h1.2C21.6,14.7,21.6,14.9,21.6,14.9z"/>
	</g>
        <g>
		<path d="M23.3,14.8v0.1h-0.7v2.7h-0.1v-2.7h-0.8v-0.1H23.3z"/>
	</g>
        <g>
		<g>
			<path class="st0" d="M19.1,16.6c-0.1,0-0.1,0.1-0.3,0.1s-0.1,0.1-0.3,0.1S18.4,17,18.3,17c-0.1,0-0.1,0.1-0.3,0.1l0,0
				C18.4,17,18.7,16.8,19.1,16.6L19.1,16.6z"/>
		</g>
            <g>
			<path class="st0" d="M17.2,16c0.1,0,0.1-0.1,0.3-0.1s0.1-0.1,0.3-0.1s0.1-0.1,0.3-0.1s0.1-0.1,0.3-0.1l0,0
				C17.8,15.6,17.5,15.9,17.2,16L17.2,16z"/>
		</g>
            <g>
			<path class="st0" d="M18.2,14.7c-0.9,0-1.6,0.7-1.6,1.6s0.7,1.6,1.6,1.6s1.6-0.7,1.6-1.6S18.9,14.7,18.2,14.7z M19.5,16.3
				c0,0.8-0.7,1.4-1.4,1.4s-1.4-0.7-1.4-1.4c0-0.8,0.7-1.4,1.4-1.4C18.8,14.9,19.5,15.5,19.5,16.3z"/>
		</g>
            <g>
			<g>
				<path class="st0" d="M17.1,16.9c0.3-0.3,0.7-0.4,1-0.7s0.7-0.4,1-0.5c-0.3,0.3-0.7,0.4-1,0.7C17.8,16.5,17.5,16.6,17.1,16.9z"/>
			</g>
                <g>
				<path class="st0" d="M18.9,16.1c-0.1,0.1-0.3,0.1-0.3,0.3c-0.1,0.1-0.3,0.1-0.4,0.3c-0.1,0-0.3,0.1-0.4,0.1s-0.3,0.1-0.4,0.1
					l0,0C18,16.6,18.6,16.4,18.9,16.1L18.9,16.1z"/>
			</g>
                <g>
				<path class="st0" d="M17.2,16.4c0.1-0.1,0.3-0.1,0.3-0.3c0.1-0.1,0.3-0.1,0.4-0.3c0.1,0,0.3-0.1,0.4-0.1s0.3-0.1,0.4-0.1l0,0
					C18.2,15.9,17.8,16.1,17.2,16.4L17.2,16.4z"/>
			</g>
		</g>
	</g>
</g>
    <g>
	<path d="M34.8,23.9H1.9V1.8h32.9V23.9z M2.2,23.6h32.4V2.1H2.2V23.6z"/>
</g>
    <g>
	<path d="M34.6,27.5H2.1c-1.2,0-2.1-1-2.1-2.1V2.1C0,0.9,0.9,0,2.1,0h32.5c1.2,0,2.1,0.9,2.1,2.1v23.2
		C36.8,26.5,35.8,27.5,34.6,27.5z M2.1,1.5c-0.3,0-0.6,0.3-0.6,0.6v23.2c0,0.3,0.3,0.6,0.6,0.6h32.5c0.3,0,0.6-0.3,0.6-0.6V2.1
		c0-0.3-0.3-0.6-0.6-0.6H2.1z"/>
</g>
    <g>
	<rect x="2.1" y="24.6" width="32.6" height="0.8"/>
</g>
    <g>
	<circle class="st2" cx="33.4" cy="26.6" r="0.3"/>
</g>
</svg>
