<?xml version="1.0" encoding="utf-8"?>
<!-- Generator: Adobe Illustrator 25.0.1, SVG Export Plug-In . SVG Version: 6.00 Build 0)  -->
<svg version="1.1" id="Слой_1" xmlns="http://www.w3.org/2000/svg" xmlns:xlink="http://www.w3.org/1999/xlink" x="0px" y="0px"
	 viewBox="0 0 44.26 55.96" style="enable-background:new 0 0 44.26 55.96;" xml:space="preserve">
<style type="text/css">
	.st0{fill:#FFE2A8;}
	.st1{fill:#BCB4DA;}
	.st2{fill:#5E4F9B;}
	.st3{fill:none;}
	.st4{fill:#FDCE60;}
	.st5{fill:#FFFFFF;}
	.st6{fill:#009540;}
	.st7{fill:#FCC435;}
	.st8{fill:#BEB6DB;}
	.st9{fill:#4F3F91;}
	.st10{fill:#FBBF1F;}
	.st11{fill:#362B84;}
	.st12{fill:#FFDE9C;}
	.st13{fill:#694100;}
	.st14{fill:#7062A7;}
	.st15{fill:#312782;}
	.st16{fill:url(#rect907_2_);}
	.st17{fill:#1D1D1D;}
	.st18{opacity:0.3;fill:#FFFFFF;enable-background:new    ;}
	.st19{fill:#BCB8DC;}
	.st20{fill:#352A84;}
	.st21{fill:#FFD57B;}
</style>
<g>
	<path class="st0" d="M44.26,55.85c-0.03-0.59-0.09-1.18-0.19-1.77c-0.1-0.63-0.29-1.25-0.34-1.9c-0.1-1.15-0.21-2.3-0.33-3.45
		c-0.25-2.35-0.57-4.69-0.97-7.02c-0.37-2.18-0.75-4.4-1.43-6.52c-0.27-0.91-0.69-1.76-1.26-2.52c-0.61-0.74-1.4-1.31-2.29-1.67
		c-1.09-0.46-2.25-0.72-3.38-1.06c-1.06-0.31-2.14-0.52-3.23-0.62c-0.04,0-0.08,0.02-0.09,0.06c-0.62,1.17-1.13,2.39-1.78,3.56
		c-0.73,1.32-1.72,2.45-2.72,3.56c-0.3,0.36-0.64,0.69-1.01,0.97c-0.37,0.25-0.74,0.49-1.13,0.7c-0.84,0.47-1.71,0.88-2.58,1.29
		c-0.34,0.16-0.68,0.32-1.02,0.49c-0.18,0.07-0.36,0.17-0.5,0.3c-0.18,0.22,0.16,0.58,0.26,0.78c0.31,0.58,0.65,1.16,1.01,1.72
		c1.52,2.39,3.3,4.6,5.14,6.75c0.75,0.87,1.52,1.72,2.27,2.59c0.29,0.34,0.58,0.68,0.87,1.01c0.1,0.16,0.23,0.31,0.38,0.44
		c0.04,0.78,0.06,1.55,0.08,2.33c0,0.06,0.05,0.11,0.11,0.11h14.04C44.21,55.96,44.26,55.91,44.26,55.85L44.26,55.85z"/>
	<path class="st0" d="M36.65,31.9c-0.71-1.87-1.56-3.69-2.53-5.45c-0.91-1.63-1.88-3.38-3.25-4.67c-0.21-0.2-0.52-0.55-0.84-0.6
		c-0.32-0.05-0.5,0.23-0.63,0.48c-0.41,0.8-0.62,1.68-0.61,2.58c-0.04,2.04,0.54,4.09,0.94,6.08c0.07,0.33,0.13,0.67,0.2,1
		c0.03,0.13,0.04,0.26,0.17,0.33c0.18,0.04,0.37,0.05,0.56,0.02h0.88c1.28,0,2.55,0,3.82,0c0.05,0,0.09-0.03,0.1-0.08l0.94,0.29
		c0.01,0.02,0.02,0.05,0.03,0.07C36.49,32.09,36.7,32.03,36.65,31.9z"/>
	<rect x="11.06" y="10.84" class="st1" width="21.14" height="29.91"/>
	<path class="st2" d="M27.04,29.46c-0.27-1.33-0.53-2.66-0.79-3.99c-0.13-0.66-0.25-1.32-0.38-1.98c-0.06-0.33-0.13-0.65-0.19-0.98
		c-0.08-0.28-0.13-0.57-0.16-0.85c0-0.1-0.1-0.17-0.22-0.17c-0.53,0.04-1.06,0.05-1.59,0.03c-0.01-0.14-0.02-0.28-0.04-0.42
		c-0.07-0.72-0.11-1.55-0.6-2.18c-0.48-0.62-1.51-0.82-2.31-0.44c-0.07,0.03-0.13,0.07-0.19,0.11c-0.92,0.55-1.17,1.52-1.22,2.38
		c-0.01,0.2-0.02,0.4-0.02,0.61L19,21.58l-0.55,0.01c-0.04,0-0.49-0.01-0.43,0.04c-0.09-0.07-0.23-0.07-0.32,0
		c-0.03,0.02-0.04,0.05-0.05,0.07c-0.27,1.33-0.54,2.65-0.81,3.98c-0.13,0.64-0.26,1.29-0.39,1.93c-0.12,0.6-0.21,1.2-0.37,1.79
		c-0.03,0.09,0.04,0.19,0.16,0.21c0.02,0,0.03,0.01,0.05,0.01c3.52,0.02,7.03,0.03,10.55,0.05c0.11,0,0.21-0.07,0.21-0.16
		C27.05,29.5,27.05,29.49,27.04,29.46z M19.79,21.13c0.04-0.9,0.42-2.65,2.06-2.48c1.23,0.13,1.29,1.53,1.37,2.27
		c0.02,0.2,0.04,0.4,0.06,0.6c-0.43-0.01-0.87-0.02-1.3-0.01c-0.64,0.01-1.28,0.04-1.91,0.06l-0.28,0.01
		C19.78,21.42,19.78,21.27,19.79,21.13L19.79,21.13z M16.55,29.28c0.13-0.5,0.2-1.02,0.31-1.52c0.14-0.66,0.27-1.33,0.41-1.99
		c0.26-1.27,0.52-2.55,0.78-3.82c0.14,0,0.29-0.02,0.4-0.02c0.3,0,0.59-0.01,0.89-0.02c0.01,0.5,0.05,0.99,0.09,1.48
		c0.02,0.22,0.46,0.22,0.44,0c-0.04-0.5-0.08-0.99-0.09-1.49c0.64-0.02,1.29-0.04,1.94-0.06c0.53-0.01,1.05-0.02,1.58-0.02
		c0.04,0.52,0.07,1.04,0.12,1.57c0.02,0.22,0.46,0.22,0.44,0c-0.04-0.52-0.07-1.04-0.12-1.56h0.02c0.45,0.01,0.89,0.03,1.34,0.01
		c0.02,0.18,0.08,0.36,0.11,0.54c0.07,0.33,0.13,0.65,0.19,0.98c0.14,0.69,0.27,1.39,0.41,2.09c0.25,1.29,0.5,2.58,0.76,3.88
		C23.23,29.32,19.89,29.3,16.55,29.28L16.55,29.28z"/>
	<path class="st2" d="M32.47,10.05H10.64c-0.5,0-0.91,0.32-0.91,0.71v31.08c0,0.39,0.41,0.71,0.91,0.71h21.82
		c0.5,0,0.91-0.32,0.91-0.71V10.77C33.38,10.37,32.97,10.06,32.47,10.05z M31.16,38.45c0,0.39-0.41,0.71-0.91,0.71h-17.4
		c-0.5,0-0.91-0.32-0.91-0.71V12.49c0-0.39,0.41-0.71,0.91-0.71h5.03l0.41,0.36c0.16,0.14,0.39,0.22,0.63,0.22h5.25
		c0.24,0,0.47-0.08,0.63-0.22l0.41-0.36h5.03c0.5,0,0.91,0.32,0.91,0.71L31.16,38.45L31.16,38.45z"/>
	<circle class="st1" cx="21.55" cy="40.36" r="1.65"/>
	<path class="st0" d="M34.66,30.18c0,0-0.01,0-0.01-0.01c-2.7-0.79-5.59-1.05-8.39-1.21c-1.2-0.07-2.4-0.07-3.61-0.08
		c-1.01-0.01-2.44-0.16-3.2,0.67c-0.76,0.84-0.56,2.18-0.08,3.1c0.63,1.2,1.87,1.87,3.12,2.28c1.34,0.44,2.75,0.69,4.11,1.04
		c1.53,0.38,3.06,0.77,4.6,1.07c0.38,0.07,0.76,0.14,1.15,0.2c0.28,0.04,0.66,0.16,0.93,0.03c0.29-0.14,0.45-0.54,0.57-0.81
		c0.15-0.33,0.26-0.68,0.34-1.03c0.4-1.68,0.31-3.45,0.54-5.16C34.74,30.23,34.71,30.19,34.66,30.18
		C34.67,30.18,34.67,30.18,34.66,30.18z"/>
	<path class="st3" d="M24.88,29.97c-0.05-0.51-0.41-0.93-0.9-1.06c-0.24-0.06-0.48-0.08-0.72-0.07c-0.47-0.04-0.93-0.06-1.4-0.09
		c-0.63-0.03-1.35-0.16-1.98-0.06c-1.15,0.19-1.03,1.47-0.33,2.1c0.42,0.38,0.98,0.54,1.52,0.68c0.62,0.19,1.26,0.29,1.91,0.31
		C23.98,31.77,25,31.09,24.88,29.97z"/>
	<path class="st4" d="M35.84,30.12c-0.31-0.16-0.62-0.3-0.95-0.42c-0.48-0.13-0.97-0.24-1.46-0.32c-0.28-0.06-0.4,0.37-0.12,0.43
		c0.79,0.13,1.57,0.36,2.3,0.69C35.87,30.63,36.1,30.24,35.84,30.12z"/>
	<path class="st4" d="M35.42,49.57c-1.46-2.09-2.19-4.6-2.08-7.14c0.01-0.29-0.43-0.29-0.44,0c-0.11,2.62,0.64,5.21,2.14,7.37
		C35.2,50.03,35.59,49.81,35.42,49.57z"/>
	<path class="st5" d="M20.85,29.21c-0.28,0-0.56-0.01-0.84-0.01c-0.12,0.01-0.22,0.11-0.21,0.23c0.01,0.12,0.1,0.21,0.21,0.21
		c0.28-0.01,0.56,0.01,0.84,0.01c0.12-0.01,0.22-0.11,0.21-0.23C21.06,29.31,20.97,29.22,20.85,29.21z"/>
	<path class="st6" d="M41.94,11.92l1.82-6.13l-0.43-0.14c-0.02-0.21-0.16-0.4-0.37-0.47c-0.21-0.07-0.43,0-0.57,0.15l-0.3-0.1
		c-0.02-0.21-0.16-0.4-0.37-0.47c-0.21-0.07-0.43,0-0.57,0.15l-0.3-0.1c-0.02-0.21-0.16-0.4-0.36-0.47c-0.21-0.07-0.43,0-0.57,0.15
		l-0.3-0.1c-0.02-0.21-0.16-0.4-0.37-0.47c-0.21-0.07-0.43,0-0.57,0.15l-0.3-0.1c-0.02-0.21-0.16-0.4-0.37-0.47
		c-0.21-0.07-0.43,0-0.57,0.15l-0.3-0.1c-0.02-0.21-0.16-0.4-0.37-0.47c-0.21-0.07-0.43,0-0.57,0.15l-0.3-0.1
		c-0.02-0.21-0.16-0.4-0.37-0.47c-0.21-0.07-0.43,0-0.57,0.15l-0.3-0.1c-0.02-0.21-0.16-0.4-0.37-0.47c-0.21-0.07-0.43,0-0.57,0.15
		l-0.3-0.1c-0.02-0.21-0.16-0.4-0.37-0.47c-0.21-0.07-0.43,0-0.57,0.15L32,1.87l-3.43,10.26l8.06,2.69
		C42.47,16.34,40.04,17.63,41.94,11.92z"/>
	
		<rect x="30.46" y="2.66" transform="matrix(0.3167 -0.9485 0.9485 0.3167 16.1054 40.0732)" class="st5" width="10.82" height="12.4"/>
	
		<rect x="33.31" y="6.61" transform="matrix(0.3167 -0.9485 0.9485 0.3167 11.4521 41.5233)" class="st7" width="2.48" height="12.4"/>
	<g>
		
			<rect x="35.17" y="4.72" transform="matrix(0.3167 -0.9485 0.9485 0.3167 19.3034 37.3125)" class="st8" width="0.75" height="1.07"/>
		
			<rect x="36.58" y="5.19" transform="matrix(0.3167 -0.9485 0.9485 0.3167 19.8198 38.9695)" class="st8" width="0.75" height="1.07"/>
		
			<rect x="37.99" y="5.66" transform="matrix(0.3167 -0.9485 0.9485 0.3167 20.3357 40.625)" class="st8" width="0.75" height="1.07"/>
		
			<rect x="39.4" y="6.13" transform="matrix(0.3167 -0.9485 0.9485 0.3167 20.8525 42.2835)" class="st8" width="0.75" height="1.07"/>
		
			<rect x="40.81" y="6.6" transform="matrix(0.3167 -0.9485 0.9485 0.3167 21.3686 43.9394)" class="st8" width="0.75" height="1.07"/>
	</g>
	<g>
		
			<rect x="32.01" y="4.96" transform="matrix(0.3167 -0.9485 0.9485 0.3167 16.9192 34.4731)" class="st9" width="0.75" height="1.07"/>
		
			<rect x="33.42" y="5.43" transform="matrix(0.3167 -0.9485 0.9485 0.3167 17.4356 36.1302)" class="st9" width="0.75" height="1.07"/>
	</g>
	<g>
		
			<rect x="34.81" y="5.83" transform="matrix(0.3167 -0.9485 0.9485 0.3167 18.0049 37.7172)" class="st8" width="0.75" height="1.07"/>
		
			<rect x="36.21" y="6.3" transform="matrix(0.3167 -0.9485 0.9485 0.3167 18.5213 39.3741)" class="st8" width="0.75" height="1.07"/>
		
			<rect x="37.62" y="6.77" transform="matrix(0.3167 -0.9485 0.9485 0.3167 19.0372 41.0297)" class="st8" width="0.75" height="1.07"/>
		
			<rect x="39.03" y="7.24" transform="matrix(0.3167 -0.9485 0.9485 0.3167 19.554 42.6881)" class="st8" width="0.75" height="1.07"/>
		
			<rect x="40.44" y="7.71" transform="matrix(0.3167 -0.9485 0.9485 0.3167 20.0701 44.344)" class="st8" width="0.75" height="1.07"/>
	</g>
	<g>
		
			<rect x="31.64" y="6.01" transform="matrix(0.3167 -0.9485 0.9485 0.3167 15.6722 34.8393)" class="st9" width="0.75" height="1.07"/>
		
			<rect x="33.05" y="6.48" transform="matrix(0.3167 -0.9485 0.9485 0.3167 16.1886 36.4964)" class="st9" width="0.75" height="1.07"/>
	</g>
	<g>
		
			<rect x="34.39" y="6.93" transform="matrix(0.3167 -0.9485 0.9485 0.3167 16.6749 38.0786)" class="st8" width="0.75" height="1.07"/>
		
			<rect x="35.8" y="7.4" transform="matrix(0.3167 -0.9485 0.9485 0.3167 17.1912 39.7355)" class="st8" width="0.75" height="1.07"/>
		
			<rect x="37.21" y="7.87" transform="matrix(0.3167 -0.9485 0.9485 0.3167 17.7071 41.3911)" class="st8" width="0.75" height="1.07"/>
		
			<rect x="38.62" y="8.34" transform="matrix(0.3167 -0.9485 0.9485 0.3167 18.224 43.0496)" class="st8" width="0.75" height="1.07"/>
		
			<rect x="40.02" y="8.81" transform="matrix(0.3167 -0.9485 0.9485 0.3167 18.74 44.7054)" class="st8" width="0.75" height="1.07"/>
	</g>
	<g>
		
			<rect x="31.27" y="7.06" transform="matrix(0.3167 -0.9485 0.9485 0.3167 14.4233 35.2044)" class="st9" width="0.75" height="1.07"/>
		
			<rect x="32.68" y="7.53" transform="matrix(0.3167 -0.9485 0.9485 0.3167 14.9397 36.8615)" class="st9" width="0.75" height="1.07"/>
	</g>
	<g>
		
			<rect x="34.02" y="8.03" transform="matrix(0.3167 -0.9485 0.9485 0.3167 15.3764 38.4832)" class="st8" width="0.75" height="1.07"/>
		
			<rect x="35.43" y="8.5" transform="matrix(0.3167 -0.9485 0.9485 0.3167 15.8928 40.1402)" class="st8" width="0.75" height="1.07"/>
		
			<rect x="36.84" y="8.97" transform="matrix(0.3167 -0.9485 0.9485 0.3167 16.4087 41.7957)" class="st8" width="0.75" height="1.07"/>
		
			<rect x="38.25" y="9.45" transform="matrix(0.3167 -0.9485 0.9485 0.3167 16.9255 43.4542)" class="st8" width="0.75" height="1.07"/>
		
			<rect x="39.65" y="9.91" transform="matrix(0.3167 -0.9485 0.9485 0.3167 17.4416 45.1101)" class="st8" width="0.75" height="1.07"/>
	</g>
	<g>
		
			<rect x="30.84" y="8.2" transform="matrix(0.3167 -0.9485 0.9485 0.3167 13.0436 35.5739)" class="st9" width="0.75" height="1.07"/>
		
			<rect x="32.25" y="8.67" transform="matrix(0.3167 -0.9485 0.9485 0.3167 13.5601 37.231)" class="st9" width="0.75" height="1.07"/>
	</g>
	<g>
		
			<rect x="33.65" y="9.14" transform="matrix(0.3167 -0.9485 0.9485 0.3167 14.0765 38.8883)" class="st8" width="0.75" height="1.07"/>
		
			<rect x="35.06" y="9.61" transform="matrix(0.3167 -0.9485 0.9485 0.3167 14.5929 40.5453)" class="st8" width="0.75" height="1.07"/>
	</g>
	<polygon class="st5" points="38.29,15.37 38.87,13.63 40.62,14.21 	"/>
	<polygon class="st10" points="40.62,14.21 40.03,15.95 38.29,15.37 	"/>
	<g>
		<path class="st11" d="M32.83,2.07c0.1,0.03,0.17,0.11,0.21,0.2l0.22,0.07c-0.02-0.21-0.16-0.4-0.37-0.47
			c-0.28-0.09-0.59,0.06-0.68,0.34c-0.09,0.28,0.06,0.59,0.34,0.68l0.06-0.19c-0.18-0.06-0.27-0.25-0.21-0.42
			C32.46,2.11,32.65,2.01,32.83,2.07z"/>
		<path class="st11" d="M34.07,2.49c0.1,0.03,0.17,0.11,0.21,0.2l0.22,0.07c-0.02-0.21-0.16-0.4-0.37-0.47
			c-0.28-0.09-0.59,0.06-0.68,0.34c-0.09,0.28,0.06,0.59,0.34,0.68l0.06-0.19c-0.18-0.06-0.27-0.25-0.21-0.42
			C33.7,2.52,33.89,2.43,34.07,2.49z"/>
		<path class="st11" d="M35.31,2.9c0.1,0.03,0.17,0.11,0.21,0.2l0.22,0.07c-0.02-0.21-0.16-0.4-0.37-0.47
			c-0.28-0.09-0.59,0.06-0.68,0.34c-0.09,0.28,0.06,0.59,0.34,0.68l0.06-0.19c-0.17-0.06-0.27-0.25-0.21-0.42
			C34.94,2.94,35.13,2.84,35.31,2.9z"/>
		<path class="st11" d="M36.55,3.31c0.1,0.03,0.17,0.11,0.21,0.2l0.22,0.07c-0.02-0.21-0.16-0.4-0.37-0.47
			c-0.28-0.09-0.59,0.06-0.68,0.34c-0.09,0.28,0.06,0.59,0.34,0.68l0.06-0.19c-0.17-0.06-0.27-0.25-0.21-0.42
			C36.18,3.35,36.37,3.26,36.55,3.31z"/>
		<path class="st11" d="M37.79,3.73c0.1,0.03,0.17,0.11,0.21,0.2L38.22,4c-0.02-0.21-0.16-0.4-0.37-0.47
			c-0.28-0.09-0.59,0.06-0.68,0.34c-0.09,0.28,0.06,0.59,0.34,0.68l0.06-0.19c-0.18-0.06-0.27-0.25-0.21-0.42
			C37.42,3.76,37.61,3.67,37.79,3.73z"/>
		<path class="st11" d="M39.03,4.14c0.1,0.03,0.17,0.11,0.21,0.2l0.22,0.07c-0.02-0.21-0.16-0.4-0.37-0.47
			c-0.28-0.09-0.59,0.06-0.68,0.34c-0.09,0.28,0.06,0.59,0.34,0.68l0.06-0.19c-0.17-0.06-0.27-0.25-0.21-0.42
			C38.66,4.18,38.85,4.08,39.03,4.14z"/>
		<path class="st11" d="M40.27,4.56c0.1,0.03,0.17,0.11,0.21,0.2l0.22,0.07c-0.02-0.21-0.16-0.4-0.37-0.47
			c-0.28-0.09-0.59,0.06-0.68,0.34c-0.09,0.28,0.06,0.59,0.34,0.68l0.06-0.19c-0.18-0.06-0.27-0.25-0.21-0.42
			C39.9,4.59,40.09,4.5,40.27,4.56z"/>
		<path class="st11" d="M41.51,4.97c0.1,0.03,0.17,0.11,0.21,0.2l0.22,0.07c-0.02-0.21-0.16-0.4-0.37-0.47
			c-0.28-0.09-0.59,0.06-0.68,0.34C40.8,5.4,40.95,5.7,41.23,5.8l0.06-0.19c-0.18-0.06-0.27-0.25-0.21-0.42
			C41.14,5.01,41.33,4.91,41.51,4.97z"/>
		<path class="st11" d="M42.75,5.38c0.1,0.03,0.17,0.11,0.21,0.2l0.22,0.07c-0.02-0.21-0.16-0.4-0.37-0.47
			c-0.28-0.09-0.59,0.06-0.68,0.34c-0.09,0.28,0.06,0.59,0.34,0.68l0.06-0.19c-0.17-0.06-0.27-0.25-0.21-0.42
			C42.38,5.42,42.57,5.33,42.75,5.38z"/>
	</g>
	<circle class="st12" cx="30.34" cy="10.74" r="0.12"/>
	<path class="st13" d="M30.1,11.16l0.14-0.13l-0.08-0.41c-0.01-0.05-0.04-0.09-0.09-0.1l-0.18-0.06l0.21,1.02l0,0l-0.04-0.19
		C30.05,11.24,30.06,11.19,30.1,11.16z"/>
	<path class="st14" d="M30.87,10.78l-0.18-0.06c-0.05-0.02-0.1,0-0.13,0.03l-0.32,0.28l0.04,0.19c0.01,0.05-0.01,0.1-0.04,0.13
		l-0.14,0.13l0,0L30.87,10.78z"/>
	<path class="st15" d="M30.28,11.22l-0.04-0.19l-0.14,0.13c-0.04,0.03-0.05,0.08-0.04,0.13l0.04,0.19l0.14-0.13
		C30.27,11.32,30.29,11.27,30.28,11.22z"/>
	<g>
		<g>
			<path class="st15" d="M31.11,11.25l-0.3,0.31l-0.01,0l-0.06-0.43l0.09,0.03l0.03,0.26l0.17-0.19L31.11,11.25z"/>
			<path class="st15" d="M31.21,11.28l-0.02,0.07l-0.08-0.03l0.02-0.07L31.21,11.28z M31.18,11.38l-0.09,0.28l-0.08-0.03l0.09-0.28
				L31.18,11.38z"/>
			<path class="st15" d="M31.36,11.44c0.02,0.01,0.04,0.02,0.06,0.04c0.02,0.02,0.03,0.04,0.04,0.06l-0.08,0
				c-0.01-0.02-0.02-0.03-0.04-0.04c-0.02-0.01-0.03,0-0.05,0.01c-0.02,0.01-0.03,0.03-0.04,0.05c-0.01,0.02-0.01,0.04,0,0.06
				c0.01,0.02,0.02,0.03,0.04,0.04c0.02,0.01,0.04,0.01,0.06-0.01l0.06,0.05c-0.02,0.02-0.04,0.03-0.07,0.03s-0.05,0-0.07-0.01
				c-0.01,0-0.03-0.01-0.04-0.02c-0.01-0.01-0.03-0.02-0.04-0.04c-0.01-0.02-0.02-0.03-0.02-0.06c0-0.02,0-0.04,0.01-0.07
				c0.01-0.02,0.02-0.04,0.03-0.06c0.02-0.02,0.03-0.03,0.05-0.03c0.02-0.01,0.04-0.01,0.05-0.01
				C31.33,11.43,31.35,11.43,31.36,11.44z"/>
			<path class="st15" d="M31.64,11.6l-0.06-0.02l-0.04,0.13c-0.01,0.02,0,0.03,0.01,0.03c0.01,0,0.03,0.01,0.04,0.01l-0.02,0.06
				c-0.01,0-0.03,0-0.06-0.01c-0.03-0.01-0.04-0.02-0.05-0.04c-0.01-0.02-0.01-0.04,0-0.08l0.04-0.13l-0.03-0.01l0.02-0.06
				l0.03,0.01l0.02-0.05l0.08,0.03l-0.02,0.05l0.06,0.02L31.64,11.6z"/>
			<path class="st15" d="M31.78,11.58c0.02,0,0.03,0,0.05,0.01s0.03,0.01,0.04,0.02c0.01,0.01,0.03,0.02,0.04,0.04
				c0.01,0.02,0.02,0.03,0.02,0.06c0,0.02,0,0.04-0.01,0.07c-0.01,0.02-0.02,0.04-0.03,0.06c-0.02,0.02-0.03,0.03-0.05,0.03
				c-0.02,0.01-0.04,0.01-0.05,0.01c-0.02,0-0.03,0-0.05-0.01c-0.01,0-0.03-0.01-0.04-0.02c-0.01-0.01-0.03-0.02-0.04-0.04
				c-0.01-0.02-0.02-0.03-0.02-0.06c0-0.02,0-0.04,0.01-0.07c0.01-0.02,0.02-0.04,0.03-0.06c0.02-0.02,0.03-0.03,0.05-0.03
				C31.74,11.59,31.76,11.58,31.78,11.58z M31.8,11.66c-0.02-0.01-0.04,0-0.05,0.01c-0.02,0.01-0.03,0.03-0.04,0.05
				c-0.01,0.02-0.01,0.04,0,0.06c0.01,0.02,0.02,0.03,0.04,0.04c0.02,0.01,0.03,0,0.05-0.01c0.02-0.01,0.03-0.03,0.04-0.05
				c0.01-0.02,0.01-0.05,0-0.06C31.83,11.67,31.82,11.66,31.8,11.66z"/>
			<path class="st15" d="M32.17,11.71c0.01,0,0.02,0.01,0.03,0.01l-0.02,0.07c-0.01,0-0.01-0.01-0.03-0.01
				c-0.02-0.01-0.05-0.01-0.07,0c-0.02,0.01-0.04,0.03-0.05,0.05l-0.04,0.12l-0.08-0.03L32,11.65l0.08,0.03l-0.03,0.09
				c0.01-0.03,0.03-0.05,0.05-0.06C32.12,11.7,32.14,11.7,32.17,11.71z"/>
			<path class="st15" d="M32.34,11.66l-0.02,0.07l-0.08-0.03l0.02-0.07L32.34,11.66z M32.31,11.75l-0.09,0.28L32.14,12l0.09-0.28
				L32.31,11.75z"/>
			<path class="st15" d="M32.48,11.81c0.02,0.01,0.04,0.02,0.05,0.03s0.02,0.02,0.01,0.03l0.01-0.03l0.08,0.03l-0.09,0.28
				l-0.08-0.03l0.01-0.04c0,0.01-0.01,0.01-0.03,0.02c-0.02,0.01-0.04,0-0.06,0c-0.01,0-0.03-0.01-0.04-0.02
				c-0.01-0.01-0.02-0.02-0.03-0.04c-0.01-0.02-0.01-0.03-0.02-0.06c0-0.02,0-0.04,0.01-0.07c0.01-0.04,0.04-0.07,0.07-0.09
				C32.41,11.8,32.44,11.8,32.48,11.81z M32.51,11.91c-0.01-0.02-0.02-0.03-0.04-0.03c-0.02-0.01-0.04,0-0.05,0.01
				c-0.02,0.01-0.03,0.03-0.04,0.05c-0.01,0.02-0.01,0.04,0,0.06c0.01,0.02,0.02,0.03,0.04,0.04c0.02,0.01,0.03,0,0.05,0
				c0.02-0.01,0.03-0.03,0.04-0.05C32.51,11.95,32.51,11.93,32.51,11.91z"/>
		</g>
	</g>
	<g>
		<path class="st15" d="M30.63,11.66c0.01,0,0.02,0.01,0.03,0.02c0.01,0.01,0.01,0.02,0,0.03c0,0.01-0.01,0.02-0.02,0.02
			c-0.01,0-0.02,0-0.03,0l-0.02-0.01l-0.01,0.04l-0.02-0.01l0.04-0.11L30.63,11.66L30.63,11.66z M30.61,11.71c0.01,0,0.01,0,0.02,0
			c0.01,0,0.01-0.01,0.01-0.01c0-0.01,0-0.01,0-0.02c0-0.01-0.01-0.01-0.02-0.01l-0.02-0.01l-0.01,0.04L30.61,11.71L30.61,11.71z"/>
		<path class="st15" d="M30.73,11.72c0,0,0.01,0,0.01,0.01c0,0,0.01,0.01,0.01,0.01c0,0,0,0.01,0.01,0.02c0,0.01,0,0.01,0,0.02
			c0,0,0,0,0,0.01l-0.07-0.02c0,0.01,0,0.01,0,0.02s0.01,0.01,0.01,0.01c0.01,0,0.02,0,0.02,0l0.01,0.01
			c-0.01,0.01-0.02,0.01-0.04,0c0,0-0.01,0-0.01-0.01c0,0-0.01-0.01-0.01-0.01c0,0-0.01-0.01-0.01-0.02c0-0.01,0-0.01,0-0.02
			s0.01-0.01,0.01-0.02c0,0,0.01-0.01,0.01-0.01s0.01,0,0.02,0C30.72,11.72,30.72,11.72,30.73,11.72z M30.72,11.73
			c-0.01,0-0.01,0-0.02,0s-0.01,0.01-0.01,0.01l0.05,0.02c0-0.01,0-0.01,0-0.02C30.73,11.74,30.73,11.73,30.72,11.73z"/>
		<path class="st15" d="M30.84,11.85l-0.02-0.01L30.8,11.8l-0.01,0l-0.01,0.03l-0.02-0.01l0.03-0.08l0.02,0.01l-0.01,0.04l0.05-0.02
			l0.02,0.01l-0.05,0.03L30.84,11.85z"/>
		<path class="st15" d="M30.98,11.81l-0.03,0.08l-0.02-0.01l0.02-0.07l-0.05-0.02l-0.02,0.05c0,0.01-0.01,0.01-0.01,0.02
			c0,0-0.01,0-0.02,0s-0.01,0-0.01-0.01l0-0.01c0,0,0.01,0.01,0.01,0.01c0,0,0,0,0.01,0s0,0,0,0l0.02-0.06L30.98,11.81L30.98,11.81z
			"/>
		<path class="st15" d="M31.05,11.83c0.01,0,0.01,0.01,0.02,0.01c0,0,0.01,0.01,0.01,0.01l0-0.01l0.02,0.01l-0.03,0.08l-0.02-0.01
			l0-0.01c0,0-0.01,0.01-0.01,0.01c-0.01,0-0.01,0-0.02,0c0,0-0.01,0-0.01-0.01c0,0-0.01-0.01-0.01-0.01c0,0,0-0.01,0-0.02
			s0-0.01,0-0.02c0-0.01,0.01-0.01,0.01-0.02c0,0,0.01-0.01,0.01-0.01c0,0,0.01,0,0.02,0C31.04,11.82,31.04,11.82,31.05,11.83z
			 M31.06,11.85c0-0.01-0.01-0.01-0.01-0.01s-0.01,0-0.02,0s-0.01,0.01-0.01,0.02c0,0.01,0,0.02,0,0.02c0,0.01,0.01,0.01,0.02,0.01
			c0.01,0,0.01,0,0.02,0c0.01,0,0.01-0.01,0.01-0.02C31.06,11.87,31.06,11.86,31.06,11.85z"/>
		<path class="st15" d="M31.22,11.88l-0.03,0.08l-0.02-0.01l0.01-0.04l-0.05,0.03l0,0l-0.02-0.05l-0.01,0.04l-0.02-0.01l0.03-0.08
			l0,0l0.03,0.08L31.22,11.88L31.22,11.88z"/>
		<path class="st15" d="M31.3,11.91l0.02,0.01L31.29,12L31.28,12l0.01-0.04l-0.04-0.01l-0.01,0.04l-0.02-0.01l0.03-0.08l0.02,0.01
			l-0.01,0.04l0.04,0.01L31.3,11.91z"/>
		<path class="st15" d="M31.39,11.94c0,0,0.01,0,0.01,0.01c0,0,0.01,0.01,0.01,0.01s0,0.01,0.01,0.02c0,0.01,0,0.01,0,0.02
			s-0.01,0.01-0.01,0.02c0,0-0.01,0.01-0.01,0.01s-0.01,0-0.02,0c-0.01,0-0.01,0-0.01,0c0,0-0.01,0-0.01-0.01
			c0,0-0.01-0.01-0.01-0.01c0,0-0.01-0.01-0.01-0.02c0-0.01,0-0.01,0-0.02c0-0.01,0.01-0.01,0.01-0.02c0,0,0.01-0.01,0.01-0.01
			c0.01,0,0.01,0,0.02,0C31.38,11.94,31.38,11.94,31.39,11.94z M31.38,11.95c-0.01,0-0.01,0-0.02,0c-0.01,0-0.01,0.01-0.02,0.02
			c0,0.01,0,0.02,0,0.02c0,0.01,0.01,0.01,0.02,0.01c0.01,0,0.01,0,0.02,0c0.01,0,0.01-0.01,0.01-0.02c0-0.01,0-0.02,0-0.02
			C31.39,11.96,31.39,11.96,31.38,11.95z"/>
		<path class="st15" d="M31.49,11.97c0,0,0.01,0,0.01,0.01c0,0,0.01,0.01,0.01,0.01c0,0,0,0.01,0.01,0.02c0,0.01,0,0.01,0,0.02
			c0,0,0,0,0,0.01l-0.07-0.02c0,0.01,0,0.01,0,0.02c0,0.01,0.01,0.01,0.01,0.01c0.01,0,0.02,0,0.02,0l0.01,0.01
			c-0.01,0.01-0.02,0.01-0.04,0c0,0-0.01,0-0.01-0.01s-0.01-0.01-0.01-0.01c0,0-0.01-0.01-0.01-0.02c0-0.01,0-0.01,0-0.02
			c0-0.01,0.01-0.01,0.01-0.02c0,0,0.01-0.01,0.01-0.01c0.01,0,0.01,0,0.02,0C31.48,11.97,31.49,11.97,31.49,11.97z M31.49,11.99
			c-0.01,0-0.01,0-0.02,0S31.46,12,31.45,12l0.05,0.02c0-0.01,0-0.01,0-0.02C31.5,11.99,31.49,11.99,31.49,11.99z"/>
		<path class="st15" d="M31.67,12.13l0-0.03l-0.05-0.02l-0.02,0.02l-0.02-0.01l0.09-0.1l0,0l0.02,0.13L31.67,12.13z M31.63,12.07
			l0.04,0.01l0-0.05L31.63,12.07z"/>
		<path class="st15" d="M31.8,12.08l0,0.01l-0.05-0.02l-0.02,0.07l-0.02-0.01l0.03-0.08L31.8,12.08L31.8,12.08z"/>
		<path class="st15" d="M31.86,12.1c0,0,0.01,0,0.01,0.01c0,0,0.01,0.01,0.01,0.01c0,0,0,0.01,0.01,0.02c0,0.01,0,0.01,0,0.02
			c0,0,0,0,0,0.01l-0.07-0.02c0,0.01,0,0.01,0,0.02c0,0.01,0.01,0.01,0.01,0.01c0.01,0,0.02,0,0.02,0l0.01,0.01
			c-0.01,0.01-0.02,0.01-0.04,0c0,0-0.01,0-0.01-0.01s-0.01-0.01-0.01-0.01c0,0-0.01-0.01-0.01-0.02c0-0.01,0-0.01,0-0.02
			c0-0.01,0.01-0.01,0.01-0.02c0,0,0.01-0.01,0.01-0.01c0.01,0,0.01,0,0.02,0C31.85,12.1,31.86,12.1,31.86,12.1z M31.86,12.11
			c-0.01,0-0.01,0-0.02,0s-0.01,0.01-0.01,0.01l0.05,0.02c0-0.01,0-0.01,0-0.02C31.87,12.12,31.86,12.11,31.86,12.11z"/>
		<path class="st15" d="M31.99,12.14L32,12.15l-0.03,0.08l-0.02-0.01l0.01-0.04l-0.04-0.01l-0.01,0.04l-0.02-0.01l0.03-0.08
			l0.02,0.01l-0.01,0.04l0.04,0.01L31.99,12.14z"/>
		<path class="st15" d="M32.1,12.18l0,0.01l-0.02-0.01l-0.02,0.07l-0.02-0.01l0.02-0.07l-0.02-0.01l0-0.01L32.1,12.18z"/>
		<path class="st15" d="M32.16,12.2c0.01,0,0.01,0.01,0.02,0.01c0.01,0.01,0.01,0.01,0.01,0.02l-0.02,0c0-0.01-0.01-0.02-0.02-0.02
			c-0.01,0-0.01,0-0.02,0c-0.01,0-0.01,0.01-0.02,0.02c0,0.01,0,0.02,0,0.02c0,0.01,0.01,0.01,0.02,0.01c0,0,0.01,0,0.01,0
			c0,0,0.01,0,0.01,0l0.01,0.01c-0.01,0.01-0.01,0.01-0.02,0.01c-0.01,0-0.01,0-0.02,0c0,0-0.01,0-0.01-0.01
			c0,0-0.01-0.01-0.01-0.01c0,0,0-0.01-0.01-0.02c0-0.01,0-0.01,0-0.02c0-0.01,0.01-0.01,0.01-0.02c0,0,0.01-0.01,0.01-0.01
			c0.01,0,0.01,0,0.02,0C32.15,12.2,32.16,12.2,32.16,12.2z"/>
		<path class="st15" d="M32.28,12.24l0,0.01l-0.02-0.01l-0.02,0.07l-0.02-0.01l0.02-0.07l-0.02-0.01l0-0.01L32.28,12.24z"/>
		<path class="st15" d="M32.35,12.3c0.01,0.01,0.01,0.02,0.01,0.03c0,0.01-0.01,0.01-0.02,0.02s-0.02,0-0.03,0l-0.04-0.01l0.03-0.08
			l0.04,0.01c0.01,0,0.02,0.01,0.02,0.01c0,0.01,0,0.01,0,0.02C32.36,12.3,32.36,12.3,32.35,12.3z M32.31,12.26l-0.01,0.02
			l0.02,0.01c0.01,0,0.01,0,0.02,0c0-0.01,0-0.01-0.01-0.01L32.31,12.26z M32.32,12.33c0.01,0,0.02,0,0.02,0
			c0-0.01,0-0.02-0.01-0.02L32.3,12.3l-0.01,0.03L32.32,12.33z"/>
		<path class="st15" d="M32.44,12.29c0,0,0.01,0,0.01,0.01s0.01,0.01,0.01,0.01c0,0,0,0.01,0.01,0.02c0,0.01,0,0.01,0,0.02
			c0,0.01-0.01,0.01-0.01,0.02c0,0-0.01,0.01-0.01,0.01c-0.01,0-0.01,0-0.02,0c-0.01,0-0.01,0-0.01,0c0,0-0.01,0-0.01-0.01
			s-0.01-0.01-0.01-0.01c0,0-0.01-0.01-0.01-0.02c0-0.01,0-0.01,0-0.02s0.01-0.01,0.01-0.02c0,0,0.01-0.01,0.01-0.01
			c0.01,0,0.01,0,0.02,0C32.43,12.29,32.44,12.29,32.44,12.29z M32.44,12.31c-0.01,0-0.01,0-0.02,0c-0.01,0-0.01,0.01-0.02,0.02
			c0,0.01,0,0.02,0,0.02c0,0.01,0.01,0.01,0.02,0.01s0.01,0,0.02,0c0.01,0,0.01-0.01,0.01-0.02c0-0.01,0-0.02,0-0.02
			C32.45,12.31,32.44,12.31,32.44,12.31z"/>
	</g>
	<path id="rect4169_1_" d="M13.16,18.51v10.96c0,0.32-0.28,0.59-0.62,0.59H5.66c-0.35,0-0.62-0.26-0.62-0.59l0-10.96
		c0-0.32,0.28-0.59,0.62-0.59h6.88C12.88,17.92,13.16,18.18,13.16,18.51z"/>
	
		<linearGradient id="rect907_2_" gradientUnits="userSpaceOnUse" x1="-93.1146" y1="-548.6818" x2="-73.7955" y2="-533.185" gradientTransform="matrix(-3.207503e-07 0.9259 0.6804 2.356975e-07 379.1923 104.6526)">
		<stop  offset="0" style="stop-color:#FFFFFF"/>
		<stop  offset="1" style="stop-color:#000000"/>
	</linearGradient>
	<path id="rect907_1_" class="st16" d="M12.49,18.75v10.34c0,0.25-0.21,0.45-0.48,0.45H6.18c-0.26,0-0.48-0.2-0.48-0.45l0-10.34
		c0-0.25,0.21-0.45,0.48-0.45l5.83,0C12.28,18.3,12.49,18.5,12.49,18.75z"/>
	<path id="rect4186_5_" class="st17" d="M2.97,20.88v6.45c0,0.14-0.12,0.25-0.27,0.25H2.55c-0.15,0-0.27-0.11-0.27-0.25l0-6.45
		c0-0.14,0.12-0.25,0.27-0.25H2.7C2.85,20.63,2.97,20.74,2.97,20.88z"/>
	<path id="rect4169-7_1_" class="st18" d="M5.2,18.11c-0.1,0.1-0.16,0.24-0.16,0.4l0,10.96c0,0.15,0.06,0.29,0.16,0.4V18.11z"/>
	<circle class="st12" cx="9.13" cy="22.04" r="0.37"/>
	<path class="st13" d="M8.84,23.49l0.29-0.51l-0.64-1.11c-0.07-0.13-0.21-0.2-0.35-0.2H7.55l1.58,2.74l0,0L8.84,23.9
		C8.76,23.77,8.76,23.62,8.84,23.49z"/>
	<path class="st14" d="M10.71,21.67h-0.58c-0.15,0-0.28,0.08-0.35,0.2l-0.64,1.11l0.29,0.51c0.07,0.13,0.07,0.28,0,0.41l-0.29,0.51
		l0,0L10.71,21.67z"/>
	<path class="st15" d="M9.42,23.49l-0.29-0.51l-0.29,0.51c-0.07,0.13-0.07,0.28,0,0.41l0.29,0.51l0.29-0.51
		C9.49,23.77,9.49,23.62,9.42,23.49z"/>
	<g>
		<g>
			<path class="st15" d="M7.21,24.47l-0.58,1.19H6.59l-0.58-1.19h0.27l0.32,0.71l0.32-0.71H7.21z"/>
			<path class="st15" d="M7.55,24.47v0.22H7.3v-0.22H7.55z M7.55,24.78v0.88H7.3v-0.88H7.55z"/>
			<path class="st15" d="M8.13,24.77c0.07,0,0.14,0.02,0.2,0.05c0.07,0.03,0.12,0.08,0.17,0.15l-0.22,0.08
				C8.25,25,8.19,24.97,8.13,24.97c-0.06,0-0.1,0.02-0.14,0.07c-0.04,0.04-0.06,0.1-0.06,0.18c0,0.07,0.02,0.13,0.06,0.18
				c0.04,0.04,0.09,0.07,0.14,0.07c0.07,0,0.12-0.02,0.15-0.07l0.22,0.08c-0.04,0.07-0.1,0.12-0.17,0.15
				c-0.07,0.03-0.14,0.05-0.2,0.05c-0.05,0-0.1-0.01-0.15-0.03c-0.05-0.02-0.1-0.04-0.14-0.08c-0.05-0.03-0.08-0.08-0.11-0.14
				c-0.03-0.06-0.04-0.13-0.04-0.2c0-0.07,0.01-0.14,0.04-0.2c0.03-0.06,0.07-0.11,0.11-0.14c0.05-0.03,0.09-0.06,0.14-0.08
				C8.03,24.78,8.08,24.77,8.13,24.77z"/>
			<path class="st15" d="M9.09,24.98H8.9v0.4c0,0.06,0.02,0.09,0.07,0.09c0.04,0,0.08-0.01,0.11-0.02v0.2
				c-0.04,0.02-0.1,0.03-0.17,0.03c-0.08,0-0.15-0.02-0.19-0.06c-0.04-0.04-0.07-0.12-0.07-0.23v-0.4H8.57v-0.2h0.09v-0.15H8.9v0.15
				h0.19V24.98z"/>
			<path class="st15" d="M9.45,24.8c0.05-0.02,0.1-0.03,0.15-0.03c0.05,0,0.1,0.01,0.15,0.03c0.05,0.02,0.1,0.05,0.15,0.08
				c0.05,0.04,0.08,0.08,0.11,0.14c0.03,0.06,0.04,0.13,0.04,0.2s-0.01,0.14-0.04,0.2c-0.03,0.06-0.07,0.11-0.11,0.14
				c-0.05,0.03-0.09,0.06-0.15,0.08c-0.05,0.02-0.1,0.03-0.15,0.03c-0.05,0-0.1-0.01-0.15-0.03c-0.05-0.02-0.1-0.04-0.15-0.08
				c-0.05-0.03-0.08-0.08-0.11-0.14c-0.03-0.06-0.04-0.13-0.04-0.2s0.01-0.14,0.04-0.2c0.03-0.06,0.07-0.11,0.11-0.14
				C9.35,24.84,9.4,24.82,9.45,24.8z M9.6,24.98c-0.06,0-0.1,0.02-0.15,0.07c-0.04,0.04-0.06,0.1-0.06,0.18
				c0,0.07,0.02,0.13,0.06,0.18c0.04,0.04,0.09,0.06,0.15,0.06c0.05,0,0.1-0.02,0.14-0.06c0.04-0.04,0.06-0.1,0.06-0.18
				c0-0.08-0.02-0.14-0.06-0.18C9.7,25,9.65,24.98,9.6,24.98z"/>
			<path class="st15" d="M10.69,24.77c0.04,0,0.06,0,0.08,0.01V25c-0.02,0-0.05,0-0.09,0c-0.08,0-0.14,0.03-0.19,0.08
				c-0.05,0.05-0.08,0.12-0.09,0.2v0.38h-0.24v-0.88h0.24v0.28c0.01-0.09,0.04-0.16,0.09-0.21C10.54,24.8,10.6,24.77,10.69,24.77z"
				/>
			<path class="st15" d="M11.14,24.47v0.22h-0.25v-0.22H11.14z M11.14,24.78v0.88h-0.25v-0.88H11.14z"/>
			<path class="st15" d="M11.68,24.77c0.06,0,0.12,0.01,0.16,0.04c0.04,0.03,0.07,0.05,0.07,0.07v-0.1h0.24v0.88h-0.24v-0.12
				c0,0.02-0.02,0.05-0.07,0.08s-0.1,0.05-0.16,0.05c-0.05,0-0.09-0.01-0.14-0.03c-0.05-0.02-0.09-0.05-0.13-0.08
				c-0.04-0.04-0.07-0.08-0.1-0.14c-0.03-0.06-0.04-0.13-0.04-0.2c0-0.14,0.04-0.25,0.13-0.33C11.48,24.81,11.58,24.77,11.68,24.77z
				 M11.86,25.03c-0.04-0.04-0.08-0.06-0.14-0.06c-0.06,0-0.11,0.02-0.15,0.07c-0.04,0.04-0.06,0.1-0.06,0.18
				c0,0.08,0.02,0.14,0.06,0.18s0.09,0.07,0.15,0.07c0.06,0,0.1-0.02,0.14-0.06c0.04-0.04,0.06-0.1,0.06-0.19
				S11.9,25.07,11.86,25.03z"/>
		</g>
	</g>
	<g>
		<path class="st15" d="M6.23,25.92c0.04,0,0.07,0.01,0.09,0.03c0.02,0.02,0.03,0.05,0.03,0.08c0,0.03-0.01,0.06-0.03,0.08
			c-0.02,0.02-0.06,0.03-0.09,0.03H6.16v0.14H6.11v-0.36L6.23,25.92L6.23,25.92z M6.23,26.1c0.02,0,0.04-0.01,0.06-0.02
			c0.01-0.01,0.02-0.03,0.02-0.05c0-0.02-0.01-0.04-0.02-0.05c-0.01-0.01-0.03-0.02-0.06-0.02H6.16v0.13L6.23,26.1L6.23,26.1z"/>
		<path class="st15" d="M6.56,26.01c0.01,0,0.03,0,0.04,0.01c0.01,0.01,0.03,0.01,0.04,0.03c0.01,0.01,0.02,0.03,0.03,0.04
			c0.01,0.02,0.01,0.04,0.01,0.06c0,0.01,0,0.01,0,0.02H6.48c0,0.02,0.01,0.04,0.03,0.05s0.03,0.02,0.05,0.02
			c0.03,0,0.05-0.01,0.06-0.03l0.04,0.02c-0.03,0.03-0.06,0.05-0.11,0.05c-0.01,0-0.03,0-0.04-0.01s-0.03-0.01-0.04-0.03
			c-0.01-0.01-0.03-0.03-0.03-0.04c-0.01-0.02-0.01-0.04-0.01-0.06s0-0.04,0.01-0.06c0.01-0.02,0.02-0.03,0.03-0.04
			c0.01-0.01,0.03-0.02,0.04-0.03C6.53,26.01,6.55,26.01,6.56,26.01z M6.56,26.06c-0.02,0-0.04,0.01-0.05,0.02
			c-0.01,0.01-0.02,0.03-0.03,0.05h0.16c0-0.02-0.01-0.04-0.03-0.05C6.6,26.06,6.58,26.06,6.56,26.06z"/>
		<path class="st15" d="M7.02,26.28H6.95l-0.1-0.11L6.83,26.2v0.09H6.77v-0.27h0.05v0.12l0.11-0.12h0.07l-0.13,0.13L7.02,26.28z"/>
		<path class="st15" d="M7.38,26.01v0.27H7.33v-0.22H7.18v0.16c0,0.03-0.01,0.04-0.02,0.05c-0.01,0.01-0.03,0.01-0.04,0.01
			s-0.04,0-0.05-0.01v-0.05c0.01,0.01,0.03,0.01,0.04,0.01c0.01,0,0.01,0,0.02-0.01s0.01-0.01,0.01-0.02v-0.2L7.38,26.01L7.38,26.01
			z"/>
		<path class="st15" d="M7.58,26.01c0.02,0,0.04,0,0.05,0.01c0.02,0.01,0.03,0.02,0.03,0.03v-0.04h0.05v0.27H7.67v-0.05
			c0,0.01-0.01,0.03-0.03,0.04c-0.02,0.01-0.03,0.01-0.05,0.01c-0.01,0-0.03,0-0.04-0.01c-0.01-0.01-0.03-0.01-0.04-0.03
			c-0.01-0.01-0.02-0.03-0.03-0.04c-0.01-0.02-0.01-0.04-0.01-0.06c0-0.02,0-0.04,0.01-0.06c0.01-0.02,0.02-0.03,0.03-0.04
			c0.01-0.01,0.03-0.02,0.04-0.03C7.55,26.01,7.57,26.01,7.58,26.01z M7.65,26.08c-0.02-0.01-0.03-0.02-0.06-0.02
			c-0.02,0-0.04,0.01-0.06,0.03c-0.02,0.02-0.03,0.04-0.03,0.07c0,0.03,0.01,0.05,0.03,0.07c0.02,0.02,0.04,0.02,0.06,0.02
			s0.04-0.01,0.06-0.02c0.02-0.02,0.02-0.04,0.02-0.07C7.67,26.12,7.66,26.1,7.65,26.08z"/>
		<path class="st15" d="M8.12,26.01v0.27H8.07v-0.14l-0.1,0.14H7.96l-0.1-0.14v0.14H7.81v-0.27h0.01l0.15,0.2L8.12,26.01L8.12,26.01
			z"/>
		<path class="st15" d="M8.41,26.01h0.05v0.27H8.41v-0.11H8.27v0.11H8.22v-0.27h0.05v0.11h0.14V26.01z"/>
		<path class="st15" d="M8.67,26.01c0.01,0,0.03,0,0.04,0.01c0.01,0.01,0.03,0.01,0.04,0.03c0.01,0.01,0.02,0.03,0.03,0.04
			c0.01,0.02,0.01,0.04,0.01,0.06s0,0.04-0.01,0.06s-0.02,0.03-0.03,0.04c-0.01,0.01-0.03,0.02-0.04,0.03
			c-0.01,0.01-0.03,0.01-0.04,0.01s-0.03,0-0.04-0.01s-0.03-0.01-0.04-0.03c-0.01-0.01-0.03-0.03-0.03-0.04
			c-0.01-0.02-0.01-0.04-0.01-0.06s0-0.04,0.01-0.06c0.01-0.02,0.02-0.03,0.03-0.04s0.03-0.02,0.04-0.03S8.66,26.01,8.67,26.01z
			 M8.67,26.06c-0.02,0-0.04,0.01-0.06,0.02c-0.02,0.02-0.03,0.04-0.03,0.07c0,0.03,0.01,0.05,0.03,0.07
			c0.02,0.02,0.04,0.02,0.06,0.02s0.04-0.01,0.06-0.02c0.02-0.02,0.03-0.04,0.03-0.07c0-0.03-0.01-0.05-0.03-0.07
			C8.71,26.06,8.69,26.06,8.67,26.06z"/>
		<path class="st15" d="M9,26.01c0.01,0,0.03,0,0.04,0.01s0.03,0.01,0.04,0.03c0.01,0.01,0.02,0.03,0.03,0.04
			c0.01,0.02,0.01,0.04,0.01,0.06c0,0.01,0,0.01,0,0.02H8.92c0,0.02,0.01,0.04,0.03,0.05c0.02,0.01,0.03,0.02,0.05,0.02
			c0.03,0,0.05-0.01,0.06-0.03l0.04,0.02C9.08,26.27,9.05,26.29,9,26.29c-0.01,0-0.03,0-0.04-0.01c-0.01-0.01-0.03-0.01-0.04-0.03
			c-0.01-0.01-0.03-0.03-0.03-0.04c-0.01-0.02-0.01-0.04-0.01-0.06s0-0.04,0.01-0.06c0.01-0.02,0.02-0.03,0.03-0.04
			c0.01-0.01,0.03-0.02,0.04-0.03C8.97,26.01,8.99,26.01,9,26.01z M9,26.06c-0.02,0-0.04,0.01-0.05,0.02
			c-0.01,0.01-0.02,0.03-0.03,0.05h0.16c0-0.02-0.01-0.04-0.03-0.05C9.04,26.06,9.02,26.06,9,26.06z"/>
		<path class="st15" d="M9.66,26.28L9.62,26.2H9.47l-0.04,0.09H9.37l0.17-0.36h0.01l0.17,0.36H9.66z M9.49,26.15H9.6l-0.06-0.13
			L9.49,26.15z"/>
		<path class="st15" d="M10,26.01v0.04H9.84v0.22H9.79v-0.27L10,26.01L10,26.01z"/>
		<path class="st15" d="M10.19,26.01c0.01,0,0.03,0,0.04,0.01s0.03,0.01,0.04,0.03c0.01,0.01,0.02,0.03,0.03,0.04
			s0.01,0.04,0.01,0.06c0,0.01,0,0.01,0,0.02h-0.21c0,0.02,0.01,0.04,0.03,0.05c0.02,0.01,0.03,0.02,0.05,0.02
			c0.03,0,0.05-0.01,0.06-0.03l0.04,0.02c-0.03,0.03-0.06,0.05-0.11,0.05c-0.01,0-0.03,0-0.04-0.01s-0.03-0.01-0.04-0.03
			c-0.01-0.01-0.03-0.03-0.03-0.04c-0.01-0.02-0.01-0.04-0.01-0.06s0-0.04,0.01-0.06c0.01-0.02,0.02-0.03,0.03-0.04
			c0.01-0.01,0.03-0.02,0.04-0.03C10.16,26.01,10.18,26.01,10.19,26.01z M10.19,26.06c-0.02,0-0.04,0.01-0.05,0.02
			c-0.01,0.01-0.02,0.03-0.03,0.05h0.16c0-0.02-0.01-0.04-0.03-0.05C10.23,26.06,10.21,26.06,10.19,26.06z"/>
		<path class="st15" d="M10.59,26.01h0.05v0.27h-0.05v-0.11h-0.14v0.11H10.4v-0.27h0.05v0.11h0.14V26.01z"/>
		<path class="st15" d="M10.94,26.01v0.04h-0.08v0.22h-0.05v-0.22h-0.08v-0.04H10.94z"/>
		<path class="st15" d="M11.14,26.01c0.02,0,0.04,0.01,0.06,0.02c0.02,0.01,0.04,0.03,0.05,0.05l-0.05,0.02
			c-0.01-0.02-0.04-0.04-0.07-0.04c-0.02,0-0.04,0.01-0.06,0.03c-0.02,0.02-0.03,0.04-0.03,0.07c0,0.03,0.01,0.05,0.03,0.07
			c0.02,0.02,0.04,0.02,0.06,0.02c0.01,0,0.03,0,0.04-0.01c0.01-0.01,0.02-0.01,0.03-0.03l0.05,0.02c-0.01,0.02-0.03,0.04-0.05,0.05
			c-0.02,0.01-0.04,0.02-0.06,0.02c-0.01,0-0.03,0-0.04-0.01c-0.01-0.01-0.03-0.01-0.04-0.03c-0.01-0.01-0.02-0.03-0.03-0.04
			s-0.01-0.04-0.01-0.06s0-0.04,0.01-0.06s0.02-0.03,0.03-0.04c0.01-0.01,0.03-0.02,0.04-0.03C11.11,26.01,11.13,26.01,11.14,26.01z
			"/>
		<path class="st15" d="M11.52,26.01v0.04h-0.08v0.22h-0.05v-0.22h-0.08v-0.04H11.52z"/>
		<path class="st15" d="M11.79,26.13c0.04,0.01,0.06,0.04,0.06,0.07c0,0.03-0.01,0.05-0.03,0.06c-0.02,0.01-0.05,0.02-0.09,0.02
			H11.6v-0.27h0.13c0.03,0,0.05,0.01,0.07,0.02c0.02,0.01,0.03,0.03,0.03,0.05C11.83,26.11,11.81,26.13,11.79,26.13z M11.65,26.06
			v0.06h0.08c0.03,0,0.04-0.01,0.04-0.03c0-0.02-0.01-0.03-0.04-0.03H11.65z M11.73,26.24c0.04,0,0.06-0.01,0.06-0.04
			c0-0.03-0.02-0.04-0.06-0.04h-0.08v0.08H11.73z"/>
		<path class="st15" d="M12.05,26.01c0.01,0,0.03,0,0.04,0.01s0.03,0.01,0.04,0.03c0.01,0.01,0.02,0.03,0.03,0.04
			s0.01,0.04,0.01,0.06s0,0.04-0.01,0.06s-0.02,0.03-0.03,0.04c-0.01,0.01-0.03,0.02-0.04,0.03c-0.01,0.01-0.03,0.01-0.04,0.01
			s-0.03,0-0.04-0.01s-0.03-0.01-0.04-0.03c-0.01-0.01-0.03-0.03-0.03-0.04c-0.01-0.02-0.01-0.04-0.01-0.06s0-0.04,0.01-0.06
			c0.01-0.02,0.02-0.03,0.03-0.04s0.03-0.02,0.04-0.03S12.03,26.01,12.05,26.01z M12.05,26.06c-0.02,0-0.04,0.01-0.06,0.02
			c-0.02,0.02-0.03,0.04-0.03,0.07c0,0.03,0.01,0.05,0.03,0.07c0.02,0.02,0.04,0.02,0.06,0.02s0.04-0.01,0.06-0.02
			c0.02-0.02,0.03-0.04,0.03-0.07c0-0.03-0.01-0.05-0.03-0.07C12.09,26.06,12.07,26.06,12.05,26.06z"/>
	</g>
	<path id="rect4186_4_" class="st17" d="M5.03,22.39l-2.22,0c-0.05,0-0.09-0.12-0.09-0.27v-0.16c0-0.15,0.04-0.27,0.09-0.27l2.22,0
		c0.05,0,0.09,0.12,0.09,0.27v0.16C5.12,22.27,5.08,22.39,5.03,22.39z"/>
	<path id="rect4186_3_" class="st17" d="M5.03,26.02l-2.31,0c-0.05,0-0.09-0.12-0.09-0.27V25.6c0-0.15,0.04-0.27,0.09-0.27l2.31,0
		c0.05,0,0.09,0.12,0.09,0.27v0.16C5.12,25.9,5.08,26.02,5.03,26.02z"/>
	<g id="layer1_1_" transform="translate(-101.83608,-68.644442)">
		<g id="g12240_1_" transform="matrix(0.35277777,0,0,-0.35277777,-2.8381019,159.76334)">
			<g id="g2364_1_" transform="translate(302.1213,237.0627)">
				<path id="path2366_1_" class="st19" d="M-2.8,1.28l14.46,11.14c0.41,0.32,0.93,0.45,1.44,0.39l9.4-1.3
					c0.42-0.06,0.56-0.59,0.23-0.85L8.24-0.51C7.83-0.82,7.3-0.96,6.79-0.89l-9.36,1.32C-2.99,0.49-3.13,1.02-2.8,1.28"/>
			</g>
			<g id="g2368_1_" transform="translate(302.2234,236.8181)">
				<path id="path2370_1_" class="st20" d="M-2.76,1.34c-0.12-0.09-0.1-0.22-0.09-0.26c0.01-0.04,0.05-0.16,0.2-0.18l9.36-1.32
					c0.45-0.06,0.91,0.06,1.27,0.34l14.49,11.16c0.12,0.09,0.1,0.22,0.09,0.26c-0.01,0.04-0.05,0.16-0.2,0.18l-9.4,1.3
					c-0.45,0.06-0.91-0.06-1.27-0.34L-2.76,1.34z M7.51-0.82C7.23-0.89,6.94-0.91,6.66-0.87L-2.7,0.45
					c-0.28,0.04-0.51,0.24-0.58,0.51s0.02,0.56,0.25,0.74l14.46,11.14c0.46,0.35,1.03,0.51,1.61,0.43l9.4-1.3
					c0.28-0.04,0.51-0.24,0.58-0.52c0.07-0.28-0.02-0.56-0.25-0.74L8.27-0.44C8.05-0.62,7.79-0.75,7.51-0.82"/>
			</g>
			<g id="g2372_1_" transform="translate(302.2234,236.8181)">
				<path id="path2374_1_" class="st20" d="M-2.76,1.34c-0.12-0.09-0.1-0.22-0.09-0.26c0.01-0.04,0.05-0.16,0.2-0.18l9.36-1.32
					c0.45-0.06,0.91,0.06,1.27,0.34l14.49,11.16c0.12,0.09,0.1,0.22,0.09,0.26c-0.01,0.04-0.05,0.16-0.2,0.18l-9.4,1.3
					c-0.45,0.06-0.91-0.06-1.27-0.34L-2.76,1.34z M7.51-0.82C7.23-0.89,6.94-0.91,6.66-0.87L-2.7,0.45
					c-0.28,0.04-0.51,0.24-0.58,0.51s0.02,0.56,0.25,0.74l14.46,11.14c0.46,0.35,1.03,0.51,1.61,0.43l9.4-1.3
					c0.28-0.04,0.51-0.24,0.58-0.52c0.07-0.28-0.02-0.56-0.25-0.74L8.27-0.44C8.05-0.62,7.79-0.75,7.51-0.82"/>
			</g>
			<g id="g2376_1_" transform="translate(302.1213,239.5192)">
				<path id="path2378_1_" class="st19" d="M-3.35,0.87L11.11,12c0.41,0.32,0.93,0.45,1.44,0.39l9.4-1.3
					c0.42-0.06,0.56-0.59,0.23-0.85L7.69-0.92C7.28-1.23,6.75-1.37,6.24-1.3l-9.36,1.32C-3.54,0.08-3.68,0.61-3.35,0.87"/>
			</g>
			<g id="g2380_1_" transform="translate(302.2234,239.2746)">
				<path id="path2382_1_" class="st20" d="M-3.31,0.93c-0.12-0.09-0.1-0.22-0.09-0.26c0.01-0.04,0.05-0.16,0.2-0.18l9.36-1.32
					c0.45-0.06,0.91,0.06,1.27,0.34l14.49,11.16c0.12,0.09,0.1,0.22,0.09,0.26c-0.01,0.04-0.05,0.16-0.2,0.18l-9.4,1.3
					c-0.45,0.06-0.91-0.06-1.27-0.34L-3.31,0.93z M6.96-1.23C6.69-1.3,6.39-1.32,6.11-1.29l-9.36,1.32
					c-0.28,0.04-0.51,0.24-0.58,0.51s0.02,0.56,0.25,0.74l14.46,11.14c0.46,0.35,1.03,0.51,1.61,0.43l9.4-1.3
					c0.28-0.04,0.51-0.24,0.58-0.52c0.08-0.28-0.02-0.56-0.25-0.74L7.72-0.85C7.5-1.03,7.24-1.16,6.96-1.23"/>
			</g>
			<g id="g2384_1_" transform="translate(302.2234,239.2746)">
				<path id="path2386_1_" class="st20" d="M-3.31,0.93c-0.12-0.09-0.1-0.22-0.09-0.26c0.01-0.04,0.05-0.16,0.2-0.18l9.36-1.32
					c0.45-0.06,0.91,0.06,1.27,0.34l14.49,11.16c0.12,0.09,0.1,0.22,0.09,0.26c-0.01,0.04-0.05,0.16-0.2,0.18l-9.4,1.3
					c-0.45,0.06-0.91-0.06-1.27-0.34L-3.31,0.93z M6.96-1.23C6.69-1.3,6.39-1.32,6.11-1.29l-9.36,1.32
					c-0.28,0.04-0.51,0.24-0.58,0.51s0.02,0.56,0.25,0.74l14.46,11.14c0.46,0.35,1.03,0.51,1.61,0.43l9.4-1.3
					c0.28-0.04,0.51-0.24,0.58-0.52c0.08-0.28-0.02-0.56-0.25-0.74L7.72-0.85C7.5-1.03,7.24-1.16,6.96-1.23"/>
			</g>
			<g id="g2388_1_" transform="translate(302.1213,241.9758)">
				<path id="path2390_1_" class="st19" d="M-3.89,0.46l14.46,11.14c0.41,0.32,0.93,0.45,1.44,0.39l9.4-1.3
					c0.42-0.06,0.56-0.59,0.23-0.85L7.14-1.33C6.73-1.65,6.21-1.78,5.69-1.71l-9.36,1.32C-4.09-0.33-4.23,0.2-3.89,0.46"/>
			</g>
			<g id="g2392_1_" transform="translate(302.1213,241.9758)">
				<path id="path2394_1_" class="st20" d="M-3.89,0.46L-3.89,0.46L-3.89,0.46z M11.3,11.71c-0.22-0.06-0.42-0.16-0.6-0.3
					L-3.75,0.27l0,0c-0.12-0.09-0.1-0.22-0.09-0.26s0.05-0.16,0.2-0.18l9.36-1.32C6.17-1.55,6.64-1.43,7-1.15l14.49,11.16
					c0.12,0.09,0.1,0.22,0.09,0.26c-0.01,0.04-0.05,0.16-0.2,0.18l-9.4,1.3C11.74,11.78,11.52,11.77,11.3,11.71 M6.51-1.89
					C6.24-1.96,5.95-1.98,5.66-1.94L-3.7-0.62C-3.99-0.58-4.21-0.38-4.28-0.1c-0.07,0.28,0.02,0.56,0.25,0.74l14.46,11.14
					c0.46,0.35,1.03,0.51,1.61,0.43l9.4-1.3c0.28-0.04,0.51-0.24,0.58-0.52c0.08-0.28-0.02-0.56-0.25-0.74L7.28-1.51
					C7.05-1.68,6.79-1.81,6.51-1.89"/>
			</g>
			<g id="g2396_1_" transform="translate(302.1213,241.9758)">
				<path id="path2398_1_" class="st20" d="M-3.89,0.46L-3.89,0.46L-3.89,0.46z M11.3,11.71c-0.22-0.06-0.42-0.16-0.6-0.3
					L-3.75,0.27l0,0c-0.12-0.09-0.1-0.22-0.09-0.26s0.05-0.16,0.2-0.18l9.36-1.32C6.17-1.55,6.64-1.43,7-1.15l14.49,11.16
					c0.12,0.09,0.1,0.22,0.09,0.26c-0.01,0.04-0.05,0.16-0.2,0.18l-9.4,1.3C11.74,11.78,11.52,11.77,11.3,11.71 M6.51-1.89
					C6.24-1.96,5.95-1.98,5.66-1.94L-3.7-0.62C-3.99-0.58-4.21-0.38-4.28-0.1c-0.07,0.28,0.02,0.56,0.25,0.74l14.46,11.14
					c0.46,0.35,1.03,0.51,1.61,0.43l9.4-1.3c0.28-0.04,0.51-0.24,0.58-0.52c0.08-0.28-0.02-0.56-0.25-0.74L7.28-1.51
					C7.05-1.68,6.79-1.81,6.51-1.89"/>
			</g>
			<g id="g2400_1_" transform="translate(302.1213,244.4289)">
				<path id="path2402_1_" class="st19" d="M-4.44,0.04l14.46,11.13c0.41,0.32,0.93,0.46,1.44,0.39l9.4-1.3
					c0.42-0.06,0.56-0.59,0.23-0.85L6.59-1.74C6.18-2.06,5.66-2.19,5.14-2.13L-4.22-0.8C-4.63-0.75-4.78-0.21-4.44,0.04"/>
			</g>
			<g id="g2404_1_" transform="translate(302.1213,244.4284)">
				<path id="path2406_1_" class="st20" d="M-4.44,0.04L-4.44,0.04L-4.44,0.04z M10.76,11.3c-0.22-0.06-0.42-0.16-0.6-0.3L-4.3-0.14
					l0,0c-0.12-0.09-0.1-0.22-0.09-0.26c0.01-0.04,0.05-0.16,0.21-0.18L5.18-1.9c0.45-0.06,0.91,0.06,1.27,0.34L20.94,9.6
					c0.12,0.09,0.1,0.22,0.09,0.26c-0.01,0.04-0.05,0.16-0.2,0.18l-9.4,1.3C11.2,11.37,10.97,11.36,10.76,11.3 M5.97-2.3
					C5.69-2.37,5.4-2.39,5.11-2.35l-9.36,1.32c-0.29,0.04-0.51,0.24-0.58,0.52c-0.07,0.28,0.02,0.56,0.25,0.74L9.87,11.36
					c0.46,0.36,1.03,0.51,1.61,0.43l9.4-1.3c0.28-0.04,0.51-0.24,0.58-0.51c0.08-0.28-0.02-0.56-0.25-0.74L6.73-1.92
					C6.5-2.1,6.24-2.22,5.97-2.3"/>
			</g>
			<g id="g2408_1_" transform="translate(302.1213,244.4323)">
				<path id="path2410_1_" class="st20" d="M-4.44,0.04L-4.44,0.04L-4.44,0.04z M10.75,11.3c-0.22-0.06-0.42-0.16-0.6-0.3L-4.3-0.14
					l0,0C-4.42-0.23-4.4-0.36-4.39-0.4s0.05-0.16,0.21-0.18L5.17-1.9c0.49-0.07,0.92,0.06,1.32,0.38L20.35,9.15
					c0.53,0.41,0.63,0.7,0.6,0.81c-0.01,0.04-0.05,0.07-0.12,0.08l-9.4,1.3C11.2,11.37,10.97,11.36,10.75,11.3 M5.96-2.3
					C5.69-2.38,5.41-2.39,5.11-2.35l-9.36,1.33c-0.29,0.04-0.51,0.24-0.58,0.52c-0.07,0.28,0.02,0.56,0.25,0.74L9.87,11.36
					c0.46,0.35,1.03,0.51,1.61,0.43l9.4-1.3c0.25-0.03,0.44-0.19,0.5-0.42c0.06-0.22,0.04-0.68-0.76-1.29L6.78-1.89
					C6.52-2.09,6.25-2.23,5.96-2.3"/>
			</g>
			<g id="g2412_1_" transform="translate(310.2668,250.2766)">
				<path id="path2414_1_" class="st5" d="M-7.11,0.89l8.43,6.49C1.73,7.7,2.25,7.84,2.76,7.77l9.4-1.3
					c0.42-0.06,0.56-0.59,0.23-0.85L-2.11-5.54c-0.41-0.32-0.93-0.46-1.45-0.39l-9.36,1.32c-0.42,0.06-0.56,0.59-0.23,0.85
					l2.86,2.21"/>
			</g>
			<g id="g2416_1_" transform="translate(313.0774,241.1359)">
				<path id="path2418_1_" class="st20" d="M-5.54,3.04c-0.28-0.07-0.57-0.09-0.85-0.06l-9.36,1.32c-0.28,0.04-0.51,0.24-0.58,0.52
					c-0.07,0.28,0.02,0.56,0.25,0.74l2.86,2.21c0.1,0.07,0.24,0.06,0.32-0.04c0.08-0.1,0.06-0.24-0.04-0.32l-2.86-2.21
					c-0.12-0.09-0.1-0.22-0.09-0.26c0.01-0.04,0.05-0.16,0.21-0.18l9.36-1.32c0.45-0.06,0.91,0.06,1.27,0.34L9.44,14.95
					c0.12,0.09,0.1,0.22,0.09,0.26c-0.01,0.04-0.05,0.16-0.2,0.18l-9.4,1.3c-0.45,0.06-0.91-0.06-1.27-0.34l-8.43-6.49
					c-0.1-0.08-0.24-0.06-0.32,0.04c-0.08,0.1-0.06,0.24,0.04,0.32l8.43,6.49c0.46,0.36,1.03,0.51,1.61,0.43l9.4-1.3
					c0.28-0.04,0.51-0.24,0.58-0.52c0.08-0.28-0.02-0.56-0.25-0.74L-4.78,3.42C-5,3.25-5.26,3.12-5.54,3.04"/>
			</g>
			<g id="g2420_1_" transform="translate(329.9338,250.7214)">
				<path id="path2422_1_" class="st21" d="M-10.5,5.21L-16.99,6l-2.76-2.12l6.49-0.79L-10.5,5.21z"/>
			</g>
			<g id="g2424_1_" transform="translate(319.8791,252.0095)">
				<path id="path2426_1_" class="st20" d="M-9.11,2.75l5.84-0.71l2.24,1.72l-5.84,0.71L-9.11,2.75z M-3.14,1.58
					C-3.17,1.57-3.2,1.57-3.23,1.57l-6.49,0.79c-0.09,0.01-0.17,0.08-0.19,0.17C-9.94,2.62-9.9,2.71-9.83,2.77l2.76,2.12
					c0.05,0.04,0.11,0.05,0.17,0.05l6.49-0.79c0.09-0.01,0.17-0.08,0.19-0.17s-0.01-0.19-0.08-0.24l-2.76-2.12
					C-3.09,1.6-3.12,1.58-3.14,1.58"/>
			</g>
			<g id="g2428_1_" transform="translate(315.7131,250.4567)">
				<path id="path2430_1_" class="st5" d="M-8.06,2.07l2.71-0.32"/>
			</g>
			<g id="g2432_1_" transform="translate(318.6477,249.0158)">
				<path id="path2434_1_" class="st20" d="M-8.23,2.97c-0.03-0.01-0.06-0.01-0.09-0.01l-2.71,0.32c-0.13,0.01-0.21,0.13-0.2,0.25
					c0.02,0.13,0.13,0.22,0.25,0.2l2.71-0.32c0.13-0.01,0.21-0.13,0.2-0.25C-8.08,3.07-8.15,2.99-8.23,2.97"/>
			</g>
			<g id="g2436_1_" transform="translate(320.0588,248.6159)">
				<path id="path2438_1_" class="st5" d="M-8.38,3.35l2.82-0.38"/>
			</g>
			<g id="g2440_1_" transform="translate(323.1047,247.0754)">
				<path id="path2442_1_" class="st20" d="M-8.54,4.29C-8.57,4.28-8.6,4.28-8.64,4.29l-2.82,0.38c-0.13,0.02-0.21,0.13-0.2,0.26
					c0.02,0.13,0.13,0.21,0.26,0.2l2.82-0.38c0.12-0.02,0.21-0.13,0.2-0.26C-8.39,4.39-8.46,4.31-8.54,4.29"/>
			</g>
			<g id="g2444_1_" transform="translate(318.3005,247.9738)">
				<path id="path2446_1_" class="st5" d="M-7.94,3.07l1.39-0.19"/>
			</g>
			<g id="g2448_1_" transform="translate(319.8015,247.0807)">
				<path id="path2450_1_" class="st20" d="M-7.99,3.55c-0.03-0.01-0.06-0.01-0.09-0.01l-1.39,0.19c-0.13,0.02-0.21,0.13-0.2,0.26
					c0.02,0.13,0.13,0.21,0.26,0.2L-8.02,4c0.12-0.02,0.21-0.13,0.2-0.26C-7.84,3.65-7.91,3.58-7.99,3.55"/>
			</g>
			<g id="g2452_1_" transform="translate(311.3674,244.4743)">
				<path id="path2454_1_" class="st5" d="M-6,2.1l-4.07,0.49"/>
			</g>
			<g id="g2456_1_" transform="translate(311.3669,244.2092)">
				<path id="path2458_1_" class="st20" d="M-5.94,2.15C-5.97,2.14-6,2.14-6.03,2.14l-4.07,0.49c-0.13,0.02-0.21,0.13-0.2,0.25
					c0.01,0.13,0.13,0.21,0.25,0.2l4.07-0.49c0.13-0.02,0.22-0.13,0.2-0.25C-5.78,2.25-5.85,2.17-5.94,2.15"/>
			</g>
			<g id="g2460_1_" transform="translate(313.8454,249.8537)">
				<path id="path2462_1_" class="st5" d="M-7.62,1.76l2.71-0.32"/>
			</g>
			<g id="g2464_1_" transform="translate(316.7805,248.4128)">
				<path id="path2466_1_" class="st20" d="M-7.79,2.65c-0.03-0.01-0.06-0.01-0.09-0.01l-2.71,0.32c-0.13,0.01-0.21,0.13-0.2,0.25
					c0.01,0.13,0.13,0.21,0.25,0.2l2.71-0.32c0.13-0.01,0.21-0.13,0.2-0.25C-7.63,2.75-7.7,2.68-7.79,2.65"/>
			</g>
			<g id="g2468_1_" transform="translate(312.2072,238.8498)">
				<path id="path2470_1_" class="st20" d="M-4.88,3.23c-0.04-0.01-0.09-0.01-0.13,0l-9.91,3.37c-0.12,0.04-0.18,0.17-0.14,0.29
					c0.04,0.12,0.17,0.18,0.29,0.14l9.91-3.37c0.12-0.04,0.18-0.17,0.14-0.29C-4.75,3.3-4.81,3.25-4.88,3.23"/>
			</g>
			<g id="g2472_1_" transform="translate(312.1433,236.424)">
				<path id="path2474_1_" class="st20" d="M-4.33,3.62c-0.04-0.01-0.09-0.01-0.13,0l-9.84,3.33c-0.12,0.04-0.18,0.17-0.14,0.29
					c0.04,0.12,0.17,0.18,0.29,0.14l9.84-3.33c0.12-0.04,0.18-0.17,0.14-0.29C-4.2,3.7-4.26,3.64-4.33,3.62"/>
			</g>
			<g id="g2476_1_" transform="translate(312.2072,233.9406)">
				<path id="path2478_1_" class="st20" d="M-3.79,4.05c-0.04-0.01-0.09-0.01-0.13,0l-9.89,3.31c-0.12,0.04-0.18,0.17-0.14,0.29
					c0.04,0.12,0.17,0.18,0.29,0.14l9.89-3.31c0.12-0.04,0.18-0.17,0.14-0.29C-3.65,4.13-3.72,4.07-3.79,4.05"/>
			</g>
			<g id="g2480_1_" transform="translate(312.2072,231.4841)">
				<path id="path2482_1_" class="st20" d="M-3.24,4.46c-0.04-0.01-0.09-0.01-0.13,0l-9.89,3.28c-0.12,0.04-0.18,0.17-0.15,0.29
					c0.04,0.12,0.17,0.19,0.29,0.15l9.89-3.28c0.12-0.04,0.18-0.17,0.14-0.29C-3.1,4.54-3.17,4.48-3.24,4.46"/>
			</g>
			<g id="g2484_1_" transform="translate(299.8332,226.0026)">
				<path id="path2486_1_" class="st19" d="M0.06,2.62l7.73,0.69L4.54,6.39L0.06,2.62z"/>
			</g>
			<g id="g2488_1_" transform="translate(310.4856,221.5666)">
				<path id="path2490_1_" class="st19" d="M-0.73,5.74l8.45,0.77L3.61,9.47L-0.73,5.74z"/>
			</g>
			<g id="g2492_1_" transform="translate(330.7063,233.6589)">
				<path id="path2494_1_" class="st5" d="M-6.82,8.24l-11.22-8.66l-0.88-0.68c-0.09-0.06-0.16-0.16-0.21-0.31L-20.93-6l-6.74,6.15
					c-0.39,0.25-0.82,0.28-1.08-0.08l15.24,11.79c0.49,0.38,1.07,0.22,1.59-0.18l5.12-3.43"/>
			</g>
			<g id="g2496_1_" transform="translate(327.9236,221.8801)">
				<path id="path2498_1_" class="st5" d="M-3.72,9.58l-3.85,2.72c-0.36,0.26-0.85,0.24-1.2-0.03l-2.98-2.31l-5.1,3.45"/>
			</g>
			<g id="g2500_1_" transform="translate(339.4631,230.4201)">
				<path id="path2502_1_" class="st20" d="M-7.56,10.73c-0.06-0.02-0.13-0.01-0.19,0.03l-3.85,2.72c-0.28,0.2-0.65,0.19-0.92-0.02
					l-2.98-2.31c-0.08-0.06-0.19-0.06-0.27-0.01l-5.1,3.44c-0.1,0.07-0.13,0.21-0.06,0.32c0.07,0.11,0.21,0.13,0.32,0.06l4.97-3.35
					l2.85,2.21c0.43,0.34,1.02,0.35,1.47,0.03l3.85-2.72c0.1-0.07,0.13-0.22,0.06-0.32C-7.46,10.78-7.51,10.75-7.56,10.73"/>
			</g>
			<g id="g2504_1_" transform="translate(299.8142,226.2546)">
				<path id="path2506_1_" class="st5" d="M0.01,2.57l2.06,4.78c0.25,0.36,0.69,0.33,1.08,0.08l6.74-6.15l1.8,4.59
					c0.16,0.29,0.4,0.46,0.7,0.29l8.29-5.98c0.34-0.24,0.79-0.23,1.12,0.02l14.46,11.14c0.27,0.21,0.26,0.62-0.02,0.81l-1.84,1.3"/>
			</g>
			<g id="g2508_1_" transform="translate(323.0871,216.6852)">
				<path id="path2510_1_" class="st20" d="M-1.75,9.37c-0.33-0.09-0.68-0.03-0.98,0.18l-8.29,5.98c-0.07,0.04-0.12,0.03-0.14,0.02
					c-0.07-0.02-0.15-0.1-0.23-0.24l-1.79-4.56c-0.03-0.07-0.09-0.11-0.16-0.14c-0.07-0.02-0.15,0-0.2,0.05l-6.74,6.15
					c-0.09,0.06-0.51,0.29-0.74-0.04l-2.04-4.73c-0.05-0.12-0.18-0.17-0.3-0.12c-0.12,0.05-0.17,0.18-0.12,0.3l2.06,4.78
					c0.33,0.48,0.87,0.53,1.41,0.18l6.52-5.95l1.68,4.28c0.15,0.27,0.32,0.43,0.52,0.48l0,0c0.11,0.03,0.3,0.04,0.51-0.08l8.3-5.99
					c0.26-0.18,0.59-0.17,0.84,0.02l14.46,11.14c0.07,0.05,0.11,0.14,0.11,0.22c0,0.09-0.04,0.17-0.12,0.22L11,22.82
					c-0.1,0.07-0.13,0.22-0.05,0.32c0.07,0.1,0.21,0.13,0.32,0.06l1.83-1.3c0.19-0.14,0.3-0.35,0.31-0.58
					c0.01-0.24-0.1-0.45-0.28-0.6L-1.34,9.58C-1.46,9.48-1.6,9.41-1.75,9.37"/>
			</g>
			<g id="g2512_1_" transform="translate(330.6071,233.5456)">
				<path id="path2514_1_" class="st5" d="M-6.78,8.23l-5.12,3.43c-0.52,0.39-1.1,0.56-1.59,0.18L-28.56,0.23"/>
			</g>
			<g id="g2516_1_" transform="translate(303.8025,230.8625)">
				<path id="path2518_1_" class="st20" d="M-1.69,2.69C-1.78,2.67-1.87,2.7-1.93,2.77c-0.08,0.1-0.06,0.24,0.04,0.32l15.07,11.61
					c0.52,0.4,1.19,0.34,1.87-0.18l5.11-3.42c0.11-0.07,0.13-0.21,0.06-0.32c-0.07-0.1-0.21-0.13-0.32-0.06l-5.12,3.43
					c-0.36,0.28-0.88,0.53-1.32,0.19L-1.61,2.73C-1.64,2.71-1.66,2.7-1.69,2.69"/>
			</g>
			<g id="g2520_1_" transform="translate(310.6364,222.0231)">
				<path id="path2522_1_" class="st5" d="M-0.86,5.7l1.73,4.4c0.2,0.37,0.45,0.49,0.92,0.86"/>
			</g>
			<g id="g2524_1_" transform="translate(310.6364,221.7575)">
				<path id="path2526_1_" class="st20" d="M-0.8,5.74c-0.05-0.01-0.1-0.01-0.14,0.01c-0.12,0.05-0.17,0.18-0.13,0.3l1.73,4.4
					c0.19,0.35,0.4,0.51,0.69,0.73c0.09,0.07,0.19,0.14,0.3,0.23c0.1,0.08,0.24,0.06,0.32-0.04c0.08-0.1,0.06-0.24-0.04-0.32
					c-0.11-0.09-0.22-0.17-0.31-0.24c-0.28-0.21-0.43-0.32-0.55-0.55l-1.72-4.37C-0.67,5.81-0.73,5.76-0.8,5.74"/>
			</g>
			<g id="g2528_1_" transform="translate(310.4948,221.8351)">
				<path id="path2530_1_" class="st19" d="M-0.79,5.7l1.8,4.59c0.16,0.29,0.4,0.46,0.7,0.29L3.6,9.2L-0.79,5.7z"/>
			</g>
			<g id="g2532_1_" transform="translate(314.4143,226.4421)">
				<path id="path2534_1_" class="st20" d="M-2.48,5.8c-0.07-0.01-0.16-0.1-0.23-0.24L-4.19,1.8l3.49,2.79l-1.65,1.19
					C-2.41,5.82-2.46,5.81-2.48,5.8 M-4.65,0.87c-0.07-0.02-0.14-0.01-0.2,0.04c-0.08,0.06-0.11,0.17-0.08,0.27l1.8,4.59
					C-2.97,6.03-2.8,6.19-2.6,6.24l0,0c0.11,0.03,0.3,0.04,0.51-0.08l1.91-1.38c0.06-0.04,0.09-0.11,0.09-0.18
					c0-0.07-0.03-0.14-0.09-0.18l-4.4-3.51C-4.6,0.89-4.62,0.88-4.65,0.87"/>
			</g>
			<g id="g2536_1_" transform="translate(305.9919,228.8796)">
				<path id="path2538_1_" class="st19" d="M-1.61,3.51l-4.54-3.55l2.06,4.76c0.25,0.36,0.69,0.33,1.08,0.08L-1.61,3.51z"/>
			</g>
			<g id="g2540_1_" transform="translate(304.032,230.8932)">
				<path id="path2542_1_" class="st20" d="M-1.74,2.74c-0.08-0.02-0.16-0.07-0.22-0.16l-1.68-3.9l3.63,2.83l-1.21,1.1
					C-1.31,2.67-1.53,2.79-1.74,2.74 M-4.14-2.27c-0.07-0.02-0.14,0-0.2,0.04c-0.08,0.06-0.11,0.18-0.07,0.27l2.06,4.76
					c0.33,0.47,0.88,0.53,1.41,0.18L0.5,1.67c0.05-0.05,0.08-0.11,0.07-0.18c0-0.07-0.03-0.13-0.09-0.17l-4.54-3.55
					C-4.08-2.25-4.11-2.27-4.14-2.27"/>
			</g>
			<g id="g2544_1_" transform="translate(311.8674,228.1472)">
				<path id="path2546_1_" class="st20" d="M-2.43,4.95C-2.5,4.93-2.58,4.94-2.64,5l-2.37,2.08C-5.11,7.16-5.12,7.3-5.04,7.4
					c0.08,0.09,0.23,0.1,0.32,0.02l2.37-2.08c0.09-0.08,0.1-0.23,0.02-0.32C-2.35,4.98-2.39,4.96-2.43,4.95"/>
			</g>
			<g id="g2548_1_" transform="translate(309.3576,228.4885)">
				<path id="path2550_1_" class="st20" d="M-2.09,4.33c-0.07-0.02-0.15,0-0.21,0.05l-1.54,1.36c-0.1,0.08-0.1,0.23-0.02,0.32
					c0.08,0.09,0.23,0.1,0.32,0.02L-2,4.72c0.09-0.08,0.1-0.23,0.02-0.32C-2.01,4.36-2.05,4.34-2.09,4.33"/>
			</g>
			<g id="g2552_1_" transform="translate(334.8747,233.2585)">
				<path id="path2554_1_" class="st21" d="M-7.43,9.23l6.39-4.42l-2.98-2.28l-6.39,4.42L-7.43,9.23z"/>
			</g>
			<g id="g2556_1_" transform="translate(331.2946,231.4968)">
				<path id="path2558_1_" class="st20" d="M-6.43,8.73l5.99-4.15l2.59,1.98l-5.99,4.15L-6.43,8.73z M-0.38,4.08
					c-0.06-0.02-0.13-0.01-0.19,0.03l-6.39,4.42c-0.06,0.04-0.1,0.11-0.1,0.18c0,0.07,0.03,0.14,0.09,0.19l2.98,2.28
					c0.08,0.06,0.19,0.06,0.27,0.01l6.39-4.42c0.06-0.04,0.1-0.11,0.1-0.18c0-0.07-0.03-0.14-0.09-0.19L-0.3,4.12
					C-0.32,4.1-0.35,4.08-0.38,4.08"/>
			</g>
			<g id="g2560_1_" transform="translate(330.1154,227.4474)">
				<path id="path2562_1_" class="st20" d="M-5.33,9.14c-0.06-0.02-0.13-0.01-0.19,0.03l-2.49,1.72c-0.1,0.07-0.13,0.21-0.06,0.32
					c0.07,0.1,0.21,0.13,0.32,0.06l2.49-1.72c0.1-0.07,0.13-0.21,0.06-0.32C-5.23,9.19-5.28,9.16-5.33,9.14"/>
			</g>
			<g id="g2564_1_" transform="translate(328.3195,226.6306)">
				<path id="path2566_1_" class="st20" d="M-4.85,8.88c-0.06-0.02-0.13-0.01-0.19,0.03l-2.49,1.72c-0.1,0.07-0.13,0.21-0.06,0.32
					c0.07,0.1,0.21,0.13,0.32,0.06l2.49-1.72c0.1-0.07,0.13-0.21,0.06-0.32C-4.75,8.92-4.8,8.89-4.85,8.88"/>
			</g>
			<g id="g2568_1_" transform="translate(322.092,221.1301)">
				<path id="path2570_1_" class="st20" d="M-2.58,8.41C-2.64,8.39-2.71,8.4-2.77,8.44l-3.08,2.14c-0.1,0.07-0.13,0.21-0.06,0.32
					c0.07,0.1,0.21,0.13,0.32,0.06l3.08-2.14C-2.4,8.74-2.38,8.6-2.45,8.5C-2.48,8.45-2.53,8.42-2.58,8.41"/>
			</g>
			<g id="g2572_1_" transform="translate(333.4026,223.5197)">
				<path id="path2574_1_" class="st20" d="M-5,10.53c-0.06-0.02-0.13-0.01-0.19,0.03l-2.52,1.74c-0.1,0.07-0.13,0.21-0.06,0.32
					c0.07,0.1,0.21,0.13,0.32,0.06l2.52-1.74c0.1-0.07,0.13-0.21,0.06-0.32C-4.91,10.58-4.95,10.55-5,10.53"/>
			</g>
			<g id="g2576_1_" transform="translate(330.3147,224.3054)">
				<path id="path2578_1_" class="st20" d="M-4.66,9.71C-4.72,9.7-4.79,9.71-4.84,9.74l-1.08,0.69C-6.04,10.5-6.07,10.64-6,10.75
					c0.07,0.11,0.21,0.14,0.32,0.07l1.09-0.69c0.11-0.07,0.14-0.21,0.07-0.32C-4.56,9.76-4.61,9.73-4.66,9.71"/>
			</g>
			<g id="g2580_1_" transform="translate(323.0373,230.1242)">
				<path id="path2582_1_" class="st20" d="M-4.75,7.11c-0.09-0.02-0.18,0.01-0.24,0.08c-0.08,0.1-0.06,0.24,0.04,0.32l5.58,4.31
					c0.1,0.08,0.24,0.06,0.32-0.04c0.08-0.1,0.06-0.24-0.04-0.32l-5.58-4.31C-4.69,7.13-4.72,7.12-4.75,7.11"/>
			</g>
			<g id="g2584_1_" transform="translate(315.1843,226.8503)">
				<path id="path2586_1_" class="st20" d="M-2.7,5.91c-0.09-0.02-0.18,0.01-0.24,0.08C-3.02,6.09-3,6.23-2.9,6.31l2.83,2.19
					c0.1,0.08,0.24,0.06,0.32-0.04c0.08-0.1,0.06-0.24-0.04-0.32l-2.83-2.19C-2.64,5.93-2.67,5.91-2.7,5.91"/>
			</g>
			<g id="g2588_1_" transform="translate(320.4314,229.0378)">
				<path id="path2590_1_" class="st20" d="M-4.07,6.71c-0.09-0.02-0.18,0.01-0.24,0.08c-0.08,0.1-0.06,0.24,0.04,0.32l1.05,0.81
					C-3.11,8-2.97,7.99-2.89,7.89c0.08-0.1,0.06-0.24-0.04-0.32l-1.05-0.81C-4.01,6.73-4.04,6.72-4.07,6.71"/>
			</g>
		</g>
	</g>
	<circle class="st12" cx="11.59" cy="6.48" r="0.11"/>
	<path class="st13" d="M11.25,6.79l0.16-0.07l0.04-0.39c0-0.04-0.02-0.09-0.05-0.11L11.26,6.1l-0.09,0.97l0,0l0.02-0.18
		C11.18,6.85,11.21,6.81,11.25,6.79z"/>
	<path class="st14" d="M12.05,6.67L11.9,6.57c-0.04-0.03-0.08-0.03-0.12-0.01l-0.36,0.16L11.4,6.9c0,0.04-0.03,0.08-0.07,0.1
		l-0.16,0.07l0,0L12.05,6.67z"/>
	<path class="st15" d="M11.4,6.9l0.02-0.18l-0.16,0.07c-0.04,0.02-0.07,0.06-0.07,0.1l-0.02,0.18L11.33,7
		C11.37,6.98,11.39,6.94,11.4,6.9z"/>
	<ellipse transform="matrix(0.1821 -0.9833 0.9833 0.1821 4.3103 7.0163)" class="st12" cx="6.37" cy="0.92" rx="0.06" ry="0.11"/>
	<path class="st13" d="M6.24,1.14l0.1-0.07L6.19,0.86C6.18,0.83,6.14,0.81,6.1,0.8L5.93,0.77L6.3,1.31l0,0l-0.07-0.1
		C6.21,1.18,6.22,1.16,6.24,1.14z"/>
	<path class="st14" d="M6.84,0.94L6.67,0.91c-0.04-0.01-0.08,0-0.11,0.01L6.34,1.07l0.07,0.1C6.43,1.2,6.43,1.22,6.4,1.24L6.3,1.31
		l0,0L6.84,0.94z"/>
	<path class="st15" d="M6.41,1.17l-0.07-0.1l-0.1,0.07C6.22,1.16,6.21,1.18,6.23,1.21l0.07,0.1l0.1-0.07
		C6.42,1.22,6.43,1.2,6.41,1.17z"/>
	<g>
		
			<rect x="32.37" y="3.91" transform="matrix(0.3167 -0.9485 0.9485 0.3167 18.1556 34.0927)" class="st9" width="0.75" height="1.07"/>
		
			<rect x="33.77" y="4.38" transform="matrix(0.3167 -0.9485 0.9485 0.3167 18.672 35.7498)" class="st9" width="0.75" height="1.07"/>
	</g>
</g>
</svg>
