<?xml version="1.0" encoding="utf-8"?>
<!-- Generator: Adobe Illustrator 25.0.1, SVG Export Plug-In . SVG Version: 6.00 Build 0)  -->
<svg version="1.1" id="Слой_1" xmlns="http://www.w3.org/2000/svg" xmlns:xlink="http://www.w3.org/1999/xlink" x="0px" y="0px"
	 viewBox="0 0 15 22.5" style="enable-background:new 0 0 15 22.5;" xml:space="preserve">
<style type="text/css">
	.st0{fill:#FFFFFF;}
	.st1{fill:#0097AE;}
	.st2{opacity:0.1;}
</style>
<path d="M13.9,0H1.1C0.5,0,0,0.5,0,1.1v1.7v16.9v1.7c0,0.6,0.5,1.1,1.1,1.1h12.7c0.6,0,1.1-0.5,1.1-1.1v-1.7V2.8V1.1
	C15,0.5,14.5,0,13.9,0z M1.1,0.8h12.7c0.2,0,0.3,0.1,0.3,0.3v0.6c-0.1,0-0.2-0.1-0.3-0.1H1.1c-0.1,0-0.2,0-0.3,0.1V1.1
	C0.8,1,1,0.8,1.1,0.8z M14.2,19.7c0,0.2-0.1,0.3-0.3,0.3H1.1c-0.2,0-0.3-0.1-0.3-0.3V2.8c0-0.2,0.1-0.3,0.3-0.3h12.7
	c0.2,0,0.3,0.1,0.3,0.3V19.7z M13.9,21.7H1.1c-0.2,0-0.3-0.1-0.3-0.3v-0.6c0.1,0,0.2,0.1,0.3,0.1h12.7c0.1,0,0.2,0,0.3-0.1v0.6
	C14.2,21.5,14,21.7,13.9,21.7z"/>
<circle class="st0" cx="7.5" cy="21.2" r="1.1"/>
<path class="st1" d="M12.4,10.9c-0.1-0.7-0.3-1.4-0.4-2.1c-0.1-0.3-0.1-0.7-0.2-1c-0.1-0.3-0.1-0.6-0.2-0.9c0-0.1-0.1-0.2-0.2-0.2
	c-0.5,0-1.1,0.1-1.6,0c0-0.1,0-0.3,0-0.4C9.6,5.6,9.6,4.8,9.1,4.1C8.6,3.5,7.5,3.3,6.7,3.7c-0.1,0-0.1,0.1-0.2,0.1
	c-1,0.6-1.2,1.6-1.3,2.5c0,0.2,0,0.4,0,0.6l-0.3,0l-0.6,0c0,0-0.5,0-0.4,0c-0.1-0.1-0.2-0.1-0.3,0c0,0,0,0-0.1,0.1
	c-0.3,1.4-0.6,2.8-0.8,4.1c-0.1,0.7-0.3,1.3-0.4,2C2.1,13.8,2,14.4,1.8,15c0,0.1,0,0.2,0.2,0.2c0,0,0,0,0.1,0c3.7,0,7.3,0,11,0.1
	c0.1,0,0.2-0.1,0.2-0.2c0,0,0,0,0-0.1C12.9,13.7,12.6,12.3,12.4,10.9z M5.7,6.4L5.7,6.4c0-0.9,0.4-2.8,2.1-2.6
	C9.1,4,9.1,5.4,9.2,6.2c0,0.2,0,0.4,0.1,0.6c-0.5,0-0.9,0-1.3,0c-0.7,0-1.3,0-2,0.1l-0.3,0C5.7,6.7,5.7,6.6,5.7,6.4z M2.3,14.9
	L2.3,14.9c0.1-0.5,0.2-1.1,0.3-1.6c0.1-0.7,0.3-1.4,0.4-2.1c0.3-1.3,0.5-2.6,0.8-4c0.1,0,0.3,0,0.4,0c0.3,0,0.6,0,0.9,0
	c0,0.5,0.1,1,0.1,1.5c0,0.2,0.5,0.2,0.5,0c0-0.5-0.1-1-0.1-1.6c0.7,0,1.3,0,2-0.1c0.5,0,1.1,0,1.6,0c0,0.5,0.1,1.1,0.1,1.6
	c0,0.2,0.5,0.2,0.5,0c0-0.5-0.1-1.1-0.1-1.6h0c0.5,0,0.9,0,1.4,0c0,0.2,0.1,0.4,0.1,0.6c0.1,0.3,0.1,0.7,0.2,1
	c0.1,0.7,0.3,1.4,0.4,2.2c0.3,1.3,0.5,2.7,0.8,4C9.2,14.9,5.8,14.9,2.3,14.9z"/>
<g class="st2">
	<g>
		<path d="M4.7,12.7h0.8v0.1H4.5v-2.3h0.1V12.7z"/>
	</g>
	<g>
		<path d="M9.3,10.7H8.5v1h0.7v0.1H8.5v1H8.4v-2.3h0.9V10.7z"/>
	</g>
	<g>
		<path d="M10.6,10.6v0.1h-0.5v2.1H10v-2.1H9.4v-0.1H10.6z"/>
	</g>
	<g>
		<g>
			<path class="st1" d="M7.4,12c-0.1,0-0.1,0.1-0.2,0.1c-0.1,0-0.1,0.1-0.2,0.1c-0.1,0-0.1,0.1-0.2,0.1c-0.1,0-0.1,0.1-0.2,0.1l0,0
				C6.9,12.3,7.1,12.1,7.4,12L7.4,12z"/>
		</g>
		<g>
			<path class="st1" d="M6,11.5c0.1,0,0.1-0.1,0.2-0.1c0.1,0,0.1-0.1,0.2-0.1c0.1,0,0.1-0.1,0.2-0.1c0.1,0,0.1-0.1,0.2-0.1l0,0
				C6.4,11.2,6.2,11.4,6,11.5L6,11.5z"/>
		</g>
		<g>
			<path class="st1" d="M6.7,10.5c-0.7,0-1.2,0.5-1.2,1.2c0,0.7,0.5,1.2,1.2,1.2s1.2-0.5,1.2-1.2C7.9,11,7.3,10.5,6.7,10.5z
				 M7.7,11.7c0,0.6-0.5,1.1-1.1,1.1c-0.6,0-1.1-0.5-1.1-1.1c0-0.6,0.5-1.1,1.1-1.1C7.2,10.7,7.7,11.1,7.7,11.7z"/>
		</g>
		<g>
			<g>
				<path class="st1" d="M5.9,12.2c0.2-0.2,0.5-0.3,0.8-0.5c0.3-0.2,0.5-0.3,0.8-0.4c-0.2,0.2-0.5,0.3-0.8,0.5
					C6.4,11.9,6.2,12,5.9,12.2z"/>
			</g>
			<g>
				<path class="st1" d="M7.3,11.6c-0.1,0.1-0.2,0.1-0.2,0.2C7,11.9,6.9,11.9,6.8,12c-0.1,0-0.2,0.1-0.3,0.1c-0.1,0-0.2,0.1-0.3,0.1
					l0,0C6.6,12,7,11.8,7.3,11.6L7.3,11.6z"/>
			</g>
			<g>
				<path class="st1" d="M6,11.8c0.1-0.1,0.2-0.1,0.2-0.2c0.1-0.1,0.2-0.1,0.3-0.2c0.1,0,0.2-0.1,0.3-0.1c0.1,0,0.2-0.1,0.3-0.1l0,0
					C6.7,11.4,6.4,11.6,6,11.8L6,11.8z"/>
			</g>
		</g>
	</g>
</g>
<g>
	<g>
		<path d="M8.1,21.4c0,0-0.1,0.1-0.1,0.1c0,0-0.1,0.1-0.1,0.1c0,0-0.1,0.1-0.1,0.1c0,0-0.1,0.1-0.2,0.1l0,0
			C7.7,21.7,7.9,21.6,8.1,21.4L8.1,21.4z"/>
	</g>
	<g>
		<path d="M6.9,21c0,0,0.1-0.1,0.1-0.1c0,0,0.1-0.1,0.1-0.1c0,0,0.1-0.1,0.1-0.1c0,0,0.1-0.1,0.1-0.1l0,0C7.3,20.8,7.1,20.9,6.9,21
			L6.9,21z"/>
	</g>
	<g>
		<path d="M7.5,20.1c-0.6,0-1.1,0.5-1.1,1.1c0,0.6,0.5,1.1,1.1,1.1s1.1-0.5,1.1-1.1C8.6,20.6,8.1,20.1,7.5,20.1z M8.4,21.2
			c0,0.5-0.4,0.9-0.9,0.9c-0.5,0-0.9-0.4-0.9-0.9c0-0.5,0.4-0.9,0.9-0.9C8,20.3,8.4,20.7,8.4,21.2z"/>
	</g>
	<g>
		<g>
			<path d="M6.8,21.6c0.2-0.1,0.4-0.3,0.7-0.4c0.2-0.1,0.5-0.3,0.7-0.4c-0.2,0.1-0.4,0.3-0.7,0.4C7.3,21.3,7.1,21.5,6.8,21.6z"/>
		</g>
		<g>
			<path d="M8.1,21.1c-0.1,0.1-0.1,0.1-0.2,0.2c-0.1,0-0.1,0.1-0.2,0.1c-0.1,0-0.2,0.1-0.2,0.1c-0.1,0-0.2,0.1-0.2,0.1l0,0
				C7.5,21.5,7.8,21.3,8.1,21.1L8.1,21.1z"/>
		</g>
		<g>
			<path d="M6.9,21.3c0.1-0.1,0.1-0.1,0.2-0.2c0.1,0,0.1-0.1,0.2-0.1c0.1,0,0.2-0.1,0.2-0.1c0.1,0,0.2-0.1,0.2-0.1l0,0
				C7.5,20.9,7.2,21.1,6.9,21.3L6.9,21.3z"/>
		</g>
	</g>
</g>
</svg>
