<?xml version="1.0" encoding="utf-8"?>
<!-- Generator: Adobe Illustrator 25.0.1, SVG Export Plug-In . SVG Version: 6.00 Build 0)  -->
<svg version="1.1" id="Слой_1" xmlns="http://www.w3.org/2000/svg" xmlns:xlink="http://www.w3.org/1999/xlink" x="0px" y="0px"
     viewBox="0 0 132.4 79.4" style="enable-background:new 0 0 132.4 79.4;" xml:space="preserve">
<style type="text/css">
	.st0{fill:#0097AE;}
	.st1{opacity:0.31;}
	.st2{fill:#1D1D1B;}
	.st3{opacity:0.6;}
	.st4{fill:#FFFFFF;}
</style>
    <g>
	<rect x="260.6" y="-84.5" width="63.3" height="1.6"/>
</g>
    <g>
	<path d="M357.3-125.8h-66.8c-2,0-3.6-1.6-3.6-3.6v-48.9c0-2,1.6-3.6,3.6-3.6h66.8c2,0,3.6,1.6,3.6,3.6v48.9
		C360.9-127.5,359.3-125.8,357.3-125.8z M290.5-179.3c-0.5,0-0.9,0.4-0.9,0.9v48.9c0,0.5,0.4,0.9,0.9,0.9h66.8
		c0.5,0,0.9-0.4,0.9-0.9v-48.9c0-0.5-0.4-0.9-0.9-0.9L290.5-179.3L290.5-179.3z"/>
</g>
    <g>
	<path class="st0" d="M86.9,57c-1.1-4.7-2.1-9.4-3.1-14.1s-2.1-9.4-3.1-14.1l-0.1-0.6H80c-1.9,0.2-3.6,0.2-5.3,0.3l-0.4-3.3
		c-0.2-1.8-0.5-3.9-1.6-5.7c-1.2-1.8-3.2-3.1-5.4-3.3c-2.7-0.2-5.4,1.1-7.3,3.5c-1.5,1.9-2.4,4.6-2.5,7.6c0,0.5,0,1,0,1.5
		c-1.4,0.1-2.9,0.1-4.4,0.2h-0.6l-0.1,0.6c-1.3,9.6-3.5,19.2-6.5,28.4l-0.3,1h1c6.6-0.2,13.2-0.3,19.8-0.5s13.2-0.3,19.8-0.5h0.9
		L86.9,57z M59,27.2c0.1-2.7,0.9-5,2.2-6.8c1.5-1.9,3.8-3.1,6-2.9c1.7,0.1,3.4,1.2,4.3,2.6c0.9,1.5,1.2,3.4,1.4,5.1l0.4,3.2
		c-2.3,0-4.5,0-6.7,0c-2.5,0-5,0-7.6,0.1C59,28.2,58.9,27.7,59,27.2z M66.4,56.9c-6.2,0.2-12.5,0.3-18.7,0.5
		c2.8-8.8,4.9-17.9,6.1-27.1c1.3-0.1,2.5-0.1,3.7-0.1c0.1,1.6,0.3,3.2,0.6,4.8c0.1,0.4,0.4,0.6,0.7,0.6h0.1c0.4-0.1,0.7-0.4,0.6-0.8
		c-0.2-1.5-0.4-3.1-0.5-4.6c2.6-0.1,5.1-0.1,7.5-0.1c2.2,0,4.5,0,6.8,0l0.5,4.4c0,0.4,0.4,0.7,0.8,0.6c0.4,0,0.7-0.4,0.6-0.8
		L74.7,30c1.5,0,3-0.1,4.5-0.2c1,4.5,2,9,3,13.5c1,4.4,1.9,8.8,2.9,13.2C79,56.6,72.7,56.8,66.4,56.9z"/>
</g>
    <g class="st1">
	<path class="st2" d="M247.4-63.1h1.5v0.3h-1.8v-4.4h0.3V-63.1L247.4-63.1z"/>
</g>
    <g class="st1">
	<path class="st2" d="M256.3-66.9h-1.5v1.9h1.3v0.3h-1.3v1.9h-0.3v-4.4h1.8V-66.9L256.3-66.9z"/>
</g>
    <g class="st1">
	<path class="st2" d="M258.8-67.2v0.3h-1v4.1h-0.3v-4.1h-1v-0.3H258.8z"/>
</g>
    <g class="st3">
	<g>
		<g>
			<path class="st2" d="M57.5,51.5h2.8V52h-3.4v-8.2h0.5L57.5,51.5z"/>
		</g>
	</g>
        <g>
		<g>
			<path class="st2" d="M74.1,44.3h-2.8v3.6h2.4v0.5h-2.4V52h-0.5v-8.2h3.4L74.1,44.3z"/>
		</g>
	</g>
        <g>
		<g>
			<path class="st2" d="M78.8,43.8v0.5h-1.9V52h-0.5v-7.7h-1.9v-0.5H78.8z"/>
		</g>
	</g>
        <g>
		<g>
			<g>
				<path class="st0" d="M64.7,43.6c-2.3,0-4.2,1.9-4.2,4.2s1.9,4.2,4.2,4.2c2.3,0,4.2-1.9,4.2-4.2C68.9,45.5,67.1,43.6,64.7,43.6z
					 M68.4,47.8c0,2-1.7,3.7-3.7,3.7c-2,0-3.7-1.7-3.7-3.7s1.7-3.7,3.7-3.7C66.8,44.1,68.4,45.8,68.4,47.8z"/>
			</g>
		</g>
            <g>
			<g>
				<g>
					<path class="st0" d="M67.2,48.8c-0.2,0.1-0.4,0.3-0.6,0.4c-0.2,0.1-0.4,0.2-0.6,0.4c-0.2,0.1-0.4,0.2-0.6,0.3
						c-0.2,0.1-0.4,0.2-0.6,0.3l0,0C65.6,49.7,66.4,49.3,67.2,48.8L67.2,48.8z"/>
				</g>
			</g>
                <g>
				<g>
					<path class="st0" d="M62.5,47c0.2-0.1,0.4-0.2,0.5-0.3c0.2-0.1,0.4-0.2,0.5-0.3c0.2-0.1,0.4-0.2,0.5-0.3
						c0.2-0.1,0.4-0.2,0.6-0.3l0,0C64,46.1,63.3,46.5,62.5,47L62.5,47z"/>
				</g>
			</g>
                <g>
				<g>
					<g>
						<path class="st0" d="M62.1,49.4c0.9-0.6,1.7-1.1,2.6-1.7c0.9-0.5,1.8-1.1,2.7-1.5c-0.9,0.6-1.7,1.1-2.6,1.7
							C63.9,48.4,63,48.9,62.1,49.4z"/>
					</g>
				</g>
                    <g>
					<g>
						<path class="st0" d="M67,47.5c-0.3,0.2-0.5,0.4-0.8,0.6c-0.3,0.2-0.6,0.4-0.9,0.6c-0.3,0.2-0.6,0.3-0.9,0.5s-0.6,0.3-0.9,0.4
							l0,0C64.6,48.9,65.8,48.2,67,47.5L67,47.5z"/>
					</g>
				</g>
                    <g>
					<g>
						<path class="st0" d="M62.5,48.1c0.3-0.2,0.5-0.4,0.8-0.6c0.3-0.2,0.6-0.4,0.9-0.6c0.3-0.2,0.6-0.3,0.9-0.5
							c0.3-0.2,0.6-0.3,0.9-0.4l0,0C64.9,46.7,63.7,47.4,62.5,48.1L62.5,48.1z"/>
					</g>
				</g>
			</g>
		</g>
	</g>
</g>
    <g>
	<path class="st4" d="M115.2,78.9h-98c-1.4,0-2.5-1.1-2.5-2.5V2.9c0-1.4,1.1-2.5,2.5-2.5h98c1.4,0,2.5,1.1,2.5,2.5v73.5
		C117.7,77.8,116.6,78.9,115.2,78.9z M17.2,1.2c-1,0-1.8,0.8-1.8,1.8v73.4c0,1,0.8,1.8,1.8,1.8h98c1,0,1.8-0.8,1.8-1.8V2.9
		c0-1-0.8-1.8-1.8-1.8L17.2,1.2L17.2,1.2z"/>
</g>
    <g>
	<path class="st4" d="M111,67.5H21.8v-60H111C111,7.5,111,67.5,111,67.5z M22.3,67h88.2V8H22.3V67z"/>
</g>
    <g>
	<rect x="22" y="70.5" class="st4" width="88.7" height="0.8"/>
</g>
    <g>
	<rect x="21.9" y="72.9" class="st4" width="0.2" height="3"/>
</g>
    <g>
	<rect x="23.3" y="72.9" class="st4" width="0.2" height="3"/>
</g>
    <g>
	<rect x="24.7" y="72.9" class="st4" width="0.2" height="3"/>
</g>
    <g>
	<rect x="26.1" y="72.9" class="st4" width="0.2" height="3"/>
</g>
    <g>
	<rect x="27.5" y="72.9" class="st4" width="0.2" height="3"/>
</g>
    <g>
	<g>
		<g>
			<path class="st0" d="M66.8,74.7L66.8,74.7l-0.2,0.2L66.5,75l-0.1,0.1l0,0C66.4,74.9,66.6,74.8,66.8,74.7L66.8,74.7z"/>
		</g>
	</g>
        <g>
		<g>
			<path class="st0" d="M65.7,74.2L65.7,74.2l0.2-0.2c0,0,0.1,0,0.1-0.1c0,0,0.1,0,0.1-0.1l0,0C66,74,65.8,74.1,65.7,74.2L65.7,74.2
				z"/>
		</g>
	</g>
        <g>
		<g>
			<path class="st0" d="M66.2,73.4c-0.5,0-1,0.4-1,1c0,0.5,0.4,1,1,1c0.5,0,1-0.4,1-1C67.2,73.9,66.7,73.4,66.2,73.4z M67.1,74.4
				c0,0.5-0.4,0.9-0.9,0.9s-0.9-0.4-0.9-0.9s0.4-0.9,0.9-0.9S67.1,74,67.1,74.4z"/>
		</g>
	</g>
        <g>
		<g>
			<g>
				<path class="st0" d="M65.6,74.8c0.2-0.1,0.4-0.3,0.6-0.4s0.4-0.2,0.6-0.4c-0.2,0.1-0.4,0.3-0.6,0.4C66,74.6,65.8,74.7,65.6,74.8
					z"/>
			</g>
		</g>
            <g>
			<g>
				<path class="st0" d="M66.7,74.4c-0.1,0.1-0.1,0.1-0.2,0.1c-0.1,0-0.1,0.1-0.2,0.1s-0.1,0.1-0.2,0.1c-0.1,0-0.1,0.1-0.2,0.1l0,0
					C66.2,74.7,66.4,74.5,66.7,74.4L66.7,74.4z"/>
			</g>
		</g>
            <g>
			<g>
				<path class="st0" d="M65.7,74.5c0-0.1,0.1-0.1,0.2-0.1s0.1-0.1,0.2-0.1c0.1,0,0.1-0.1,0.2-0.1s0.1-0.1,0.2-0.1l0,0
					C66.2,74.2,65.9,74.3,65.7,74.5L65.7,74.5z"/>
			</g>
		</g>
	</g>
</g>
</svg>
