<?xml version="1.0" encoding="utf-8"?>
<!-- Generator: Adobe Illustrator 25.0.1, SVG Export Plug-In . SVG Version: 6.00 Build 0)  -->
<svg version="1.1" id="Слой_1" xmlns="http://www.w3.org/2000/svg" xmlns:xlink="http://www.w3.org/1999/xlink" x="0px" y="0px"
     viewBox="0 0 103 78.5" style="enable-background:new 0 0 103 78.5;" xml:space="preserve">
<style type="text/css">
	.st0{fill:#0097AE;}
	.st1{opacity:0.31;}
	.st2{fill:#1D1D1B;}
	.st3{opacity:0.6;}
	.st4{fill:#FFFFFF;}
</style>
    <g>
	<rect x="245.9" y="-84.9" width="63.3" height="1.6"/>
</g>
    <g>
	<path d="M342.6-126.2h-66.8c-2,0-3.6-1.6-3.6-3.6v-48.9c0-2,1.6-3.6,3.6-3.6h66.8c2,0,3.6,1.6,3.6,3.6v48.9
		C346.2-127.9,344.6-126.2,342.6-126.2z M275.8-179.7c-0.5,0-0.9,0.4-0.9,0.9v48.9c0,0.5,0.4,0.9,0.9,0.9h66.8
		c0.5,0,0.9-0.4,0.9-0.9v-48.9c0-0.5-0.4-0.9-0.9-0.9H275.8z"/>
</g>
    <g>
	<path class="st0" d="M72.2,56.6c-1.1-4.7-2.1-9.4-3.1-14.1S67,33.1,66,28.4l-0.1-0.6h-0.6C63.4,28,61.7,28,60,28.1l-0.4-3.3
		c-0.2-1.8-0.5-3.9-1.6-5.7c-1.2-1.8-3.2-3.1-5.4-3.3c-2.7-0.2-5.4,1.1-7.3,3.5c-1.5,1.9-2.4,4.6-2.5,7.6c0,0.5,0,1,0,1.5
		c-1.4,0.1-2.9,0.1-4.4,0.2h-0.6l-0.1,0.6c-1.3,9.6-3.5,19.2-6.5,28.4l-0.3,1h1c6.6-0.2,13.2-0.3,19.8-0.5s13.2-0.3,19.8-0.5h0.9
		L72.2,56.6z M44.3,26.8c0.1-2.7,0.9-5,2.2-6.8c1.5-1.9,3.8-3.1,6-2.9c1.7,0.1,3.4,1.2,4.3,2.6c0.9,1.5,1.2,3.4,1.4,5.1l0.4,3.2
		c-2.3,0-4.5,0-6.7,0c-2.5,0-5,0-7.6,0.1C44.3,27.8,44.2,27.3,44.3,26.8z M51.7,56.5C45.5,56.7,39.2,56.8,33,57
		c2.8-8.8,4.9-17.9,6.1-27.1c1.3-0.1,2.5-0.1,3.7-0.1c0.1,1.6,0.3,3.2,0.6,4.8c0.1,0.4,0.4,0.6,0.7,0.6h0.1c0.4-0.1,0.7-0.4,0.6-0.8
		c-0.2-1.5-0.4-3.1-0.5-4.6c2.6-0.1,5.1-0.1,7.5-0.1c2.2,0,4.5,0,6.8,0l0.5,4.4c0,0.4,0.4,0.7,0.8,0.6c0.4,0,0.7-0.4,0.6-0.8
		L60,29.6c1.5,0,3-0.1,4.5-0.2c1,4.5,2,9,3,13.5c1,4.4,1.9,8.8,2.9,13.2C64.3,56.2,58,56.4,51.7,56.5z"/>
</g>
    <g class="st1">
	<path class="st2" d="M232.7-63.5h1.5v0.3h-1.8v-4.4h0.3V-63.5L232.7-63.5z"/>
</g>
    <g class="st1">
	<path class="st2" d="M241.6-67.3h-1.5v1.9h1.3v0.3h-1.3v1.9h-0.3v-4.4h1.8V-67.3L241.6-67.3z"/>
</g>
    <g class="st1">
	<path class="st2" d="M244.1-67.6v0.3h-1v4.1h-0.3v-4.1h-1v-0.3H244.1z"/>
</g>
    <g class="st3">
	<g>
		<g>
			<path class="st2" d="M42.8,51.1h2.8v0.5h-3.4v-8.2h0.5L42.8,51.1z"/>
		</g>
	</g>
        <g>
		<g>
			<path class="st2" d="M59.4,43.9h-2.8v3.6H59V48h-2.4v3.6h-0.5v-8.2h3.4L59.4,43.9z"/>
		</g>
	</g>
        <g>
		<g>
			<path class="st2" d="M64.1,43.4v0.5h-1.9v7.7h-0.5v-7.7h-1.9v-0.5H64.1z"/>
		</g>
	</g>
        <g>
		<g>
			<g>
				<path class="st0" d="M50,43.2c-2.3,0-4.2,1.9-4.2,4.2s1.9,4.2,4.2,4.2s4.2-1.9,4.2-4.2C54.2,45.1,52.4,43.2,50,43.2z M53.7,47.4
					c0,2-1.7,3.7-3.7,3.7s-3.7-1.7-3.7-3.7s1.7-3.7,3.7-3.7C52.1,43.7,53.7,45.4,53.7,47.4z"/>
			</g>
		</g>
            <g>
			<g>
				<g>
					<path class="st0" d="M52.5,48.4c-0.2,0.1-0.4,0.3-0.6,0.4c-0.2,0.1-0.4,0.2-0.6,0.4c-0.2,0.1-0.4,0.2-0.6,0.3
						c-0.2,0.1-0.4,0.2-0.6,0.3l0,0C50.9,49.3,51.7,48.9,52.5,48.4L52.5,48.4z"/>
				</g>
			</g>
                <g>
				<g>
					<path class="st0" d="M47.8,46.6c0.2-0.1,0.4-0.2,0.5-0.3c0.2-0.1,0.4-0.2,0.5-0.3c0.2-0.1,0.4-0.2,0.5-0.3
						c0.2-0.1,0.4-0.2,0.6-0.3l0,0C49.3,45.7,48.6,46.1,47.8,46.6L47.8,46.6z"/>
				</g>
			</g>
                <g>
				<g>
					<g>
						<path class="st0" d="M47.4,49c0.9-0.6,1.7-1.1,2.6-1.7c0.9-0.5,1.8-1.1,2.7-1.5c-0.9,0.6-1.7,1.1-2.6,1.7
							C49.2,48,48.3,48.5,47.4,49z"/>
					</g>
				</g>
                    <g>
					<g>
						<path class="st0" d="M52.3,47.1c-0.3,0.2-0.5,0.4-0.8,0.6c-0.3,0.2-0.6,0.4-0.9,0.6c-0.3,0.2-0.6,0.3-0.9,0.5
							c-0.3,0.2-0.6,0.3-0.9,0.4l0,0C49.9,48.5,51.1,47.8,52.3,47.1L52.3,47.1z"/>
					</g>
				</g>
                    <g>
					<g>
						<path class="st0" d="M47.8,47.7c0.3-0.2,0.5-0.4,0.8-0.6c0.3-0.2,0.6-0.4,0.9-0.6c0.3-0.2,0.6-0.3,0.9-0.5
							c0.3-0.2,0.6-0.3,0.9-0.4l0,0C50.2,46.3,49,47,47.8,47.7L47.8,47.7z"/>
					</g>
				</g>
			</g>
		</g>
	</g>
</g>
    <g>
	<path class="st4" d="M100.5,78.5h-98C1.1,78.5,0,77.4,0,76V2.5C0,1.1,1.1,0,2.5,0h98c1.4,0,2.5,1.1,2.5,2.5V76
		C103,77.4,101.9,78.5,100.5,78.5z M2.5,0.8c-1,0-1.8,0.8-1.8,1.8V76c0,1,0.8,1.8,1.8,1.8h98c1,0,1.8-0.8,1.8-1.8V2.5
		c0-1-0.8-1.8-1.8-1.8L2.5,0.8L2.5,0.8z"/>
</g>
    <g>
	<path class="st4" d="M96.3,67.1H7.1v-60h89.2C96.3,7.1,96.3,67.1,96.3,67.1z M7.6,66.6h88.2v-59H7.6V66.6z"/>
</g>
    <g>
	<rect x="7.3" y="70.1" class="st4" width="88.7" height="0.8"/>
</g>
    <g>
	<rect x="7.2" y="72.5" class="st4" width="0.2" height="3"/>
</g>
    <g>
	<rect x="8.6" y="72.5" class="st4" width="0.2" height="3"/>
</g>
    <g>
	<rect x="10" y="72.5" class="st4" width="0.2" height="3"/>
</g>
    <g>
	<rect x="11.4" y="72.5" class="st4" width="0.2" height="3"/>
</g>
    <g>
	<rect x="12.8" y="72.5" class="st4" width="0.2" height="3"/>
</g>
    <g>
	<g>
		<g>
			<path class="st0" d="M52.1,74.3L52.1,74.3l-0.2,0.2l-0.1,0.1l-0.1,0.1l0,0C51.7,74.5,51.9,74.4,52.1,74.3L52.1,74.3z"/>
		</g>
	</g>
        <g>
		<g>
			<path class="st0" d="M51,73.8L51,73.8l0.2-0.2c0,0,0.1,0,0.1-0.1c0,0,0.1,0,0.1-0.1l0,0C51.3,73.6,51.1,73.7,51,73.8L51,73.8z"/>
		</g>
	</g>
        <g>
		<g>
			<path class="st0" d="M51.5,73c-0.5,0-1,0.4-1,1c0,0.5,0.4,1,1,1c0.5,0,1-0.4,1-1C52.5,73.5,52,73,51.5,73z M52.4,74
				c0,0.5-0.4,0.9-0.9,0.9s-0.9-0.4-0.9-0.9s0.4-0.9,0.9-0.9S52.4,73.6,52.4,74z"/>
		</g>
	</g>
        <g>
		<g>
			<g>
				<path class="st0" d="M50.9,74.4c0.2-0.1,0.4-0.3,0.6-0.4c0.2-0.1,0.4-0.2,0.6-0.4c-0.2,0.1-0.4,0.3-0.6,0.4
					C51.3,74.2,51.1,74.3,50.9,74.4z"/>
			</g>
		</g>
            <g>
			<g>
				<path class="st0" d="M52,74c-0.1,0.1-0.1,0.1-0.2,0.1c-0.1,0-0.1,0.1-0.2,0.1c-0.1,0-0.1,0.1-0.2,0.1c-0.1,0-0.1,0.1-0.2,0.1
					l0,0C51.5,74.3,51.7,74.1,52,74L52,74z"/>
			</g>
		</g>
            <g>
			<g>
				<path class="st0" d="M51,74.1c0-0.1,0.1-0.1,0.2-0.1c0.1,0,0.1-0.1,0.2-0.1c0.1,0,0.1-0.1,0.2-0.1c0.1,0,0.1-0.1,0.2-0.1l0,0
					C51.5,73.8,51.2,73.9,51,74.1L51,74.1z"/>
			</g>
		</g>
	</g>
</g>
</svg>
