<?xml version="1.0" encoding="utf-8"?>
<!-- Generator: Adobe Illustrator 25.0.1, SVG Export Plug-In . SVG Version: 6.00 Build 0)  -->
<svg version="1.1" id="Слой_1" xmlns="http://www.w3.org/2000/svg" xmlns:xlink="http://www.w3.org/1999/xlink" x="0px" y="0px"
     viewBox="0 0 34 26.4" style="enable-background:new 0 0 34 26.4;" xml:space="preserve">
<style type="text/css">
	.st0{fill:#0097AE;}
	.st1{fill:#FFFFFF;}
</style>
    <g>
	<path class="st0" d="M15.5,18.7c0,4.2-3.5,7.7-7.8,7.7c-4.2,0-7.8-3.6-7.7-7.8c0.1-4.3,3.5-7.8,7.8-7.8
		C12,10.9,15.5,14.5,15.5,18.7z M11.6,14.7C9.8,16.6,8,18.4,6,20.4c-0.7-0.9-1.4-1.7-2.1-2.5c-0.6,0.6-1,1.1-1.5,1.6
		C3.7,20.7,5,22,6.2,23.2c2.3-2.3,4.6-4.6,6.9-7C12.7,15.8,12.2,15.3,11.6,14.7z"/>
        <path class="st1" d="M11.6,14.7c0.6,0.6,1.1,1.1,1.5,1.5c-2.4,2.4-4.7,4.7-6.9,7C5,22,3.7,20.7,2.5,19.5c0.4-0.5,0.9-0.9,1.5-1.6
		c0.7,0.8,1.4,1.6,2.1,2.5C8,18.4,9.8,16.6,11.6,14.7z"/>
        <path d="M30,0H5.9c-2.2,0-4,1.8-4,4v0.9v5.2h1.5h12.1h17.1v9.5c0,1.4-1.1,2.5-2.5,2.5H15.5v1.5H30c2.2,0,4-1.8,4-4v-9.5V4.9V4
		C34,1.8,32.2,0,30,0z M32.5,8.6H3.3V6.4h29.2V8.6z M32.5,4.9H3.3V4c0-1.4,1.1-2.5,2.5-2.5H30c1.4,0,2.5,1.1,2.5,2.5V4.9z"/>
        <g>
		<path d="M27.1,21c-0.7,0-1.3-0.2-1.8-0.6c-0.5,0.4-1.2,0.6-1.8,0.6c-1.7,0-3.1-1.4-3.1-3.1c0-1.7,1.4-3.1,3.1-3.1
			c0.7,0,1.3,0.2,1.8,0.6c0.5-0.4,1.2-0.6,1.8-0.6c1.7,0,3.1,1.4,3.1,3.1C30.3,19.6,28.9,21,27.1,21z M25.3,18.4l0.5,0.6
			c0.3,0.4,0.8,0.6,1.3,0.6c1,0,1.8-0.8,1.8-1.8s-0.8-1.8-1.8-1.8c-0.5,0-1,0.2-1.3,0.6l-0.5,0.6l-0.5-0.6c-0.3-0.4-0.8-0.6-1.3-0.6
			c-1,0-1.8,0.8-1.8,1.8s0.8,1.8,1.8,1.8c0.5,0,1-0.2,1.3-0.6L25.3,18.4z"/>
	</g>
        <g>
		<path d="M24.6,18.4c-0.1,0.1-0.2,0.1-0.3,0.2c-0.1,0.1-0.2,0.1-0.3,0.2c-0.1,0.1-0.2,0.1-0.3,0.2c-0.1,0.1-0.2,0.1-0.3,0.2l0,0
			C23.8,18.8,24.2,18.6,24.6,18.4L24.6,18.4z"/>
	</g>
        <g>
		<path d="M22.3,17.4c0.1-0.1,0.2-0.1,0.3-0.2c0.1-0.1,0.2-0.1,0.3-0.2c0.1-0.1,0.2-0.1,0.3-0.2c0.1-0.1,0.2-0.1,0.3-0.2l0,0
			C23,17,22.7,17.2,22.3,17.4L22.3,17.4z"/>
	</g>
        <g>
		<g>
			<path d="M22.1,18.7c0.4-0.3,0.9-0.6,1.3-0.8c0.4-0.3,0.9-0.5,1.4-0.8c-0.4,0.3-0.9,0.6-1.3,0.8C23,18.2,22.5,18.4,22.1,18.7z"/>
		</g>
            <g>
			<path d="M24.5,17.7c-0.1,0.1-0.3,0.2-0.4,0.3c-0.1,0.1-0.3,0.2-0.4,0.3c-0.2,0.1-0.3,0.2-0.5,0.3c-0.2,0.1-0.3,0.2-0.5,0.2l0,0
				C23.3,18.4,23.9,18.1,24.5,17.7L24.5,17.7z"/>
		</g>
            <g>
			<path d="M22.3,18c0.1-0.1,0.3-0.2,0.4-0.3c0.1-0.1,0.3-0.2,0.4-0.3c0.2-0.1,0.3-0.2,0.5-0.3c0.2-0.1,0.3-0.2,0.5-0.2l0,0
				C23.5,17.3,22.9,17.7,22.3,18L22.3,18z"/>
		</g>
	</g>
        <g>
		<path d="M28.3,18.4c-0.1,0.1-0.2,0.1-0.3,0.2c-0.1,0.1-0.2,0.1-0.3,0.2c-0.1,0.1-0.2,0.1-0.3,0.2c-0.1,0.1-0.2,0.1-0.3,0.2l0,0
			C27.5,18.8,27.9,18.6,28.3,18.4L28.3,18.4z"/>
	</g>
        <g>
		<path d="M26,17.4c0.1-0.1,0.2-0.1,0.3-0.2c0.1-0.1,0.2-0.1,0.3-0.2c0.1-0.1,0.2-0.1,0.3-0.2c0.1-0.1,0.2-0.1,0.3-0.2l0,0
			C26.7,17,26.3,17.2,26,17.4L26,17.4z"/>
	</g>
        <g>
		<g>
			<path d="M25.7,18.7c0.4-0.3,0.9-0.6,1.3-0.8c0.4-0.3,0.9-0.5,1.4-0.8c-0.4,0.3-0.9,0.6-1.3,0.8C26.7,18.2,26.2,18.4,25.7,18.7z"
            />
		</g>
            <g>
			<path d="M28.2,17.7c-0.1,0.1-0.3,0.2-0.4,0.3c-0.1,0.1-0.3,0.2-0.4,0.3c-0.2,0.1-0.3,0.2-0.5,0.3c-0.2,0.1-0.3,0.2-0.5,0.2l0,0
				C27,18.4,27.6,18.1,28.2,17.7L28.2,17.7z"/>
		</g>
            <g>
			<path d="M25.9,18c0.1-0.1,0.3-0.2,0.4-0.3c0.1-0.1,0.3-0.2,0.4-0.3c0.2-0.1,0.3-0.2,0.5-0.3c0.2-0.1,0.3-0.2,0.5-0.2l0,0
				C27.1,17.3,26.6,17.7,25.9,18L25.9,18z"/>
		</g>
	</g>
</g>
</svg>
