<?xml version="1.0" encoding="utf-8"?>
<!-- Generator: Adobe Illustrator 25.0.1, SVG Export Plug-In . SVG Version: 6.00 Build 0)  -->
<svg version="1.1" id="Слой_1" xmlns="http://www.w3.org/2000/svg" xmlns:xlink="http://www.w3.org/1999/xlink" x="0px" y="0px"
     viewBox="0 0 104.9 78.7" style="enable-background:new 0 0 104.9 78.7;" xml:space="preserve">
<style type="text/css">
	.st0{fill:#0097AE;}
	.st1{fill:#FFFFFF;}
	.st2{fill:none;stroke:#000000;stroke-miterlimit:10;}
	.st3{opacity:0.69;enable-background:new    ;}
	.st4{opacity:0.6;}
	.st5{fill:#1D1D1B;}
	.st6{fill:none;stroke:#000000;stroke-width:0.5;stroke-miterlimit:10;}
</style>
    <g>
	<path class="st0" d="M393.4,411.9c0,32.2-26.8,59.1-59.8,59.1c-32.2,0-59.8-27.6-59.1-59.8c0.8-33,26.8-59.8,59.8-59.8
		C366.5,352.1,393.4,379.7,393.4,411.9z M363.4,381.2c-13.8,14.6-27.6,28.4-43,43.7c-5.4-6.9-10.7-13-16.1-19.2
		c-4.6,4.6-7.7,8.4-11.5,12.3c10,9.2,19.9,19.2,29.1,28.4c17.6-17.6,35.3-35.3,52.9-53.7C371.9,389.6,368,385.8,363.4,381.2z"/>
        <path class="st1" d="M363.4,381.2c4.6,4.6,8.4,8.4,11.5,11.5c-18.4,18.4-36.1,36.1-52.9,53.7c-9.2-9.2-19.2-19.2-28.4-28.4
		c3.1-3.8,6.9-6.9,11.5-12.3c5.4,6.1,10.7,12.3,16.1,19.2C335.8,409.6,349.6,395.8,363.4,381.2z"/>
</g>
    <path d="M526,257.5H369.1c-14.3,0-26,11.7-26,26v5.9v33.9h9.8h78.8H543v61.9c0,9.1-7.2,16.3-16.3,16.3h-95.1v9.8H526
	c14.3,0,26-11.7,26-26v-61.9v-33.9v-5.9C552.1,269.2,540.3,257.5,526,257.5z M542.3,313.5H352.2v-14.3h190.1L542.3,313.5
	L542.3,313.5z M542.3,289.4H352.2v-5.9c0-9.1,7.2-16.3,16.3-16.3H526c9.1,0,16.3,7.2,16.3,16.3V289.4z"/>
    <g>
	<path d="M507.1,394.2c-4.6,0-8.5-1.3-11.7-3.9c-3.3,2.6-7.8,3.9-11.7,3.9c-11.1,0-20.2-9.1-20.2-20.2s9.1-20.2,20.2-20.2
		c4.6,0,8.5,1.3,11.7,3.9c3.3-2.6,7.8-3.9,11.7-3.9c11.1,0,20.2,9.1,20.2,20.2C528,385.1,518.8,394.2,507.1,394.2z M495.4,377.3
		l3.3,3.9c2,2.6,5.2,3.9,8.5,3.9c6.5,0,11.7-5.2,11.7-11.7s-5.2-11.7-11.7-11.7c-3.3,0-6.5,1.3-8.5,3.9l-3.3,3.9l-3.3-3.9
		c-2-2.6-5.2-3.9-8.5-3.9c-6.5,0-11.7,5.2-11.7,11.7s5.2,11.7,11.7,11.7c3.3,0,6.5-1.3,8.5-3.9L495.4,377.3z"/>
</g>
    <g>
	<path d="M490.8,377.3c-0.7,0.7-1.3,0.7-2,1.3s-1.3,0.7-2,1.3c-0.7,0.7-1.3,0.7-2,1.3s-1.3,0.7-2,1.3l0,0
		C485.6,379.9,488.2,378.6,490.8,377.3L490.8,377.3z"/>
</g>
    <g>
	<path d="M475.9,370.8c0.7-0.7,1.3-0.7,2-1.3c0.7-0.7,1.3-0.7,2-1.3s1.3-0.7,2-1.3c0.7-0.7,1.3-0.7,2-1.3l0,0
		C480.4,368.2,478.5,369.5,475.9,370.8L475.9,370.8z"/>
</g>
    <g>
	<g>
		<path d="M474.6,379.2c2.6-2,5.9-3.9,8.5-5.2c2.6-2,5.9-3.3,9.1-5.2c-2.6,2-5.9,3.9-8.5,5.2C480.4,376,477.2,377.3,474.6,379.2z"/>
	</g>
        <g>
		<path d="M490.2,372.7c-0.7,0.7-2,1.3-2.6,2c-0.7,0.7-2,1.3-2.6,2c-1.3,0.7-2,1.3-3.3,2s-2,1.3-3.3,1.3l0,0
			C482.4,377.3,486.3,375.3,490.2,372.7L490.2,372.7z"/>
	</g>
        <g>
		<path d="M475.9,374.7c0.7-0.7,2-1.3,2.6-2c0.7-0.7,2-1.3,2.6-2c1.3-0.7,2-1.3,3.3-2s2-1.3,3.3-1.3l0,0
			C483.7,370.1,479.8,372.7,475.9,374.7L475.9,374.7z"/>
	</g>
</g>
    <g>
	<path d="M514.9,377.3c-0.7,0.7-1.3,0.7-2,1.3c-0.7,0.7-1.3,0.7-2,1.3c-0.7,0.7-1.3,0.7-2,1.3s-1.3,0.7-2,1.3l0,0
		C509.7,379.9,512.3,378.6,514.9,377.3L514.9,377.3z"/>
</g>
    <g>
	<path d="M500,370.8c0.7-0.7,1.3-0.7,2-1.3c0.7-0.7,1.3-0.7,2-1.3s1.3-0.7,2-1.3c0.7-0.7,1.3-0.7,2-1.3l0,0
		C504.5,368.2,501.9,369.5,500,370.8L500,370.8z"/>
</g>
    <g>
	<g>
		<path d="M498,379.2c2.6-2,5.9-3.9,8.5-5.2c2.6-2,5.9-3.3,9.1-5.2c-2.6,2-5.9,3.9-8.5,5.2C504.5,376,501.3,377.3,498,379.2z"/>
	</g>
        <g>
		<path d="M514.3,372.7c-0.7,0.7-2,1.3-2.6,2c-0.7,0.7-2,1.3-2.6,2c-1.3,0.7-2,1.3-3.3,2s-2,1.3-3.3,1.3l0,0
			C506.5,377.3,510.4,375.3,514.3,372.7L514.3,372.7z"/>
	</g>
        <g>
		<path d="M499.3,374.7c0.7-0.7,2-1.3,2.6-2c0.7-0.7,2-1.3,2.6-2c1.3-0.7,2-1.3,3.3-2s2-1.3,3.3-1.3l0,0
			C507.1,370.1,503.9,372.7,499.3,374.7L499.3,374.7z"/>
	</g>
</g>
    <g>
	<g>
		<path class="st0" d="M187.2,401.8c-9.5,0-17.3,7.7-17.3,17.3s7.7,17.3,17.3,17.3s17.3-7.7,17.3-17.3S196.7,401.8,187.2,401.8z
			 M202.3,419.1c0,8.3-6.8,15.1-15.1,15.1s-15.1-6.8-15.1-15.1s6.8-15.2,15.1-15.2S202.3,410.8,202.3,419.1z"/>
	</g>
</g>
    <g>
	<g>
		<g>
			<path class="st0" d="M273.9,486.7c-0.7,0.5-1.6,1.1-2.3,1.6s-1.6,1-2.4,1.5c-0.8,0.4-1.6,1-2.4,1.4s-1.7,1-2.4,1.4l0,0
				C267.5,490.5,270.8,488.6,273.9,486.7L273.9,486.7z"/>
		</g>
	</g>
        <g>
		<g>
			<path class="st0" d="M254.9,479.1c0.7-0.5,1.5-1,2.2-1.5c0.7-0.4,1.5-1,2.2-1.4s1.5-0.8,2.2-1.3c0.7-0.4,1.5-0.8,2.3-1.3l0,0
				C261,475.5,258,477.3,254.9,479.1L254.9,479.1z"/>
		</g>
	</g>
        <g>
		<g>
			<path class="st0" d="M264,465.2c-9.5,0-17.3,7.7-17.3,17.3s7.7,17.3,17.3,17.3s17.3-7.7,17.3-17.3S273.5,465.2,264,465.2z
				 M279.1,482.5c0,8.3-6.8,15.1-15.1,15.1c-8.3,0-15.1-6.8-15.1-15.1s6.8-15.2,15.1-15.2C272.4,467.3,279.1,474.2,279.1,482.5z"/>
		</g>
	</g>
        <g>
		<g>
			<g>
				<path class="st0" d="M253,489.1c3.5-2.4,7.2-4.6,10.8-6.9c3.7-2.1,7.4-4.3,11.2-6.3c-3.5,2.4-7.2,4.6-10.8,6.9
					C260.5,484.9,256.8,487.2,253,489.1z"/>
			</g>
		</g>
            <g>
			<g>
				<path class="st0" d="M273.3,481.3c-1.2,1-2.2,1.8-3.5,2.5c-1.2,0.8-2.4,1.6-3.6,2.3c-1.3,0.7-2.4,1.5-3.7,2.1
					c-1.3,0.6-2.5,1.3-3.9,1.8v0C263.5,487,268.4,484.2,273.3,481.3L273.3,481.3z"/>
			</g>
		</g>
            <g>
			<g>
				<path class="st0" d="M254.7,483.7c1.2-1,2.2-1.8,3.5-2.5c1.2-0.8,2.4-1.6,3.6-2.3c1.3-0.7,2.4-1.5,3.7-2.1
					c1.3-0.6,2.5-1.3,3.9-1.8v0.1C264.6,477.9,259.7,480.8,254.7,483.7L254.7,483.7z"/>
			</g>
		</g>
	</g>
</g>
    <polygon class="st2" points="67.3,428.8 56.7,419.1 20.2,461.4 4,443.7 -5.8,454.3 12.2,470.8 12.2,470.8 21.4,479.1 21.4,479.1
	21.4,479.1 28.9,470.9 28.9,470.9 "/>
    <g>
	<g>
		<path class="st1" d="M93,70.5H54.3v-0.3H93c6.3,0,11.4-5.1,11.4-11.4V12c0-6.3-5.1-11.4-11.4-11.4H21C14.8,0.6,9.7,5.7,9.7,12
			v12.8H9.3V12C9.3,5.5,14.6,0.3,21,0.3h72c6.5,0,11.7,5.3,11.7,11.7v46.8C104.7,65.2,99.4,70.5,93,70.5z"/>
        <path class="st1" d="M93,70.7H54v-0.8h39c6.1,0,11.1-5,11.1-11.1V12c0-6.1-5-11.1-11.1-11.1H21c-6.1,0-11.1,5-11.1,11.1v13.1H9.1
			V12c0-6.6,5.4-12,12-12H93c6.6,0,12,5.4,12,12v46.8C104.9,65.3,99.6,70.7,93,70.7z"/>
	</g>
</g>
    <g>
	<rect x="9.5" y="10.6" class="st1" width="95" height="0.3"/>
</g>
    <g>
	<rect x="9.5" y="15.2" class="st1" width="95" height="0.3"/>
</g>
    <g>
	<path class="st1" d="M89.6,65.7c-2.9,0-5.7-1.4-7.5-3.7c-1.8,2.3-4.5,3.7-7.5,3.7c-5.2,0-9.3-4.2-9.3-9.3c0-5.2,4.2-9.3,9.3-9.3
		c2.9,0,5.7,1.4,7.5,3.7c1.8-2.3,4.5-3.7,7.5-3.7c5.2,0,9.3,4.2,9.3,9.3S94.8,65.7,89.6,65.7z M82.1,61.4l0.1,0.2
		c1.7,2.4,4.4,3.8,7.3,3.8c5,0,9-4,9-9s-4-9-9-9c-2.9,0-5.6,1.4-7.3,3.8l-0.1,0.2L82,51.1c-1.7-2.4-4.4-3.8-7.3-3.8c-5,0-9,4-9,9
		s4,9,9,9c2.9,0,5.6-1.4,7.3-3.8L82.1,61.4z"/>
</g>
    <g>
	<g>
		<g>
			<g>
				<path class="st0" d="M95.4,58.6c-0.4,0.3-1,0.6-1.4,1c-0.4,0.3-1,0.6-1.5,0.9c-0.5,0.3-1,0.6-1.5,0.8c-0.5,0.3-1,0.6-1.5,0.8
					l0,0C91.5,60.9,93.5,59.7,95.4,58.6L95.4,58.6z"/>
			</g>
		</g>
	</g>
        <g>
		<g>
			<g>
				<path class="st0" d="M83.9,54c0.4-0.3,0.9-0.6,1.3-0.9c0.4-0.3,0.9-0.6,1.3-0.8c0.4-0.3,0.9-0.5,1.3-0.8s0.9-0.5,1.4-0.8l0,0
					C87.6,51.9,85.8,52.9,83.9,54L83.9,54z"/>
			</g>
		</g>
	</g>
        <g>
		<g>
			<g>
				<g>
					<path class="st0" d="M82.8,60c2.1-1.5,4.3-2.8,6.5-4.1s4.5-2.6,6.7-3.8c-2.1,1.5-4.3,2.8-6.5,4.1S85.1,58.9,82.8,60z"/>
				</g>
			</g>
		</g>
            <g>
			<g>
				<g>
					<path class="st0" d="M95,55.4c-0.7,0.6-1.3,1.1-2.1,1.5c-0.7,0.5-1.5,1-2.2,1.4c-0.8,0.4-1.5,0.9-2.2,1.3
						c-0.8,0.4-1.5,0.8-2.4,1.1v-0.1C89.1,58.8,92,57.1,95,55.4L95,55.4z"/>
				</g>
			</g>
		</g>
            <g>
			<g>
				<g>
					<path class="st0" d="M83.8,56.8c0.7-0.6,1.3-1.1,2.1-1.5c0.7-0.5,1.5-1,2.2-1.4c0.8-0.4,1.5-0.9,2.2-1.3s1.5-0.8,2.4-1.1v0.1
						C89.7,53.3,86.8,55,83.8,56.8L83.8,56.8z"/>
				</g>
			</g>
		</g>
	</g>
</g>
    <g>
	<path class="st1" d="M26.5,78.7C11.9,78.7,0,66.8,0,52.2s11.9-26.5,26.5-26.5S53,37.6,53,52.2S41.1,78.7,26.5,78.7z M26.5,26.1
		c-14.4,0-26,11.7-26,26s11.7,26,26,26c14.4,0,26-11.7,26-26S40.9,26.1,26.5,26.1z"/>
</g>
    <g>
	<path class="st0" d="M21.7,66.5L21.7,66.5L21.7,66.5l-4.8-4.4l0,0l-8.2-7.5l5.1-5.5l7.4,8.1L37.7,38l5.5,5L21.7,66.5z M18.1,62
		l3.5,3.2L41.9,43l-4.2-3.8L21.2,58.5l-7.4-8.1L10,54.5L18.1,62L18.1,62z"/>
</g>
    <rect x="-426.4" y="-618.4" class="st3" width="661.3" height="249.3"/>
    <g>
	<g>
		<g>
			<path class="st1" d="M185.9-303.9h-38.7v-0.3h38.7c6.3,0,11.4-5.1,11.4-11.4v-46.8c0-6.3-5.1-11.4-11.4-11.4H114
				c-6.3,0-11.4,5.1-11.4,11.4v12.8h-0.3v-12.8c0-6.5,5.3-11.7,11.7-11.7h71.9c6.5,0,11.7,5.3,11.7,11.7v46.8
				C197.6-309.1,192.4-303.9,185.9-303.9z"/>
            <path class="st1" d="M185.9-303.6H147v-0.8h38.9c6.1,0,11.1-5,11.1-11.1v-46.8c0-6.1-5-11.1-11.1-11.1H114
				c-6.1,0-11.1,5-11.1,11.1v13.1H102v-13.1c0-6.6,5.4-12,12-12h71.9c6.6,0,12,5.4,12,12v46.8C197.9-309,192.5-303.6,185.9-303.6z"
            />
		</g>
	</g>
        <g>
		<rect x="102.4" y="-363.7" class="st1" width="95" height="0.3"/>
	</g>
        <g>
		<rect x="102.4" y="-359.2" class="st1" width="95" height="0.3"/>
	</g>
        <g>
		<path class="st1" d="M182.5-308.6c-2.9,0-5.7-1.4-7.5-3.7c-1.8,2.3-4.5,3.7-7.5,3.7c-5.2,0-9.3-4.2-9.3-9.3c0-5.2,4.2-9.3,9.3-9.3
			c2.9,0,5.7,1.4,7.5,3.7c1.8-2.3,4.5-3.7,7.5-3.7c5.2,0,9.3,4.2,9.3,9.3C191.9-312.8,187.7-308.6,182.5-308.6z M175.1-312.9
			l0.1,0.2c1.7,2.4,4.4,3.8,7.3,3.8c5,0,9-4,9-9s-4-9-9-9c-2.9,0-5.6,1.4-7.3,3.8l-0.1,0.2l-0.1-0.2c-1.7-2.4-4.4-3.8-7.3-3.8
			c-5,0-9,4-9,9s4,9,9,9c2.9,0,5.6-1.4,7.3-3.8L175.1-312.9z"/>
	</g>
        <g>
		<g>
			<g>
				<g>
					<path class="st0" d="M188.3-315.7c-0.4,0.3-1,0.6-1.4,1c-0.4,0.3-1,0.6-1.5,0.9s-1,0.6-1.5,0.8c-0.5,0.3-1,0.6-1.5,0.8l0,0
						C184.5-313.4,186.4-314.6,188.3-315.7L188.3-315.7z"/>
				</g>
			</g>
		</g>
            <g>
			<g>
				<g>
					<path class="st0" d="M176.9-320.3c0.4-0.3,0.9-0.6,1.3-0.9c0.4-0.3,0.9-0.6,1.3-0.8c0.4-0.3,0.9-0.5,1.3-0.8
						c0.4-0.3,0.9-0.5,1.4-0.8l0,0C180.5-322.5,178.7-321.4,176.9-320.3L176.9-320.3z"/>
				</g>
			</g>
		</g>
            <g>
			<g>
				<g>
					<g>
						<path class="st0" d="M175.7-314.3c2.1-1.5,4.3-2.8,6.5-4.1c2.2-1.3,4.5-2.6,6.7-3.8c-2.1,1.5-4.3,2.8-6.5,4.1
							C180.3-316.8,178-315.5,175.7-314.3z"/>
					</g>
				</g>
			</g>
                <g>
				<g>
					<g>
						<path class="st0" d="M188-319c-0.7,0.6-1.3,1.1-2.1,1.5c-0.7,0.5-1.5,1-2.2,1.4c-0.8,0.4-1.5,0.9-2.2,1.3
							c-0.8,0.4-1.5,0.8-2.4,1.1v-0.1C182-315.5,185-317.3,188-319L188-319z"/>
					</g>
				</g>
			</g>
                <g>
				<g>
					<g>
						<path class="st0" d="M176.8-317.6c0.7-0.6,1.3-1.1,2.1-1.5c0.7-0.5,1.5-1,2.2-1.4c0.8-0.4,1.5-0.9,2.2-1.3
							c0.8-0.4,1.5-0.8,2.4-1.1v0.1C182.7-321.1,179.7-319.3,176.8-317.6L176.8-317.6z"/>
					</g>
				</g>
			</g>
		</g>
	</g>
        <g>
		<path class="st1" d="M119.4-295.6c-14.6,0-26.5-11.9-26.5-26.5s11.9-26.5,26.5-26.5s26.5,11.9,26.5,26.5S134.1-295.6,119.4-295.6z
			 M119.4-348.2c-14.4,0-26,11.7-26,26s11.7,26,26,26c14.4,0,26-11.7,26-26S133.8-348.2,119.4-348.2z"/>
	</g>
        <g>
		<path class="st0" d="M114.7-307.9L114.7-307.9L114.7-307.9l-4.8-4.4l0,0l-8.2-7.5l5.1-5.5l7.4,8.1l16.5-19.2l5.5,5L114.7-307.9z
			 M111-312.4l3.5,3.2l20.3-22.2l-4.2-3.8L114-315.9l-7.4-8.1l-3.8,4.1L111-312.4L111-312.4z"/>
	</g>
</g>
    <g>
	<g>
		<g>
			<path d="M830.1-216.3c-21.9,0-39.6-17.8-39.6-39.6c0-21.9,17.8-39.6,39.6-39.6s39.6,17.8,39.6,39.6
				C869.8-234.1,852-216.3,830.1-216.3z M830.1-294.9c-21.4,0-38.9,17.5-38.9,38.9s17.5,38.9,38.9,38.9S869-234.5,869-256
				C869-277.4,851.6-294.9,830.1-294.9z"/>
		</g>
	</g>
        <g>
		<g>
			<g>
				<path class="st0" d="M830.1-236.3c-2.2,0-4-1.8-4-4v-21.5c0-2.2,1.8-4,4-4s4,1.8,4,4v21.5C834.1-238,832.3-236.3,830.1-236.3z
					 M830.1-263.7c-1.1,0-2,0.9-2,2v21.5c0,1.1,0.9,2,2,2s2-0.9,2-2v-21.5C832.1-262.8,831.2-263.7,830.1-263.7z"/>
			</g>
		</g>
            <g>
			<g>
				<path class="st0" d="M830.1-267.8c-2.2,0-4-1.8-4-4s1.8-4,4-4s4,1.8,4,4C834.1-269.5,832.3-267.8,830.1-267.8z M830.1-273.7
					c-1.1,0-2,0.9-2,2s0.9,2,2,2s2-0.9,2-2S831.2-273.7,830.1-273.7z"/>
			</g>
		</g>
	</g>
        <g>
		<path d="M830.1-229.6c-14.6,0-26.4-11.8-26.4-26.4c0-14.6,11.8-26.4,26.4-26.4c14.6,0,26.4,11.8,26.4,26.4c0,2.9-0.8,5.6-1.6,8.2
			c-0.3,0.9-0.5,1.8-0.8,2.7c-1,3.9,0.6,13.8,0.6,13.9v0.3h-0.3c-0.1,0-6.6-0.5-9.3-0.1C841.8-230.5,833.5-229.6,830.1-229.6z
			 M830.1-281.9c-14.3,0-25.9,11.6-25.9,25.9s11.6,25.9,25.9,25.9c3.3,0,11.6-0.9,15-1.5c2.5-0.4,7.8,0,9.1,0.1
			c-0.3-1.8-1.5-10.2-0.5-13.8c0.2-0.9,0.5-1.8,0.8-2.7c0.8-2.6,1.5-5.2,1.5-8C856-270.3,844.4-281.9,830.1-281.9z"/>
	</g>
</g>
    <g>
	<g>
		<path class="st0" d="M42.5-318.5c-1.1-4.7-2.1-9.4-3.1-14.1s-2.1-9.4-3.1-14.1l-0.1-0.6h-0.6c-1.8,0.1-3.5,0.2-5.2,0.2l-0.4-3.3
			c-0.2-1.8-0.5-3.9-1.6-5.7c-1.2-1.8-3.2-3.1-5.4-3.3c-2.7-0.2-5.4,1.1-7.3,3.5c-1.5,1.9-2.4,4.6-2.5,7.6c0,0.5,0,1,0,1.5
			c-1.4,0.1-2.9,0.1-4.4,0.2H8.2L8-346c-1.3,9.6-3.5,19.2-6.5,28.4l-0.3,1h1c6.6-0.2,13.2-0.3,19.8-0.5s13.2-0.3,19.8-0.5h0.9
			L42.5-318.5z M14.6-348.2c0.1-2.7,0.9-5,2.2-6.8c1.5-1.9,3.8-3.1,6-2.9c1.7,0.1,3.4,1.2,4.3,2.6c0.9,1.5,1.2,3.4,1.4,5.1l0.4,3.2
			c-2.3,0-4.5,0-6.7,0c-2.5,0-5,0-7.6,0.1C14.5-347.3,14.5-347.8,14.6-348.2z M22-318.6c-6.3,0.2-12.5,0.3-18.7,0.5
			c2.8-8.8,4.9-17.9,6.1-27.1c1.3-0.1,2.5-0.1,3.7-0.1c0.1,1.6,0.3,3.2,0.6,4.8c0.1,0.4,0.4,0.6,0.7,0.6h0.1
			c0.4-0.1,0.7-0.4,0.6-0.8c-0.2-1.5-0.4-3.1-0.5-4.6c2.6-0.1,5.1-0.1,7.5-0.1c2.2,0,4.5,0,6.8,0l0.5,4.4c0,0.4,0.4,0.7,0.8,0.6
			c0.4,0,0.7-0.4,0.6-0.8l-0.5-4.3c1.5,0,3-0.1,4.5-0.2c1,4.5,2,9,3,13.5c1,4.4,1.9,8.8,2.9,13.2C34.6-318.9,28.3-318.7,22-318.6z"
        />
	</g>
        <g class="st4">
		<g>
			<g>
				<path class="st5" d="M13.1-324h2.8v0.5h-3.4v-8.2H13L13.1-324z"/>
			</g>
		</g>
            <g>
			<g>
				<path class="st5" d="M29.6-331.1h-2.8v3.6h2.4v0.5h-2.4v3.6h-0.5v-8.2h3.4L29.6-331.1z"/>
			</g>
		</g>
            <g>
			<g>
				<path class="st5" d="M34.4-331.7v0.5h-1.9v7.7H32v-7.7h-1.9v-0.5H34.4z"/>
			</g>
		</g>
            <g>
			<g>
				<g>
					<path class="st0" d="M20.3-331.9c-2.3,0-4.2,1.9-4.2,4.2c0,2.3,1.9,4.2,4.2,4.2s4.2-1.9,4.2-4.2S22.6-331.9,20.3-331.9z
						 M24-327.7c0,2-1.7,3.7-3.7,3.7s-3.7-1.7-3.7-3.7s1.7-3.7,3.7-3.7C22.3-331.4,24-329.7,24-327.7z"/>
				</g>
			</g>
                <g>
				<g>
					<g>
						<path class="st0" d="M22.7-326.7c-0.2,0.1-0.4,0.3-0.6,0.4s-0.4,0.2-0.6,0.4c-0.2,0.1-0.4,0.2-0.6,0.3
							c-0.2,0.1-0.4,0.2-0.6,0.3l0,0C21.2-325.7,21.9-326.2,22.7-326.7L22.7-326.7z"/>
					</g>
				</g>
                    <g>
					<g>
						<path class="st0" d="M18.1-328.5c0.2-0.1,0.4-0.2,0.5-0.3c0.2-0.1,0.4-0.2,0.5-0.3c0.2-0.1,0.4-0.2,0.5-0.3
							c0.2-0.1,0.4-0.2,0.6-0.3l0,0C19.6-329.4,18.8-329,18.1-328.5L18.1-328.5z"/>
					</g>
				</g>
                    <g>
					<g>
						<g>
							<path class="st0" d="M17.6-326.1c0.9-0.6,1.7-1.1,2.6-1.7c0.9-0.5,1.8-1.1,2.7-1.5c-0.9,0.6-1.7,1.1-2.6,1.7
								C19.5-327.1,18.6-326.6,17.6-326.1z"/>
						</g>
					</g>
                        <g>
						<g>
							<path class="st0" d="M22.6-328c-0.3,0.2-0.5,0.4-0.8,0.6s-0.6,0.4-0.9,0.6s-0.6,0.3-0.9,0.5s-0.6,0.3-0.9,0.4l0,0
								C20.2-326.6,21.4-327.3,22.6-328L22.6-328z"/>
						</g>
					</g>
                        <g>
						<g>
							<path class="st0" d="M18.1-327.4c0.3-0.2,0.5-0.4,0.8-0.6s0.6-0.4,0.9-0.6s0.6-0.3,0.9-0.5s0.6-0.3,0.9-0.4l0,0
								C20.4-328.8,19.3-328.1,18.1-327.4L18.1-327.4z"/>
						</g>
					</g>
				</g>
			</g>
		</g>
	</g>
        <g>
		<path class="st1" d="M70.8-296.6h-98c-1.4,0-2.5-1.1-2.5-2.5v-73.5c0-1.4,1.1-2.5,2.5-2.5h98c1.4,0,2.5,1.1,2.5,2.5v73.5
			C73.3-297.7,72.1-296.6,70.8-296.6z M-27.2-374.3c-1,0-1.8,0.8-1.8,1.8v73.5c0,1,0.8,1.8,1.8,1.8h98c1,0,1.8-0.8,1.8-1.8v-73.5
			c0-1-0.8-1.8-1.8-1.8H-27.2z"/>
	</g>
        <g>
		<path class="st1" d="M66.5-307.9h-89.2V-368h89.2V-307.9z M-22.1-308.4H66v-59.1h-88.2L-22.1-308.4L-22.1-308.4z"/>
	</g>
        <g>
		<rect x="-22.4" y="-305" class="st1" width="88.7" height="0.8"/>
	</g>
</g>
    <g>
	<rect x="-22.5" y="-302.6" width="0.2" height="3"/>
</g>
    <g>
	<rect x="-21.1" y="-302.6" width="0.2" height="3"/>
</g>
    <g>
	<rect x="-19.7" y="-302.6" width="0.2" height="3"/>
</g>
    <g>
	<rect x="-18.4" y="-302.6" width="0.2" height="3"/>
</g>
    <g>
	<rect x="-17" y="-302.6" width="0.2" height="3"/>
</g>
    <g>
	<g>
		<g>
			<path class="st0" d="M22.3-300.8l-0.1,0.1l-0.1,0.1l-0.1,0.1l-0.1,0.1l0,0C22-300.6,22.2-300.7,22.3-300.8L22.3-300.8z"/>
		</g>
	</g>
        <g>
		<g>
			<path class="st0" d="M21.3-301.2l0.1-0.1l0.1-0.1c0,0,0.1,0,0.1-0.1s0.1,0,0.1-0.1l0,0C21.6-301.4,21.4-301.3,21.3-301.2
				L21.3-301.2z"/>
		</g>
	</g>
        <g>
		<g>
			<path class="st0" d="M21.8-302c-0.5,0-1,0.4-1,1s0.4,1,1,1s1-0.4,1-1S22.3-302,21.8-302z M22.6-301c0,0.5-0.4,0.9-0.9,0.9
				s-0.9-0.4-0.9-0.9s0.4-0.9,0.9-0.9S22.6-301.5,22.6-301z"/>
		</g>
	</g>
        <g>
		<g>
			<g>
				<path class="st0" d="M21.1-300.7c0.2-0.1,0.4-0.3,0.6-0.4s0.4-0.2,0.6-0.4c-0.2,0.1-0.4,0.3-0.6,0.4
					C21.6-300.9,21.4-300.8,21.1-300.7z"/>
			</g>
		</g>
            <g>
			<g>
				<path class="st0" d="M22.3-301.1c-0.1,0.1-0.1,0.1-0.2,0.1s-0.1,0.1-0.2,0.1s-0.1,0.1-0.2,0.1s-0.1,0.1-0.2,0.1l0,0
					C21.7-300.8,22-300.9,22.3-301.1L22.3-301.1z"/>
			</g>
		</g>
            <g>
			<g>
				<path class="st0" d="M21.2-301c0.1-0.1,0.1-0.1,0.2-0.1s0.1-0.1,0.2-0.1s0.1-0.1,0.2-0.1s0.1-0.1,0.2-0.1l0,0
					C21.8-301.3,21.5-301.1,21.2-301L21.2-301z"/>
			</g>
		</g>
	</g>
</g>
    <g>
	<g>
		<g>
			<g>
				<g>
					<path class="st0" d="M535.6-319.2c-2.2,0-4-1.8-4-4v-21.5c0-2.2,1.8-4,4-4s4,1.8,4,4v21.5C539.5-321,537.8-319.2,535.6-319.2z
						 M535.6-346.7c-1.1,0-2,0.9-2,2v21.5c0,1.1,0.9,2,2,2s2-0.9,2-2v-21.5C537.5-345.8,536.7-346.7,535.6-346.7z"/>
				</g>
			</g>
		</g>
        <g>
			<g>
				<g>
					<path class="st0" d="M535.6-350.7c-2.2,0-4-1.8-4-4s1.8-4,4-4s4,1.8,4,4C539.5-352.5,537.8-350.7,535.6-350.7z M535.6-356.7
						c-1.1,0-2,0.9-2,2s0.9,2,2,2s2-0.9,2-2S536.7-356.7,535.6-356.7z"/>
				</g>
			</g>
		</g>
	</g>
        <g>
		<g>
			<path class="st1" d="M535.6-312.6c-14.6,0-26.4-11.8-26.4-26.4s11.8-26.4,26.4-26.4S562-353.6,562-339c0,2.9-0.8,5.6-1.6,8.2
				c-0.3,0.9-0.5,1.8-0.8,2.7c-1,3.9,0.6,13.8,0.6,13.9v0.3h-0.3c-0.1,0-6.6-0.5-9.3-0.1C547.2-313.5,538.9-312.6,535.6-312.6z
				 M535.6-364.9c-14.3,0-25.9,11.6-25.9,25.9s11.6,25.9,25.9,25.9c3.3,0,11.6-0.9,15-1.5c2.5-0.4,7.8,0,9.1,0.1
				c-0.3-1.8-1.5-10.2-0.5-13.8c0.2-0.9,0.5-1.8,0.8-2.7c0.8-2.6,1.5-5.2,1.5-8C561.5-353.2,549.8-364.9,535.6-364.9z"/>
		</g>
	</g>
        <g>
		<path class="st1" d="M562.9-299.2h-54.6c-6.9,0-12.5-5.6-12.5-12.5v-54.6c0-6.9,5.6-12.5,12.5-12.5h54.6c6.9,0,12.5,5.6,12.5,12.5
			v54.6C575.4-304.8,569.8-299.2,562.9-299.2z M508.3-377.8c-6.3,0-11.5,5.2-11.5,11.5v54.6c0,6.3,5.2,11.5,11.5,11.5h54.6
			c6.3,0,11.5-5.2,11.5-11.5v-54.6c0-6.3-5.2-11.5-11.5-11.5H508.3z"/>
	</g>
</g>
    <g>
	<g>
		<path class="st0" d="M240.6-360.2l-26,1.8l26,1.8l0,0V-360.2L240.6-360.2z"/>
	</g>
        <g>
		<path class="st0" d="M240.3-353.4l-17.3,1.8l16.7,1.8l0,0L240.3-353.4L240.3-353.4z"/>
	</g>
        <g>
		<g>
			<path class="st0" d="M283.6-353.7c-1.8-3.6-4.5-6.6-7.5-8.7s-6.6-3.9-10.2-4.8c-0.9,0-1.8-0.3-2.7-0.3c-0.3,0-0.9,0-1.2,0h-0.9
				c-0.3,0-0.3,0-0.9,0h-5.4h-11l-42.7,0.6l43,0.9l10.7,0.3h5.4c0.3,0,0.3,0,0.9,0h0.3c0.3,0,0.9,0,1.2,0c0.9,0,1.8,0.3,2.7,0.3
				c3,0.9,6.3,2.7,8.7,4.8c2.4,2.1,4.5,4.8,6.3,7.8c1.2,3,2.1,6.3,1.8,9.6c0,3-0.9,6.6-2.7,9.3c-3,5.7-8.7,10.2-14.9,11.3
				c-3,0.3-6.3,0.3-9.3-0.3c-3-0.9-5.7-2.1-8.4-4.5c-2.1-2.1-4.5-4.5-5.7-7.5c-0.3-0.9-0.9-2.1-1.2-3.9c0-0.3,0-0.9,0-1.2
				s0-0.9,0-1.2s0-0.9,0-1.2v-0.3v-0.6v-0.3c0,0,0,0,0-0.3c0,0,0,0,0-0.3h-7.8v0.3l0,0l0,0l0,0v0.3v0.9c0,0.3,0,0.9,0,1.8
				c0,0.3,0,0.9,0.3,1.2c0,0.3,0,0.9,0.3,1.2c0.3,2.1,1.2,3.9,2.1,5.7c1.8,3.6,4.5,6.9,7.8,9.3c3,2.7,6.9,4.5,11,5.4
				c3.9,0.9,7.8,0.9,11.9,0c7.8-1.8,14.3-7.5,17.9-14.3c1.8-3.6,2.7-7.5,2.7-11.3C286.2-346.8,285.3-350.7,283.6-353.7z"/>
		</g>
	</g>
        <g>
		<g>
			<path class="st1" d="M243.7-315.4c-5.2,0-10,5-10,10.3s4.8,10.3,10,10.3s10-5,10-10.3S249.3-315.4,243.7-315.4z M243.7-295.9
				c-4.8,0-8.8-4.1-8.8-9.1c0-0.1,0-0.2,0-0.3c0-0.1,0-0.1,0-0.2s0-0.2,0.1-0.3c0.4-4.6,4.2-8.3,8.8-8.3c5.2,0,8.8,3.7,8.8,9.1
				C252.5-300.1,248.5-295.9,243.7-295.9z"/>
		</g>
	</g>
        <g>
		<g>
			<path class="st1" d="M321-315.5c-5.2,0-10,5-10,10.3c0,5.4,4.8,10.3,10,10.3s10-5,10-10.3C331-310.6,326.6-315.5,321-315.5z
				 M329.8-305.2c0,5-4,9.1-8.8,9.1s-8.8-4.1-8.8-9.1s4-9.1,8.8-9.1C326.2-314.3,329.8-310.6,329.8-305.2z"/>
		</g>
	</g>
        <g>
		<g>
			<g>
				<g>
					<path class="st1" d="M234.2-304.7h-15c-1.4,0-2.6-1.2-2.6-2.6c-0.1-9.7-0.2-57.7-0.2-59c0-3.5,2.9-6.4,6.5-6.4l62.3-0.5
						c0,0,0,0,0.1,0c1.6,0,3.1,0.6,4.3,1.8c1.2,1.1,1.8,2.7,1.8,4.3c0.2,29,0.3,50.3,0.3,61.6v0.5l-38.9,0.3v-1l37.9-0.3
						c0-11.4-0.1-32.5-0.3-61.1c0-1.4-0.5-2.6-1.5-3.6s-2.2-1.5-3.6-1.5l-62.3,0.5c-3,0-5.4,2.5-5.5,5.4c0,1.2,0.1,49.2,0.2,58.9
						c0,0.9,0.7,1.6,1.6,1.6h15L234.2-304.7L234.2-304.7z"/>
				</g>
			</g>
            <g>
				<path class="st1" d="M331-333.3l-8.5-17.9c-0.8-1.7-2.6-2.9-4.5-2.9h-27.5v-1H318c2.3,0,4.4,1.3,5.4,3.4l8.5,17.9L331-333.3z"/>
			</g>
		</g>
            <g>
			<path class="st1" d="M346.4-304.8h-0.1c-4.5-0.2-9.5-0.4-15.6-0.4v-1c6.1,0,11.1,0.1,15.6,0.4c0.3,0,0.6-0.1,0.8-0.3
				c0.2-0.2,0.3-0.5,0.3-0.8l-0.5-17.4c0-0.4-0.2-0.7-0.6-0.9l-15.2-7.8l0.5-0.9l15.2,7.8c0.7,0.3,1.1,1,1.1,1.8l0.5,17.4
				c0,0.6-0.2,1.1-0.6,1.5C347.5-305,347-304.8,346.4-304.8z"/>
		</g>
            <g>
			<rect x="290.5" y="-306.1" class="st1" width="21.7" height="1"/>
		</g>
	</g>
        <g>
		<path class="st1" d="M318.3-333.6h-19.6c-1,0-1.8-0.8-1.8-1.9v-10.1c0-1,0.8-1.9,1.8-1.9h15.4c0.7,0,1.4,0.4,1.7,1.1l4.2,10.2
			c0.2,0.6,0.2,1.3-0.2,1.8C319.5-333.9,318.9-333.6,318.3-333.6z M298.8-347c-0.7,0-1.3,0.6-1.3,1.4v10.1c0,0.8,0.6,1.4,1.3,1.4
			h19.6c0.4,0,0.8-0.2,1.1-0.6c0.3-0.4,0.3-0.9,0.1-1.3l-4.2-10.2c-0.2-0.5-0.7-0.8-1.2-0.8H298.8z"/>
	</g>
        <g>
		<rect x="336.4" y="-314" class="st1" width="11.3" height="1"/>
	</g>
        <g>
		<rect x="297.2" y="-325.1" class="st1" width="4.2" height="1"/>
	</g>
        <g>
		<g>
			<path class="st0" d="M257.8-333.7L257.8-333.7L257.8-333.7l-3.8-3.4l0,0l-6.5-5.9l4-4.4l5.8,6.4l13-15.2l4.4,4L257.8-333.7z
				 M254.9-337.3l2.8,2.6l16-17.5l-3.3-3L257.3-340l-5.8-6.4l-3,3.3L254.9-337.3L254.9-337.3z"/>
		</g>
	</g>
        <g>
		<g>
			<g>
				<g>
					<g>
						<path class="st0" d="M249.7-302.9c-0.4,0.3-1,0.6-1.4,1c-0.4,0.3-1,0.6-1.5,0.9s-1,0.6-1.5,0.8c-0.5,0.3-1,0.6-1.5,0.8l0,0
							C245.8-300.6,247.8-301.7,249.7-302.9L249.7-302.9z"/>
					</g>
				</g>
			</g>
		</g>
            <g>
			<g>
				<g>
					<g>
						<path class="st0" d="M238.2-307.4c0.4-0.3,0.9-0.6,1.3-0.9c0.4-0.3,0.9-0.6,1.3-0.8c0.4-0.3,0.9-0.5,1.3-0.8
							c0.4-0.3,0.9-0.5,1.4-0.8l0,0C241.9-309.6,240.1-308.5,238.2-307.4L238.2-307.4z"/>
					</g>
				</g>
			</g>
		</g>
            <g>
			<g>
				<g>
					<g>
						<g>
							<path class="st0" d="M237.1-301.5c2.1-1.5,4.3-2.8,6.5-4.1c2.2-1.3,4.5-2.6,6.7-3.8c-2.1,1.5-4.3,2.8-6.5,4.1
								C241.6-303.9,239.4-302.6,237.1-301.5z"/>
						</g>
					</g>
				</g>
			</g>
                <g>
				<g>
					<g>
						<g>
							<path class="st0" d="M249.3-306.1c-0.7,0.6-1.3,1.1-2.1,1.5c-0.7,0.5-1.5,1-2.2,1.4c-0.8,0.4-1.5,0.9-2.2,1.3
								c-0.8,0.4-1.5,0.8-2.4,1.1v-0.1C243.4-302.7,246.3-304.4,249.3-306.1L249.3-306.1z"/>
						</g>
					</g>
				</g>
			</g>
                <g>
				<g>
					<g>
						<g>
							<path class="st0" d="M238.1-304.7c0.7-0.6,1.3-1.1,2.1-1.5c0.7-0.5,1.5-1,2.2-1.4c0.8-0.4,1.5-0.9,2.2-1.3
								c0.8-0.4,1.5-0.8,2.4-1.1v0.1C244-308.2,241.1-306.4,238.1-304.7L238.1-304.7z"/>
						</g>
					</g>
				</g>
			</g>
		</g>
	</g>
        <g>
		<g>
			<g>
				<g>
					<g>
						<path class="st0" d="M327-302.5c-0.4,0.3-1,0.6-1.4,1c-0.4,0.3-1,0.6-1.5,0.9s-1,0.6-1.5,0.8c-0.5,0.3-1,0.6-1.5,0.8l0,0
							C323.1-300.3,325.1-301.4,327-302.5L327-302.5z"/>
					</g>
				</g>
			</g>
		</g>
            <g>
			<g>
				<g>
					<g>
						<path class="st0" d="M315.5-307.1c0.4-0.3,0.9-0.6,1.3-0.9s0.9-0.6,1.3-0.8c0.4-0.3,0.9-0.5,1.3-0.8s0.9-0.5,1.4-0.8l0,0
							C319.2-309.3,317.4-308.2,315.5-307.1L315.5-307.1z"/>
					</g>
				</g>
			</g>
		</g>
            <g>
			<g>
				<g>
					<g>
						<g>
							<path class="st0" d="M314.4-301.1c2.1-1.5,4.3-2.8,6.5-4.1c2.2-1.3,4.5-2.6,6.7-3.8c-2.1,1.5-4.3,2.8-6.5,4.1
								C318.9-303.6,316.7-302.3,314.4-301.1z"/>
						</g>
					</g>
				</g>
			</g>
                <g>
				<g>
					<g>
						<g>
							<path class="st0" d="M326.6-305.8c-0.7,0.6-1.3,1.1-2.1,1.5c-0.7,0.5-1.5,1-2.2,1.4c-0.8,0.4-1.5,0.9-2.2,1.3
								c-0.8,0.4-1.5,0.8-2.4,1.1v-0.1C320.7-302.4,323.6-304.1,326.6-305.8L326.6-305.8z"/>
						</g>
					</g>
				</g>
			</g>
                <g>
				<g>
					<g>
						<g>
							<path class="st0" d="M315.4-304.4c0.7-0.6,1.3-1.1,2.1-1.5c0.7-0.5,1.5-1,2.2-1.4c0.8-0.4,1.5-0.9,2.2-1.3
								c0.8-0.4,1.5-0.8,2.4-1.1v0.1C321.3-307.9,318.4-306.1,315.4-304.4L315.4-304.4z"/>
						</g>
					</g>
				</g>
			</g>
		</g>
	</g>
</g>
    <g>
	<rect x="616.1" y="-703.6" class="st2" width="112" height="78.5"/>
        <rect x="625.6" y="-694.6" class="st6" width="92.9" height="60.5"/>
        <polyline class="st6" points="718.5,-652.2 694.5,-666.1 678.3,-655.9 658.8,-676.3 625.6,-650.6 	"/>
</g>
    <g>
	<g>
		<g>
			<path class="st0" d="M693.4-681.2c-0.3,0.2-0.6,0.4-0.8,0.6s-0.6,0.3-0.9,0.5c-0.3,0.2-0.6,0.3-0.9,0.5c-0.3,0.2-0.6,0.3-0.9,0.5
				l0,0C691.1-679.9,692.3-680.5,693.4-681.2L693.4-681.2z"/>
		</g>
	</g>
        <g>
		<g>
			<path class="st0" d="M686.6-684c0.3-0.2,0.5-0.3,0.8-0.5s0.5-0.3,0.8-0.5s0.5-0.3,0.8-0.5s0.5-0.3,0.8-0.5l0,0
				C688.8-685.2,687.7-684.6,686.6-684L686.6-684z"/>
		</g>
	</g>
        <g>
		<g>
			<path class="st0" d="M689.9-689c-3.4,0-6.2,2.8-6.2,6.2s2.8,6.2,6.2,6.2s6.2-2.8,6.2-6.2S693.3-689,689.9-689z M695.3-682.7
				c0,3-2.4,5.4-5.4,5.4s-5.4-2.4-5.4-5.4s2.4-5.5,5.4-5.5S695.3-685.7,695.3-682.7z"/>
		</g>
	</g>
        <g>
		<g>
			<g>
				<path class="st0" d="M685.9-680.4c1.3-0.9,2.6-1.7,3.9-2.5c1.3-0.8,2.7-1.6,4-2.3c-1.3,0.9-2.6,1.7-3.9,2.5
					S687.3-681.1,685.9-680.4z"/>
			</g>
		</g>
            <g>
			<g>
				<path class="st0" d="M693.2-683.2c-0.4,0.3-0.8,0.6-1.3,0.9c-0.4,0.3-0.9,0.6-1.3,0.8c-0.5,0.3-0.9,0.5-1.3,0.8
					s-0.9,0.5-1.4,0.6l0,0C689.7-681.1,691.4-682.1,693.2-683.2L693.2-683.2z"/>
			</g>
		</g>
            <g>
			<g>
				<path class="st0" d="M686.5-682.3c0.4-0.3,0.8-0.6,1.3-0.9c0.4-0.3,0.9-0.6,1.3-0.8c0.5-0.3,0.9-0.5,1.3-0.8
					c0.5-0.2,0.9-0.5,1.4-0.6l0,0C690-684.4,688.3-683.3,686.5-682.3L686.5-682.3z"/>
			</g>
		</g>
	</g>
</g>
    <g>
	<g>
		<g>
			<g>
				<path class="st1" d="M473.6-299.7H362.1v-78.5h111.6v78.5H473.6z M363.1-300.7h109.6v-76.5H363.1V-300.7z"/>
			</g>
            <g>
				<path class="st1" d="M463.9-308.8h-92.2v-60.3h92.2L463.9-308.8L463.9-308.8z M372.2-309.3h91.2v-59.3h-91.2V-309.3z"/>
			</g>
            <g>
				<polygon class="st1" points="372.1,-325.2 371.8,-325.6 404.7,-351.1 404.9,-351 424.1,-331 440,-341 440.2,-340.9
					463.8,-327.2 463.6,-326.7 440,-340.4 424,-330.3 404.7,-350.5 				"/>
			</g>
		</g>
	</g>
        <g>
		<g>
			<g>
				<g>
					<path class="st0" d="M459.2-355.9c-0.3,0.2-0.6,0.4-0.8,0.6c-0.3,0.2-0.6,0.3-0.9,0.5s-0.6,0.3-0.9,0.5s-0.6,0.3-0.9,0.5l0,0
						C456.9-354.5,458.1-355.2,459.2-355.9L459.2-355.9z"/>
				</g>
			</g>
		</g>
            <g>
			<g>
				<g>
					<path class="st0" d="M452.4-358.6c0.3-0.2,0.5-0.3,0.8-0.5s0.5-0.3,0.8-0.5s0.5-0.3,0.8-0.5s0.5-0.3,0.8-0.5l0,0
						C454.5-359.9,453.5-359.2,452.4-358.6L452.4-358.6z"/>
				</g>
			</g>
		</g>
            <g>
			<g>
				<g>
					<path class="st0" d="M455.6-363.6c-3.4,0-6.2,2.8-6.2,6.2s2.8,6.2,6.2,6.2c3.5,0,6.2-2.8,6.2-6.2S459-363.6,455.6-363.6z
						 M461.1-357.4c0,3-2.4,5.4-5.4,5.4s-5.4-2.4-5.4-5.4s2.4-5.5,5.4-5.5C458.6-362.8,461.1-360.4,461.1-357.4z"/>
				</g>
			</g>
		</g>
            <g>
			<g>
				<g>
					<g>
						<path class="st0" d="M451.7-355c1.3-0.9,2.6-1.7,3.9-2.5s2.7-1.6,4-2.3c-1.3,0.9-2.6,1.7-3.9,2.5
							C454.4-356.5,453-355.7,451.7-355z"/>
					</g>
				</g>
			</g>
                <g>
				<g>
					<g>
						<path class="st0" d="M459-357.8c-0.4,0.3-0.8,0.6-1.3,0.9c-0.4,0.3-0.9,0.6-1.3,0.8c-0.5,0.3-0.9,0.5-1.3,0.8
							c-0.5,0.2-0.9,0.5-1.4,0.6l0,0C455.4-355.7,457.2-356.8,459-357.8L459-357.8z"/>
					</g>
				</g>
			</g>
                <g>
				<g>
					<g>
						<path class="st0" d="M452.3-357c0.4-0.3,0.8-0.6,1.3-0.9c0.4-0.3,0.9-0.6,1.3-0.8c0.5-0.3,0.9-0.5,1.3-0.8
							c0.5-0.2,0.9-0.5,1.4-0.6l0,0C455.8-359,454.1-358,452.3-357L452.3-357z"/>
					</g>
				</g>
			</g>
		</g>
	</g>
</g>
</svg>
