<?xml version="1.0" encoding="utf-8"?>
<!-- Generator: Adobe Illustrator 25.0.1, SVG Export Plug-In . SVG Version: 6.00 Build 0)  -->
<svg version="1.1" id="Слой_1" xmlns="http://www.w3.org/2000/svg" xmlns:xlink="http://www.w3.org/1999/xlink" x="0px" y="0px"
     viewBox="0 0 132.4 79.4" style="enable-background:new 0 0 132.4 79.4;" xml:space="preserve">
<style type="text/css">
	.st0{fill:#0097AE;}
	.st1{fill:#FFFFFF;}
	.st2{fill:none;stroke:#000000;stroke-miterlimit:10;}
	.st3{opacity:0.69;enable-background:new    ;}
	.st4{opacity:0.6;}
	.st5{fill:#1D1D1B;}
	.st6{fill:none;stroke:#000000;stroke-width:0.5;stroke-miterlimit:10;}
	.st7{fill:none;stroke:#E62A3E;stroke-miterlimit:10;}
</style>
    <g>
	<path class="st0" d="M407.1,412.2c0,32.2-26.8,59.1-59.8,59.1c-32.2,0-59.8-27.6-59.1-59.8c0.8-33,26.8-59.8,59.8-59.8
		C380.2,352.4,407.1,380,407.1,412.2z M377.1,381.5c-13.8,14.6-27.6,28.4-43,43.7c-5.4-6.9-10.7-13-16.1-19.2
		c-4.6,4.6-7.7,8.4-11.5,12.3c10,9.2,19.9,19.2,29.1,28.4c17.6-17.6,35.3-35.3,52.9-53.7C385.6,389.9,381.7,386.1,377.1,381.5z"/>
        <path class="st1" d="M377.1,381.5c4.6,4.6,8.4,8.4,11.5,11.5c-18.4,18.4-36.1,36.1-52.9,53.7c-9.2-9.2-19.2-19.2-28.4-28.4
		c3.1-3.8,6.9-6.9,11.5-12.3c5.4,6.1,10.7,12.3,16.1,19.2C349.5,409.9,363.3,396.1,377.1,381.5z"/>
</g>
    <path d="M539.7,257.8H382.8c-14.3,0-26,11.7-26,26v5.9v33.9h9.8h78.8h111.3v61.9c0,9.1-7.2,16.3-16.3,16.3h-95.1v9.8h94.4
	c14.3,0,26-11.7,26-26v-61.9v-33.9v-5.9C565.8,269.5,554,257.8,539.7,257.8z M556,313.8H365.9v-14.3H556L556,313.8L556,313.8z
	 M556,289.7H365.9v-5.9c0-9.1,7.2-16.3,16.3-16.3h157.5c9.1,0,16.3,7.2,16.3,16.3V289.7z"/>
    <g>
	<path d="M520.8,394.5c-4.6,0-8.5-1.3-11.7-3.9c-3.3,2.6-7.8,3.9-11.7,3.9c-11.1,0-20.2-9.1-20.2-20.2s9.1-20.2,20.2-20.2
		c4.6,0,8.5,1.3,11.7,3.9c3.3-2.6,7.8-3.9,11.7-3.9c11.1,0,20.2,9.1,20.2,20.2C541.7,385.4,532.5,394.5,520.8,394.5z M509.1,377.6
		l3.3,3.9c2,2.6,5.2,3.9,8.5,3.9c6.5,0,11.7-5.2,11.7-11.7s-5.2-11.7-11.7-11.7c-3.3,0-6.5,1.3-8.5,3.9l-3.3,3.9l-3.3-3.9
		c-2-2.6-5.2-3.9-8.5-3.9c-6.5,0-11.7,5.2-11.7,11.7s5.2,11.7,11.7,11.7c3.3,0,6.5-1.3,8.5-3.9L509.1,377.6z"/>
</g>
    <g>
	<path d="M504.5,377.6c-0.7,0.7-1.3,0.7-2,1.3s-1.3,0.7-2,1.3c-0.7,0.7-1.3,0.7-2,1.3s-1.3,0.7-2,1.3l0,0
		C499.3,380.2,501.9,378.9,504.5,377.6L504.5,377.6z"/>
</g>
    <g>
	<path d="M489.6,371.1c0.7-0.7,1.3-0.7,2-1.3c0.7-0.7,1.3-0.7,2-1.3s1.3-0.7,2-1.3c0.7-0.7,1.3-0.7,2-1.3l0,0
		C494.1,368.5,492.2,369.8,489.6,371.1L489.6,371.1z"/>
</g>
    <g>
	<g>
		<path d="M488.3,379.5c2.6-2,5.9-3.9,8.5-5.2c2.6-2,5.9-3.3,9.1-5.2c-2.6,2-5.9,3.9-8.5,5.2C494.1,376.3,490.9,377.6,488.3,379.5z"
        />
	</g>
        <g>
		<path d="M503.9,373c-0.7,0.7-2,1.3-2.6,2c-0.7,0.7-2,1.3-2.6,2c-1.3,0.7-2,1.3-3.3,2s-2,1.3-3.3,1.3l0,0
			C496.1,377.6,500,375.6,503.9,373L503.9,373z"/>
	</g>
        <g>
		<path d="M489.6,375c0.7-0.7,2-1.3,2.6-2c0.7-0.7,2-1.3,2.6-2c1.3-0.7,2-1.3,3.3-2s2-1.3,3.3-1.3l0,0
			C497.4,370.4,493.5,373,489.6,375L489.6,375z"/>
	</g>
</g>
    <g>
	<path d="M528.6,377.6c-0.7,0.7-1.3,0.7-2,1.3c-0.7,0.7-1.3,0.7-2,1.3c-0.7,0.7-1.3,0.7-2,1.3s-1.3,0.7-2,1.3l0,0
		C523.4,380.2,526,378.9,528.6,377.6L528.6,377.6z"/>
</g>
    <g>
	<path d="M513.7,371.1c0.7-0.7,1.3-0.7,2-1.3c0.7-0.7,1.3-0.7,2-1.3s1.3-0.7,2-1.3c0.7-0.7,1.3-0.7,2-1.3l0,0
		C518.2,368.5,515.6,369.8,513.7,371.1L513.7,371.1z"/>
</g>
    <g>
	<g>
		<path d="M511.7,379.5c2.6-2,5.9-3.9,8.5-5.2c2.6-2,5.9-3.3,9.1-5.2c-2.6,2-5.9,3.9-8.5,5.2C518.2,376.3,515,377.6,511.7,379.5z"/>
	</g>
        <g>
		<path d="M528,373c-0.7,0.7-2,1.3-2.6,2c-0.7,0.7-2,1.3-2.6,2c-1.3,0.7-2,1.3-3.3,2s-2,1.3-3.3,1.3l0,0
			C520.2,377.6,524.1,375.6,528,373L528,373z"/>
	</g>
        <g>
		<path d="M513,375c0.7-0.7,2-1.3,2.6-2c0.7-0.7,2-1.3,2.6-2c1.3-0.7,2-1.3,3.3-2s2-1.3,3.3-1.3l0,0C520.8,370.4,517.6,373,513,375
			L513,375z"/>
	</g>
</g>
    <g>
	<g>
		<path class="st0" d="M200.9,402.1c-9.5,0-17.3,7.7-17.3,17.3s7.7,17.3,17.3,17.3s17.3-7.7,17.3-17.3S210.4,402.1,200.9,402.1z
			 M216,419.4c0,8.3-6.8,15.1-15.1,15.1s-15.1-6.8-15.1-15.1s6.8-15.2,15.1-15.2S216,411.1,216,419.4z"/>
	</g>
</g>
    <g>
	<g>
		<g>
			<path class="st0" d="M287.6,487c-0.7,0.5-1.6,1.1-2.3,1.6s-1.6,1-2.4,1.5c-0.8,0.4-1.6,1-2.4,1.4s-1.7,1-2.4,1.4l0,0
				C281.2,490.8,284.5,488.9,287.6,487L287.6,487z"/>
		</g>
	</g>
        <g>
		<g>
			<path class="st0" d="M268.6,479.4c0.7-0.5,1.5-1,2.2-1.5c0.7-0.4,1.5-1,2.2-1.4s1.5-0.8,2.2-1.3c0.7-0.4,1.5-0.8,2.3-1.3l0,0
				C274.7,475.8,271.7,477.6,268.6,479.4L268.6,479.4z"/>
		</g>
	</g>
        <g>
		<g>
			<path class="st0" d="M277.7,465.5c-9.5,0-17.3,7.7-17.3,17.3s7.7,17.3,17.3,17.3s17.3-7.7,17.3-17.3S287.2,465.5,277.7,465.5z
				 M292.8,482.8c0,8.3-6.8,15.1-15.1,15.1s-15.1-6.8-15.1-15.1s6.8-15.2,15.1-15.2C286.1,467.6,292.8,474.5,292.8,482.8z"/>
		</g>
	</g>
        <g>
		<g>
			<g>
				<path class="st0" d="M266.7,489.4c3.5-2.4,7.2-4.6,10.8-6.9c3.7-2.1,7.4-4.3,11.2-6.3c-3.5,2.4-7.2,4.6-10.8,6.9
					C274.2,485.2,270.5,487.5,266.7,489.4z"/>
			</g>
		</g>
            <g>
			<g>
				<path class="st0" d="M287,481.6c-1.2,1-2.2,1.8-3.5,2.5c-1.2,0.8-2.4,1.6-3.6,2.3c-1.3,0.7-2.4,1.5-3.7,2.1
					c-1.3,0.6-2.5,1.3-3.9,1.8l0,0C277.2,487.3,282.1,484.5,287,481.6L287,481.6z"/>
			</g>
		</g>
            <g>
			<g>
				<path class="st0" d="M268.4,484c1.2-1,2.2-1.8,3.5-2.5c1.2-0.8,2.4-1.6,3.6-2.3c1.3-0.7,2.4-1.5,3.7-2.1
					c1.3-0.6,2.5-1.3,3.9-1.8v0.1C278.3,478.2,273.4,481.1,268.4,484L268.4,484z"/>
			</g>
		</g>
	</g>
</g>
    <polygon class="st2" points="81,429.1 70.4,419.4 33.9,461.7 17.7,444 7.9,454.6 25.9,471.1 25.9,471.1 35.1,479.4 35.1,479.4
	35.1,479.4 42.6,471.2 42.6,471.2 "/>
    <g>
	<g>
		<path class="st1" d="M106.7,70.8H68v-0.3h38.7c6.3,0,11.4-5.1,11.4-11.4V12.3c0-6.3-5.1-11.4-11.4-11.4h-72
			c-6.2,0-11.3,5.1-11.3,11.4v12.8H23V12.3c0-6.5,5.3-11.7,11.7-11.7h72c6.5,0,11.7,5.3,11.7,11.7v46.8
			C118.4,65.5,113.1,70.8,106.7,70.8z"/>
        <path class="st1" d="M106.7,71h-39v-0.8h39c6.1,0,11.1-5,11.1-11.1V12.3c0-6.1-5-11.1-11.1-11.1h-72c-6.1,0-11.1,5-11.1,11.1v13.1
			h-0.8V12.3c0-6.6,5.4-12,12-12h71.9c6.6,0,12,5.4,12,12v46.8C118.6,65.6,113.3,71,106.7,71z"/>
	</g>
</g>
    <g>
	<rect x="23.2" y="10.9" class="st1" width="95" height="0.3"/>
</g>
    <g>
	<rect x="23.2" y="15.5" class="st1" width="95" height="0.3"/>
</g>
    <g>
	<path class="st1" d="M103.3,66c-2.9,0-5.7-1.4-7.5-3.7C94,64.6,91.3,66,88.3,66c-5.2,0-9.3-4.2-9.3-9.3c0-5.2,4.2-9.3,9.3-9.3
		c2.9,0,5.7,1.4,7.5,3.7c1.8-2.3,4.5-3.7,7.5-3.7c5.2,0,9.3,4.2,9.3,9.3S108.5,66,103.3,66z M95.8,61.7l0.1,0.2
		c1.7,2.4,4.4,3.8,7.3,3.8c5,0,9-4,9-9s-4-9-9-9c-2.9,0-5.6,1.4-7.3,3.8l-0.1,0.2l-0.1-0.3c-1.7-2.4-4.4-3.8-7.3-3.8c-5,0-9,4-9,9
		s4,9,9,9c2.9,0,5.6-1.4,7.3-3.8L95.8,61.7z"/>
</g>
    <g>
	<g>
		<g>
			<g>
				<path class="st0" d="M109.1,58.9c-0.4,0.3-1,0.6-1.4,1c-0.4,0.3-1,0.6-1.5,0.9c-0.5,0.3-1,0.6-1.5,0.8c-0.5,0.3-1,0.6-1.5,0.8
					l0,0C105.2,61.2,107.2,60,109.1,58.9L109.1,58.9z"/>
			</g>
		</g>
	</g>
        <g>
		<g>
			<g>
				<path class="st0" d="M97.6,54.3c0.4-0.3,0.9-0.6,1.3-0.9c0.4-0.3,0.9-0.6,1.3-0.8c0.4-0.3,0.9-0.5,1.3-0.8s0.9-0.5,1.4-0.8l0,0
					C101.3,52.2,99.5,53.2,97.6,54.3L97.6,54.3z"/>
			</g>
		</g>
	</g>
        <g>
		<g>
			<g>
				<g>
					<path class="st0" d="M96.5,60.3c2.1-1.5,4.3-2.8,6.5-4.1s4.5-2.6,6.7-3.8c-2.1,1.5-4.3,2.8-6.5,4.1S98.8,59.2,96.5,60.3z"/>
				</g>
			</g>
		</g>
            <g>
			<g>
				<g>
					<path class="st0" d="M108.7,55.7c-0.7,0.6-1.3,1.1-2.1,1.5c-0.7,0.5-1.5,1-2.2,1.4c-0.8,0.4-1.5,0.9-2.2,1.3
						c-0.8,0.4-1.5,0.8-2.4,1.1v-0.1C102.8,59.1,105.7,57.4,108.7,55.7L108.7,55.7z"/>
				</g>
			</g>
		</g>
            <g>
			<g>
				<g>
					<path class="st0" d="M97.5,57.1c0.7-0.6,1.3-1.1,2.1-1.5c0.7-0.5,1.5-1,2.2-1.4c0.8-0.4,1.5-0.9,2.2-1.3s1.5-0.8,2.4-1.1v0.1
						C103.4,53.6,100.5,55.3,97.5,57.1L97.5,57.1z"/>
				</g>
			</g>
		</g>
	</g>
</g>
    <g>
	<path class="st1" d="M40.2,79c-14.6,0-26.5-11.9-26.5-26.5S25.6,26,40.2,26s26.5,11.9,26.5,26.5S54.8,79,40.2,79z M40.2,26.4
		c-14.4,0-26,11.7-26,26s11.7,26,26,26c14.4,0,26-11.7,26-26S54.6,26.4,40.2,26.4z"/>
</g>
    <g>
	<path class="st0" d="M35.4,66.8L35.4,66.8L35.4,66.8l-4.8-4.4l0,0l-8.2-7.5l5.1-5.5l7.4,8.1l16.5-19.2l5.5,5L35.4,66.8z M31.8,62.3
		l3.5,3.2l20.3-22.2l-4.2-3.8L34.9,58.8l-7.4-8.1l-3.8,4.1L31.8,62.3L31.8,62.3z"/>
</g>
    <rect x="-412.7" y="-618.1" class="st3" width="661.3" height="249.3"/>
    <g>
	<g>
		<g>
			<path class="st1" d="M199.6-303.6h-38.7v-0.3h38.7c6.3,0,11.4-5.1,11.4-11.4v-46.8c0-6.3-5.1-11.4-11.4-11.4h-71.9
				c-6.3,0-11.4,5.1-11.4,11.4v12.8H116v-12.8c0-6.5,5.3-11.7,11.7-11.7h71.9c6.5,0,11.7,5.3,11.7,11.7v46.8
				C211.3-308.8,206.1-303.6,199.6-303.6z"/>
            <path class="st1" d="M199.6-303.3h-38.9v-0.8h38.9c6.1,0,11.1-5,11.1-11.1V-362c0-6.1-5-11.1-11.1-11.1h-71.9
				c-6.1,0-11.1,5-11.1,11.1v13.1h-0.9V-362c0-6.6,5.4-12,12-12h71.9c6.6,0,12,5.4,12,12v46.8C211.6-308.7,206.2-303.3,199.6-303.3z
				"/>
		</g>
	</g>
        <g>
		<rect x="116.1" y="-363.4" class="st1" width="95" height="0.3"/>
	</g>
        <g>
		<rect x="116.1" y="-358.9" class="st1" width="95" height="0.3"/>
	</g>
        <g>
		<path class="st1" d="M196.2-308.3c-2.9,0-5.7-1.4-7.5-3.7c-1.8,2.3-4.5,3.7-7.5,3.7c-5.2,0-9.3-4.2-9.3-9.3c0-5.2,4.2-9.3,9.3-9.3
			c2.9,0,5.7,1.4,7.5,3.7c1.8-2.3,4.5-3.7,7.5-3.7c5.2,0,9.3,4.2,9.3,9.3C205.6-312.5,201.4-308.3,196.2-308.3z M188.8-312.6
			l0.1,0.2c1.7,2.4,4.4,3.8,7.3,3.8c5,0,9-4,9-9s-4-9-9-9c-2.9,0-5.6,1.4-7.3,3.8l-0.1,0.2l-0.1-0.2c-1.7-2.4-4.4-3.8-7.3-3.8
			c-5,0-9,4-9,9s4,9,9,9c2.9,0,5.6-1.4,7.3-3.8L188.8-312.6z"/>
	</g>
        <g>
		<g>
			<g>
				<g>
					<path class="st0" d="M202-315.4c-0.4,0.3-1,0.6-1.4,1c-0.4,0.3-1,0.6-1.5,0.9s-1,0.6-1.5,0.8c-0.5,0.3-1,0.6-1.5,0.8l0,0
						C198.2-313.1,200.1-314.3,202-315.4L202-315.4z"/>
				</g>
			</g>
		</g>
            <g>
			<g>
				<g>
					<path class="st0" d="M190.6-320c0.4-0.3,0.9-0.6,1.3-0.9c0.4-0.3,0.9-0.6,1.3-0.8c0.4-0.3,0.9-0.5,1.3-0.8
						c0.4-0.3,0.9-0.5,1.4-0.8l0,0C194.2-322.2,192.4-321.1,190.6-320L190.6-320z"/>
				</g>
			</g>
		</g>
            <g>
			<g>
				<g>
					<g>
						<path class="st0" d="M189.4-314c2.1-1.5,4.3-2.8,6.5-4.1c2.2-1.3,4.5-2.6,6.7-3.8c-2.1,1.5-4.3,2.8-6.5,4.1
							C194-316.5,191.7-315.2,189.4-314z"/>
					</g>
				</g>
			</g>
                <g>
				<g>
					<g>
						<path class="st0" d="M201.7-318.7c-0.7,0.6-1.3,1.1-2.1,1.5c-0.7,0.5-1.5,1-2.2,1.4c-0.8,0.4-1.5,0.9-2.2,1.3
							c-0.8,0.4-1.5,0.8-2.4,1.1v-0.1C195.7-315.2,198.7-317,201.7-318.7L201.7-318.7z"/>
					</g>
				</g>
			</g>
                <g>
				<g>
					<g>
						<path class="st0" d="M190.5-317.3c0.7-0.6,1.3-1.1,2.1-1.5c0.7-0.5,1.5-1,2.2-1.4c0.8-0.4,1.5-0.9,2.2-1.3
							c0.8-0.4,1.5-0.8,2.4-1.1v0.1C196.4-320.8,193.4-319,190.5-317.3L190.5-317.3z"/>
					</g>
				</g>
			</g>
		</g>
	</g>
        <g>
		<path class="st1" d="M133.1-295.3c-14.6,0-26.5-11.9-26.5-26.5s11.9-26.5,26.5-26.5s26.5,11.9,26.5,26.5S147.8-295.3,133.1-295.3z
			 M133.1-347.9c-14.4,0-26,11.7-26,26s11.7,26,26,26c14.4,0,26-11.7,26-26S147.5-347.9,133.1-347.9z"/>
	</g>
        <g>
		<path class="st0" d="M128.4-307.6L128.4-307.6L128.4-307.6l-4.8-4.4l0,0l-8.2-7.5l5.1-5.5l7.4,8.1l16.5-19.2l5.5,5L128.4-307.6z
			 M124.7-312.1l3.5,3.2l20.3-22.2l-4.2-3.8l-16.6,19.3l-7.4-8.1l-3.8,4.1L124.7-312.1L124.7-312.1z"/>
	</g>
</g>
    <g>
	<g>
		<g>
			<path d="M843.8-216c-21.9,0-39.6-17.8-39.6-39.6c0-21.9,17.8-39.6,39.6-39.6s39.6,17.8,39.6,39.6
				C883.5-233.8,865.7-216,843.8-216z M843.8-294.6c-21.4,0-38.9,17.5-38.9,38.9s17.5,38.9,38.9,38.9s38.9-17.4,38.9-38.9
				C882.7-277.1,865.3-294.6,843.8-294.6z"/>
		</g>
	</g>
        <g>
		<g>
			<g>
				<path class="st0" d="M843.8-236c-2.2,0-4-1.8-4-4v-21.5c0-2.2,1.8-4,4-4s4,1.8,4,4v21.5C847.8-237.7,846-236,843.8-236z
					 M843.8-263.4c-1.1,0-2,0.9-2,2v21.5c0,1.1,0.9,2,2,2s2-0.9,2-2v-21.5C845.8-262.5,844.9-263.4,843.8-263.4z"/>
			</g>
		</g>
            <g>
			<g>
				<path class="st0" d="M843.8-267.5c-2.2,0-4-1.8-4-4s1.8-4,4-4s4,1.8,4,4C847.8-269.2,846-267.5,843.8-267.5z M843.8-273.4
					c-1.1,0-2,0.9-2,2s0.9,2,2,2s2-0.9,2-2S844.9-273.4,843.8-273.4z"/>
			</g>
		</g>
	</g>
        <g>
		<path d="M843.8-229.3c-14.6,0-26.4-11.8-26.4-26.4s11.8-26.4,26.4-26.4c14.6,0,26.4,11.8,26.4,26.4c0,2.9-0.8,5.6-1.6,8.2
			c-0.3,0.9-0.5,1.8-0.8,2.7c-1,3.9,0.6,13.8,0.6,13.9v0.3h-0.3c-0.1,0-6.6-0.5-9.3-0.1C855.5-230.2,847.2-229.3,843.8-229.3z
			 M843.8-281.6c-14.3,0-25.9,11.6-25.9,25.9c0,14.3,11.6,25.9,25.9,25.9c3.3,0,11.6-0.9,15-1.5c2.5-0.4,7.8,0,9.1,0.1
			c-0.3-1.8-1.5-10.2-0.5-13.8c0.2-0.9,0.5-1.8,0.8-2.7c0.8-2.6,1.5-5.2,1.5-8C869.7-270,858.1-281.6,843.8-281.6z"/>
	</g>
</g>
    <g>
	<g>
		<path class="st0" d="M56.2-318.2c-1.1-4.7-2.1-9.4-3.1-14.1s-2.1-9.4-3.1-14.1l-0.1-0.6h-0.6c-1.8,0.1-3.5,0.2-5.2,0.2l-0.4-3.3
			c-0.2-1.8-0.5-3.9-1.6-5.7c-1.2-1.8-3.2-3.1-5.4-3.3c-2.7-0.2-5.4,1.1-7.3,3.5c-1.5,1.9-2.4,4.6-2.5,7.6c0,0.5,0,1,0,1.5
			c-1.4,0.1-2.9,0.1-4.4,0.2h-0.6l-0.2,0.6c-1.3,9.6-3.5,19.2-6.5,28.4l-0.3,1h1c6.6-0.2,13.2-0.3,19.8-0.5s13.2-0.3,19.8-0.5h0.9
			L56.2-318.2z M28.3-347.9c0.1-2.7,0.9-5,2.2-6.8c1.5-1.9,3.8-3.1,6-2.9c1.7,0.1,3.4,1.2,4.3,2.6c0.9,1.5,1.2,3.4,1.4,5.1l0.4,3.2
			c-2.3,0-4.5,0-6.7,0c-2.5,0-5,0-7.6,0.1C28.2-347,28.2-347.5,28.3-347.9z M35.7-318.3c-6.3,0.2-12.5,0.3-18.7,0.5
			c2.8-8.8,4.9-17.9,6.1-27.1c1.3-0.1,2.5-0.1,3.7-0.1c0.1,1.6,0.3,3.2,0.6,4.8c0.1,0.4,0.4,0.6,0.7,0.6h0.1
			c0.4-0.1,0.7-0.4,0.6-0.8c-0.2-1.5-0.4-3.1-0.5-4.6c2.6-0.1,5.1-0.1,7.5-0.1c2.2,0,4.5,0,6.8,0l0.5,4.4c0,0.4,0.4,0.7,0.8,0.6
			c0.4,0,0.7-0.4,0.6-0.8l-0.5-4.3c1.5,0,3-0.1,4.5-0.2c1,4.5,2,9,3,13.5c1,4.4,1.9,8.8,2.9,13.2C48.3-318.6,42-318.4,35.7-318.3z"
        />
	</g>
        <g class="st4">
		<g>
			<g>
				<path class="st5" d="M26.8-323.7h2.8v0.5h-3.4v-8.2h0.5L26.8-323.7z"/>
			</g>
		</g>
            <g>
			<g>
				<path class="st5" d="M43.3-330.8h-2.8v3.6h2.4v0.5h-2.4v3.6H40v-8.2h3.4L43.3-330.8z"/>
			</g>
		</g>
            <g>
			<g>
				<path class="st5" d="M48.1-331.4v0.5h-1.9v7.7h-0.5v-7.7h-1.9v-0.5H48.1z"/>
			</g>
		</g>
            <g>
			<g>
				<g>
					<path class="st0" d="M34-331.6c-2.3,0-4.2,1.9-4.2,4.2c0,2.3,1.9,4.2,4.2,4.2s4.2-1.9,4.2-4.2S36.3-331.6,34-331.6z
						 M37.7-327.4c0,2-1.7,3.7-3.7,3.7s-3.7-1.7-3.7-3.7s1.7-3.7,3.7-3.7C36-331.1,37.7-329.4,37.7-327.4z"/>
				</g>
			</g>
                <g>
				<g>
					<g>
						<path class="st0" d="M36.4-326.4c-0.2,0.1-0.4,0.3-0.6,0.4s-0.4,0.2-0.6,0.4c-0.2,0.1-0.4,0.2-0.6,0.3
							c-0.2,0.1-0.4,0.2-0.6,0.3l0,0C34.9-325.4,35.6-325.9,36.4-326.4L36.4-326.4z"/>
					</g>
				</g>
                    <g>
					<g>
						<path class="st0" d="M31.8-328.2c0.2-0.1,0.4-0.2,0.5-0.3c0.2-0.1,0.4-0.2,0.5-0.3c0.2-0.1,0.4-0.2,0.5-0.3
							c0.2-0.1,0.4-0.2,0.6-0.3l0,0C33.3-329.1,32.5-328.7,31.8-328.2L31.8-328.2z"/>
					</g>
				</g>
                    <g>
					<g>
						<g>
							<path class="st0" d="M31.3-325.8c0.9-0.6,1.7-1.1,2.6-1.7c0.9-0.5,1.8-1.1,2.7-1.5c-0.9,0.6-1.7,1.1-2.6,1.7
								C33.2-326.8,32.3-326.3,31.3-325.8z"/>
						</g>
					</g>
                        <g>
						<g>
							<path class="st0" d="M36.3-327.7c-0.3,0.2-0.5,0.4-0.8,0.6s-0.6,0.4-0.9,0.6s-0.6,0.3-0.9,0.5s-0.6,0.3-0.9,0.4l0,0
								C33.9-326.3,35.1-327,36.3-327.7L36.3-327.7z"/>
						</g>
					</g>
                        <g>
						<g>
							<path class="st0" d="M31.8-327.1c0.3-0.2,0.5-0.4,0.8-0.6s0.6-0.4,0.9-0.6s0.6-0.3,0.9-0.5s0.6-0.3,0.9-0.4l0,0
								C34.1-328.5,33-327.8,31.8-327.1L31.8-327.1z"/>
						</g>
					</g>
				</g>
			</g>
		</g>
	</g>
        <g>
		<path class="st1" d="M84.5-296.3h-98c-1.4,0-2.5-1.1-2.5-2.5v-73.5c0-1.4,1.1-2.5,2.5-2.5h98c1.4,0,2.5,1.1,2.5,2.5v73.5
			C87-297.4,85.8-296.3,84.5-296.3z M-13.5-374c-1,0-1.8,0.8-1.8,1.8v73.5c0,1,0.8,1.8,1.8,1.8h98c1,0,1.8-0.8,1.8-1.8v-73.5
			c0-1-0.8-1.8-1.8-1.8H-13.5z"/>
	</g>
        <g>
		<path class="st1" d="M80.2-307.6H-9v-60.1h89.2V-307.6z M-8.4-308.1h88.1v-59.1H-8.5L-8.4-308.1L-8.4-308.1z"/>
	</g>
        <g>
		<rect x="-8.7" y="-304.7" class="st1" width="88.7" height="0.8"/>
	</g>
</g>
    <g>
	<rect x="-8.8" y="-302.3" width="0.2" height="3"/>
</g>
    <g>
	<rect x="-7.4" y="-302.3" width="0.2" height="3"/>
</g>
    <g>
	<rect x="-6" y="-302.3" width="0.2" height="3"/>
</g>
    <g>
	<rect x="-4.7" y="-302.3" width="0.2" height="3"/>
</g>
    <g>
	<rect x="-3.3" y="-302.3" width="0.2" height="3"/>
</g>
    <g>
	<g>
		<g>
			<path class="st0" d="M36-300.5l-0.1,0.1l-0.1,0.1l-0.1,0.1l-0.1,0.1l0,0C35.7-300.3,35.9-300.4,36-300.5L36-300.5z"/>
		</g>
	</g>
        <g>
		<g>
			<path class="st0" d="M35-300.9l0.1-0.1l0.1-0.1c0,0,0.1,0,0.1-0.1s0.1,0,0.1-0.1l0,0C35.3-301.1,35.1-301,35-300.9L35-300.9z"/>
		</g>
	</g>
        <g>
		<g>
			<path class="st0" d="M35.5-301.7c-0.5,0-1,0.4-1,1s0.4,1,1,1c0.6,0,1-0.4,1-1S36-301.7,35.5-301.7z M36.3-300.7
				c0,0.5-0.4,0.9-0.9,0.9s-0.9-0.4-0.9-0.9s0.4-0.9,0.9-0.9S36.3-301.2,36.3-300.7z"/>
		</g>
	</g>
        <g>
		<g>
			<g>
				<path class="st0" d="M34.8-300.4c0.2-0.1,0.4-0.3,0.6-0.4s0.4-0.2,0.6-0.4c-0.2,0.1-0.4,0.3-0.6,0.4
					C35.3-300.6,35.1-300.5,34.8-300.4z"/>
			</g>
		</g>
            <g>
			<g>
				<path class="st0" d="M36-300.8c-0.1,0.1-0.1,0.1-0.2,0.1c-0.1,0-0.1,0.1-0.2,0.1c-0.1,0-0.1,0.1-0.2,0.1c-0.1,0-0.1,0.1-0.2,0.1
					l0,0C35.4-300.5,35.7-300.6,36-300.8L36-300.8z"/>
			</g>
		</g>
            <g>
			<g>
				<path class="st0" d="M34.9-300.7c0.1-0.1,0.1-0.1,0.2-0.1c0.1,0,0.1-0.1,0.2-0.1c0.1,0,0.1-0.1,0.2-0.1c0.1,0,0.1-0.1,0.2-0.1
					l0,0C35.5-301,35.2-300.8,34.9-300.7L34.9-300.7z"/>
			</g>
		</g>
	</g>
</g>
    <g>
	<g>
		<g>
			<g>
				<g>
					<path class="st0" d="M549.3-318.9c-2.2,0-4-1.8-4-4v-21.5c0-2.2,1.8-4,4-4s4,1.8,4,4v21.5C553.2-320.7,551.5-318.9,549.3-318.9
						z M549.3-346.4c-1.1,0-2,0.9-2,2v21.5c0,1.1,0.9,2,2,2s2-0.9,2-2v-21.5C551.2-345.5,550.4-346.4,549.3-346.4z"/>
				</g>
			</g>
		</g>
        <g>
			<g>
				<g>
					<path class="st0" d="M549.3-350.4c-2.2,0-4-1.8-4-4s1.8-4,4-4s4,1.8,4,4C553.2-352.2,551.5-350.4,549.3-350.4z M549.3-356.4
						c-1.1,0-2,0.9-2,2s0.9,2,2,2s2-0.9,2-2S550.4-356.4,549.3-356.4z"/>
				</g>
			</g>
		</g>
	</g>
        <g>
		<g>
			<path class="st1" d="M549.3-312.3c-14.6,0-26.4-11.8-26.4-26.4s11.8-26.4,26.4-26.4s26.4,11.8,26.4,26.4c0,2.9-0.8,5.6-1.6,8.2
				c-0.3,0.9-0.5,1.8-0.8,2.7c-1,3.9,0.6,13.8,0.6,13.9v0.3h-0.3c-0.1,0-6.6-0.5-9.3-0.1C560.9-313.2,552.6-312.3,549.3-312.3z
				 M549.3-364.6c-14.3,0-25.9,11.6-25.9,25.9s11.6,25.9,25.9,25.9c3.3,0,11.6-0.9,15-1.5c2.5-0.4,7.8,0,9.1,0.1
				c-0.3-1.8-1.5-10.2-0.5-13.8c0.2-0.9,0.5-1.8,0.8-2.7c0.8-2.6,1.5-5.2,1.5-8C575.2-352.9,563.5-364.6,549.3-364.6z"/>
		</g>
	</g>
        <g>
		<path class="st1" d="M576.6-298.9H522c-6.9,0-12.5-5.6-12.5-12.5V-366c0-6.9,5.6-12.5,12.5-12.5h54.6c6.9,0,12.5,5.6,12.5,12.5
			v54.6C589.1-304.5,583.5-298.9,576.6-298.9z M522-377.5c-6.3,0-11.5,5.2-11.5,11.5v54.6c0,6.3,5.2,11.5,11.5,11.5h54.6
			c6.3,0,11.5-5.2,11.5-11.5V-366c0-6.3-5.2-11.5-11.5-11.5H522z"/>
	</g>
</g>
    <g>
	<g>
		<path class="st0" d="M254.3-359.9l-26,1.8l26,1.8l0,0V-359.9L254.3-359.9z"/>
	</g>
        <g>
		<path class="st0" d="M254-353.1l-17.3,1.8l16.7,1.8l0,0L254-353.1L254-353.1z"/>
	</g>
        <g>
		<g>
			<path class="st0" d="M297.3-353.4c-1.8-3.6-4.5-6.6-7.5-8.7s-6.6-3.9-10.2-4.8c-0.9,0-1.8-0.3-2.7-0.3c-0.3,0-0.9,0-1.2,0h-0.9
				c-0.3,0-0.3,0-0.9,0h-5.4h-11l-42.7,0.6l43,0.9l10.7,0.3h5.4c0.3,0,0.3,0,0.9,0h0.3c0.3,0,0.9,0,1.2,0c0.9,0,1.8,0.3,2.7,0.3
				c3,0.9,6.3,2.7,8.7,4.8c2.4,2.1,4.5,4.8,6.3,7.8c1.2,3,2.1,6.3,1.8,9.6c0,3-0.9,6.6-2.7,9.3c-3,5.7-8.7,10.2-14.9,11.3
				c-3,0.3-6.3,0.3-9.3-0.3c-3-0.9-5.7-2.1-8.4-4.5c-2.1-2.1-4.5-4.5-5.7-7.5c-0.3-0.9-0.9-2.1-1.2-3.9c0-0.3,0-0.9,0-1.2
				s0-0.9,0-1.2s0-0.9,0-1.2v-0.3v-0.6v-0.3c0,0,0,0,0-0.3c0,0,0,0,0-0.3h-7.8v0.3l0,0l0,0l0,0v0.3v0.9c0,0.3,0,0.9,0,1.8
				c0,0.3,0,0.9,0.3,1.2c0,0.3,0,0.9,0.3,1.2c0.3,2.1,1.2,3.9,2.1,5.7c1.8,3.6,4.5,6.9,7.8,9.3c3,2.7,6.9,4.5,11,5.4
				c3.9,0.9,7.8,0.9,11.9,0c7.8-1.8,14.3-7.5,17.9-14.3c1.8-3.6,2.7-7.5,2.7-11.3C299.9-346.5,299-350.4,297.3-353.4z"/>
		</g>
	</g>
        <g>
		<g>
			<path class="st1" d="M257.4-315.1c-5.2,0-10,5-10,10.3s4.8,10.3,10,10.3c5.2,0,10-5,10-10.3S263-315.1,257.4-315.1z M257.4-295.6
				c-4.8,0-8.8-4.1-8.8-9.1c0-0.1,0-0.2,0-0.3c0-0.1,0-0.1,0-0.2s0-0.2,0.1-0.3c0.4-4.6,4.2-8.3,8.8-8.3c5.2,0,8.8,3.7,8.8,9.1
				C266.2-299.8,262.2-295.6,257.4-295.6z"/>
		</g>
	</g>
        <g>
		<g>
			<path class="st1" d="M334.7-315.2c-5.2,0-10,5-10,10.3c0,5.4,4.8,10.3,10,10.3s10-5,10-10.3C344.7-310.3,340.3-315.2,334.7-315.2
				z M343.5-304.9c0,5-4,9.1-8.8,9.1s-8.8-4.1-8.8-9.1s4-9.1,8.8-9.1C339.9-314,343.5-310.3,343.5-304.9z"/>
		</g>
	</g>
        <g>
		<g>
			<g>
				<g>
					<path class="st1" d="M247.9-304.4h-15c-1.4,0-2.6-1.2-2.6-2.6c-0.1-9.7-0.2-57.7-0.2-59c0-3.5,2.9-6.4,6.5-6.4l62.3-0.5
						c0,0,0,0,0.1,0c1.6,0,3.1,0.6,4.3,1.8c1.2,1.1,1.8,2.7,1.8,4.3c0.2,29,0.3,50.3,0.3,61.6v0.5l-38.9,0.3v-1l37.9-0.3
						c0-11.4-0.1-32.5-0.3-61.1c0-1.4-0.5-2.6-1.5-3.6s-2.2-1.5-3.6-1.5l-62.3,0.5c-3,0-5.4,2.5-5.5,5.4c0,1.2,0.1,49.2,0.2,58.9
						c0,0.9,0.7,1.6,1.6,1.6h15L247.9-304.4L247.9-304.4z"/>
				</g>
			</g>
            <g>
				<path class="st1" d="M344.7-333l-8.5-17.9c-0.8-1.7-2.6-2.9-4.5-2.9h-27.5v-1h27.5c2.3,0,4.4,1.3,5.4,3.4l8.5,17.9L344.7-333z"
                />
			</g>
		</g>
            <g>
			<path class="st1" d="M360.1-304.5H360c-4.5-0.2-9.5-0.4-15.6-0.4v-1c6.1,0,11.1,0.1,15.6,0.4c0.3,0,0.6-0.1,0.8-0.3
				c0.2-0.2,0.3-0.5,0.3-0.8l-0.5-17.4c0-0.4-0.2-0.7-0.6-0.9l-15.2-7.8l0.5-0.9l15.2,7.8c0.7,0.3,1.1,1,1.1,1.8l0.5,17.4
				c0,0.6-0.2,1.1-0.6,1.5C361.2-304.7,360.7-304.5,360.1-304.5z"/>
		</g>
            <g>
			<rect x="304.2" y="-305.8" class="st1" width="21.7" height="1"/>
		</g>
	</g>
        <g>
		<path class="st1" d="M332-333.3h-19.6c-1,0-1.8-0.8-1.8-1.9v-10.1c0-1,0.8-1.9,1.8-1.9h15.4c0.7,0,1.4,0.4,1.7,1.1l4.2,10.2
			c0.2,0.6,0.2,1.3-0.2,1.8C333.2-333.6,332.6-333.3,332-333.3z M312.5-346.7c-0.7,0-1.3,0.6-1.3,1.4v10.1c0,0.8,0.6,1.4,1.3,1.4
			h19.6c0.4,0,0.8-0.2,1.1-0.6c0.3-0.4,0.3-0.9,0.1-1.3l-4.2-10.2c-0.2-0.5-0.7-0.8-1.2-0.8H312.5z"/>
	</g>
        <g>
		<rect x="350.1" y="-313.7" class="st1" width="11.3" height="1"/>
	</g>
        <g>
		<rect x="310.9" y="-324.8" class="st1" width="4.2" height="1"/>
	</g>
        <g>
		<g>
			<path class="st0" d="M271.5-333.4L271.5-333.4L271.5-333.4l-3.8-3.4l0,0l-6.5-5.9l4-4.4l5.8,6.4l13-15.2l4.4,4L271.5-333.4z
				 M268.6-337l2.8,2.6l16-17.5l-3.3-3L271-339.7l-5.8-6.4l-3,3.3L268.6-337L268.6-337z"/>
		</g>
	</g>
        <g>
		<g>
			<g>
				<g>
					<g>
						<path class="st0" d="M263.4-302.6c-0.4,0.3-1,0.6-1.4,1c-0.4,0.3-1,0.6-1.5,0.9s-1,0.6-1.5,0.8c-0.5,0.3-1,0.6-1.5,0.8l0,0
							C259.5-300.3,261.5-301.4,263.4-302.6L263.4-302.6z"/>
					</g>
				</g>
			</g>
		</g>
            <g>
			<g>
				<g>
					<g>
						<path class="st0" d="M251.9-307.1c0.4-0.3,0.9-0.6,1.3-0.9c0.4-0.3,0.9-0.6,1.3-0.8c0.4-0.3,0.9-0.5,1.3-0.8
							c0.4-0.3,0.9-0.5,1.4-0.8l0,0C255.6-309.3,253.8-308.2,251.9-307.1L251.9-307.1z"/>
					</g>
				</g>
			</g>
		</g>
            <g>
			<g>
				<g>
					<g>
						<g>
							<path class="st0" d="M250.8-301.2c2.1-1.5,4.3-2.8,6.5-4.1c2.2-1.3,4.5-2.6,6.7-3.8c-2.1,1.5-4.3,2.8-6.5,4.1
								C255.3-303.6,253.1-302.3,250.8-301.2z"/>
						</g>
					</g>
				</g>
			</g>
                <g>
				<g>
					<g>
						<g>
							<path class="st0" d="M263-305.8c-0.7,0.6-1.3,1.1-2.1,1.5c-0.7,0.5-1.5,1-2.2,1.4c-0.8,0.4-1.5,0.9-2.2,1.3
								c-0.8,0.4-1.5,0.8-2.4,1.1v-0.1C257.1-302.4,260-304.1,263-305.8L263-305.8z"/>
						</g>
					</g>
				</g>
			</g>
                <g>
				<g>
					<g>
						<g>
							<path class="st0" d="M251.8-304.4c0.7-0.6,1.3-1.1,2.1-1.5c0.7-0.5,1.5-1,2.2-1.4c0.8-0.4,1.5-0.9,2.2-1.3
								c0.8-0.4,1.5-0.8,2.4-1.1v0.1C257.7-307.9,254.8-306.1,251.8-304.4L251.8-304.4z"/>
						</g>
					</g>
				</g>
			</g>
		</g>
	</g>
        <g>
		<g>
			<g>
				<g>
					<g>
						<path class="st0" d="M340.7-302.2c-0.4,0.3-1,0.6-1.4,1c-0.4,0.3-1,0.6-1.5,0.9s-1,0.6-1.5,0.8c-0.5,0.3-1,0.6-1.5,0.8l0,0
							C336.8-300,338.8-301.1,340.7-302.2L340.7-302.2z"/>
					</g>
				</g>
			</g>
		</g>
            <g>
			<g>
				<g>
					<g>
						<path class="st0" d="M329.2-306.8c0.4-0.3,0.9-0.6,1.3-0.9s0.9-0.6,1.3-0.8c0.4-0.3,0.9-0.5,1.3-0.8s0.9-0.5,1.4-0.8l0,0
							C332.9-309,331.1-307.9,329.2-306.8L329.2-306.8z"/>
					</g>
				</g>
			</g>
		</g>
            <g>
			<g>
				<g>
					<g>
						<g>
							<path class="st0" d="M328.1-300.8c2.1-1.5,4.3-2.8,6.5-4.1c2.2-1.3,4.5-2.6,6.7-3.8c-2.1,1.5-4.3,2.8-6.5,4.1
								C332.6-303.3,330.4-302,328.1-300.8z"/>
						</g>
					</g>
				</g>
			</g>
                <g>
				<g>
					<g>
						<g>
							<path class="st0" d="M340.3-305.5c-0.7,0.6-1.3,1.1-2.1,1.5c-0.7,0.5-1.5,1-2.2,1.4c-0.8,0.4-1.5,0.9-2.2,1.3
								c-0.8,0.4-1.5,0.8-2.4,1.1v-0.1C334.4-302.1,337.3-303.8,340.3-305.5L340.3-305.5z"/>
						</g>
					</g>
				</g>
			</g>
                <g>
				<g>
					<g>
						<g>
							<path class="st0" d="M329.1-304.1c0.7-0.6,1.3-1.1,2.1-1.5c0.7-0.5,1.5-1,2.2-1.4c0.8-0.4,1.5-0.9,2.2-1.3
								c0.8-0.4,1.5-0.8,2.4-1.1v0.1C335-307.6,332.1-305.8,329.1-304.1L329.1-304.1z"/>
						</g>
					</g>
				</g>
			</g>
		</g>
	</g>
</g>
    <g>
	<rect x="629.8" y="-703.3" class="st2" width="112" height="78.5"/>
        <rect x="639.3" y="-694.3" class="st6" width="92.9" height="60.5"/>
        <polyline class="st6" points="732.2,-651.9 708.2,-665.8 692,-655.6 672.5,-676 639.3,-650.3 	"/>
</g>
    <g>
	<g>
		<g>
			<path class="st0" d="M707.1-680.9c-0.3,0.2-0.6,0.4-0.8,0.6s-0.6,0.3-0.9,0.5c-0.3,0.2-0.6,0.3-0.9,0.5c-0.3,0.2-0.6,0.3-0.9,0.5
				l0,0C704.8-679.6,706-680.2,707.1-680.9L707.1-680.9z"/>
		</g>
	</g>
        <g>
		<g>
			<path class="st0" d="M700.3-683.7c0.3-0.2,0.5-0.3,0.8-0.5s0.5-0.3,0.8-0.5s0.5-0.3,0.8-0.5s0.5-0.3,0.8-0.5l0,0
				C702.5-684.9,701.4-684.3,700.3-683.7L700.3-683.7z"/>
		</g>
	</g>
        <g>
		<g>
			<path class="st0" d="M703.6-688.7c-3.4,0-6.2,2.8-6.2,6.2s2.8,6.2,6.2,6.2s6.2-2.8,6.2-6.2S707-688.7,703.6-688.7z M709-682.4
				c0,3-2.4,5.4-5.4,5.4s-5.4-2.4-5.4-5.4s2.4-5.5,5.4-5.5S709-685.4,709-682.4z"/>
		</g>
	</g>
        <g>
		<g>
			<g>
				<path class="st0" d="M699.6-680.1c1.3-0.9,2.6-1.7,3.9-2.5c1.3-0.8,2.7-1.6,4-2.3c-1.3,0.9-2.6,1.7-3.9,2.5
					S701-680.8,699.6-680.1z"/>
			</g>
		</g>
            <g>
			<g>
				<path class="st0" d="M706.9-682.9c-0.4,0.3-0.8,0.6-1.3,0.9c-0.4,0.3-0.9,0.6-1.3,0.8c-0.5,0.3-0.9,0.5-1.3,0.8
					s-0.9,0.5-1.4,0.6l0,0C703.4-680.8,705.1-681.8,706.9-682.9L706.9-682.9z"/>
			</g>
		</g>
            <g>
			<g>
				<path class="st0" d="M700.2-682c0.4-0.3,0.8-0.6,1.3-0.9c0.4-0.3,0.9-0.6,1.3-0.8c0.5-0.3,0.9-0.5,1.3-0.8
					c0.5-0.2,0.9-0.5,1.4-0.6l0,0C703.7-684.1,702-683,700.2-682L700.2-682z"/>
			</g>
		</g>
	</g>
</g>
    <g>
	<g>
		<g>
			<g>
				<path class="st1" d="M487.3-299.4H375.8v-78.5h111.6v78.5H487.3z M376.8-300.4h109.6v-76.5H376.8V-300.4z"/>
			</g>
            <g>
				<path class="st1" d="M477.6-308.5h-92.2v-60.3h92.2L477.6-308.5L477.6-308.5z M385.9-309h91.2v-59.3h-91.2V-309z"/>
			</g>
            <g>
				<polygon class="st1" points="385.8,-324.9 385.5,-325.3 418.4,-350.8 418.6,-350.7 437.8,-330.7 453.7,-340.7 453.9,-340.6
					477.5,-326.9 477.3,-326.4 453.7,-340.1 437.7,-330 418.4,-350.2 				"/>
			</g>
		</g>
	</g>
        <g>
		<g>
			<g>
				<g>
					<path class="st0" d="M472.9-355.6c-0.3,0.2-0.6,0.4-0.8,0.6c-0.3,0.2-0.6,0.3-0.9,0.5s-0.6,0.3-0.9,0.5s-0.6,0.3-0.9,0.5l0,0
						C470.6-354.2,471.8-354.9,472.9-355.6L472.9-355.6z"/>
				</g>
			</g>
		</g>
            <g>
			<g>
				<g>
					<path class="st0" d="M466.1-358.3c0.3-0.2,0.5-0.3,0.8-0.5s0.5-0.3,0.8-0.5s0.5-0.3,0.8-0.5s0.5-0.3,0.8-0.5l0,0
						C468.2-359.6,467.2-358.9,466.1-358.3L466.1-358.3z"/>
				</g>
			</g>
		</g>
            <g>
			<g>
				<g>
					<path class="st0" d="M469.3-363.3c-3.4,0-6.2,2.8-6.2,6.2s2.8,6.2,6.2,6.2c3.5,0,6.2-2.8,6.2-6.2S472.7-363.3,469.3-363.3z
						 M474.8-357.1c0,3-2.4,5.4-5.4,5.4s-5.4-2.4-5.4-5.4s2.4-5.5,5.4-5.5C472.3-362.5,474.8-360.1,474.8-357.1z"/>
				</g>
			</g>
		</g>
            <g>
			<g>
				<g>
					<g>
						<path class="st0" d="M465.4-354.7c1.3-0.9,2.6-1.7,3.9-2.5s2.7-1.6,4-2.3c-1.3,0.9-2.6,1.7-3.9,2.5
							C468.1-356.2,466.7-355.4,465.4-354.7z"/>
					</g>
				</g>
			</g>
                <g>
				<g>
					<g>
						<path class="st0" d="M472.7-357.5c-0.4,0.3-0.8,0.6-1.3,0.9c-0.4,0.3-0.9,0.6-1.3,0.8c-0.5,0.3-0.9,0.5-1.3,0.8
							c-0.5,0.2-0.9,0.5-1.4,0.6l0,0C469.1-355.4,470.9-356.5,472.7-357.5L472.7-357.5z"/>
					</g>
				</g>
			</g>
                <g>
				<g>
					<g>
						<path class="st0" d="M466-356.7c0.4-0.3,0.8-0.6,1.3-0.9c0.4-0.3,0.9-0.6,1.3-0.8c0.5-0.3,0.9-0.5,1.3-0.8
							c0.5-0.2,0.9-0.5,1.4-0.6l0,0C469.5-358.7,467.8-357.7,466-356.7L466-356.7z"/>
					</g>
				</g>
			</g>
		</g>
	</g>
</g>
    <g>
	<g>
		<g>
			<path class="st1" d="M-401.6-159.3h-38.7v-0.3h38.7c6.3,0,11.4-5.1,11.4-11.4v-46.8c0-6.3-5.1-11.4-11.4-11.4h-72
				c-6.2,0-11.3,5.1-11.3,11.4v12.8h-0.4v-12.8c0-6.5,5.3-11.7,11.7-11.7h72c6.5,0,11.7,5.3,11.7,11.7v46.8
				C-389.9-164.6-395.2-159.3-401.6-159.3z"/>
            <path class="st1" d="M-401.6-159.1h-39v-0.8h39c6.1,0,11.1-5,11.1-11.1v-46.8c0-6.1-5-11.1-11.1-11.1h-72
				c-6.1,0-11.1,5-11.1,11.1v13.1h-0.8v-13.1c0-6.6,5.4-12,12-12h71.9c6.6,0,12,5.4,12,12v46.8C-389.7-164.5-395-159.1-401.6-159.1z
				"/>
		</g>
	</g>
        <g>
		<rect x="-485.1" y="-219.2" class="st1" width="95" height="0.3"/>
	</g>
        <g>
		<rect x="-485.1" y="-214.6" class="st1" width="95" height="0.3"/>
	</g>
        <g>
		<path class="st1" d="M-405-164.1c-2.9,0-5.7-1.4-7.5-3.7c-1.8,2.3-4.5,3.7-7.5,3.7c-5.2,0-9.3-4.2-9.3-9.3c0-5.2,4.2-9.3,9.3-9.3
			c2.9,0,5.7,1.4,7.5,3.7c1.8-2.3,4.5-3.7,7.5-3.7c5.2,0,9.3,4.2,9.3,9.3C-395.7-168.3-399.8-164.1-405-164.1z M-412.5-168.4
			l0.1,0.2c1.7,2.4,4.4,3.8,7.3,3.8c5,0,9-4,9-9s-4-9-9-9c-2.9,0-5.6,1.4-7.3,3.8l-0.1,0.2l-0.1-0.3c-1.7-2.4-4.4-3.8-7.3-3.8
			c-5,0-9,4-9,9s4,9,9,9C-417-164.5-414.3-165.9-412.5-168.4L-412.5-168.4z"/>
	</g>
        <g>
		<g>
			<g>
				<g>
					<path class="st0" d="M-399.2-171.2c-0.4,0.3-1,0.6-1.4,1c-0.4,0.3-1,0.6-1.5,0.9s-1,0.6-1.5,0.8c-0.5,0.3-1,0.6-1.5,0.8l0,0
						C-403.1-168.9-401.1-170.1-399.2-171.2L-399.2-171.2z"/>
				</g>
			</g>
		</g>
            <g>
			<g>
				<g>
					<path class="st0" d="M-410.7-175.8c0.4-0.3,0.9-0.6,1.3-0.9c0.4-0.3,0.9-0.6,1.3-0.8c0.4-0.3,0.9-0.5,1.3-0.8s0.9-0.5,1.4-0.8
						l0,0C-407-177.9-408.8-176.9-410.7-175.8L-410.7-175.8z"/>
				</g>
			</g>
		</g>
            <g>
			<g>
				<g>
					<g>
						<path class="st0" d="M-411.8-169.8c2.1-1.5,4.3-2.8,6.5-4.1s4.5-2.6,6.7-3.8c-2.1,1.5-4.3,2.8-6.5,4.1
							S-409.5-170.9-411.8-169.8z"/>
					</g>
				</g>
			</g>
                <g>
				<g>
					<g>
						<path class="st0" d="M-399.6-174.4c-0.7,0.6-1.3,1.1-2.1,1.5c-0.7,0.5-1.5,1-2.2,1.4c-0.8,0.4-1.5,0.9-2.2,1.3
							c-0.8,0.4-1.5,0.8-2.4,1.1v-0.1C-405.5-171-402.6-172.7-399.6-174.4L-399.6-174.4z"/>
					</g>
				</g>
			</g>
                <g>
				<g>
					<g>
						<path class="st0" d="M-410.8-173c0.7-0.6,1.3-1.1,2.1-1.5c0.7-0.5,1.5-1,2.2-1.4c0.8-0.4,1.5-0.9,2.2-1.3
							c0.7-0.4,1.5-0.8,2.4-1.1v0.1C-404.9-176.5-407.8-174.8-410.8-173L-410.8-173z"/>
					</g>
				</g>
			</g>
		</g>
	</g>
        <g>
		<path class="st1" d="M-468.1-151.1c-14.6,0-26.5-11.9-26.5-26.5s11.9-26.5,26.5-26.5s26.5,11.9,26.5,26.5
			C-441.6-163-453.5-151.1-468.1-151.1z M-468.1-203.7c-14.4,0-26,11.7-26,26s11.7,26,26,26c14.4,0,26-11.7,26-26
			S-453.7-203.7-468.1-203.7z"/>
	</g>
        <g>
		<path class="st0" d="M-472.9-163.3L-472.9-163.3L-472.9-163.3l-4.8-4.4l0,0l-8.2-7.5l5.1-5.5l7.4,8.1l16.5-19.2l5.5,5
			L-472.9-163.3z M-476.5-167.8l3.5,3.2l20.3-22.2l-4.2-3.8l-16.5,19.3l-7.4-8.1l-3.8,4.1L-476.5-167.8L-476.5-167.8z"/>
	</g>
</g>
    <g>
	<g>
		<path class="st0" d="M-579.4-173.2c-1.1-4.7-2.1-9.4-3.1-14.1s-2.1-9.4-3.1-14.1l-0.1-0.6h-0.6c-1.9,0.2-3.6,0.2-5.3,0.3l-0.4-3.3
			c-0.2-1.8-0.5-3.9-1.6-5.7c-1.2-1.8-3.2-3.1-5.4-3.3c-2.7-0.2-5.4,1.1-7.3,3.5c-1.5,1.9-2.4,4.6-2.5,7.6c0,0.5,0,1,0,1.5
			c-1.4,0.1-2.9,0.1-4.4,0.2h-0.6l-0.1,0.6c-1.3,9.6-3.5,19.2-6.5,28.4l-0.3,1h1c6.6-0.2,13.2-0.3,19.8-0.5s13.2-0.3,19.8-0.5h0.9
			L-579.4-173.2z M-607.3-203c0.1-2.7,0.9-5,2.2-6.8c1.5-1.9,3.8-3.1,6-2.9c1.7,0.1,3.4,1.2,4.3,2.6c0.9,1.5,1.2,3.4,1.4,5.1
			l0.4,3.2c-2.3,0-4.5,0-6.7,0c-2.5,0-5,0-7.6,0.1C-607.3-202-607.4-202.5-607.3-203z M-599.9-173.3c-6.2,0.2-12.5,0.3-18.7,0.5
			c2.8-8.8,4.9-17.9,6.1-27.1c1.3-0.1,2.5-0.1,3.7-0.1c0.1,1.6,0.3,3.2,0.6,4.8c0.1,0.4,0.4,0.6,0.7,0.6h0.1
			c0.4-0.1,0.7-0.4,0.6-0.8c-0.2-1.5-0.4-3.1-0.5-4.6c2.6-0.1,5.1-0.1,7.5-0.1c2.2,0,4.5,0,6.8,0l0.5,4.4c0,0.4,0.4,0.7,0.8,0.6
			c0.4,0,0.7-0.4,0.6-0.8l-0.5-4.3c1.5,0,3-0.1,4.5-0.2c1,4.5,2,9,3,13.5c1,4.4,1.9,8.8,2.9,13.2
			C-587.3-173.6-593.6-173.4-599.9-173.3z"/>
	</g>
        <g class="st4">
		<g>
			<g>
				<path class="st5" d="M-608.8-178.7h2.8v0.5h-3.4v-8.2h0.5L-608.8-178.7z"/>
			</g>
		</g>
            <g>
			<g>
				<path class="st5" d="M-592.2-185.9h-2.8v3.6h2.4v0.5h-2.4v3.6h-0.5v-8.2h3.4L-592.2-185.9z"/>
			</g>
		</g>
            <g>
			<g>
				<path class="st5" d="M-587.5-186.4v0.5h-1.9v7.7h-0.5v-7.7h-1.9v-0.5H-587.5z"/>
			</g>
		</g>
            <g>
			<g>
				<g>
					<path class="st0" d="M-601.6-186.6c-2.3,0-4.2,1.9-4.2,4.2s1.9,4.2,4.2,4.2s4.2-1.9,4.2-4.2S-599.2-186.6-601.6-186.6z
						 M-597.9-182.4c0,2-1.7,3.7-3.7,3.7s-3.7-1.7-3.7-3.7s1.7-3.7,3.7-3.7C-599.5-186.1-597.9-184.4-597.9-182.4z"/>
				</g>
			</g>
                <g>
				<g>
					<g>
						<path class="st0" d="M-599.1-181.4c-0.2,0.1-0.4,0.3-0.6,0.4s-0.4,0.2-0.6,0.4c-0.2,0.1-0.4,0.2-0.6,0.3
							c-0.2,0.1-0.4,0.2-0.6,0.3l0,0C-600.7-180.5-599.9-180.9-599.1-181.4L-599.1-181.4z"/>
					</g>
				</g>
                    <g>
					<g>
						<path class="st0" d="M-603.8-183.2c0.2-0.1,0.4-0.2,0.5-0.3c0.2-0.1,0.4-0.2,0.5-0.3c0.2-0.1,0.4-0.2,0.5-0.3
							c0.2-0.1,0.4-0.2,0.6-0.3l0,0C-602.3-184.1-603-183.7-603.8-183.2L-603.8-183.2z"/>
					</g>
				</g>
                    <g>
					<g>
						<g>
							<path class="st0" d="M-604.2-180.8c0.9-0.6,1.7-1.1,2.6-1.7c0.9-0.5,1.8-1.1,2.7-1.5c-0.9,0.6-1.7,1.1-2.6,1.7
								C-602.4-181.8-603.3-181.3-604.2-180.8z"/>
						</g>
					</g>
                        <g>
						<g>
							<path class="st0" d="M-599.3-182.7c-0.3,0.2-0.5,0.4-0.8,0.6s-0.6,0.4-0.9,0.6c-0.3,0.2-0.6,0.3-0.9,0.5
								c-0.3,0.2-0.6,0.3-0.9,0.4l0,0C-601.7-181.3-600.5-182-599.3-182.7L-599.3-182.7z"/>
						</g>
					</g>
                        <g>
						<g>
							<path class="st0" d="M-603.8-182.1c0.3-0.2,0.5-0.4,0.8-0.6c0.3-0.2,0.6-0.4,0.9-0.6s0.6-0.3,0.9-0.5
								c0.3-0.2,0.6-0.3,0.9-0.4l0,0C-601.4-183.5-602.6-182.8-603.8-182.1L-603.8-182.1z"/>
						</g>
					</g>
				</g>
			</g>
		</g>
	</g>
        <g>
		<path class="st1" d="M-551.1-151.3h-98c-1.4,0-2.5-1.1-2.5-2.5v-73.5c0-1.4,1.1-2.5,2.5-2.5h98c1.4,0,2.5,1.1,2.5,2.5v73.5
			C-548.6-152.4-549.7-151.3-551.1-151.3z M-649.1-229c-1,0-1.8,0.8-1.8,1.8v73.4c0,1,0.8,1.8,1.8,1.8h98c1,0,1.8-0.8,1.8-1.8v-73.5
			c0-1-0.8-1.8-1.8-1.8L-649.1-229L-649.1-229z"/>
	</g>
        <g>
		<path class="st1" d="M-555.3-162.7h-89.2v-60h89.2V-162.7z M-644-163.2h88.2v-59H-644V-163.2z"/>
	</g>
        <g>
		<rect x="-644.3" y="-159.7" class="st1" width="88.7" height="0.8"/>
	</g>
        <g>
		<rect x="-644.4" y="-157.3" class="st1" width="0.2" height="3"/>
	</g>
        <g>
		<rect x="-643" y="-157.3" class="st1" width="0.2" height="3"/>
	</g>
        <g>
		<rect x="-641.6" y="-157.3" class="st1" width="0.2" height="3"/>
	</g>
        <g>
		<rect x="-640.2" y="-157.3" class="st1" width="0.2" height="3"/>
	</g>
        <g>
		<rect x="-638.8" y="-157.3" class="st1" width="0.2" height="3"/>
	</g>
        <g>
		<g>
			<g>
				<path class="st0" d="M-599.5-155.5L-599.5-155.5l-0.2,0.2l-0.1,0.1l-0.1,0.1l0,0C-599.9-155.3-599.7-155.4-599.5-155.5
					L-599.5-155.5z"/>
			</g>
		</g>
            <g>
			<g>
				<path class="st0" d="M-600.6-156L-600.6-156l0.2-0.2c0,0,0.1,0,0.1-0.1c0,0,0.1,0,0.1-0.1l0,0
					C-600.3-156.2-600.5-156.1-600.6-156L-600.6-156z"/>
			</g>
		</g>
            <g>
			<g>
				<path class="st0" d="M-600.1-156.8c-0.5,0-1,0.4-1,1c0,0.5,0.4,1,1,1c0.5,0,1-0.4,1-1C-599.1-156.3-599.6-156.8-600.1-156.8z
					 M-599.2-155.8c0,0.5-0.4,0.9-0.9,0.9s-0.9-0.4-0.9-0.9s0.4-0.9,0.9-0.9S-599.2-156.2-599.2-155.8z"/>
			</g>
		</g>
            <g>
			<g>
				<g>
					<path class="st0" d="M-600.7-155.4c0.2-0.1,0.4-0.3,0.6-0.4c0.2-0.1,0.4-0.2,0.6-0.4c-0.2,0.1-0.4,0.3-0.6,0.4
						C-600.3-155.6-600.5-155.5-600.7-155.4z"/>
				</g>
			</g>
                <g>
				<g>
					<path class="st0" d="M-599.6-155.8c-0.1,0.1-0.1,0.1-0.2,0.1c-0.1,0-0.1,0.1-0.2,0.1c-0.1,0-0.1,0.1-0.2,0.1
						c-0.1,0-0.1,0.1-0.2,0.1l0,0C-600.1-155.5-599.9-155.7-599.6-155.8L-599.6-155.8z"/>
				</g>
			</g>
                <g>
				<g>
					<path class="st0" d="M-600.6-155.7c0-0.1,0.1-0.1,0.2-0.1s0.1-0.1,0.2-0.1c0.1,0,0.1-0.1,0.2-0.1c0.1,0,0.1-0.1,0.2-0.1l0,0
						C-600.1-156-600.4-155.9-600.6-155.7L-600.6-155.7z"/>
				</g>
			</g>
		</g>
	</g>
</g>
    <g>
	<g>
		<g>
			<g>
				<g>
					<path class="st0" d="M-94.6-170.3c-2.2,0-4-1.8-4-4v-21.4c0-2.2,1.8-4,4-4s4,1.8,4,4v21.5C-90.7-172.1-92.4-170.3-94.6-170.3z
						 M-94.6-197.7c-1.1,0-2,0.9-2,2v21.5c0,1.1,0.9,2,2,2s2-0.9,2-2v-21.5C-92.7-196.8-93.5-197.7-94.6-197.7z"/>
				</g>
			</g>
		</g>
        <g>
			<g>
				<g>
					<path class="st0" d="M-94.6-201.8c-2.2,0-4-1.8-4-4s1.8-4,4-4s4,1.8,4,4C-90.7-203.6-92.4-201.8-94.6-201.8z M-94.6-207.7
						c-1.1,0-2,0.9-2,2s0.9,2,2,2s2-0.9,2-2S-93.5-207.7-94.6-207.7z"/>
				</g>
			</g>
		</g>
	</g>
        <g>
		<g>
			<path class="st1" d="M-94.6-163.6c-14.6,0-26.4-11.8-26.4-26.4s11.8-26.4,26.4-26.4s26.4,11.8,26.4,26.4c0,2.9-0.8,5.6-1.6,8.2
				c-0.3,0.9-0.5,1.8-0.8,2.7c-1,3.9,0.6,13.8,0.6,13.9v0.3h-0.3c-0.1,0-6.6-0.5-9.3-0.1C-83-164.6-91.3-163.6-94.6-163.6z
				 M-94.6-215.9c-14.3,0-25.9,11.6-25.9,25.9s11.6,25.9,25.9,25.9c3.3,0,11.6-0.9,15-1.5c2.5-0.4,7.8,0,9.1,0.1
				c-0.3-1.8-1.5-10.2-0.5-13.8c0.2-0.9,0.5-1.8,0.8-2.7c0.8-2.6,1.5-5.2,1.5-8C-68.7-204.3-80.4-215.9-94.6-215.9z"/>
		</g>
	</g>
        <g>
		<path class="st1" d="M-67.3-150.2h-54.6c-6.9,0-12.5-5.6-12.5-12.5v-54.6c0-6.9,5.6-12.5,12.5-12.5h54.6c6.9,0,12.5,5.6,12.5,12.5
			v54.6C-54.8-155.8-60.4-150.2-67.3-150.2z M-121.9-228.8c-6.4,0-11.5,5.2-11.5,11.5v54.6c0,6.3,5.2,11.5,11.5,11.5h54.6
			c6.3,0,11.5-5.2,11.5-11.5v-54.6c0-6.3-5.2-11.5-11.5-11.5H-121.9z"/>
	</g>
</g>
    <g>
	<g>
		<path class="st0" d="M-296.6-209.9l-17.3,1.9l16.7,1.9l0,0L-296.6-209.9L-296.6-209.9z"/>
	</g>
        <g>
		<g>
			<path class="st1" d="M-293.1-171.7c-5.2,0-10,5-10,10.3s4.8,10.3,10,10.3s10-5,10-10.3S-287.5-171.7-293.1-171.7z M-293.1-152.3
				c-4.8,0-8.9-4.1-8.9-9.2c0-0.1,0-0.2,0-0.3s0-0.1,0-0.2s0-0.2,0.1-0.3c0.4-4.6,4.2-8.3,8.9-8.3c5.2,0,8.9,3.7,8.9,9.2
				C-284.2-156.4-288.2-152.3-293.1-152.3z"/>
		</g>
	</g>
        <g>
		<g>
			<path class="st1" d="M-215.7-171.9c-5.2,0-10,5-10,10.3c0,5.5,4.8,10.3,10,10.3s10-5,10-10.3S-210.1-171.9-215.7-171.9z
				 M-206.9-161.5c0,5-4,9.2-8.9,9.2s-8.9-4.1-8.9-9.2c0-5.1,4-9.2,8.9-9.2C-210.5-170.7-206.9-166.9-206.9-161.5z"/>
		</g>
	</g>
        <g>
		<g>
			<g>
				<g>
					<path class="st1" d="M-302.7-161h-15c-1.4,0-2.6-1.2-2.6-2.6c-0.1-9.8-0.2-57.9-0.2-59.2c0-3.5,2.9-6.4,6.5-6.4l62.3-0.5
						c0,0,0,0,0.1,0c1.6,0,3.1,0.6,4.3,1.9c1.2,1.1,1.8,2.5,1.8,4.2c0.2,29.1,0.3,50.4,0.3,61.7v0.5l-38.9,0.3v-1l38-0.3
						c0-11.4-0.1-32.6-0.3-61.3c0-1.4-0.5-2.6-1.5-3.6s-2.2-1.5-3.6-1.5l-62.6,0.6c-3,0-5.4,2.5-5.5,5.5c0,1.2,0.1,49.3,0.2,59.1
						c0,0.9,0.7,1.6,1.6,1.6h15L-302.7-161L-302.7-161z"/>
				</g>
			</g>
            <g>
				<path class="st1" d="M-205.7-189.6l-8.5-18c-0.8-1.7-2.6-2.9-4.5-2.9h-27.5v-1h27.5c2.3,0,4.4,1.3,5.4,3.4l8.5,17.9
					L-205.7-189.6z"/>
			</g>
		</g>
            <g>
			<path class="st1" d="M-190.2-161.1L-190.2-161.1c-4.6-0.2-9.6-0.4-15.7-0.4v-1c6.1,0,11.1,0.1,15.6,0.4c0.3,0,0.6-0.1,0.8-0.3
				s0.3-0.5,0.3-0.8l-0.5-17.6c0-0.4-0.2-0.7-0.6-0.9l-15.2-7.8l0.5-0.9l15.2,7.8c0.7,0.3,1.1,1,1.1,1.9l0.5,17.5
				c0,0.6-0.2,1.1-0.6,1.5C-189.3-161.3-189.8-161.1-190.2-161.1z"/>
		</g>
            <g>
			<rect x="-246.2" y="-162.5" class="st1" width="21.7" height="1"/>
		</g>
	</g>
        <g>
		<path class="st1" d="M-218.4-190.1h-19.7c-1,0-1.8-0.8-1.8-2v-10c0-1,0.8-2,1.8-2h15.4c0.7,0,1.4,0.4,1.7,1.1l4.2,10.2
			c0.2,0.6,0.2,1.3-0.2,1.9C-217.3-190.4-217.8-190.1-218.4-190.1z M-238-203.5c-0.7,0-1.3,0.6-1.3,1.4v10.1c0,0.8,0.6,1.4,1.3,1.4
			h19.7c0.4,0,0.8-0.2,1.1-0.6c0.3-0.4,0.3-0.9,0.1-1.3l-4.2-10.2c-0.2-0.5-0.7-0.8-1.2-0.8C-222.5-203.5-238-203.5-238-203.5z"/>
	</g>
        <g>
		<rect x="-200.3" y="-170.4" class="st1" width="11.3" height="1"/>
	</g>
        <g>
		<rect x="-239.5" y="-181.5" class="st1" width="4.2" height="1"/>
	</g>
        <g>
		<g>
			<path class="st0" d="M-279.1-190.2L-279.1-190.2L-279.1-190.2l-3.8-3.5l0,0l-6.5-5.9l4-4.4l5.8,6.4l13-15.2l4.4,4L-279.1-190.2z
				 M-282-193.8l2.8,2.6l16.1-17.6l-3.3-3l-13,15.3l-5.8-6.4l-2.9,3.3L-282-193.8L-282-193.8z"/>
		</g>
	</g>
        <g>
		<g>
			<g>
				<g>
					<g>
						<path class="st0" d="M-287.2-159.2c-0.4,0.3-1,0.6-1.4,1c-0.4,0.3-1,0.6-1.5,0.9s-1,0.6-1.5,0.8c-0.5,0.3-1,0.6-1.5,0.8l0,0
							C-291-156.9-289.1-158-287.2-159.2L-287.2-159.2z"/>
					</g>
				</g>
			</g>
		</g>
            <g>
			<g>
				<g>
					<g>
						<path class="st0" d="M-298.6-163.8c0.4-0.3,0.9-0.6,1.3-0.9c0.4-0.3,0.9-0.6,1.3-0.8c0.4-0.3,0.9-0.5,1.3-0.8s0.9-0.5,1.4-0.8
							l0,0C-295-166-296.8-164.8-298.6-163.8L-298.6-163.8z"/>
					</g>
				</g>
			</g>
		</g>
            <g>
			<g>
				<g>
					<g>
						<g>
							<path class="st0" d="M-299.8-157.7c2.1-1.5,4.3-2.8,6.5-4.1s4.5-2.6,6.7-3.8c-2.1,1.5-4.3,2.8-6.5,4.1
								C-295.1-160.3-297.5-159-299.8-157.7z"/>
						</g>
					</g>
				</g>
			</g>
                <g>
				<g>
					<g>
						<g>
							<path class="st0" d="M-287.5-162.5c-0.7,0.6-1.3,1.1-2.1,1.5c-0.7,0.5-1.5,1-2.2,1.4s-1.5,0.9-2.2,1.3
								c-0.8,0.4-1.5,0.8-2.4,1.1v-0.1C-293.5-159.1-290.5-160.7-287.5-162.5L-287.5-162.5z"/>
						</g>
					</g>
				</g>
			</g>
                <g>
				<g>
					<g>
						<g>
							<path class="st0" d="M-298.6-161c0.7-0.6,1.3-1.1,2.1-1.5c0.7-0.5,1.5-1,2.2-1.4c0.8-0.4,1.5-0.9,2.2-1.3
								c0.8-0.4,1.5-0.8,2.4-1.1v0.1C-292.8-164.6-295.8-162.8-298.6-161L-298.6-161z"/>
						</g>
					</g>
				</g>
			</g>
		</g>
	</g>
        <g>
		<g>
			<g>
				<g>
					<g>
						<path class="st0" d="M-209.8-158.9c-0.4,0.3-1,0.6-1.4,1c-0.4,0.3-1,0.6-1.5,0.9s-1,0.6-1.5,0.8c-0.5,0.3-1,0.6-1.5,0.8l0,0
							C-213.6-156.6-211.6-157.7-209.8-158.9L-209.8-158.9z"/>
					</g>
				</g>
			</g>
		</g>
            <g>
			<g>
				<g>
					<g>
						<path class="st0" d="M-221.2-163.5c0.4-0.3,0.9-0.6,1.3-0.9c0.4-0.3,0.9-0.6,1.3-0.8c0.4-0.3,0.9-0.5,1.3-0.8
							c0.4-0.3,0.9-0.5,1.4-0.8l0,0C-217.6-165.7-219.4-164.6-221.2-163.5L-221.2-163.5z"/>
					</g>
				</g>
			</g>
		</g>
            <g>
			<g>
				<g>
					<g>
						<g>
							<path class="st0" d="M-222.4-157.4c2.1-1.5,4.3-2.8,6.5-4.1s4.5-2.6,6.7-3.8c-2.1,1.5-4.3,2.8-6.5,4.1
								C-217.8-160-220.1-158.7-222.4-157.4z"/>
						</g>
					</g>
				</g>
			</g>
                <g>
				<g>
					<g>
						<g>
							<path class="st0" d="M-210.1-162.2c-0.7,0.6-1.3,1.1-2.1,1.5c-0.7,0.5-1.5,1-2.2,1.4c-0.8,0.4-1.5,0.9-2.2,1.3
								c-0.8,0.4-1.5,0.8-2.4,1.1v-0.1C-216.1-158.7-213.1-160.5-210.1-162.2L-210.1-162.2z"/>
						</g>
					</g>
				</g>
			</g>
                <g>
				<g>
					<g>
						<g>
							<path class="st0" d="M-221.3-160.7c0.7-0.6,1.3-1.1,2.1-1.5c0.7-0.5,1.5-1,2.2-1.4c0.8-0.4,1.5-0.9,2.2-1.3
								c0.8-0.4,1.5-0.8,2.4-1.1v0.1C-215.3-164.3-218.4-162.5-221.3-160.7L-221.3-160.7z"/>
						</g>
					</g>
				</g>
			</g>
		</g>
	</g>
        <g>
		<g>
			<path class="st0" d="M-253.2-210.2c-1.8-3.6-4.5-6.6-7.5-8.8c-2.9-2-6.5-3.8-10.1-4.7c-0.9,0-1.8-0.3-2.7-0.3c-0.3,0-0.9,0-1.2,0
				h-0.9c-0.3,0-0.3,0-0.9,0h-5.4H-293l-42.7,0.6l43,0.9l10.7,0.3h5.4c0.3,0,0.3,0,0.9,0h0.3c0.3,0,0.9,0,1.2,0
				c0.9,0,1.8,0.3,2.7,0.3c3,0.9,6.3,2.7,8.8,4.8c2.4,2.1,4.5,4.8,6.3,7.8c1.2,3,2.1,6.3,1.8,9.7c0,3-0.9,6.6-2.7,9.4
				c-3,5.8-8.8,10.2-14.9,11.3c-3,0.3-6.3,0.3-9.3-0.3c-3-0.9-5.7-2.1-8.4-4.5c-2.1-2.1-4.5-4.5-5.7-7.5c-0.3-0.9-0.9-2.1-1.2-3.9
				c0-0.3,0-0.9,0-1.2s0-0.9,0-1.2s0-0.9,0-1.2v-0.3v-0.6v-0.3c0,0,0,0,0-0.3c0,0,0,0,0-0.3h-7.8v0.3l0,0l0,0l0,0v0.3v0.9
				c0,0.3,0,0.9,0,1.9c0,0.3,0,0.9,0.3,1.2c0,0.3,0,0.9,0.3,1.2c0.3,2.1,1.2,3.9,2.1,5.8c1.8,3.6,4.5,6.9,7.8,9.4
				c3,2.7,6.9,4.5,11,5.5c3.9,0.9,7.8,0.9,11.9,0c7.8-1.9,14.3-7.5,17.9-14.3c1.8-3.6,2.7-7.5,2.7-11.3
				C-250.6-203.3-251.5-207.3-253.2-210.2z"/>
		</g>
	</g>
        <g>
		<path class="st0" d="M-296.3-216.7l-26,1.9l26,1.9l0,0V-216.7L-296.3-216.7z"/>
	</g>
</g>
    <line class="st7" x1="-678.6" y1="-229.8" x2="-16" y2="-229.8"/>
    <line class="st7" x1="-666.7" y1="-150.2" x2="-15.3" y2="-150.2"/>
</svg>
