<?xml version="1.0" encoding="utf-8"?>
<!-- Generator: Adobe Illustrator 25.0.1, SVG Export Plug-In . SVG Version: 6.00 Build 0)  -->
<svg version="1.1" id="Слой_1" xmlns="http://www.w3.org/2000/svg" xmlns:xlink="http://www.w3.org/1999/xlink" x="0px" y="0px"
     viewBox="0 0 103 78.5" style="enable-background:new 0 0 103 78.5;" xml:space="preserve">
<style type="text/css">
	.st0{fill:#0097AE;}
	.st1{fill:#FFFFFF;}
	.st2{fill:none;stroke:#000000;stroke-miterlimit:10;}
	.st3{opacity:0.69;enable-background:new    ;}
	.st4{opacity:0.6;}
	.st5{fill:#1D1D1B;}
	.st6{fill:none;stroke:#000000;stroke-width:0.5;stroke-miterlimit:10;}
	.st7{fill:none;stroke:#E62A3E;stroke-miterlimit:10;}
</style>
    <g>
	<path class="st0" d="M392.1,411.7c0,32.2-26.8,59.1-59.8,59.1c-32.2,0-59.8-27.6-59.1-59.8c0.8-33,26.8-59.8,59.8-59.8
		C365.2,351.9,392.1,379.5,392.1,411.7z M362.1,381c-13.8,14.6-27.6,28.4-43,43.7c-5.4-6.9-10.7-13-16.1-19.2
		c-4.6,4.6-7.7,8.4-11.5,12.3c10,9.2,19.9,19.2,29.1,28.4c17.6-17.6,35.3-35.3,52.9-53.7C370.6,389.4,366.7,385.6,362.1,381z"/>
        <path class="st1" d="M362.1,381c4.6,4.6,8.4,8.4,11.5,11.5c-18.4,18.4-36.1,36.1-52.9,53.7c-9.2-9.2-19.2-19.2-28.4-28.4
		c3.1-3.8,6.9-6.9,11.5-12.3c5.4,6.1,10.7,12.3,16.1,19.2C334.5,409.4,348.3,395.6,362.1,381z"/>
</g>
    <path d="M524.7,257.3H367.8c-14.3,0-26,11.7-26,26v5.9v33.9h9.8h78.8h111.3V385c0,9.1-7.2,16.3-16.3,16.3h-95.1v9.8h94.4
	c14.3,0,26-11.7,26-26v-61.9v-33.9v-5.9C550.8,269,539,257.3,524.7,257.3z M541,313.3H350.9V299H541V313.3L541,313.3z M541,289.2
	H350.9v-5.9c0-9.1,7.2-16.3,16.3-16.3h157.5c9.1,0,16.3,7.2,16.3,16.3L541,289.2L541,289.2z"/>
    <g>
	<path d="M505.8,394c-4.6,0-8.5-1.3-11.7-3.9c-3.3,2.6-7.8,3.9-11.7,3.9c-11.1,0-20.2-9.1-20.2-20.2s9.1-20.2,20.2-20.2
		c4.6,0,8.5,1.3,11.7,3.9c3.3-2.6,7.8-3.9,11.7-3.9c11.1,0,20.2,9.1,20.2,20.2C526.7,384.9,517.5,394,505.8,394z M494.1,377.1
		l3.3,3.9c2,2.6,5.2,3.9,8.5,3.9c6.5,0,11.7-5.2,11.7-11.7s-5.2-11.7-11.7-11.7c-3.3,0-6.5,1.3-8.5,3.9l-3.3,3.9l-3.3-3.9
		c-2-2.6-5.2-3.9-8.5-3.9c-6.5,0-11.7,5.2-11.7,11.7s5.2,11.7,11.7,11.7c3.3,0,6.5-1.3,8.5-3.9L494.1,377.1z"/>
</g>
    <g>
	<path d="M489.5,377.1c-0.7,0.7-1.3,0.7-2,1.3s-1.3,0.7-2,1.3c-0.7,0.7-1.3,0.7-2,1.3s-1.3,0.7-2,1.3l0,0
		C484.3,379.7,486.9,378.4,489.5,377.1L489.5,377.1z"/>
</g>
    <g>
	<path d="M474.6,370.6c0.7-0.7,1.3-0.7,2-1.3c0.7-0.7,1.3-0.7,2-1.3s1.3-0.7,2-1.3c0.7-0.7,1.3-0.7,2-1.3l0,0
		C479.1,368,477.2,369.3,474.6,370.6L474.6,370.6z"/>
</g>
    <g>
	<g>
		<path d="M473.3,379c2.6-2,5.9-3.9,8.5-5.2c2.6-2,5.9-3.3,9.1-5.2c-2.6,2-5.9,3.9-8.5,5.2C479.1,375.8,475.9,377.1,473.3,379z"/>
	</g>
        <g>
		<path d="M488.9,372.5c-0.7,0.7-2,1.3-2.6,2c-0.7,0.7-2,1.3-2.6,2c-1.3,0.7-2,1.3-3.3,2s-2,1.3-3.3,1.3l0,0
			C481.1,377.1,485,375.1,488.9,372.5L488.9,372.5z"/>
	</g>
        <g>
		<path d="M474.6,374.5c0.7-0.7,2-1.3,2.6-2c0.7-0.7,2-1.3,2.6-2c1.3-0.7,2-1.3,3.3-2s2-1.3,3.3-1.3l0,0
			C482.4,369.9,478.5,372.5,474.6,374.5L474.6,374.5z"/>
	</g>
</g>
    <g>
	<path d="M513.6,377.1c-0.7,0.7-1.3,0.7-2,1.3c-0.7,0.7-1.3,0.7-2,1.3c-0.7,0.7-1.3,0.7-2,1.3s-1.3,0.7-2,1.3l0,0
		C508.4,379.7,511,378.4,513.6,377.1L513.6,377.1z"/>
</g>
    <g>
	<path d="M498.7,370.6c0.7-0.7,1.3-0.7,2-1.3c0.7-0.7,1.3-0.7,2-1.3s1.3-0.7,2-1.3c0.7-0.7,1.3-0.7,2-1.3l0,0
		C503.2,368,500.6,369.3,498.7,370.6L498.7,370.6z"/>
</g>
    <g>
	<g>
		<path d="M496.7,379c2.6-2,5.9-3.9,8.5-5.2c2.6-2,5.9-3.3,9.1-5.2c-2.6,2-5.9,3.9-8.5,5.2C503.2,375.8,500,377.1,496.7,379z"/>
	</g>
        <g>
		<path d="M513,372.5c-0.7,0.7-2,1.3-2.6,2c-0.7,0.7-2,1.3-2.6,2c-1.3,0.7-2,1.3-3.3,2s-2,1.3-3.3,1.3l0,0
			C505.2,377.1,509.1,375.1,513,372.5L513,372.5z"/>
	</g>
        <g>
		<path d="M498,374.5c0.7-0.7,2-1.3,2.6-2c0.7-0.7,2-1.3,2.6-2c1.3-0.7,2-1.3,3.3-2s2-1.3,3.3-1.3l0,0
			C505.8,369.9,502.6,372.5,498,374.5L498,374.5z"/>
	</g>
</g>
    <g>
	<g>
		<path class="st0" d="M185.9,401.6c-9.5,0-17.3,7.7-17.3,17.3s7.7,17.3,17.3,17.3s17.3-7.7,17.3-17.3S195.4,401.6,185.9,401.6z
			 M201,418.9c0,8.3-6.8,15.1-15.1,15.1s-15.1-6.8-15.1-15.1s6.8-15.2,15.1-15.2S201,410.6,201,418.9z"/>
	</g>
</g>
    <g>
	<g>
		<g>
			<path class="st0" d="M272.6,486.5c-0.7,0.5-1.6,1.1-2.3,1.6s-1.6,1-2.4,1.5c-0.8,0.4-1.6,1-2.4,1.4s-1.7,1-2.4,1.4l0,0
				C266.2,490.3,269.5,488.4,272.6,486.5L272.6,486.5z"/>
		</g>
	</g>
        <g>
		<g>
			<path class="st0" d="M253.6,478.9c0.7-0.5,1.5-1,2.2-1.5c0.7-0.4,1.5-1,2.2-1.4s1.5-0.8,2.2-1.3c0.7-0.4,1.5-0.8,2.3-1.3l0,0
				C259.7,475.3,256.7,477.1,253.6,478.9L253.6,478.9z"/>
		</g>
	</g>
        <g>
		<g>
			<path class="st0" d="M262.7,465c-9.5,0-17.3,7.7-17.3,17.3s7.7,17.3,17.3,17.3c9.6,0,17.3-7.7,17.3-17.3S272.2,465,262.7,465z
				 M277.8,482.3c0,8.3-6.8,15.1-15.1,15.1c-8.3,0-15.1-6.8-15.1-15.1s6.8-15.2,15.1-15.2C271.1,467.1,277.8,474,277.8,482.3z"/>
		</g>
	</g>
        <g>
		<g>
			<g>
				<path class="st0" d="M251.7,488.9c3.5-2.4,7.2-4.6,10.8-6.9c3.7-2.1,7.4-4.3,11.2-6.3c-3.5,2.4-7.2,4.6-10.8,6.9
					C259.2,484.7,255.5,487,251.7,488.9z"/>
			</g>
		</g>
            <g>
			<g>
				<path class="st0" d="M272,481.1c-1.2,1-2.2,1.8-3.5,2.5c-1.2,0.8-2.4,1.6-3.6,2.3c-1.3,0.7-2.4,1.5-3.7,2.1
					c-1.3,0.6-2.5,1.3-3.9,1.8l0,0C262.2,486.8,267.1,484,272,481.1L272,481.1z"/>
			</g>
		</g>
            <g>
			<g>
				<path class="st0" d="M253.4,483.5c1.2-1,2.2-1.8,3.5-2.5c1.2-0.8,2.4-1.6,3.6-2.3c1.3-0.7,2.4-1.5,3.7-2.1
					c1.3-0.6,2.5-1.3,3.9-1.8v0.1C263.3,477.7,258.4,480.6,253.4,483.5L253.4,483.5z"/>
			</g>
		</g>
	</g>
</g>
    <polygon class="st2" points="66,428.6 55.4,418.9 18.9,461.2 2.7,443.5 -7.1,454.1 10.9,470.6 10.9,470.6 20.1,478.9 20.1,478.9
	20.1,478.9 27.6,470.7 27.6,470.7 "/>
    <g>
	<g>
		<path class="st1" d="M351.4-69.6h-38.7v-0.3h38.7c6.3,0,11.4-5.1,11.4-11.4v-46.8c0-6.3-5.1-11.4-11.4-11.4h-72
			c-6.2,0-11.3,5.1-11.3,11.4v12.8h-0.4v-12.8c0-6.5,5.3-11.7,11.7-11.7h72c6.5,0,11.7,5.3,11.7,11.7v46.8
			C363.1-74.9,357.8-69.6,351.4-69.6z"/>
        <path class="st1" d="M351.4-69.4h-39v-0.8h39c6.1,0,11.1-5,11.1-11.1v-46.8c0-6.1-5-11.1-11.1-11.1h-72c-6.1,0-11.1,5-11.1,11.1
			v13.1h-0.8v-13.1c0-6.6,5.4-12,12-12h71.9c6.6,0,12,5.4,12,12v46.8C363.3-74.8,358-69.4,351.4-69.4z"/>
	</g>
</g>
    <g>
	<rect x="267.9" y="-129.5" class="st1" width="95" height="0.3"/>
</g>
    <g>
	<rect x="267.9" y="-124.9" class="st1" width="95" height="0.3"/>
</g>
    <g>
	<path class="st1" d="M348-74.4c-2.9,0-5.7-1.4-7.5-3.7c-1.8,2.3-4.5,3.7-7.5,3.7c-5.2,0-9.3-4.2-9.3-9.3c0-5.2,4.2-9.3,9.3-9.3
		c2.9,0,5.7,1.4,7.5,3.7c1.8-2.3,4.5-3.7,7.5-3.7c5.2,0,9.3,4.2,9.3,9.3S353.2-74.4,348-74.4z M340.5-78.7l0.1,0.2
		c1.7,2.4,4.4,3.8,7.3,3.8c5,0,9-4,9-9s-4-9-9-9c-2.9,0-5.6,1.4-7.3,3.8l-0.1,0.2l-0.1-0.3c-1.7-2.4-4.4-3.8-7.3-3.8c-5,0-9,4-9,9
		s4,9,9,9c2.9,0,5.6-1.4,7.3-3.8L340.5-78.7z"/>
</g>
    <g>
	<g>
		<g>
			<g>
				<path class="st0" d="M353.8-81.5c-0.4,0.3-1,0.6-1.4,1c-0.4,0.3-1,0.6-1.5,0.9s-1,0.6-1.5,0.8c-0.5,0.3-1,0.6-1.5,0.8l0,0
					C349.9-79.2,351.9-80.4,353.8-81.5L353.8-81.5z"/>
			</g>
		</g>
	</g>
        <g>
		<g>
			<g>
				<path class="st0" d="M342.3-86.1c0.4-0.3,0.9-0.6,1.3-0.9s0.9-0.6,1.3-0.8c0.4-0.3,0.9-0.5,1.3-0.8c0.4-0.3,0.9-0.5,1.4-0.8l0,0
					C346-88.2,344.2-87.2,342.3-86.1L342.3-86.1z"/>
			</g>
		</g>
	</g>
        <g>
		<g>
			<g>
				<g>
					<path class="st0" d="M341.2-80.1c2.1-1.5,4.3-2.8,6.5-4.1c2.2-1.3,4.5-2.6,6.7-3.8c-2.1,1.5-4.3,2.8-6.5,4.1
						C345.7-82.6,343.5-81.2,341.2-80.1z"/>
				</g>
			</g>
		</g>
            <g>
			<g>
				<g>
					<path class="st0" d="M353.4-84.7c-0.7,0.6-1.3,1.1-2.1,1.5c-0.7,0.5-1.5,1-2.2,1.4c-0.8,0.4-1.5,0.9-2.2,1.3
						c-0.8,0.4-1.5,0.8-2.4,1.1v-0.1C347.5-81.3,350.4-83,353.4-84.7L353.4-84.7z"/>
				</g>
			</g>
		</g>
            <g>
			<g>
				<g>
					<path class="st0" d="M342.2-83.3c0.7-0.6,1.3-1.1,2.1-1.5c0.7-0.5,1.5-1,2.2-1.4c0.8-0.4,1.5-0.9,2.2-1.3
						c0.7-0.4,1.5-0.8,2.4-1.1v0.1C348.1-86.8,345.2-85.1,342.2-83.3L342.2-83.3z"/>
				</g>
			</g>
		</g>
	</g>
</g>
    <g>
	<path class="st1" d="M284.9-61.4c-14.6,0-26.5-11.9-26.5-26.5s11.9-26.5,26.5-26.5c14.6,0,26.5,11.9,26.5,26.5
		S299.5-61.4,284.9-61.4z M284.9-114c-14.4,0-26,11.7-26,26s11.7,26,26,26c14.4,0,26-11.7,26-26S299.3-114,284.9-114z"/>
</g>
    <g>
	<path class="st0" d="M280.1-73.6L280.1-73.6L280.1-73.6l-4.8-4.4l0,0l-8.2-7.5l5.1-5.5l7.4,8.1l16.5-19.2l5.5,5L280.1-73.6z
		 M276.5-78.1l3.5,3.2l20.3-22.2l-4.2-3.8l-16.5,19.3l-7.4-8.1l-3.8,4.1L276.5-78.1L276.5-78.1z"/>
</g>
    <rect x="-427.7" y="-618.6" class="st3" width="661.3" height="249.3"/>
    <g>
	<g>
		<g>
			<path class="st1" d="M184.6-304.1h-38.7v-0.3h38.7c6.3,0,11.4-5.1,11.4-11.4v-46.8c0-6.3-5.1-11.4-11.4-11.4h-71.9
				c-6.3,0-11.4,5.1-11.4,11.4v12.8H101v-12.8c0-6.5,5.3-11.7,11.7-11.7h71.9c6.5,0,11.7,5.3,11.7,11.7v46.8
				C196.3-309.3,191.1-304.1,184.6-304.1z"/>
            <path class="st1" d="M184.6-303.8h-38.9v-0.8h38.9c6.1,0,11.1-5,11.1-11.1v-46.8c0-6.1-5-11.1-11.1-11.1h-71.9
				c-6.1,0-11.1,5-11.1,11.1v13.1h-0.9v-13.1c0-6.6,5.4-12,12-12h71.9c6.6,0,12,5.4,12,12v46.8C196.6-309.2,191.2-303.8,184.6-303.8
				z"/>
		</g>
	</g>
        <g>
		<rect x="101.1" y="-363.9" class="st1" width="95" height="0.3"/>
	</g>
        <g>
		<rect x="101.1" y="-359.4" class="st1" width="95" height="0.3"/>
	</g>
        <g>
		<path class="st1" d="M181.2-308.8c-2.9,0-5.7-1.4-7.5-3.7c-1.8,2.3-4.5,3.7-7.5,3.7c-5.2,0-9.3-4.2-9.3-9.3c0-5.2,4.2-9.3,9.3-9.3
			c2.9,0,5.7,1.4,7.5,3.7c1.8-2.3,4.5-3.7,7.5-3.7c5.2,0,9.3,4.2,9.3,9.3C190.6-313,186.4-308.8,181.2-308.8z M173.8-313.1l0.1,0.2
			c1.7,2.4,4.4,3.8,7.3,3.8c5,0,9-4,9-9s-4-9-9-9c-2.9,0-5.6,1.4-7.3,3.8l-0.1,0.2l-0.1-0.2c-1.7-2.4-4.4-3.8-7.3-3.8c-5,0-9,4-9,9
			s4,9,9,9c2.9,0,5.6-1.4,7.3-3.8L173.8-313.1z"/>
	</g>
        <g>
		<g>
			<g>
				<g>
					<path class="st0" d="M187-315.9c-0.4,0.3-1,0.6-1.4,1c-0.4,0.3-1,0.6-1.5,0.9s-1,0.6-1.5,0.8c-0.5,0.3-1,0.6-1.5,0.8l0,0
						C183.2-313.6,185.1-314.8,187-315.9L187-315.9z"/>
				</g>
			</g>
		</g>
            <g>
			<g>
				<g>
					<path class="st0" d="M175.6-320.5c0.4-0.3,0.9-0.6,1.3-0.9c0.4-0.3,0.9-0.6,1.3-0.8c0.4-0.3,0.9-0.5,1.3-0.8
						c0.4-0.3,0.9-0.5,1.4-0.8l0,0C179.2-322.7,177.4-321.6,175.6-320.5L175.6-320.5z"/>
				</g>
			</g>
		</g>
            <g>
			<g>
				<g>
					<g>
						<path class="st0" d="M174.4-314.5c2.1-1.5,4.3-2.8,6.5-4.1c2.2-1.3,4.5-2.6,6.7-3.8c-2.1,1.5-4.3,2.8-6.5,4.1
							C179-317,176.7-315.7,174.4-314.5z"/>
					</g>
				</g>
			</g>
                <g>
				<g>
					<g>
						<path class="st0" d="M186.7-319.2c-0.7,0.6-1.3,1.1-2.1,1.5c-0.7,0.5-1.5,1-2.2,1.4c-0.8,0.4-1.5,0.9-2.2,1.3
							c-0.8,0.4-1.5,0.8-2.4,1.1v-0.1C180.7-315.7,183.7-317.5,186.7-319.2L186.7-319.2z"/>
					</g>
				</g>
			</g>
                <g>
				<g>
					<g>
						<path class="st0" d="M175.5-317.8c0.7-0.6,1.3-1.1,2.1-1.5c0.7-0.5,1.5-1,2.2-1.4c0.8-0.4,1.5-0.9,2.2-1.3
							c0.8-0.4,1.5-0.8,2.4-1.1v0.1C181.4-321.3,178.4-319.5,175.5-317.8L175.5-317.8z"/>
					</g>
				</g>
			</g>
		</g>
	</g>
        <g>
		<path class="st1" d="M118.1-295.8c-14.6,0-26.5-11.9-26.5-26.5s11.9-26.5,26.5-26.5s26.5,11.9,26.5,26.5S132.8-295.8,118.1-295.8z
			 M118.1-348.4c-14.4,0-26,11.7-26,26s11.7,26,26,26c14.4,0,26-11.7,26-26S132.5-348.4,118.1-348.4z"/>
	</g>
        <g>
		<path class="st0" d="M113.4-308.1L113.4-308.1L113.4-308.1l-4.8-4.4l0,0l-8.2-7.5l5.1-5.5l7.4,8.1l16.5-19.2l5.5,5L113.4-308.1z
			 M109.7-312.6l3.5,3.2l20.3-22.2l-4.2-3.8l-16.6,19.3l-7.4-8.1l-3.8,4.1L109.7-312.6L109.7-312.6z"/>
	</g>
</g>
    <g>
	<g>
		<g>
			<path d="M828.8-216.5c-21.9,0-39.6-17.8-39.6-39.6c0-21.9,17.8-39.6,39.6-39.6s39.6,17.8,39.6,39.6
				C868.5-234.3,850.7-216.5,828.8-216.5z M828.8-295.1c-21.4,0-38.9,17.5-38.9,38.9s17.5,38.9,38.9,38.9s38.9-17.4,38.9-38.9
				C867.7-277.6,850.3-295.1,828.8-295.1z"/>
		</g>
	</g>
        <g>
		<g>
			<g>
				<path class="st0" d="M828.8-236.5c-2.2,0-4-1.8-4-4V-262c0-2.2,1.8-4,4-4s4,1.8,4,4v21.5C832.8-238.2,831-236.5,828.8-236.5z
					 M828.8-263.9c-1.1,0-2,0.9-2,2v21.5c0,1.1,0.9,2,2,2s2-0.9,2-2v-21.5C830.8-263,829.9-263.9,828.8-263.9z"/>
			</g>
		</g>
            <g>
			<g>
				<path class="st0" d="M828.8-268c-2.2,0-4-1.8-4-4s1.8-4,4-4s4,1.8,4,4C832.8-269.7,831-268,828.8-268z M828.8-273.9
					c-1.1,0-2,0.9-2,2s0.9,2,2,2s2-0.9,2-2S829.9-273.9,828.8-273.9z"/>
			</g>
		</g>
	</g>
        <g>
		<path d="M828.8-229.8c-14.6,0-26.4-11.8-26.4-26.4c0-14.6,11.8-26.4,26.4-26.4c14.6,0,26.4,11.8,26.4,26.4c0,2.9-0.8,5.6-1.6,8.2
			c-0.3,0.9-0.5,1.8-0.8,2.7c-1,3.9,0.6,13.8,0.6,13.9v0.3h-0.3c-0.1,0-6.6-0.5-9.3-0.1C840.5-230.7,832.2-229.8,828.8-229.8z
			 M828.8-282.1c-14.3,0-25.9,11.6-25.9,25.9s11.6,25.9,25.9,25.9c3.3,0,11.6-0.9,15-1.5c2.5-0.4,7.8,0,9.1,0.1
			c-0.3-1.8-1.5-10.2-0.5-13.8c0.2-0.9,0.5-1.8,0.8-2.7c0.8-2.6,1.5-5.2,1.5-8C854.7-270.5,843.1-282.1,828.8-282.1z"/>
	</g>
</g>
    <g>
	<g>
		<path class="st0" d="M41.2-318.7c-1.1-4.7-2.1-9.4-3.1-14.1s-2.1-9.4-3.1-14.1l-0.1-0.6h-0.6c-1.8,0.1-3.5,0.2-5.2,0.2l-0.4-3.3
			c-0.2-1.8-0.5-3.9-1.6-5.7c-1.2-1.8-3.2-3.1-5.4-3.3c-2.7-0.2-5.4,1.1-7.3,3.5c-1.5,1.9-2.4,4.6-2.5,7.6c0,0.5,0,1,0,1.5
			c-1.4,0.1-2.9,0.1-4.4,0.2H6.9l-0.2,0.6c-1.3,9.6-3.5,19.2-6.5,28.4l-0.3,1h1c6.6-0.2,13.2-0.3,19.8-0.5s13.2-0.3,19.8-0.5h0.9
			L41.2-318.7z M13.3-348.4c0.1-2.7,0.9-5,2.2-6.8c1.5-1.9,3.8-3.1,6-2.9c1.7,0.1,3.4,1.2,4.3,2.6c0.9,1.5,1.2,3.4,1.4,5.1l0.4,3.2
			c-2.3,0-4.5,0-6.7,0c-2.5,0-5,0-7.6,0.1C13.2-347.5,13.2-348,13.3-348.4z M20.7-318.8c-6.3,0.2-12.5,0.3-18.7,0.5
			c2.8-8.8,4.9-17.9,6.1-27.1c1.3-0.1,2.5-0.1,3.7-0.1c0.1,1.6,0.3,3.2,0.6,4.8c0.1,0.4,0.4,0.6,0.7,0.6h0.1
			c0.4-0.1,0.7-0.4,0.6-0.8c-0.2-1.5-0.4-3.1-0.5-4.6c2.6-0.1,5.1-0.1,7.5-0.1c2.2,0,4.5,0,6.8,0l0.5,4.4c0,0.4,0.4,0.7,0.8,0.6
			c0.4,0,0.7-0.4,0.6-0.8l-0.5-4.3c1.5,0,3-0.1,4.5-0.2c1,4.5,2,9,3,13.5c1,4.4,1.9,8.8,2.9,13.2C33.3-319.1,27-318.9,20.7-318.8z"
        />
	</g>
        <g class="st4">
		<g>
			<g>
				<path class="st5" d="M11.8-324.2h2.8v0.5h-3.4v-8.2h0.5L11.8-324.2z"/>
			</g>
		</g>
            <g>
			<g>
				<path class="st5" d="M28.3-331.3h-2.8v3.6h2.4v0.5h-2.4v3.6H25v-8.2h3.4L28.3-331.3z"/>
			</g>
		</g>
            <g>
			<g>
				<path class="st5" d="M33.1-331.9v0.5h-1.9v7.7h-0.5v-7.7h-1.9v-0.5H33.1z"/>
			</g>
		</g>
            <g>
			<g>
				<g>
					<path class="st0" d="M19-332.1c-2.3,0-4.2,1.9-4.2,4.2c0,2.3,1.9,4.2,4.2,4.2s4.2-1.9,4.2-4.2S21.3-332.1,19-332.1z
						 M22.7-327.9c0,2-1.7,3.7-3.7,3.7s-3.7-1.7-3.7-3.7s1.7-3.7,3.7-3.7S22.7-329.9,22.7-327.9z"/>
				</g>
			</g>
                <g>
				<g>
					<g>
						<path class="st0" d="M21.4-326.9c-0.2,0.1-0.4,0.3-0.6,0.4s-0.4,0.2-0.6,0.4c-0.2,0.1-0.4,0.2-0.6,0.3
							c-0.2,0.1-0.4,0.2-0.6,0.3l0,0C19.9-325.9,20.6-326.4,21.4-326.9L21.4-326.9z"/>
					</g>
				</g>
                    <g>
					<g>
						<path class="st0" d="M16.8-328.7c0.2-0.1,0.4-0.2,0.5-0.3c0.2-0.1,0.4-0.2,0.5-0.3c0.2-0.1,0.4-0.2,0.5-0.3
							c0.2-0.1,0.4-0.2,0.6-0.3l0,0C18.3-329.6,17.5-329.2,16.8-328.7L16.8-328.7z"/>
					</g>
				</g>
                    <g>
					<g>
						<g>
							<path class="st0" d="M16.3-326.3c0.9-0.6,1.7-1.1,2.6-1.7c0.9-0.5,1.8-1.1,2.7-1.5c-0.9,0.6-1.7,1.1-2.6,1.7
								C18.2-327.3,17.3-326.8,16.3-326.3z"/>
						</g>
					</g>
                        <g>
						<g>
							<path class="st0" d="M21.3-328.2c-0.3,0.2-0.5,0.4-0.8,0.6s-0.6,0.4-0.9,0.6s-0.6,0.3-0.9,0.5s-0.6,0.3-0.9,0.4l0,0
								C18.9-326.8,20.1-327.5,21.3-328.2L21.3-328.2z"/>
						</g>
					</g>
                        <g>
						<g>
							<path class="st0" d="M16.8-327.6c0.3-0.2,0.5-0.4,0.8-0.6s0.6-0.4,0.9-0.6s0.6-0.3,0.9-0.5s0.6-0.3,0.9-0.4l0,0
								C19.1-329,18-328.3,16.8-327.6L16.8-327.6z"/>
						</g>
					</g>
				</g>
			</g>
		</g>
	</g>
        <g>
		<path class="st1" d="M69.5-296.8h-98c-1.4,0-2.5-1.1-2.5-2.5v-73.5c0-1.4,1.1-2.5,2.5-2.5h98c1.4,0,2.5,1.1,2.5,2.5v73.5
			C72-297.9,70.8-296.8,69.5-296.8z M-28.5-374.5c-1,0-1.8,0.8-1.8,1.8v73.5c0,1,0.8,1.8,1.8,1.8h98c1,0,1.8-0.8,1.8-1.8v-73.5
			c0-1-0.8-1.8-1.8-1.8H-28.5z"/>
	</g>
        <g>
		<path class="st1" d="M65.2-308.1H-24v-60.1h89.2V-308.1z M-23.4-308.6h88.1v-59.1h-88.2L-23.4-308.6L-23.4-308.6z"/>
	</g>
        <g>
		<rect x="-23.7" y="-305.2" class="st1" width="88.7" height="0.8"/>
	</g>
</g>
    <g>
	<rect x="-23.8" y="-302.8" width="0.2" height="3"/>
</g>
    <g>
	<rect x="-22.4" y="-302.8" width="0.2" height="3"/>
</g>
    <g>
	<rect x="-21" y="-302.8" width="0.2" height="3"/>
</g>
    <g>
	<rect x="-19.7" y="-302.8" width="0.2" height="3"/>
</g>
    <g>
	<rect x="-18.3" y="-302.8" width="0.2" height="3"/>
</g>
    <g>
	<g>
		<g>
			<path class="st0" d="M21-301l-0.1,0.1l-0.1,0.1l-0.1,0.1l-0.1,0.1l0,0C20.7-300.8,20.9-300.9,21-301L21-301z"/>
		</g>
	</g>
        <g>
		<g>
			<path class="st0" d="M20-301.4l0.1-0.1l0.1-0.1c0,0,0.1,0,0.1-0.1s0.1,0,0.1-0.1l0,0C20.3-301.6,20.1-301.5,20-301.4L20-301.4z"
            />
		</g>
	</g>
        <g>
		<g>
			<path class="st0" d="M20.5-302.2c-0.5,0-1,0.4-1,1s0.4,1,1,1s1-0.4,1-1S21-302.2,20.5-302.2z M21.3-301.2c0,0.5-0.4,0.9-0.9,0.9
				s-0.9-0.4-0.9-0.9s0.4-0.9,0.9-0.9S21.3-301.7,21.3-301.2z"/>
		</g>
	</g>
        <g>
		<g>
			<g>
				<path class="st0" d="M19.8-300.9c0.2-0.1,0.4-0.3,0.6-0.4s0.4-0.2,0.6-0.4c-0.2,0.1-0.4,0.3-0.6,0.4
					C20.3-301.1,20.1-301,19.8-300.9z"/>
			</g>
		</g>
            <g>
			<g>
				<path class="st0" d="M21-301.3c-0.1,0.1-0.1,0.1-0.2,0.1c-0.1,0-0.1,0.1-0.2,0.1c-0.1,0-0.1,0.1-0.2,0.1c-0.1,0-0.1,0.1-0.2,0.1
					l0,0C20.4-301,20.7-301.1,21-301.3L21-301.3z"/>
			</g>
		</g>
            <g>
			<g>
				<path class="st0" d="M19.9-301.2c0.1-0.1,0.1-0.1,0.2-0.1c0.1,0,0.1-0.1,0.2-0.1c0.1,0,0.1-0.1,0.2-0.1c0.1,0,0.1-0.1,0.2-0.1
					l0,0C20.5-301.5,20.2-301.3,19.9-301.2L19.9-301.2z"/>
			</g>
		</g>
	</g>
</g>
    <g>
	<g>
		<g>
			<g>
				<g>
					<path class="st0" d="M534.3-319.4c-2.2,0-4-1.8-4-4v-21.5c0-2.2,1.8-4,4-4s4,1.8,4,4v21.5C538.2-321.2,536.5-319.4,534.3-319.4
						z M534.3-346.9c-1.1,0-2,0.9-2,2v21.5c0,1.1,0.9,2,2,2s2-0.9,2-2v-21.5C536.2-346,535.4-346.9,534.3-346.9z"/>
				</g>
			</g>
		</g>
        <g>
			<g>
				<g>
					<path class="st0" d="M534.3-350.9c-2.2,0-4-1.8-4-4s1.8-4,4-4s4,1.8,4,4C538.2-352.7,536.5-350.9,534.3-350.9z M534.3-356.9
						c-1.1,0-2,0.9-2,2s0.9,2,2,2s2-0.9,2-2S535.4-356.9,534.3-356.9z"/>
				</g>
			</g>
		</g>
	</g>
        <g>
		<g>
			<path class="st1" d="M534.3-312.8c-14.6,0-26.4-11.8-26.4-26.4s11.8-26.4,26.4-26.4s26.4,11.8,26.4,26.4c0,2.9-0.8,5.6-1.6,8.2
				c-0.3,0.9-0.5,1.8-0.8,2.7c-1,3.9,0.6,13.8,0.6,13.9v0.3h-0.3c-0.1,0-6.6-0.5-9.3-0.1C545.9-313.7,537.6-312.8,534.3-312.8z
				 M534.3-365.1c-14.3,0-25.9,11.6-25.9,25.9s11.6,25.9,25.9,25.9c3.3,0,11.6-0.9,15-1.5c2.5-0.4,7.8,0,9.1,0.1
				c-0.3-1.8-1.5-10.2-0.5-13.8c0.2-0.9,0.5-1.8,0.8-2.7c0.8-2.6,1.5-5.2,1.5-8C560.2-353.4,548.5-365.1,534.3-365.1z"/>
		</g>
	</g>
        <g>
		<path class="st1" d="M561.6-299.4H507c-6.9,0-12.5-5.6-12.5-12.5v-54.6c0-6.9,5.6-12.5,12.5-12.5h54.6c6.9,0,12.5,5.6,12.5,12.5
			v54.6C574.1-305,568.5-299.4,561.6-299.4z M507-378c-6.3,0-11.5,5.2-11.5,11.5v54.6c0,6.3,5.2,11.5,11.5,11.5h54.6
			c6.3,0,11.5-5.2,11.5-11.5v-54.6c0-6.3-5.2-11.5-11.5-11.5H507z"/>
	</g>
</g>
    <g>
	<g>
		<path class="st0" d="M239.3-360.4l-26,1.8l26,1.8l0,0V-360.4L239.3-360.4z"/>
	</g>
        <g>
		<path class="st0" d="M239-353.6l-17.3,1.8l16.7,1.8l0,0L239-353.6L239-353.6z"/>
	</g>
        <g>
		<g>
			<path class="st0" d="M282.3-353.9c-1.8-3.6-4.5-6.6-7.5-8.7s-6.6-3.9-10.2-4.8c-0.9,0-1.8-0.3-2.7-0.3c-0.3,0-0.9,0-1.2,0h-0.9
				c-0.3,0-0.3,0-0.9,0h-5.4h-11l-42.7,0.6l43,0.9l10.7,0.3h5.4c0.3,0,0.3,0,0.9,0h0.3c0.3,0,0.9,0,1.2,0c0.9,0,1.8,0.3,2.7,0.3
				c3,0.9,6.3,2.7,8.7,4.8c2.4,2.1,4.5,4.8,6.3,7.8c1.2,3,2.1,6.3,1.8,9.6c0,3-0.9,6.6-2.7,9.3c-3,5.7-8.7,10.2-14.9,11.3
				c-3,0.3-6.3,0.3-9.3-0.3c-3-0.9-5.7-2.1-8.4-4.5c-2.1-2.1-4.5-4.5-5.7-7.5c-0.3-0.9-0.9-2.1-1.2-3.9c0-0.3,0-0.9,0-1.2
				s0-0.9,0-1.2s0-0.9,0-1.2v-0.3v-0.6v-0.3c0,0,0,0,0-0.3c0,0,0,0,0-0.3h-7.8v0.3l0,0l0,0l0,0v0.3v0.9c0,0.3,0,0.9,0,1.8
				c0,0.3,0,0.9,0.3,1.2c0,0.3,0,0.9,0.3,1.2c0.3,2.1,1.2,3.9,2.1,5.7c1.8,3.6,4.5,6.9,7.8,9.3c3,2.7,6.9,4.5,11,5.4
				c3.9,0.9,7.8,0.9,11.9,0c7.8-1.8,14.3-7.5,17.9-14.3c1.8-3.6,2.7-7.5,2.7-11.3C284.9-347,284-350.9,282.3-353.9z"/>
		</g>
	</g>
        <g>
		<g>
			<path class="st1" d="M242.4-315.6c-5.2,0-10,5-10,10.3s4.8,10.3,10,10.3c5.2,0,10-5,10-10.3S248-315.6,242.4-315.6z M242.4-296.1
				c-4.8,0-8.8-4.1-8.8-9.1c0-0.1,0-0.2,0-0.3c0-0.1,0-0.1,0-0.2s0-0.2,0.1-0.3c0.4-4.6,4.2-8.3,8.8-8.3c5.2,0,8.8,3.7,8.8,9.1
				C251.2-300.3,247.2-296.1,242.4-296.1z"/>
		</g>
	</g>
        <g>
		<g>
			<path class="st1" d="M319.7-315.7c-5.2,0-10,5-10,10.3c0,5.4,4.8,10.3,10,10.3s10-5,10-10.3C329.7-310.8,325.3-315.7,319.7-315.7
				z M328.5-305.4c0,5-4,9.1-8.8,9.1s-8.8-4.1-8.8-9.1s4-9.1,8.8-9.1C324.9-314.5,328.5-310.8,328.5-305.4z"/>
		</g>
	</g>
        <g>
		<g>
			<g>
				<g>
					<path class="st1" d="M232.9-304.9h-15c-1.4,0-2.6-1.2-2.6-2.6c-0.1-9.7-0.2-57.7-0.2-59c0-3.5,2.9-6.4,6.5-6.4l62.3-0.5
						c0,0,0,0,0.1,0c1.6,0,3.1,0.6,4.3,1.8c1.2,1.1,1.8,2.7,1.8,4.3c0.2,29,0.3,50.3,0.3,61.6v0.5l-38.9,0.3v-1l37.9-0.3
						c0-11.4-0.1-32.5-0.3-61.1c0-1.4-0.5-2.6-1.5-3.6s-2.2-1.5-3.6-1.5l-62.3,0.5c-3,0-5.4,2.5-5.5,5.4c0,1.2,0.1,49.2,0.2,58.9
						c0,0.9,0.7,1.6,1.6,1.6h15L232.9-304.9L232.9-304.9z"/>
				</g>
			</g>
            <g>
				<path class="st1" d="M329.7-333.5l-8.5-17.9c-0.8-1.7-2.6-2.9-4.5-2.9h-27.5v-1h27.5c2.3,0,4.4,1.3,5.4,3.4l8.5,17.9
					L329.7-333.5z"/>
			</g>
		</g>
            <g>
			<path class="st1" d="M345.1-305H345c-4.5-0.2-9.5-0.4-15.6-0.4v-1c6.1,0,11.1,0.1,15.6,0.4c0.3,0,0.6-0.1,0.8-0.3
				c0.2-0.2,0.3-0.5,0.3-0.8l-0.5-17.4c0-0.4-0.2-0.7-0.6-0.9l-15.2-7.8l0.5-0.9l15.2,7.8c0.7,0.3,1.1,1,1.1,1.8l0.5,17.4
				c0,0.6-0.2,1.1-0.6,1.5C346.2-305.2,345.7-305,345.1-305z"/>
		</g>
            <g>
			<rect x="289.2" y="-306.3" class="st1" width="21.7" height="1"/>
		</g>
	</g>
        <g>
		<path class="st1" d="M317-333.8h-19.6c-1,0-1.8-0.8-1.8-1.9v-10.1c0-1,0.8-1.9,1.8-1.9h15.4c0.7,0,1.4,0.4,1.7,1.1l4.2,10.2
			c0.2,0.6,0.2,1.3-0.2,1.8C318.2-334.1,317.6-333.8,317-333.8z M297.5-347.2c-0.7,0-1.3,0.6-1.3,1.4v10.1c0,0.8,0.6,1.4,1.3,1.4
			h19.6c0.4,0,0.8-0.2,1.1-0.6c0.3-0.4,0.3-0.9,0.1-1.3l-4.2-10.2c-0.2-0.5-0.7-0.8-1.2-0.8H297.5z"/>
	</g>
        <g>
		<rect x="335.1" y="-314.2" class="st1" width="11.3" height="1"/>
	</g>
        <g>
		<rect x="295.9" y="-325.3" class="st1" width="4.2" height="1"/>
	</g>
        <g>
		<g>
			<path class="st0" d="M256.5-333.9L256.5-333.9L256.5-333.9l-3.8-3.4l0,0l-6.5-5.9l4-4.4l5.8,6.4l13-15.2l4.4,4L256.5-333.9z
				 M253.6-337.5l2.8,2.6l16-17.5l-3.3-3L256-340.2l-5.8-6.4l-3,3.3L253.6-337.5L253.6-337.5z"/>
		</g>
	</g>
        <g>
		<g>
			<g>
				<g>
					<g>
						<path class="st0" d="M248.4-303.1c-0.4,0.3-1,0.6-1.4,1c-0.4,0.3-1,0.6-1.5,0.9s-1,0.6-1.5,0.8c-0.5,0.3-1,0.6-1.5,0.8l0,0
							C244.5-300.8,246.5-301.9,248.4-303.1L248.4-303.1z"/>
					</g>
				</g>
			</g>
		</g>
            <g>
			<g>
				<g>
					<g>
						<path class="st0" d="M236.9-307.6c0.4-0.3,0.9-0.6,1.3-0.9c0.4-0.3,0.9-0.6,1.3-0.8c0.4-0.3,0.9-0.5,1.3-0.8s0.9-0.5,1.4-0.8
							l0,0C240.6-309.8,238.8-308.7,236.9-307.6L236.9-307.6z"/>
					</g>
				</g>
			</g>
		</g>
            <g>
			<g>
				<g>
					<g>
						<g>
							<path class="st0" d="M235.8-301.7c2.1-1.5,4.3-2.8,6.5-4.1c2.2-1.3,4.5-2.6,6.7-3.8c-2.1,1.5-4.3,2.8-6.5,4.1
								C240.3-304.1,238.1-302.8,235.8-301.7z"/>
						</g>
					</g>
				</g>
			</g>
                <g>
				<g>
					<g>
						<g>
							<path class="st0" d="M248-306.3c-0.7,0.6-1.3,1.1-2.1,1.5c-0.7,0.5-1.5,1-2.2,1.4c-0.8,0.4-1.5,0.9-2.2,1.3
								c-0.8,0.4-1.5,0.8-2.4,1.1v-0.1C242.1-302.9,245-304.6,248-306.3L248-306.3z"/>
						</g>
					</g>
				</g>
			</g>
                <g>
				<g>
					<g>
						<g>
							<path class="st0" d="M236.8-304.9c0.7-0.6,1.3-1.1,2.1-1.5c0.7-0.5,1.5-1,2.2-1.4c0.8-0.4,1.5-0.9,2.2-1.3
								c0.8-0.4,1.5-0.8,2.4-1.1v0.1C242.7-308.4,239.8-306.6,236.8-304.9L236.8-304.9z"/>
						</g>
					</g>
				</g>
			</g>
		</g>
	</g>
        <g>
		<g>
			<g>
				<g>
					<g>
						<path class="st0" d="M325.7-302.7c-0.4,0.3-1,0.6-1.4,1c-0.4,0.3-1,0.6-1.5,0.9s-1,0.6-1.5,0.8c-0.5,0.3-1,0.6-1.5,0.8l0,0
							C321.8-300.5,323.8-301.6,325.7-302.7L325.7-302.7z"/>
					</g>
				</g>
			</g>
		</g>
            <g>
			<g>
				<g>
					<g>
						<path class="st0" d="M314.2-307.3c0.4-0.3,0.9-0.6,1.3-0.9s0.9-0.6,1.3-0.8c0.4-0.3,0.9-0.5,1.3-0.8s0.9-0.5,1.4-0.8l0,0
							C317.9-309.5,316.1-308.4,314.2-307.3L314.2-307.3z"/>
					</g>
				</g>
			</g>
		</g>
            <g>
			<g>
				<g>
					<g>
						<g>
							<path class="st0" d="M313.1-301.3c2.1-1.5,4.3-2.8,6.5-4.1c2.2-1.3,4.5-2.6,6.7-3.8c-2.1,1.5-4.3,2.8-6.5,4.1
								C317.6-303.8,315.4-302.5,313.1-301.3z"/>
						</g>
					</g>
				</g>
			</g>
                <g>
				<g>
					<g>
						<g>
							<path class="st0" d="M325.3-306c-0.7,0.6-1.3,1.1-2.1,1.5c-0.7,0.5-1.5,1-2.2,1.4c-0.8,0.4-1.5,0.9-2.2,1.3
								c-0.8,0.4-1.5,0.8-2.4,1.1v-0.1C319.4-302.6,322.3-304.3,325.3-306L325.3-306z"/>
						</g>
					</g>
				</g>
			</g>
                <g>
				<g>
					<g>
						<g>
							<path class="st0" d="M314.1-304.6c0.7-0.6,1.3-1.1,2.1-1.5c0.7-0.5,1.5-1,2.2-1.4c0.8-0.4,1.5-0.9,2.2-1.3
								c0.8-0.4,1.5-0.8,2.4-1.1v0.1C320-308.1,317.1-306.3,314.1-304.6L314.1-304.6z"/>
						</g>
					</g>
				</g>
			</g>
		</g>
	</g>
</g>
    <g>
	<rect x="614.8" y="-703.8" class="st2" width="112" height="78.5"/>
        <rect x="624.3" y="-694.8" class="st6" width="92.9" height="60.5"/>
        <polyline class="st6" points="717.2,-652.4 693.2,-666.3 677,-656.1 657.5,-676.5 624.3,-650.8 	"/>
</g>
    <g>
	<g>
		<g>
			<path class="st0" d="M692.1-681.4c-0.3,0.2-0.6,0.4-0.8,0.6s-0.6,0.3-0.9,0.5c-0.3,0.2-0.6,0.3-0.9,0.5c-0.3,0.2-0.6,0.3-0.9,0.5
				l0,0C689.8-680.1,691-680.7,692.1-681.4L692.1-681.4z"/>
		</g>
	</g>
        <g>
		<g>
			<path class="st0" d="M685.3-684.2c0.3-0.2,0.5-0.3,0.8-0.5s0.5-0.3,0.8-0.5s0.5-0.3,0.8-0.5s0.5-0.3,0.8-0.5l0,0
				C687.5-685.4,686.4-684.8,685.3-684.2L685.3-684.2z"/>
		</g>
	</g>
        <g>
		<g>
			<path class="st0" d="M688.6-689.2c-3.4,0-6.2,2.8-6.2,6.2s2.8,6.2,6.2,6.2s6.2-2.8,6.2-6.2S692-689.2,688.6-689.2z M694-682.9
				c0,3-2.4,5.4-5.4,5.4s-5.4-2.4-5.4-5.4s2.4-5.5,5.4-5.5S694-685.9,694-682.9z"/>
		</g>
	</g>
        <g>
		<g>
			<g>
				<path class="st0" d="M684.6-680.6c1.3-0.9,2.6-1.7,3.9-2.5c1.3-0.8,2.7-1.6,4-2.3c-1.3,0.9-2.6,1.7-3.9,2.5
					S686-681.3,684.6-680.6z"/>
			</g>
		</g>
            <g>
			<g>
				<path class="st0" d="M691.9-683.4c-0.4,0.3-0.8,0.6-1.3,0.9c-0.4,0.3-0.9,0.6-1.3,0.8c-0.5,0.3-0.9,0.5-1.3,0.8
					s-0.9,0.5-1.4,0.6l0,0C688.4-681.3,690.1-682.3,691.9-683.4L691.9-683.4z"/>
			</g>
		</g>
            <g>
			<g>
				<path class="st0" d="M685.2-682.5c0.4-0.3,0.8-0.6,1.3-0.9c0.4-0.3,0.9-0.6,1.3-0.8c0.5-0.3,0.9-0.5,1.3-0.8
					c0.5-0.2,0.9-0.5,1.4-0.6l0,0C688.7-684.6,687-683.5,685.2-682.5L685.2-682.5z"/>
			</g>
		</g>
	</g>
</g>
    <g>
	<g>
		<g>
			<g>
				<path class="st1" d="M472.3-299.9H360.8v-78.5h111.6v78.5H472.3z M361.8-300.9h109.6v-76.5H361.8V-300.9z"/>
			</g>
            <g>
				<path class="st1" d="M462.6-309h-92.2v-60.3h92.2L462.6-309L462.6-309z M370.9-309.5h91.2v-59.3h-91.2L370.9-309.5L370.9-309.5z
					"/>
			</g>
            <g>
				<polygon class="st1" points="370.8,-325.4 370.5,-325.8 403.4,-351.3 403.6,-351.2 422.8,-331.2 438.7,-341.2 438.9,-341.1
					462.5,-327.4 462.3,-326.9 438.7,-340.6 422.7,-330.5 403.4,-350.7 				"/>
			</g>
		</g>
	</g>
        <g>
		<g>
			<g>
				<g>
					<path class="st0" d="M457.9-356.1c-0.3,0.2-0.6,0.4-0.8,0.6c-0.3,0.2-0.6,0.3-0.9,0.5s-0.6,0.3-0.9,0.5s-0.6,0.3-0.9,0.5l0,0
						C455.6-354.7,456.8-355.4,457.9-356.1L457.9-356.1z"/>
				</g>
			</g>
		</g>
            <g>
			<g>
				<g>
					<path class="st0" d="M451.1-358.8c0.3-0.2,0.5-0.3,0.8-0.5s0.5-0.3,0.8-0.5s0.5-0.3,0.8-0.5s0.5-0.3,0.8-0.5l0,0
						C453.2-360.1,452.2-359.4,451.1-358.8L451.1-358.8z"/>
				</g>
			</g>
		</g>
            <g>
			<g>
				<g>
					<path class="st0" d="M454.3-363.8c-3.4,0-6.2,2.8-6.2,6.2s2.8,6.2,6.2,6.2c3.5,0,6.2-2.8,6.2-6.2S457.7-363.8,454.3-363.8z
						 M459.8-357.6c0,3-2.4,5.4-5.4,5.4s-5.4-2.4-5.4-5.4s2.4-5.5,5.4-5.5C457.3-363,459.8-360.6,459.8-357.6z"/>
				</g>
			</g>
		</g>
            <g>
			<g>
				<g>
					<g>
						<path class="st0" d="M450.4-355.2c1.3-0.9,2.6-1.7,3.9-2.5s2.7-1.6,4-2.3c-1.3,0.9-2.6,1.7-3.9,2.5S451.7-355.9,450.4-355.2z"
                        />
					</g>
				</g>
			</g>
                <g>
				<g>
					<g>
						<path class="st0" d="M457.7-358c-0.4,0.3-0.8,0.6-1.3,0.9c-0.4,0.3-0.9,0.6-1.3,0.8c-0.5,0.3-0.9,0.5-1.3,0.8
							c-0.5,0.2-0.9,0.5-1.4,0.6l0,0C454.1-355.9,455.9-357,457.7-358L457.7-358z"/>
					</g>
				</g>
			</g>
                <g>
				<g>
					<g>
						<path class="st0" d="M451-357.2c0.4-0.3,0.8-0.6,1.3-0.9c0.4-0.3,0.9-0.6,1.3-0.8c0.5-0.3,0.9-0.5,1.3-0.8
							c0.5-0.2,0.9-0.5,1.4-0.6l0,0C454.5-359.2,452.8-358.2,451-357.2L451-357.2z"/>
					</g>
				</g>
			</g>
		</g>
	</g>
</g>
    <g>
	<g>
		<g>
			<path class="st1" d="M-416.6-159.8h-38.7v-0.3h38.7c6.3,0,11.4-5.1,11.4-11.4v-46.8c0-6.3-5.1-11.4-11.4-11.4h-72
				c-6.2,0-11.3,5.1-11.3,11.4v12.8h-0.4v-12.8c0-6.5,5.3-11.7,11.7-11.7h72c6.5,0,11.7,5.3,11.7,11.7v46.8
				C-404.9-165.1-410.2-159.8-416.6-159.8z"/>
            <path class="st1" d="M-416.6-159.6h-39v-0.8h39c6.1,0,11.1-5,11.1-11.1v-46.8c0-6.1-5-11.1-11.1-11.1h-72
				c-6.1,0-11.1,5-11.1,11.1v13.1h-0.8v-13.1c0-6.6,5.4-12,12-12h71.9c6.6,0,12,5.4,12,12v46.8C-404.7-165-410-159.6-416.6-159.6z"
            />
		</g>
	</g>
        <g>
		<rect x="-500.1" y="-219.7" class="st1" width="95" height="0.3"/>
	</g>
        <g>
		<rect x="-500.1" y="-215.1" class="st1" width="95" height="0.3"/>
	</g>
        <g>
		<path class="st1" d="M-420-164.6c-2.9,0-5.7-1.4-7.5-3.7c-1.8,2.3-4.5,3.7-7.5,3.7c-5.2,0-9.3-4.2-9.3-9.3c0-5.2,4.2-9.3,9.3-9.3
			c2.9,0,5.7,1.4,7.5,3.7c1.8-2.3,4.5-3.7,7.5-3.7c5.2,0,9.3,4.2,9.3,9.3S-414.8-164.6-420-164.6z M-427.5-168.9l0.1,0.2
			c1.7,2.4,4.4,3.8,7.3,3.8c5,0,9-4,9-9s-4-9-9-9c-2.9,0-5.6,1.4-7.3,3.8l-0.1,0.2l-0.1-0.3c-1.7-2.4-4.4-3.8-7.3-3.8c-5,0-9,4-9,9
			s4,9,9,9C-432-165-429.3-166.4-427.5-168.9L-427.5-168.9z"/>
	</g>
        <g>
		<g>
			<g>
				<g>
					<path class="st0" d="M-414.2-171.7c-0.4,0.3-1,0.6-1.4,1c-0.4,0.3-1,0.6-1.5,0.9s-1,0.6-1.5,0.8c-0.5,0.3-1,0.6-1.5,0.8l0,0
						C-418.1-169.4-416.1-170.6-414.2-171.7L-414.2-171.7z"/>
				</g>
			</g>
		</g>
            <g>
			<g>
				<g>
					<path class="st0" d="M-425.7-176.3c0.4-0.3,0.9-0.6,1.3-0.9c0.4-0.3,0.9-0.6,1.3-0.8c0.4-0.3,0.9-0.5,1.3-0.8s0.9-0.5,1.4-0.8
						l0,0C-422-178.4-423.8-177.4-425.7-176.3L-425.7-176.3z"/>
				</g>
			</g>
		</g>
            <g>
			<g>
				<g>
					<g>
						<path class="st0" d="M-426.8-170.3c2.1-1.5,4.3-2.8,6.5-4.1s4.5-2.6,6.7-3.8c-2.1,1.5-4.3,2.8-6.5,4.1
							S-424.5-171.4-426.8-170.3z"/>
					</g>
				</g>
			</g>
                <g>
				<g>
					<g>
						<path class="st0" d="M-414.6-174.9c-0.7,0.6-1.3,1.1-2.1,1.5c-0.7,0.5-1.5,1-2.2,1.4c-0.8,0.4-1.5,0.9-2.2,1.3
							c-0.8,0.4-1.5,0.8-2.4,1.1v-0.1C-420.5-171.5-417.6-173.2-414.6-174.9L-414.6-174.9z"/>
					</g>
				</g>
			</g>
                <g>
				<g>
					<g>
						<path class="st0" d="M-425.8-173.5c0.7-0.6,1.3-1.1,2.1-1.5c0.7-0.5,1.5-1,2.2-1.4c0.8-0.4,1.5-0.9,2.2-1.3
							c0.7-0.4,1.5-0.8,2.4-1.1v0.1C-419.9-177-422.8-175.3-425.8-173.5L-425.8-173.5z"/>
					</g>
				</g>
			</g>
		</g>
	</g>
        <g>
		<path class="st1" d="M-483.1-151.6c-14.6,0-26.5-11.9-26.5-26.5s11.9-26.5,26.5-26.5s26.5,11.9,26.5,26.5
			S-468.5-151.6-483.1-151.6z M-483.1-204.2c-14.4,0-26,11.7-26,26s11.7,26,26,26c14.4,0,26-11.7,26-26S-468.7-204.2-483.1-204.2z"
        />
	</g>
        <g>
		<path class="st0" d="M-487.9-163.8L-487.9-163.8L-487.9-163.8l-4.8-4.4l0,0l-8.2-7.5l5.1-5.5l7.4,8.1l16.5-19.2l5.5,5
			L-487.9-163.8z M-491.5-168.3l3.5,3.2l20.3-22.2l-4.2-3.8l-16.5,19.3l-7.4-8.1l-3.8,4.1L-491.5-168.3L-491.5-168.3z"/>
	</g>
</g>
    <g>
	<g>
		<path class="st0" d="M-594.4-173.7c-1.1-4.7-2.1-9.4-3.1-14.1s-2.1-9.4-3.1-14.1l-0.1-0.6h-0.6c-1.9,0.2-3.6,0.2-5.3,0.3l-0.4-3.3
			c-0.2-1.8-0.5-3.9-1.6-5.7c-1.2-1.8-3.2-3.1-5.4-3.3c-2.7-0.2-5.4,1.1-7.3,3.5c-1.5,1.9-2.4,4.6-2.5,7.6c0,0.5,0,1,0,1.5
			c-1.4,0.1-2.9,0.1-4.4,0.2h-0.6l-0.1,0.6c-1.3,9.6-3.5,19.2-6.5,28.4l-0.3,1h1c6.6-0.2,13.2-0.3,19.8-0.5s13.2-0.3,19.8-0.5h0.9
			L-594.4-173.7z M-622.3-203.5c0.1-2.7,0.9-5,2.2-6.8c1.5-1.9,3.8-3.1,6-2.9c1.7,0.1,3.4,1.2,4.3,2.6c0.9,1.5,1.2,3.4,1.4,5.1
			l0.4,3.2c-2.3,0-4.5,0-6.7,0c-2.5,0-5,0-7.6,0.1C-622.3-202.5-622.4-203-622.3-203.5z M-614.9-173.8c-6.2,0.2-12.5,0.3-18.7,0.5
			c2.8-8.8,4.9-17.9,6.1-27.1c1.3-0.1,2.5-0.1,3.7-0.1c0.1,1.6,0.3,3.2,0.6,4.8c0.1,0.4,0.4,0.6,0.7,0.6h0.1
			c0.4-0.1,0.7-0.4,0.6-0.8c-0.2-1.5-0.4-3.1-0.5-4.6c2.6-0.1,5.1-0.1,7.5-0.1c2.2,0,4.5,0,6.8,0l0.5,4.4c0,0.4,0.4,0.7,0.8,0.6
			c0.4,0,0.7-0.4,0.6-0.8l-0.5-4.3c1.5,0,3-0.1,4.5-0.2c1,4.5,2,9,3,13.5c1,4.4,1.9,8.8,2.9,13.2
			C-602.3-174.1-608.6-173.9-614.9-173.8z"/>
	</g>
        <g class="st4">
		<g>
			<g>
				<path class="st5" d="M-623.8-179.2h2.8v0.5h-3.4v-8.2h0.5L-623.8-179.2z"/>
			</g>
		</g>
            <g>
			<g>
				<path class="st5" d="M-607.2-186.4h-2.8v3.6h2.4v0.5h-2.4v3.6h-0.5v-8.2h3.4L-607.2-186.4z"/>
			</g>
		</g>
            <g>
			<g>
				<path class="st5" d="M-602.5-186.9v0.5h-1.9v7.7h-0.5v-7.7h-1.9v-0.5H-602.5z"/>
			</g>
		</g>
            <g>
			<g>
				<g>
					<path class="st0" d="M-616.6-187.1c-2.3,0-4.2,1.9-4.2,4.2s1.9,4.2,4.2,4.2s4.2-1.9,4.2-4.2S-614.2-187.1-616.6-187.1z
						 M-612.9-182.9c0,2-1.7,3.7-3.7,3.7s-3.7-1.7-3.7-3.7s1.7-3.7,3.7-3.7C-614.5-186.6-612.9-184.9-612.9-182.9z"/>
				</g>
			</g>
                <g>
				<g>
					<g>
						<path class="st0" d="M-614.1-181.9c-0.2,0.1-0.4,0.3-0.6,0.4s-0.4,0.2-0.6,0.4c-0.2,0.1-0.4,0.2-0.6,0.3
							c-0.2,0.1-0.4,0.2-0.6,0.3l0,0C-615.7-181-614.9-181.4-614.1-181.9L-614.1-181.9z"/>
					</g>
				</g>
                    <g>
					<g>
						<path class="st0" d="M-618.8-183.7c0.2-0.1,0.4-0.2,0.5-0.3c0.2-0.1,0.4-0.2,0.5-0.3c0.2-0.1,0.4-0.2,0.5-0.3
							c0.2-0.1,0.4-0.2,0.6-0.3l0,0C-617.3-184.6-618-184.2-618.8-183.7L-618.8-183.7z"/>
					</g>
				</g>
                    <g>
					<g>
						<g>
							<path class="st0" d="M-619.2-181.3c0.9-0.6,1.7-1.1,2.6-1.7c0.9-0.5,1.8-1.1,2.7-1.5c-0.9,0.6-1.7,1.1-2.6,1.7
								C-617.4-182.3-618.3-181.8-619.2-181.3z"/>
						</g>
					</g>
                        <g>
						<g>
							<path class="st0" d="M-614.3-183.2c-0.3,0.2-0.5,0.4-0.8,0.6s-0.6,0.4-0.9,0.6c-0.3,0.2-0.6,0.3-0.9,0.5
								c-0.3,0.2-0.6,0.3-0.9,0.4l0,0C-616.7-181.8-615.5-182.5-614.3-183.2L-614.3-183.2z"/>
						</g>
					</g>
                        <g>
						<g>
							<path class="st0" d="M-618.8-182.6c0.3-0.2,0.5-0.4,0.8-0.6c0.3-0.2,0.6-0.4,0.9-0.6s0.6-0.3,0.9-0.5
								c0.3-0.2,0.6-0.3,0.9-0.4l0,0C-616.4-184-617.6-183.3-618.8-182.6L-618.8-182.6z"/>
						</g>
					</g>
				</g>
			</g>
		</g>
	</g>
        <g>
		<path class="st1" d="M-566.1-151.8h-98c-1.4,0-2.5-1.1-2.5-2.5v-73.5c0-1.4,1.1-2.5,2.5-2.5h98c1.4,0,2.5,1.1,2.5,2.5v73.5
			C-563.6-152.9-564.7-151.8-566.1-151.8z M-664.1-229.5c-1,0-1.8,0.8-1.8,1.8v73.4c0,1,0.8,1.8,1.8,1.8h98c1,0,1.8-0.8,1.8-1.8
			v-73.5c0-1-0.8-1.8-1.8-1.8L-664.1-229.5L-664.1-229.5z"/>
	</g>
        <g>
		<path class="st1" d="M-570.3-163.2h-89.2v-60h89.2V-163.2z M-659-163.7h88.2v-59H-659V-163.7z"/>
	</g>
        <g>
		<rect x="-659.3" y="-160.2" class="st1" width="88.7" height="0.8"/>
	</g>
        <g>
		<rect x="-659.4" y="-157.8" class="st1" width="0.2" height="3"/>
	</g>
        <g>
		<rect x="-658" y="-157.8" class="st1" width="0.2" height="3"/>
	</g>
        <g>
		<rect x="-656.6" y="-157.8" class="st1" width="0.2" height="3"/>
	</g>
        <g>
		<rect x="-655.2" y="-157.8" class="st1" width="0.2" height="3"/>
	</g>
        <g>
		<rect x="-653.8" y="-157.8" class="st1" width="0.2" height="3"/>
	</g>
        <g>
		<g>
			<g>
				<path class="st0" d="M-614.5-156L-614.5-156l-0.2,0.2l-0.1,0.1l-0.1,0.1l0,0C-614.9-155.8-614.7-155.9-614.5-156L-614.5-156z"/>
			</g>
		</g>
            <g>
			<g>
				<path class="st0" d="M-615.6-156.5L-615.6-156.5l0.2-0.2c0,0,0.1,0,0.1-0.1c0,0,0.1,0,0.1-0.1l0,0
					C-615.3-156.7-615.5-156.6-615.6-156.5L-615.6-156.5z"/>
			</g>
		</g>
            <g>
			<g>
				<path class="st0" d="M-615.1-157.3c-0.5,0-1,0.4-1,1c0,0.5,0.4,1,1,1c0.5,0,1-0.4,1-1C-614.1-156.8-614.6-157.3-615.1-157.3z
					 M-614.2-156.3c0,0.5-0.4,0.9-0.9,0.9s-0.9-0.4-0.9-0.9s0.4-0.9,0.9-0.9S-614.2-156.7-614.2-156.3z"/>
			</g>
		</g>
            <g>
			<g>
				<g>
					<path class="st0" d="M-615.7-155.9c0.2-0.1,0.4-0.3,0.6-0.4c0.2-0.1,0.4-0.2,0.6-0.4c-0.2,0.1-0.4,0.3-0.6,0.4
						C-615.3-156.1-615.5-156-615.7-155.9z"/>
				</g>
			</g>
                <g>
				<g>
					<path class="st0" d="M-614.6-156.3c-0.1,0.1-0.1,0.1-0.2,0.1c-0.1,0-0.1,0.1-0.2,0.1c-0.1,0-0.1,0.1-0.2,0.1
						c-0.1,0-0.1,0.1-0.2,0.1l0,0C-615.1-156-614.9-156.2-614.6-156.3L-614.6-156.3z"/>
				</g>
			</g>
                <g>
				<g>
					<path class="st0" d="M-615.6-156.2c0-0.1,0.1-0.1,0.2-0.1s0.1-0.1,0.2-0.1c0.1,0,0.1-0.1,0.2-0.1c0.1,0,0.1-0.1,0.2-0.1l0,0
						C-615.1-156.5-615.4-156.4-615.6-156.2L-615.6-156.2z"/>
				</g>
			</g>
		</g>
	</g>
</g>
    <g>
	<g>
		<g>
			<g>
				<g>
					<path class="st0" d="M-109.6-170.8c-2.2,0-4-1.8-4-4v-21.4c0-2.2,1.8-4,4-4s4,1.8,4,4v21.5
						C-105.7-172.6-107.4-170.8-109.6-170.8z M-109.6-198.2c-1.1,0-2,0.9-2,2v21.5c0,1.1,0.9,2,2,2s2-0.9,2-2v-21.5
						C-107.7-197.3-108.5-198.2-109.6-198.2z"/>
				</g>
			</g>
		</g>
        <g>
			<g>
				<g>
					<path class="st0" d="M-109.6-202.3c-2.2,0-4-1.8-4-4s1.8-4,4-4s4,1.8,4,4C-105.7-204.1-107.4-202.3-109.6-202.3z M-109.6-208.2
						c-1.1,0-2,0.9-2,2s0.9,2,2,2s2-0.9,2-2S-108.5-208.2-109.6-208.2z"/>
				</g>
			</g>
		</g>
	</g>
        <g>
		<g>
			<path class="st1" d="M-109.6-164.1c-14.6,0-26.4-11.8-26.4-26.4s11.8-26.4,26.4-26.4s26.4,11.8,26.4,26.4c0,2.9-0.8,5.6-1.6,8.2
				c-0.3,0.9-0.5,1.8-0.8,2.7c-1,3.9,0.6,13.8,0.6,13.9v0.3h-0.3c-0.1,0-6.6-0.5-9.3-0.1C-98-165.1-106.3-164.1-109.6-164.1z
				 M-109.6-216.4c-14.3,0-25.9,11.6-25.9,25.9s11.6,25.9,25.9,25.9c3.3,0,11.6-0.9,15-1.5c2.5-0.4,7.8,0,9.1,0.1
				c-0.3-1.8-1.5-10.2-0.5-13.8c0.2-0.9,0.5-1.8,0.8-2.7c0.8-2.6,1.5-5.2,1.5-8C-83.7-204.8-95.4-216.4-109.6-216.4z"/>
		</g>
	</g>
        <g>
		<path class="st1" d="M-82.3-150.7h-54.6c-6.9,0-12.5-5.6-12.5-12.5v-54.6c0-6.9,5.6-12.5,12.5-12.5h54.6c6.9,0,12.5,5.6,12.5,12.5
			v54.6C-69.8-156.3-75.4-150.7-82.3-150.7z M-136.9-229.3c-6.4,0-11.5,5.2-11.5,11.5v54.6c0,6.3,5.2,11.5,11.5,11.5h54.6
			c6.3,0,11.5-5.2,11.5-11.5v-54.6c0-6.3-5.2-11.5-11.5-11.5L-136.9-229.3L-136.9-229.3z"/>
	</g>
</g>
    <g>
	<g>
		<path class="st0" d="M-311.6-210.4l-17.3,1.9l16.7,1.9l0,0L-311.6-210.4L-311.6-210.4z"/>
	</g>
        <g>
		<g>
			<path class="st1" d="M-308.1-172.2c-5.2,0-10,5-10,10.3s4.8,10.3,10,10.3s10-5,10-10.3S-302.5-172.2-308.1-172.2z M-308.1-152.8
				c-4.8,0-8.9-4.1-8.9-9.2c0-0.1,0-0.2,0-0.3s0-0.1,0-0.2s0-0.2,0.1-0.3c0.4-4.6,4.2-8.3,8.9-8.3c5.2,0,8.9,3.7,8.9,9.2
				C-299.2-156.9-303.2-152.8-308.1-152.8z"/>
		</g>
	</g>
        <g>
		<g>
			<path class="st1" d="M-230.7-172.4c-5.2,0-10,5-10,10.3c0,5.5,4.8,10.3,10,10.3s10-5,10-10.3S-225.1-172.4-230.7-172.4z
				 M-221.9-162c0,5-4,9.2-8.9,9.2s-8.9-4.1-8.9-9.2c0-5.1,4-9.2,8.9-9.2C-225.5-171.2-221.9-167.4-221.9-162z"/>
		</g>
	</g>
        <g>
		<g>
			<g>
				<g>
					<path class="st1" d="M-317.7-161.5h-15c-1.4,0-2.6-1.2-2.6-2.6c-0.1-9.8-0.2-57.9-0.2-59.2c0-3.5,2.9-6.4,6.5-6.4l62.3-0.5
						c0,0,0,0,0.1,0c1.6,0,3.1,0.6,4.3,1.9c1.2,1.1,1.8,2.5,1.8,4.2c0.2,29.1,0.3,50.4,0.3,61.7v0.5l-38.9,0.3v-1l38-0.3
						c0-11.4-0.1-32.6-0.3-61.3c0-1.4-0.5-2.6-1.5-3.6s-2.2-1.5-3.6-1.5l-62.6,0.6c-3,0-5.4,2.5-5.5,5.5c0,1.2,0.1,49.3,0.2,59.1
						c0,0.9,0.7,1.6,1.6,1.6h15L-317.7-161.5L-317.7-161.5z"/>
				</g>
			</g>
            <g>
				<path class="st1" d="M-220.7-190.1l-8.5-18c-0.8-1.7-2.6-2.9-4.5-2.9h-27.5v-1h27.5c2.3,0,4.4,1.3,5.4,3.4l8.5,17.9
					L-220.7-190.1z"/>
			</g>
		</g>
            <g>
			<path class="st1" d="M-205.2-161.6L-205.2-161.6c-4.6-0.2-9.6-0.4-15.7-0.4v-1c6.1,0,11.1,0.1,15.6,0.4c0.3,0,0.6-0.1,0.8-0.3
				s0.3-0.5,0.3-0.8l-0.5-17.6c0-0.4-0.2-0.7-0.6-0.9l-15.2-7.8l0.5-0.9l15.2,7.8c0.7,0.3,1.1,1,1.1,1.9l0.5,17.5
				c0,0.6-0.2,1.1-0.6,1.5C-204.3-161.8-204.8-161.6-205.2-161.6z"/>
		</g>
            <g>
			<rect x="-261.2" y="-163" class="st1" width="21.7" height="1"/>
		</g>
	</g>
        <g>
		<path class="st1" d="M-233.4-190.6h-19.7c-1,0-1.8-0.8-1.8-2v-10c0-1,0.8-2,1.8-2h15.4c0.7,0,1.4,0.4,1.7,1.1l4.2,10.2
			c0.2,0.6,0.2,1.3-0.2,1.9C-232.3-190.9-232.8-190.6-233.4-190.6z M-253-204c-0.7,0-1.3,0.6-1.3,1.4v10.1c0,0.8,0.6,1.4,1.3,1.4
			h19.7c0.4,0,0.8-0.2,1.1-0.6c0.3-0.4,0.3-0.9,0.1-1.3l-4.2-10.2c-0.2-0.5-0.7-0.8-1.2-0.8C-237.5-204-253-204-253-204z"/>
	</g>
        <g>
		<rect x="-215.3" y="-170.9" class="st1" width="11.3" height="1"/>
	</g>
        <g>
		<rect x="-254.5" y="-182" class="st1" width="4.2" height="1"/>
	</g>
        <g>
		<g>
			<path class="st0" d="M-294.1-190.7L-294.1-190.7L-294.1-190.7l-3.8-3.5l0,0l-6.5-5.9l4-4.4l5.8,6.4l13-15.2l4.4,4L-294.1-190.7z
				 M-297-194.3l2.8,2.6l16.1-17.6l-3.3-3l-13,15.3l-5.8-6.4l-2.9,3.3L-297-194.3L-297-194.3z"/>
		</g>
	</g>
        <g>
		<g>
			<g>
				<g>
					<g>
						<path class="st0" d="M-302.2-159.7c-0.4,0.3-1,0.6-1.4,1c-0.4,0.3-1,0.6-1.5,0.9s-1,0.6-1.5,0.8c-0.5,0.3-1,0.6-1.5,0.8l0,0
							C-306-157.4-304.1-158.5-302.2-159.7L-302.2-159.7z"/>
					</g>
				</g>
			</g>
		</g>
            <g>
			<g>
				<g>
					<g>
						<path class="st0" d="M-313.6-164.3c0.4-0.3,0.9-0.6,1.3-0.9c0.4-0.3,0.9-0.6,1.3-0.8c0.4-0.3,0.9-0.5,1.3-0.8s0.9-0.5,1.4-0.8
							l0,0C-310-166.5-311.8-165.3-313.6-164.3L-313.6-164.3z"/>
					</g>
				</g>
			</g>
		</g>
            <g>
			<g>
				<g>
					<g>
						<g>
							<path class="st0" d="M-314.8-158.2c2.1-1.5,4.3-2.8,6.5-4.1s4.5-2.6,6.7-3.8c-2.1,1.5-4.3,2.8-6.5,4.1
								C-310.1-160.8-312.5-159.5-314.8-158.2z"/>
						</g>
					</g>
				</g>
			</g>
                <g>
				<g>
					<g>
						<g>
							<path class="st0" d="M-302.5-163c-0.7,0.6-1.3,1.1-2.1,1.5c-0.7,0.5-1.5,1-2.2,1.4s-1.5,0.9-2.2,1.3
								c-0.8,0.4-1.5,0.8-2.4,1.1v-0.1C-308.5-159.6-305.5-161.2-302.5-163L-302.5-163z"/>
						</g>
					</g>
				</g>
			</g>
                <g>
				<g>
					<g>
						<g>
							<path class="st0" d="M-313.6-161.5c0.7-0.6,1.3-1.1,2.1-1.5c0.7-0.5,1.5-1,2.2-1.4c0.8-0.4,1.5-0.9,2.2-1.3
								c0.8-0.4,1.5-0.8,2.4-1.1v0.1C-307.8-165.1-310.8-163.3-313.6-161.5L-313.6-161.5z"/>
						</g>
					</g>
				</g>
			</g>
		</g>
	</g>
        <g>
		<g>
			<g>
				<g>
					<g>
						<path class="st0" d="M-224.8-159.4c-0.4,0.3-1,0.6-1.4,1c-0.4,0.3-1,0.6-1.5,0.9s-1,0.6-1.5,0.8c-0.5,0.3-1,0.6-1.5,0.8l0,0
							C-228.6-157.1-226.6-158.2-224.8-159.4L-224.8-159.4z"/>
					</g>
				</g>
			</g>
		</g>
            <g>
			<g>
				<g>
					<g>
						<path class="st0" d="M-236.2-164c0.4-0.3,0.9-0.6,1.3-0.9c0.4-0.3,0.9-0.6,1.3-0.8c0.4-0.3,0.9-0.5,1.3-0.8
							c0.4-0.3,0.9-0.5,1.4-0.8l0,0C-232.6-166.2-234.4-165.1-236.2-164L-236.2-164z"/>
					</g>
				</g>
			</g>
		</g>
            <g>
			<g>
				<g>
					<g>
						<g>
							<path class="st0" d="M-237.4-157.9c2.1-1.5,4.3-2.8,6.5-4.1s4.5-2.6,6.7-3.8c-2.1,1.5-4.3,2.8-6.5,4.1
								C-232.8-160.5-235.1-159.2-237.4-157.9z"/>
						</g>
					</g>
				</g>
			</g>
                <g>
				<g>
					<g>
						<g>
							<path class="st0" d="M-225.1-162.7c-0.7,0.6-1.3,1.1-2.1,1.5c-0.7,0.5-1.5,1-2.2,1.4c-0.8,0.4-1.5,0.9-2.2,1.3
								c-0.8,0.4-1.5,0.8-2.4,1.1v-0.1C-231.1-159.2-228.1-161-225.1-162.7L-225.1-162.7z"/>
						</g>
					</g>
				</g>
			</g>
                <g>
				<g>
					<g>
						<g>
							<path class="st0" d="M-236.3-161.2c0.7-0.6,1.3-1.1,2.1-1.5c0.7-0.5,1.5-1,2.2-1.4c0.8-0.4,1.5-0.9,2.2-1.3
								c0.8-0.4,1.5-0.8,2.4-1.1v0.1C-230.3-164.8-233.4-163-236.3-161.2L-236.3-161.2z"/>
						</g>
					</g>
				</g>
			</g>
		</g>
	</g>
        <g>
		<g>
			<path class="st0" d="M-268.2-210.7c-1.8-3.6-4.5-6.6-7.5-8.8c-2.9-2-6.5-3.8-10.1-4.7c-0.9,0-1.8-0.3-2.7-0.3c-0.3,0-0.9,0-1.2,0
				h-0.9c-0.3,0-0.3,0-0.9,0h-5.4H-308l-42.7,0.6l43,0.9l10.7,0.3h5.4c0.3,0,0.3,0,0.9,0h0.3c0.3,0,0.9,0,1.2,0
				c0.9,0,1.8,0.3,2.7,0.3c3,0.9,6.3,2.7,8.8,4.8c2.4,2.1,4.5,4.8,6.3,7.8c1.2,3,2.1,6.3,1.8,9.7c0,3-0.9,6.6-2.7,9.4
				c-3,5.8-8.8,10.2-14.9,11.3c-3,0.3-6.3,0.3-9.3-0.3c-3-0.9-5.7-2.1-8.4-4.5c-2.1-2.1-4.5-4.5-5.7-7.5c-0.3-0.9-0.9-2.1-1.2-3.9
				c0-0.3,0-0.9,0-1.2s0-0.9,0-1.2s0-0.9,0-1.2v-0.3v-0.6v-0.3c0,0,0,0,0-0.3c0,0,0,0,0-0.3h-7.8v0.3l0,0l0,0l0,0v0.3v0.9
				c0,0.3,0,0.9,0,1.9c0,0.3,0,0.9,0.3,1.2c0,0.3,0,0.9,0.3,1.2c0.3,2.1,1.2,3.9,2.1,5.8c1.8,3.6,4.5,6.9,7.8,9.4
				c3,2.7,6.9,4.5,11,5.5c3.9,0.9,7.8,0.9,11.9,0c7.8-1.9,14.3-7.5,17.9-14.3c1.8-3.6,2.7-7.5,2.7-11.3
				C-265.6-203.8-266.5-207.8-268.2-210.7z"/>
		</g>
	</g>
        <g>
		<path class="st0" d="M-311.3-217.2l-26,1.9l26,1.9l0,0V-217.2L-311.3-217.2z"/>
	</g>
</g>
    <line class="st7" x1="-693.6" y1="-230.3" x2="-31" y2="-230.3"/>
    <line class="st7" x1="-681.7" y1="-150.7" x2="-30.3" y2="-150.7"/>
    <g>
	<g>
		<g>
			<g>
				<path class="st1" d="M90.1,78.3H48.6v-0.3h41.6c6.8,0,12.2-5.7,12.2-12.7v-52c0-7-5.5-12.7-12.2-12.7H12.8
					C6.1,0.7,0.6,6.3,0.6,13.3v14.2H0.2V13.3c0-7.2,5.7-13,12.6-13h77.3c7,0,12.6,5.9,12.6,13v52C102.7,72.4,97,78.3,90.1,78.3z"/>
                <path class="st1" d="M90.1,78.5H48.2v-0.9h41.9c6.6,0,11.9-5.6,11.9-12.3v-52C102,6.6,96.7,1,90.1,1H12.8
					C6.2,1,0.9,6.6,0.9,13.3v14.5H0V13.3C0,6,5.8,0,12.9,0h77.2C97.2,0,103,6,103,13.3v52C102.9,72.5,97.2,78.5,90.1,78.5z"/>
			</g>
		</g>
        <g>
			<rect x="0.4" y="12.7" class="st1" width="102" height="0.3"/>
		</g>
        <g>
			<rect x="0.4" y="17.6" class="st1" width="102" height="0.3"/>
		</g>
        <g>
			<path class="st1" d="M86.5,71.8c-3.1,0-6.1-1.5-8.1-4c-1.9,2.5-4.8,4-8.1,4c-5.6,0-10-4.5-10-10c0-5.6,4.5-10,10-10
				c3.1,0,6.1,1.5,8.1,4c1.9-2.5,4.8-4,8.1-4c5.6,0,10,4.5,10,10S92.1,71.8,86.5,71.8z M78.4,67.2l0.1,0.2c1.8,2.6,4.7,4.1,7.8,4.1
				c5.4,0,9.7-4.3,9.7-9.7s-4.3-9.7-9.7-9.7c-3.1,0-6,1.5-7.8,4.1l-0.1,0.2l-0.1-0.3c-1.8-2.6-4.7-4.1-7.8-4.1
				c-5.4,0-9.7,4.3-9.7,9.7c0,5.4,4.3,9.7,9.7,9.7c3.1,0,6-1.5,7.8-4.1L78.4,67.2z"/>
		</g>
        <g>
			<g>
				<g>
					<g>
						<path class="st0" d="M92.7,64.2c-0.4,0.3-1.1,0.6-1.5,1.1c-0.4,0.3-1.1,0.6-1.6,1c-0.5,0.3-1.1,0.6-1.6,0.9
							c-0.5,0.3-1.1,0.6-1.6,0.9l0,0C88.5,66.7,90.7,65.4,92.7,64.2L92.7,64.2z"/>
					</g>
				</g>
			</g>
            <g>
				<g>
					<g>
						<path class="st0" d="M80.3,59.3c0.4-0.3,1-0.6,1.4-1c0.4-0.3,1-0.6,1.4-0.9c0.4-0.3,1-0.5,1.4-0.9c0.4-0.3,1-0.5,1.5-0.9l0,0
							C84.3,57,82.4,58.1,80.3,59.3L80.3,59.3z"/>
					</g>
				</g>
			</g>
            <g>
				<g>
					<g>
						<g>
							<path class="st0" d="M79.2,65.7c2.3-1.6,4.6-3,7-4.4s4.8-2.8,7.2-4.1c-2.3,1.6-4.6,3-7,4.4C84,63,81.6,64.5,79.2,65.7z"/>
						</g>
					</g>
				</g>
                <g>
					<g>
						<g>
							<path class="st0" d="M92.3,60.8c-0.8,0.6-1.4,1.2-2.3,1.6c-0.8,0.5-1.6,1.1-2.4,1.5c-0.9,0.4-1.6,1-2.4,1.4
								c-0.9,0.4-1.6,0.9-2.6,1.2v-0.1C85.9,64.4,89,62.6,92.3,60.8L92.3,60.8z"/>
						</g>
					</g>
				</g>
                <g>
					<g>
						<g>
							<path class="st0" d="M80.2,62.3c0.8-0.6,1.4-1.2,2.3-1.6c0.8-0.5,1.6-1.1,2.4-1.5c0.9-0.4,1.6-1,2.4-1.4
								c0.8-0.4,1.6-0.9,2.6-1.2v0.1C86.6,58.5,83.5,60.4,80.2,62.3L80.2,62.3z"/>
						</g>
					</g>
				</g>
			</g>
		</g>
	</g>
        <g>
		<g>
			<path class="st1" d="M26,78.5c-14.3,0-26-11.7-26-26s11.7-26,26-26s26,11.7,26,26S40.3,78.5,26,78.5z M26,26.9
				c-14.1,0-25.5,11.5-25.5,25.5S12,77.9,26,77.9c14.1,0,25.5-11.5,25.5-25.5S40.1,26.9,26,26.9z"/>
		</g>
            <g>
			<path class="st0" d="M21.3,66.5L21.3,66.5L21.3,66.5l-4.7-4.3l0,0l-8-7.4l5-5.4l7.3,7.9L37,38.6l5.4,4.9L21.3,66.5z M17.8,62.1
				l3.4,3.1l19.9-21.8L37,39.8L20.8,58.7l-7.3-7.9l-3.7,4L17.8,62.1L17.8,62.1z"/>
		</g>
	</g>
</g>
</svg>
