<?xml version="1.0" encoding="utf-8"?>
<!-- Generator: Adobe Illustrator 25.0.1, SVG Export Plug-In . SVG Version: 6.00 Build 0)  -->
<svg version="1.1" id="Слой_1" xmlns="http://www.w3.org/2000/svg" xmlns:xlink="http://www.w3.org/1999/xlink" x="0px" y="0px"
	 viewBox="0 0 49.87 47.24" style="enable-background:new 0 0 49.87 47.24;" xml:space="preserve">
<style type="text/css">
	.st0{fill:#FFE2A8;}
	.st1{fill:#FDCE60;}
	.st2{fill:#00A154;}
	.st3{fill:#68B980;}
	.st4{fill:#9ACDA3;}
	.st5{fill:#444595;}
</style>
<g>
	<path class="st0" d="M11.23,9.25l13.34-8.56c1.1-0.7,2.45-0.88,3.69-0.47L40.18,4.1h9.69v13.06H44c0,0-1.95,3.76-6.53,3.76H11.23
		V9.25z"/>
	<path class="st1" d="M43.14,13.49l-19.7-5.6h9.36V7.65c0-0.84-0.68-1.53-1.52-1.53c0,0-0.01,0-0.01,0H16.11l-4.88,3.13v11.68h26.25
		c1.09,0.01,2.16-0.22,3.15-0.68C43.11,17.47,43.14,13.49,43.14,13.49z"/>
	<path class="st2" d="M0,9.55l0,17.83c0,0.95,0.77,1.72,1.72,1.72h35.87c0.95,0,1.72-0.77,1.72-1.72V7.83H1.72
		C0.77,7.83,0,8.6,0,9.55L0,9.55z"/>
	<path class="st3" d="M0,9.55l0,8.26c4.06,1.66,8.7-0.29,10.36-4.35c0.73-1.8,0.78-3.8,0.14-5.63H1.72C0.77,7.83,0,8.6,0,9.55
		C0,9.55,0,9.55,0,9.55z"/>
	<path class="st3" d="M35.98,22.76c-1.67,0-3.02,1.35-3.02,3.02l0,0H6.34c0-1.67-1.35-3.02-3.02-3.02v-8.59
		c1.67,0,3.02-1.35,3.02-3.02h26.62c0,1.67,1.35,3.02,3.02,3.02c0,0,0,0,0,0L35.98,22.76z"/>
	<path class="st0" d="M42.45,13.56c-1.54,2.94-5.24,3.01-5.24,3.01c-4.97,0-6.37-3.64-6.37-3.64h-6.52c-1.41,0-2.55-1.14-2.55-2.55
		l0,0c0-1.41,1.14-2.55,2.55-2.55h7.79l7.39-1.12c1.46-0.22,2.83,0.78,3.06,2.25c0.03,0.17,0.04,0.33,0.03,0.5L42.45,13.56z"/>
	<path class="st0" d="M1.75,47.24l7.79-11.52c2.21-3.27,6.05-5.06,9.97-4.63c1.25,0.13,2.47,0.4,3.66,0.81
		c0.7,0.25,1.43,0.38,2.17,0.38h7.09c1.51,0,2.74,1.23,2.74,2.74l0,0l6.85-7.41c0.92-0.99,2.44-1.11,3.5-0.27l0,0
		c1.12,0.89,1.3,2.51,0.42,3.63c-0.01,0.01-0.02,0.02-0.02,0.03l-7.65,9.36c-0.67,0.82-1.61,1.35-2.66,1.5L20.8,44.01
		c-1.31,0.19-2.46,0.98-3.1,2.14l-0.6,1.09H1.75z"/>
	<path class="st1" d="M32.55,37.56h-8.1l-2.68,2.16v0.47l1.05-0.01c0.7-0.01,1.36-0.27,1.88-0.73l0.09-0.08
		c0.38-0.34,0.87-0.53,1.37-0.53h7.12c1.25,0.01,2.38-0.73,2.86-1.88c0.31-0.77,0.35-1.79-0.31-3.07l-0.1-0.05l-0.55,0.6
		C35.14,36.74,32.55,37.56,32.55,37.56z"/>
	<path class="st4" d="M10.92,11.16H6.34c0,1.67-1.35,3.02-3.02,3.02v4.22C7.32,18.24,10.57,15.14,10.92,11.16z"/>
	<path class="st5" d="M4.02,22.13V14.8c1.5-0.29,2.67-1.46,2.95-2.95h11.86c0.38,0,0.7-0.31,0.7-0.7c0-0.38-0.31-0.7-0.7-0.7l0,0
		H6.34c-0.38,0-0.7,0.31-0.7,0.7c-0.01,1.28-1.04,2.31-2.32,2.32c-0.38,0-0.7,0.31-0.7,0.7v8.59c0,0.38,0.31,0.7,0.7,0.7
		c1.28,0.01,2.32,1.04,2.32,2.32c0,0.38,0.31,0.7,0.7,0.7h26.62c0.38,0,0.7-0.31,0.7-0.7v0c0-1.28,1.04-2.32,2.32-2.32
		c0.38,0,0.69-0.31,0.69-0.7v-3.14c0.02-0.38-0.28-0.71-0.67-0.72c-0.38-0.02-0.71,0.28-0.72,0.67c0,0.02,0,0.04,0,0.06v2.51
		c-1.5,0.29-2.67,1.46-2.95,2.95H6.97C6.68,23.59,5.51,22.42,4.02,22.13z"/>
	<path class="st5" d="M18.74,16.18h1.67c0.38,0,0.7-0.31,0.7-0.69c0-0.38-0.31-0.7-0.69-0.7c0,0,0,0,0,0h-0.55v-0.45
		c0-0.38-0.31-0.69-0.7-0.69c-0.38,0-0.69,0.31-0.69,0.69v0.46c-1.2,0.15-2.05,1.23-1.91,2.43c0.13,1.1,1.07,1.92,2.17,1.92h0.86
		c0.44,0,0.8,0.36,0.8,0.8c0,0.44-0.36,0.8-0.8,0.8h-1.67c-0.38-0.02-0.71,0.28-0.72,0.67c-0.02,0.38,0.28,0.71,0.67,0.72
		c0.02,0,0.04,0,0.06,0h0.55v0.45c0,0.38,0.31,0.69,0.7,0.69c0.38,0,0.69-0.31,0.69-0.69v-0.46c1.2-0.15,2.05-1.23,1.91-2.43
		c-0.13-1.1-1.06-1.92-2.17-1.92h-0.86c-0.44,0.04-0.83-0.28-0.87-0.72c-0.04-0.44,0.28-0.83,0.72-0.87
		C18.64,16.18,18.69,16.18,18.74,16.18L18.74,16.18z"/>
	<path class="st5" d="M11.51,17.98c-0.13,0.13-0.2,0.3-0.2,0.49c0,0.05,0,0.09,0.01,0.14c0.01,0.04,0.02,0.08,0.04,0.12
		c0.02,0.04,0.04,0.08,0.06,0.12c0.02,0.04,0.05,0.07,0.09,0.1c0.03,0.03,0.07,0.06,0.11,0.09c0.04,0.03,0.08,0.05,0.12,0.06
		c0.04,0.02,0.09,0.03,0.13,0.04c0.04,0.01,0.09,0.01,0.14,0.01c0.18,0,0.36-0.07,0.49-0.2c0.03-0.03,0.06-0.07,0.09-0.1
		c0.02-0.04,0.05-0.08,0.06-0.12c0.02-0.04,0.03-0.08,0.04-0.12c0.01-0.05,0.02-0.09,0.01-0.14c0-0.38-0.31-0.69-0.7-0.69
		C11.81,17.77,11.64,17.85,11.51,17.98L11.51,17.98z"/>
	<path class="st5" d="M26.73,18.85c0.03,0.04,0.05,0.07,0.09,0.1c0.27,0.27,0.71,0.27,0.98,0.01c0.03-0.03,0.06-0.07,0.09-0.11
		c0.03-0.04,0.05-0.08,0.06-0.12c0.02-0.04,0.03-0.08,0.04-0.12C28,18.56,28,18.52,28,18.47c0-0.38-0.31-0.69-0.7-0.69
		c-0.38,0-0.69,0.31-0.69,0.69c0,0.05,0.01,0.09,0.01,0.14c0.01,0.04,0.02,0.08,0.04,0.12C26.68,18.77,26.7,18.81,26.73,18.85z"/>
</g>
</svg>
