<?xml version="1.0" encoding="utf-8"?>
<!-- Generator: Adobe Illustrator 25.0.1, SVG Export Plug-In . SVG Version: 6.00 Build 0)  -->
<svg version="1.1" id="Слой_1" xmlns="http://www.w3.org/2000/svg" xmlns:xlink="http://www.w3.org/1999/xlink" x="0px" y="0px"
	 viewBox="0 0 18.58 18.8" style="enable-background:new 0 0 18.58 18.8;" xml:space="preserve">
<style type="text/css">
	.st0{fill:none;stroke:#FFFFFF;stroke-width:0.25;stroke-miterlimit:10;}
</style>
<g>
	<path class="st0" d="M14.4,13.26L14.4,13.26c0-2.24-1.43-4.12-3.34-4.64c0.49-0.51,0.81-1.23,0.81-2.04c0-1.56-1.15-2.82-2.58-2.82
		c-1.42,0-2.58,1.26-2.58,2.82c0,0.8,0.31,1.52,0.81,2.04c-1.91,0.52-3.34,2.4-3.34,4.64v0c0,0.63,0.12,1.22,0.32,1.77h9.58
		C14.28,14.48,14.4,13.89,14.4,13.26z"/>
	<line class="st0" x1="12.88" y1="12.28" x2="12.88" y2="14.68"/>
	<line class="st0" x1="6.09" y1="12.28" x2="6.09" y2="14.68"/>
</g>
</svg>
