<?xml version="1.0" encoding="utf-8"?>
<!-- Generator: Adobe Illustrator 25.0.1, SVG Export Plug-In . SVG Version: 6.00 Build 0)  -->
<svg version="1.1" id="Слой_1" xmlns="http://www.w3.org/2000/svg" xmlns:xlink="http://www.w3.org/1999/xlink" x="0px" y="0px"
     viewBox="0 0 50 50" style="enable-background:new 0 0 50 50;" xml:space="preserve">
<style type="text/css">
	.st0{fill:#FFFFFF;}
</style>
    <g>
	<g>
		<path class="st0" d="M48.7,50H1.6v-0.2C0.5,47.4,0,44.9,0,42.1c0-9.5,6.7-18,16.1-20.6c-2.5-2.5-3.9-5.5-3.9-8.8
			C12.2,5.8,18.1,0,25,0s12.8,5.6,12.8,12.7c0,3.3-1.4,6.5-3.9,8.8C43.4,23.9,50,32.4,50,42.1C50.1,44.9,49.8,47.4,48.7,50L48.7,50z
			 M1.9,49.8h46.4c1.1-2.5,1.4-5.1,1.4-7.6c0-9.5-6.7-17.8-16.1-20.2l-0.4-0.2l0.2-0.4c2.5-2.5,3.9-5.5,3.9-8.8
			c0-6.7-5.5-12.3-12.2-12.3S12.8,6,12.8,12.9c0,3.3,1.4,6.5,3.9,8.8l0.2,0.4h-0.2C7.1,24.5,0.4,32.6,0.4,42.3
			C0.4,44.7,1.1,47.2,1.9,49.8z"/>
	</g>
        <g>
		<rect x="42.3" y="37.9" class="st0" width="0.4" height="10.6"/>
	</g>
        <g>
		<rect x="9.4" y="37.9" class="st0" width="0.4" height="10.6"/>
	</g>
</g>
</svg>
