<?xml version="1.0" encoding="utf-8"?>
<!-- Generator: Adobe Illustrator 25.0.1, SVG Export Plug-In . SVG Version: 6.00 Build 0)  -->
<svg version="1.1" id="Слой_1" xmlns="http://www.w3.org/2000/svg" xmlns:xlink="http://www.w3.org/1999/xlink" x="0px" y="0px"
     viewBox="0 0 50 50" style="enable-background:new 0 0 50 50;" xml:space="preserve">
<style type="text/css">
	.st0{fill:#1D1D1B;}
	.st1{fill:#FFFFFF;}
</style>
    <g>
	<g>
		<path class="st0" d="M-159.1,54.9h-32.6v-0.1c-0.8-1.7-1.1-3.5-1.1-5.4c0-6.6,4.7-12.4,11.2-14.2c-1.7-1.7-2.7-3.8-2.7-6.1
			c0-4.8,4.1-8.8,8.9-8.8c4.8,0,8.9,3.9,8.9,8.8c0,2.2-1,4.5-2.7,6.1c6.6,1.6,11.2,7.5,11.2,14.2C-158.1,51.3-158.3,53.1-159.1,54.9
			L-159.1,54.9z M-191.5,54.8h32.2c0.7-1.7,1-3.6,1-5.3c0-6.6-4.7-12.3-11.2-13.9l-0.3-0.1l0.1-0.3c1.7-1.7,2.7-3.8,2.7-6.1
			c0-4.7-3.8-8.5-8.4-8.5c-4.6,0-8.5,4-8.5,8.8c0,2.2,1,4.5,2.7,6.1l0.1,0.3h-0.1c-6.7,1.5-11.3,7.1-11.3,13.8
			C-192.5,51.2-192.1,53-191.5,54.8z"/>
	</g>
        <g>
		<rect x="-163.5" y="46.6" class="st0" width="0.3" height="7.3"/>
	</g>
        <g>
		<rect x="-186.3" y="46.6" class="st0" width="0.3" height="7.3"/>
	</g>
</g>
    <path class="st0" d="M-107.9,53.9c-1.8-9.9-6.5-17.9-12.5-20.9c1.6-1.5,2.5-3.6,2.5-5.8c0-4.4-3.6-8-8-8s-8,3.6-8,8
	c0,2.2,0.9,4.3,2.5,5.8c-5.9,3-10.7,11-12.5,20.9l-0.1,0.4h7.8h0.6h18.8h0.6h8.3L-107.9,53.9z M-116.2,53.7V44h-0.6v9.6h-18.8V44
	h-0.6v9.6h-7.1c1.8-9.8,6.6-17.6,12.5-20.3l0.4-0.2l-0.4-0.3c-1.7-1.4-2.6-3.5-2.6-5.6c0-4.1,3.3-7.4,7.4-7.4s7.4,3.3,7.4,7.4
	c0,2.2-1,4.2-2.6,5.6l-0.4,0.3l0.4,0.2c5.9,2.8,10.6,10.5,12.5,20.3H-116.2z"/>
    <path class="st1" d="M42.7,42c-1.8-9.8-6.4-17.7-12.3-20.6c1.6-1.5,2.4-3.5,2.4-5.7c0-4.4-3.5-7.9-7.9-7.9s-7.9,3.5-7.9,7.9
	c0,2.2,0.9,4.2,2.4,5.7C13.7,24.3,9,32.2,7.3,42l-0.1,0.3h7.7h0.6H34h0.6h8.2L42.7,42z M34.6,41.7v-9.5H34v9.5H15.4v-9.5h-0.6v9.5
	h-7c1.8-9.7,6.5-17.3,12.3-20.1l0.4-0.2l-0.3-0.3c-1.6-1.4-2.6-3.4-2.6-5.6c0-4,3.3-7.3,7.3-7.3s7.3,3.3,7.3,7.3
	c0,2.1-0.9,4.2-2.6,5.6l-0.3,0.3l0.4,0.2c5.8,2.7,10.5,10.4,12.3,20.1H34.6z"/>
</svg>
