<?xml version="1.0" encoding="utf-8"?>
<!-- Generator: Adobe Illustrator 25.0.1, SVG Export Plug-In . SVG Version: 6.00 Build 0)  -->
<svg version="1.1" id="Слой_1" xmlns="http://www.w3.org/2000/svg" xmlns:xlink="http://www.w3.org/1999/xlink" x="0px" y="0px"
     viewBox="0 0 50 50" style="enable-background:new 0 0 50 50;" xml:space="preserve">
<style type="text/css">
	.st0{fill:#FFFFFF;}
</style>
    <g>
	<g>
		<path class="st0" d="M41.4,42.3H8.8v-0.1c-0.8-1.7-1.1-3.5-1.1-5.4c0-6.6,4.7-12.4,11.2-14.2c-1.7-1.7-2.7-3.8-2.7-6.1
			c0-4.8,4.1-8.8,8.9-8.8s8.9,3.9,8.9,8.8c0,2.2-1,4.5-2.7,6.1c6.6,1.6,11.2,7.5,11.2,14.2C42.4,38.7,42.2,40.5,41.4,42.3L41.4,42.3
			z M9,42.2h32.2c0.7-1.7,1-3.6,1-5.3c0-6.6-4.7-12.3-11.2-13.9l-0.3-0.1l0.1-0.3c1.7-1.7,2.7-3.8,2.7-6.1c0-4.7-3.8-8.5-8.4-8.5
			s-8.5,4-8.5,8.8c0,2.2,1,4.5,2.7,6.1l0.1,0.3h-0.1C12.6,24.7,8,30.3,8,37C8,38.6,8.4,40.4,9,42.2z"/>
	</g>
        <g>
		<rect x="37" y="34" class="st0" width="0.3" height="7.3"/>
	</g>
        <g>
		<rect x="14.2" y="34" class="st0" width="0.3" height="7.3"/>
	</g>
</g>
</svg>
