<?xml version="1.0" encoding="utf-8"?>
<!-- Generator: Adobe Illustrator 25.0.1, SVG Export Plug-In . SVG Version: 6.00 Build 0)  -->
<svg version="1.1" id="Слой_1" xmlns="http://www.w3.org/2000/svg" xmlns:xlink="http://www.w3.org/1999/xlink" x="0px" y="0px"
	 viewBox="0 0 12.18 8.6" style="enable-background:new 0 0 12.18 8.6;" xml:space="preserve">
<style type="text/css">
	.st0{fill:#FFFFFF;}
	.st1{fill:none;stroke:#E63060;stroke-width:1.5;stroke-linecap:round;stroke-linejoin:round;}
</style>
<path class="st0" d="M8.4,5.48C9.06,3.2,7.75,0.83,5.48,0.17S0.83,0.82,0.17,3.1S0.82,7.75,3.1,8.4C4.83,8.9,6.7,8.26,7.76,6.8
	l3.58,1.74c0.36,0.18,0.43-0.09,0.61-0.46c0.18-0.36,0.4-0.68,0.03-0.86L8.4,5.48z M3.66,7.53C1.86,7.18,0.69,5.45,1.04,3.66
	s2.08-2.96,3.87-2.61c1.79,0.35,2.96,2.08,2.61,3.87c0,0,0,0,0,0C7.18,6.71,5.45,7.88,3.66,7.53C3.66,7.53,3.66,7.53,3.66,7.53
	L3.66,7.53z"/>
<path class="st1" d="M3.06,3.2"/>
</svg>
