<?xml version="1.0" encoding="utf-8"?>
<!-- Generator: Adobe Illustrator 25.0.1, SVG Export Plug-In . SVG Version: 6.00 Build 0)  -->
<svg version="1.1" id="Слой_1" xmlns="http://www.w3.org/2000/svg" xmlns:xlink="http://www.w3.org/1999/xlink" x="0px" y="0px"
     viewBox="0 0 28.8 28.8" style="enable-background:new 0 0 28.8 28.8;" xml:space="preserve">
<style type="text/css">
	.st0{fill:#0097AE;}
</style>
    <g>
	<path class="st0" d="M22.7,17.9c-0.6,0.4-1.3,0.9-1.9,1.3c-0.7,0.4-1.3,0.8-2,1.2c-0.7,0.4-1.3,0.8-2,1.2c-0.7,0.4-1.4,0.8-2.1,1.1
		l0,0C17.3,21.1,20,19.5,22.7,17.9L22.7,17.9z"/>
        <g>
		<path class="st0" d="M6.9,11.6c0.6-0.4,1.2-0.8,1.8-1.2c0.6-0.4,1.2-0.8,1.8-1.1c0.6-0.4,1.2-0.7,1.9-1.1c0.6-0.4,1.3-0.7,1.9-1
			l0,0C11.8,8.6,9.4,10.1,6.9,11.6L6.9,11.6z"/>
	</g>
        <g>
		<path class="st0" d="M14.4,0C6.5,0,0,6.5,0,14.4s6.5,14.4,14.4,14.4s14.4-6.5,14.4-14.4S22.3,0,14.4,0z M27,14.4
			C27,21.3,21.3,27,14.4,27C7.4,27,1.8,21.3,1.8,14.4c0-6.9,5.6-12.6,12.6-12.6C21.3,1.8,27,7.4,27,14.4z"/>
	</g>
        <g>
		<g>
			<path class="st0" d="M5.3,19.9c2.9-2,6-3.9,9-5.7c3.1-1.8,6.1-3.6,9.3-5.2c-2.9,2-6,3.9-9,5.7C11.5,16.4,8.4,18.2,5.3,19.9z"/>
		</g>
            <g>
			<path class="st0" d="M22.1,13.4c-0.9,0.8-1.9,1.5-2.9,2.1c-1,0.7-2,1.3-3,1.9c-1,0.6-2,1.2-3.1,1.7c-1,0.6-2.1,1.1-3.2,1.5l0,0
				C13.9,18.2,18,15.8,22.1,13.4L22.1,13.4z"/>
		</g>
            <g>
			<path class="st0" d="M6.7,15.3c0.9-0.8,1.9-1.5,2.9-2.1c1-0.7,2-1.3,3-1.9c1-0.6,2-1.2,3.1-1.7c1-0.6,2.1-1.1,3.2-1.5l0,0
				C14.9,10.6,10.8,13,6.7,15.3L6.7,15.3z"/>
		</g>
	</g>
</g>
</svg>
