<?xml version="1.0" standalone="no"?>
<!DOCTYPE svg PUBLIC "-//W3C//DTD SVG 20010904//EN"
 "http://www.w3.org/TR/2001/REC-SVG-20010904/DTD/svg10.dtd">
<svg version="1.0" xmlns="http://www.w3.org/2000/svg"
 width="700.000000pt" height="700.000000pt" viewBox="0 0 700.000000 700.000000"
 preserveAspectRatio="xMidYMid meet">
<metadata>
Created by potrace 1.14, written by Peter Selinger 2001-2017
</metadata>
<g transform="translate(0.000000,700.000000) scale(0.100000,-0.100000)"
fill="#000000" stroke="none">
<path d="M3278 6995 c-1 -1 -42 -5 -89 -9 -47 -4 -95 -8 -105 -10 -10 -2 -41
-7 -69 -10 -46 -6 -194 -32 -240 -43 -11 -2 -31 -6 -45 -9 -185 -36 -500 -147
-733 -259 -260 -124 -589 -337 -760 -494 -179 -162 -211 -194 -319 -308 -161
-172 -361 -452 -487 -680 -121 -218 -257 -551 -307 -753 -46 -186 -50 -201
-65 -285 -5 -33 -12 -71 -15 -85 -3 -14 -7 -45 -10 -70 -3 -25 -7 -56 -9 -70
-26 -150 -27 -679 -1 -817 2 -10 7 -45 10 -78 4 -33 9 -67 11 -75 3 -8 7 -31
9 -50 3 -19 14 -78 26 -130 12 -52 24 -106 26 -119 3 -14 7 -28 10 -33 3 -4 7
-17 9 -28 9 -49 62 -206 111 -334 169 -434 439 -853 761 -1181 70 -71 110
-109 233 -220 109 -98 325 -253 490 -352 365 -219 848 -396 1225 -448 28 -4
59 -9 70 -10 236 -37 651 -41 908 -10 159 19 365 62 537 112 1105 319 1997
1176 2362 2268 22 66 41 128 43 138 2 10 13 50 24 90 27 99 69 310 77 388 3
35 8 67 10 70 24 42 24 789 -1 829 -2 3 -6 32 -10 64 -3 33 -8 62 -9 65 -2 3
-7 28 -10 55 -4 27 -14 79 -22 115 -8 36 -17 77 -20 91 -50 241 -192 601 -355
900 -76 139 -285 439 -380 545 -101 113 -139 154 -189 204 -327 327 -670 561
-1115 761 -191 86 -544 193 -740 224 -34 5 -118 19 -125 21 -3 1 -39 5 -80 9
-41 4 -88 10 -105 13 -33 5 -531 13 -537 8z m415 -439 c127 -7 276 -27 419
-57 56 -11 112 -22 122 -25 41 -8 205 -58 291 -89 518 -185 982 -510 1330
-930 28 -33 52 -62 55 -65 12 -10 129 -177 173 -245 201 -314 356 -700 422
-1060 10 -49 18 -97 20 -105 8 -41 26 -203 30 -260 6 -82 6 -359 0 -425 -5
-72 -15 -164 -19 -194 -22 -141 -31 -190 -51 -276 -70 -305 -212 -658 -354
-880 -14 -22 -31 -51 -38 -63 -25 -47 -143 -210 -218 -302 -368 -453 -850
-790 -1399 -979 -65 -23 -128 -43 -140 -46 -11 -2 -48 -12 -81 -21 -33 -9 -67
-17 -75 -19 -280 -58 -440 -76 -680 -76 -145 0 -201 3 -325 17 -738 79 -1425
424 -1920 965 -103 113 -123 136 -196 234 -176 233 -293 442 -404 715 -82 205
-160 490 -181 665 -2 17 -6 39 -8 50 -3 11 -8 54 -12 95 -3 41 -8 91 -10 110
-12 117 -4 408 17 575 17 142 20 158 45 277 225 1071 1043 1964 2092 2284 64
20 125 38 135 40 9 2 25 6 35 8 49 12 231 48 257 51 17 3 63 9 103 15 40 5
128 13 195 16 67 4 123 7 124 8 3 2 140 -2 246 -8z"/>
<path d="M3235 5132 c-71 -37 -176 -96 -233 -130 -56 -34 -104 -62 -107 -62
-6 0 -268 -151 -295 -170 -14 -10 -56 -35 -95 -55 -132 -71 -725 -456 -725
-471 0 -4 6 -2 13 4 10 8 492 301 675 411 55 33 39 23 302 181 124 74 229 137
235 139 5 2 21 12 35 21 14 9 50 31 80 47 65 36 253 144 259 149 19 17 -34 -7
-144 -64z"/>
<path d="M4415 4961 c-195 -80 -308 -134 -465 -219 -74 -41 -201 -107 -281
-147 -291 -145 -878 -496 -1266 -756 -72 -49 -134 -89 -137 -89 -20 0 -436
-294 -503 -356 -14 -13 -45 -38 -69 -56 -24 -18 -44 -37 -44 -42 0 -5 6 -4 13
1 6 6 32 22 57 35 25 14 142 80 260 148 118 67 235 134 260 148 25 14 59 33
75 42 239 135 914 531 1320 775 324 194 922 560 934 571 13 12 -29 -3 -154
-55z"/>
<path d="M5600 4744 c-47 -25 -150 -79 -230 -121 -137 -72 -167 -88 -307 -164
-261 -143 -732 -411 -1208 -689 -255 -148 -692 -410 -920 -550 -115 -71 -217
-133 -225 -137 -8 -3 -41 -24 -73 -45 -32 -21 -60 -38 -63 -38 -2 0 -35 -20
-72 -44 -37 -24 -177 -114 -312 -199 -348 -222 -870 -566 -870 -575 0 -2 15 5
33 16 17 11 68 39 112 62 44 24 97 54 117 67 21 12 40 23 42 23 2 0 141 77
308 171 268 152 346 195 528 296 25 14 113 64 195 110 217 123 383 217 437
247 26 14 83 45 125 69 43 24 103 57 133 74 172 93 230 127 650 383 533 324
960 594 1340 846 285 189 365 244 354 244 -5 -1 -47 -21 -94 -46z"/>
<path d="M5245 3670 c-55 -33 -108 -64 -118 -70 -9 -6 -110 -65 -223 -131
-113 -66 -220 -128 -237 -138 -30 -17 -230 -135 -647 -381 -209 -124 -274
-161 -308 -180 -30 -17 -393 -233 -761 -453 -129 -76 -247 -147 -262 -156
-163 -95 -259 -153 -259 -157 0 -4 22 5 170 64 156 63 366 164 500 242 36 20
117 63 180 94 298 145 853 474 1322 782 90 59 213 140 275 181 132 86 288 201
396 291 109 92 107 92 -28 12z"/>
<path d="M5280 2510 c-80 -49 -156 -95 -170 -102 -13 -7 -101 -59 -194 -115
-93 -57 -170 -103 -172 -103 -2 0 -27 -15 -56 -33 -29 -19 -60 -37 -68 -40 -8
-4 -141 -84 -295 -177 -154 -94 -315 -192 -359 -218 -43 -26 -93 -56 -111 -67
-18 -11 -80 -49 -138 -84 -59 -36 -105 -66 -103 -68 3 -3 207 99 281 141 22
12 69 39 105 58 36 20 109 62 162 94 731 439 938 566 1078 663 245 168 256
183 40 51z"/>
</g>
</svg>
