<?xml version="1.0" encoding="utf-8"?>
<!-- Generator: Adobe Illustrator 24.3.0, SVG Export Plug-In . SVG Version: 6.00 Build 0)  -->
<svg version="1.1" id="Слой_1" xmlns="http://www.w3.org/2000/svg" xmlns:xlink="http://www.w3.org/1999/xlink" x="0px" y="0px"
	 viewBox="0 0 635.6 195" style="enable-background:new 0 0 635.6 195;" xml:space="preserve">
<style type="text/css">
	.st0{fill:#2E3192;}
	.st1{fill:#FFF200;}
	.st2{fill:#EC008C;}
	.st3{fill:#00AEEF;}
</style>
<g>
	<g>
		<path class="st0" d="M295.3,56.8l-38.5,79.4h-2.6l-38.5-79.4h18.3l21.5,47.5L277,56.8H295.3z"/>
		<path class="st0" d="M317.9,56.8v14.4h-16.6V56.8H317.9z M317.9,77.2v59h-16.6v-59H317.9z"/>
		<path class="st0" d="M356.6,76.5c4.5,0,9.1,1.1,13.6,3.3c4.5,2.2,8.2,5.6,11.1,10l-14.4,5.2c-2.3-3.2-5.7-4.8-10.3-4.8
			c-3.7,0-6.9,1.5-9.6,4.5c-2.7,3-4.1,7-4.1,12.1c0,4.8,1.4,8.7,4.1,11.7c2.7,2.9,5.9,4.4,9.6,4.4c4.7,0,8.1-1.5,10.3-4.6l14.5,5.2
			c-2.9,4.5-6.7,7.8-11.2,10c-4.5,2.2-9.1,3.3-13.6,3.3c-3.2,0-6.4-0.6-9.8-1.9c-3.4-1.2-6.6-3-9.6-5.4c-3.1-2.3-5.6-5.5-7.5-9.5
			c-2-4-2.9-8.4-2.9-13.3c0-5,1-9.5,2.9-13.5c2-4,4.5-7.2,7.5-9.6c3.1-2.3,6.3-4.1,9.6-5.4C350.1,77.2,353.4,76.5,356.6,76.5z"/>
		<path class="st0" d="M420.9,90.4h-12.6v26.9c0,3.8,1.6,5.7,4.9,5.7c2.9,0,5.4-0.5,7.6-1.4v13.3c-2.7,1.4-6.5,2-11.5,2
			c-5.4,0-9.7-1.4-12.7-4.1c-3-2.8-4.5-7.9-4.5-15.4v-27h-5.8V77.2h5.8V67h16.2v10.2h12.6V90.4z"/>
		<path class="st0" d="M445,78.5c3.4-1.3,6.7-1.9,9.9-1.9s6.5,0.6,9.9,1.9c3.4,1.3,6.6,3.1,9.7,5.5c3.1,2.4,5.6,5.6,7.5,9.6
			c2,4,2.9,8.5,2.9,13.4c0,4.9-1,9.4-2.9,13.3c-2,4-4.5,7.1-7.5,9.5c-3.1,2.3-6.3,4.1-9.7,5.4c-3.4,1.2-6.7,1.9-9.9,1.9
			s-6.5-0.6-9.9-1.9c-3.4-1.2-6.7-3-9.8-5.4c-3.1-2.3-5.6-5.5-7.6-9.5c-2-4-2.9-8.4-2.9-13.3c0-4.9,1-9.4,2.9-13.4
			c2-4,4.5-7.2,7.5-9.6C438.3,81.6,441.5,79.8,445,78.5z M454.9,90.4c-3.7,0-7,1.5-9.7,4.4c-2.8,2.9-4.2,7-4.2,12.1
			c0,5,1.4,8.9,4.2,11.8c2.8,2.9,6,4.3,9.7,4.3c3.6,0,6.8-1.4,9.6-4.3c2.8-2.9,4.2-6.8,4.2-11.8c0-5.1-1.4-9.2-4.2-12.1
			C461.7,91.8,458.5,90.4,454.9,90.4z"/>
		<path class="st0" d="M528,76.7c2.5,0,4.3,0.2,5.6,0.5v15.1c-1.3-0.2-3.2-0.3-5.7-0.3c-5.1,0-9.4,1.7-12.9,5.2
			c-3.5,3.5-5.5,8-6.1,13.6v25.5h-16.1v-59H509v18.9c0.7-5.9,2.6-10.6,5.7-14.2C517.7,78.4,522.2,76.7,528,76.7z"/>
		<path class="st0" d="M558.1,56.8v14.4h-16.6V56.8H558.1z M558.1,77.2v59h-16.6v-59H558.1z"/>
		<path class="st0" d="M594.3,76.5c4.2,0,7.8,0.9,10.7,2.7c2.9,1.8,4.4,3.4,4.5,4.9v-6.9h16.2v59h-16.2v-7.8
			c-0.1,1.5-1.6,3.3-4.5,5.4c-2.9,2.1-6.5,3.2-10.7,3.2c-3.2,0-6.3-0.6-9.5-1.9c-3.2-1.2-6.1-3.1-8.8-5.4c-2.7-2.4-4.9-5.6-6.6-9.6
			c-1.7-4-2.6-8.5-2.6-13.5c0-9.3,2.9-16.6,8.6-22C581,79.2,587.4,76.5,594.3,76.5z M606.5,94.3c-2.5-2.6-5.6-3.9-9.4-3.9
			c-3.8,0-7.1,1.5-9.9,4.4c-2.8,2.9-4.2,6.9-4.2,11.8c0,5.1,1.4,9.1,4.2,12c2.8,2.9,6.1,4.4,9.9,4.4c3.8,0,6.9-1.3,9.4-4
			c2.5-2.7,3.7-6.8,3.7-12.4C610.2,101,609,96.9,606.5,94.3z"/>
	</g>
</g>
<circle class="st1" cx="109.2" cy="31.8" r="24.7"/>
<path class="st2" d="M89.6,128.8l19.6-33.9L66.3,20.6C61.4,12.2,52.5,7,42.7,7H3.6l105.6,182.9l0,0L89.6,156
	C84.8,147.6,84.8,137.2,89.6,128.8z"/>
<path class="st3" d="M214.8,7h-39.1c-9.7,0-18.7,5.2-23.5,13.6l-42.9,74.3l19.6,33.9c4.9,8.4,4.9,18.8,0,27.2l-19.6,33.9v0L214.8,7z
	"/>
<path class="st0" d="M128.8,128.8l-19.6-33.9l-19.6,33.9c-4.9,8.4-4.9,18.8,0,27.2l19.6,33.9l19.6-33.9
	C133.6,147.6,133.6,137.2,128.8,128.8z"/>
<g>
	<path class="st0" d="M230.5,155.1c2.6,0,4.7,0.7,6.3,2.1c1.6,1.4,2.3,3.2,2.3,5.5c0,2.2-0.8,4-2.3,5.5c-1.6,1.4-3.7,2.1-6.3,2.1
		h-4.6v9.2h-3.6v-24.3H230.5z M230.3,167.1c1.6,0,2.9-0.4,3.8-1.1c0.9-0.8,1.4-1.8,1.4-3.2c0-1.4-0.5-2.5-1.4-3.2
		c-0.9-0.8-2.2-1.1-3.8-1.1h-4.4v8.7H230.3z"/>
	<path class="st0" d="M252.6,161.2c1,0,2,0.2,3,0.6s2,1,2.8,1.7c0.9,0.7,1.6,1.7,2.2,2.9c0.6,1.2,0.8,2.6,0.8,4.1
		c0,0.5,0,0.9-0.1,1.3h-14.1c0.2,1.5,0.8,2.7,1.9,3.6s2.2,1.3,3.5,1.3c1.8,0,3.2-0.6,4.2-1.7l2.8,1.6c-1.8,2.1-4.2,3.2-7.1,3.2
		c-1,0-2-0.2-3-0.6c-1-0.4-2-0.9-2.9-1.7c-0.9-0.7-1.7-1.7-2.2-2.9c-0.6-1.2-0.9-2.6-0.9-4.1c0-1.5,0.3-2.8,0.8-4.1
		c0.6-1.2,1.3-2.2,2.2-2.9c0.9-0.7,1.8-1.3,2.9-1.7C250.6,161.4,251.6,161.2,252.6,161.2z M252.6,164.2c-1.2,0-2.4,0.4-3.4,1.2
		c-1,0.8-1.6,2-1.9,3.6h10.6c-0.2-1.6-0.9-2.7-1.9-3.6C255,164.6,253.8,164.2,252.6,164.2z"/>
	<path class="st0" d="M283.1,179.4h-4.5l-6.9-7.1l-1.4,1.4v5.7h-3.5v-18.1h3.5v7.7l7.5-7.7h4.5l-8.4,8.6L283.1,179.4z"/>
	<path class="st0" d="M307.2,161.4v18.1h-3.5v-15h-9.9v10.7c0,1.7-0.4,2.9-1.1,3.6c-0.7,0.7-1.7,1-3,1c-1.3,0-2.4-0.2-3.2-0.6V176
		c0.9,0.4,1.7,0.7,2.4,0.7c0.5,0,0.9-0.2,1.1-0.5c0.2-0.3,0.4-0.7,0.4-1.2v-13.5H307.2z"/>
	<path class="st0" d="M320.9,161.2c1.4,0,2.6,0.3,3.6,0.9c1.1,0.6,1.7,1.4,2.1,2.3v-3h3.5v18.1h-3.5v-3.2c-0.3,0.9-1,1.7-2.1,2.4
		c-1.1,0.7-2.3,1-3.6,1c-1,0-2-0.2-3-0.6c-1-0.4-1.9-1-2.7-1.7c-0.8-0.7-1.5-1.7-2-2.9c-0.5-1.2-0.8-2.6-0.8-4.1
		c0-1.5,0.3-2.8,0.8-4c0.5-1.2,1.2-2.2,2-2.9c0.8-0.7,1.8-1.3,2.7-1.7C318.9,161.4,319.9,161.2,320.9,161.2z M325.2,165.8
		c-1.1-1-2.3-1.6-3.7-1.6c-1.4,0-2.7,0.6-3.8,1.7c-1.1,1.1-1.7,2.6-1.7,4.5c0,1.9,0.6,3.5,1.7,4.6c1.1,1.1,2.4,1.6,3.8,1.6
		c1.4,0,2.7-0.5,3.7-1.6c1.1-1.1,1.6-2.6,1.6-4.6C326.7,168.4,326.2,166.8,325.2,165.8z"/>
	<path class="st0" d="M357,161.4v18.1h-3.5v-9.3l-6.6,9.3h-0.8l-6.5-9.3v9.3h-3.5v-18.1h0.7l9.8,13.1l9.8-13.1H357z"/>
	<path class="st0" d="M376.1,161.4h3.5v18.1h-3.5v-7.5H367v7.5h-3.5v-18.1h3.5v7.5h9.1V161.4z"/>
	<path class="st0" d="M393.8,161.2c1,0,2,0.2,3,0.6c1,0.4,2,1,2.9,1.7c0.9,0.7,1.6,1.7,2.2,2.9c0.6,1.2,0.9,2.6,0.9,4.1
		c0,1.5-0.3,2.9-0.9,4.1c-0.6,1.2-1.3,2.2-2.2,2.9c-0.9,0.7-1.9,1.3-2.9,1.7c-1,0.4-2,0.6-3,0.6s-2-0.2-3-0.6c-1-0.4-2-0.9-2.9-1.7
		c-0.9-0.7-1.7-1.7-2.2-2.9c-0.6-1.2-0.9-2.6-0.9-4.1c0-1.5,0.3-2.8,0.9-4.1c0.6-1.2,1.3-2.2,2.2-2.9c0.9-0.7,1.9-1.3,2.9-1.7
		S392.8,161.2,393.8,161.2z M393.8,164.2c-1.4,0-2.7,0.6-3.8,1.6c-1.1,1.1-1.7,2.6-1.7,4.6c0,1.9,0.6,3.5,1.7,4.5
		c1.1,1.1,2.4,1.6,3.8,1.6c1.4,0,2.6-0.5,3.8-1.6c1.1-1.1,1.7-2.6,1.7-4.5c0-2-0.6-3.5-1.7-4.6C396.5,164.7,395.2,164.2,393.8,164.2
		z"/>
	<path class="st0" d="M415.9,161.2c1,0,2,0.2,3,0.6s2,1,2.8,1.7c0.9,0.7,1.6,1.7,2.2,2.9c0.6,1.2,0.8,2.6,0.8,4.1
		c0,0.5,0,0.9-0.1,1.3h-14.1c0.2,1.5,0.8,2.7,1.9,3.6s2.2,1.3,3.5,1.3c1.8,0,3.2-0.6,4.2-1.7l2.8,1.6c-1.8,2.1-4.2,3.2-7.1,3.2
		c-1,0-2-0.2-3-0.6c-1-0.4-2-0.9-2.9-1.7c-0.9-0.7-1.7-1.7-2.2-2.9c-0.6-1.2-0.9-2.6-0.9-4.1c0-1.5,0.3-2.8,0.8-4.1
		c0.6-1.2,1.3-2.2,2.2-2.9c0.9-0.7,1.8-1.3,2.9-1.7C413.8,161.4,414.8,161.2,415.9,161.2z M415.9,164.2c-1.2,0-2.4,0.4-3.4,1.2
		c-1,0.8-1.6,2-1.9,3.6h10.6c-0.2-1.6-0.9-2.7-1.9-3.6C418.2,164.6,417.1,164.2,415.9,164.2z"/>
	<path class="st0" d="M459.7,179.4l-2.6-5.9h-10.4l-2.6,5.9h-3.9l11.4-24.3h0.7l11.4,24.3H459.7z M448.1,170.5h7.7l-3.9-8.6
		L448.1,170.5z"/>
	<path class="st0" d="M482.7,161.4v3h-10.8v15h-3.5v-18.1H482.7z"/>
	<path class="st0" d="M495.3,161.2c1,0,2,0.2,3,0.6s2,1,2.8,1.7c0.9,0.7,1.6,1.7,2.2,2.9c0.6,1.2,0.8,2.6,0.8,4.1
		c0,0.5,0,0.9-0.1,1.3H490c0.2,1.5,0.8,2.7,1.9,3.6s2.2,1.3,3.5,1.3c1.8,0,3.2-0.6,4.2-1.7l2.8,1.6c-1.8,2.1-4.2,3.2-7.1,3.2
		c-1,0-2-0.2-3-0.6c-1-0.4-2-0.9-2.9-1.7c-0.9-0.7-1.7-1.7-2.2-2.9c-0.6-1.2-0.9-2.6-0.9-4.1c0-1.5,0.3-2.8,0.8-4.1
		c0.6-1.2,1.3-2.2,2.2-2.9c0.9-0.7,1.8-1.3,2.9-1.7C493.2,161.4,494.2,161.2,495.3,161.2z M495.3,164.2c-1.2,0-2.4,0.4-3.4,1.2
		c-1,0.8-1.6,2-1.9,3.6h10.6c-0.2-1.6-0.9-2.7-1.9-3.6C497.6,164.6,496.5,164.2,495.3,164.2z"/>
	<path class="st0" d="M521.9,161.4h3.5v18.1h-3.5v-7.5h-9.1v7.5h-3.5v-18.1h3.5v7.5h9.1V161.4z"/>
	<path class="st0" d="M545.3,161.4v3H540v15h-3.5v-15h-5.3v-3H545.3z"/>
	<path class="st0" d="M558.9,161.2c1.4,0,2.8,0.4,4.2,1.1s2.5,1.8,3.3,3.2l-3.2,1.1c-1-1.6-2.5-2.4-4.4-2.4c-1.4,0-2.7,0.6-3.8,1.7
		c-1.1,1.1-1.7,2.6-1.7,4.6c0,1.9,0.6,3.4,1.7,4.5c1.1,1.1,2.4,1.6,3.8,1.6c0.9,0,1.7-0.2,2.5-0.6s1.4-1,1.9-1.7l3.2,1.1
		c-0.8,1.4-1.9,2.4-3.3,3.2s-2.8,1.1-4.2,1.1c-1,0-2-0.2-3-0.6c-1-0.4-2-0.9-2.9-1.7c-0.9-0.7-1.6-1.7-2.2-2.9
		c-0.6-1.2-0.9-2.6-0.9-4.1c0-1.5,0.3-2.9,0.9-4.1c0.6-1.2,1.3-2.2,2.2-2.9c0.9-0.7,1.9-1.3,2.9-1.7
		C556.9,161.4,557.9,161.2,558.9,161.2z"/>
	<path class="st0" d="M583.8,161.4v3h-5.3v15H575v-15h-5.3v-3H583.8z"/>
	<path class="st0" d="M602.1,169.4c2.5,0.9,3.7,2.4,3.7,4.7c0,1.8-0.7,3.1-2,4c-1.3,0.9-3.3,1.3-5.7,1.3h-8.7v-18.1h8.7
		c1.9,0,3.5,0.4,4.6,1.2c1.1,0.8,1.7,2,1.7,3.5C604.5,167.8,603.7,169,602.1,169.4z M592.9,164.3v3.9h5.2c1.9,0,2.8-0.7,2.8-2
		c0-1.2-0.9-1.9-2.8-1.9H592.9z M598.1,176.6c2.8,0,4.2-0.8,4.2-2.4c0-2-1.4-3-4.2-3h-5.2v5.4H598.1z"/>
	<path class="st0" d="M619.2,161.2c1,0,2,0.2,3,0.6c1,0.4,2,1,2.9,1.7c0.9,0.7,1.6,1.7,2.2,2.9c0.6,1.2,0.9,2.6,0.9,4.1
		c0,1.5-0.3,2.9-0.9,4.1c-0.6,1.2-1.3,2.2-2.2,2.9c-0.9,0.7-1.9,1.3-2.9,1.7c-1,0.4-2,0.6-3,0.6s-2-0.2-3-0.6c-1-0.4-2-0.9-2.9-1.7
		c-0.9-0.7-1.7-1.7-2.2-2.9c-0.6-1.2-0.9-2.6-0.9-4.1c0-1.5,0.3-2.8,0.9-4.1c0.6-1.2,1.3-2.2,2.2-2.9c0.9-0.7,1.9-1.3,2.9-1.7
		S618.2,161.2,619.2,161.2z M619.2,164.2c-1.4,0-2.7,0.6-3.8,1.6c-1.1,1.1-1.7,2.6-1.7,4.6c0,1.9,0.6,3.5,1.7,4.5
		c1.1,1.1,2.4,1.6,3.8,1.6c1.4,0,2.6-0.5,3.8-1.6c1.1-1.1,1.7-2.6,1.7-4.5c0-2-0.6-3.5-1.7-4.6C621.9,164.7,620.6,164.2,619.2,164.2
		z"/>
</g>
</svg>
